P2
112 112
255
63 72 69 63 60 61 66 71 68 61 58 60 61 58 59 64 63 57 56 65 72 76 79 77 74 74 
75 71 66 64 65 67 70 70 69 68 67 69 73 77 77 72 66 65 68 70 69 66 63 62 63 62 
63 64 65 64 67 71 72 70 67 66 67 68 70 73 72 68 69 70 66 63 66 67 62 57 57 61 
65 66 63 62 63 63 59 58 62 67 71 69 63 58 60 66 68 70 74 74 71 71 74 73 67 62 
63 65 66 67 74 78 73 64 71 66 68 72 74 76 78 78 75 70 67 62 56 55 60 64 63 62 
61 59 63 70 73 69 62 58 59 61 59 55 56 62 69 73 74 73 73 76 77 72 68 68 68 64 
58 57 59 63 69 72 70 65 64 65 67 68 67 63 57 55 60 66 68 69 69 65 62 63 63 59 
57 58 57 59 68 70 63 55 55 63 70 67 60 58 62 65 65 62 58 54 56 65 72 73 71 69 
65 63 67 70 66 58 57 65 69 65 62 64 64 60 62 69 67 70 72 74 72 71 72 73 70 67 
66 64 56 54 62 70 70 68 64 57 58 69 76 70 60 56 61 66 63 59 60 65 69 71 72 71 
72 76 76 70 65 63 61 56 51 51 55 63 70 72 68 63 61 61 63 67 66 61 53 51 56 63 
67 68 68 65 59 56 56 57 60 61 58 62 73 75 65 53 54 64 71 68 61 63 69 70 65 62 
60 58 58 62 66 68 70 71 66 61 65 72 73 67 64 67 67 61 58 62 64 59 58 65 57 75 
75 74 69 65 65 65 62 61 64 64 57 56 63 67 66 67 67 60 58 69 78 73 63 60 66 71 
69 66 66 68 68 69 70 72 75 78 76 69 63 60 58 58 58 58 59 63 66 65 61 58 55 54 
58 64 66 63 57 53 53 59 64 66 64 59 53 48 49 57 65 66 61 63 72 74 65 55 55 61 
64 60 57 62 69 69 65 64 64 62 59 60 62 65 69 71 66 60 62 71 76 72 65 62 62 59 
58 63 66 61 55 56 57 73 74 73 68 64 65 66 61 59 62 61 56 56 61 61 58 62 67 62 
58 66 74 70 62 62 68 71 71 69 68 67 66 68 71 74 76 76 72 67 65 63 63 66 68 67 
66 67 66 64 60 56 53 52 55 58 61 63 62 58 54 57 64 66 61 55 50 48 50 58 67 69 
65 67 74 76 69 63 62 61 57 53 53 59 62 61 61 65 69 67 64 64 66 68 68 66 62 58 
60 68 72 68 61 59 62 62 59 61 65 64 59 57 66 64 68 70 67 65 68 69 63 57 57 57 
54 55 60 59 56 61 68 64 59 64 69 64 58 59 64 67 68 67 65 64 65 68 70 71 71 69 
64 63 64 65 65 67 67 65 65 68 70 70 67 62 57 55 55 54 56 61 65 60 54 58 69 73 
65 57 55 56 57 62 67 68 68 75 82 80 73 70 69 64 57 54 57 59 58 56 59 67 74 74 
70 70 72 71 66 60 56 57 62 67 67 63 58 60 65 64 58 56 62 67 68 66 70 58 62 65 
64 63 67 69 62 54 53 55 54 53 57 59 57 60 67 67 64 67 69 63 57 57 60 63 64 64 
63 65 67 67 65 65 66 63 58 56 59 60 60 59 58 55 58 65 72 74 71 65 59 58 57 55 
58 64 65 56 50 57 72 78 70 61 59 62 64 65 66 66 70 79 85 79 70 68 69 65 59 57 
61 64 64 65 69 72 75 76 74 72 73 72 65 56 53 58 67 70 67 62 60 63 66 63 55 54 
61 65 67 70 63 63 63 63 60 58 63 68 62 53 53 58 57 52 52 55 55 57 65 71 71 70 
68 65 62 61 61 62 64 65 66 70 71 68 63 62 64 64 60 57 57 57 55 54 53 52 55 61 
68 71 68 62 58 59 59 60 65 70 65 52 46 53 67 73 68 60 56 59 62 62 61 62 67 76 
79 73 64 62 63 61 57 57 61 67 74 81 81 76 72 72 72 70 69 68 66 60 57 62 72 76 
72 66 63 65 69 65 58 57 62 62 58 61 57 72 69 63 54 51 59 69 67 58 57 62 61 53 
51 55 56 58 67 76 76 68 63 64 67 67 64 65 69 71 72 74 74 69 63 62 64 68 67 64 
63 61 56 54 55 56 56 58 63 66 65 61 61 62 61 62 67 70 65 54 50 54 60 64 63 56 
51 53 56 54 52 55 63 71 73 70 64 58 55 54 54 55 58 65 77 86 84 76 69 70 70 67 
63 64 67 67 65 67 74 78 77 70 65 67 73 71 63 61 64 61 55 56 61 73 73 66 55 50 
58 71 72 63 61 65 64 57 56 62 65 67 73 81 78 66 57 61 69 70 67 69 75 76 72 70 
69 66 63 60 62 67 70 69 68 65 58 55 58 61 60 58 61 65 66 66 68 67 62 57 59 63 
63 61 60 59 58 60 61 57 52 53 55 51 47 53 63 69 70 69 64 55 48 49 55 58 59 64 
74 80 79 74 70 71 70 65 59 60 66 70 68 67 71 75 78 74 69 70 77 75 67 63 65 64 
61 60 69 72 75 71 62 56 62 71 70 63 62 67 68 65 67 72 74 74 75 78 75 66 59 61 
66 67 66 71 75 71 63 61 61 61 60 57 57 61 65 66 67 66 60 55 61 69 68 64 65 66 
66 68 70 67 59 52 52 55 58 61 64 62 60 61 63 60 58 60 59 53 50 56 64 66 64 63 
61 54 49 53 61 64 64 67 72 73 72 71 71 71 69 64 59 60 65 67 66 66 68 74 81 82 
77 76 78 76 69 66 67 68 68 68 74 72 76 74 69 65 66 69 66 62 64 71 74 73 73 74 
74 72 70 68 68 69 67 64 63 64 67 71 71 63 56 57 61 61 59 56 55 57 59 60 65 68 
63 59 66 76 76 71 68 66 63 63 65 62 55 53 52 51 51 56 61 63 62 64 65 62 61 63 
62 55 53 58 62 58 54 55 59 59 59 63 68 66 64 67 70 70 69 69 69 68 67 64 63 66 
70 69 66 68 73 80 87 88 83 79 76 71 69 71 73 72 72 74 78 72 72 71 70 70 71 71 
68 66 71 78 79 75 70 67 67 68 68 66 68 72 72 67 63 66 72 73 70 63 60 63 66 64 
61 59 59 58 56 56 63 70 66 60 63 70 71 68 67 65 62 61 63 59 54 54 53 48 46 51 
57 61 62 65 64 60 60 64 63 57 55 58 57 51 48 53 60 64 67 71 73 67 62 64 67 67 
67 67 66 66 67 68 70 76 79 77 72 73 78 85 88 84 77 71 68 66 68 74 77 75 74 77 
79 73 69 67 70 72 73 71 70 71 76 80 79 72 65 64 66 69 71 72 71 71 68 62 62 70 
75 74 69 65 63 63 63 60 58 59 60 58 54 54 61 67 64 56 52 53 54 57 63 66 65 65 
65 61 55 53 50 46 47 52 55 56 60 66 65 58 57 64 67 63 62 62 57 51 52 57 59 59 
63 72 75 69 63 63 64 65 66 67 66 67 70 73 76 80 83 82 77 74 77 82 82 74 66 62 
62 64 68 73 74 73 74 78 80 74 67 67 72 74 71 69 71 73 75 76 73 66 63 67 70 69 
70 72 70 64 58 55 61 71 74 68 62 60 57 55 54 54 54 56 58 57 55 55 59 62 61 55 
48 43 46 54 63 67 66 66 66 63 58 53 50 50 54 57 54 51 57 68 68 56 52 60 68 70 
71 69 60 56 62 66 60 52 55 66 70 66 63 65 65 64 66 70 71 73 76 77 74 72 73 75 
73 70 72 76 76 70 64 63 65 68 70 69 67 68 72 79 79 75 68 71 78 79 73 71 74 76 
74 71 66 62 65 72 72 66 65 69 68 61 56 57 65 73 70 60 54 52 52 52 53 55 55 55 
57 59 60 61 60 62 64 63 56 50 53 61 65 63 61 61 64 65 62 57 54 58 62 60 53 48 
54 64 64 51 45 53 63 70 74 72 62 61 72 77 66 54 55 63 62 56 58 65 67 65 68 75 
79 79 78 73 66 59 59 63 66 67 70 73 73 71 71 70 69 69 68 64 61 63 70 78 73 77 
70 72 81 83 78 75 78 79 75 70 65 64 68 72 68 64 67 73 72 66 64 67 72 74 68 57 
50 52 56 59 61 63 62 59 59 61 64 65 63 63 67 67 61 56 60 67 64 56 54 59 64 65 
63 58 56 58 59 56 51 48 50 56 55 46 43 49 58 65 71 70 61 61 74 80 70 61 64 68 
60 52 56 66 68 65 67 74 78 76 71 67 60 56 57 63 67 68 70 70 68 69 72 72 67 64 
63 62 60 62 66 72 65 76 67 65 72 78 77 74 76 79 77 71 68 68 69 66 60 61 71 79 
77 72 70 70 70 68 63 56 51 53 60 65 66 67 68 66 63 63 63 63 62 62 62 60 53 51 
60 68 62 52 52 61 65 63 57 52 49 48 47 45 46 46 45 47 48 46 46 51 55 60 66 67 
60 59 68 73 66 63 70 74 66 58 63 70 68 62 62 65 65 63 63 65 64 64 67 72 72 71 
70 66 61 63 69 71 65 59 59 61 64 65 65 65 65 69 61 56 60 68 70 69 74 80 78 72 
69 71 69 59 51 56 69 77 76 72 68 64 60 58 59 57 52 52 56 60 62 67 72 72 67 60 
57 59 62 62 59 53 48 48 56 63 59 51 52 59 60 53 46 42 41 40 37 37 40 42 40 41 
44 46 47 49 51 54 61 64 59 56 60 61 57 59 68 72 67 63 68 72 67 60 59 60 57 56 
62 70 70 69 71 72 69 66 66 62 59 63 71 72 66 58 56 59 68 73 72 66 70 65 61 57 
58 65 68 68 75 81 78 69 68 73 70 58 50 55 63 68 71 71 66 59 55 57 61 60 55 52 
52 54 58 66 72 72 64 55 51 55 63 64 60 55 52 51 53 56 56 52 51 51 47 41 38 40 
44 45 42 40 43 42 38 37 38 37 36 38 41 46 53 58 58 55 55 55 52 54 60 61 57 57 
63 67 62 58 61 64 60 60 69 76 73 67 65 62 57 57 61 62 61 67 74 75 71 65 59 59 
68 79 80 72 68 67 67 65 65 68 69 70 76 80 74 67 67 73 71 61 55 56 58 62 70 73 
68 62 61 62 64 64 61 59 57 56 60 66 69 66 59 51 49 54 60 61 57 54 54 52 50 52 
57 57 54 47 38 34 38 48 57 59 55 51 52 51 46 39 33 28 25 27 31 36 42 49 52 52 
52 52 51 53 56 54 47 45 52 59 59 58 62 66 66 67 73 76 72 66 63 57 52 54 62 64 
63 68 73 73 74 76 71 65 69 79 81 70 63 64 68 70 70 71 71 72 74 76 74 70 70 71 
67 60 57 57 58 64 74 77 71 66 66 66 63 61 64 69 68 65 64 64 63 60 57 54 53 54 
55 55 52 51 53 53 50 51 57 60 57 50 42 40 46 56 65 68 65 62 62 63 61 54 43 33 
27 27 30 31 33 38 43 45 48 51 54 57 59 55 45 39 45 55 61 61 62 65 67 70 72 72 
70 68 66 61 57 61 68 66 63 66 68 68 74 83 82 74 72 75 74 65 63 55 61 67 70 72 
75 74 73 74 75 76 74 69 63 58 58 60 63 68 75 77 71 67 67 64 58 54 59 70 73 68 
62 58 56 58 61 60 55 50 49 52 54 55 56 55 52 49 48 49 51 51 51 52 54 58 64 70 
72 73 74 76 79 77 67 52 40 36 36 34 32 34 39 43 48 55 59 60 60 56 48 42 45 53 
61 64 63 63 66 70 70 68 66 66 64 61 62 69 73 69 64 65 66 65 71 80 82 79 76 74 
70 64 63 51 57 64 68 71 73 73 70 70 73 75 74 69 62 58 61 67 67 66 68 71 69 67 
64 59 52 47 51 62 69 65 57 52 53 59 64 60 50 41 40 48 57 60 58 56 52 47 38 34 
37 44 52 57 57 55 60 70 80 86 88 90 94 95 88 71 54 45 44 42 38 39 44 49 54 59 
61 59 55 53 52 51 49 50 55 61 63 62 64 69 70 66 62 60 59 58 63 73 77 72 68 69 
68 64 65 69 73 76 76 72 68 64 62 57 61 66 66 65 64 65 67 68 67 68 70 69 61 56 
62 70 67 60 59 65 68 65 59 53 49 47 49 58 65 63 57 55 59 65 63 53 40 31 32 42 
54 58 55 52 55 53 42 31 30 37 47 53 53 53 61 74 88 99 104 104 105 106 98 82 63 
53 51 48 42 45 52 55 55 57 58 56 52 52 57 61 56 48 48 57 62 62 62 67 69 66 62 
62 62 61 65 74 80 77 74 75 70 64 61 60 62 66 70 69 66 62 63 62 67 70 67 60 56 
59 66 69 65 64 68 68 59 53 60 68 65 57 59 66 69 64 55 50 50 53 56 62 67 67 63 
63 68 70 61 45 33 29 33 42 51 55 53 54 62 66 54 39 35 39 44 46 48 53 65 80 95 
109 118 119 118 114 104 87 73 65 59 49 41 47 57 58 52 51 54 56 54 54 60 64 59 
49 50 59 64 63 61 63 66 66 68 73 74 70 68 75 80 77 76 78 74 68 65 61 57 56 60 
66 67 64 66 64 72 75 70 62 57 61 68 70 65 63 67 67 58 52 56 64 63 60 63 69 68 
63 56 53 54 58 62 65 70 71 68 66 70 70 59 45 37 37 43 49 54 57 57 61 70 72 60 
47 43 43 39 36 40 51 67 83 100 116 127 132 132 126 111 95 87 82 68 47 36 45 60 
61 52 48 53 59 57 53 54 55 50 47 53 62 64 62 61 61 63 68 75 81 80 72 67 72 75 
70 71 79 81 78 77 71 60 52 54 61 65 65 60 70 78 78 72 67 66 68 70 68 64 64 68 
67 60 54 55 59 61 62 65 67 66 62 60 59 57 57 59 63 69 71 67 63 65 68 62 51 45 
46 52 57 57 57 60 66 73 71 59 49 46 40 31 26 32 46 65 85 102 117 129 139 145 
138 119 102 95 89 70 44 33 44 61 64 56 51 55 58 55 50 47 43 37 39 49 57 59 59 
62 63 65 71 76 76 70 62 59 65 68 64 67 80 87 86 85 80 68 57 55 57 58 59 53 76 
80 75 70 70 73 75 73 69 66 65 68 68 65 59 56 58 62 64 65 67 65 61 59 58 55 53 
55 60 65 66 61 57 60 66 65 55 46 46 54 58 57 55 58 64 68 65 56 48 44 36 26 24 
32 46 66 88 106 119 130 143 152 144 122 101 90 82 65 45 36 44 58 64 59 55 55 
54 50 49 49 43 34 34 43 51 54 59 65 67 68 71 70 63 55 50 52 61 66 65 68 79 85 
83 82 80 73 66 62 58 54 53 55 73 75 71 67 68 72 75 75 74 70 67 67 70 70 64 59 
61 65 66 66 69 69 60 54 53 51 49 50 56 62 62 56 52 56 64 63 52 41 41 50 55 53 
53 57 61 62 58 51 45 41 36 31 33 40 52 71 94 114 125 133 144 150 140 116 92 78 
71 63 51 41 41 51 60 60 55 51 48 47 51 55 50 41 39 46 52 56 63 68 67 64 64 63 
57 50 50 56 64 69 68 69 75 77 74 74 75 71 67 67 64 59 55 61 66 71 69 67 66 67 
68 71 74 72 68 68 71 72 66 59 61 66 65 64 69 70 61 52 52 52 46 43 48 56 59 55 
52 55 62 61 51 42 41 45 46 48 54 62 64 60 53 45 39 36 35 37 43 51 61 80 105 
126 137 140 143 142 129 105 83 70 64 60 51 38 35 45 58 59 53 47 45 46 52 55 52 
48 48 52 57 63 69 69 62 56 56 58 57 55 58 65 71 72 69 67 70 71 69 69 67 62 60 
64 67 65 61 61 64 69 68 66 67 65 61 61 67 71 70 70 72 69 61 56 60 66 64 59 62 
67 62 56 57 57 47 37 39 48 55 56 56 57 60 61 56 51 47 42 39 44 57 67 66 59 51 
41 34 31 33 41 53 65 78 97 119 139 148 148 144 135 116 93 78 69 61 53 42 31 29 
40 52 52 48 46 48 51 53 52 50 52 55 55 56 63 70 68 59 52 52 54 56 57 62 70 73 
70 67 66 69 71 68 65 61 56 55 61 66 65 62 62 65 67 64 63 68 68 60 56 62 70 71 
70 69 64 58 57 64 71 67 59 59 63 62 59 61 59 48 36 34 39 47 55 60 59 56 55 55 
56 53 46 40 46 59 65 62 56 49 40 35 34 40 53 71 90 107 124 141 155 162 160 151 
133 107 85 77 72 60 45 35 28 27 33 39 39 40 46 52 57 58 54 54 60 63 56 50 56 
64 64 59 55 53 54 54 53 57 64 64 61 62 66 69 69 67 62 58 57 59 64 67 67 62 66 
64 63 58 59 67 70 64 60 66 72 69 67 67 66 63 64 71 76 72 64 62 66 66 62 61 56 
46 36 32 34 43 55 63 59 50 44 45 50 55 53 48 50 56 59 58 56 50 44 42 48 58 73 
96 120 142 158 170 179 184 180 164 139 109 89 83 77 61 45 39 36 31 27 26 26 32 
42 51 60 63 61 63 71 72 60 49 51 56 57 57 57 55 54 53 51 52 54 51 51 58 65 66 
65 64 61 61 64 65 65 66 68 67 69 62 61 58 59 65 68 65 65 70 72 67 65 70 73 71 
70 73 77 74 68 67 69 69 65 60 51 41 34 33 36 44 58 66 60 48 41 39 43 53 58 55 
52 54 57 62 65 59 52 53 62 75 93 118 147 173 192 204 213 217 208 185 155 129 
111 100 86 66 53 51 48 37 26 23 25 28 36 47 58 63 63 67 76 80 70 58 53 52 53 
56 57 55 54 55 55 53 50 47 49 60 66 62 60 63 66 68 70 66 60 60 66 69 70 63 63 
62 60 61 62 61 61 66 68 64 64 71 76 72 68 70 74 75 71 68 67 67 65 60 50 40 37 
39 42 48 58 63 59 53 49 45 44 53 62 62 59 60 64 71 74 69 61 62 70 85 107 136 
170 202 225 240 249 252 238 208 178 159 145 128 103 80 68 65 56 40 29 28 30 30 
35 46 57 61 61 67 78 84 80 70 61 56 54 57 58 54 53 57 61 60 56 52 54 64 68 62 
60 66 73 74 72 65 59 60 66 70 76 66 66 65 61 58 58 56 53 57 61 61 62 67 70 66 
62 65 73 76 72 65 61 61 63 61 53 46 46 48 49 48 51 55 55 58 61 57 53 59 69 72 
72 73 75 77 76 71 67 68 75 91 119 155 193 229 255 255 255 255 255 223 194 182 
174 156 128 103 88 77 61 43 33 32 31 31 36 48 56 60 63 71 80 85 82 75 68 61 58 
59 59 54 52 58 65 66 62 56 57 65 69 64 61 68 76 76 70 64 64 70 74 76 79 72 72 
67 60 56 58 57 52 54 61 63 60 62 64 60 55 59 70 75 70 62 57 56 59 60 56 54 55 
56 50 44 43 48 54 61 66 65 63 69 78 81 81 81 81 77 72 69 70 72 79 97 129 170 
213 250 255 255 255 255 255 229 204 194 191 178 157 135 116 95 72 50 36 30 27 
27 35 46 55 61 68 74 77 76 74 71 68 63 57 55 56 54 52 56 64 66 62 57 56 61 66 
64 63 68 74 72 63 59 67 77 80 79 73 80 80 72 59 53 57 59 56 57 63 64 59 58 60 
58 53 55 64 69 67 61 54 51 53 55 55 56 59 56 48 40 41 50 59 63 65 66 67 75 84 
88 87 86 84 78 70 67 69 73 81 100 133 176 220 255 255 255 255 255 248 229 212 
204 205 201 192 179 161 131 96 64 42 28 22 22 29 41 52 60 65 66 61 57 58 62 64 
59 49 46 52 55 53 54 59 62 61 59 57 58 61 61 60 64 69 66 57 55 63 72 75 73 69 
81 81 75 63 55 57 60 57 56 61 64 59 56 58 58 56 57 61 65 65 62 53 46 45 47 50 
55 58 56 49 44 48 59 65 65 65 66 69 77 88 96 97 96 92 83 71 64 66 71 81 103 
135 174 214 249 255 255 255 241 233 224 215 215 224 231 233 230 215 179 131 
85 51 29 19 16 21 34 48 56 57 53 46 43 47 55 57 50 40 39 48 56 56 55 57 61 65 
66 65 62 58 55 55 59 62 60 56 58 63 67 69 69 73 72 75 76 71 64 62 64 58 52 56 
64 64 59 57 59 61 63 64 64 65 64 56 47 45 47 50 56 59 56 51 52 59 67 70 68 69 
71 73 78 89 102 110 111 105 91 72 61 63 71 84 107 137 168 199 228 244 243 231 
221 216 211 210 222 245 255 255 255 255 218 164 110 66 35 19 12 16 29 45 53 53 
50 45 43 45 49 46 39 33 37 47 57 60 59 60 63 67 70 72 68 60 52 53 58 58 56 61 
67 70 72 73 73 74 68 72 77 77 70 66 67 62 54 56 68 73 67 59 58 61 64 63 60 62 
63 59 53 52 51 53 57 58 53 51 57 68 75 74 72 74 77 78 79 86 100 112 118 113 
93 69 57 60 69 81 103 131 158 184 207 219 217 208 202 198 194 200 227 255 255 
255 255 255 240 190 137 87 46 21 11 14 27 41 48 50 50 49 47 45 41 35 31 32 39 
48 58 62 63 62 62 62 64 70 71 62 53 56 62 60 57 65 74 76 75 76 75 69 72 73 75 
73 65 60 64 68 64 63 71 78 73 63 57 58 59 56 53 56 60 59 56 54 52 53 56 55 49 
48 57 71 80 81 77 76 76 76 76 79 89 102 111 104 82 59 53 57 61 69 88 114 142 
169 192 202 199 190 183 179 181 198 234 255 255 255 255 255 255 210 159 107 
59 26 12 14 24 33 37 40 44 47 47 44 38 33 33 39 45 52 58 62 63 63 61 58 57 63 
68 62 56 60 67 64 60 67 73 71 68 69 69 66 73 72 68 64 58 53 59 70 73 70 70 74 
73 67 62 60 57 53 50 52 58 59 56 52 50 53 57 56 53 52 57 68 78 84 84 79 72 68 
70 74 80 89 96 90 69 53 52 56 55 58 73 96 124 154 178 190 188 178 167 164 175 
206 247 255 255 255 255 255 255 222 167 113 66 33 16 16 20 23 25 29 36 44 49 
49 45 43 47 52 55 56 58 59 60 62 63 60 58 62 66 64 61 65 69 66 63 67 68 62 58 
61 65 68 70 67 62 60 58 53 55 66 72 68 65 69 73 72 69 65 60 55 53 54 58 60 56 
51 51 57 62 63 62 62 61 61 68 78 86 83 72 66 70 77 80 84 87 80 63 52 54 58 57 
59 70 89 115 143 164 176 177 168 154 149 168 210 255 255 255 255 255 255 255 
222 161 105 62 33 18 17 19 18 20 26 35 46 55 58 57 58 62 64 64 62 58 55 57 62 
67 66 65 65 66 65 65 67 68 67 66 66 64 59 57 62 67 65 72 69 64 63 64 58 54 58 
64 63 62 69 76 77 72 65 59 57 56 54 55 56 55 52 52 57 61 62 65 68 66 60 60 69 
82 86 78 72 77 85 85 82 79 71 55 45 48 54 58 65 77 91 114 138 154 160 161 155 
141 135 155 200 251 255 255 255 255 255 255 216 153 94 51 23 11 14 20 19 20 28 
40 52 60 62 61 62 66 69 72 69 61 53 56 65 69 68 66 63 62 63 64 64 66 68 69 68 
65 64 64 65 65 58 73 72 68 68 68 62 55 56 61 63 64 71 78 76 68 59 54 55 55 52 
49 51 53 52 51 51 49 49 58 69 73 68 64 69 79 85 82 79 83 89 87 78 69 59 43 33 
34 42 52 65 78 94 116 139 150 151 148 143 134 131 145 182 230 255 255 255 255 
255 252 209 148 87 40 11 2 10 20 22 23 33 46 57 61 59 57 57 61 68 76 75 62 53 
57 66 67 63 59 56 56 59 62 62 64 69 72 71 70 71 71 66 59 58 67 68 66 66 68 64 
58 58 63 64 63 67 73 71 62 53 51 56 58 53 50 53 57 57 53 48 41 41 53 71 79 76 
72 74 79 82 82 81 84 87 83 73 64 53 40 30 29 33 41 55 71 90 116 141 154 153 
145 137 133 134 144 168 204 245 255 255 255 255 231 190 133 77 34 7 0 8 21 27 
33 43 54 60 59 54 52 52 56 65 73 72 60 52 57 63 60 56 55 54 54 59 62 61 63 70 
76 76 75 77 76 68 59 63 61 63 60 61 65 63 57 58 64 63 60 62 66 65 58 52 54 63 
66 62 58 61 65 64 59 52 44 45 57 73 78 74 71 75 79 81 82 84 85 84 79 71 64 57 
46 36 30 29 31 42 60 83 111 140 158 158 145 133 129 132 140 156 183 218 249 
255 254 230 197 153 101 57 28 12 7 12 24 36 46 55 59 59 54 50 50 53 56 59 62 
61 55 53 57 59 56 55 58 58 57 60 62 63 67 75 80 79 77 80 81 76 65 68 62 62 56 
56 61 59 55 58 64 64 62 64 67 64 59 56 61 71 74 69 64 66 69 67 62 54 49 51 61 
70 69 64 65 75 82 84 88 92 90 85 78 72 67 61 51 38 27 22 24 35 53 78 106 134 
153 153 138 124 120 122 129 144 169 199 225 235 225 198 160 115 70 37 21 17 17 
20 29 42 54 59 58 55 51 49 52 56 56 52 49 49 51 54 57 58 56 57 60 58 55 56 60 
66 74 82 82 76 74 79 85 82 71 72 63 62 54 51 56 55 53 58 66 67 68 72 73 70 65 
63 67 72 72 64 60 63 68 66 57 49 46 50 57 61 59 57 64 78 87 89 92 96 93 86 81 
76 70 61 48 30 18 15 21 33 51 72 96 120 138 138 125 114 112 116 122 137 160 
188 208 212 198 171 136 97 59 29 16 16 21 27 35 45 52 54 54 56 54 52 53 56 55 
48 43 45 49 51 53 55 58 60 59 54 50 51 58 69 79 82 75 67 67 75 84 84 75 76 64 
62 54 50 53 52 51 57 64 66 69 75 77 73 69 68 67 65 59 51 49 56 64 61 49 41 42 
47 51 53 54 57 67 81 87 86 88 92 90 85 84 81 72 59 42 24 12 12 20 32 47 64 83 
105 122 126 117 111 112 118 126 138 158 181 195 192 175 151 124 94 59 28 11 10 
18 27 37 45 46 45 50 60 64 57 52 54 56 52 46 44 44 43 45 52 61 63 58 52 51 55 
61 69 74 71 64 59 62 71 79 81 77 76 67 67 62 59 59 56 53 58 64 66 69 73 74 71 
69 68 63 55 47 41 41 49 57 54 43 40 45 50 50 53 58 62 68 76 77 74 78 84 84 81 
82 81 72 58 41 23 11 9 15 27 43 61 80 99 115 121 119 115 117 124 134 146 162 
179 187 179 158 136 116 90 57 27 11 9 14 22 33 44 46 43 50 65 71 60 49 50 56 
55 48 41 38 37 42 53 63 65 59 56 60 65 65 64 65 63 62 62 65 69 74 77 76 70 70 
71 70 70 69 65 63 67 70 70 69 70 69 69 70 69 63 52 44 38 38 43 51 51 44 43 50 
54 54 60 66 66 64 66 65 64 70 80 84 81 78 78 72 61 45 26 11 5 8 21 42 66 89 108 
119 123 123 122 124 132 144 157 171 185 190 178 155 133 111 84 53 30 21 19 18 
18 29 46 55 52 55 68 72 59 45 46 53 54 47 38 34 36 44 56 64 63 58 58 64 69 65 
59 60 66 72 74 72 71 73 75 71 63 68 69 69 69 69 69 71 75 76 72 69 68 69 72 75 
74 68 57 47 40 36 41 52 56 50 47 50 53 56 65 70 64 57 57 59 58 64 78 86 84 79 
78 76 66 50 31 14 3 4 18 44 75 102 123 133 134 132 132 137 147 158 171 185 199 
203 192 170 145 117 84 55 39 33 30 26 24 32 50 62 61 62 72 73 59 45 42 48 50 
47 42 39 40 48 56 62 63 59 57 61 66 63 58 60 70 79 80 78 77 79 76 66 62 64 66 
66 63 64 67 72 75 73 68 65 66 69 73 76 76 71 64 54 44 39 45 58 64 57 49 46 47 
54 63 66 57 49 51 54 52 55 71 85 87 83 82 80 72 57 40 24 10 7 21 50 83 113 137 
153 157 154 153 157 167 178 188 201 215 221 213 194 169 133 94 63 46 35 28 28 
32 40 51 58 59 64 75 76 64 49 42 43 47 51 53 50 48 50 55 60 64 62 57 58 64 65 
61 62 69 74 74 76 82 87 81 66 65 62 68 66 62 64 69 71 69 64 60 58 60 64 67 68 
68 68 67 61 54 52 57 64 66 58 49 43 44 52 62 62 53 46 49 50 44 45 59 77 84 83 
84 85 79 68 55 40 26 21 33 64 101 132 159 180 191 189 184 183 190 200 210 220 
231 235 228 212 187 150 107 72 50 31 20 25 37 46 50 50 52 62 76 78 67 54 47 45 
47 53 59 60 58 56 57 62 65 63 57 56 63 66 63 62 65 67 66 69 79 88 84 69 65 60 
65 63 61 67 73 71 64 58 54 53 54 55 56 55 57 62 66 66 66 68 70 68 62 56 51 46 
45 54 64 63 55 51 53 51 41 37 48 63 73 79 87 93 91 81 70 59 48 43 55 89 133 
170 197 215 225 225 219 213 215 225 234 239 241 239 230 215 192 157 113 77 52 
32 21 26 41 51 52 49 51 62 73 74 64 56 54 54 54 55 59 63 65 64 64 65 64 61 56 
57 62 63 58 59 65 68 65 65 72 80 78 68 62 57 58 55 56 66 74 70 60 54 52 50 48 
47 47 49 54 61 64 64 68 74 75 68 60 59 58 53 51 59 68 68 63 61 62 56 42 34 40 
52 64 78 95 106 105 96 85 79 75 72 83 118 168 213 239 248 251 252 249 241 239 
246 254 253 244 233 222 206 186 155 114 75 49 35 30 34 45 54 56 54 55 61 66 64 
57 54 57 62 64 61 60 62 66 67 66 65 63 61 60 64 67 61 52 55 67 72 68 66 70 72 
69 63 59 57 56 53 54 62 68 64 54 49 49 49 44 39 41 50 60 66 63 57 60 70 75 68 
62 63 64 60 59 65 72 71 68 68 67 57 40 32 36 46 61 82 106 120 121 113 106 105 
106 106 114 144 193 240 255 255 255 255 255 255 252 254 255 253 237 221 208 
194 177 150 110 69 42 32 33 38 45 50 51 51 51 52 54 55 54 55 58 63 68 67 64 64 
66 64 61 61 62 65 68 73 74 67 57 59 69 72 68 67 70 69 63 59 60 60 61 60 59 60 
62 58 48 45 49 49 42 36 41 54 65 68 61 53 55 66 73 67 61 62 64 62 65 72 74 69 
64 63 60 48 32 26 31 43 59 84 110 129 136 134 134 137 140 137 140 165 207 246 
255 255 255 255 255 255 252 247 246 238 223 207 193 178 162 138 103 64 36 26 
28 35 41 42 40 38 39 41 45 51 57 60 60 62 68 71 70 71 71 66 59 59 64 70 74 75 
76 73 68 68 71 68 63 65 70 69 63 60 64 62 66 68 64 59 57 55 50 50 55 53 43 38 
46 57 64 65 61 57 60 68 71 63 56 58 62 63 67 73 71 61 53 51 48 36 23 19 26 40 
58 82 109 133 151 160 164 167 165 157 156 175 209 239 255 255 255 255 255 255 
241 230 221 212 200 187 173 158 140 117 89 60 37 26 25 32 38 37 32 29 31 38 46 
53 59 62 61 61 65 70 74 78 80 74 66 65 71 76 76 73 70 69 70 71 69 63 59 63 68 
69 66 65 69 62 65 66 62 56 56 58 60 63 65 58 47 45 53 59 60 61 64 66 69 71 66 
57 54 59 63 62 64 68 64 53 45 44 42 33 21 17 24 39 59 80 105 134 162 180 185 
187 182 170 164 178 203 225 241 253 255 254 245 235 222 207 191 180 172 162 
149 133 114 92 70 53 40 30 27 33 39 39 33 30 36 46 54 55 54 55 57 57 60 66 73 
79 81 76 71 71 75 77 76 71 65 60 61 64 65 60 57 60 65 67 69 69 70 60 60 59 53 
50 53 59 66 71 70 60 52 55 62 63 61 63 67 69 69 68 62 55 54 58 59 56 56 60 59 
52 45 45 44 35 23 16 21 37 57 75 96 126 161 184 191 194 195 186 177 181 197 
210 219 227 232 229 222 213 200 181 163 151 145 138 127 112 92 69 51 42 38 34 
33 38 44 45 41 39 43 53 56 50 43 44 49 51 54 61 70 74 71 66 65 67 69 69 69 70 
66 57 55 59 63 60 57 59 62 65 68 70 67 64 61 55 48 46 49 55 64 71 70 63 60 64 
68 66 65 67 65 59 58 61 60 56 53 52 50 48 50 54 56 54 51 50 46 36 23 16 20 32 
47 62 82 114 150 173 181 189 200 200 190 186 191 197 200 202 205 206 201 191 
177 160 143 132 127 122 112 95 74 52 35 29 32 36 40 45 51 53 49 46 46 50 48 38 
31 37 46 49 50 56 63 64 58 53 56 60 60 56 57 64 65 58 55 60 64 61 58 61 65 65 
64 66 62 71 68 60 51 46 46 52 62 71 71 67 67 70 69 66 68 68 59 47 47 55 60 57 
52 48 47 46 47 49 50 52 53 52 47 38 28 24 26 33 41 53 73 105 140 160 167 179 
197 204 195 185 186 189 190 191 192 190 183 171 160 151 139 126 118 112 99 80 
60 40 25 20 27 37 43 46 51 54 53 50 47 45 39 30 28 38 48 49 47 50 54 55 52 49 
52 57 58 53 51 54 56 55 57 62 62 58 60 68 72 67 60 61 62 74 73 66 59 53 49 53 
62 69 69 67 68 67 63 62 66 67 57 45 44 52 58 57 54 52 51 49 46 43 42 45 48 49 
46 42 39 40 43 47 53 62 80 106 133 148 155 169 191 199 191 182 181 186 189 192 
192 186 173 161 156 154 145 131 119 108 91 70 54 39 24 18 26 37 40 40 44 51 55 
54 51 48 43 38 38 45 49 47 44 45 49 52 54 52 51 56 62 61 55 51 50 53 60 62 57 
53 61 74 78 70 60 60 67 74 73 69 66 62 59 60 64 65 63 64 65 62 58 59 64 65 57 
49 48 53 56 57 58 57 53 48 45 44 42 42 43 42 43 46 52 60 69 76 83 91 101 114 
126 132 138 155 177 186 182 180 184 188 192 196 198 191 180 170 166 163 153 
138 124 109 90 71 58 46 30 21 28 36 36 36 45 55 60 59 57 57 55 53 54 54 51 46 
46 50 54 59 61 56 51 56 67 72 66 55 51 56 64 62 54 52 64 77 79 71 64 65 70 75 
73 70 70 71 70 69 67 64 63 65 66 62 61 63 64 61 55 52 53 56 57 59 61 57 49 45 
48 51 50 46 41 38 41 51 67 86 105 119 128 132 133 132 128 121 122 139 160 169 
173 182 192 196 196 200 204 203 196 188 181 173 160 144 129 113 93 75 63 50 33 
25 31 36 35 40 55 66 67 61 59 62 64 62 60 58 52 49 55 63 66 68 68 63 58 60 70 
75 70 60 55 59 64 63 57 61 74 81 78 71 67 69 68 78 73 68 71 74 75 73 69 68 70 
72 68 64 67 71 66 56 50 52 57 60 62 64 63 55 46 47 54 56 50 43 39 39 46 62 88 
121 153 174 180 177 171 162 147 129 123 135 149 156 163 181 199 205 205 209 
214 214 208 200 193 183 168 149 130 110 90 73 59 45 31 28 34 38 38 45 61 71 68 
61 60 65 65 61 57 55 51 52 63 72 74 71 70 69 69 69 71 73 70 62 56 58 63 66 68 
74 82 83 77 71 69 68 68 74 68 64 66 70 70 66 64 67 74 74 66 62 68 73 64 51 47 
53 60 62 64 66 65 58 52 57 60 52 39 32 33 41 57 83 120 164 202 224 229 221 211 
198 176 150 135 137 143 144 153 174 197 210 215 220 223 223 215 206 200 193 
176 152 127 104 84 67 53 40 32 32 39 44 44 49 61 68 66 61 62 67 66 60 57 55 51 
51 61 71 72 66 64 68 74 73 71 71 69 63 57 59 66 73 76 79 80 78 74 72 70 68 71 
70 66 63 62 63 63 58 56 63 74 74 64 57 62 66 58 46 44 53 60 60 59 63 67 67 66 
69 66 49 31 23 27 44 72 111 159 204 239 255 255 255 245 225 198 166 144 136 
133 132 141 163 187 205 214 220 224 226 221 211 202 192 173 147 122 99 78 63 
54 45 39 38 44 50 53 54 59 64 65 63 62 65 65 64 65 64 57 52 57 66 67 62 58 61 
67 68 66 68 68 64 59 60 67 74 76 75 74 74 74 76 75 72 74 71 70 65 60 59 59 57 
55 60 71 74 66 59 61 63 57 48 48 55 59 56 52 57 69 76 77 74 67 51 34 24 26 45 
81 131 187 232 255 255 255 255 255 237 205 172 145 130 121 120 131 151 172 188 
199 206 213 221 220 207 191 175 154 132 113 94 72 58 55 53 48 44 46 53 57 56 
56 59 62 61 56 56 60 67 73 75 68 61 61 66 68 64 58 57 59 58 60 65 67 64 60 58 
60 65 69 72 75 78 78 77 77 75 72 70 69 64 59 58 60 59 57 57 62 67 67 65 66 69 
66 60 57 60 61 56 51 55 69 79 75 66 58 51 40 30 29 46 82 132 191 239 255 255 
255 255 255 238 205 172 144 123 111 111 122 139 153 165 176 186 197 206 204 
186 165 147 128 111 101 86 64 50 50 55 54 50 48 51 53 49 46 50 56 54 48 47 55 
65 73 77 76 73 72 72 71 67 63 62 59 56 59 65 69 67 64 59 56 59 64 71 78 82 78 
72 73 73 66 62 61 61 60 60 62 62 59 54 52 57 63 66 69 73 71 65 59 58 61 60 57 
60 69 73 62 49 44 44 42 35 35 49 77 117 171 224 255 255 255 255 255 235 203 
170 138 113 100 98 108 120 131 140 152 165 177 182 175 154 135 120 103 88 82 
71 53 41 42 49 53 53 51 48 44 39 37 44 52 50 45 47 57 66 70 72 75 77 77 73 69 
66 66 66 62 58 62 69 72 71 69 67 66 65 64 66 72 75 70 64 65 67 63 56 59 65 68 
66 65 65 64 58 54 56 62 64 65 66 63 57 52 53 59 64 65 67 70 66 52 39 36 39 40 
38 39 49 68 98 142 194 238 255 255 255 255 224 192 158 124 98 83 79 86 97 107 
115 127 138 145 146 135 119 108 97 79 63 57 51 38 31 34 42 48 53 54 50 41 34 
35 45 52 52 49 54 62 68 67 64 65 69 70 68 65 63 64 63 59 57 62 68 70 69 71 74 
77 74 65 58 59 64 65 62 62 63 63 61 67 74 75 71 65 64 65 66 65 66 66 63 59 56 
53 50 50 55 62 67 69 72 72 65 53 44 40 40 41 39 37 43 57 82 118 162 202 232 
249 244 223 196 167 134 100 75 62 57 61 72 82 88 96 102 103 99 94 89 87 80 61 
43 38 33 26 25 33 38 43 53 61 59 47 38 41 50 56 56 55 55 58 61 60 57 56 58 62 
66 68 65 60 56 53 54 60 65 67 67 70 75 78 75 65 55 54 60 67 67 65 63 63 67 72 
74 73 69 63 58 60 65 67 69 69 64 58 54 52 54 58 64 67 67 68 71 72 68 62 56 52 
50 47 41 34 34 45 69 100 134 164 189 202 196 176 156 135 106 73 51 42 39 42 51 
59 63 65 65 63 63 66 73 80 76 57 38 32 29 27 32 41 43 45 56 69 70 59 49 52 59 
61 60 56 50 46 47 52 55 57 59 64 72 75 68 58 53 54 58 61 64 67 70 72 73 73 71 
67 61 58 62 69 70 67 64 64 66 66 64 67 69 65 58 56 58 61 64 66 65 61 58 58 60 
66 71 71 67 65 67 69 67 63 61 60 59 56 47 36 30 35 53 80 106 128 145 153 144 
127 117 107 84 53 32 27 28 30 38 46 48 45 42 43 49 59 71 81 79 61 41 32 32 34 
43 51 52 51 59 71 74 68 63 66 69 66 61 55 47 41 42 50 59 65 68 72 79 78 69 59 
57 60 63 63 62 65 71 73 71 69 69 69 67 64 65 66 67 65 64 64 63 60 59 67 74 71 
62 59 59 60 62 65 65 63 61 61 63 68 73 75 70 65 64 64 60 55 55 60 64 62 54 42 
32 30 38 56 76 93 105 106 95 82 78 77 64 40 23 20 22 26 33 41 42 37 35 40 51 
60 66 71 70 56 39 31 33 39 47 54 57 58 62 67 72 72 73 75 73 65 56 52 50 47 45 
50 61 68 71 75 80 77 69 63 63 64 64 62 62 64 67 68 69 69 70 71 69 67 65 64 64 
63 64 65 66 64 64 71 76 69 61 61 64 66 67 68 65 63 65 66 67 69 74 76 72 65 62 
60 54 48 51 60 66 65 58 47 36 31 32 40 51 62 68 66 54 44 44 49 47 36 26 22 23 
25 30 37 40 37 37 46 56 56 50 48 49 44 35 35 43 48 50 52 57 61 63 66 71 76 78 
76 70 59 49 48 51 50 45 46 54 60 64 71 78 77 72 70 69 64 59 62 68 69 65 64 69 
74 75 71 66 63 63 65 66 65 65 64 73 72 69 71 70 61 55 59 66 69 70 70 67 66 70 
73 71 69 69 68 64 61 60 59 53 51 58 68 71 68 61 51 41 36 34 34 37 41 42 38 30 
24 27 36 44 44 37 31 29 28 30 35 40 42 44 53 59 51 38 34 38 39 39 49 63 65 56 
50 54 60 63 67 74 80 79 75 69 60 51 49 50 48 41 40 46 50 57 69 78 77 75 76 72 
61 55 63 75 76 67 63 72 81 77 67 57 55 59 67 71 68 64 60 74 71 66 66 67 62 58 
61 64 65 69 73 72 70 73 76 73 67 62 57 53 55 60 62 58 57 65 73 74 70 65 56 48 
42 38 36 36 37 34 30 27 28 34 43 53 56 49 40 36 36 37 40 46 51 56 62 62 52 43 
43 47 46 48 62 78 77 62 51 52 58 61 66 73 77 76 75 73 70 64 58 54 51 47 46 47 
51 59 72 78 74 72 76 72 61 56 64 76 77 67 64 74 83 77 63 52 51 57 65 69 66 60 
57 67 63 58 61 67 69 68 66 62 59 66 74 74 68 69 74 72 67 63 57 53 56 64 68 64 
61 66 72 71 67 67 64 57 49 43 41 43 44 41 38 39 44 49 55 59 58 51 45 44 45 44 
45 51 60 66 67 61 55 55 60 59 52 52 66 81 80 66 56 57 60 61 63 65 65 65 68 75 
80 76 67 60 59 59 58 56 58 67 77 78 71 70 74 73 66 64 69 76 75 67 64 73 80 76 
66 60 59 60 60 60 58 57 61 60 57 53 57 67 72 72 68 60 56 63 74 72 64 64 69 70 
68 69 68 62 61 67 72 67 63 65 68 64 61 65 71 69 59 51 50 52 54 52 50 52 56 59 
58 54 51 51 53 56 55 50 47 52 63 69 64 55 53 60 65 59 51 55 70 82 78 65 60 63 
66 65 61 58 53 52 59 73 83 81 70 62 63 67 65 61 61 68 76 76 71 70 73 72 70 71 
75 77 76 70 65 68 73 75 73 73 70 64 56 53 56 60 68 61 58 55 60 68 72 72 69 62 
58 65 74 72 63 63 67 66 65 71 74 69 63 65 68 66 62 63 64 59 54 60 72 75 68 60 
56 57 58 57 56 58 63 63 57 50 50 57 67 71 66 57 51 53 60 62 56 50 52 59 60 53 
49 61 79 86 74 60 57 64 68 66 60 54 48 47 57 74 87 83 69 60 63 67 64 58 58 64 
71 73 72 70 69 68 69 71 72 74 75 71 65 64 67 72 77 79 76 68 59 56 61 67 72 67 
64 63 70 75 74 71 71 69 66 69 74 71 63 64 66 62 62 68 72 67 61 61 64 62 60 62 
63 58 53 57 67 73 71 65 60 60 62 61 58 60 66 69 63 56 55 64 75 78 72 64 60 59 
58 55 52 52 55 59 56 49 51 67 85 85 68 53 54 62 65 61 54 49 48 52 64 80 90 85 
71 64 65 66 60 55 57 63 68 72 73 70 66 64 66 68 67 67 69 67 64 64 67 71 75 77 
78 76 69 63 65 71 71 70 66 69 80 84 77 70 71 73 71 72 73 68 62 62 65 64 64 69 
69 62 57 59 61 60 58 60 62 62 61 61 63 66 67 64 62 66 71 69 63 63 70 74 71 63 
57 61 69 75 73 70 68 65 60 55 53 54 54 52 48 46 52 67 79 75 60 52 58 64 60 51 
45 44 50 58 69 80 87 83 75 71 70 66 58 55 60 67 71 74 75 72 67 64 66 68 67 65 
65 65 66 69 72 73 74 75 80 83 77 66 62 70 70 70 63 67 81 86 78 70 69 71 70 71 
71 66 62 63 65 67 69 72 68 59 55 57 60 57 54 55 59 65 70 70 65 62 62 61 62 71 
79 76 69 69 73 75 72 63 54 51 59 68 72 71 68 64 60 57 55 52 46 40 37 41 52 65 
72 66 56 56 65 66 56 44 40 44 52 61 67 72 78 80 78 74 70 63 56 56 62 68 71 74 
75 73 68 64 65 69 69 67 67 70 73 74 74 73 73 73 79 84 79 65 60 68 68 71 62 64 
76 84 80 74 71 69 67 67 68 67 64 64 65 66 69 72 69 62 59 60 60 56 52 50 54 62 
72 73 65 58 57 59 61 69 75 73 68 69 71 70 68 62 52 45 50 60 67 67 63 59 57 58 
56 52 45 39 36 41 54 69 74 67 59 60 67 65 54 45 45 50 57 63 64 65 73 80 78 72 
65 60 58 59 64 68 69 70 69 67 63 62 63 67 68 67 70 77 79 75 70 68 69 71 76 81 
78 68 62 67 66 74 66 66 73 77 77 76 76 71 65 63 65 65 65 63 60 61 66 70 71 70 
69 68 66 62 57 54 55 60 67 67 58 51 54 59 62 66 67 63 59 60 62 63 65 63 52 41 
40 47 56 61 61 58 58 61 62 61 58 52 46 47 60 76 80 73 65 64 67 66 59 54 53 55 
61 65 63 63 70 77 74 66 62 63 64 65 67 69 70 66 61 58 59 63 67 68 67 66 71 77 
77 70 64 62 65 71 75 78 78 72 66 65 67 73 71 71 71 68 67 72 75 72 66 62 61 62 
61 58 55 59 67 70 72 75 76 73 69 67 65 63 60 59 62 62 56 52 56 63 66 67 65 58 
50 49 53 57 61 60 50 39 36 39 45 54 60 62 63 65 68 70 69 63 57 58 68 78 79 74 
69 69 71 70 67 61 56 55 61 64 61 59 64 69 67 64 66 72 72 69 70 73 72 65 59 59 
65 71 74 73 68 66 69 70 68 66 65 65 66 72 77 77 75 71 67 67 73 73 76 76 72 65 
63 67 70 71 69 65 60 59 60 57 54 61 71 72 71 74 74 69 65 64 65 64 60 56 57 62 
63 61 62 65 68 69 67 57 46 44 49 54 55 53 48 47 48 45 42 45 56 64 66 65 65 66 
67 64 65 70 75 74 68 65 65 69 71 70 66 60 52 51 58 61 56 53 57 63 64 65 72 79 
77 71 70 73 70 64 63 68 75 78 77 73 69 67 67 66 62 65 71 71 69 73 76 73 69 67 
68 72 77 78 80 78 73 69 69 70 70 69 69 65 58 58 62 60 56 62 70 71 70 70 68 63 
60 60 60 58 54 50 53 62 68 68 65 63 63 66 64 56 48 46 50 53 51 50 53 60 63 56 
44 42 52 63 66 62 59 61 62 63 69 78 77 67 57 55 59 64 65 63 60 55 49 49 55 57 
53 52 59 67 67 66 70 78 77 70 67 68 65 63 68 75 79 78 74 72 69 68 69 69 65 66 
72 73 70 71 73 70 66 68 72 76 74 79 77 73 71 71 74 76 73 70 67 62 56 57 63 63 
59 60 66 69 69 67 63 63 64 63 60 57 53 50 53 61 65 65 61 59 60 63 62 58 55 55 
56 55 52 52 57 64 64 56 48 48 55 64 67 63 60 64 66 65 69 77 73 60 54 57 61 64 
64 61 58 54 51 51 56 58 56 59 67 74 71 64 63 71 73 68 65 66 65 63 67 72 73 72 
74 75 71 67 69 72 69 65 67 67 66 68 70 69 68 70 73 74 68 70 66 65 65 66 70 75 
74 69 64 59 56 57 61 63 62 63 66 70 70 64 60 65 71 69 65 62 59 58 61 62 60 57 
56 58 61 64 63 63 65 67 65 61 56 53 55 57 55 52 53 57 62 69 73 70 69 73 74 67 
65 67 62 54 57 65 70 70 68 64 61 58 54 54 59 62 63 66 70 74 71 63 59 65 70 66 
64 67 66 62 62 64 65 67 74 78 71 63 65 70 67 62 62 63 62 63 68 70 71 69 68 68 
61 62 58 60 63 61 61 66 68 65 61 60 61 61 60 62 66 70 73 75 71 61 57 64 72 71 
68 65 62 63 67 66 57 52 53 57 60 63 63 65 71 75 73 67 58 50 50 52 53 54 59 63 
67 75 82 80 76 76 73 64 58 56 51 49 59 70 72 70 69 69 67 63 57 55 58 63 66 66 
66 67 68 64 60 63 69 66 63 66 66 60 58 60 62 65 72 74 66 58 60 65 64 61 63 64 
60 58 63 71 74 68 60 61 59 63 60 63 66 62 56 57 60 60 58 61 65 65 64 66 72 77 
78 76 70 61 56 61 67 68 68 66 60 60 66 66 59 54 55 57 57 58 60 61 67 74 77 71 
58 49 50 56 60 62 65 67 71 79 84 80 73 70 66 60 57 55 50 50 60 67 65 63 67 72 
72 68 61 55 55 60 64 64 61 61 65 64 60 63 70 70 65 64 65 61 60 63 65 66 70 69 
61 54 58 65 65 62 65 67 62 56 59 69 76 71 60 58 62 69 65 65 69 64 56 54 58 59 
59 62 65 66 66 71 76 79 78 74 69 62 60 63 65 66 68 67 59 55 61 65 62 61 63 61 
57 56 57 56 59 69 77 72 59 51 55 61 65 66 67 69 71 73 71 66 63 64 62 61 64 64 
60 59 62 63 58 58 66 74 77 74 67 60 57 61 65 67 64 63 64 64 59 62 72 74 68 65 
66 65 66 69 70 69 71 68 60 55 60 66 64 60 60 64 63 59 57 64 74 74 66 61 68 70 
66 67 69 64 56 57 63 66 66 65 64 61 63 70 75 77 77 75 70 66 66 69 70 69 72 73 
66 58 59 64 65 66 68 64 58 58 59 56 55 63 72 69 59 56 59 61 60 59 60 63 63 59 
53 51 57 63 63 63 66 70 68 65 65 62 58 60 68 74 77 76 72 66 64 68 71 73 72 70 
69 66 61 63 71 74 70 67 68 69 71 74 73 72 72 70 63 59 61 64 63 58 56 58 61 61 
60 64 74 78 73 68 76 66 66 71 73 65 57 60 68 73 71 68 63 58 59 67 74 76 76 75 
72 68 69 74 75 73 75 79 75 66 62 65 66 66 66 62 58 60 62 59 56 60 65 61 56 57 
61 59 54 50 50 54 55 50 45 48 57 64 62 58 59 63 64 63 65 66 64 64 67 71 74 74 
70 66 66 70 72 72 72 72 71 67 65 67 71 72 70 71 72 70 71 76 76 73 71 69 65 63 
62 64 67 66 60 54 55 62 70 77 83 84 79 76 81 64 67 76 79 69 60 61 68 71 69 66 
64 60 62 71 77 75 71 71 70 67 69 74 73 70 73 80 78 71 66 67 67 66 64 61 61 64 
67 65 63 62 61 56 53 56 60 60 55 48 46 52 57 55 50 52 59 62 57 53 55 58 57 58 
65 72 73 68 64 65 70 71 65 60 61 65 65 62 62 65 64 63 65 69 72 71 72 75 75 71 
72 77 77 72 68 65 63 62 63 65 71 75 69 57 54 65 80 91 93 86 79 81 79 69 70 79 
81 72 63 60 62 63 61 60 62 63 66 77 83 76 66 64 66 66 69 72 68 65 71 78 78 73 
70 68 68 68 66 64 66 69 70 69 67 65 62 58 54 55 59 62 59 52 49 57 67 65 58 56 
57 56 54 57 63 64 57 54 64 77 80 72 63 62 67 68 62 57 58 62 61 56 53 57 59 59 
62 68 71 70 71 74 75 72 73 76 75 71 66 61 59 61 64 65 69 74 72 63 60 70 85 94 
93 83 76 79 78 76 73 78 79 74 66 61 61 61 59 58 60 62 66 76 83 76 65 63 63 64 
68 70 65 65 74 80 77 74 71 67 65 67 67 65 66 69 67 64 62 62 64 62 58 56 59 65 
66 56 51 59 70 69 61 56 55 52 55 65 74 71 59 54 62 76 80 71 61 58 60 61 60 60 
63 66 64 56 51 57 64 63 60 63 68 69 67 67 69 71 72 72 71 72 71 65 60 64 68 66 
65 69 72 70 69 73 81 86 86 83 79 78 81 76 73 76 79 78 72 66 65 68 67 64 63 61 
61 69 76 72 67 65 64 62 66 69 67 71 80 81 74 71 71 67 65 66 65 63 64 65 61 54 
52 56 63 65 61 58 61 69 71 62 55 59 64 63 60 59 55 51 55 67 74 69 59 56 63 73 
75 68 60 56 56 56 60 64 67 69 67 57 51 61 73 69 58 56 62 68 66 62 64 70 72 69 
68 74 78 72 65 68 72 71 67 69 74 76 73 74 78 81 83 86 87 82 80 69 70 75 80 83 
77 69 69 76 76 70 66 62 61 65 70 69 66 67 64 61 64 67 68 74 81 78 67 64 67 68 
66 65 64 62 62 63 58 51 49 56 65 68 63 59 61 67 69 66 63 62 60 57 60 64 59 52 
56 65 67 61 57 61 67 72 71 66 62 60 59 61 66 68 66 67 65 55 50 61 75 71 56 50 
58 69 70 65 67 74 76 71 70 76 80 75 67 67 73 74 70 70 75 78 77 77 80 82 82 84 
87 82 71 65 66 71 77 81 75 65 66 76 77 70 64 61 62 66 69 67 65 66 65 64 67 69 
68 72 77 74 64 59 61 62 62 62 62 60 60 62 62 57 55 60 66 67 62 58 59 60 61 64 
69 69 62 58 63 67 61 53 57 66 64 56 55 61 67 70 69 68 67 66 67 72 77 74 68 66 
64 56 52 61 73 71 60 53 59 70 75 73 73 78 79 76 75 76 76 71 65 65 70 74 71 68 
74 81 83 82 83 80 75 72 74 72 64 66 66 68 73 76 69 58 59 69 72 66 61 61 64 67 
68 65 65 66 65 66 71 72 69 69 70 69 64 58 55 54 55 58 60 58 56 60 66 64 60 61 
64 62 57 56 59 60 61 65 70 71 66 63 64 65 59 54 61 72 70 59 55 58 63 66 70 72 
72 69 69 76 81 77 72 71 69 61 57 64 73 75 70 62 62 71 78 77 73 75 76 77 78 75 
69 66 64 64 69 73 71 67 72 82 84 80 75 70 65 62 63 63 65 69 70 70 72 74 67 57 
56 64 68 67 65 66 68 69 67 64 67 70 68 67 72 73 69 64 64 64 64 59 55 54 57 62 
64 60 55 58 66 67 62 61 61 58 54 55 61 66 71 75 74 70 67 66 64 61 57 57 66 76 
75 66 60 61 65 68 73 78 77 71 67 71 75 73 73 76 74 67 65 69 75 78 77 71 67 72 
78 76 70 68 71 76 78 71 61 60 64 65 68 72 71 67 71 78 77 69 62 60 62 64 65 64 
69 71 74 72 71 72 68 62 59 60 65 69 71 71 71 72 68 66 71 75 73 71 73 72 67 64 
63 64 64 63 62 64 68 71 70 64 57 58 65 67 65 65 63 59 56 58 62 69 77 81 76 67 
66 67 64 60 59 62 69 74 74 70 67 69 72 75 79 82 83 76 69 68 70 70 71 73 72 70 
71 73 74 75 77 74 70 72 77 74 68 65 68 74 76 67 57 58 66 67 66 70 72 69 70 74 
71 64 58 60 68 75 74 69 68 73 73 68 64 65 66 67 62 57 58 64 67 66 67 70 68 65 
68 75 78 77 77 74 69 68 69 68 67 66 68 72 76 76 72 66 61 62 67 71 71 69 65 62 
62 63 64 66 71 74 71 64 64 66 65 62 63 68 71 72 70 69 69 71 75 79 80 80 80 76 
70 68 71 71 68 65 64 66 72 74 70 68 70 70 68 68 72 72 69 68 67 69 70 66 60 62 
70 71 69 70 73 72 71 71 69 65 61 65 75 81 77 69 63 72 70 63 60 60 65 69 66 59 
56 60 61 59 60 65 64 58 58 67 74 77 79 76 73 74 75 71 67 65 66 69 72 72 69 67 
66 68 72 77 76 72 66 64 67 69 69 66 64 64 63 62 62 64 65 64 66 71 73 71 68 67 
67 68 71 74 74 70 71 71 67 64 68 69 63 57 57 61 67 68 64 62 64 64 60 60 64 68 
71 69 64 60 62 65 66 69 74 74 71 71 74 73 68 64 64 65 65 67 74 79 74 65 
