P2
112 112
255
71 72 70 73 75 71 70 75 78 76 73 72 75 78 76 71 71 74 73 69 69 70 68 66 66 64 
62 65 69 70 69 69 71 73 79 81 78 70 66 66 66 68 73 74 71 72 78 82 76 68 70 74 
72 66 64 68 74 76 70 61 57 63 72 77 74 67 64 65 65 66 73 79 74 62 59 65 69 69 
71 74 74 74 74 73 71 68 68 73 80 79 71 66 67 69 70 71 73 76 80 83 78 70 67 69 
66 63 68 69 64 63 67 69 76 69 65 65 65 66 74 82 81 73 67 66 68 70 70 68 68 70 
68 64 66 70 71 69 69 71 73 75 77 76 72 69 68 71 76 76 70 66 67 70 71 74 78 76 
66 63 71 78 74 67 70 77 77 70 65 66 71 72 68 60 58 63 71 74 73 72 73 71 66 66 
73 78 72 59 55 63 70 74 77 79 75 71 70 70 71 69 69 74 81 80 75 71 69 69 70 73 
73 75 82 88 83 73 71 73 70 67 70 70 64 62 68 73 80 70 67 67 65 68 77 84 79 71 
67 67 66 69 71 71 70 70 69 68 71 74 73 71 74 77 75 71 71 72 70 66 63 66 72 73 
70 69 73 75 75 77 79 73 63 58 66 74 72 66 70 78 80 72 64 63 67 68 63 57 58 66 
71 71 70 74 77 73 67 67 72 75 71 65 65 70 74 75 78 78 73 67 66 69 70 68 68 72 
75 75 76 77 75 71 72 74 73 73 80 86 81 73 74 77 74 70 74 76 71 67 68 75 78 72 
73 74 72 72 75 77 74 71 70 70 71 74 77 76 73 72 71 72 76 78 76 74 77 77 68 58 
57 61 63 61 57 59 66 72 74 76 77 76 74 75 77 73 66 62 65 69 67 63 67 76 79 72 
62 59 62 63 58 55 62 72 75 71 69 74 77 72 67 68 70 71 70 69 68 70 72 73 76 77 
74 69 67 69 69 66 68 71 71 69 71 77 78 76 77 78 73 70 75 78 73 68 71 75 72 69 
74 81 80 72 70 74 75 71 72 75 77 76 74 72 74 75 72 67 70 77 79 75 72 71 70 71 
76 80 80 78 77 74 64 54 52 56 59 58 56 59 67 75 79 81 78 73 70 71 73 72 70 66 
64 64 62 59 61 68 71 66 58 55 59 61 57 57 65 75 76 70 66 70 74 71 67 66 67 69 
70 68 63 63 67 72 75 78 77 72 70 71 70 69 72 76 73 67 67 73 78 80 81 79 73 70 
70 69 63 59 63 68 68 68 75 84 84 78 74 75 74 69 68 69 74 78 75 73 78 82 74 65 
68 75 75 71 70 72 72 71 74 80 82 80 77 73 70 65 62 60 61 63 66 71 78 81 83 82 
77 70 67 68 67 66 66 64 61 61 61 58 56 59 63 62 57 57 61 64 62 63 68 73 74 69 
63 64 69 71 68 65 67 71 72 66 59 59 65 70 72 74 72 67 65 67 70 73 77 80 76 69 
68 73 77 79 77 72 69 70 71 66 57 53 56 63 68 71 78 84 85 81 79 78 72 72 69 66 
69 76 76 74 79 84 76 68 73 79 75 70 73 79 80 78 77 79 81 78 74 72 76 77 71 64 
65 72 79 85 85 82 81 80 75 68 66 67 65 61 59 60 61 62 63 60 57 59 64 66 65 66 
67 67 66 70 73 74 74 70 64 62 67 72 69 64 65 70 71 66 62 62 64 64 63 63 63 60 
58 61 69 75 79 80 76 72 72 74 75 74 71 66 64 69 72 67 60 56 60 66 72 77 82 84 
81 78 78 77 71 76 72 68 67 73 75 72 75 79 75 73 81 85 79 75 80 86 85 81 78 76 
75 73 69 70 76 77 68 60 65 77 86 87 82 77 78 79 75 69 68 69 67 61 59 64 67 67 
65 63 64 67 70 73 75 75 71 64 64 73 78 76 73 71 67 65 69 72 68 62 63 67 66 66 
68 68 63 58 55 55 59 61 59 61 69 78 80 79 75 74 75 75 73 74 75 73 70 68 69 68 
66 68 71 73 76 81 84 81 73 69 71 73 76 75 74 72 69 73 76 74 73 75 74 76 82 84 
79 78 83 85 80 75 74 73 72 71 69 70 73 71 61 56 63 76 83 82 77 74 78 81 76 69 
69 71 68 65 68 75 78 74 69 70 74 76 74 74 78 79 70 59 59 70 74 69 65 65 65 64 
67 68 65 63 64 66 64 65 69 69 64 59 56 56 62 68 67 66 73 82 83 79 75 75 75 75 
76 82 87 85 77 71 69 69 74 79 80 77 77 81 80 73 64 61 67 74 84 72 75 76 74 75 
79 76 75 77 80 81 81 79 76 78 81 78 72 71 74 75 73 73 75 76 75 69 61 59 64 72 
76 77 74 73 75 77 72 66 66 66 64 68 77 83 82 76 74 79 85 81 71 66 72 75 68 58 
58 65 66 60 58 63 66 63 61 61 64 67 69 68 64 64 66 67 67 66 64 61 64 70 69 66 
72 80 81 78 78 77 73 73 80 89 92 85 76 74 74 76 81 87 85 77 76 79 77 69 63 65 
71 80 84 70 73 74 72 73 75 74 75 81 86 84 80 78 77 76 74 69 66 71 77 79 76 76 
79 81 78 71 66 65 67 68 70 71 70 66 66 66 64 61 60 58 58 67 79 83 78 74 77 82 
85 78 65 58 61 66 65 61 62 65 64 60 62 71 77 71 61 57 62 70 71 66 62 63 65 66 
70 74 72 68 67 68 66 63 66 71 72 76 81 80 70 68 78 88 86 75 70 74 78 79 84 89 
83 74 75 80 79 74 74 77 79 82 76 70 72 72 69 68 68 68 70 78 82 78 75 77 78 75 
68 62 62 69 77 78 77 76 78 80 78 73 68 67 66 65 65 64 62 59 59 61 59 58 58 58 
59 68 78 78 72 71 73 73 70 66 59 52 51 55 58 60 63 67 68 67 69 78 86 82 69 60 
63 69 67 60 59 64 68 70 73 76 75 72 71 70 66 64 65 64 64 71 81 80 67 63 73 81 
77 68 67 73 74 75 81 86 80 72 77 85 83 79 82 84 80 76 71 72 76 76 71 71 72 69 
67 70 72 69 69 74 77 74 67 62 62 66 71 74 74 73 73 74 75 71 65 63 64 65 63 59 
56 59 64 66 62 60 61 63 65 71 76 73 68 69 69 62 54 56 57 52 47 49 54 58 62 70 
74 72 70 75 83 83 73 63 63 66 63 57 59 66 71 72 72 71 70 70 69 67 68 70 70 65 
61 66 75 76 68 64 69 74 71 68 71 72 70 73 81 85 78 73 81 87 81 72 73 77 73 69 
72 74 80 81 77 79 84 78 69 67 70 70 70 72 73 73 70 67 66 68 69 70 71 69 67 69 
73 72 65 62 65 68 64 57 55 63 71 71 65 61 63 65 67 68 68 64 62 65 66 59 54 58 
63 58 53 55 60 62 63 71 77 74 68 70 76 75 67 61 63 65 63 60 63 70 75 74 69 64 
62 63 62 61 65 72 75 71 65 65 69 73 74 71 69 69 71 76 79 75 69 72 81 82 76 75 
83 84 73 61 61 68 68 68 75 73 77 76 73 81 91 86 74 71 75 78 76 72 69 69 71 70 
69 71 73 73 71 69 66 68 75 79 73 67 68 71 66 58 56 63 69 66 61 60 62 64 64 64 
62 58 55 59 63 62 61 64 66 63 61 67 72 69 65 68 73 71 68 70 73 69 60 59 64 69 
70 69 71 77 81 78 70 62 59 61 63 65 68 71 73 73 71 67 67 73 79 78 71 67 73 83 
86 76 64 64 70 73 72 75 81 79 69 61 63 70 73 72 75 74 74 67 63 74 87 86 78 76 
80 81 77 70 65 67 69 67 66 69 74 76 74 71 67 68 77 85 80 70 66 67 64 59 58 62 
63 60 58 58 61 63 65 67 66 61 55 56 61 63 64 64 63 62 65 73 76 69 62 61 63 65 
67 71 72 67 59 59 67 74 77 75 74 77 81 78 71 65 63 67 73 79 78 74 71 74 76 72 
68 72 80 79 72 69 76 84 84 73 59 52 55 63 71 77 79 77 72 70 73 77 78 74 70 79 
76 64 59 68 80 83 80 80 79 77 72 67 65 69 71 67 63 66 73 76 76 75 72 70 76 83 
78 66 59 59 59 58 58 60 62 61 60 60 62 64 68 71 72 67 61 60 62 63 61 60 60 59 
62 67 67 60 55 55 58 61 63 65 65 62 59 60 66 73 75 71 67 70 75 72 66 64 66 71 
80 86 83 76 71 74 77 75 70 71 76 77 74 73 77 80 77 70 62 54 53 61 73 77 76 74 
76 77 77 76 73 70 64 81 77 65 62 68 76 79 80 79 75 72 70 68 68 72 74 70 67 69 
71 73 76 79 77 73 74 77 73 62 56 56 59 59 57 57 61 63 62 61 62 65 68 70 70 67 
64 63 63 60 56 57 58 57 56 57 54 48 46 52 59 62 62 59 56 54 54 56 62 67 67 63 
63 70 74 69 62 61 64 71 79 82 79 73 70 73 77 78 74 72 74 75 74 75 77 77 73 69 
67 63 60 66 75 76 72 71 76 79 75 69 65 63 63 77 71 63 65 71 74 76 77 75 70 69 
71 71 69 70 70 70 71 71 68 67 74 81 80 74 73 74 72 67 64 65 66 64 59 55 58 60 
60 61 63 66 69 71 68 61 58 59 59 54 50 52 56 54 51 52 50 43 41 49 58 63 64 60 
53 48 47 52 59 62 62 62 69 79 81 73 65 63 65 70 76 78 75 70 67 70 77 81 79 77 
77 76 73 72 76 77 73 68 68 66 64 68 75 76 72 70 77 83 78 70 64 63 67 72 64 61 
68 75 76 74 74 73 70 70 71 70 65 61 60 63 68 69 63 61 69 78 78 72 69 71 73 75 
77 75 72 67 62 59 61 63 63 64 66 68 73 78 72 58 49 50 52 50 49 53 54 49 47 52 
52 43 40 49 57 60 63 63 56 48 47 52 57 58 59 63 71 79 78 74 71 69 66 67 72 76 
76 71 67 69 77 82 81 79 81 79 72 69 74 78 74 66 65 67 66 66 73 77 73 70 76 85 
84 76 70 68 71 69 61 63 72 79 77 73 74 75 73 72 71 66 59 55 54 58 66 70 66 61 
65 73 73 68 63 64 70 78 81 78 72 68 65 67 71 73 73 72 70 69 75 81 75 58 47 46 
49 52 58 63 58 47 43 49 50 42 43 55 62 60 59 60 56 50 51 55 55 53 54 59 64 65 
65 69 73 70 62 58 63 71 75 73 68 68 74 78 76 75 77 77 71 68 73 78 73 66 67 71 
70 67 70 73 67 62 69 82 85 79 74 71 73 68 63 68 77 79 74 71 74 78 76 75 73 68 
61 57 57 60 68 75 74 67 65 69 70 67 63 63 70 79 80 73 68 67 68 71 75 77 77 76 
71 67 70 76 71 60 51 49 50 56 66 72 65 51 44 47 48 43 49 63 70 63 56 54 50 48 
53 58 54 50 51 55 56 56 56 63 68 65 56 51 55 63 69 70 69 69 70 70 68 67 68 69 
69 71 77 78 72 66 70 75 72 67 66 65 57 52 62 77 81 76 72 72 76 72 70 72 76 77 
72 70 76 80 78 77 78 76 68 63 62 65 71 77 77 71 66 66 70 72 69 69 75 80 77 69 
66 68 70 71 72 72 71 69 65 62 62 64 64 62 58 52 49 54 64 72 70 61 56 56 56 55 
60 72 77 71 63 57 52 51 55 58 56 52 54 58 60 60 58 59 63 62 56 52 54 57 61 67 
71 71 69 67 65 62 61 63 68 75 79 77 70 66 69 72 69 65 64 62 54 52 62 74 75 70 
70 74 76 81 78 73 71 72 71 71 78 82 78 75 78 78 71 65 67 71 73 74 73 71 66 66 
72 78 76 72 73 76 73 67 66 68 68 67 64 63 63 63 61 57 52 50 54 60 58 49 44 48 
58 67 72 73 72 72 71 72 75 81 87 88 84 77 71 67 64 61 57 56 58 63 67 67 63 58 
60 63 62 58 54 53 58 66 71 72 71 69 66 63 62 62 66 72 76 73 67 66 68 69 66 66 
68 67 61 59 67 72 68 65 70 75 75 86 83 74 69 71 71 72 79 82 76 73 75 75 70 68 
73 79 76 70 68 71 70 69 75 83 81 71 65 66 67 66 64 63 63 60 55 55 57 60 59 52 
42 38 44 51 49 43 41 47 57 67 76 80 78 76 78 83 90 95 103 109 107 100 94 89 78 
64 54 53 56 61 65 66 62 58 59 65 66 60 54 53 59 65 67 68 71 71 66 64 65 64 64 
67 69 68 66 68 72 71 69 71 76 74 67 66 70 68 62 63 73 78 77 82 83 77 74 74 74 
74 79 80 76 75 78 77 72 71 77 81 76 66 63 70 74 74 79 87 86 73 60 58 64 66 62 
59 59 56 50 48 53 60 57 46 36 38 46 48 46 44 46 52 61 72 80 80 73 66 73 90 105 
112 118 124 122 114 109 102 85 61 45 44 51 56 57 58 57 57 58 61 63 59 56 59 64 
63 61 63 70 71 66 64 67 67 65 66 67 68 72 77 79 77 75 77 80 76 68 67 71 69 63 
68 80 82 78 77 83 81 76 75 76 78 79 78 77 80 84 82 75 70 70 73 70 62 60 67 74 
76 79 87 87 76 62 60 67 70 64 59 59 59 50 45 50 58 57 46 42 50 58 56 54 55 57 
57 61 71 78 76 65 59 70 98 120 125 128 134 132 122 115 105 82 55 37 38 48 53 
51 50 55 57 55 53 54 55 58 64 67 61 56 62 72 72 67 64 66 67 69 70 69 71 78 83 
84 81 79 80 81 75 67 66 72 72 68 71 80 82 77 76 85 83 72 67 71 76 75 72 73 77 
79 78 73 65 59 61 64 63 62 68 74 75 75 80 82 74 64 63 72 76 68 58 57 59 52 45 
47 57 61 55 53 61 66 63 62 65 62 54 52 58 67 70 65 64 80 109 128 131 135 144 
145 134 121 105 80 52 36 38 49 54 48 48 58 62 54 46 47 51 57 64 66 59 56 64 74 
73 67 63 63 66 70 71 68 69 75 79 81 81 81 82 81 77 72 73 76 74 67 66 72 77 76 
78 87 83 68 61 66 70 67 64 68 71 68 69 72 68 60 57 61 64 65 70 75 75 71 73 74 
68 60 61 71 74 64 52 48 51 50 46 49 59 65 63 61 64 64 62 65 67 59 48 42 45 54 
64 71 80 98 120 133 135 143 154 155 143 126 105 79 54 37 37 48 53 49 50 63 68 
60 50 48 51 54 59 59 56 56 65 72 71 65 61 61 65 70 69 65 64 66 68 71 76 79 79 
79 79 79 81 83 78 68 62 66 74 75 78 86 84 72 65 68 68 63 63 68 68 64 66 74 77 
70 61 60 62 65 70 75 74 69 69 70 64 56 58 67 68 57 44 41 46 48 49 53 61 66 66 
64 63 64 67 71 67 56 46 40 41 49 64 81 99 115 129 137 143 153 161 157 143 125 
104 79 56 38 33 41 48 47 51 64 72 68 61 59 57 53 50 49 52 58 66 69 66 61 59 61 
65 68 67 64 64 65 64 65 69 70 69 69 71 73 78 86 85 75 68 69 75 71 74 81 82 74 
70 72 71 68 68 71 70 66 67 73 76 73 66 63 64 67 72 75 72 68 68 69 63 57 60 68 
67 56 46 45 50 52 55 59 63 65 65 65 66 70 79 80 69 55 47 42 41 48 67 91 114 
129 136 140 147 156 160 153 139 121 102 82 61 40 30 34 40 42 47 60 69 70 68 66 
59 50 43 41 49 62 70 69 62 59 60 62 63 64 65 67 70 71 69 67 66 65 62 60 58 59 
66 80 88 83 75 72 72 64 68 73 75 69 65 67 70 72 73 73 71 70 69 66 65 67 69 70 
72 75 77 77 73 69 70 70 65 60 63 70 70 62 55 55 58 58 59 63 64 63 66 69 70 74 
82 80 64 50 44 42 41 50 72 99 123 136 140 140 142 147 150 146 133 118 104 89 
69 44 28 27 30 32 40 56 66 68 68 66 59 49 42 39 47 63 72 67 60 60 64 64 62 62 
65 69 72 73 72 72 73 73 69 64 58 54 60 74 86 84 76 71 67 62 64 69 69 64 58 59 
64 71 74 74 73 74 71 62 56 59 67 71 73 76 77 75 71 68 70 71 67 62 61 66 69 65 
60 60 61 61 62 66 67 67 73 77 76 76 77 70 54 44 43 44 49 64 86 110 129 140 141 
137 133 134 137 137 128 118 109 97 75 46 27 22 22 24 35 54 65 67 67 67 63 58 
51 42 44 58 67 63 59 64 68 65 62 63 66 66 64 62 64 71 80 85 84 78 70 64 65 73 
81 81 77 72 66 65 65 68 70 66 61 58 61 68 73 74 74 73 67 57 51 54 60 63 63 64 
66 65 61 60 66 70 69 64 59 59 64 64 59 56 57 60 65 70 73 76 84 89 84 79 75 65 
52 47 51 57 70 92 112 127 138 144 143 139 134 132 134 134 130 123 115 102 78 
50 30 24 22 23 35 55 65 67 69 72 72 70 64 50 45 54 61 58 59 65 66 60 60 66 68 
63 55 52 54 63 77 87 90 86 79 73 72 74 78 80 79 77 70 68 69 71 74 74 71 66 63 
65 71 73 70 63 57 54 52 53 55 55 54 55 58 56 52 53 61 68 68 63 59 60 64 63 58 
53 53 57 66 73 76 81 90 94 89 83 79 70 60 60 67 77 97 122 141 150 156 158 155 
151 150 148 145 142 139 132 120 105 84 62 45 36 30 28 39 56 65 66 68 71 74 78 
75 62 55 60 63 60 61 64 61 56 58 64 65 60 55 54 55 59 67 76 81 81 78 76 76 78 
79 78 77 76 72 72 72 75 78 79 78 73 67 64 68 71 65 56 54 57 59 58 57 58 60 64 
65 62 56 56 62 67 64 60 61 65 67 64 60 56 53 56 67 74 73 74 84 91 88 85 82 75 
69 72 81 94 117 146 165 176 184 185 178 173 172 167 158 152 151 144 129 114 
99 82 64 50 38 31 38 54 65 66 64 64 70 78 80 71 64 65 66 64 62 61 57 57 60 61 
59 59 63 67 68 66 64 66 71 74 73 73 76 79 78 73 70 72 73 74 76 77 76 74 73 73 
70 66 67 71 68 63 62 66 67 64 64 70 77 80 77 71 65 63 66 67 61 56 60 67 66 62 
63 64 60 62 71 75 68 64 72 81 82 81 79 72 66 73 86 104 134 169 195 211 221 220 
209 198 189 175 160 157 162 160 149 138 127 108 83 61 42 30 33 49 64 68 64 62 
66 74 77 69 61 59 60 62 62 61 59 62 65 60 56 61 71 77 77 74 68 65 66 69 69 68 
69 73 72 65 63 69 74 74 76 74 70 65 65 70 74 72 71 73 74 72 73 74 72 68 69 79 
89 88 79 70 65 63 65 64 57 52 59 66 64 60 65 71 70 71 77 77 65 58 65 73 72 71 
70 62 57 67 86 111 151 197 232 252 255 255 238 220 200 177 160 162 175 182 179 
176 168 141 105 73 47 30 29 44 60 67 67 63 64 67 67 60 53 49 51 59 66 68 67 69 
69 62 57 62 70 75 74 73 70 67 65 66 65 64 64 66 65 60 60 68 74 72 73 69 67 65 
64 71 78 78 75 73 72 73 75 76 73 69 70 80 89 85 73 64 61 59 58 58 53 51 59 68 
67 63 67 72 72 73 76 73 65 61 67 71 66 62 62 57 53 65 88 117 161 215 255 255 
255 255 255 234 210 184 169 174 192 206 212 216 210 180 136 92 58 37 31 37 48 
58 63 63 61 60 57 54 51 47 49 59 71 77 77 75 72 64 56 57 63 67 68 69 71 69 67 
66 65 64 65 67 66 63 64 71 73 70 72 67 69 71 71 74 79 79 74 69 65 65 69 72 70 
67 69 77 83 80 71 67 64 58 55 56 54 54 62 73 75 71 69 69 68 68 68 68 68 71 78 
79 70 63 61 57 54 67 92 121 162 214 255 255 255 255 255 238 213 192 182 190 
210 229 241 247 242 216 168 116 74 48 35 31 36 47 57 61 60 57 53 51 52 51 50 
58 71 80 79 75 72 65 55 53 59 68 72 73 74 74 73 70 66 62 62 67 71 74 75 77 74 
68 74 71 74 76 76 77 79 77 73 68 62 61 63 66 67 68 71 76 78 75 71 70 67 60 57 
58 58 58 65 75 79 75 70 67 66 66 66 69 76 83 88 86 78 71 64 56 53 65 91 122 
160 208 255 255 255 255 255 231 207 193 191 206 231 255 255 255 255 244 197 
138 89 57 36 26 30 42 54 59 60 56 50 49 52 53 52 55 64 71 72 70 69 66 58 57 66 
79 84 80 74 76 79 77 69 58 55 61 72 80 82 78 71 66 77 74 74 75 77 79 78 75 74 
72 68 64 63 64 68 73 77 78 76 71 67 66 63 58 55 54 54 56 63 70 72 71 70 71 73 
74 74 78 86 90 88 82 76 71 63 52 46 57 85 119 161 210 254 255 255 255 252 221 
200 193 201 223 255 255 255 255 255 255 218 155 99 61 36 23 27 39 48 53 54 52 
48 48 52 53 54 56 59 64 66 66 66 66 65 67 76 88 89 78 67 70 81 84 73 58 54 62 
73 77 76 70 66 66 76 72 69 71 75 77 75 73 75 77 74 68 65 66 71 75 77 77 76 71 
63 58 57 55 49 45 44 49 58 62 62 63 70 79 85 85 83 86 93 93 82 70 63 61 57 47 
41 51 76 113 162 213 251 255 255 255 242 216 202 201 213 240 255 255 255 255 
255 255 230 166 108 65 34 18 18 27 33 38 43 45 47 51 54 54 54 56 58 64 69 70 
70 71 72 74 78 84 82 69 60 65 78 83 75 64 64 73 76 73 68 64 63 67 75 69 65 67 
71 72 70 70 74 78 75 67 62 65 69 69 67 71 77 76 66 58 58 58 51 43 41 46 54 58 
58 61 71 82 89 87 83 87 97 97 81 64 57 56 52 44 42 51 71 105 154 205 240 255 
255 252 234 217 209 211 224 250 255 255 255 255 255 255 234 175 119 74 37 13 
6 10 17 27 37 44 50 55 56 52 49 50 56 66 74 78 78 77 77 74 71 71 70 63 58 63 
72 74 69 66 70 76 75 70 67 66 65 69 71 66 63 65 68 68 67 69 72 75 73 66 61 63 
64 60 58 65 77 79 72 65 66 67 62 54 47 45 49 55 58 63 71 80 84 81 79 85 97 99 
86 71 65 61 49 38 38 48 64 92 136 184 219 237 243 240 228 215 208 207 219 246 
255 255 255 255 255 255 235 179 126 81 42 12 0 1 12 26 38 45 51 57 59 55 49 47 
54 65 73 74 75 78 78 72 64 63 65 62 60 62 64 61 60 64 70 71 67 66 70 71 69 71 
65 63 63 64 66 66 65 65 68 70 71 69 66 64 63 58 57 64 73 74 70 69 70 71 68 62 
53 45 46 53 60 65 69 74 77 78 79 86 95 97 88 80 76 67 48 31 29 38 51 74 113 
156 193 216 227 228 220 207 193 186 197 227 255 255 255 255 255 255 234 175 
123 80 43 14 3 7 20 34 42 45 50 57 63 63 58 55 59 67 69 65 64 72 78 74 66 64 
66 63 61 62 61 57 58 66 70 68 63 64 70 74 72 73 60 61 63 65 65 63 60 60 62 66 
70 72 70 66 62 60 60 64 65 65 64 66 66 64 63 60 53 47 48 54 61 65 68 70 74 80 
87 93 96 92 85 82 80 68 47 30 25 29 39 59 94 135 171 195 208 210 203 188 169 
158 168 200 239 255 255 255 255 255 228 166 112 71 38 16 11 19 32 42 46 47 51 
58 65 69 68 66 67 70 70 64 61 67 76 76 70 68 67 64 62 66 67 63 63 68 74 74 70 
67 69 73 74 75 61 61 64 67 66 63 59 59 63 66 68 70 68 64 61 61 61 62 61 62 65 
66 62 58 58 58 56 53 52 54 59 64 65 66 71 80 93 100 99 91 84 82 78 66 48 33 26 
26 33 52 85 125 157 178 187 187 178 160 140 129 140 171 210 249 255 255 255 
255 212 155 104 63 32 15 16 30 43 51 53 52 52 58 65 70 71 67 66 69 73 71 67 67 
72 74 72 70 67 63 64 71 74 69 65 68 75 79 78 73 71 73 75 75 65 63 64 66 68 66 
64 67 71 71 67 64 63 64 64 64 63 63 64 68 72 70 64 61 61 62 62 58 53 51 54 58 
59 59 65 78 92 102 103 96 89 85 78 63 47 34 26 23 30 50 79 112 141 161 168 166 
153 132 112 103 112 140 178 220 255 255 255 235 192 147 103 64 32 15 19 37 51 
59 62 58 53 56 64 71 70 64 60 63 70 72 68 65 68 72 74 72 67 62 64 72 76 71 65 
66 72 77 77 75 75 76 76 73 68 65 64 65 67 67 69 73 76 73 66 62 63 68 71 69 67 
66 69 72 74 72 69 68 66 64 61 57 51 48 51 52 51 51 59 73 88 100 106 102 96 91 
82 66 49 35 24 21 30 49 70 93 118 141 154 153 138 114 91 82 90 113 147 187 228 
250 242 211 176 141 106 70 39 21 24 38 51 60 64 61 55 55 64 71 70 64 58 59 64 
66 63 61 65 73 77 75 69 64 65 70 73 71 67 68 73 76 73 74 77 78 75 70 72 69 66 
66 68 70 71 71 72 71 70 67 68 72 75 71 67 66 68 68 68 70 72 70 63 57 55 55 55 
53 52 50 47 48 58 68 80 95 106 105 100 96 88 73 54 39 27 22 31 46 61 77 101 
126 143 144 128 101 76 67 75 96 125 160 198 222 220 199 171 142 111 78 49 32 
29 34 41 50 59 63 62 63 67 69 67 63 60 60 63 63 60 60 65 71 76 76 74 72 72 71 
71 70 71 74 79 80 77 75 77 76 73 68 74 71 69 69 72 75 74 69 67 71 77 78 76 75 
75 71 65 64 65 64 66 71 73 66 55 49 53 61 63 58 53 51 51 55 61 65 71 87 101 
103 100 100 94 78 59 45 35 31 35 44 55 72 97 120 134 134 117 87 61 52 63 87 116 
146 179 202 208 198 179 152 117 83 54 36 27 26 30 41 56 67 72 72 70 63 57 57 
59 60 60 59 57 59 62 64 67 74 80 81 78 71 66 67 72 79 83 84 82 78 76 74 71 68 
71 69 70 70 72 76 75 69 67 73 82 83 79 77 76 71 65 64 66 67 69 73 71 60 49 47 
55 65 66 57 51 52 59 66 69 65 65 76 88 94 99 105 99 82 65 55 48 43 41 42 48 68 
96 117 126 124 106 77 52 44 57 85 115 144 173 195 206 205 192 163 122 82 52 32 
20 18 26 39 55 66 71 69 63 53 48 51 56 56 52 50 51 55 58 59 62 70 78 79 74 67 
60 62 71 79 81 81 80 78 75 73 71 70 69 67 67 67 67 68 67 66 69 74 78 77 75 75 
75 69 63 63 66 66 66 65 60 52 47 48 54 60 59 53 52 58 67 76 76 69 63 64 69 78 
95 108 105 89 73 64 57 50 43 38 42 61 90 113 124 122 105 80 58 51 64 91 121 
150 177 199 212 214 200 166 121 80 51 31 17 14 25 40 52 58 58 55 50 47 48 53 
55 50 44 45 51 58 62 64 65 67 68 67 67 64 59 60 69 76 76 75 76 77 75 74 72 72 
67 66 66 65 63 59 58 63 72 78 75 71 70 72 71 65 59 58 61 60 58 54 49 48 49 52 
54 53 50 51 56 65 73 79 79 71 63 59 57 66 87 106 107 92 77 65 56 47 40 34 41 
63 92 117 131 131 118 98 81 74 86 110 137 163 191 213 225 224 204 164 117 79 
53 32 16 12 21 35 45 49 48 45 43 46 53 58 55 47 43 49 59 66 71 74 73 68 63 63 
67 68 62 60 66 73 75 75 78 79 77 74 72 73 67 68 68 67 65 60 57 64 76 81 76 71 
71 72 70 65 60 58 59 59 58 54 49 50 56 60 59 54 49 50 58 66 73 76 75 68 64 62 
60 64 81 98 101 89 74 62 53 46 40 39 52 79 109 134 151 153 143 129 115 108 118 
141 164 186 212 235 246 243 219 173 122 80 50 27 11 8 16 28 38 44 45 43 42 47 
55 58 54 46 43 51 62 70 75 80 81 75 69 70 75 73 64 59 64 71 75 77 80 81 79 73 
71 72 68 72 72 72 72 69 65 67 74 77 74 71 72 73 72 68 65 63 63 66 67 62 56 57 
64 68 67 61 53 50 54 60 65 67 65 60 60 65 67 68 77 89 93 85 73 65 62 58 51 51 
69 100 131 157 178 186 181 171 159 151 159 179 198 215 239 255 255 255 241 194 
137 84 43 17 4 4 12 23 33 40 42 42 45 51 57 57 51 44 42 47 55 63 71 80 84 80 
75 75 77 72 61 56 62 70 73 73 75 77 77 72 70 72 70 76 77 76 76 75 70 68 69 69 
66 65 68 73 75 72 67 65 68 72 72 66 61 63 68 70 68 64 56 50 51 55 58 58 55 50 
50 57 62 64 69 79 85 82 77 76 79 77 67 63 82 115 147 177 204 220 221 214 205 
198 201 213 225 238 255 255 255 255 248 207 153 96 49 20 7 7 12 21 31 37 38 42 
50 62 66 60 51 47 47 48 51 56 66 76 81 79 74 72 71 66 57 54 61 67 68 66 68 73 
76 73 71 72 71 78 80 78 76 75 72 70 70 66 61 60 64 74 79 74 66 64 71 76 73 66 
66 71 71 65 61 61 58 53 51 54 57 55 49 42 39 43 47 48 53 65 76 80 81 87 95 95 
84 77 96 131 164 195 225 245 249 245 238 229 226 229 234 245 255 255 255 255 
231 197 153 106 65 36 24 21 21 26 34 39 40 46 58 68 70 63 56 56 59 58 57 59 67 
75 78 75 70 68 67 63 56 55 61 66 66 67 72 77 77 75 72 70 72 78 81 78 75 73 73 
75 75 70 63 60 63 71 77 74 65 65 74 80 75 69 73 79 73 60 55 60 62 57 53 54 58 
56 47 37 33 35 38 36 39 52 68 79 85 95 108 111 102 98 117 153 188 217 242 255 
255 255 251 240 232 229 232 240 250 254 248 231 204 171 135 101 70 47 37 35 32 
33 39 45 49 56 64 67 65 62 62 66 69 67 66 70 76 78 76 74 71 70 70 66 59 58 65 
72 73 76 82 84 81 77 73 69 73 76 77 76 76 75 73 74 74 70 67 66 65 67 72 72 67 
66 72 76 72 69 74 78 71 60 58 64 69 64 54 52 56 55 44 33 29 33 35 33 34 47 68 
82 87 97 113 123 121 120 137 171 207 234 253 255 255 255 250 239 230 226 225 
229 232 230 223 207 180 144 109 81 58 41 35 36 37 37 43 51 61 69 70 63 59 61 
66 69 70 69 71 79 83 79 75 75 76 76 76 72 63 62 71 79 80 80 80 80 80 79 74 68 
74 73 71 73 77 78 72 68 66 66 70 73 71 68 72 76 73 69 66 64 62 63 65 65 62 60 
62 66 67 62 51 47 51 51 41 30 26 28 31 32 37 53 76 90 93 99 115 130 134 135 
147 175 207 234 250 255 255 252 241 229 221 215 208 203 199 194 187 175 154 
122 88 62 42 28 26 31 38 42 48 57 68 75 72 59 53 57 64 67 65 63 69 81 84 77 72 
76 78 76 77 76 69 65 73 80 77 70 64 64 70 78 75 68 74 70 66 68 75 77 71 66 65 
68 76 80 76 72 75 80 80 72 62 56 56 60 58 53 53 60 65 62 56 48 41 40 47 49 41 
31 27 29 35 40 48 65 87 101 104 108 121 136 142 142 150 171 197 220 236 246 
246 237 222 208 198 187 172 159 151 145 138 130 118 100 76 54 36 26 26 33 43 
51 57 62 68 73 69 56 47 49 59 63 60 56 63 76 80 73 71 78 80 74 73 77 74 67 69 
72 68 60 54 52 60 71 73 67 72 67 63 65 72 74 71 71 74 79 85 86 79 73 72 75 76 
73 65 59 61 66 62 52 53 63 68 61 50 40 35 38 47 52 47 41 41 49 61 69 73 81 94 
106 112 120 129 140 145 146 153 172 194 210 222 229 227 215 196 179 166 151 
131 113 102 97 91 83 76 70 60 48 38 33 36 43 51 60 64 62 63 68 71 63 50 46 54 
60 55 49 54 68 74 70 71 80 81 73 70 75 74 68 68 69 65 61 59 58 59 65 69 65 69 
66 64 67 70 69 67 72 80 87 91 88 79 70 64 62 65 69 67 63 64 69 67 60 60 68 72 
66 58 49 42 43 53 60 60 59 67 85 103 112 107 102 102 107 115 124 130 135 142 
148 160 179 199 211 216 217 209 193 172 151 134 120 100 78 64 62 60 51 40 36 
36 34 33 35 40 47 54 61 63 60 61 69 78 78 65 53 52 55 49 43 48 60 65 64 69 80 
81 71 65 67 67 66 72 76 73 68 68 69 66 65 65 64 67 65 66 70 71 66 61 64 73 81 
86 83 75 66 59 56 59 63 63 59 58 64 68 68 68 71 71 67 64 61 53 50 57 67 72 81 
99 125 146 154 147 133 121 116 117 121 122 127 138 152 167 185 203 215 219 216 
204 185 160 133 113 99 80 57 42 42 43 36 25 19 20 20 21 26 35 44 54 60 60 58 
61 72 84 87 75 59 51 50 46 45 50 55 56 57 66 77 77 66 58 56 58 64 76 83 78 71 
72 76 74 70 66 67 66 63 65 69 71 67 61 58 62 68 75 76 71 65 60 59 60 61 58 53 
52 57 65 69 70 71 67 62 60 60 56 53 59 70 83 103 135 166 185 191 186 172 152 
135 126 120 116 121 137 155 170 187 205 219 226 224 214 195 167 135 110 94 77 
54 37 35 38 35 27 23 21 19 17 21 30 42 56 63 61 60 65 75 85 85 74 58 50 48 49 
53 58 60 56 57 65 73 72 63 57 56 58 64 73 78 72 66 69 74 75 73 69 73 67 63 63 
68 73 73 68 61 58 61 69 74 73 69 66 65 65 63 59 55 53 56 61 65 69 73 69 59 54 
54 55 54 61 76 96 129 172 208 222 224 221 208 183 157 136 121 113 118 133 151 
166 184 205 224 234 236 232 218 191 156 128 111 95 71 50 41 42 39 35 34 33 29 
26 27 32 42 56 64 61 61 68 78 83 79 65 52 47 49 54 60 66 69 66 65 68 72 72 68 
66 69 70 68 65 63 61 61 64 67 69 72 74 77 71 69 69 71 76 77 75 69 63 63 69 75 
75 71 69 68 69 69 66 62 59 60 62 63 68 77 76 63 53 54 59 62 68 86 116 159 207 
242 252 252 250 237 206 169 140 121 112 114 126 141 158 180 207 229 240 245 
247 242 220 186 155 135 119 95 70 56 50 46 44 46 45 42 39 37 36 39 50 58 57 57 
66 76 78 72 62 53 51 54 58 64 70 73 73 70 71 75 77 76 75 78 79 73 63 57 58 61 
64 64 65 71 77 78 74 78 78 77 77 77 74 72 71 70 71 71 68 66 65 66 69 72 73 70 
67 67 67 65 67 76 77 66 56 59 67 70 75 95 132 180 228 255 255 255 255 255 219 
174 142 123 113 111 118 131 150 177 208 232 243 247 253 255 242 209 175 149 
129 106 84 70 61 56 55 57 56 51 46 42 38 37 44 52 51 51 61 72 74 69 65 65 65 
66 66 68 70 70 68 66 68 76 82 79 74 75 80 79 71 65 66 68 70 70 70 73 78 79 74 
79 79 77 76 74 73 76 78 76 70 64 61 61 62 64 68 73 75 74 74 73 70 65 64 69 72 
66 58 60 66 69 74 94 133 183 229 255 255 255 255 255 228 183 150 129 113 105 
109 122 142 170 203 229 240 244 250 255 246 218 183 152 127 105 88 77 70 65 65 
66 62 54 48 45 41 40 44 49 48 50 61 73 73 67 68 74 77 76 73 71 68 64 60 59 64 
74 81 78 71 72 79 83 80 76 75 74 77 80 78 77 79 80 73 75 73 72 74 76 78 80 81 
77 70 65 64 67 68 70 72 73 72 73 75 75 70 65 65 70 73 68 59 53 54 59 65 83 121 
172 218 247 255 255 255 255 231 191 158 130 106 93 97 113 134 160 190 216 229 
235 241 245 235 212 182 153 126 103 87 79 73 69 69 68 64 58 53 50 47 45 48 49 
47 52 66 78 75 67 66 73 76 73 70 68 66 65 64 62 63 70 76 76 73 74 78 81 81 79 
76 75 78 82 80 76 78 80 73 72 68 68 73 80 85 82 76 71 69 69 71 72 73 76 77 73 
69 70 73 72 67 69 75 81 81 72 57 45 42 50 59 74 106 154 200 230 246 255 255 
248 220 186 150 117 92 84 92 109 129 152 178 200 212 219 225 224 214 196 173 
148 121 97 80 72 69 68 68 68 68 67 64 58 51 48 49 49 48 55 69 77 74 66 65 67 
68 64 63 64 68 75 78 73 66 64 66 69 70 70 69 72 74 74 70 68 72 76 77 76 78 78 
72 72 69 68 73 83 87 81 69 64 67 69 68 66 69 75 78 73 67 69 72 67 61 66 78 86 
84 71 56 46 45 51 59 68 92 132 173 201 216 224 226 216 194 164 130 99 82 83 96 
114 131 149 168 181 188 194 200 197 185 171 153 129 104 82 65 58 59 62 64 65 
69 74 74 65 56 51 50 49 50 57 66 69 67 63 63 64 63 61 60 64 73 83 86 78 67 59 
56 60 62 58 55 60 67 69 65 61 63 69 77 81 80 73 69 69 70 71 76 84 87 80 68 64 
67 67 62 59 62 70 72 68 65 70 74 68 57 56 66 74 73 65 58 56 54 55 59 65 80 106 
137 160 174 180 180 172 156 135 111 91 81 88 103 120 134 147 157 161 162 167 
170 163 150 138 121 99 78 60 46 41 46 53 56 57 62 69 71 66 59 55 53 50 53 60 
64 63 61 60 59 59 59 60 62 66 73 81 80 75 68 60 56 57 57 52 49 57 66 68 64 61 
62 69 80 86 80 69 65 63 68 74 80 86 88 81 72 68 71 69 63 60 61 64 65 64 64 71 
78 75 63 54 54 58 60 60 62 62 57 53 57 63 71 83 101 118 129 133 131 125 115 
105 96 88 84 90 105 120 133 142 145 143 141 144 143 131 116 104 89 70 57 46 35 
30 35 45 50 50 51 56 60 61 61 60 57 54 57 63 66 65 63 61 56 51 52 56 61 65 68 
71 70 69 68 66 62 60 60 57 57 63 69 70 68 68 68 71 79 83 77 69 65 61 69 77 82 
85 85 78 70 69 72 71 67 64 61 58 60 63 67 73 78 77 71 64 58 56 57 61 64 61 53 
49 54 60 62 65 74 86 94 96 93 87 82 81 81 80 81 89 104 119 130 137 137 131 126 
126 121 107 92 79 65 50 44 41 34 29 32 42 50 52 49 49 52 58 63 65 63 61 62 66 
68 68 67 65 58 50 48 54 61 63 64 68 70 68 67 67 64 63 64 67 71 72 71 70 72 75 
76 75 75 76 73 71 67 67 74 80 79 77 75 70 65 66 70 69 65 61 58 56 59 66 72 74 
74 73 73 73 70 66 65 66 66 60 51 50 54 55 52 50 57 66 70 67 65 64 62 62 64 66 
72 85 102 117 127 132 130 121 113 110 104 92 78 67 53 40 36 39 38 33 34 44 54 
58 54 50 52 60 68 72 72 70 67 67 68 67 68 68 64 57 54 58 63 64 66 74 77 71 65 
64 65 65 68 75 81 80 74 69 72 78 79 77 73 69 69 73 67 71 78 79 71 65 64 64 64 
67 70 67 61 58 59 61 64 71 75 73 68 67 71 74 74 73 74 72 68 61 56 55 53 48 43 
43 50 56 53 45 43 47 50 50 49 52 63 81 100 114 122 124 120 112 104 100 95 84 
71 61 50 40 35 38 39 37 38 45 55 60 58 54 56 63 70 73 74 74 73 71 70 67 66 68 
70 67 64 65 66 67 71 80 83 73 63 64 69 70 71 76 82 81 74 70 72 76 78 77 72 65 
66 73 63 68 75 73 62 58 64 70 72 73 73 68 62 61 63 66 69 74 75 70 65 67 72 71 
69 72 77 77 72 67 64 62 57 49 44 45 50 53 47 36 31 36 43 44 40 43 57 77 97 111 
116 116 110 104 99 96 91 80 68 61 56 51 44 40 39 40 43 50 58 64 63 59 59 65 69 
68 68 72 76 78 77 71 65 67 71 73 70 67 66 67 73 81 82 73 64 66 73 75 72 72 74 
74 70 70 73 75 75 74 69 63 66 73 63 65 71 67 57 55 68 80 81 77 73 70 68 67 66 
66 69 73 72 66 64 70 75 71 64 67 75 78 75 72 71 71 66 59 54 53 54 54 52 43 35 
36 42 43 39 41 55 77 97 109 111 106 100 94 90 87 84 78 70 65 64 63 57 48 42 44 
51 59 65 70 71 68 66 69 68 63 62 69 77 82 81 73 66 67 72 74 70 64 62 66 74 82 
82 74 67 68 73 73 69 67 69 69 67 70 75 75 72 69 67 66 69 74 70 70 72 68 57 54 
65 79 83 78 73 73 75 74 68 64 66 70 68 64 66 74 78 74 65 62 67 71 71 69 72 76 
74 68 64 62 60 59 59 55 47 41 43 44 40 40 54 76 93 101 101 96 89 84 78 73 73 
74 72 67 66 67 67 58 48 48 56 63 68 71 73 72 73 75 72 65 64 72 80 81 76 69 65 
69 74 73 67 61 63 69 78 83 81 75 70 69 71 70 67 68 73 73 69 70 76 77 71 66 66 
71 74 75 75 74 75 71 62 56 60 69 76 75 74 77 79 77 71 68 69 69 64 63 68 75 77 
75 68 60 58 59 60 62 69 76 75 70 68 70 69 66 62 58 51 45 45 44 39 38 50 68 81 
88 90 87 84 82 77 69 66 68 70 67 65 69 74 69 57 52 57 62 63 64 67 69 73 78 76 
70 70 78 82 76 66 61 64 69 72 68 64 64 70 77 80 80 77 72 69 69 70 70 70 73 77 
75 69 67 73 77 74 69 69 74 76 72 77 72 70 70 68 64 63 64 68 73 77 80 79 74 71 
73 77 74 66 64 70 74 73 71 68 61 54 51 51 55 66 74 72 68 70 76 78 74 66 57 51 
50 51 48 40 36 43 55 66 75 82 83 82 82 80 74 68 66 69 71 74 79 82 78 67 59 58 
59 59 59 62 65 69 74 74 71 74 80 81 72 62 60 64 66 64 61 62 69 77 80 78 74 71 
68 65 66 69 72 73 75 76 72 65 62 67 74 76 74 74 74 73 70 78 71 66 66 71 73 71 
67 67 72 79 82 77 69 66 72 81 80 71 67 70 71 68 67 66 64 59 55 52 55 65 73 72 
70 75 82 83 78 69 59 56 59 63 58 45 37 39 47 55 64 71 72 69 69 70 69 65 65 71 
80 84 86 84 81 74 66 60 57 56 59 61 62 61 64 66 68 71 75 75 71 67 65 64 60 56 
56 62 70 76 77 74 73 72 68 63 61 65 71 74 74 73 70 66 62 63 68 73 75 76 76 73 
73 80 76 69 66 69 73 74 71 70 75 81 82 74 64 62 69 79 81 74 67 67 67 64 63 64 
66 67 65 60 60 67 73 74 75 79 83 80 74 67 62 61 67 71 64 51 42 45 50 52 53 54 
52 48 47 49 52 55 61 70 79 82 79 76 78 76 68 58 53 55 58 59 56 53 53 57 60 61 
64 67 71 72 68 61 57 56 58 63 67 70 73 75 76 76 72 64 59 62 69 72 70 69 70 71 
69 65 63 65 68 72 76 76 75 82 82 76 70 68 70 71 71 74 78 82 80 71 63 62 69 76 
78 72 65 64 64 63 62 63 65 71 72 68 66 71 73 71 71 76 78 74 70 67 64 63 66 69 
65 55 52 58 61 55 45 39 37 36 35 37 42 49 55 60 65 67 66 68 73 73 63 53 52 58 
59 54 49 47 50 54 55 55 57 63 70 72 66 61 63 65 64 64 65 67 71 75 76 75 73 68 
64 67 72 71 65 62 66 74 76 71 65 64 65 68 74 76 75 79 79 77 73 70 69 69 71 75 
79 81 79 71 65 65 69 72 71 66 63 63 64 65 65 63 63 66 70 69 70 73 71 64 63 69 
74 74 74 74 69 63 61 63 63 62 63 67 66 56 42 34 34 35 36 38 45 51 52 50 51 58 
64 68 70 68 58 51 56 64 63 54 47 48 53 59 59 57 59 64 71 73 68 66 71 72 67 65 
68 70 71 72 71 68 68 69 70 75 79 74 63 59 65 74 77 75 74 75 74 71 72 74 75 71 
67 68 72 73 71 68 69 74 77 79 79 75 70 67 68 68 65 62 62 64 66 69 71 67 61 61 
64 65 67 70 69 63 63 70 76 77 77 78 74 65 60 61 64 67 71 70 64 54 43 36 37 38 
37 40 48 54 53 48 49 61 70 70 66 60 53 51 60 69 67 59 52 51 57 62 62 61 64 68 
73 75 72 71 73 70 63 65 71 71 69 67 66 64 64 66 69 76 81 77 69 67 73 78 78 78 
83 88 86 78 72 73 77 64 57 61 70 76 73 68 67 71 72 74 79 80 76 69 66 65 64 63 
64 65 68 74 77 71 62 61 65 66 64 67 71 71 72 76 77 72 69 71 69 64 61 62 65 69 
73 72 66 59 50 43 42 42 40 42 49 55 56 51 54 64 70 64 55 50 48 53 64 72 73 68 
61 55 55 58 59 61 66 70 73 75 73 69 65 60 57 64 70 69 66 67 69 69 67 64 63 67 
75 78 77 79 82 82 79 79 84 88 86 78 74 75 80 64 57 61 71 78 76 70 70 72 70 70 
77 82 79 72 65 63 65 68 67 65 69 78 81 73 63 64 71 72 67 68 73 76 77 78 74 64 
59 60 60 59 62 66 68 69 71 72 73 70 60 50 47 50 51 51 52 56 59 57 56 60 61 53 
44 43 49 60 71 77 78 77 69 59 54 53 54 60 70 75 72 70 69 65 58 53 56 65 71 70 
70 73 77 78 76 68 61 61 68 77 82 84 83 80 77 77 78 78 75 73 75 78 81 69 66 66 
72 78 76 74 77 80 77 74 74 78 78 71 62 59 64 71 69 66 70 79 79 69 61 63 72 77 
73 70 72 72 71 73 71 64 60 60 57 57 63 71 73 69 64 65 74 76 65 52 52 60 65 63 
56 56 60 60 56 54 53 47 43 46 57 70 78 78 77 79 75 64 56 53 54 61 73 78 72 67 
69 68 61 56 61 71 77 78 78 79 79 78 77 74 69 66 69 76 81 80 75 72 74 77 77 73 
70 70 74 79 80 75 77 72 72 74 75 76 82 87 86 80 75 73 72 69 62 59 63 69 68 67 
72 77 72 64 58 58 66 74 75 71 67 62 61 67 71 69 65 63 59 56 60 69 73 67 58 57 
68 73 63 53 57 70 77 72 61 56 61 62 57 52 50 50 51 57 67 77 78 73 71 75 75 67 
59 57 58 64 73 76 70 68 76 79 72 65 68 76 82 83 81 78 73 71 73 77 79 77 73 73 
75 75 71 69 73 80 82 77 71 68 72 77 76 77 81 76 71 71 73 77 81 82 81 79 74 71 
70 69 67 66 68 69 69 72 76 75 68 64 62 59 62 71 76 73 65 57 56 63 69 67 61 60 
59 56 56 60 66 65 59 58 64 69 63 59 65 75 80 74 65 61 64 65 60 55 53 55 60 67 
74 78 75 68 66 71 74 69 65 65 67 68 68 66 64 69 80 86 81 75 75 79 81 81 80 78 
74 72 73 77 82 80 73 69 71 75 75 74 74 79 81 78 70 64 66 72 72 75 77 72 69 70 
75 80 81 74 69 71 73 73 71 71 72 76 77 75 73 77 80 76 70 71 72 65 62 68 75 74 
67 58 56 63 67 63 57 57 59 59 56 56 61 67 68 69 70 69 65 65 71 74 75 73 71 69 
68 66 63 61 60 61 66 72 77 76 71 66 65 70 76 76 74 75 75 71 65 58 57 64 75 84 
83 80 80 82 80 78 80 82 82 80 77 74 74 73 70 69 72 77 80 79 75 72 73 73 70 65 
63 68 73 74 71 67 66 70 78 85 85 74 66 69 75 76 73 71 73 79 83 79 76 77 79 76 
73 76 77 68 59 62 69 71 65 58 59 66 70 67 63 62 63 64 63 62 65 70 75 78 78 72 
67 69 72 71 69 73 78 77 70 64 62 63 65 65 69 76 79 75 69 66 66 73 81 83 81 80 
78 73 65 59 57 60 68 76 79 78 78 78 76 73 76 80 83 84 79 70 65 67 71 75 78 79 
80 78 72 67 69 75 77 74 70 70 77 74 70 67 67 70 77 84 84 78 74 76 79 77 71 68 
71 78 81 77 72 72 75 73 71 74 75 67 56 56 64 68 63 59 61 68 72 74 73 70 66 66 
69 71 72 73 72 75 77 73 67 69 71 68 65 72 82 83 73 62 58 61 64 65 69 76 79 76 
71 69 70 75 80 81 77 75 75 71 67 66 65 62 63 68 72 71 71 70 67 65 68 73 76 78 
76 69 65 69 77 83 83 80 76 72 68 67 72 80 86 85 79 76 77 72 72 72 71 71 74 77 
76 74 76 78 77 71 66 66 72 79 80 75 67 68 73 73 68 68 71 66 56 55 63 68 66 63 
64 67 69 74 76 71 63 63 69 74 76 73 67 66 67 65 64 68 70 65 61 69 81 84 75 63 
57 59 63 66 68 72 75 75 74 74 74 73 72 68 64 67 71 71 68 69 69 65 61 63 66 67 
67 66 62 62 67 70 70 71 72 71 70 75 80 83 83 80 74 68 66 69 74 79 83 84 82 78 
74 70 72 75 75 73 74 74 69 64 65 69 68 63 61 65 76 84 85 78 69 68 73 74 68 65 
67 63 54 53 62 68 67 66 67 66 66 70 73 66 58 59 65 70 74 72 67 64 62 58 60 67 
70 65 62 68 78 81 74 64 59 61 67 72 72 69 68 71 75 75 71 68 64 59 57 63 71 72 
68 66 68 65 60 61 66 69 71 70 68 69 75 75 70 67 67 69 72 77 78 77 77 78 76 72 
70 72 72 71 72 77 81 77 75 71 72 75 76 76 77 77 70 61 57 59 61 60 59 64 74 83 
88 84 74 69 72 74 70 67 66 60 51 50 59 66 67 66 67 68 69 73 73 64 56 57 61 64 
68 70 69 70 67 62 61 66 68 67 67 71 76 75 70 64 60 64 72 80 79 71 67 69 71 69 
66 65 64 61 58 62 70 72 68 66 68 65 61 62 68 73 75 75 74 76 79 79 72 66 63 63 
69 75 75 71 71 76 82 83 80 76 71 65 65 73 81 80 74 74 73 76 78 77 78 78 74 66 
61 60 63 63 62 63 67 74 82 84 76 68 68 71 72 71 70 65 56 55 63 72 71 64 62 65 
70 74 74 66 59 60 62 63 64 65 67 70 73 70 65 64 65 67 69 71 71 70 67 62 59 64 
74 82 81 74 69 69 69 66 65 66 67 65 63 63 67 70 72 74 73 68 63 64 70 74 76 77 
76 75 77 78 75 69 64 64 68 74 74 72 72 79 89 92 85 76 70 68 69 75 80 78 65 75 
75 78 79 78 75 74 73 72 70 69 69 69 67 64 63 66 75 81 76 68 66 70 73 75 75 72 
66 65 74 82 78 63 55 57 63 69 72 68 64 64 66 66 64 62 62 64 69 71 67 62 63 66 
67 65 66 69 68 63 60 64 72 76 71 66 66 67 68 68 68 67 66 67 68 67 67 70 77 81 
77 68 63 66 72 75 77 78 78 76 77 79 78 73 70 71 74 74 74 74 77 84 91 91 80 69 
68 72 76 77 74 68 59 75 76 76 78 78 73 68 69 74 76 73 71 72 72 70 68 68 74 78 
74 67 65 69 72 73 73 73 71 72 79 86 80 67 55 53 58 68 75 73 69 69 70 70 68 66 
64 63 63 65 64 62 64 68 67 65 68 74 74 68 65 68 71 66 58 54 57 63 69 72 70 64 
62 67 74 74 70 70 76 79 74 64 63 70 77 79 80 81 80 78 79 80 77 73 71 74 75 71 
68 71 77 83 86 83 72 62 63 72 78 77 70 62 66 76 74 72 75 77 73 66 66 73 76 71 
68 71 76 76 74 73 74 75 71 64 63 67 70 69 67 68 69 71 75 80 80 74 63 57 60 73 
81 77 72 73 75 73 72 74 75 71 64 62 62 64 69 73 71 69 75 82 81 75 73 75 73 66 
57 54 55 62 71 75 70 62 62 69 74 74 68 66 70 74 71 66 68 76 80 79 79 79 77 76 
78 78 75 70 68 67 66 61 61 67 73 78 81 79 71 62 63 71 77 76 71 68 77 78 74 69 
72 76 73 65 64 72 76 70 65 69 77 78 74 70 72 74 71 66 63 66 70 71 69 69 69 68 
68 73 79 79 68 59 62 75 79 72 68 74 79 75 72 76 80 76 68 63 64 67 74 77 73 68 
71 80 82 77 76 79 79 75 71 66 62 65 74 77 71 67 71 74 70 65 62 63 68 74 75 73 
76 79 78 74 74 75 74 74 75 76 75 74 70 64 60 61 65 70 72 73 77 80 75 68 68 73 
75 72 70 75 76 80 75 70 71 72 70 65 67 75 81 75 65 65 72 74 69 65 68 75 77 72 
66 68 74 76 75 75 72 67 66 71 79 78 67 58 62 71 71 62 60 71 78 74 67 70 74 71 
65 63 66 70 74 75 68 59 59 68 73 70 69 75 79 80 79 74 67 67 74 78 73 74 81 78 
66 60 62 65 68 74 78 79 80 80 76 73 74 76 75 73 73 75 78 80 76 68 65 72 79 78 
71 66 69 75 75 72 73 78 77 70 67 72 64 81 77 73 70 68 66 67 72 79 84 80 66 60 
66 72 69 66 68 75 79 76 71 71 75 77 75 74 71 66 67 73 77 73 66 64 69 72 67 59 
60 69 74 71 66 67 68 64 59 61 66 68 69 67 61 54 55 66 70 64 61 68 75 75 71 68 
65 68 76 78 74 76 81 76 66 65 70 71 69 72 77 81 82 82 80 77 76 75 72 68 68 71 
77 79 75 69 70 78 83 78 67 59 61 68 73 73 74 78 78 74 68 64 59 79 77 74 70 66 
67 72 76 79 81 80 70 63 67 74 74 73 75 78 78 77 75 74 74 70 67 65 64 64 69 75 
74 67 68 75 79 76 71 67 66 67 69 69 69 71 71 65 59 61 66 65 62 60 58 57 64 74 
74 64 58 65 72 68 61 61 65 71 78 76 70 70 74 71 68 73 78 75 71 72 77 79 80 81 
81 78 75 68 63 62 64 68 71 71 68 67 70 74 76 72 64 58 60 68 74 73 70 70 74 77 
74 64 63 75 75 74 72 70 72 77 78 75 76 78 75 71 74 78 79 79 83 83 80 80 81 79 
75 67 62 61 63 67 74 77 72 66 72 81 81 76 74 73 69 63 63 67 72 76 76 70 64 67 
72 71 64 60 61 63 68 74 73 65 62 69 73 67 62 63 68 73 76 71 66 67 70 68 67 73 
78 76 74 76 76 74 72 72 74 75 72 67 66 69 72 72 69 65 62 65 70 72 71 70 66 64 
67 74 77 73 66 63 67 74 77 71 72 74 77 77 76 75 77 80 76 71 72 76 77 76 77 79 
78 81 87 87 81 80 83 83 78 72 68 69 71 74 77 79 75 72 76 80 76 71 72 71 63 55 
57 63 69 74 76 72 71 77 83 80 71 65 64 63 63 65 67 66 70 77 78 71 67 68 70 70 
69 67 67 71 70 64 61 66 73 76 76 74 70 65 63 64 69 75 76 74 75 82 83 77 68 63 
61 65 71 74 73 72 69 68 73 78 77 72 66 64 65 69 75 75 77 78 82 83 80 78 78 78 
74 71 71 71 70 71 74 76 76 79 85 83 75 74 79 81 79 76 76 79 79 76 76 78 77 75 
76 76 71 67 67 65 58 54 57 63 66 70 72 73 75 82 87 82 72 66 64 63 63 65 68 71 
76 82 81 72 69 71 71 67 64 66 72 76 73 63 57 60 68 76 77 70 62 60 61 63 68 77 
80 74 72 78 80 75 68 65 66 70 74 75 74 71 68 68 75 79 74 68 67 68 67 68 72 76 
71 75 73 78 82 76 70 73 78 79 76 75 77 80 78 73 74 77 76 73 73 72 68 66 65 62 
57 58 63 66 67 69 71 74 79 84 83 74 67 65 64 65 67 70 71 74 81 83 77 69 70 73 
70 65 64 69 75 76 69 60 58 63 72 77 73 65 61 62 63 65 73 80 77 69 68 72 72 69 
68 69 71 73 75 74 72 68 67 72 79 78 70 65 66 69 69 70 74 77 78 78 74 67 66 69 
67 65 69 71 66 64 67 69 
