P2
112 112
255
56 52 56 55 51 54 60 63 59 57 60 61 60 57 57 58 60 56 52 59 57 57 61 62 58 56 
59 61 61 66 70 63 57 58 60 60 64 70 72 66 63 71 74 66 68 67 64 62 64 64 63 66 
69 71 73 73 74 75 75 71 69 69 69 65 58 57 61 65 67 66 68 73 75 73 71 69 69 69 
62 62 66 73 75 67 69 74 75 71 64 61 60 62 63 64 61 59 59 58 57 63 72 64 54 62 
71 66 55 48 56 57 55 50 51 51 57 58 57 58 63 62 55 52 57 62 58 54 53 58 61 55 
57 59 54 51 52 55 57 59 63 63 62 71 62 68 67 68 67 64 66 71 68 65 69 69 70 66 
63 63 63 62 61 60 60 63 68 71 72 71 71 73 73 70 68 70 71 65 55 50 55 62 64 63 
63 66 70 72 70 68 67 62 56 53 57 68 69 66 67 69 69 69 65 61 60 64 70 71 68 63 
59 54 51 56 65 58 57 63 72 65 57 51 58 59 62 49 54 50 55 57 57 59 61 60 56 56 
61 61 57 53 56 59 58 59 63 60 66 64 61 58 61 68 70 61 58 60 61 62 68 72 71 67 
66 64 62 67 73 75 70 65 63 63 62 61 59 58 59 62 68 71 70 69 69 68 66 63 64 68 
69 63 54 52 59 65 64 59 55 58 67 72 67 61 58 55 54 56 62 67 70 71 68 64 64 67 
65 59 57 63 68 69 67 64 59 57 55 57 60 54 57 63 67 68 58 49 66 65 66 50 61 50 
52 55 57 61 63 65 51 53 57 60 61 59 58 62 59 60 62 60 57 58 61 62 66 71 63 64 
63 62 61 62 69 71 68 62 59 58 61 71 79 80 73 67 63 61 59 58 58 58 58 62 66 68 
67 68 69 66 61 58 61 66 67 62 57 58 64 67 63 56 52 56 64 67 61 51 50 54 60 63 
67 68 71 69 66 62 61 64 62 57 56 60 65 65 63 61 61 63 64 67 62 57 59 59 62 72 
61 45 70 68 65 50 50 60 63 62 58 58 61 60 59 56 56 60 59 53 57 57 51 51 53 56 
59 63 66 59 62 61 62 65 69 70 68 68 67 64 59 58 57 58 62 70 77 78 73 68 64 60 
58 57 58 58 59 60 62 63 65 69 71 67 58 55 61 67 67 62 61 65 70 68 63 59 58 60 
64 63 56 48 48 54 60 63 65 67 64 67 68 65 63 60 58 57 59 63 66 65 62 60 60 62 
66 67 64 59 56 55 58 72 61 48 71 68 63 48 54 59 63 60 54 54 59 61 56 52 56 60 
58 58 61 61 69 67 63 62 66 71 63 63 59 61 64 65 71 73 70 65 62 60 58 56 56 56 
59 66 73 76 75 72 67 62 60 60 60 61 61 62 62 63 65 70 74 68 58 55 62 68 66 61 
63 69 73 70 66 65 66 66 66 64 58 51 50 56 61 63 64 64 63 68 69 72 68 62 60 61 
64 66 67 67 65 61 58 59 63 66 64 58 52 48 51 63 58 55 70 69 63 48 57 60 62 57 
54 56 61 60 56 55 58 61 58 60 63 61 59 59 62 63 68 67 65 65 67 67 65 70 75 72 
66 60 57 57 57 57 57 57 59 64 70 75 75 72 66 62 62 63 64 65 66 66 68 67 67 71 
74 70 60 58 63 68 65 60 62 70 74 71 68 67 69 68 68 68 65 58 55 58 62 64 64 64 
66 68 71 72 70 68 67 67 69 68 68 70 69 65 59 60 65 68 65 59 56 55 53 55 56 59 
71 68 63 50 58 61 63 64 67 66 68 68 65 59 60 59 54 55 56 57 59 63 65 61 63 62 
63 67 68 66 68 73 73 70 64 58 56 56 58 60 61 61 62 65 67 69 70 66 60 58 59 60 
63 66 67 68 71 70 67 68 72 70 64 62 64 66 63 59 62 69 73 71 67 67 68 68 69 71 
71 67 63 62 64 65 65 66 68 68 68 67 67 68 67 70 72 73 71 70 70 66 61 62 68 71 
65 62 64 67 59 56 57 58 63 70 64 47 58 61 63 63 61 58 58 60 58 54 58 56 53 51 
54 60 64 69 60 57 57 59 62 66 67 67 70 72 69 66 63 59 58 57 58 60 62 64 65 65 
64 63 63 61 58 56 54 56 60 63 63 65 68 68 64 63 66 67 65 62 62 61 58 58 61 66 
68 67 65 66 67 66 67 71 73 72 70 68 67 67 67 69 70 69 65 62 62 63 65 67 69 76 
72 69 69 65 60 61 68 71 66 64 65 67 62 59 59 57 68 72 66 44 56 57 60 61 56 52 
57 60 58 59 62 58 55 55 59 62 68 65 59 57 58 59 62 65 66 67 70 70 66 63 62 62 
60 57 55 55 59 64 66 64 61 60 61 63 63 59 55 56 61 63 60 61 64 65 61 60 62 63 
62 61 60 57 55 56 58 59 59 60 62 65 65 64 63 66 69 72 75 76 74 71 69 71 73 71 
65 61 60 61 63 63 69 71 69 70 69 65 58 60 68 71 69 65 62 65 64 59 53 52 66 68 
63 49 54 55 61 60 55 55 57 60 59 61 62 58 57 61 63 65 65 63 63 62 61 61 62 62 
61 64 67 67 65 65 64 64 62 58 53 51 58 64 64 61 60 59 62 66 67 62 57 60 65 67 
62 58 58 59 60 61 64 64 64 65 65 61 57 55 54 52 51 53 59 64 64 62 60 60 62 67 
74 79 77 71 67 67 69 69 65 62 61 61 62 64 67 68 68 69 68 64 60 63 71 75 71 65 
62 66 67 59 54 48 56 58 57 57 56 60 62 61 61 58 58 58 55 55 56 57 60 64 65 64 
62 63 64 62 61 59 60 60 60 62 62 63 66 69 67 64 62 59 54 54 61 66 63 59 59 59 
60 62 62 59 57 60 66 67 63 57 52 52 57 65 69 68 67 69 69 66 60 57 54 51 49 50 
55 61 63 63 61 58 57 61 68 73 71 64 59 60 62 63 62 60 60 60 61 64 67 67 66 63 
61 60 61 66 75 78 72 66 65 68 66 62 63 66 60 54 55 59 59 61 60 60 60 55 57 57 
53 51 52 56 62 65 64 60 59 61 61 61 62 59 60 63 65 65 61 60 65 70 67 61 58 57 
55 56 63 66 63 60 61 61 59 58 57 54 54 57 62 65 63 58 53 51 57 66 71 68 64 63 
64 64 62 60 59 57 53 51 53 57 62 65 64 60 57 58 61 62 59 54 54 56 59 59 57 57 
60 62 65 67 69 68 65 60 55 54 57 65 73 74 69 66 69 69 65 63 66 69 59 59 58 57 
59 56 55 59 58 57 60 59 56 56 56 58 62 64 58 57 59 58 58 60 61 59 62 68 73 71 
64 62 66 69 65 58 55 55 54 55 60 63 62 62 65 65 61 58 56 55 54 56 61 64 66 65 
60 57 60 64 64 60 56 54 56 57 58 59 62 62 58 57 57 58 61 64 65 62 60 58 56 53 
50 50 55 60 61 59 55 56 61 67 70 71 72 72 70 65 59 55 56 64 70 69 66 68 71 68 
69 64 63 66 59 59 59 54 56 52 55 59 59 60 64 60 60 62 61 59 62 61 58 61 60 58 
56 59 61 61 65 72 77 75 69 66 68 69 64 58 56 56 55 55 59 61 60 62 66 66 62 58 
57 56 54 57 61 65 68 70 67 65 63 60 56 53 53 53 52 50 51 55 59 60 61 64 65 62 
60 61 62 61 60 59 55 51 50 54 61 66 66 61 55 55 63 71 73 72 74 77 76 72 66 60 
61 67 70 69 68 67 66 67 70 64 62 67 62 54 51 53 57 56 61 63 60 64 62 58 60 63 
63 61 62 62 66 69 63 58 60 63 64 64 68 74 77 73 68 67 68 68 65 62 61 60 58 59 
62 63 60 60 63 63 59 57 56 54 55 58 62 64 66 68 67 66 63 60 55 53 54 54 51 47 
48 51 54 56 62 68 69 66 62 61 60 58 59 59 58 56 57 61 66 69 67 61 55 55 64 72 
72 69 72 76 76 71 66 63 64 68 69 70 68 64 63 68 70 64 61 70 63 62 51 51 61 64 
68 66 63 66 60 57 60 64 65 65 65 67 75 72 62 61 65 67 65 65 70 75 74 68 64 64 
66 66 64 63 62 61 59 61 65 65 62 61 62 60 57 55 53 54 55 58 60 60 60 61 62 62 
63 61 56 50 48 50 49 48 49 51 52 55 59 64 66 67 66 62 58 56 57 59 61 62 63 66 
68 67 66 62 59 58 66 72 70 66 66 69 68 64 62 61 62 63 65 68 66 62 63 68 69 66 
63 68 61 66 71 68 66 70 72 68 65 68 63 60 63 68 70 68 65 70 75 66 61 66 67 64 
61 64 71 76 72 64 60 61 63 64 62 60 58 57 58 61 65 66 63 61 62 60 56 52 51 53 
55 57 57 56 56 57 57 59 60 58 51 42 37 40 47 52 52 51 51 52 53 54 57 61 63 60 
54 53 53 56 59 62 63 65 66 66 66 66 65 65 68 71 68 62 58 58 59 61 64 64 61 60 
64 67 68 65 62 64 66 72 69 69 64 63 67 68 67 73 74 69 71 73 67 64 66 71 72 67 
66 73 69 62 64 65 63 58 55 62 72 75 69 63 61 62 64 64 61 56 52 52 56 61 64 63 
59 59 59 58 54 50 49 51 53 54 55 56 56 54 53 53 53 50 42 34 29 34 46 55 54 50 
48 48 45 42 44 51 55 53 49 47 47 50 54 56 57 59 63 66 68 69 70 70 70 68 65 59 
54 52 57 66 71 69 63 62 66 70 71 68 62 61 63 69 68 71 66 61 65 66 65 73 76 71 
73 77 68 63 65 70 71 66 67 67 59 58 61 62 62 56 54 61 69 72 66 61 61 63 65 65 
62 56 51 51 55 60 60 57 54 53 55 57 54 51 49 50 52 54 57 59 56 50 44 42 41 39 
35 31 28 33 46 56 55 49 46 46 41 36 36 43 48 48 45 44 45 48 52 52 52 56 64 69 
69 68 69 70 67 64 63 61 55 54 62 72 75 70 65 66 71 74 73 69 64 62 63 64 67 71 
66 60 68 66 59 69 74 72 72 73 67 61 62 70 70 64 63 59 52 51 56 63 65 61 56 58 
63 66 64 60 58 58 61 65 64 58 54 53 54 56 56 53 51 51 55 59 60 56 53 54 56 58 
60 60 53 41 33 30 29 29 32 33 33 36 46 56 58 54 51 49 44 37 36 42 47 48 47 47 
49 51 52 51 51 58 67 70 67 65 66 65 61 58 61 63 59 59 65 71 71 66 64 69 75 76 
73 70 66 65 66 62 66 71 66 56 70 65 52 62 68 67 67 69 65 60 63 69 67 62 65 61 
52 47 53 63 67 63 57 57 61 64 64 61 56 54 58 64 65 62 59 55 52 50 50 49 48 51 
57 64 67 62 57 59 61 62 62 59 50 37 28 24 25 27 33 39 45 50 56 62 66 66 64 59 
51 43 42 46 48 48 48 50 52 52 50 49 51 59 65 66 62 62 63 59 53 51 56 61 61 61 
63 64 60 58 61 69 75 77 74 70 68 69 69 63 63 67 68 59 68 62 47 55 61 63 66 65 
62 60 63 66 64 66 72 67 55 47 50 58 61 60 60 63 65 67 66 61 55 54 60 65 66 64 
61 55 49 45 44 42 41 46 54 64 68 62 56 58 63 65 63 57 46 36 29 28 30 34 42 54 
65 72 77 79 80 82 80 72 59 50 47 48 47 44 45 49 51 49 46 47 52 58 60 58 57 59 
60 54 48 46 51 56 58 60 59 56 52 53 59 66 72 75 73 70 67 67 70 65 59 63 73 66 
70 65 48 55 60 64 65 60 58 58 61 63 62 68 72 68 58 51 51 54 54 56 64 71 73 70 
65 57 51 54 62 66 65 63 60 55 49 46 43 39 38 41 49 59 63 59 54 56 63 65 60 51 
41 34 32 34 38 46 59 74 89 99 103 102 100 100 95 83 66 54 49 48 43 40 42 48 49 
48 49 51 56 58 56 55 55 57 56 52 48 47 49 53 57 58 57 53 51 53 58 63 68 72 71 
68 64 65 69 65 58 63 65 63 71 66 53 59 62 66 63 56 56 58 60 58 60 62 64 65 62 
59 58 56 54 57 66 74 73 67 60 52 49 53 59 62 62 62 61 58 55 53 50 47 46 48 53 
57 60 58 56 59 63 61 53 44 36 32 33 38 46 60 79 98 113 126 131 128 121 114 104 
87 67 52 46 43 41 42 47 51 53 55 58 61 61 59 59 59 58 57 55 55 56 55 54 55 58 
59 58 54 53 54 56 60 64 67 67 64 63 65 68 66 62 64 62 65 70 64 57 62 63 69 63 
57 60 60 60 59 59 59 60 63 66 67 65 62 59 60 65 68 66 61 58 55 54 56 58 58 58 
59 60 61 62 60 58 55 56 59 60 59 58 59 60 61 60 54 46 38 32 29 31 39 53 75 100 
120 137 151 157 150 134 119 103 83 62 47 39 37 39 46 55 59 60 62 65 64 61 61 
64 67 66 62 59 61 65 64 61 60 60 61 60 58 55 54 56 57 59 60 61 63 66 69 70 68 
65 68 60 66 69 66 58 62 64 67 63 63 63 61 61 65 66 65 64 64 67 68 67 63 61 62 
64 62 58 57 60 62 61 61 60 58 56 56 58 62 64 62 58 54 55 58 60 58 58 60 62 60 
55 49 43 36 29 27 32 43 63 91 118 139 156 170 174 160 138 116 97 77 57 42 35 
33 38 47 57 61 61 61 63 62 59 62 67 72 73 67 63 64 69 70 66 63 60 60 62 61 59 
57 59 60 59 58 61 66 70 71 71 67 65 72 64 61 66 72 58 62 64 65 63 64 62 61 66 
71 74 73 67 63 62 63 63 61 61 63 64 60 56 57 62 65 64 63 63 61 56 54 56 59 61 
60 55 49 48 52 55 57 59 61 62 59 54 50 43 35 28 27 36 54 78 107 132 151 168 
180 178 160 134 108 87 68 53 42 36 33 34 44 54 58 56 59 62 61 61 65 70 74 74 
70 65 64 67 70 68 63 59 58 62 65 64 63 65 67 65 61 62 67 68 66 65 63 61 70 65 
59 68 75 60 65 64 61 60 61 59 61 68 72 75 74 67 60 58 60 62 61 61 63 63 60 57 
59 63 63 62 63 65 63 58 54 54 56 58 59 56 51 49 51 57 61 64 63 62 61 58 53 44 
33 29 33 46 67 93 120 141 158 173 181 173 151 123 94 71 55 46 41 38 33 31 38 
49 55 56 61 65 65 66 69 71 70 69 68 64 62 63 67 69 64 59 58 62 66 67 66 68 70 
67 62 61 61 59 57 58 60 59 67 65 62 62 63 62 65 63 59 58 59 58 63 66 68 70 69 
63 59 59 62 65 64 61 60 60 58 56 59 62 63 62 63 65 62 56 53 53 54 56 59 59 56 
55 58 66 70 69 65 63 63 61 52 42 34 33 42 56 77 104 130 148 161 173 176 163 
138 109 79 55 41 36 35 34 30 27 34 45 54 60 65 68 66 66 67 67 63 62 62 61 59 
60 66 70 69 66 64 65 66 65 64 65 66 63 58 56 55 54 53 56 61 63 67 64 67 61 65 
62 65 61 57 59 59 60 63 63 64 65 63 60 59 61 64 66 65 62 59 57 56 55 58 62 63 
63 64 63 57 51 51 54 55 57 59 59 56 57 64 72 74 70 65 61 61 57 49 41 37 40 50 
64 85 113 137 153 164 173 172 155 129 100 72 49 34 28 29 31 30 29 35 45 53 58 
61 61 60 61 63 61 57 55 56 57 56 59 65 71 75 75 73 70 65 63 63 63 63 60 57 56 
57 58 56 57 63 67 68 65 71 60 66 60 63 59 58 66 62 60 60 60 61 62 61 60 60 62 
62 64 65 64 61 59 59 59 59 60 61 63 64 60 53 50 54 59 61 60 59 56 54 57 64 69 
70 67 63 60 58 56 52 47 47 52 60 74 95 121 144 159 170 178 174 154 126 98 73 
51 35 29 31 35 37 38 41 46 49 50 49 48 50 55 59 60 57 53 51 51 52 55 60 67 74 
78 78 73 66 64 66 67 66 63 61 62 64 64 60 58 62 66 67 63 71 64 61 60 62 61 67 
72 65 62 59 59 60 62 62 62 62 61 59 60 64 65 64 66 68 67 61 57 58 61 63 58 53 
54 62 67 66 61 57 54 53 55 59 61 62 63 64 65 65 65 62 59 59 64 73 87 108 131 
151 164 175 183 179 159 127 96 70 51 40 38 41 46 47 45 44 44 43 39 36 36 41 49 
55 59 59 54 48 47 50 53 55 61 68 74 76 72 66 65 67 69 67 67 67 68 68 66 61 59 
62 64 63 66 76 63 59 62 63 65 75 76 72 69 64 61 62 64 65 65 64 61 59 59 62 63 
64 69 73 71 62 54 56 60 61 56 53 57 67 71 65 59 55 53 51 53 56 56 59 65 72 77 
80 79 73 68 68 75 88 104 123 142 158 168 177 185 184 165 132 96 68 52 48 52 57 
58 53 46 40 38 35 31 27 25 30 38 47 55 57 51 47 46 50 54 56 60 65 70 72 68 64 
63 63 62 61 64 68 70 70 67 62 60 62 62 61 68 73 62 63 65 66 67 74 76 74 72 69 
66 64 64 65 64 62 61 61 60 59 60 62 66 69 67 60 55 56 60 60 54 51 56 64 67 61 
55 54 53 52 54 58 60 65 73 81 89 93 90 82 74 72 81 98 119 138 153 163 170 178 
188 190 174 143 108 83 71 69 73 74 67 55 43 35 32 30 28 23 20 22 28 38 46 50 
48 46 47 52 57 60 64 67 68 67 65 62 61 59 57 57 60 65 69 71 68 63 59 60 62 62 
67 70 64 69 70 68 66 72 73 71 71 70 66 62 60 62 60 58 59 62 61 57 57 60 62 63 
62 60 58 60 63 62 56 51 53 58 60 56 54 56 57 57 61 67 71 75 79 87 95 100 97 89 
81 80 89 108 130 150 163 169 175 184 196 202 191 166 141 122 112 106 102 93 78 
60 45 35 30 30 29 25 23 23 28 36 42 46 47 47 50 53 56 60 62 64 63 62 64 64 64 
62 60 59 60 62 65 67 66 61 57 57 60 63 67 68 65 72 72 68 65 72 70 67 69 68 62 
56 56 60 60 57 58 61 60 54 54 60 63 61 60 62 63 64 65 65 60 55 53 55 56 55 55 
59 62 64 70 77 80 79 80 87 97 103 101 96 94 96 104 120 140 160 173 182 190 200 
213 221 217 201 185 172 161 150 136 116 93 70 50 36 29 29 30 31 32 34 37 41 45 
49 51 51 51 51 50 49 50 52 55 60 67 70 70 66 62 61 61 59 58 60 61 60 55 54 58 
63 67 66 60 76 72 68 66 67 66 68 68 65 59 54 55 61 64 60 59 61 58 51 53 62 66 
63 61 62 64 63 63 63 61 57 54 55 55 54 55 59 63 67 74 79 80 77 77 84 93 98 98 
99 102 109 119 132 150 169 186 201 213 222 235 244 245 237 227 216 202 186 167 
141 112 83 58 40 31 28 29 33 38 44 47 46 48 54 57 56 52 50 47 43 40 42 50 63 
73 77 73 65 59 58 60 58 56 58 61 61 58 56 59 65 68 67 68 73 70 70 63 65 65 65 
64 62 58 54 56 63 65 62 60 61 56 50 52 63 68 63 58 58 60 60 58 59 59 57 56 57 
56 55 57 59 61 66 72 76 75 71 71 76 83 86 89 93 101 111 123 138 156 174 195 
215 229 239 251 255 255 255 255 243 229 214 195 167 135 102 73 54 43 36 29 28 
35 43 48 47 51 59 64 61 55 54 54 50 44 45 54 68 78 80 75 65 57 56 60 64 65 65 
66 65 61 59 62 68 71 69 64 70 69 68 64 66 61 58 58 59 58 57 60 64 64 61 59 59 
55 51 54 63 66 60 55 55 57 56 54 55 58 60 60 60 60 62 64 64 64 66 70 72 71 69 
68 68 69 71 75 82 90 101 115 132 149 166 188 212 228 241 254 255 255 255 255 
255 249 238 220 193 161 128 98 77 63 49 30 19 25 38 45 48 55 66 71 65 59 62 65 
62 54 52 60 70 78 79 74 66 59 57 62 70 74 74 71 67 63 60 62 68 71 70 64 69 66 
66 64 62 56 52 53 57 60 63 65 66 63 58 55 57 57 55 56 63 64 59 56 56 58 56 54 
56 61 65 65 65 67 72 76 75 72 70 70 70 70 70 69 65 61 60 64 70 76 86 102 120 
136 152 173 196 214 230 246 255 255 255 255 255 255 255 240 216 189 159 128 
102 80 54 26 11 16 31 43 51 61 72 73 65 61 66 71 66 58 56 61 67 71 72 70 67 63 
60 61 67 74 76 73 67 62 59 59 63 68 69 66 66 62 63 60 57 52 50 52 57 63 67 69 
66 61 54 52 57 62 62 60 61 62 60 60 61 61 58 56 57 61 64 65 67 72 79 85 85 82 
76 72 72 73 75 74 68 60 57 59 62 64 73 90 111 127 141 159 180 198 216 235 249 
254 253 255 255 255 255 255 236 216 191 159 125 89 51 19 5 11 26 40 52 64 72 
69 61 60 67 69 64 57 57 60 63 63 62 64 67 67 64 61 62 69 75 73 66 61 58 58 61 
65 67 67 60 59 61 59 55 54 54 55 58 62 66 65 63 59 54 53 59 68 71 66 62 61 62 
64 65 63 59 55 53 54 57 61 64 69 77 85 90 89 84 78 76 78 79 76 69 61 57 56 57 
58 66 83 104 120 132 147 166 184 203 221 236 242 245 252 255 255 255 255 255 
243 221 188 146 98 52 20 6 10 21 34 48 61 67 63 57 59 65 67 65 63 63 63 62 57 
55 59 66 72 70 64 62 69 74 70 63 60 61 63 66 68 67 66 73 61 62 60 60 60 60 60 
60 60 59 58 60 61 58 56 60 69 75 71 64 62 65 66 65 61 56 50 44 43 47 54 58 63 
70 81 91 95 91 85 81 81 80 75 67 58 52 51 53 57 66 80 97 110 120 134 153 170 
186 202 214 222 231 245 255 255 255 255 255 255 244 212 167 112 63 29 13 10 16 
27 42 55 61 59 57 60 64 65 66 66 67 65 61 56 54 57 65 72 71 66 65 68 70 66 62 
63 69 75 77 76 70 65 72 62 62 66 64 64 64 63 61 59 56 55 59 63 62 58 59 65 71 
69 65 66 67 64 59 54 48 42 37 37 43 50 54 57 65 77 90 98 97 89 84 82 78 72 63 
53 45 43 47 53 63 75 87 97 107 122 139 154 165 175 182 191 208 233 255 255 255 
255 255 255 255 228 182 128 75 37 17 11 15 25 38 49 55 57 62 66 67 64 61 60 59 
58 58 59 58 60 63 65 65 63 64 66 67 64 64 69 77 82 82 78 72 66 69 62 67 71 67 
66 65 63 61 59 57 58 61 64 63 59 59 61 63 61 62 65 64 57 51 47 42 37 36 41 46 
50 52 55 63 75 88 99 101 96 89 85 80 74 65 52 40 34 36 43 52 62 71 81 96 115 
130 138 142 144 146 155 179 215 251 255 255 255 255 255 255 237 192 139 83 39 
14 10 17 27 36 43 49 57 67 73 72 66 58 51 47 49 56 62 65 65 63 60 57 56 61 65 
66 65 67 73 77 78 75 72 70 69 69 61 70 73 69 68 67 62 60 60 62 64 65 65 62 61 
62 62 58 55 58 62 58 50 45 43 40 39 43 50 55 55 54 55 62 72 84 96 104 103 98 
92 85 79 70 56 39 26 23 29 39 47 57 71 91 112 123 124 121 117 114 122 149 191 
234 255 255 255 255 255 255 239 197 145 88 39 12 6 14 24 30 36 44 56 67 74 74 
68 60 51 45 48 56 64 68 69 65 58 53 53 59 63 64 64 66 68 67 64 62 63 65 67 68 
59 67 73 70 70 68 62 59 61 66 69 69 65 62 63 65 63 57 55 59 61 55 47 43 42 41 
41 47 56 60 59 57 58 63 68 77 91 104 108 103 95 87 80 71 56 36 20 14 19 29 41 
55 73 93 109 116 113 106 98 90 94 118 161 209 253 255 255 255 255 255 235 193 
145 91 44 13 2 6 15 23 31 41 52 60 66 68 68 64 58 52 51 56 61 67 69 65 56 50 
52 58 62 62 61 61 59 56 53 54 58 61 63 64 58 66 71 70 70 67 61 58 60 66 69 68 
64 62 63 65 62 57 57 60 61 55 47 44 43 41 42 47 56 61 62 61 63 64 65 71 84 100 
108 103 93 84 76 66 50 31 16 9 14 26 42 59 76 92 103 108 104 95 82 71 72 93 134 
185 235 255 255 255 255 255 221 179 135 91 50 18 2 1 9 20 30 39 46 52 56 59 61 
61 59 55 53 53 57 64 66 61 53 49 53 59 61 60 58 55 52 50 53 57 62 64 64 63 60 
67 71 69 66 62 59 59 62 66 67 67 64 62 62 62 61 60 60 62 60 55 49 47 46 45 44 
47 53 59 62 63 64 64 62 65 75 91 102 99 88 79 72 62 45 28 13 5 10 24 42 59 71 
83 92 97 94 82 67 56 58 78 118 169 220 255 255 255 255 242 199 156 118 83 48 
21 5 3 11 23 32 39 43 48 52 54 54 52 50 50 50 51 56 62 63 58 53 52 57 61 62 61 
58 53 49 50 55 63 69 70 69 67 65 70 70 66 61 58 60 66 68 67 66 67 67 66 63 61 
62 65 65 62 57 55 54 54 53 52 49 46 48 54 59 61 62 61 59 59 66 81 93 92 83 76 
71 62 46 28 12 4 7 22 41 55 66 76 85 89 82 69 55 49 55 74 110 158 206 242 255 
255 255 222 175 132 97 67 40 18 7 8 18 29 37 41 45 49 53 53 48 44 44 47 50 53 
59 63 62 59 57 60 64 65 64 63 60 55 50 49 56 66 73 74 71 67 71 69 68 62 58 58 
64 70 70 67 66 68 71 70 64 59 60 66 67 63 57 57 61 61 59 57 53 46 43 48 57 61 
60 57 55 55 61 73 84 85 78 71 66 58 45 29 14 6 9 22 40 56 70 81 87 84 72 58 50 
49 58 75 106 147 190 220 238 246 234 201 154 110 76 49 28 13 8 14 25 35 42 45 
47 51 54 52 46 42 45 51 55 60 65 66 64 62 64 67 68 67 66 67 65 60 54 51 56 65 
70 69 67 65 74 67 66 62 62 65 69 71 68 64 64 68 71 70 62 55 55 61 66 63 58 61 
64 62 59 57 55 49 44 49 58 61 57 52 52 53 59 70 80 81 74 67 61 53 43 31 19 14 
16 26 43 64 85 97 96 84 66 55 50 53 61 76 101 136 172 197 213 219 209 178 134 
91 56 31 15 9 12 21 32 42 48 49 48 50 53 51 46 45 50 57 62 66 68 68 67 68 68 
69 68 67 67 67 67 65 61 57 59 64 65 63 63 65 74 65 66 66 70 75 75 71 66 63 63 
66 67 65 60 54 53 59 65 64 61 61 62 58 55 57 61 58 53 55 59 56 49 45 49 54 61 
71 81 83 78 69 63 57 47 36 27 24 27 35 51 78 107 121 114 94 74 63 58 57 62 76 
99 128 159 182 194 196 184 154 114 74 40 16 5 7 17 30 42 51 54 50 47 49 53 53 
49 48 53 60 66 68 68 67 69 71 70 67 67 68 67 67 67 68 67 63 61 62 61 60 63 66 
70 62 64 68 73 77 74 69 66 66 67 66 64 62 60 56 57 61 64 64 62 61 60 56 56 62 
68 67 63 60 57 49 40 40 47 55 63 75 86 90 85 76 69 65 56 44 36 37 42 50 69 101 
135 150 140 117 97 84 73 64 66 80 102 128 155 177 186 180 162 132 96 61 29 8 2 
9 23 39 53 61 58 50 47 50 54 54 51 50 53 60 65 66 62 61 66 71 72 68 69 72 71 
67 65 67 67 64 61 60 59 59 64 69 68 57 60 67 72 73 70 66 65 67 69 67 64 63 61 
59 59 59 58 57 60 63 64 62 63 67 69 67 65 62 57 47 39 41 47 55 65 79 90 93 87 
77 71 67 61 51 48 54 61 69 93 131 167 182 174 153 133 115 95 79 78 94 117 141 
164 183 189 177 151 119 84 50 21 4 3 13 29 46 61 67 62 54 53 56 58 56 51 49 51 
57 62 60 55 54 61 69 71 69 69 71 72 69 65 66 66 64 62 61 59 59 65 71 66 57 60 
67 70 70 69 67 64 66 69 69 69 66 62 58 56 55 52 51 58 66 69 69 67 63 58 55 58 
59 56 48 44 44 47 55 66 78 87 89 84 74 68 66 64 59 62 71 80 91 117 157 194 214 
211 193 170 146 121 103 103 121 146 168 187 201 201 184 153 116 79 42 13 1 4 15 
31 50 65 70 67 64 64 66 63 56 50 47 48 51 55 55 51 51 58 66 69 67 64 66 70 71 
69 68 67 66 66 65 61 60 65 73 63 59 61 66 68 70 71 71 69 67 69 72 71 67 61 57 
56 56 53 51 56 65 69 69 64 53 42 40 47 53 53 49 47 47 49 55 64 73 78 79 78 74 
71 68 66 67 75 88 99 112 140 179 217 242 245 229 203 176 154 142 144 161 183 
202 217 225 220 196 161 121 79 38 9 0 5 16 31 48 62 70 71 71 73 72 65 55 48 44 
43 44 48 50 51 53 58 65 68 65 61 62 69 74 73 70 67 66 66 66 64 64 69 74 66 59 
58 62 66 68 71 74 72 69 69 69 67 63 59 57 60 62 60 56 56 60 63 61 54 43 34 36 
44 49 49 47 48 50 50 53 59 64 66 67 70 74 76 74 72 75 87 101 114 132 162 200 
237 255 255 255 233 210 194 186 187 200 218 235 247 249 238 210 172 130 85 43 
16 8 12 20 31 43 56 64 67 71 73 71 64 56 49 43 41 42 46 49 51 55 59 63 66 64 
60 61 69 75 71 63 58 58 60 63 66 69 71 72 67 57 53 58 63 66 69 73 71 66 63 61 
58 56 55 58 64 68 66 62 58 57 55 52 47 42 40 44 49 48 44 43 46 48 46 47 52 56 
58 58 62 69 75 76 75 81 94 108 123 147 182 219 250 255 255 255 255 241 227 218 
217 226 241 255 255 255 252 221 182 139 94 55 29 18 19 24 29 38 47 55 62 67 67 
65 62 60 56 48 43 45 48 51 52 54 57 61 64 62 58 60 67 69 62 52 48 49 54 61 67 
68 68 68 69 59 52 57 63 66 67 68 66 61 57 53 52 52 55 60 66 70 69 65 62 59 55 
50 48 49 52 55 54 47 39 37 41 42 41 41 47 52 54 54 55 61 67 71 75 84 97 109 
128 159 196 230 255 255 255 255 255 255 239 228 226 233 245 255 255 255 255 
225 185 144 102 64 36 21 18 21 25 31 40 52 61 64 61 59 62 65 63 53 44 44 48 50 
50 50 54 59 61 59 57 59 64 62 54 47 47 52 60 67 69 66 65 67 69 64 55 58 64 65 
63 61 61 59 55 52 53 57 62 66 68 70 69 66 64 64 61 57 55 58 61 61 55 46 38 36 
39 41 39 40 43 47 48 48 49 51 55 62 71 84 96 110 132 166 203 234 255 255 255 
255 255 251 234 222 220 225 233 245 255 255 248 218 180 141 100 61 32 17 14 16 
21 26 36 51 61 62 58 59 63 68 65 55 44 41 43 46 47 49 53 58 60 59 58 60 61 58 
53 51 55 63 72 75 71 65 65 68 67 64 58 59 62 62 59 58 59 59 57 56 60 66 71 72 
70 68 66 64 65 68 69 67 64 63 63 61 55 48 43 42 44 44 41 37 36 35 35 39 42 43 
47 57 69 83 95 112 137 169 202 231 251 255 255 255 252 238 221 210 207 209 213 
224 239 243 229 201 167 129 88 51 27 17 16 20 23 26 35 47 56 58 58 62 67 67 62 
52 43 40 41 44 48 52 55 57 59 61 62 63 62 59 56 57 61 69 76 76 71 67 66 69 69 
64 59 59 60 58 56 58 61 62 61 60 64 70 75 74 70 66 62 62 66 73 78 77 71 66 63 
59 55 52 51 50 48 44 37 31 26 23 23 29 35 40 48 60 72 83 96 115 140 170 199 
224 241 248 244 237 230 220 204 191 186 184 186 197 211 214 201 177 146 111 
74 45 28 24 26 28 29 30 35 44 51 55 60 66 69 64 55 47 43 42 43 48 55 60 60 57 
58 63 68 68 65 62 60 59 61 66 69 69 68 67 68 67 67 66 61 61 61 58 59 64 67 67 
64 60 61 66 72 73 69 64 61 61 67 77 84 81 74 67 62 58 56 54 53 51 45 38 30 25 
22 19 19 24 33 43 55 67 77 87 100 119 143 171 198 218 231 234 226 215 207 194 
176 160 151 147 151 162 173 173 162 142 118 89 61 42 33 31 33 34 34 34 38 44 
49 55 63 69 69 61 50 43 43 46 47 53 62 66 63 58 59 66 70 71 68 66 63 61 60 63 
64 63 65 69 70 67 67 68 63 61 62 63 66 70 74 73 66 59 57 60 65 68 66 62 61 63 
67 75 81 79 71 64 60 58 57 54 49 44 39 33 28 26 26 26 26 31 44 59 71 79 87 98 
110 126 147 174 198 213 222 224 216 201 183 161 139 121 110 105 111 123 131 
129 118 103 86 67 50 39 32 29 30 32 34 39 43 47 50 56 63 69 69 61 51 45 48 52 
52 56 62 66 63 60 63 68 70 69 67 65 62 61 62 65 64 63 66 71 72 68 65 67 62 58 
62 67 70 72 72 71 67 60 56 57 60 61 60 61 63 65 67 71 74 71 63 57 56 57 58 52 
43 36 34 34 32 31 35 40 45 56 73 90 98 101 107 117 126 137 154 177 197 209 217 
221 214 192 164 134 109 89 76 69 73 83 90 90 83 71 60 49 40 34 27 25 25 28 34 
43 49 50 51 55 61 67 69 64 55 52 56 60 58 54 56 59 61 64 69 72 70 66 64 62 60 
60 63 66 66 65 66 70 71 68 64 67 61 61 64 67 67 66 66 65 63 60 58 58 56 54 54 
58 62 64 66 68 68 63 55 50 51 55 57 51 40 34 35 39 38 37 46 59 74 95 119 133 
137 134 136 140 143 148 159 177 194 206 218 227 222 199 165 129 101 80 61 46 
41 45 54 58 57 49 41 35 31 27 26 27 29 30 35 45 52 53 51 53 59 65 67 63 58 57 
60 64 61 54 53 56 62 69 75 75 71 66 64 62 60 59 62 65 64 62 63 66 67 64 69 68 
65 68 67 65 63 64 64 62 59 57 57 57 53 49 49 54 59 61 63 64 62 56 48 45 47 52 
55 51 40 35 40 45 46 49 64 84 108 139 167 178 178 173 166 160 154 152 158 172 
187 203 221 238 238 219 185 149 117 90 62 36 20 18 24 31 34 31 26 23 23 25 32 
39 41 39 39 47 54 55 52 52 54 57 58 56 55 57 59 61 59 55 56 59 65 71 75 74 69 
66 66 66 63 62 63 63 60 58 61 64 64 62 67 67 70 74 68 64 64 67 70 66 58 52 53 
54 51 48 48 51 54 57 60 61 57 50 44 42 45 50 54 52 44 37 40 47 53 66 88 115 
144 178 205 215 214 208 195 177 160 151 153 163 177 197 223 246 254 242 214 
179 144 109 72 38 15 6 6 10 14 17 17 18 21 29 41 50 51 46 44 48 53 54 51 49 48 
49 48 49 52 56 57 54 54 58 62 63 66 69 72 70 66 66 69 69 67 65 66 64 59 58 61 
64 66 65 65 63 70 72 66 63 67 73 74 68 58 51 52 54 54 52 51 50 52 56 61 61 56 
47 42 41 43 48 54 54 48 40 39 45 59 82 112 144 176 209 234 243 242 235 219 192 
166 151 148 153 167 190 219 246 255 255 239 208 170 129 88 53 27 11 1 0 5 13 
19 23 28 37 47 53 52 48 47 49 50 50 50 49 47 46 45 46 51 58 58 53 52 59 64 65 
66 68 69 67 64 66 71 72 69 67 67 65 61 59 62 65 65 65 67 68 67 68 63 65 71 75 
73 66 58 56 57 58 59 59 56 52 53 58 63 63 58 50 44 42 44 49 55 57 52 46 42 47 
63 91 127 164 199 233 255 255 255 255 238 207 174 150 141 144 157 182 213 243 
255 255 252 228 191 148 108 73 45 21 5 0 6 18 28 34 39 44 50 52 52 51 51 50 47 
47 49 50 49 48 46 46 53 62 63 58 55 60 64 66 66 68 69 66 64 66 71 73 71 69 69 
66 63 61 63 63 63 62 70 72 68 66 63 67 73 75 70 63 58 58 59 60 62 63 59 55 55 
59 63 62 58 53 50 48 47 51 56 59 57 53 51 55 68 95 131 170 209 244 255 255 255 
255 246 213 175 144 129 130 144 171 206 236 254 255 255 241 207 165 124 88 55 
27 9 5 14 27 37 43 46 48 51 54 55 57 57 54 50 48 48 48 50 49 46 46 54 64 68 64 
60 61 64 66 68 68 68 65 64 66 70 71 70 69 69 67 65 65 64 61 61 62 70 74 68 67 
67 69 73 74 71 65 60 59 59 59 61 62 59 55 56 59 60 58 56 57 58 56 53 54 59 62 
61 58 58 62 73 94 125 163 204 242 255 255 255 255 237 203 163 128 109 109 125 
153 189 221 242 252 255 244 213 170 127 89 55 28 14 14 25 35 42 46 47 49 52 57 
62 65 64 61 56 53 49 48 51 51 46 46 54 66 71 69 65 63 65 69 70 68 66 65 65 66 
67 66 65 65 65 65 64 65 64 61 61 64 67 69 66 65 69 71 71 71 70 68 65 63 61 61 
61 59 56 55 56 60 59 55 53 57 61 60 58 59 63 66 64 60 59 62 71 89 115 149 189 
225 250 255 253 236 210 175 137 103 84 85 101 129 163 198 222 237 242 230 200 
158 117 82 52 31 22 23 31 40 45 48 50 51 55 63 68 69 68 65 62 58 53 51 53 52 
47 47 56 68 73 71 66 63 66 71 71 68 66 66 66 65 64 63 61 60 60 59 60 62 63 64 
64 70 67 65 65 66 68 71 71 69 68 67 67 68 69 68 63 58 56 57 59 62 61 57 54 56 
61 64 66 69 71 70 66 61 58 59 65 80 102 131 164 195 218 228 223 203 173 139 
105 75 58 60 76 102 134 168 196 212 214 200 172 137 104 74 49 34 28 29 32 39 
48 54 57 58 63 68 70 68 66 65 62 57 53 52 54 53 50 50 58 67 72 70 65 63 66 70 
70 69 69 67 64 61 61 62 61 59 58 57 58 58 62 66 64 72 71 67 69 70 68 72 72 68 
64 63 64 69 73 72 66 61 60 63 65 65 62 58 55 56 62 69 76 80 79 73 69 66 62 58 
58 67 85 108 133 156 176 188 186 166 136 103 74 50 35 38 54 77 107 138 165 180 
181 167 144 120 94 67 45 33 32 32 34 41 51 59 63 65 69 71 69 64 63 62 59 55 52 
51 53 54 53 55 59 63 66 66 66 65 67 68 68 69 69 66 60 57 60 64 65 64 64 63 61 
59 63 64 62 69 69 67 71 73 69 72 72 65 59 58 59 64 70 71 68 64 64 66 67 65 61 
58 55 57 64 74 84 86 81 75 74 73 66 53 46 50 63 80 98 115 131 144 144 127 102 
75 53 33 21 24 39 59 84 111 136 149 151 140 125 109 87 60 38 30 33 36 40 47 56 
62 65 67 69 69 64 60 60 61 59 55 53 53 54 56 57 58 60 60 61 63 67 70 70 68 66 
66 66 62 57 56 61 67 70 71 72 71 66 63 64 60 61 66 65 63 70 72 68 68 68 60 56 
56 57 61 66 69 68 65 63 63 62 60 59 58 58 60 64 72 79 82 78 76 78 76 64 48 37 
38 46 56 66 76 88 100 102 92 74 57 40 24 16 20 33 47 64 86 107 121 123 116 108 
98 78 52 33 28 34 40 46 52 58 61 63 64 64 62 60 58 59 61 59 56 55 56 57 58 58 
60 61 61 60 62 67 72 73 69 65 63 60 56 55 58 63 68 71 72 71 70 66 64 60 56 62 
64 64 65 68 67 66 65 63 59 58 58 60 64 67 69 67 63 59 57 57 58 58 59 61 61 59 
60 65 69 72 75 77 73 60 46 38 38 40 42 42 47 55 64 69 66 57 47 35 23 19 24 32 
38 47 61 78 91 96 93 88 81 66 46 31 29 36 43 48 53 56 57 57 57 56 55 56 58 58 
58 56 55 56 58 59 58 57 58 61 63 62 62 65 69 70 68 64 60 57 53 54 58 63 68 70 
69 66 65 64 63 58 57 62 64 67 69 69 66 66 67 64 64 63 62 65 69 72 69 64 59 57 
57 60 61 59 61 64 61 54 49 51 58 65 71 73 69 58 49 46 46 44 37 31 31 35 42 48 
50 49 45 37 29 27 31 33 32 34 43 56 69 75 73 70 65 56 42 32 34 41 47 50 51 51 
51 51 50 49 51 55 58 55 51 52 55 59 62 62 61 58 57 61 65 64 62 62 65 66 65 63 
62 59 55 54 58 63 66 67 66 63 64 66 64 62 61 64 66 62 70 68 68 69 71 69 68 67 
64 66 71 73 67 60 57 58 62 67 67 63 61 64 64 55 47 46 52 59 66 69 66 58 52 51 
52 48 39 30 26 28 32 37 42 46 46 42 38 39 39 36 32 33 38 47 55 59 59 58 55 50 
42 37 41 47 52 54 53 51 50 49 46 46 49 55 55 51 48 51 58 63 65 67 66 62 59 61 
62 61 59 61 65 65 63 63 66 65 60 58 61 64 64 64 63 63 68 68 66 66 66 68 70 56 
62 64 66 69 73 70 67 64 63 65 69 70 64 58 57 61 66 70 70 65 61 63 65 60 52 48 
51 57 63 66 64 58 54 54 56 53 44 35 28 26 27 32 38 44 46 46 47 49 49 45 41 41 
42 44 47 50 52 52 51 48 44 44 48 52 56 59 59 57 54 51 48 48 50 53 53 50 49 52 
57 61 63 67 69 65 61 59 58 55 56 62 68 68 65 64 67 68 64 63 65 67 65 61 60 64 
68 67 64 66 69 70 68 51 60 64 63 67 69 67 64 61 61 61 64 64 61 57 59 63 66 68 
68 64 60 61 63 60 54 50 52 56 61 63 61 58 57 60 64 62 54 43 33 27 26 31 40 45 
47 47 50 56 59 57 53 50 47 45 45 47 49 49 48 47 47 50 53 54 55 60 63 61 56 53 
53 55 55 54 52 50 50 50 51 53 56 62 66 65 64 62 57 52 53 61 69 70 67 65 66 66 
65 66 70 72 68 63 61 64 67 65 63 65 69 68 64 57 60 63 66 68 67 66 66 63 61 61 
60 57 54 54 58 62 63 64 64 64 63 62 61 57 51 50 51 55 58 59 59 59 63 69 73 71 
64 52 41 34 33 37 45 51 51 50 53 60 65 65 61 56 52 50 49 48 47 46 45 46 50 54 
55 54 53 59 63 61 55 55 60 63 62 57 53 51 49 48 47 50 52 56 60 64 67 67 62 55 
56 62 68 70 68 65 64 63 64 66 68 70 70 68 66 65 67 68 66 66 70 65 61 67 63 62 
67 71 68 68 70 68 64 60 56 53 51 53 58 62 64 64 66 67 68 66 63 57 53 52 50 50 
53 55 58 63 70 74 75 74 68 59 52 46 44 46 52 57 58 58 59 63 67 68 63 58 56 56 
55 50 46 44 45 49 53 57 57 54 54 58 61 58 54 56 63 68 66 60 56 52 50 49 52 56 
57 55 56 60 66 69 65 61 60 64 67 68 66 65 64 64 65 64 62 63 66 67 65 64 67 71 
69 69 69 63 64 68 63 62 62 67 66 68 71 72 66 57 53 54 53 56 61 67 69 71 72 72 
71 69 66 64 61 56 49 47 50 54 60 66 71 73 72 70 66 63 58 55 53 53 56 61 66 67 
65 65 66 65 60 57 57 58 54 51 49 49 50 53 56 58 57 55 53 56 58 55 50 51 58 64 
65 63 59 55 53 55 60 65 63 57 54 56 62 65 64 62 61 65 67 66 64 64 66 68 69 65 
59 57 58 60 60 61 64 68 69 67 63 60 67 67 64 64 55 62 65 65 69 70 66 63 61 59 
59 61 66 71 75 75 76 73 69 66 65 66 64 56 48 46 51 58 62 66 70 71 71 70 67 64 
60 58 58 57 56 60 67 71 68 64 63 61 57 54 54 52 49 51 56 57 54 54 55 55 55 52 
52 53 53 48 43 42 48 56 62 63 59 57 57 61 65 68 65 59 56 58 62 64 65 62 61 63 
66 66 64 64 67 72 72 67 58 54 56 59 60 59 59 63 65 62 58 62 68 67 67 68 55 61 
64 66 68 67 66 69 70 67 65 64 67 69 71 74 73 68 63 60 60 60 58 50 44 45 53 59 
62 63 67 71 74 74 71 65 60 58 59 57 54 56 64 70 67 61 57 56 55 53 50 46 46 53 
60 61 55 51 51 52 51 49 49 50 49 43 38 38 43 53 61 61 57 57 61 65 65 63 61 59 
61 65 69 71 70 64 60 61 66 67 66 65 67 69 67 62 57 58 61 61 59 58 58 61 63 61 
61 65 67 70 67 64 62 61 63 68 71 67 68 70 72 70 67 64 61 62 65 69 68 63 57 54 
53 52 49 42 39 43 52 57 58 59 63 69 73 74 71 66 62 60 60 57 53 54 62 68 65 57 
52 51 52 54 52 48 48 53 58 57 52 49 51 52 51 47 45 45 44 41 39 41 47 55 60 60 
57 58 64 67 64 59 56 58 64 70 75 76 73 67 61 62 67 72 73 71 68 63 56 53 58 63 
62 58 54 54 57 62 65 65 66 66 64 69 60 51 67 63 62 66 68 66 67 68 70 69 66 62 
58 58 63 68 67 61 54 50 49 48 46 41 39 45 54 58 58 58 60 62 64 65 65 64 63 63 
62 57 52 51 58 65 63 55 47 44 48 55 58 56 54 54 54 52 49 50 53 55 53 47 43 40 
39 39 44 50 55 57 57 57 58 62 67 68 65 59 55 57 63 71 74 73 70 67 66 67 72 78 
81 78 70 60 52 53 61 62 60 59 53 50 55 63 68 67 66 63 60 64 52 44 67 63 63 58 
64 65 64 65 67 68 67 64 62 63 69 72 69 63 57 53 51 51 49 46 46 54 63 66 65 62 
59 56 56 58 61 63 64 65 63 58 51 48 52 59 62 57 47 41 45 55 62 61 56 53 50 48 
48 51 55 57 54 49 46 43 41 42 50 60 61 56 52 53 60 66 69 70 69 63 57 56 62 69 
71 68 67 68 70 71 74 79 83 80 71 62 56 60 64 62 65 67 56 50 53 62 68 67 62 56 
55 60 49 46 55 65 66 56 60 64 64 65 65 66 66 66 67 69 71 73 71 66 62 60 59 57 
54 51 54 63 72 74 70 65 61 58 58 62 64 66 66 67 66 59 52 47 48 55 61 60 51 42 
45 54 59 56 51 49 48 47 48 51 55 57 56 54 54 52 49 50 58 64 62 54 49 53 62 67 
69 70 69 65 58 57 63 68 67 63 63 65 68 69 72 76 80 77 71 64 60 64 66 63 71 73 
63 56 56 63 69 67 60 54 52 62 60 56 60 68 67 60 61 63 66 69 67 64 61 63 68 69 
65 67 67 64 63 62 63 61 57 56 59 67 72 71 67 64 63 63 65 69 71 70 70 70 68 61 
54 51 51 56 61 61 54 47 46 52 53 49 46 47 50 51 52 53 56 58 58 59 59 58 56 58 
62 63 57 52 51 57 63 65 64 64 64 60 56 59 65 67 63 59 58 60 63 66 69 73 74 70 
65 59 60 63 62 65 72 71 67 61 60 64 70 66 62 59 58 65 68 66 61 67 60 60 65 62 
64 68 66 62 59 60 64 66 65 64 62 58 58 58 60 62 60 59 61 64 66 63 59 58 61 64 
67 71 72 71 72 72 68 61 57 56 58 58 59 58 55 52 51 52 51 49 49 52 56 57 58 59 
61 62 61 60 59 56 56 59 61 57 53 53 58 63 65 62 58 57 57 55 57 64 69 67 61 57 
55 56 58 62 65 67 64 62 58 58 60 59 60 66 66 66 67 64 62 63 66 63 63 63 66 51 
73 73 64 61 50 58 69 62 60 61 65 64 61 62 65 67 67 66 62 56 53 53 56 60 60 59 
58 60 59 55 52 54 59 63 66 69 70 70 71 69 65 61 59 60 62 60 57 55 55 56 55 55 
55 57 58 59 60 62 63 65 67 67 66 63 58 54 54 58 59 55 54 58 65 68 66 61 57 56 
58 58 62 68 70 67 61 57 56 56 57 58 58 58 59 61 61 60 58 56 61 65 60 62 67 67 
63 60 60 62 65 65 67 53 77 76 74 56 45 53 60 65 62 57 62 65 66 64 64 66 66 67 
65 59 54 52 54 57 57 56 55 55 53 52 52 55 59 64 66 68 68 68 67 65 61 60 61 61 
62 60 56 53 54 56 56 57 59 62 63 60 59 60 62 65 68 70 71 68 63 58 57 60 60 58 
58 62 67 69 68 64 61 61 64 65 66 68 68 65 61 59 59 59 59 57 55 56 61 63 65 63 
58 59 64 61 56 59 65 68 65 61 60 63 61 64 63 54 70 73 75 57 52 54 63 68 64 59 
61 63 62 60 61 62 64 68 68 62 58 57 57 58 58 58 58 55 51 51 54 58 62 65 67 67 
66 64 62 59 58 60 62 60 59 59 57 53 52 53 55 57 60 61 59 55 54 54 56 57 62 68 
71 70 67 63 60 59 59 57 59 62 65 69 71 69 66 65 68 69 67 66 65 63 61 59 59 61 
62 61 59 60 64 65 66 66 64 66 66 62 56 56 60 66 66 62 59 60 62 63 62 58 59 65 
71 65 63 61 62 67 60 61 65 60 60 59 59 61 67 70 67 63 60 63 65 66 66 66 65 58 
51 51 56 60 61 62 64 65 63 61 57 55 57 62 64 60 57 58 57 52 49 51 55 57 58 56 
51 49 51 52 50 49 53 60 64 66 67 64 60 56 54 54 57 60 63 68 73 72 67 65 68 70 
68 65 63 63 63 60 60 62 65 66 64 64 65 64 65 66 68 67 70 67 61 57 59 64 64 59 
55 60 60 58 58 61 58 62 66 58 72 69 61 61 52 61 69 61 63 63 63 66 70 68 66 65 
66 66 71 71 71 70 67 59 51 50 55 57 56 56 58 61 60 57 56 56 61 68 68 61 55 56 
54 48 46 50 56 58 58 54 49 49 53 54 49 45 46 51 56 61 65 65 63 58 54 54 58 60 
62 66 70 70 67 65 67 70 69 67 65 65 64 61 61 63 67 67 64 67 68 65 64 67 67 67 
71 73 69 65 64 64 62 59 60 64 57 52 53 60 68 65 63 54 78 74 69 53 45 55 62 66 
67 68 67 68 69 66 65 69 71 71 70 68 68 65 62 56 50 50 55 57 55 54 56 58 57 58 
60 62 67 72 70 61 54 51 48 43 44 51 57 60 60 57 53 52 56 56 50 43 42 46 53 61 
68 70 69 65 60 59 60 61 60 60 63 65 65 65 66 68 69 68 66 64 61 60 60 63 65 63 
63 68 70 67 67 69 65 65 70 74 73 65 60 62 64 63 66 61 54 53 55 51 74 66 58 56 
76 75 73 53 50 54 64 69 67 64 63 65 67 65 64 69 72 72 68 68 66 61 57 54 51 53 
58 62 62 62 61 61 59 61 65 67 68 69 67 60 53 49 47 46 49 55 58 59 61 62 59 57 
57 56 49 44 42 45 54 65 73 74 72 68 64 61 59 58 56 55 56 61 64 64 63 64 66 67 
65 61 58 57 60 62 60 59 61 67 70 69 68 65 60 64 66 70 69 62 60 62 59 63 63 60 
58 58 60 46 68 61 52 57 65 69 72 63 60 60 63 68 58 53 55 63 69 67 65 67 69 68 
68 69 68 63 59 57 55 58 64 70 71 70 69 66 64 65 67 67 66 65 63 60 57 54 54 56 
58 60 58 56 57 61 62 59 56 54 51 48 47 50 59 70 76 75 71 68 64 60 56 54 52 51 
53 59 64 63 61 61 63 66 66 62 59 57 59 59 57 58 59 62 66 66 67 67 65 60 60 64 
65 61 57 58 62 62 61 60 60 64 64 48 62 57 52 59 58 62 68 60 69 68 61 61 49 46 
54 69 76 73 68 68 69 67 66 68 69 67 65 63 61 64 69 73 75 72 71 69 68 66 64 62 
62 63 65 65 65 62 62 63 63 61 57 53 53 57 59 58 55 54 55 55 55 56 62 69 73 71 
69 67 63 58 53 50 49 49 53 59 64 64 62 62 65 67 68 66 60 58 60 56 51 54 62 68 
65 66 71 74 71 66 64 63 62 58 56 61 58 56 56 58 61 62 60 50 64 62 56 50 63 64 
64 57 72 75 69 56 44 47 60 75 79 73 67 68 71 71 68 67 67 67 67 67 66 69 73 74 
74 72 70 70 68 64 59 57 60 66 72 74 73 68 65 63 61 59 58 56 53 54 57 58 58 58 
60 60 59 60 62 65 66 66 66 64 62 58 55 51 49 51 55 60 62 63 64 65 67 68 68 66 
65 69 63 55 56 62 69 68 61 65 70 74 73 62 60 62 65 64 68 62 54 51 53 55 59 59 
56 47 70 70 61 52 65 70 62 56 71 77 74 59 51 54 62 71 72 66 63 66 71 72 68 65 
64 65 66 65 64 66 72 73 71 72 73 71 67 63 58 57 62 69 75 78 76 71 65 60 57 58 
60 59 56 56 58 62 63 62 62 61 60 60 61 62 63 62 61 60 60 60 59 58 56 57 59 60 
60 61 64 65 64 63 63 62 63 63 59 61 65 66 65 62 62 61 64 69 67 61 59 63 59 62 
63 58 55 56 58 61 63 60 60 46 70 69 64 56 62 68 57 54 65 69 72 67 60 63 63 63 
63 63 62 64 68 69 66 64 65 66 65 62 58 61 66 69 71 73 75 71 66 62 62 64 67 69 
72 75 76 72 65 60 59 61 62 61 58 59 62 64 64 63 62 61 61 62 62 64 65 63 59 57 
58 62 65 65 64 63 64 64 62 63 65 63 60 63 59 51 52 57 67 67 66 68 73 72 64 59 
61 65 64 59 57 59 62 63 61 60 59 60 63 63 58 53 52 49 61 64 64 60 56 62 53 54 
61 60 66 65 63 71 67 63 62 60 62 64 64 57 59 64 68 70 67 63 60 60 64 67 66 70 
71 69 63 61 65 72 71 69 68 72 73 69 64 63 65 66 65 62 60 62 64 63 62 63 64 64 
64 63 63 66 68 66 62 58 58 62 67 67 64 65 67 65 62 63 65 67 70 66 58 56 60 66 
71 62 62 66 73 76 71 66 63 62 60 55 60 63 59 59 59 58 64 65 62 57 54 52 60 49 
54 58 63 63 55 62 57 54 54 64 64 61 62 75 75 70 65 61 62 66 60 58 53 59 65 67 
66 64 65 66 64 62 64 64 69 67 63 63 68 71 72 64 64 67 70 63 62 66 70 70 70 65 
64 63 63 61 60 63 65 67 66 63 61 64 66 66 63 60 58 62 65 64 64 66 66 61 60 60 
56 55 58 58 61 64 65 65 64 62 64 65 69 73 62 58 61 64 63 69 67 57 51 51 55 59 
61 59 57 55 54 50 54 48 50 55 63 65 53 70 65 56 55 68 68 59 60 73 75 73 69 63 
63 66 65 57 51 53 56 58 60 63 65 63 60 60 60 66 70 66 66 68 71 73 66 63 64 63 
58 60 64 69 72 72 62 64 62 62 62 61 62 65 67 69 68 63 60 61 63 64 63 60 62 66 
64 62 62 63 65 69 69 62 51 50 56 69 68 65 67 72 74 67 58 58 64 66 62 59 62 58 
61 63 60 56 53 54 54 58 60 57 55 55 56 47 52 50 53 49 45 43 52 74 68 61 56 65 
67 55 57 67 67 70 70 66 64 65 62 56 50 49 49 51 56 61 62 61 60 60 62 68 69 66 
66 70 74 73 68 69 69 64 62 65 68 70 72 69 61 60 59 63 64 63 66 68 71 71 70 72 
68 60 65 65 63 63 65 65 62 62 61 56 53 57 58 60 65 68 68 71 61 61 64 71 76 72 
66 62 64 63 58 56 58 62 62 62 60 60 61 63 65 65 61 59 64 69 68 62 56 53 52 52 
48 45 51 68 66 63 59 58 62 52 56 59 63 66 67 66 65 63 59 56 53 51 51 54 60 64 
62 61 63 65 67 69 68 65 64 68 70 68 66 68 69 68 68 68 67 65 66 68 67 63 64 69 
70 65 64 68 62 66 67 65 64 65 64 60 59 59 61 65 72 73 65 53 50 55 59 61 62 63 
63 62 61 63 65 68 72 73 70 66 63 60 56 59 62 59 59 59 59 56 57 60 61 58 53 50 
45 45 48 52 52 
