P2
112 112
255
74 73 67 67 77 82 74 66 70 77 75 65 56 57 70 80 77 65 61 67 74 73 69 67 73 77 
72 65 67 73 73 68 66 70 69 62 62 71 78 77 74 74 70 61 55 62 71 73 72 70 66 63 
67 75 77 76 76 73 65 59 61 65 65 59 55 60 71 77 75 73 76 81 82 77 67 59 59 65 
70 72 74 75 72 67 70 78 81 76 70 68 68 67 67 75 81 75 68 65 59 55 63 76 76 71 
72 77 73 63 60 65 65 69 77 71 63 65 78 87 81 66 61 68 72 66 51 49 63 77 76 68 
67 72 76 74 70 67 71 76 72 63 59 60 62 61 64 71 74 68 66 75 86 88 81 74 68 58 
53 61 73 76 74 73 70 67 70 76 76 76 81 81 69 59 60 65 67 66 67 68 70 70 69 68 
70 75 79 76 68 63 63 66 66 66 67 65 58 55 60 67 68 66 66 68 67 62 61 69 72 68 
68 72 68 61 65 75 74 69 70 77 74 62 58 60 63 72 79 70 62 64 74 82 75 60 53 61 
72 70 58 52 62 73 72 67 68 72 72 70 67 65 69 75 74 66 58 56 55 56 62 71 76 73 
69 74 82 84 79 74 69 58 53 62 74 75 72 73 71 66 67 71 70 69 76 78 67 58 60 67 
70 73 77 76 71 65 63 61 62 67 74 74 69 66 68 68 64 63 66 62 52 48 55 62 62 61 
64 68 67 61 60 65 67 64 66 74 71 64 65 70 67 60 64 74 75 67 62 66 69 78 88 89 
85 80 75 74 77 73 65 63 67 68 69 76 82 77 66 61 67 76 79 68 53 51 64 73 68 56 
56 66 72 68 67 70 71 69 66 64 66 71 75 71 63 58 54 53 56 64 72 75 72 70 74 79 
78 74 72 66 56 55 66 74 72 71 74 71 64 65 68 66 67 74 73 62 57 63 70 72 76 79 
76 68 62 60 58 60 67 73 72 69 69 71 68 64 65 67 59 47 47 58 63 60 60 65 69 67 
60 60 66 72 73 80 97 95 82 72 67 71 75 71 61 60 66 68 72 81 84 75 65 62 62 66 
70 66 53 49 60 73 73 65 64 70 71 67 66 69 66 60 60 63 66 68 69 69 67 64 60 56 
56 61 65 69 71 71 72 71 69 69 71 69 62 60 67 71 70 74 79 72 61 59 62 59 57 62 
65 60 60 65 69 69 74 79 75 67 62 60 56 55 62 68 69 66 67 69 70 69 72 76 68 54 
53 64 68 61 59 64 69 68 63 61 66 79 79 87 95 92 79 68 61 60 64 64 59 59 61 60 
62 73 80 75 67 61 58 62 73 75 64 55 59 67 69 66 69 76 75 69 68 70 64 57 60 67 
69 63 59 59 62 65 64 63 64 63 61 61 66 72 75 73 68 67 72 74 70 70 73 73 71 75 
77 68 57 60 65 61 55 58 64 68 69 69 64 62 66 71 69 67 70 69 62 56 57 61 62 61 
60 62 67 74 80 82 77 67 67 75 74 64 61 67 72 73 70 68 71 81 81 87 87 85 81 75 
63 53 54 62 66 66 63 57 58 68 79 79 73 63 57 63 78 82 71 61 59 62 65 69 72 77 
76 72 71 72 66 58 62 71 70 60 54 54 56 59 63 69 73 70 64 62 66 69 73 72 68 68 
73 76 75 76 76 73 69 68 65 57 54 62 71 67 59 60 70 79 79 72 63 62 65 65 61 65 
75 75 64 53 51 55 61 62 58 57 64 72 76 76 71 68 71 76 71 62 61 68 74 77 77 77 
79 81 81 84 86 86 88 83 68 55 57 69 76 75 69 63 65 73 81 83 77 67 61 68 79 80 
72 66 64 64 69 76 78 79 79 76 75 75 67 60 63 71 69 63 61 62 63 64 66 70 73 71 
66 67 67 64 64 65 67 70 73 72 72 73 72 68 62 58 54 51 55 66 74 70 62 63 74 82 
79 70 66 70 70 61 55 62 73 73 62 52 49 55 64 67 61 57 61 69 71 66 60 58 64 68 
64 59 59 64 68 72 75 78 82 85 86 87 88 90 93 87 73 63 66 76 80 75 68 65 68 75 
80 80 76 68 65 69 73 72 70 71 71 70 72 76 80 84 87 85 80 75 70 63 63 68 69 68 
69 73 77 76 70 64 62 62 62 66 66 60 59 65 71 72 67 62 63 67 66 62 58 57 55 53 
59 69 74 70 64 65 73 75 67 61 67 76 71 55 50 61 72 70 61 58 59 61 65 67 63 58 
62 71 74 67 58 55 61 65 65 63 62 61 61 65 70 74 80 87 89 89 80 84 87 84 77 74 
74 77 75 68 63 61 65 72 78 80 77 70 68 70 69 65 66 70 71 69 67 68 74 84 91 87 
80 77 73 66 61 64 68 70 70 73 78 78 67 54 52 58 62 65 64 60 60 69 74 68 57 52 
57 63 63 62 64 66 62 57 61 72 75 69 63 66 74 70 58 54 64 73 64 49 51 67 75 69 
65 71 73 66 61 62 62 60 64 73 77 71 64 63 66 70 73 74 70 65 67 74 77 76 78 78 
78 79 67 72 74 77 81 82 77 73 70 68 67 65 66 71 80 85 82 73 69 72 71 64 59 59 
63 67 68 66 68 76 81 78 75 77 76 67 59 59 64 66 64 64 69 69 60 53 58 66 68 67 
64 59 59 64 65 57 50 53 60 63 63 66 73 75 68 60 65 76 77 67 60 66 74 71 59 54 
62 68 59 49 56 72 76 68 69 80 81 67 58 63 67 64 63 68 72 67 65 68 71 73 79 83 
78 71 76 88 91 83 76 66 65 64 65 68 67 70 81 83 76 70 73 80 84 79 71 70 79 86 
84 73 68 73 75 66 54 49 57 70 76 74 70 68 67 67 72 78 76 68 61 59 62 64 62 60 
61 63 61 64 72 75 68 64 63 59 55 55 53 50 54 64 69 65 61 66 73 73 66 62 68 76 
73 63 59 64 70 68 62 59 64 67 63 57 59 66 67 66 72 82 81 69 66 75 78 68 61 67 
70 64 63 69 70 68 75 86 84 75 76 87 93 85 72 70 67 62 73 72 64 64 75 79 73 71 
78 89 93 84 70 64 70 78 77 69 65 71 75 68 56 51 58 71 78 79 75 68 63 66 74 77 
74 70 67 67 69 72 71 65 61 61 64 72 79 73 58 52 57 60 58 57 54 54 60 68 67 59 
55 62 69 67 62 61 66 68 64 60 61 63 63 62 62 63 67 71 70 66 61 59 59 66 75 80 
79 77 81 86 82 68 63 74 80 74 70 73 69 61 67 83 89 79 73 77 81 76 66 85 82 75 
78 72 62 61 71 74 68 67 73 79 81 75 64 58 62 69 71 67 64 69 72 69 63 62 64 66 
67 71 75 72 69 72 75 73 69 67 68 70 77 84 84 74 63 59 61 68 73 65 48 42 52 62 
65 66 64 59 57 57 53 49 53 66 73 69 62 62 63 62 60 62 66 64 59 57 60 65 68 70 
70 66 62 60 62 68 73 74 78 84 87 83 74 65 66 78 85 81 78 77 70 61 66 81 88 82 
75 73 72 67 64 88 87 81 71 68 65 68 73 69 58 56 60 62 64 67 64 58 59 68 74 72 
68 69 70 69 68 70 70 62 55 60 73 78 77 75 72 66 61 61 61 66 77 88 87 76 67 61 
59 61 65 61 48 43 51 60 65 68 67 60 51 47 48 51 62 77 83 73 64 64 68 66 63 65 
68 66 61 57 59 62 63 61 58 58 62 65 68 70 67 68 77 84 79 69 64 62 65 69 73 75 
76 75 71 68 74 82 84 82 79 74 68 63 65 74 74 73 63 70 78 83 79 64 51 51 59 63 
67 72 69 60 58 69 80 79 73 71 71 69 69 73 75 67 57 59 72 79 77 72 66 59 55 56 
58 63 74 82 80 74 71 71 66 63 63 60 53 49 53 56 57 60 62 59 53 51 58 65 71 78 
77 65 56 63 74 73 67 64 65 67 67 64 60 59 57 52 49 53 62 67 69 70 65 65 73 77 
69 60 63 69 67 60 60 66 71 71 71 76 82 81 77 77 76 71 63 60 64 61 60 60 62 77 
90 93 83 65 53 57 68 72 74 76 71 58 55 68 81 82 75 72 73 73 72 76 79 74 66 66 
72 74 69 65 62 57 54 57 63 69 75 77 74 72 74 76 74 70 66 62 57 54 55 54 51 52 
57 60 57 57 65 70 67 62 55 46 44 54 68 70 62 58 61 69 74 71 63 57 54 50 51 58 
64 63 64 68 69 66 67 68 66 65 71 79 74 64 63 70 73 69 69 77 81 76 71 71 71 66 
61 60 63 59 57 56 65 79 89 90 83 68 57 61 70 70 68 70 67 56 52 65 78 78 68 64 
70 76 76 75 75 73 71 73 75 71 65 63 63 60 58 63 71 75 73 70 70 70 70 72 75 75 
71 66 61 58 58 56 50 49 54 58 57 53 55 59 53 43 37 36 39 48 57 60 57 55 61 70 
75 70 60 55 54 54 58 65 67 58 55 65 74 70 62 62 68 73 76 78 74 70 71 76 75 68 
66 74 77 70 65 68 67 63 62 66 67 65 63 59 69 78 82 81 79 68 55 56 64 63 59 63 
67 60 57 67 79 75 60 53 61 73 77 72 68 71 78 84 84 77 70 68 66 64 64 71 78 74 
64 61 66 68 65 67 74 77 74 68 63 61 61 58 52 50 53 55 52 46 45 47 45 37 34 39 
46 52 56 58 59 59 60 63 62 55 49 51 58 63 66 72 72 60 52 61 75 73 63 63 70 71 
66 62 63 67 72 76 77 72 69 73 75 68 63 65 65 62 65 73 75 73 72 67 72 75 75 74 
75 67 53 53 63 65 59 61 68 67 66 74 83 78 62 52 58 70 74 71 69 75 86 92 89 82 
77 73 67 64 66 73 78 69 56 57 68 69 64 66 73 75 71 65 59 56 57 56 54 54 55 52 
48 44 46 51 51 45 41 45 53 61 64 65 64 61 56 53 48 42 41 51 65 72 75 79 80 68 
55 59 72 74 69 68 69 62 48 44 53 64 70 75 82 82 76 74 74 69 63 64 66 63 67 78 
82 76 76 71 71 73 71 70 74 70 58 57 66 67 58 56 63 70 72 75 78 74 64 61 67 73 
72 70 73 79 85 85 78 74 74 71 64 61 61 64 67 61 54 61 73 71 62 61 66 65 62 59 
53 48 47 50 56 60 57 49 46 50 57 62 62 56 49 49 56 64 67 67 65 59 53 50 48 43 
44 55 67 71 72 77 80 69 55 56 68 73 70 69 66 52 38 41 56 66 68 72 82 85 76 69 
70 70 67 66 67 65 68 78 83 75 75 71 70 73 69 66 71 72 64 58 60 60 55 53 60 70 
71 65 59 57 58 65 77 79 71 67 71 75 77 76 68 63 66 66 61 58 56 54 56 57 59 69 
77 69 57 57 59 56 56 57 52 45 43 49 59 66 61 51 52 65 73 72 67 61 57 55 58 61 
61 59 56 55 55 57 56 52 51 56 58 56 59 69 73 63 52 57 68 72 68 67 62 49 41 47 
60 63 60 62 70 72 65 63 69 72 68 65 63 63 68 78 82 71 71 68 71 74 68 64 68 70 
63 53 50 54 59 61 66 70 66 55 49 51 54 61 75 81 72 63 63 67 73 78 71 62 63 65 
60 54 53 53 57 62 67 74 75 64 55 57 59 56 55 56 52 48 49 53 62 72 71 65 70 85 
90 81 69 63 63 64 66 63 56 49 48 51 57 62 61 56 54 54 50 47 54 68 70 59 52 61 
74 74 69 67 62 52 48 53 59 57 53 57 64 65 62 67 74 74 66 59 57 61 70 79 84 68 
67 66 76 79 71 67 72 73 63 51 51 61 70 72 69 68 64 60 59 60 58 57 65 75 74 66 
60 61 72 81 76 64 63 65 57 48 49 57 63 66 68 69 67 58 53 57 61 59 57 53 49 52 
58 60 65 77 85 85 91 102 104 93 78 70 68 72 74 69 59 51 49 52 58 62 58 51 52 
55 53 53 62 70 66 56 54 65 74 73 68 65 62 56 54 58 60 57 56 63 71 73 74 82 87 
79 64 56 57 65 75 82 84 69 67 67 83 85 75 71 77 77 65 56 60 70 75 72 66 64 65 
67 69 67 60 53 55 67 75 71 62 60 70 78 71 60 61 63 53 43 45 55 61 60 57 57 56 
53 51 52 54 56 54 46 42 48 58 62 67 79 91 97 103 110 111 105 96 86 77 75 73 68 
62 59 57 53 52 54 51 46 51 58 61 64 67 64 55 51 56 64 65 61 59 60 59 56 56 60 
63 61 62 70 81 83 84 92 96 84 65 57 61 72 80 80 76 74 71 72 87 86 73 68 72 70 
62 59 64 69 72 71 67 64 66 68 65 62 60 55 52 60 72 75 68 65 70 72 64 57 61 62 
52 42 43 51 55 53 49 50 53 54 51 46 45 47 45 35 29 36 48 58 68 80 90 97 107 
115 117 114 111 102 88 73 60 53 56 64 61 47 39 41 42 44 51 59 63 66 65 54 45 
48 59 63 58 53 55 60 61 57 55 56 59 60 63 73 85 85 82 87 94 86 70 61 64 72 78 
77 70 71 70 75 83 81 70 64 64 60 56 58 62 63 69 75 73 67 67 65 58 58 64 64 56 
57 68 75 73 69 70 68 62 59 62 60 50 43 46 54 57 55 50 51 56 59 55 48 43 43 37 
26 20 27 39 54 69 83 91 100 113 124 126 124 120 110 91 67 45 39 50 62 55 37 31 
37 42 45 52 57 57 60 61 55 47 51 60 65 61 59 64 70 69 63 57 53 51 54 60 72 84 
83 73 73 81 82 75 67 64 67 73 79 78 59 61 71 74 75 72 72 68 61 58 60 61 62 70 
78 74 66 64 63 59 60 68 69 60 56 64 71 70 69 68 66 62 61 61 55 46 44 49 59 65 
61 52 51 56 59 57 53 48 44 36 26 24 29 38 53 72 90 101 111 125 136 137 131 123 
108 87 62 42 37 47 54 45 35 39 48 49 49 53 55 53 55 61 62 57 53 56 61 65 70 74 
75 73 70 65 57 51 51 55 65 77 80 69 61 66 73 75 73 66 64 71 83 89 51 55 66 66 
68 73 79 77 69 63 62 61 64 71 71 65 60 60 60 60 64 69 69 63 59 63 64 63 64 68 
67 63 60 57 51 45 44 48 58 67 63 51 47 52 55 55 55 53 46 38 34 35 38 40 51 72 
95 112 126 139 146 142 132 119 102 82 63 49 43 44 40 33 36 51 59 54 50 55 57 
52 53 61 66 60 51 47 52 60 67 70 68 68 70 69 61 53 51 53 59 69 76 70 61 60 66 
73 74 69 67 73 82 86 59 61 66 67 65 69 73 75 71 64 59 62 70 72 62 54 56 60 59 
60 67 73 73 69 66 65 61 59 63 70 70 64 57 51 48 48 47 44 50 62 62 53 49 52 53 
53 55 54 47 40 39 41 42 44 53 72 95 116 135 149 148 136 122 110 96 81 69 59 48 
40 32 30 40 56 60 51 47 54 56 51 49 55 60 56 47 41 43 50 59 63 60 58 63 65 60 
56 58 62 64 71 77 75 69 65 67 70 71 68 68 72 73 71 71 72 71 76 71 65 62 66 67 
62 59 66 75 73 61 55 61 66 63 63 70 76 77 73 69 66 63 64 69 75 72 64 54 46 44 
50 53 46 43 52 61 60 56 54 52 52 55 55 48 42 41 42 45 54 66 80 96 116 137 149 
142 123 108 102 95 86 77 66 53 44 40 41 49 57 55 46 41 44 46 45 47 52 55 53 49 
45 43 46 57 65 59 51 56 62 62 62 70 76 74 73 75 77 75 73 71 69 65 61 62 65 63 
60 79 79 79 87 80 67 60 65 71 68 64 69 76 74 66 64 69 72 70 69 72 74 70 65 62 
63 67 75 80 78 70 63 57 49 46 52 59 54 43 43 52 59 58 53 51 53 56 55 49 46 45 
47 54 69 83 91 100 117 137 146 137 117 103 102 102 95 85 73 59 51 50 52 53 54 
50 39 29 26 30 40 52 59 58 57 57 55 49 48 61 72 61 47 53 66 69 69 76 79 72 67 
68 70 71 73 75 71 63 56 55 58 60 61 81 81 84 87 81 68 65 75 82 77 69 67 70 74 
73 71 71 71 72 74 75 71 61 53 52 59 71 82 84 75 64 63 65 60 53 56 65 63 49 38 
42 52 54 53 56 61 61 55 49 50 56 63 71 85 96 98 104 121 140 148 142 126 115 
116 118 110 96 82 69 60 54 48 44 45 41 28 13 10 22 45 65 70 66 63 63 62 55 53 
66 77 67 52 56 70 70 66 69 69 62 61 66 66 65 70 76 75 67 59 56 58 64 68 79 78 
82 82 76 67 72 83 87 80 70 65 68 75 79 76 70 66 65 69 73 69 57 49 50 60 72 82 
82 70 59 62 70 68 60 58 66 67 54 40 40 48 55 61 69 73 68 58 54 61 74 84 91 99 
105 105 112 129 147 158 160 152 143 143 145 136 121 106 92 77 61 45 37 37 35 
20 5 6 26 55 72 71 64 63 65 65 60 59 69 78 73 62 61 66 62 58 63 64 58 61 70 70 
66 70 77 78 72 67 64 65 70 75 75 73 78 80 75 72 80 88 86 79 74 72 72 75 79 79 
75 67 59 59 65 64 53 48 54 62 69 77 78 68 56 58 65 66 59 57 63 66 60 51 48 52 
58 67 76 80 74 66 65 73 87 97 104 112 117 119 128 145 163 178 187 188 184 183 
184 177 164 149 131 107 81 59 45 41 35 22 9 13 35 58 66 60 55 60 66 66 63 63 
71 77 74 66 62 59 54 55 64 67 61 62 72 74 69 69 75 79 76 72 70 69 71 76 74 74 
78 80 77 79 88 91 84 80 80 78 73 69 70 77 82 78 65 58 64 64 53 49 57 63 64 69 
73 66 56 54 57 57 54 56 61 64 64 62 61 59 58 63 70 75 74 71 71 76 86 98 111 
123 131 138 149 168 187 205 219 226 226 225 223 218 211 199 176 143 111 84 64 
51 40 27 16 17 33 49 53 49 50 59 66 65 62 65 71 73 67 59 57 58 57 59 66 69 65 
64 72 75 70 66 73 81 81 75 71 67 67 72 78 77 79 74 72 77 85 85 80 79 81 76 68 
63 64 73 85 86 74 66 72 73 61 53 59 63 61 63 66 64 58 56 55 52 52 57 64 67 66 
68 72 70 63 59 63 68 71 72 72 72 79 94 116 135 146 152 163 184 208 229 245 254 
255 251 244 238 238 232 211 177 144 114 87 66 49 32 16 13 23 36 41 42 48 56 60 
57 55 60 66 64 56 51 57 66 66 64 67 71 70 71 76 78 73 69 74 82 84 79 73 66 64 
69 81 80 76 67 66 70 73 70 68 73 76 72 67 66 69 75 83 84 75 72 78 79 67 58 61 
65 61 58 59 62 63 62 59 54 50 56 67 71 67 68 77 81 72 63 62 66 69 74 77 76 79 
93 116 142 158 164 170 188 216 243 255 255 255 255 246 241 244 244 229 204 176 
146 115 88 62 36 16 11 20 32 38 43 51 54 52 47 47 50 53 52 48 50 62 72 70 65 
68 72 75 76 79 80 77 72 73 76 79 79 76 69 67 68 79 76 71 68 69 70 68 63 62 69 
75 75 73 72 73 76 79 77 72 72 76 72 63 59 62 64 58 52 52 60 67 68 63 55 48 49 
61 72 71 68 76 82 75 66 65 67 71 80 90 91 87 90 105 135 163 174 175 186 214 
245 255 255 250 247 245 243 245 245 239 227 208 182 151 119 84 47 21 17 27 37 
41 49 59 58 49 44 43 44 45 45 46 51 62 66 63 62 67 72 75 76 76 77 78 76 73 68 
68 74 78 76 75 73 70 68 67 71 76 79 79 73 70 75 80 79 73 66 65 71 75 72 68 70 
70 64 58 60 64 62 54 46 45 56 69 71 63 54 46 44 56 73 77 72 72 72 66 63 66 70 
75 87 98 97 90 84 91 118 154 174 176 184 207 234 248 243 233 237 248 254 253 
252 253 253 244 222 193 159 115 67 33 25 32 35 35 44 58 60 53 48 49 50 52 50 
47 49 55 56 55 60 65 67 70 73 72 74 79 82 78 68 62 68 78 82 83 78 60 59 63 67 
75 82 88 85 81 80 80 76 67 57 57 66 72 69 66 68 67 62 59 61 64 62 55 46 45 55 
69 70 63 56 50 48 58 78 86 80 72 65 62 64 69 72 77 87 90 83 77 79 88 110 139 
159 168 179 195 211 221 219 213 221 242 255 255 255 255 255 255 255 233 198 
150 95 53 36 33 27 21 28 45 56 56 54 56 62 65 59 47 45 49 51 55 61 61 58 64 71 
72 73 79 84 82 72 63 66 76 80 76 71 56 54 58 63 67 77 86 87 82 76 73 69 62 54 
56 64 69 66 65 68 67 63 60 59 57 57 57 54 51 56 64 63 58 60 62 60 65 80 91 88 
79 73 73 74 72 69 71 76 71 61 63 76 90 105 124 140 155 168 178 185 191 193 192 
201 220 237 248 255 255 255 255 255 255 225 178 122 74 48 37 27 17 18 32 48 57 
57 58 65 70 60 46 42 46 49 55 59 53 48 58 70 72 71 73 77 78 73 66 67 73 70 60 
54 58 57 59 65 66 74 82 83 78 70 65 62 58 56 58 63 64 62 66 71 70 68 66 59 49 
48 56 59 55 51 52 49 51 65 77 74 67 73 83 86 86 89 93 89 75 61 59 62 56 49 53 
66 80 95 110 125 140 154 163 167 174 177 174 174 185 200 218 245 255 255 255 
255 255 244 197 142 91 59 42 29 17 13 23 40 53 56 56 61 64 56 45 43 45 45 49 
53 46 41 54 70 71 66 66 71 74 73 69 69 73 67 53 48 64 66 67 74 73 77 81 81 77 
69 61 56 54 56 63 67 63 58 64 72 72 72 73 65 50 47 56 62 56 47 42 41 51 72 87 
79 65 64 73 82 90 100 107 101 81 61 52 51 50 51 54 57 63 79 98 113 127 140 150 
158 165 166 156 148 152 165 189 226 255 255 255 255 255 255 213 155 99 60 39 
23 10 5 14 34 49 54 55 57 56 49 45 47 47 46 50 56 50 44 54 69 69 61 62 69 75 
75 70 70 76 76 65 60 69 71 77 78 77 77 75 76 77 70 59 53 52 55 65 71 64 55 59 
68 71 72 75 69 58 56 65 69 61 52 49 50 59 75 83 75 65 66 76 87 97 105 108 102 
88 72 58 49 51 59 62 57 56 69 89 105 120 134 144 149 152 148 135 127 132 147 
177 222 255 255 255 255 255 255 214 151 91 52 30 15 4 3 14 33 48 54 55 54 49 
40 40 48 54 56 63 70 61 50 55 66 65 57 58 66 71 70 66 69 80 85 80 74 65 68 77 
72 72 68 64 69 75 70 60 57 56 57 61 64 59 52 57 69 73 71 69 63 58 60 69 71 64 
61 64 65 67 69 69 66 68 76 87 98 105 108 102 94 87 81 69 55 53 61 64 60 59 67 
83 101 122 140 145 141 136 128 117 111 117 134 171 223 255 255 255 255 255 250 
198 129 69 36 22 15 12 17 27 40 50 56 58 55 47 38 38 49 58 64 73 78 67 52 54 
62 61 54 54 57 59 59 60 67 79 88 87 82 56 59 68 65 67 63 59 66 73 71 66 65 65 
62 60 58 54 53 62 72 73 65 57 50 46 50 56 59 58 61 69 71 66 60 56 58 69 82 92 
100 106 105 95 84 79 78 71 59 51 51 52 52 57 66 77 95 122 144 147 137 128 120 
110 100 98 112 154 214 255 255 255 255 255 232 177 107 49 21 14 19 27 36 42 47 
54 62 66 64 58 54 54 57 59 62 68 72 63 52 52 59 59 54 52 53 53 53 57 65 74 84 
88 83 50 53 59 65 71 70 65 68 74 75 73 73 73 72 68 63 58 59 66 69 62 52 45 41 
37 37 43 49 52 57 63 64 60 55 51 53 65 78 86 93 99 97 89 81 77 73 65 54 45 40 
38 40 49 59 67 82 111 135 141 134 126 120 112 99 86 93 133 195 244 255 255 255 
245 208 155 92 41 15 11 21 35 46 48 50 56 67 74 73 72 75 78 71 62 57 56 57 54 
52 53 58 58 55 57 60 60 59 61 63 67 77 84 81 56 57 61 69 79 81 73 69 73 76 75 
75 75 75 72 67 64 66 68 61 49 44 46 46 41 40 46 54 58 57 56 55 55 54 52 55 63 
73 79 86 92 91 88 87 87 80 66 51 43 41 37 35 41 50 57 72 98 122 132 128 121 
117 113 104 93 96 126 177 220 241 247 241 215 172 121 73 37 17 14 23 36 44 46 
47 52 62 70 70 71 80 85 79 67 58 50 46 47 50 53 56 57 58 65 74 74 70 67 63 61 
69 79 77 65 65 65 67 80 85 74 65 67 71 72 73 74 71 66 61 62 67 68 58 49 51 58 
58 51 49 57 65 65 60 54 50 50 53 57 61 65 68 71 78 84 85 86 92 98 91 70 51 46 
47 43 35 37 45 54 71 97 120 129 124 115 112 114 114 110 111 130 163 194 214 
220 211 182 136 88 52 29 18 16 23 31 35 37 41 46 53 59 60 63 71 76 74 71 68 57 
47 47 49 50 52 56 60 70 81 82 76 70 63 57 63 75 77 67 67 63 63 75 80 71 64 66 
68 70 74 78 72 63 59 61 66 67 62 57 59 63 59 52 53 62 70 70 64 57 51 48 50 57 
61 59 59 64 72 77 78 82 91 99 93 70 50 47 51 46 36 35 43 55 73 99 120 127 123 
116 113 114 115 115 117 129 150 171 186 193 186 161 119 76 44 26 16 13 16 20 
25 31 39 46 50 52 56 61 64 63 63 73 79 71 57 52 52 49 49 54 58 65 76 79 74 69 
63 57 62 75 81 68 67 61 65 71 74 70 69 73 74 72 75 81 80 74 71 69 66 64 64 64 
61 57 52 51 58 70 80 81 74 66 57 49 45 48 48 43 47 60 73 78 78 83 90 92 85 66 
50 48 51 45 35 31 36 47 64 88 109 120 122 121 118 113 108 107 112 125 141 154 
163 167 163 144 112 76 47 26 12 5 6 15 24 33 44 51 51 49 53 59 57 49 53 71 83 
76 63 60 58 54 51 52 52 57 68 73 71 67 64 62 69 81 85 77 75 67 67 68 69 68 72 
79 79 72 72 79 83 84 84 80 67 59 62 65 61 53 49 54 68 83 95 97 86 72 62 52 42 
37 32 28 38 60 76 80 82 87 90 88 77 63 55 54 51 43 32 23 23 29 45 71 95 110 
118 121 119 111 105 106 117 134 149 157 158 154 145 129 103 72 45 25 9 0 4 19 
34 42 50 55 51 45 49 55 49 37 43 65 78 72 63 63 63 59 56 54 52 57 67 70 67 66 
67 70 77 84 81 82 80 72 65 67 68 66 70 78 78 72 70 76 80 82 84 79 66 56 57 61 
61 56 54 59 69 83 96 99 85 70 63 56 44 34 26 23 33 53 69 74 79 85 89 85 76 67 
63 60 52 40 29 20 14 15 31 62 90 106 115 120 118 112 111 121 140 162 178 183 
180 168 153 134 107 72 43 24 12 4 9 26 40 43 46 51 48 43 49 56 49 36 41 61 72 
67 61 62 62 61 63 63 62 64 67 63 59 62 68 72 77 79 72 73 72 67 64 70 70 66 69 
78 83 78 75 78 79 77 76 73 66 59 55 55 57 57 55 52 53 64 79 82 71 61 61 58 48 
38 29 24 29 43 54 62 70 78 83 85 81 74 70 67 57 43 34 30 23 18 31 65 98 116 
126 134 132 124 124 139 163 188 208 217 215 202 184 163 129 85 49 31 23 16 17 
28 36 35 36 43 46 46 54 62 59 47 47 61 69 65 60 58 56 59 69 73 70 68 63 54 54 
62 67 65 67 69 62 62 61 59 67 75 74 67 69 81 89 84 78 80 81 75 71 71 72 70 65 
61 62 64 58 47 40 48 63 67 58 53 56 54 47 41 35 30 32 40 50 59 69 75 79 84 85 
80 77 77 70 58 50 49 45 38 47 81 120 144 158 168 166 153 146 156 178 203 225 
239 239 227 210 187 148 98 59 41 34 27 23 24 26 27 31 39 45 50 58 66 66 58 55 
60 67 66 62 56 52 59 72 77 71 65 59 54 58 69 69 60 58 62 59 63 60 60 68 75 74 
67 69 79 83 75 68 73 79 75 70 72 80 85 82 78 78 78 70 55 44 48 59 61 53 50 51 
46 41 42 44 45 46 50 55 64 72 75 75 80 84 83 85 90 87 74 64 63 62 60 73 111 
154 182 199 209 206 192 182 187 201 216 232 245 246 236 221 196 153 103 66 46 
35 28 23 19 22 32 40 42 43 50 60 67 68 63 57 57 63 69 69 64 58 64 76 78 70 66 
66 66 68 76 74 64 60 62 62 72 69 64 66 69 69 69 72 75 71 60 55 62 70 72 71 75 
85 91 89 83 82 83 77 63 53 53 59 60 56 55 53 46 41 45 52 57 59 57 56 59 66 68 
69 74 79 83 91 99 94 79 67 66 69 77 100 142 186 215 230 238 236 227 223 226 
230 232 238 245 247 241 228 199 153 107 71 45 27 20 20 21 30 47 55 47 38 45 59 
68 69 65 58 56 61 70 76 73 68 71 80 79 72 73 79 76 70 71 75 74 69 64 64 81 78 
68 66 63 64 70 78 79 70 59 55 57 61 67 74 81 85 84 77 68 66 68 68 61 55 55 61 
65 65 63 59 52 46 46 50 55 58 55 48 45 47 53 59 67 76 87 99 103 94 82 75 73 79 
95 126 165 202 230 246 252 251 248 250 254 251 246 245 247 244 240 228 198 153 
112 76 41 16 12 20 28 42 60 63 47 34 41 58 70 71 67 61 59 62 67 72 72 68 71 77 
74 71 76 82 77 63 59 70 82 79 66 62 87 85 74 71 63 60 68 81 85 79 71 66 60 56 
62 76 83 79 71 62 55 51 53 57 56 53 55 63 72 72 65 55 50 47 44 41 42 46 48 43 
35 32 37 48 59 72 90 105 106 97 95 98 96 100 120 149 175 200 227 248 255 252 
250 254 255 250 245 244 239 229 221 212 186 146 110 76 39 12 10 22 32 43 57 60 
49 41 49 64 74 73 67 63 63 62 61 62 62 60 63 64 61 61 70 76 72 60 57 68 81 80 
66 58 87 86 80 75 67 64 71 81 86 82 74 65 56 51 59 73 76 67 61 62 63 59 56 57 
56 52 51 59 67 68 57 43 40 43 45 42 37 38 44 46 35 25 27 37 48 63 85 103 106 
104 115 125 121 121 141 165 178 192 219 242 248 244 241 243 240 231 226 226 
216 197 187 183 163 125 92 65 38 19 18 27 32 34 42 50 52 55 63 72 75 70 63 61 
63 64 62 61 59 55 54 53 52 55 62 69 71 65 60 63 72 73 62 52 81 84 83 76 73 74 
78 82 81 72 60 50 44 45 55 64 64 58 60 71 77 72 63 59 56 51 48 50 54 57 51 39 
36 44 52 52 45 39 42 43 32 21 23 33 40 52 74 92 99 107 125 138 133 131 147 169 
181 197 221 236 235 228 224 223 218 206 199 196 182 160 152 154 136 95 60 44 
35 28 28 32 33 29 32 42 55 64 68 67 65 62 57 55 60 66 70 70 65 56 51 52 55 58 
62 67 74 73 63 56 58 62 57 51 77 81 82 73 72 76 79 79 74 63 50 41 40 45 53 58 
57 55 60 71 74 67 56 52 53 53 52 49 51 57 57 50 44 50 59 59 50 41 37 31 21 17 
25 36 41 49 65 82 92 102 121 137 138 137 150 168 185 208 230 233 219 205 199 
193 187 180 173 165 146 125 120 125 108 68 36 29 35 36 32 33 35 34 33 41 55 62 
58 53 54 58 55 50 52 62 71 74 67 57 53 57 63 65 64 67 76 77 66 54 53 56 57 58 
76 79 78 68 65 64 66 67 68 65 57 50 50 53 57 59 59 58 60 63 62 54 46 45 50 56 
59 56 57 65 69 61 51 52 58 56 45 35 29 23 19 22 32 42 46 53 66 81 91 101 118 
136 146 152 161 173 189 210 226 221 200 181 166 151 144 144 142 129 108 90 88 
93 80 50 27 28 39 42 36 34 40 44 41 42 49 52 47 45 54 63 60 50 46 53 63 66 62 
57 57 61 66 65 62 66 75 77 68 59 57 58 60 64 73 75 73 66 61 54 50 54 64 71 70 
64 61 62 63 63 63 62 61 60 58 55 52 52 55 58 59 57 59 69 73 61 47 48 55 51 39 
30 27 29 32 39 50 59 61 64 73 87 99 110 126 143 155 164 172 179 186 197 206 
200 183 162 137 111 98 100 99 86 68 59 61 62 52 35 25 31 43 48 44 42 47 52 47 
40 40 42 43 48 59 67 64 54 49 53 59 61 60 60 60 62 63 60 57 65 77 80 73 67 65 
64 64 66 69 69 68 66 64 55 46 49 63 75 76 70 65 64 62 58 58 61 63 63 62 64 68 
69 67 64 59 51 50 60 64 51 38 41 51 50 36 26 29 41 53 66 82 93 92 87 90 101 
113 122 132 142 150 159 173 183 185 187 192 191 179 159 128 95 77 73 68 57 48 
48 49 43 33 24 22 32 44 52 53 52 54 54 49 41 37 37 42 51 58 61 61 61 63 65 66 
64 61 60 61 61 61 57 56 67 86 90 80 73 73 74 74 72 68 65 64 61 64 60 53 53 64 
75 78 72 65 61 57 50 48 55 64 66 63 65 72 77 75 73 65 48 37 43 49 42 30 33 43 
45 33 23 29 48 69 91 118 138 137 126 122 125 128 127 127 130 132 142 163 183 
190 195 203 202 190 167 137 107 88 80 70 57 55 58 52 39 30 27 30 36 45 52 56 
57 56 55 52 47 41 36 38 45 51 54 61 71 77 74 67 60 56 55 58 62 62 59 59 73 91 
94 82 75 79 84 85 83 67 63 58 54 60 64 62 60 65 74 79 76 69 64 59 52 49 57 67 
67 60 58 62 67 72 77 71 48 29 31 41 39 30 27 32 35 30 25 36 60 86 113 146 173 
180 173 165 157 144 129 120 120 122 132 154 179 195 208 222 221 204 179 153 
129 112 99 84 72 72 70 58 43 38 41 42 44 46 48 52 56 58 58 58 56 48 37 31 37 
47 56 68 79 80 71 59 51 48 52 59 66 67 63 65 76 86 83 73 72 80 85 85 83 62 58 
52 52 58 65 68 66 66 71 77 77 73 70 69 65 61 65 70 67 59 54 53 55 62 72 70 48 
30 31 41 40 32 26 25 29 33 39 58 86 112 138 170 199 212 213 207 189 160 135 
123 123 129 138 154 175 195 211 225 227 211 191 172 151 129 107 89 79 80 75 59 
47 46 48 45 44 45 47 50 56 61 62 62 62 55 41 32 37 52 64 73 79 77 67 57 51 49 
54 63 70 71 69 70 74 76 70 66 72 80 80 74 70 58 56 51 54 56 64 69 68 66 69 73 
73 71 72 75 71 65 65 68 64 58 54 50 47 51 61 60 45 32 33 37 33 26 25 29 38 49 
64 85 112 140 168 198 222 233 239 236 213 176 145 128 127 137 147 158 176 197 
210 214 215 208 200 192 173 142 110 88 81 85 80 62 51 51 47 38 38 48 55 56 59 
64 66 65 65 62 52 44 49 63 71 73 74 75 75 72 67 62 62 66 70 73 73 73 70 67 64 
67 76 80 75 68 63 60 59 56 56 55 58 62 63 62 64 68 67 66 68 69 63 57 59 64 62 
56 54 51 44 42 47 49 39 30 29 28 25 26 35 47 59 71 84 102 127 157 192 224 242 
248 252 250 226 186 150 128 123 132 144 156 179 206 216 212 206 201 200 202 
189 158 122 96 89 93 88 69 55 52 44 34 36 52 62 61 60 67 72 69 67 68 64 58 60 
70 72 68 68 74 82 85 82 78 72 66 65 69 73 72 69 66 64 67 74 76 74 72 69 65 64 
60 55 54 55 54 52 54 59 63 63 62 64 63 58 53 58 66 65 57 55 53 46 40 41 41 33 
26 26 30 36 47 65 81 91 97 102 112 132 164 202 235 251 254 255 249 222 183 147 
124 118 124 134 150 179 210 222 216 206 199 198 200 192 167 134 109 99 98 89 
69 53 48 44 38 42 54 60 57 59 71 77 70 65 69 70 63 59 64 66 63 63 71 78 82 86 
91 85 70 59 62 69 70 71 70 64 60 63 68 73 79 80 67 65 59 48 52 56 53 49 52 57 
61 63 65 68 69 65 58 60 67 66 58 57 60 57 49 45 40 31 26 34 49 66 87 111 128 
135 133 129 128 138 162 196 226 243 247 247 236 209 174 144 124 117 121 127 
143 172 201 213 211 205 200 195 191 181 159 132 110 97 89 77 60 48 44 42 45 51 
54 50 47 57 73 76 63 54 62 69 61 52 54 59 60 62 68 72 73 82 96 96 78 61 60 65 
66 68 68 59 50 54 63 71 82 88 68 66 54 42 49 60 59 55 57 62 64 69 74 77 80 75 
65 59 61 62 59 62 70 72 65 57 47 34 33 49 75 100 126 154 178 188 184 169 153 
145 154 177 202 217 223 224 216 195 167 140 119 112 115 122 135 160 184 193 
193 194 193 185 172 155 134 113 96 84 73 62 51 46 42 40 45 53 52 41 39 53 68 
67 52 46 56 64 57 48 52 61 65 65 69 73 75 80 90 92 78 66 65 64 57 54 55 49 44 
51 61 67 77 88 72 69 52 48 54 65 64 61 64 68 69 73 79 82 83 79 69 60 59 62 63 
67 75 79 76 67 55 42 44 66 97 127 156 189 221 238 234 209 176 151 144 156 174 
184 189 193 193 183 164 135 108 98 104 112 124 143 164 173 172 172 172 163 147 
126 107 92 81 72 63 55 53 52 46 38 41 50 51 41 37 47 59 60 50 47 54 58 52 49 
58 70 71 67 71 79 81 78 77 74 68 65 67 61 51 47 48 47 46 50 54 58 66 79 79 76 
59 64 69 73 68 65 69 71 70 71 75 79 81 80 74 68 67 68 66 64 67 71 70 63 53 45 
51 77 113 149 184 221 255 255 255 238 195 157 137 137 148 154 155 160 166 167 
158 134 104 89 93 100 107 122 143 155 152 145 141 135 121 105 90 79 71 64 59 
58 60 59 50 38 37 48 55 50 43 43 50 55 53 51 51 49 44 48 64 76 72 63 67 79 83 
77 70 62 58 60 65 63 59 61 64 61 55 50 48 49 56 70 86 83 71 75 79 78 72 70 72 
72 69 68 71 76 80 81 80 77 74 67 59 54 56 59 56 48 41 39 51 79 121 169 215 254 
255 255 255 255 211 165 132 116 115 118 120 126 134 140 141 128 102 86 87 90 
92 104 123 135 131 119 111 105 97 86 78 69 60 53 52 57 61 59 50 41 40 50 60 58 
46 38 41 49 52 49 45 41 38 45 64 77 71 61 64 76 82 80 74 66 60 60 65 70 72 78 
82 78 68 59 55 53 57 69 87 85 77 74 78 76 71 70 70 69 69 72 76 77 77 78 79 78 
71 59 50 49 56 59 52 40 33 35 49 79 126 183 236 255 255 255 255 255 220 170 
125 94 77 72 76 87 95 100 104 102 89 80 83 85 86 94 108 117 113 99 88 79 71 64 
60 54 44 37 39 49 56 55 50 47 49 56 62 58 43 32 36 46 50 46 43 42 41 47 62 73 
68 61 65 73 78 80 81 75 67 65 70 75 78 79 82 81 77 73 70 66 64 71 81 78 72 71 
73 68 63 62 61 62 69 79 83 77 68 66 73 77 69 56 49 54 66 69 61 48 39 39 50 77 
122 179 230 255 255 255 255 255 221 170 120 79 48 33 35 48 58 62 66 70 70 73 
79 84 85 88 97 101 94 81 70 62 52 46 46 44 36 30 32 43 54 58 56 55 59 64 65 57 
42 32 39 51 55 52 53 58 58 57 59 62 59 59 65 71 75 80 82 75 66 65 73 81 83 78 
75 76 78 78 76 71 68 69 74 71 68 71 69 62 56 55 55 57 66 78 82 72 58 55 66 75 
71 60 56 62 71 73 68 57 46 41 46 68 108 158 202 235 255 255 255 248 212 165 
117 72 35 14 15 27 38 43 49 56 63 70 77 81 79 80 86 90 81 65 56 52 45 40 43 46 
43 39 40 48 61 68 65 61 65 70 68 59 47 40 45 56 61 60 64 72 74 67 57 51 51 58 
67 72 75 80 81 71 62 64 77 91 96 89 76 71 71 69 65 66 69 69 73 71 68 71 67 60 
58 60 60 59 63 70 73 67 56 54 62 69 66 61 64 69 70 69 67 60 46 35 35 51 85 129 
168 201 226 240 237 220 189 149 105 63 29 11 12 23 33 39 45 53 59 63 67 69 68 
69 80 88 78 59 51 49 43 38 43 51 53 50 49 57 70 76 72 66 68 71 66 57 48 44 48 
58 64 63 63 68 71 65 55 49 54 65 72 73 72 78 79 71 63 68 82 98 106 97 79 67 64 
59 55 63 75 74 73 71 70 72 69 63 66 69 65 60 60 64 68 67 62 59 59 59 55 56 67 
76 73 68 69 63 46 30 25 35 61 97 133 166 192 203 198 179 151 115 78 44 20 12 
19 30 37 37 37 41 47 50 53 56 56 61 77 90 82 63 53 49 40 33 41 52 56 51 49 58 
71 77 76 73 73 69 60 50 43 42 49 60 65 60 54 54 58 58 54 55 63 72 75 70 67 71 
75 72 69 73 82 93 99 91 74 64 63 60 57 65 77 75 68 66 68 73 71 69 74 75 65 57 
59 65 68 66 63 61 59 54 49 51 66 78 76 72 73 69 52 34 28 32 46 67 95 127 155 
164 156 137 109 75 46 26 16 18 31 45 48 37 24 24 34 42 47 52 52 56 72 84 79 63 
55 52 42 36 44 55 56 50 48 56 64 70 75 77 75 65 54 44 38 39 50 63 67 60 53 53 
57 59 60 61 65 69 71 68 63 63 66 66 67 69 73 81 86 80 69 67 70 66 62 66 71 67 
64 63 67 76 73 72 78 77 66 58 61 69 69 62 56 57 60 58 52 52 61 70 70 67 69 68 
56 44 40 40 42 48 63 90 117 127 119 101 75 47 29 25 27 32 45 60 61 42 20 16 27 
40 48 53 53 56 66 71 64 53 53 55 52 47 50 58 60 58 59 61 60 59 66 72 65 53 47 
45 42 42 51 62 64 59 58 62 65 68 70 68 63 63 69 71 65 57 54 55 58 59 63 72 81 
79 73 73 72 66 62 65 66 62 69 68 72 83 76 72 77 77 68 62 66 72 70 59 53 57 64 
64 60 57 58 59 58 58 62 64 59 53 50 47 44 41 45 63 84 93 87 73 56 39 30 36 45 
48 51 60 64 51 32 22 25 33 44 52 55 58 64 62 51 44 51 60 60 51 46 52 62 71 79 
78 66 54 55 59 51 40 43 51 53 52 56 59 57 56 61 65 64 67 74 74 66 64 72 77 71 
56 48 49 53 53 56 67 78 81 78 76 69 62 63 69 69 65 77 76 80 86 79 72 73 74 69 
65 69 73 70 59 54 60 68 69 66 62 59 56 54 57 64 69 68 63 58 53 46 39 37 47 61 
67 63 55 49 42 38 45 55 56 50 51 57 58 50 39 30 28 38 50 56 58 63 62 50 44 55 
67 64 49 37 44 63 80 92 93 77 56 48 50 46 42 49 59 62 61 62 58 53 55 63 64 59 
61 71 75 71 70 75 80 75 62 53 54 57 54 53 60 70 76 79 77 70 67 72 78 76 69 75 
74 80 77 75 69 70 73 72 70 72 73 67 57 54 60 68 68 66 64 62 59 59 63 72 79 81 
76 68 59 50 41 37 44 54 56 51 47 46 42 38 44 55 57 49 46 53 62 65 58 46 40 46 
55 56 55 59 60 51 48 58 70 66 51 43 53 70 80 86 86 75 58 48 46 48 52 59 62 62 
64 66 60 54 57 65 66 62 64 69 70 69 71 76 79 77 69 61 60 60 57 55 58 65 73 79 
78 75 78 84 84 78 71 62 60 65 67 68 65 70 78 79 77 76 73 65 54 53 62 67 65 61 
64 67 66 65 68 75 83 87 85 77 68 59 47 42 47 55 55 49 45 45 41 36 42 55 60 55 
51 53 61 69 71 65 61 62 63 56 52 55 56 50 46 54 66 66 59 58 69 78 75 67 62 58 
53 47 44 46 54 60 60 60 67 72 65 58 59 63 66 71 76 72 62 60 65 70 74 77 73 65 
60 59 60 63 67 73 79 81 79 80 87 91 84 76 73 55 52 56 70 68 65 73 84 84 77 75 
77 71 61 60 70 75 67 59 63 71 72 69 67 70 74 79 82 79 75 68 56 49 50 55 55 50 
47 47 46 42 46 60 69 69 64 61 63 70 76 74 70 69 67 60 56 57 58 51 46 51 61 64 
61 62 71 76 67 54 47 47 50 48 44 45 53 59 59 62 72 75 68 62 61 59 60 70 79 72 
58 55 60 64 69 75 75 70 65 64 67 71 75 79 81 78 76 82 89 88 79 74 76 63 62 66 
79 74 72 81 89 85 73 70 79 80 71 69 79 83 71 58 61 70 71 67 65 64 62 64 68 71 
73 73 67 60 56 57 57 52 49 53 57 55 57 68 79 84 84 79 73 73 74 69 61 60 61 60 
58 59 59 54 50 55 63 63 57 52 56 61 58 52 53 58 61 58 51 49 55 59 58 61 70 71 
65 64 64 56 52 63 73 70 62 63 66 67 70 74 76 75 74 73 72 69 68 72 74 72 76 85 
87 77 68 72 81 73 75 80 78 75 78 85 89 85 76 71 76 81 75 71 78 80 67 56 59 66 
66 63 66 66 59 54 55 58 63 69 72 67 62 62 64 57 49 53 65 67 64 70 81 90 93 89 
79 72 68 58 46 44 49 50 50 53 54 50 49 57 65 63 54 45 43 46 49 56 68 77 77 71 
60 55 58 60 58 60 65 65 63 67 68 58 52 61 73 73 71 73 76 77 77 75 74 74 73 71 
67 62 60 65 70 74 82 89 81 64 59 70 85 75 76 79 69 68 71 77 83 86 83 74 71 72 
70 70 73 71 61 54 58 65 65 65 71 73 65 55 50 49 53 61 67 64 58 63 72 67 51 50 
65 70 65 65 72 78 81 79 71 62 57 50 40 39 44 45 45 49 50 42 40 50 59 58 53 50 
46 44 46 57 74 83 81 75 67 60 59 62 64 67 68 67 67 73 74 66 62 71 81 79 73 71 
74 81 83 78 72 68 64 63 64 63 62 67 73 79 86 89 77 61 59 71 84 72 71 71 69 66 
64 66 74 85 87 76 67 67 71 73 74 70 62 57 60 65 68 70 74 75 69 59 52 49 50 55 
59 56 51 57 70 71 59 57 67 68 60 58 61 61 60 60 57 51 49 47 44 47 52 53 53 57 
53 37 32 43 52 49 49 54 54 50 48 56 69 74 71 71 70 63 58 61 68 72 71 71 74 79 
79 74 74 81 88 83 69 58 61 75 83 78 71 67 62 63 68 69 67 70 76 81 85 86 79 71 
70 76 80 70 69 70 79 73 67 67 75 86 88 78 70 74 80 81 78 75 70 64 63 66 70 70 
69 69 66 60 55 53 54 56 59 59 54 55 64 71 71 72 74 68 58 56 59 57 53 52 51 48 
48 50 54 60 64 62 62 65 58 37 31 44 51 44 43 53 57 53 51 57 64 65 63 66 70 67 
58 57 62 66 65 67 73 76 77 78 81 84 87 82 67 54 56 71 78 71 67 70 70 70 73 72 
66 69 78 83 83 82 80 81 82 82 78 70 70 76 86 80 75 77 83 88 86 78 75 82 89 85 
79 79 80 76 70 70 71 67 63 62 62 60 57 57 57 58 63 68 66 60 62 70 79 83 79 68 
57 58 62 62 56 52 50 52 55 60 65 69 68 62 62 67 60 43 38 49 53 47 48 56 59 56 
57 63 66 66 63 62 66 68 63 58 58 59 58 62 66 67 70 78 84 81 77 75 69 63 65 73 
72 61 60 71 78 75 72 69 65 70 82 87 82 75 74 80 86 84 78 70 71 81 81 77 77 81 
84 83 80 72 70 80 87 80 72 74 82 83 77 75 74 68 64 63 62 58 56 56 53 52 59 67 
67 61 60 68 77 80 75 63 54 56 64 66 59 50 47 52 60 66 68 69 64 57 57 64 64 54 
49 53 56 57 61 65 60 58 66 73 73 70 64 59 61 67 69 67 65 61 60 63 66 65 69 79 
84 78 69 66 68 71 74 74 65 52 53 70 81 76 70 70 71 77 84 83 75 67 68 77 86 85 
77 70 71 79 71 70 74 79 78 75 73 67 64 72 78 71 61 61 71 76 75 74 73 71 69 69 
64 57 53 50 45 44 52 59 57 55 58 64 69 70 68 58 51 56 66 69 60 47 42 47 56 60 
61 62 60 56 56 61 66 63 60 61 64 69 70 65 55 56 69 78 78 74 67 60 59 65 70 71 
68 64 62 68 72 72 73 78 81 76 68 63 66 74 76 71 61 52 56 71 81 77 73 77 82 85 
83 73 64 63 70 79 87 84 73 69 70 73 70 70 75 78 75 73 73 70 67 70 74 69 57 54 
61 69 71 72 73 71 71 72 68 60 56 53 47 47 57 60 54 54 61 64 64 68 71 63 55 60 
71 73 64 51 45 46 51 54 55 58 61 62 62 61 64 68 71 74 77 76 69 59 49 54 68 76 
77 77 72 65 62 63 64 65 63 59 59 68 78 77 73 72 74 72 67 64 68 74 75 70 66 62 
64 73 78 77 77 84 90 89 79 67 62 66 73 78 83 82 72 66 67 71 80 78 77 77 77 76 
75 72 70 71 74 72 66 61 65 73 76 76 76 72 69 72 73 67 63 64 63 64 70 69 60 59 
67 67 65 72 78 67 56 62 74 75 67 60 55 53 55 57 60 63 66 70 71 65 63 69 79 85 
85 77 64 56 54 60 67 70 73 76 74 68 64 62 62 64 64 60 60 71 80 77 69 66 67 66 
65 67 73 76 73 72 74 72 69 71 74 73 75 81 83 82 76 72 71 72 70 68 74 79 76 63 
68 79 89 81 74 76 79 75 68 63 63 65 69 72 71 69 72 78 81 81 79 74 70 74 76 70 
67 73 78 77 73 68 61 61 68 67 63 69 73 61 50 60 73 74 68 65 62 58 58 63 69 71 
69 73 76 71 65 70 79 84 82 72 62 60 64 68 68 66 68 71 68 62 60 61 65 72 75 71 
71 79 84 79 72 71 71 67 65 70 77 77 71 71 74 71 66 68 72 70 68 67 67 67 72 79 
82 77 67 61 69 79 80 65 72 86 83 75 72 78 82 73 60 54 55 59 62 65 66 66 71 76 
77 77 78 75 72 76 78 69 64 70 74 69 62 58 57 60 65 64 60 63 63 54 52 64 74 71 
67 66 62 54 51 58 69 73 69 71 76 74 67 70 76 75 71 66 63 63 67 69 69 70 71 68 
63 59 60 63 69 77 83 81 79 83 87 85 84 87 83 74 69 73 79 76 68 65 67 63 60 67 
75 72 64 60 58 60 69 81 86 80 69 63 69 78 76 68 71 81 69 69 76 86 88 75 60 56 
59 61 62 63 63 64 69 73 71 71 75 75 72 76 79 71 63 62 61 55 54 59 62 64 65 64 
62 62 61 58 62 72 72 64 61 62 58 50 47 53 64 69 67 67 70 68 64 67 71 70 67 66 
67 70 69 67 70 78 79 70 63 64 70 73 71 73 78 79 77 78 81 83 88 94 88 75 68 70 
75 73 66 63 65 61 58 66 77 74 66 65 67 68 74 82 83 78 71 66 69 73 66 64 63 65 
62 69 80 91 90 78 67 65 66 64 64 67 68 69 73 74 68 69 77 76 70 74 80 76 67 63 
58 56 63 73 74 69 67 68 68 68 66 64 67 71 65 55 55 60 61 58 54 57 62 65 64 63 
64 62 61 65 70 72 71 72 77 82 80 75 76 84 83 71 63 72 83 82 70 63 67 75 78 76 
73 72 78 84 82 72 66 67 72 74 70 68 67 62 58 64 73 72 66 70 79 81 80 79 76 75 
72 68 67 69 62 63 61 59 65 68 77 85 84 78 74 74 70 63 62 67 72 74 76 75 70 73 
81 81 72 71 78 78 73 70 69 72 80 84 77 67 66 71 76 75 71 67 67 67 60 54 57 65 
71 73 68 63 62 62 62 62 63 65 66 70 74 76 76 77 83 91 90 81 79 86 85 72 66 75 
84 79 65 58 65 77 83 81 73 66 66 72 76 75 71 71 76 81 79 71 63 59 60 68 75 72 
65 69 80 82 75 70 68 71 75 75 71 69 67 71 71 68 67 65 71 78 78 77 80 81 76 67 
64 66 68 70 73 75 72 76 84 85 76 70 71 72 71 73 79 85 89 83 71 62 65 75 82 83 
77 70 66 65 63 62 66 72 78 79 73 64 59 60 63 65 69 73 75 75 75 75 74 73 78 87 
87 78 78 87 90 80 72 73 74 67 60 62 71 81 84 80 72 64 63 69 75 77 75 75 80 85 
81 68 58 56 64 76 83 77 67 66 74 75 67 63 64 70 79 85 83 75 72 73 74 73 63 61 
69 79 81 77 80 86 86 81 76 71 67 67 71 75 75 76 82 87 80 69 64 65 66 71 78 84 
86 79 68 63 66 74 83 86 80 71 65 63 65 68 72 75 76 74 68 61 59 63 66 67 70 73 
74 72 69 69 69 68 71 78 77 72 76 89 94 87 76 69 63 59 61 69 78 80 76 69 66 67 
69 70 71 71 69 70 76 82 81 73 65 64 69 76 80 75 66 67 73 75 71 68 67 69 78 89 
90 81 75 64 65 66 61 62 72 82 80 73 75 84 89 87 81 74 69 69 73 77 77 75 77 82 
80 69 63 66 70 71 73 76 80 79 75 69 65 65 72 79 76 67 61 60 63 68 71 73 74 71 
66 62 64 67 65 62 62 64 64 61 59 61 66 69 73 77 74 70 74 86 91 85 73 64 61 62 
67 74 80 76 65 59 65 75 78 72 66 62 61 62 69 78 84 85 82 78 73 70 70 68 66 71 
81 85 84 81 73 67 70 79 84 80 73 59 61 63 69 68 73 79 73 66 72 82 84 78 73 72 
71 70 72 77 79 75 71 74 75 68 64 69 75 76 72 70 74 79 81 75 64 55 57 64 67 63 
62 63 65 66 67 70 76 78 74 71 73 73 65 59 59 62 61 55 51 54 64 72 77 79 77 73 
73 78 84 82 70 60 61 67 73 77 79 71 59 56 69 84 85 76 69 66 62 61 66 76 85 88 
86 81 73 68 68 69 70 77 88 94 94 89 79 70 67 71 76 77 72 67 67 70 78 75 74 74 
68 65 74 84 80 69 66 71 72 66 64 72 79 75 67 67 70 66 61 64 71 73 69 65 67 72 
76 74 65 55 52 57 63 65 66 68 69 65 62 65 77 87 86 80 78 78 72 66 68 72 70 60 
49 50 62 73 75 76 78 77 72 72 80 84 71 57 56 66 74 79 80 71 57 55 68 81 83 79 
77 74 70 68 71 77 80 77 74 72 70 71 77 78 75 77 85 90 90 86 80 75 70 70 74 76 
72 72 72 76 80 79 77 75 71 68 74 83 79 69 68 76 78 67 59 67 76 72 63 62 65 62 
55 54 62 68 67 63 61 63 67 71 70 64 61 62 65 64 63 64 66 65 61 63 75 89 90 81 
76 78 76 71 72 78 76 63 50 50 62 71 71 71 75 76 70 69 80 86 73 54 51 61 71 77 
80 72 58 54 62 71 76 79 79 76 74 77 81 81 76 70 67 66 66 72 81 82 75 72 74 78 
80 78 74 71 68 68 73 75 70 72 71 75 77 78 79 78 74 67 65 73 77 74 73 80 81 72 
64 68 74 67 59 60 64 61 54 53 61 69 69 66 65 67 67 69 71 71 69 67 65 60 54 54 
61 68 67 64 70 82 83 75 70 72 70 64 65 72 73 63 53 53 60 66 67 69 72 69 63 65 
78 83 71 56 56 64 71 75 76 70 61 58 62 67 73 78 78 73 74 83 90 85 75 70 71 71 
69 74 81 80 72 65 62 64 70 72 67 61 61 65 70 71 69 76 74 73 73 75 74 75 76 71 
63 64 73 77 76 74 72 69 71 76 74 64 57 62 67 66 61 60 68 75 72 68 71 76 73 69 
69 71 69 64 62 62 59 58 64 71 72 65 62 70 74 71 68 68 63 58 61 69 72 67 62 60 
60 61 64 67 68 61 54 60 74 80 73 66 68 75 77 76 70 64 60 63 68 72 76 79 77 72 
74 84 90 83 73 70 73 73 72 77 83 79 69 62 56 54 64 73 69 61 63 70 71 67 66 76 
75 72 
