P2
112 112
255
64 60 52 57 66 74 71 66 59 64 67 65 67 64 58 57 61 64 64 66 66 66 68 71 72 73 
74 74 74 75 76 77 82 82 76 69 68 72 75 74 68 62 61 63 69 74 73 67 68 76 81 79 
75 74 75 75 76 76 73 68 67 69 69 66 66 66 65 65 69 63 61 68 72 65 59 57 59 63 
68 69 69 68 66 63 64 68 70 70 67 63 60 60 64 66 64 65 69 71 69 67 66 63 61 63 
65 61 55 56 62 71 74 72 64 68 58 60 68 72 67 69 64 66 65 67 67 62 59 62 67 68 
67 65 62 61 64 67 68 67 67 68 70 74 77 80 82 79 72 68 68 71 75 75 68 62 60 63 
70 76 76 71 69 71 75 75 75 76 73 69 72 76 76 70 69 71 70 65 65 71 69 61 61 66 
65 65 69 72 68 67 69 74 71 71 70 68 68 66 67 70 69 64 65 66 64 63 66 68 65 66 
71 73 69 64 60 58 59 66 68 65 61 63 69 71 72 70 63 73 65 61 66 67 64 68 65 61 
64 69 65 61 62 68 72 72 70 65 59 58 65 70 68 64 62 65 70 75 76 75 75 74 72 70 
70 73 77 78 73 67 67 70 72 74 74 72 66 62 62 62 65 69 72 73 72 73 74 72 71 75 
74 68 69 78 78 72 67 66 64 62 65 65 63 62 66 70 70 63 58 57 60 64 66 63 61 64 
62 59 55 55 62 74 69 67 73 78 75 66 60 58 63 69 70 63 60 68 75 76 72 66 65 73 
66 61 65 62 63 66 65 60 65 69 66 63 66 71 73 72 71 67 60 60 67 73 70 65 63 66 
72 76 75 71 70 71 73 74 75 77 80 79 74 72 74 75 72 68 69 67 64 62 62 64 67 71 
76 78 74 68 67 71 75 76 73 70 74 83 85 78 71 68 66 64 64 63 62 64 70 73 69 64 
64 67 71 72 70 71 70 67 65 64 66 70 71 70 69 71 76 66 65 61 62 68 70 68 63 63 
59 68 77 77 72 66 70 64 59 63 72 62 65 68 66 61 66 68 64 61 63 67 69 71 74 74 
69 65 68 73 72 68 66 67 71 76 75 70 67 67 70 74 76 78 77 73 69 69 74 75 69 64 
63 64 65 68 69 70 71 74 79 81 77 71 69 71 72 71 68 66 69 77 80 77 71 67 66 66 
67 67 65 66 72 73 67 60 59 64 70 69 66 66 66 67 67 66 68 70 69 65 66 64 61 61 
66 67 65 66 66 64 62 65 69 62 63 64 62 60 74 66 57 60 67 63 67 68 64 68 63 63 
58 53 55 59 63 68 78 84 78 71 69 71 72 70 67 64 67 72 74 69 62 59 62 69 75 75 
72 66 64 68 72 70 64 61 61 63 67 72 74 73 73 73 76 78 78 74 70 69 67 65 62 61 
63 70 75 77 78 76 70 67 67 68 68 69 72 73 68 63 61 61 62 62 60 58 58 62 67 69 
70 70 68 65 63 62 61 64 68 66 65 68 71 71 67 65 64 62 63 66 67 64 69 71 63 64 
69 61 68 67 64 69 61 61 57 53 55 58 60 65 77 85 81 73 68 69 70 68 64 59 61 67 
71 66 58 54 58 67 75 76 70 65 69 77 76 67 61 63 66 67 68 70 71 71 71 70 70 73 
74 72 69 67 66 63 59 57 61 69 75 79 81 77 69 61 61 66 72 74 74 72 68 65 63 59 
58 60 61 60 60 64 69 70 69 68 67 64 61 59 57 58 68 73 68 70 76 76 69 62 58 58 
62 67 66 61 61 70 66 65 60 59 68 69 65 66 64 65 64 63 63 61 58 60 69 77 77 71 
67 66 65 63 61 60 61 64 66 64 61 60 63 70 79 79 71 67 75 82 79 68 64 72 76 72 
66 64 64 68 70 68 67 69 71 70 68 67 68 66 61 58 61 68 74 78 79 72 63 57 57 65 
74 79 78 73 69 65 62 60 59 60 61 61 61 65 69 68 67 69 68 66 67 69 70 68 67 64 
62 64 70 71 66 61 59 60 66 70 67 61 57 66 66 63 58 60 68 68 64 69 67 70 69 69 
68 61 55 55 63 71 74 71 68 66 64 61 62 65 68 66 64 64 68 72 71 73 77 76 70 65 
70 79 79 70 69 76 78 72 63 60 62 67 72 70 67 68 70 70 69 68 70 71 69 64 64 68 
71 73 73 67 61 57 57 61 69 76 74 68 65 63 62 59 57 58 60 60 61 65 68 67 67 68 
69 68 69 72 69 65 65 64 62 61 64 65 62 62 67 70 69 66 62 60 60 64 67 65 59 66 
64 63 62 70 67 70 68 67 65 60 54 55 63 71 75 75 73 71 68 65 65 69 71 67 62 64 
71 75 72 68 69 70 67 65 68 76 76 71 68 70 72 68 63 62 67 72 73 70 66 67 69 70 
69 66 66 72 74 70 67 68 67 66 65 64 65 64 60 59 65 71 70 67 65 64 61 56 53 56 
60 59 59 62 69 74 74 73 69 67 70 74 71 69 70 69 67 67 69 68 65 67 70 71 68 66 
65 62 63 65 68 65 66 69 61 60 62 64 64 65 64 63 63 61 57 58 63 70 75 78 78 77 
72 67 68 70 69 64 61 62 68 70 66 62 62 66 70 72 76 79 76 69 64 66 68 68 67 69 
72 75 72 67 64 65 67 67 66 61 59 65 71 69 67 67 67 63 61 63 69 71 67 63 64 68 
70 70 70 69 65 58 54 57 63 65 64 65 71 76 77 75 71 71 72 72 69 68 71 71 71 75 
77 72 67 68 73 73 68 62 61 60 62 68 67 63 70 66 63 64 63 60 62 61 62 64 66 65 
61 59 60 65 74 81 83 78 71 68 69 70 66 62 61 63 65 66 65 63 63 67 71 76 82 83 
79 72 67 68 71 72 71 71 72 71 66 62 63 66 65 65 65 60 57 61 66 65 63 67 69 65 
62 65 70 71 68 64 63 64 68 73 75 74 71 65 61 62 67 70 71 72 74 74 73 75 78 78 
74 66 62 68 73 70 65 67 72 72 68 70 77 77 70 62 58 59 59 68 68 64 67 66 67 69 
66 64 61 59 60 64 68 67 62 56 57 64 76 85 85 77 68 66 70 70 65 63 63 64 64 66 
69 70 70 68 68 73 80 85 85 79 75 74 75 74 71 69 67 63 58 58 63 67 66 65 67 66 
63 62 64 64 63 67 69 67 67 70 71 67 64 65 64 62 65 71 75 75 74 72 67 65 66 70 
73 73 72 69 68 72 79 80 73 63 61 70 78 74 63 61 67 70 69 72 76 76 69 61 59 63 
58 67 69 65 67 68 69 69 69 70 64 59 58 61 64 63 58 56 59 69 79 85 83 74 67 68 
70 69 65 63 62 61 62 67 71 73 72 68 65 69 79 87 88 84 81 80 78 74 69 66 63 60 
57 58 63 68 69 69 72 74 70 67 67 68 69 69 68 67 70 74 71 64 61 66 69 66 64 68 
73 73 73 72 67 63 63 67 69 68 66 64 65 71 77 78 73 66 66 72 78 73 64 63 66 68 
68 71 74 76 74 66 59 57 60 66 67 61 70 64 66 64 73 72 69 63 58 56 57 56 54 57 
66 75 79 78 74 70 68 69 69 66 64 63 61 58 60 64 67 68 68 67 66 72 81 86 85 82 
82 82 78 73 67 63 61 62 61 60 63 68 71 73 75 77 74 71 70 71 72 73 70 67 68 70 
67 60 58 67 71 67 65 67 72 73 72 68 63 61 63 67 68 65 63 63 68 75 79 77 75 74 
73 72 72 69 66 66 68 68 69 71 75 77 75 67 56 50 68 63 63 58 67 60 62 65 70 70 
71 69 64 57 55 54 55 61 70 77 74 68 65 64 63 62 62 62 64 67 65 62 62 63 62 62 
65 67 70 76 82 82 77 73 75 77 73 67 62 58 61 67 68 64 62 67 74 76 75 76 77 73 
68 66 67 70 70 65 62 61 59 54 55 62 67 68 67 70 73 75 72 66 63 63 66 69 69 67 
65 66 71 79 82 80 77 76 74 70 66 65 67 72 73 72 69 68 70 72 71 65 56 52 72 63 
63 61 64 63 62 64 68 64 68 76 74 67 62 62 62 63 67 71 69 63 59 58 55 54 56 60 
66 72 72 67 63 62 60 61 65 68 70 74 77 74 66 63 66 67 65 60 56 56 62 72 74 68 
64 69 76 75 73 75 79 75 65 57 56 61 63 61 58 58 57 55 56 61 67 69 70 71 71 72 
72 69 68 68 66 66 66 69 70 70 74 80 84 82 77 72 68 66 64 63 66 72 76 74 67 61 
61 65 68 67 64 62 69 64 67 68 65 69 66 63 68 61 66 76 81 77 73 73 72 66 62 64 
64 60 57 58 57 56 59 63 68 73 72 65 59 61 62 62 63 64 65 67 69 65 58 55 58 60 
60 58 56 58 66 76 77 71 69 73 77 75 72 75 81 77 63 52 49 51 54 56 59 62 64 63 
64 67 68 68 67 65 64 66 70 74 74 69 63 58 59 65 69 70 72 76 80 80 75 70 66 66 
66 65 64 70 75 72 64 58 58 64 70 73 73 70 69 67 70 70 65 74 70 66 68 63 67 77 
81 78 75 78 77 68 62 63 62 57 57 63 67 68 68 70 72 73 70 63 59 61 62 58 55 57 
61 64 66 63 57 52 54 57 59 59 58 60 67 73 73 72 72 74 75 73 72 76 79 73 61 51 
48 48 51 56 64 68 68 68 69 71 67 61 58 57 57 61 69 75 73 67 61 57 57 61 64 64 
64 67 72 75 75 73 73 74 73 70 69 72 76 74 66 61 63 67 72 74 72 67 73 66 69 64 
65 72 69 66 67 67 72 78 79 74 70 72 73 67 63 64 62 56 56 66 76 76 73 72 75 77 
75 69 65 65 60 54 50 54 62 69 70 65 57 52 52 54 55 56 56 57 62 67 70 71 71 69 
68 69 72 75 74 65 54 51 54 55 58 64 69 69 64 61 67 70 65 57 54 54 55 59 67 72 
70 65 64 64 62 62 61 60 60 63 67 71 74 77 78 78 77 74 73 76 80 77 70 65 65 67 
69 69 65 59 72 62 64 64 65 67 64 65 68 71 74 79 79 73 67 66 67 65 64 65 62 55 
55 67 76 75 70 70 75 80 79 75 72 68 62 56 57 62 69 74 72 62 55 53 53 53 52 54 
55 58 63 68 72 73 70 63 61 65 70 73 69 58 51 52 60 65 67 70 72 67 57 55 60 65 
65 62 59 57 56 59 66 72 71 68 68 70 70 68 66 64 64 67 68 69 71 72 73 72 71 71 
72 76 79 75 70 66 65 65 66 66 62 58 67 60 62 64 65 65 62 68 71 73 73 77 79 75 
69 67 68 67 67 66 61 54 55 65 72 71 68 69 75 78 76 72 70 69 66 66 68 71 73 72 
65 56 53 56 58 55 55 58 62 65 68 70 72 72 67 60 57 61 66 66 61 54 49 54 62 65 
67 69 69 65 60 56 57 60 63 66 66 62 59 61 68 75 76 73 71 72 74 74 71 68 68 71 
71 68 66 65 63 63 63 65 66 68 71 71 68 67 68 69 68 67 64 60 65 65 64 63 67 66 
67 71 75 74 71 73 76 72 67 68 70 69 67 64 59 53 55 63 68 70 70 72 76 74 69 65 
66 69 71 73 74 73 71 67 59 51 52 59 60 58 60 66 70 71 69 65 64 64 63 58 54 56 
56 52 49 47 49 53 57 58 60 63 65 67 67 66 60 54 57 63 66 64 62 64 70 73 75 72 
69 70 75 76 70 63 64 69 70 67 63 62 61 62 65 66 62 60 64 67 68 71 74 73 70 68 
66 60 65 71 70 63 69 67 68 71 74 71 68 71 73 69 65 66 68 66 63 61 57 54 57 61 
66 67 68 70 71 70 66 65 67 71 73 73 72 72 71 66 59 53 54 58 59 59 64 70 72 69 
63 56 53 56 58 54 51 50 46 40 39 43 49 52 51 53 57 60 60 64 71 74 66 55 52 58 
65 66 65 66 66 66 67 66 63 66 74 75 66 57 58 67 71 69 66 64 64 68 72 71 63 57 
60 66 69 73 75 73 69 68 67 61 64 73 73 66 66 72 69 68 68 66 66 72 75 70 66 68 
68 64 62 61 60 59 60 62 63 63 62 62 63 66 67 68 70 70 67 66 69 73 73 70 64 59 
58 58 59 63 68 70 66 61 55 49 48 52 53 51 47 46 43 38 38 45 52 53 50 52 58 57 
53 54 65 74 72 59 53 58 66 69 69 66 63 61 61 61 60 64 71 72 63 55 59 68 73 72 
69 67 66 69 74 74 67 60 62 67 69 69 70 69 67 68 68 62 63 69 69 65 66 73 71 66 
63 62 65 74 78 75 72 74 73 68 67 69 68 64 60 59 59 58 58 59 61 64 67 69 69 65 
60 60 66 74 75 72 68 66 64 61 63 69 74 70 61 55 52 49 48 48 47 44 44 48 48 44 
44 50 57 57 54 54 54 50 45 48 60 73 74 65 58 61 70 74 71 67 63 62 62 61 62 65 
70 70 63 57 61 69 74 73 70 68 64 63 67 71 70 67 69 71 68 66 66 66 66 68 67 62 
63 67 63 67 68 76 78 72 67 64 66 73 78 75 75 78 76 72 72 73 70 63 57 55 55 57 
60 63 64 63 62 64 67 65 61 59 65 72 73 70 68 68 66 63 64 71 75 72 65 61 59 54 
47 40 35 35 42 52 56 54 52 56 62 63 60 54 48 43 44 52 65 74 76 69 62 64 71 75 
72 67 64 63 63 64 66 69 70 68 62 58 62 70 73 70 69 69 63 56 56 63 69 74 77 76 
72 68 67 67 69 70 68 62 63 69 61 72 69 82 83 79 74 71 72 74 73 70 72 75 74 71 
71 70 67 61 56 56 57 60 63 66 64 58 56 61 68 70 67 62 63 68 69 65 64 64 64 63 
64 68 71 73 73 72 66 54 41 32 29 34 45 58 65 66 65 66 72 73 66 56 46 41 46 58 
68 72 74 69 62 61 67 71 70 65 62 61 62 67 72 74 71 64 57 55 61 68 70 67 66 69 
64 53 48 55 66 75 80 81 77 71 69 69 71 73 72 68 62 70 66 74 71 79 78 77 74 75 
78 77 70 66 68 71 70 70 70 69 65 62 61 60 61 62 64 64 61 55 55 62 70 72 69 63 
63 65 66 62 59 60 61 62 63 64 65 68 72 71 61 45 33 31 37 47 57 67 79 86 88 90 
92 87 75 63 53 46 47 54 60 63 67 68 61 55 59 66 68 64 58 56 60 69 76 75 67 57 
50 50 58 66 67 63 62 65 64 56 50 53 60 69 76 80 77 71 67 67 72 77 78 77 66 68 
67 73 70 71 69 68 68 72 78 77 69 64 66 66 67 69 72 70 67 65 64 62 59 59 61 63 
63 60 61 67 70 69 64 61 62 66 65 61 58 59 61 62 62 61 60 61 61 56 45 33 29 37 
51 64 73 83 98 113 120 120 115 103 85 70 60 51 45 45 48 52 60 65 60 54 56 63 
68 65 58 53 56 67 75 72 62 52 47 49 57 64 66 64 60 61 64 65 60 57 59 63 69 73 
72 68 65 67 72 77 78 79 65 65 74 74 72 67 63 65 66 69 72 73 68 65 65 64 64 69 
72 69 65 64 64 61 58 58 59 63 67 67 67 68 69 67 62 58 61 66 65 60 58 60 63 61 
59 59 60 58 53 46 38 33 35 45 60 75 87 102 122 141 147 141 130 112 89 72 61 53 
44 41 43 47 55 61 61 57 58 63 67 66 60 54 55 62 67 65 59 54 53 56 60 64 66 65 
60 59 66 71 70 65 63 63 64 65 65 66 67 69 73 76 75 74 65 65 73 80 77 68 65 69 
71 71 70 70 70 69 67 64 64 68 70 65 62 63 64 64 63 61 61 64 68 71 69 68 69 69 
62 57 57 62 61 56 55 60 62 59 57 59 63 63 58 51 45 42 43 51 65 83 102 123 147 
165 164 152 136 115 89 67 55 49 45 44 44 46 52 58 60 60 60 62 64 65 62 59 58 
59 60 58 56 58 62 65 64 64 63 60 56 56 62 69 69 66 67 67 65 62 64 68 70 71 73 
76 76 73 68 67 77 83 77 68 69 75 79 75 73 72 72 71 66 62 62 67 68 65 64 66 70 
72 72 68 65 66 72 74 71 69 71 71 63 54 54 58 57 52 52 56 59 58 59 63 67 68 64 
56 48 42 42 50 68 94 123 149 171 183 179 163 143 120 89 61 45 43 46 46 45 45 
49 55 58 59 60 61 62 62 62 62 63 63 59 54 54 59 66 69 67 63 58 55 52 54 59 63 
61 61 66 71 68 66 69 73 72 69 69 74 80 76 73 67 81 75 71 70 72 77 79 78 76 75 
72 68 61 57 59 65 68 68 69 73 77 79 76 71 68 70 75 76 71 68 71 72 64 56 57 60 
58 53 52 55 58 61 66 70 70 67 63 55 43 35 36 48 73 108 143 172 190 197 190 173 
154 127 92 59 41 40 45 48 45 43 48 54 58 59 59 59 59 58 57 62 68 70 64 57 55 
60 68 71 67 62 59 58 59 61 65 65 61 61 68 72 71 71 75 77 74 68 66 72 77 78 75 
69 70 67 69 74 72 73 75 76 76 73 68 62 58 58 63 69 72 70 70 75 77 75 71 68 68 
69 73 71 65 63 68 71 67 63 64 65 61 57 56 58 62 68 76 78 73 66 60 53 43 37 39 
53 80 118 157 185 198 201 195 182 162 133 95 60 41 40 47 50 46 43 46 54 60 62 
62 61 59 55 55 61 70 74 68 62 60 65 70 70 64 61 62 67 70 72 74 73 70 69 72 73 
71 71 75 77 75 71 70 71 74 75 74 71 72 67 68 71 69 69 71 74 74 71 66 62 61 65 
70 74 72 68 68 70 71 67 65 65 66 66 65 61 55 54 61 67 68 69 69 67 62 59 60 63 
68 77 84 85 77 67 61 56 50 46 50 64 91 130 168 193 201 200 195 185 165 134 96 
63 45 42 46 48 45 41 43 53 61 65 66 65 62 56 54 59 67 69 67 65 67 71 73 67 57 
55 62 71 74 74 76 78 76 74 74 72 69 68 71 74 75 75 75 74 73 73 73 76 76 55 65 
66 65 66 70 73 72 69 67 65 66 69 72 73 67 62 63 68 67 64 63 66 67 65 62 58 52 
50 53 60 66 71 71 65 58 56 59 65 72 81 87 87 80 71 64 59 55 54 60 77 107 146 
182 202 207 202 194 182 158 126 91 62 46 40 38 39 39 38 40 49 59 63 63 65 63 
57 53 56 60 61 62 67 72 76 74 64 53 51 58 68 70 69 73 76 74 70 68 68 67 68 71 
74 75 77 77 75 73 74 77 83 71 56 68 67 65 66 70 71 69 68 68 66 65 67 68 64 58 
55 62 69 70 65 64 68 68 66 64 61 55 49 48 51 58 65 68 62 53 51 56 65 75 82 86 
85 80 74 67 61 55 57 68 93 126 161 190 209 211 203 189 168 140 109 79 57 41 32 
28 30 36 38 39 45 52 53 53 56 59 56 54 54 56 56 60 67 72 74 72 64 56 53 59 65 
67 67 72 75 71 65 63 65 67 70 74 76 77 78 78 74 72 74 79 81 65 66 76 71 67 68 
73 72 67 64 63 61 62 64 64 59 53 53 63 72 73 67 64 64 64 62 61 59 54 49 45 44 
46 53 58 56 50 50 58 69 77 82 84 84 83 81 76 69 61 63 81 110 142 169 189 205 
211 202 180 151 121 95 73 53 38 29 26 28 33 35 37 43 48 47 46 49 55 58 59 58 
57 56 59 65 69 69 67 66 65 64 63 64 64 66 71 75 71 65 65 68 70 73 76 77 77 78 
79 76 72 70 75 72 63 72 78 71 64 69 76 76 69 61 57 58 61 66 66 60 56 58 65 72 
74 69 62 58 57 56 53 52 51 49 45 41 40 44 48 51 53 57 66 76 80 80 81 85 89 91 
90 84 76 79 98 128 158 177 190 204 212 205 181 147 116 94 76 59 45 37 32 29 28 
27 29 39 50 53 51 54 59 63 65 63 60 58 60 65 68 68 67 69 74 75 70 63 59 60 67 
75 75 71 71 71 72 74 77 75 71 74 79 78 71 66 70 66 63 72 72 63 58 63 74 79 73 
64 60 61 67 70 66 62 62 66 70 73 72 67 59 54 53 53 51 51 52 51 50 49 48 47 49 
55 61 68 76 82 82 80 84 89 95 98 100 97 93 98 117 146 174 192 205 217 225 221 
197 163 132 109 89 71 60 51 41 31 25 23 26 39 54 61 62 63 65 66 66 65 63 62 64 
66 69 71 71 73 79 81 75 64 57 58 66 75 77 75 73 73 72 73 75 71 66 69 77 80 73 
66 73 66 66 73 70 63 57 60 71 76 73 69 66 68 71 70 63 59 64 74 77 73 69 65 58 
52 52 54 56 57 57 55 56 61 65 63 61 65 71 75 80 85 87 87 89 94 97 98 99 100 
103 113 133 161 189 211 224 234 241 238 219 190 160 132 107 88 77 65 49 37 32 
32 36 45 55 60 62 63 63 63 62 62 63 66 64 61 62 68 71 74 75 77 75 69 64 66 71 
74 75 73 72 71 70 72 74 72 68 70 79 83 77 70 78 54 73 76 77 74 67 66 68 71 70 
69 68 71 73 71 62 57 64 75 79 73 66 63 59 55 53 57 62 63 59 55 59 69 77 76 73 
72 74 76 81 87 92 93 93 94 94 91 91 95 106 123 145 172 202 224 236 244 251 249 
235 210 182 156 131 113 99 82 61 46 44 47 48 50 53 54 54 54 54 55 55 57 60 62 
58 51 51 60 70 69 67 70 73 74 74 76 76 74 71 70 68 67 68 71 74 73 71 73 80 83 
78 72 74 63 77 77 84 84 78 71 68 66 65 66 68 73 79 77 66 57 60 69 73 67 61 60 
61 59 56 59 65 65 59 55 60 70 78 80 77 76 78 80 84 89 92 93 91 90 89 85 85 92 
109 130 153 182 213 234 243 248 254 254 240 218 196 177 160 145 130 108 81 61 
54 51 49 48 49 47 43 43 46 49 52 54 57 58 53 45 47 58 66 66 63 66 71 74 77 79 
78 75 73 69 64 61 65 70 71 68 66 69 74 77 75 70 65 67 73 77 79 79 75 71 67 63 
62 63 68 76 84 81 67 55 53 60 64 59 52 52 56 58 58 61 65 67 63 62 65 71 76 79 
81 84 87 89 88 88 89 89 87 85 83 81 82 92 111 134 160 190 219 239 247 253 255 
255 242 221 204 194 186 176 161 138 108 83 65 52 42 41 43 39 36 38 43 49 53 56 
57 58 54 52 54 61 64 63 63 67 68 68 68 71 74 77 78 72 61 58 64 70 68 64 63 66 
70 72 69 66 59 68 71 72 68 64 63 64 64 61 58 60 66 75 81 77 64 54 53 59 63 56 
46 43 48 55 58 61 65 67 67 70 74 76 77 83 91 96 98 96 90 85 83 83 78 73 71 71 
73 84 106 133 161 190 217 237 249 255 255 255 245 229 216 210 207 199 185 163 
134 107 83 58 41 37 39 37 34 36 43 50 53 54 55 56 59 61 62 63 61 61 64 66 64 
59 56 59 66 75 79 71 61 58 66 72 71 69 71 74 74 71 67 64 57 72 69 64 58 54 54 
59 62 59 57 58 64 71 75 72 64 59 61 66 66 59 49 45 49 55 59 62 62 62 65 73 82 
83 84 90 98 104 104 98 89 79 75 70 64 57 54 55 57 69 93 123 153 179 205 227 
243 253 255 255 249 240 233 230 228 221 206 185 158 132 105 73 46 37 41 41 38 
39 43 47 49 47 45 49 57 64 65 61 58 59 64 68 64 58 55 56 61 69 72 68 60 60 67 
70 70 73 78 81 79 74 67 64 55 71 63 60 56 53 54 60 64 64 63 65 68 72 74 72 67 
64 66 67 66 61 57 55 56 58 60 61 59 57 62 76 89 94 93 96 101 105 104 98 87 74 
63 54 48 46 45 44 45 56 79 108 137 165 192 215 231 240 244 245 246 249 252 253 
251 243 230 210 185 159 130 92 55 39 41 46 44 42 44 46 46 40 36 40 51 61 62 57 
53 57 65 71 71 68 65 63 61 61 64 64 62 63 65 65 64 66 71 76 78 74 67 62 57 70 
61 60 58 56 57 64 70 72 74 76 76 75 74 70 65 62 63 63 61 59 58 59 58 57 56 55 
54 54 63 80 97 104 105 104 102 101 100 96 88 73 57 45 40 42 44 42 42 51 69 92 
119 151 183 206 215 219 223 227 236 250 255 255 255 255 251 235 213 185 153 
113 67 38 35 43 46 45 46 48 49 43 35 38 51 59 59 52 48 54 64 72 76 76 73 68 60 
57 60 67 70 68 65 63 63 63 64 68 74 73 64 57 64 68 61 63 60 58 61 69 77 80 81 
81 78 74 70 65 60 59 62 63 62 59 57 55 53 49 47 47 49 54 65 80 95 105 110 108 
102 98 97 96 92 80 62 45 38 39 42 42 45 53 67 81 103 136 171 192 197 197 201 
209 223 245 255 255 255 255 255 255 235 207 173 130 81 42 29 33 39 41 45 50 53 
49 43 46 54 60 58 50 48 53 61 68 71 70 69 65 58 54 61 72 77 72 67 68 72 69 64 
65 72 70 61 54 67 64 61 64 64 63 68 77 81 81 80 77 74 71 69 65 62 64 70 71 66 
61 57 53 47 43 43 46 50 57 67 75 83 93 99 100 97 95 96 97 96 86 67 48 36 35 36 
39 47 59 68 77 92 119 149 167 171 171 179 193 210 231 255 255 255 255 255 255 
248 218 183 139 90 49 29 23 23 28 37 49 57 56 53 55 60 62 58 53 51 54 60 64 64 
61 58 57 55 56 64 75 79 73 68 72 77 73 65 65 70 70 61 54 68 59 60 67 69 72 78 
81 80 77 73 70 69 70 72 72 71 72 74 71 65 62 59 53 44 41 44 50 55 62 71 76 76 
79 84 86 87 89 91 92 90 80 64 47 37 32 31 36 47 60 70 75 84 101 122 137 140 
142 153 172 192 214 244 255 255 255 255 255 250 217 179 135 90 52 28 14 10 16 
31 48 59 60 59 60 62 61 57 54 53 55 59 63 64 59 54 54 56 61 69 75 77 73 70 72 
73 67 59 62 70 70 62 57 73 54 61 69 75 79 80 77 71 68 67 67 68 71 74 75 75 74 
72 66 62 62 61 53 42 38 44 50 54 65 78 82 78 76 78 81 82 84 84 82 77 69 58 48 
40 33 28 31 41 55 67 73 78 88 102 113 114 115 126 146 169 198 235 255 255 255 
255 255 244 206 166 124 83 49 24 11 9 18 33 48 57 58 58 60 61 58 54 51 51 51 
55 62 66 62 57 56 60 66 71 74 73 72 73 72 67 59 57 63 70 68 62 59 76 55 62 71 
77 78 74 68 63 63 67 72 73 73 72 71 73 74 72 68 66 66 64 55 43 39 43 46 50 62 
75 80 77 75 78 83 86 86 83 78 73 68 60 51 43 32 23 22 32 49 63 72 75 83 95 101 
99 96 102 120 147 183 229 255 255 255 255 255 237 194 154 115 76 42 20 14 20 
30 40 48 51 52 54 58 60 57 52 49 47 48 51 58 63 64 62 61 63 67 70 70 68 69 72 
71 64 60 61 68 71 65 61 62 71 63 65 73 76 74 69 64 62 63 69 75 78 75 69 66 70 
76 77 75 73 68 63 57 52 49 48 47 49 58 67 71 70 71 78 86 91 91 85 82 82 79 68 
57 46 33 21 19 30 48 64 73 77 86 95 98 89 81 83 99 126 167 218 255 255 255 255 
255 230 186 147 109 70 35 16 19 32 42 45 45 47 50 54 58 59 57 52 48 46 48 51 
56 61 65 68 67 67 68 69 66 62 64 69 69 65 64 68 73 70 63 60 63 70 70 69 73 75 
72 68 66 63 61 63 70 78 77 69 65 71 78 79 76 71 63 59 60 65 64 58 51 53 58 62 
63 65 69 75 83 91 91 87 87 91 90 78 64 53 40 26 22 31 47 62 73 80 89 98 95 79 
68 70 83 107 146 198 246 255 255 255 255 222 179 139 100 59 23 10 20 33 42 44 
44 46 51 57 61 60 56 51 47 46 49 53 56 61 68 73 72 71 73 71 65 60 63 68 70 69 
69 72 73 67 59 57 62 69 71 70 73 74 71 69 66 60 53 52 62 74 76 68 65 71 78 77 
70 64 57 55 62 71 71 62 54 54 59 61 62 63 67 70 76 84 87 85 85 92 93 83 71 60 
46 31 23 27 39 55 68 79 88 94 87 71 57 59 73 93 126 176 225 252 255 255 242 
210 168 125 83 41 11 3 11 24 34 40 43 45 53 62 64 60 55 50 47 47 50 53 56 61 
67 70 69 68 72 73 67 63 66 71 73 73 73 71 69 64 56 53 60 66 68 69 72 71 68 66 
63 56 47 47 59 70 71 64 63 72 77 74 68 63 58 57 62 67 66 58 52 53 58 62 61 60 
60 61 65 75 83 84 86 89 89 83 73 61 46 30 20 21 30 45 62 76 83 86 77 60 46 52 
70 90 120 164 206 229 236 235 223 195 153 107 63 26 5 0 4 12 25 36 41 45 55 65 
68 61 53 51 53 54 54 54 56 57 58 58 57 60 67 71 68 66 70 72 72 74 74 71 67 63 
57 55 64 64 65 69 71 67 61 60 60 57 53 54 62 67 63 60 64 70 72 70 67 66 65 64 
63 61 59 54 52 54 59 61 58 54 51 49 52 64 77 86 90 90 89 84 73 58 43 29 20 19 
27 43 64 81 89 88 76 59 47 53 73 97 128 163 194 211 218 218 206 178 136 91 50 
20 6 3 4 11 23 35 41 45 53 64 67 60 54 54 60 64 61 59 57 55 51 49 50 56 65 69 
67 67 69 67 65 70 75 72 67 65 63 63 72 64 65 72 71 62 56 57 60 61 60 62 65 62 
58 62 68 69 63 60 61 65 69 69 65 60 55 54 55 58 60 58 51 46 42 40 43 55 72 86 
92 94 93 87 73 56 42 33 27 26 34 54 79 101 112 109 96 79 68 70 85 110 140 169 
190 203 209 206 190 161 122 81 44 19 9 10 13 19 30 40 43 45 51 60 63 61 56 55 
60 66 67 65 62 56 51 51 55 62 67 67 64 65 67 63 61 69 77 74 68 64 67 74 80 66 
69 75 73 63 58 60 64 63 64 66 64 57 56 67 74 66 55 53 57 63 67 69 66 61 57 55 
56 59 59 53 45 41 39 38 41 53 69 84 93 97 97 89 71 53 42 37 35 40 54 78 105 
129 143 143 132 118 105 99 107 128 157 181 197 206 208 200 179 148 113 76 42 
19 10 13 19 27 38 47 48 47 52 60 65 65 60 55 57 64 69 69 65 61 59 62 65 68 70 
67 63 64 66 64 63 70 78 77 70 67 72 81 84 65 70 78 75 67 64 68 70 66 66 69 67 
57 58 68 72 63 53 55 62 64 65 67 68 65 60 56 55 57 57 52 46 43 42 43 47 57 69 
82 91 97 96 85 68 52 43 40 44 58 80 106 133 158 177 182 174 162 149 138 139 
158 183 204 215 221 219 205 179 145 109 74 41 19 11 14 22 30 42 50 50 49 55 64 
71 68 62 58 59 65 69 70 67 66 69 71 70 68 68 66 64 66 68 67 67 72 78 79 77 75 
78 84 83 62 69 78 76 69 69 76 76 71 70 72 71 65 63 68 68 60 56 62 69 70 69 72 
74 70 63 57 54 55 56 54 51 47 45 46 50 57 66 77 87 94 92 82 70 59 51 48 56 76 
102 129 157 187 212 221 218 208 196 183 181 194 214 230 237 238 234 217 186 
148 108 71 40 20 14 18 26 35 45 52 51 48 54 65 69 65 60 58 62 66 68 69 71 74 
78 76 71 64 62 62 65 70 73 72 73 76 79 81 82 81 81 81 78 60 69 76 73 68 71 78 
80 75 70 72 74 72 70 69 66 61 61 67 73 75 77 80 80 72 63 57 54 53 53 51 49 44 
40 41 45 49 55 67 80 89 89 85 82 78 71 65 70 89 113 141 175 213 243 255 255 
251 239 225 218 223 238 249 253 251 243 224 191 149 108 71 41 22 17 23 32 42 
53 57 55 51 56 63 65 60 56 57 59 60 62 68 76 82 81 76 68 61 58 61 68 75 77 76 
78 81 80 77 76 75 73 72 73 66 69 70 67 67 72 77 78 73 67 67 70 72 72 71 68 64 
64 69 74 77 80 82 79 70 62 58 57 53 48 42 38 34 32 34 36 36 42 55 70 80 85 91 
98 101 96 87 88 99 119 149 189 231 255 255 255 255 255 248 237 238 248 255 255 
255 241 219 187 149 110 74 44 25 19 25 36 48 57 61 61 60 63 68 67 63 62 60 58 
54 56 67 79 83 77 69 63 60 60 63 71 77 78 77 81 82 77 70 64 62 62 64 73 70 67 
65 63 66 71 73 71 67 63 63 66 68 67 68 69 67 65 68 74 76 76 75 72 66 61 60 61 
57 46 34 29 29 31 32 30 29 35 47 58 68 80 94 104 110 110 106 105 113 130 159 
201 241 255 255 255 255 255 254 242 240 247 255 255 250 232 207 179 147 112 
76 46 27 21 27 37 47 53 58 62 68 73 73 71 72 73 70 63 56 56 64 73 76 68 61 59 
61 63 67 72 76 76 76 77 76 71 62 57 56 60 65 73 68 67 64 64 66 67 65 64 63 63 
65 67 67 65 66 67 65 63 66 72 74 71 67 65 63 60 60 63 60 47 34 29 31 35 36 35 
35 42 51 56 64 79 94 104 109 113 116 121 129 144 170 208 244 255 255 255 255 
255 249 240 235 234 238 241 235 215 192 170 143 108 71 41 26 25 31 40 46 49 52 
60 71 74 70 69 74 79 77 70 64 60 61 65 65 60 56 58 62 65 67 71 74 76 75 72 67 
64 60 58 61 68 72 72 69 71 70 67 63 60 59 62 65 67 68 68 66 65 66 66 63 62 64 
70 73 70 65 62 61 59 59 59 57 49 42 40 43 47 52 56 59 64 70 71 72 83 98 106 
111 118 127 136 145 157 178 211 241 255 255 255 251 242 233 228 218 209 206 
209 208 195 176 156 132 97 60 35 26 29 36 44 49 51 52 60 68 68 62 61 68 75 75 
72 72 69 63 61 60 57 55 58 65 68 68 72 76 79 77 71 64 63 63 63 68 77 77 71 76 
77 73 66 59 55 57 63 70 71 67 62 62 65 69 68 63 62 66 70 73 73 69 65 63 62 58 
54 51 52 56 62 66 73 85 95 98 99 101 94 86 89 99 110 118 127 138 150 162 172 
188 210 232 241 236 225 215 209 207 202 190 175 166 168 171 166 151 132 108 
79 52 35 31 34 39 47 54 56 57 61 66 63 56 55 62 68 66 69 75 76 70 65 62 56 53 
60 69 72 72 75 80 82 79 74 70 68 66 66 72 79 76 82 79 77 70 62 57 57 60 65 68 
67 62 59 60 69 74 70 64 65 69 72 74 74 71 67 66 62 53 47 48 57 72 85 97 111 
131 145 146 140 131 118 102 93 96 108 119 130 144 162 179 191 198 208 219 221 
210 193 178 172 170 163 148 132 124 123 128 128 117 96 75 58 45 38 36 38 42 49 
57 61 61 63 67 63 54 52 58 60 60 62 69 75 75 71 65 56 53 60 70 74 74 77 81 81 
78 77 76 75 70 68 74 77 75 72 73 71 65 60 61 65 66 64 61 60 60 61 66 75 79 74 
66 67 72 74 72 70 67 66 63 55 42 35 40 57 81 104 128 154 180 196 194 181 165 
144 119 100 95 101 113 126 144 167 190 201 206 209 212 210 196 173 151 139 130 
116 99 85 79 80 85 89 80 62 47 40 37 35 35 38 44 51 58 61 61 64 68 66 58 52 53 
55 56 57 64 71 76 74 67 58 54 59 66 68 70 75 79 77 75 75 78 77 71 70 74 77 75 
67 67 66 64 64 67 70 70 64 58 59 62 64 67 74 79 74 68 71 76 74 69 65 63 62 59 
47 30 22 30 53 84 119 156 194 227 244 239 224 202 172 140 111 96 95 106 121 
142 166 186 199 206 212 217 212 195 168 140 119 100 79 59 47 45 46 51 56 52 41 
32 30 31 30 32 39 47 52 56 57 56 57 63 67 61 53 48 50 56 62 66 71 74 73 68 61 
58 59 60 61 65 74 78 75 72 73 75 74 69 66 70 74 74 72 64 67 69 69 69 69 69 66 
63 64 65 59 58 65 73 73 72 75 77 74 69 63 60 61 59 46 29 20 28 52 89 133 179 
226 255 255 255 255 232 195 154 117 94 87 96 115 137 157 175 190 206 220 226 
219 200 174 146 121 95 68 46 35 30 27 28 34 35 29 26 28 29 29 35 45 52 53 52 
50 47 47 55 62 61 53 45 46 55 66 72 73 71 68 65 62 59 58 57 59 67 76 78 73 69 
71 74 73 66 61 62 66 75 77 67 72 75 74 70 67 66 67 68 68 63 55 52 58 68 72 75 
76 73 70 68 64 60 61 60 50 33 25 32 57 95 141 192 242 255 255 255 255 247 204 
157 116 87 74 80 99 122 144 165 187 210 228 235 227 212 193 172 146 114 85 63 
49 37 24 21 26 27 24 25 28 31 34 44 55 59 54 48 44 41 42 49 56 57 53 47 45 52 
64 72 73 71 67 63 59 57 58 60 64 71 77 76 70 67 70 75 75 68 61 56 65 79 76 76 
80 78 73 68 67 68 68 67 65 59 53 53 58 65 69 73 73 68 66 68 68 63 61 58 48 34 
28 37 61 96 141 195 245 255 255 255 255 249 203 152 110 78 62 62 77 103 132 
161 188 212 230 239 238 231 222 205 180 147 115 92 75 53 34 27 29 29 26 28 34 
37 42 53 64 66 56 45 39 38 42 49 52 53 53 52 50 53 62 70 72 73 72 68 62 57 60 
66 71 73 74 72 69 69 72 76 76 71 63 57 69 70 75 80 80 74 67 65 69 71 69 63 58 
54 53 55 58 61 64 68 70 67 67 72 74 70 64 56 43 31 30 41 63 94 136 189 239 255 
255 255 255 246 195 140 97 67 49 47 60 85 119 153 180 203 222 239 250 252 246 
232 207 176 145 119 95 71 50 40 40 38 35 39 44 46 49 60 70 67 55 44 40 42 47 
51 51 50 53 58 58 60 66 68 69 71 75 76 68 63 66 73 76 74 71 71 76 79 77 75 74 
72 67 60 67 63 76 76 73 67 64 69 74 75 68 61 56 54 55 56 57 58 62 66 68 69 71 
76 78 73 68 58 44 33 32 44 63 89 125 172 218 247 255 255 255 227 175 119 74 46 
32 32 45 67 100 134 164 188 212 236 255 255 255 243 224 199 169 137 109 84 63 
51 48 46 46 51 55 53 54 62 67 63 54 48 49 52 56 55 51 49 53 60 64 68 72 68 61 
63 71 76 72 67 68 74 77 74 71 74 83 88 83 73 68 70 69 66 69 68 76 71 67 66 71 
78 82 75 66 62 63 65 62 58 55 58 63 68 69 70 73 75 74 72 68 61 49 39 36 43 57 
77 105 142 181 209 223 225 218 192 148 97 53 25 14 20 32 49 77 112 145 176 204 
230 250 255 254 243 231 213 184 150 120 96 75 57 50 50 52 57 58 55 56 61 62 56 
53 57 62 64 62 58 53 52 54 60 67 74 77 69 60 59 66 71 69 64 64 68 71 71 71 72 
80 87 81 69 65 69 73 72 74 78 71 73 70 71 77 84 83 72 62 64 72 74 69 59 52 55 
64 71 72 71 72 72 70 68 69 66 58 48 41 41 48 63 86 114 141 166 179 180 170 150 
119 81 42 14 9 18 30 42 64 94 129 163 193 218 238 248 245 237 228 215 191 157 
129 107 83 62 52 50 53 57 59 58 57 59 57 54 55 63 69 67 61 57 57 57 58 63 69 
76 78 72 63 62 67 69 65 61 60 61 62 64 67 68 70 74 74 68 66 71 74 73 76 77 66 
78 75 73 76 80 77 69 63 67 72 73 67 57 49 51 61 70 71 70 71 71 69 70 73 73 68 
58 49 44 46 56 74 92 110 125 135 133 121 106 88 63 36 17 15 26 39 50 65 88 115 
145 172 195 216 229 231 223 217 207 184 155 130 109 86 67 56 53 54 58 63 63 60 
59 57 55 57 63 66 62 56 57 60 61 63 67 72 74 73 70 66 64 67 67 65 61 61 60 60 
63 68 69 67 68 70 71 73 74 72 67 74 75 64 79 74 70 70 72 73 70 68 68 67 66 64 
58 51 52 60 67 67 66 67 69 70 74 79 81 76 67 59 53 51 55 65 75 84 91 94 90 79 
69 57 44 31 23 27 39 52 64 75 87 102 122 145 169 190 204 209 206 199 188 169 
144 121 100 82 70 63 59 58 63 69 68 65 62 59 55 55 58 60 57 55 57 61 63 67 72 
74 71 67 65 66 64 61 62 63 63 63 64 65 67 72 75 74 73 73 76 77 76 69 67 74 73 
69 76 71 68 66 68 69 70 70 67 63 63 67 66 60 59 64 67 64 61 62 65 66 70 78 82 
77 69 62 58 54 53 56 60 64 65 64 60 53 43 34 28 28 33 40 50 62 74 81 84 88 100 
121 144 163 176 182 180 173 163 149 130 109 90 76 69 65 62 61 65 68 67 66 66 
61 54 52 55 59 58 58 60 61 64 69 74 75 68 63 65 66 62 58 58 61 62 64 67 67 69 
72 76 76 77 76 76 76 74 72 73 74 72 70 71 68 66 66 66 67 68 69 67 64 68 75 76 
68 65 68 68 63 61 62 62 61 63 71 75 71 64 60 58 56 53 52 53 53 52 50 46 39 28 
18 19 30 44 53 61 71 80 83 79 77 85 104 123 137 146 149 146 139 134 128 116 
100 82 70 64 57 54 55 58 58 58 63 66 60 51 50 56 62 63 62 63 64 67 72 74 73 68 
66 67 66 61 57 60 64 65 65 65 64 64 68 70 71 72 72 72 73 74 76 77 70 70 66 67 
64 64 64 64 66 68 70 70 67 71 76 76 71 68 67 65 63 63 64 64 62 62 65 67 64 60 
59 61 61 59 55 52 49 45 43 39 30 18 11 21 39 55 64 71 79 85 85 78 74 79 91 103 
111 116 117 113 107 106 108 103 90 77 66 55 45 40 43 46 44 47 56 62 57 49 49 
57 64 66 66 65 68 71 72 68 66 66 67 68 64 60 61 66 69 69 68 64 59 60 66 68 66 
65 66 68 71 75 77 74 63 69 64 62 61 61 61 61 64 70 74 74 70 67 67 69 70 71 66 
59 58 61 62 63 64 64 63 62 60 60 63 68 69 66 60 53 46 42 39 35 25 16 17 32 51 
63 71 80 88 93 91 85 80 78 81 84 86 89 91 89 85 88 92 90 82 74 66 54 41 34 34 
35 34 39 51 58 55 50 50 56 64 68 67 65 67 71 69 60 56 61 68 68 64 62 66 72 73 
72 69 62 57 61 69 72 66 62 62 67 73 76 76 69 59 70 66 57 56 58 60 59 61 69 76 
76 71 62 59 63 71 73 66 56 54 54 55 57 61 62 60 60 60 60 64 69 71 68 62 55 48 
44 42 39 31 24 30 46 60 68 75 84 94 99 98 92 84 76 70 67 66 68 71 72 74 78 82 
81 78 75 69 61 49 39 35 31 31 37 47 55 60 57 52 56 66 71 66 59 60 67 66 56 53 
60 68 68 65 64 68 72 72 72 72 67 61 63 72 73 69 65 64 68 74 77 75 67 62 70 65 
54 54 59 61 61 62 67 74 77 73 66 62 65 72 73 66 59 54 52 50 53 57 59 59 63 64 
62 62 65 67 68 66 62 57 53 53 51 44 37 39 49 59 66 74 84 91 95 94 89 80 69 58 
53 53 54 56 60 67 74 76 76 75 73 68 64 59 52 43 35 33 37 42 52 62 62 54 55 65 
70 64 54 55 63 66 60 58 62 67 66 60 58 61 66 67 72 78 77 70 67 71 73 71 68 66 
67 72 76 73 69 66 67 64 57 57 62 66 67 67 70 75 76 76 74 73 73 71 67 64 66 63 
56 52 56 60 62 64 69 70 67 64 63 65 67 69 68 64 62 63 62 57 49 44 44 49 59 69 
76 79 79 79 78 71 61 49 43 44 46 48 52 61 68 72 74 74 69 63 62 63 61 55 47 42 
37 37 47 60 62 56 56 63 68 63 57 56 62 67 67 63 62 63 60 54 52 55 59 63 71 81 
85 77 70 69 71 72 69 65 62 65 71 71 68 67 62 62 65 63 65 69 72 73 73 73 72 73 
77 81 77 68 61 64 73 72 63 57 61 66 68 69 72 74 72 68 64 62 64 66 67 66 65 65 
63 59 56 50 44 44 52 62 66 65 63 64 65 64 56 46 39 38 40 44 50 57 64 70 75 76 
71 64 61 64 66 65 61 52 42 38 45 56 61 58 59 65 68 67 63 60 62 66 67 65 63 62 
61 57 56 58 59 60 67 78 83 77 70 67 68 68 66 61 58 61 67 69 65 68 56 61 70 66 
65 67 70 72 71 68 66 69 76 79 76 66 61 67 77 77 67 61 63 68 69 70 73 75 74 70 
63 58 58 61 63 64 65 63 58 55 54 54 49 45 49 58 61 59 55 54 56 57 54 47 39 35 
37 42 50 57 63 69 75 78 77 73 69 67 66 66 64 57 48 43 48 56 62 64 67 70 72 72 
68 62 59 60 63 65 65 66 67 66 66 65 60 57 60 69 76 74 69 66 65 64 62 61 61 64 
68 69 66 66 57 63 68 63 61 65 68 68 66 64 64 70 76 78 74 70 68 71 75 74 67 63 
65 67 67 70 74 77 76 71 60 53 52 57 61 63 65 64 60 53 51 53 52 48 51 58 63 61 
56 51 49 49 49 45 39 34 36 44 53 61 65 68 72 77 81 81 77 69 62 58 57 55 50 49 
52 60 68 72 73 73 73 72 69 65 60 57 59 63 68 70 70 69 68 66 59 53 56 66 73 74 
71 69 67 64 62 63 68 70 71 69 68 65 68 71 63 61 63 67 69 67 63 63 66 74 79 79 
77 75 74 73 71 68 66 67 70 70 69 70 73 75 75 69 58 50 51 56 59 61 64 69 67 58 
52 53 55 55 56 63 69 66 59 53 49 47 46 42 37 33 36 46 56 62 66 67 68 72 78 80 
76 67 57 51 50 52 53 55 58 68 76 78 75 72 70 69 70 71 68 61 58 61 66 69 68 66 
65 62 57 54 58 66 73 75 76 75 72 68 65 67 70 71 69 67 69 69 74 73 64 64 66 68 
69 68 67 66 70 77 83 82 78 76 73 69 66 65 66 71 75 74 70 66 66 68 70 67 60 55 
56 59 60 59 62 68 69 61 54 58 64 65 65 69 70 67 62 58 55 51 48 43 37 34 36 43 
51 58 65 68 68 69 71 71 69 64 58 52 49 52 58 61 66 74 80 79 74 71 69 68 71 77 
75 67 60 59 62 64 63 63 64 63 61 58 60 64 70 76 80 80 76 71 68 69 69 67 66 64 
69 77 73 67 70 69 66 63 63 66 70 71 72 78 83 82 78 73 68 65 64 63 64 69 75 75 
68 60 58 62 67 69 68 66 64 63 61 59 60 62 60 55 54 61 72 76 74 72 70 67 65 64 
61 55 51 48 45 41 37 39 44 52 63 70 71 68 65 62 61 62 60 54 51 54 62 69 73 77 
80 77 74 74 72 69 70 75 77 70 63 61 61 61 60 62 65 67 65 60 58 60 67 78 84 83 
75 68 68 71 69 67 63 58 68 75 69 67 75 71 64 58 57 61 67 69 69 72 76 78 77 72 
69 68 69 67 65 67 74 74 67 60 58 63 69 73 74 72 66 62 60 60 59 55 52 50 53 61 
72 77 75 71 69 70 72 71 64 57 53 54 55 52 47 45 46 52 64 71 70 66 62 57 57 60 
61 55 51 57 68 76 79 79 79 77 76 76 75 69 67 71 75 73 69 67 64 60 58 60 65 68 
65 59 56 59 69 81 87 82 72 66 67 70 68 67 59 58 68 70 70 70 73 68 63 60 59 59 
62 62 61 63 68 72 74 75 75 76 76 74 70 72 76 77 70 64 63 66 70 72 71 66 60 57 
58 60 59 55 51 54 57 60 65 70 70 66 65 71 77 75 67 60 56 57 60 61 60 57 56 58 
64 68 67 63 60 56 56 59 60 57 56 62 72 79 80 79 78 77 75 74 72 68 65 70 75 76 
73 72 69 63 58 57 61 62 59 56 57 65 75 82 83 78 71 67 69 70 66 65 62 66 69 65 
67 68 71 67 65 66 66 64 62 61 60 62 65 69 72 75 76 77 77 75 74 75 79 79 72 67 
65 66 67 68 65 60 56 57 60 61 58 56 58 62 64 60 60 64 65 61 60 66 72 72 67 62 
58 57 60 64 67 66 64 63 65 67 66 62 60 59 59 61 62 61 62 67 72 74 75 74 75 75 
72 69 68 66 66 70 75 75 72 72 72 69 63 57 55 55 54 55 62 72 77 76 73 70 68 67 
68 66 64 67 72 73 68 63 64 62 74 71 69 70 71 71 68 66 66 68 70 69 69 69 69 69 
68 68 69 72 76 75 71 67 66 66 66 66 64 60 58 61 63 62 58 57 62 68 68 63 61 64 
65 62 58 59 63 64 63 61 59 58 61 66 68 68 65 64 65 68 66 62 61 63 65 67 66 64 
65 68 71 71 69 69 69 71 71 68 65 64 65 68 71 71 70 68 69 72 71 65 59 55 56 58 
64 72 75 70 64 62 62 60 59 60 63 77 73 69 67 61 60 58 76 75 72 71 74 76 73 68 
67 70 71 69 65 63 62 61 62 64 64 65 67 69 68 68 70 71 69 68 65 61 59 59 61 62 
60 58 62 67 69 67 64 66 69 67 62 59 60 60 60 60 60 62 66 70 70 67 64 64 67 68 
64 57 57 63 69 72 69 66 64 67 70 70 70 68 69 72 74 71 66 63 63 64 67 70 68 64 
64 70 77 76 69 66 66 65 63 66 69 65 60 58 56 53 53 57 64 76 69 66 69 56 56 57 
72 71 68 68 73 77 72 63 61 66 70 69 65 63 62 62 66 68 64 60 60 65 68 71 75 75 
71 69 67 63 55 54 60 65 65 60 57 61 66 68 68 69 71 71 68 65 63 62 60 59 62 67 
70 71 70 68 66 66 69 70 62 53 51 59 67 70 69 65 64 66 68 70 71 73 74 76 76 72 
66 62 61 62 65 70 70 65 61 69 80 81 77 75 76 72 65 62 63 62 58 58 59 60 60 63 
68 71 70 70 69 54 56 59 65 64 63 63 70 75 69 57 56 64 71 70 68 66 65 67 73 75 
67 58 59 64 68 70 74 73 69 68 69 64 56 55 61 69 67 60 55 56 62 68 71 72 74 75 
72 69 65 60 57 58 63 68 69 67 68 69 68 68 72 72 65 54 51 57 62 64 63 63 65 67 
68 68 73 76 76 75 72 67 64 64 65 65 66 68 69 66 65 72 79 80 75 74 77 74 66 62 
62 60 56 58 67 73 72 71 70 66 69 72 65 58 60 62 57 59 63 63 69 72 66 56 56 64 
73 74 71 68 66 66 72 75 70 62 62 67 68 67 68 68 66 67 69 65 58 58 65 69 65 59 
56 58 63 68 72 75 77 78 76 70 62 57 56 61 69 70 65 63 67 70 68 67 69 71 66 60 
59 60 61 60 60 62 66 70 70 72 76 78 76 70 64 62 64 68 72 71 68 66 67 67 70 75 
79 77 71 69 71 69 65 64 64 60 54 59 71 78 75 71 66 64 66 68 61 62 61 60 57 58 
65 71 74 72 70 65 64 68 73 73 71 69 66 61 61 68 71 69 71 73 71 66 66 66 66 68 
69 64 58 58 64 67 64 60 60 63 65 67 70 73 76 78 76 68 60 57 61 70 77 74 64 60 
67 70 66 62 62 63 64 65 67 68 66 62 60 63 68 71 73 75 79 79 72 65 61 62 66 72 
75 74 68 65 66 69 72 76 79 78 71 67 67 66 65 66 65 59 54 59 70 76 72 67 64 61 
61 65 58 63 59 57 59 61 68 74 76 74 71 69 73 77 72 65 62 66 66 58 49 52 63 73 
78 80 77 71 68 68 69 70 70 66 60 59 63 67 67 64 63 65 66 66 67 70 72 75 73 67 
60 61 67 75 81 75 62 59 65 67 63 59 59 60 65 72 75 73 69 64 62 63 66 68 71 75 
77 73 67 64 64 65 67 69 70 68 65 66 70 73 72 74 77 77 72 68 68 68 68 67 64 58 
53 58 68 71 70 69 62 56 57 66 59 63 62 61 63 64 67 69 70 69 65 65 71 76 71 58 
55 64 73 79 75 69 67 70 76 80 79 74 69 68 70 74 75 73 69 66 67 70 70 68 67 68 
69 67 68 70 71 71 71 68 64 65 69 74 77 73 64 61 64 66 63 64 65 66 72 80 80 75 
68 63 60 59 60 62 65 69 70 67 66 67 67 64 62 63 62 61 62 67 74 75 72 70 74 74 
69 66 68 70 68 66 62 56 53 58 64 68 69 69 58 54 57 68 64 67 69 71 66 68 66 63 
62 62 61 61 67 73 68 58 55 63 72 74 72 69 66 64 64 69 73 71 68 66 70 77 82 82 
79 76 74 73 72 71 70 71 70 69 69 71 70 70 71 70 68 67 68 72 74 72 67 65 66 66 
66 69 72 72 75 82 81 73 66 62 60 58 58 60 63 64 64 65 68 69 66 61 59 60 62 64 
66 69 73 73 68 68 73 73 66 64 68 67 64 62 60 57 56 59 63 65 66 66 57 58 61 67 
68 74 78 77 66 67 67 65 62 62 61 64 72 73 71 64 62 66 72 73 71 70 68 60 51 53 
63 72 76 73 62 64 66 72 79 79 76 74 74 72 69 69 69 68 69 69 68 68 71 72 70 67 
69 73 74 71 67 65 64 64 67 73 74 69 69 75 77 71 66 65 64 62 63 66 66 62 60 64 
69 72 68 63 61 64 69 72 71 69 67 65 64 68 75 76 70 68 70 68 64 63 64 62 61 60 
61 62 61 61 61 61 61 59 73 78 78 74 64 66 58 55 55 55 57 64 66 71 72 70 66 65 
70 73 62 65 71 74 70 65 65 69 75 81 81 76 70 68 71 74 74 72 70 68 65 63 66 70 
71 68 65 66 70 72 67 65 69 73 73 69 62 58 58 61 68 74 73 64 61 66 69 66 66 70 
70 68 69 73 70 63 58 64 73 76 75 71 68 68 73 78 76 70 65 62 62 67 76 79 75 74 
76 73 70 70 71 68 61 58 57 57 57 58 63 59 57 59 72 75 72 66 64 66 63 62 61 58 
58 64 74 77 75 72 69 72 78 74 63 56 62 70 79 77 72 68 68 68 69 68 66 65 66 70 
73 75 81 81 79 72 64 69 72 69 66 67 70 69 64 63 69 74 74 67 58 53 55 62 71 76 
72 63 59 62 65 64 66 71 74 72 72 75 73 65 61 66 74 77 76 74 70 68 73 80 81 77 
72 68 66 69 75 76 74 75 78 75 72 72 72 66 59 55 55 56 58 59 63 60 58 64 67 70 
66 62 66 64 66 68 66 61 61 66 71 73 72 66 63 67 74 74 60 54 60 70 74 73 70 67 
64 59 60 66 70 74 78 65 64 62 66 74 69 61 62 67 70 70 68 67 66 60 57 62 70 76 
77 71 61 55 57 66 73 75 70 63 61 64 66 65 67 73 75 73 73 75 72 67 65 68 71 71 
71 71 68 66 70 78 83 82 78 74 74 75 75 70 68 72 74 72 70 70 68 64 59 57 58 59 
62 64 66 66 65 68 64 69 67 63 67 56 60 65 66 65 65 66 65 64 63 62 60 63 72 71 
63 57 60 70 74 72 70 70 66 54 50 54 66 73 79 82 80 74 68 66 69 76 79 80 81 81 
79 64 70 70 69 69 70 71 73 73 67 61 62 69 72 70 65 61 63 68 70 69 71 76 76 73 
72 73 71 69 67 67 67 67 68 69 67 66 69 74 77 76 74 73 76 79 76 67 65 68 69 69 
70 70 68 65 63 62 61 61 64 70 74 76 71 67 62 71 71 67 65 53 53 58 65 67 68 66 
62 60 61 61 61 69 71 73 70 66 67 70 69 64 61 66 76 80 77 69 65 64 67 68 68 66 
65 65 64 62 60 68 74 73 64 61 65 69 71 68 64 66 72 72 70 69 65 67 70 70 65 62 
65 71 72 71 75 80 77 71 68 68 70 69 68 65 64 65 68 70 69 69 70 69 67 66 66 67 
72 77 73 66 65 66 66 66 71 72 69 66 65 64 60 59 66 77 79 78 71 62 65 58 53 53 
