P2
112 112
255
66 64 64 69 71 67 58 56 65 79 85 78 70 71 78 78 69 68 79 84 75 62 61 72 79 79 
80 81 80 75 71 72 77 79 73 69 74 82 81 74 70 70 69 72 82 86 79 74 80 82 75 68 
68 72 71 65 60 56 54 56 65 77 81 77 72 68 65 69 79 81 77 75 75 78 82 82 76 71 
68 66 68 75 80 79 71 66 71 75 75 77 78 72 61 58 66 74 72 66 65 63 60 59 55 53 
60 68 70 69 70 70 64 64 65 72 74 69 73 72 66 64 68 73 74 73 69 68 69 70 67 66 
74 80 74 63 60 66 75 83 87 90 88 80 69 65 69 74 71 67 73 82 81 74 75 80 79 77 
82 87 81 71 67 67 62 61 66 70 68 66 65 63 60 59 66 74 75 69 65 67 72 77 76 68 
62 65 78 87 89 86 80 74 70 67 67 69 73 76 75 72 73 73 71 71 75 74 65 58 61 69 
66 57 54 58 64 65 58 50 55 71 76 75 81 82 75 65 64 71 75 67 74 76 72 71 74 72 
66 67 71 68 66 66 65 62 62 69 72 70 66 65 71 78 85 89 88 77 62 57 64 71 69 66 
73 82 80 75 77 84 84 78 77 80 79 73 68 61 59 62 68 68 63 61 67 72 71 68 69 73 
72 69 66 71 77 80 73 59 52 61 79 91 93 90 88 82 74 69 66 66 69 78 82 80 78 78 
73 69 72 77 74 67 65 67 63 55 54 60 68 71 63 56 64 78 83 81 88 93 81 66 67 71 
72 68 78 81 76 75 79 75 66 65 71 73 71 71 69 60 58 62 72 79 76 71 72 78 83 86 
83 72 62 62 69 75 72 68 74 81 81 77 78 81 81 79 77 77 79 82 79 72 68 72 76 71 
61 59 70 78 77 71 68 68 72 72 72 73 76 75 68 60 56 62 77 85 85 91 95 91 78 65 
60 60 65 75 82 78 77 80 78 72 71 78 79 73 69 65 59 56 59 64 70 74 70 64 70 83 
85 83 87 91 82 70 73 73 71 68 83 88 82 78 82 78 66 61 66 74 79 81 76 65 61 68 
78 84 82 76 78 84 85 80 74 68 70 77 82 81 75 69 71 77 78 76 74 74 75 79 82 78 
78 84 85 80 77 82 86 80 66 62 72 79 74 66 61 61 66 72 74 75 76 72 67 66 68 69 
73 75 75 82 95 92 73 58 55 57 62 71 74 72 73 79 80 74 75 78 76 72 67 62 56 55 
60 67 71 75 75 69 69 77 81 80 80 79 76 73 72 68 68 68 82 90 86 82 83 78 67 58 
61 69 78 81 73 63 64 71 80 81 76 72 77 83 84 75 64 67 78 88 90 84 74 68 70 73 
71 68 68 69 73 78 80 75 72 77 80 75 75 82 91 86 72 65 71 75 70 63 57 56 60 66 
70 75 77 74 71 73 72 71 70 71 70 76 88 87 69 57 60 66 69 73 72 68 72 78 73 70 
73 77 73 67 65 62 58 56 62 68 74 79 79 72 67 67 73 74 73 71 69 71 65 61 61 66 
74 82 85 83 78 74 67 63 62 66 69 69 62 55 61 71 75 73 69 66 69 76 80 74 64 65 
76 86 86 80 70 66 69 73 67 63 68 73 73 74 74 71 71 75 75 71 67 74 85 84 71 63 
66 70 69 64 61 59 61 63 65 69 73 72 71 72 69 65 69 73 71 72 81 81 71 69 75 78 
78 77 74 71 75 78 71 64 70 74 69 64 63 64 63 62 65 72 77 82 84 80 71 67 67 70 
71 71 69 69 67 62 63 68 69 74 78 77 70 66 67 66 66 64 61 57 53 54 63 73 74 71 
72 72 70 72 78 79 70 64 66 72 77 75 66 61 67 70 66 64 73 81 76 70 70 73 76 78 
77 72 68 70 78 80 69 60 61 67 69 69 66 65 66 67 66 66 68 68 68 67 63 62 68 75 
71 70 77 80 77 80 87 83 79 81 79 75 76 78 75 71 72 71 65 60 62 66 68 65 66 70 
77 82 88 87 82 74 69 68 72 75 76 72 76 77 79 72 72 72 72 68 65 67 66 65 63 61 
56 55 57 64 75 81 78 76 81 85 79 72 76 79 73 65 60 60 69 71 62 58 62 65 62 65 
77 82 75 67 69 75 76 74 74 76 76 75 82 85 77 64 61 65 69 71 70 68 70 70 70 71 
71 69 65 62 61 65 72 76 72 69 74 76 75 81 84 79 73 79 83 78 73 76 80 84 79 69 
62 63 66 73 75 71 65 69 74 78 81 83 82 76 70 67 71 79 80 78 78 83 84 75 77 73 
68 66 71 78 74 64 60 58 55 56 66 78 85 88 81 75 79 86 83 75 74 76 77 73 63 61 
67 71 65 63 65 62 57 63 75 79 72 67 70 72 70 64 65 74 80 81 86 92 85 71 62 62 
67 72 74 71 66 66 70 73 74 67 60 57 60 66 73 74 71 71 70 64 61 67 74 72 69 73 
80 79 72 70 81 87 82 71 67 72 76 81 83 76 69 70 75 73 70 69 70 71 68 66 70 77 
79 77 72 78 80 73 76 72 67 70 81 87 81 68 64 62 60 63 75 83 87 86 79 67 66 75 
82 81 75 77 83 82 72 62 63 66 68 71 73 65 57 64 76 76 70 68 69 67 65 62 63 71 
80 83 86 88 83 71 63 62 67 75 78 73 65 62 68 71 65 58 53 53 60 66 66 65 65 68 
64 52 48 58 72 74 69 68 74 79 74 71 77 83 79 74 77 80 78 78 80 78 72 73 75 73 
65 59 62 67 68 66 68 73 72 69 68 74 74 68 71 71 71 75 84 86 78 73 74 72 67 70 
78 83 82 81 75 62 55 66 81 83 77 76 84 86 72 58 54 58 63 73 76 67 62 70 79 76 
66 62 61 62 66 71 70 73 79 82 82 81 77 75 73 72 71 77 81 77 69 66 71 69 60 50 
51 60 69 69 62 56 60 63 59 51 52 65 78 81 74 69 72 80 81 77 77 78 76 77 84 83 
72 68 74 75 71 70 72 74 70 64 62 67 69 66 65 68 67 65 69 72 72 66 69 72 76 80 
82 79 73 72 78 75 68 67 75 76 76 76 73 63 57 64 76 78 71 72 82 85 74 59 56 56 
61 69 74 70 67 74 79 70 58 53 51 53 66 74 74 74 79 82 79 77 79 86 90 84 74 74 
81 78 69 68 71 71 62 54 57 70 78 73 60 57 63 69 62 57 64 75 82 80 77 73 75 80 
83 82 80 78 74 78 85 81 69 64 71 75 71 68 72 79 80 72 64 63 65 63 65 68 67 66 
68 69 69 65 67 72 74 77 78 74 70 71 75 76 70 68 68 69 71 74 74 68 65 67 71 70 
65 69 80 85 79 72 71 68 64 63 67 72 73 77 77 68 57 55 52 52 58 67 68 69 77 83 
80 75 77 89 92 83 72 72 78 75 65 61 67 70 64 57 58 66 72 64 58 59 72 77 69 62 
66 75 77 76 76 77 76 76 78 83 86 80 73 74 80 77 68 65 69 71 69 68 74 84 87 76 
62 58 58 61 66 72 72 68 64 64 64 61 64 69 70 72 74 72 68 68 73 80 85 83 75 69 
69 72 72 72 71 71 69 65 63 70 80 84 81 81 83 78 64 56 61 72 81 85 81 73 66 68 
68 62 56 57 60 67 78 86 83 72 66 70 72 68 64 69 74 70 62 59 64 69 64 56 52 56 
58 55 53 60 69 74 69 64 66 72 76 76 78 77 73 69 71 82 90 86 75 72 76 73 65 61 
65 65 65 67 72 81 87 79 66 61 61 62 66 73 72 67 64 65 66 60 64 68 71 74 76 74 
67 65 71 85 98 98 86 73 70 68 64 66 68 72 70 65 65 71 78 77 75 79 83 78 66 57 
60 74 85 90 88 80 74 78 81 72 60 55 59 68 80 87 82 70 57 50 49 50 55 62 68 67 
65 69 72 71 65 59 57 56 58 60 62 62 62 63 63 66 70 75 79 79 75 72 69 66 68 79 
90 89 81 78 78 74 61 55 59 64 66 66 66 72 79 80 74 72 73 70 70 69 66 63 69 72 
72 65 71 76 79 83 82 76 69 64 66 78 89 92 80 73 72 68 60 54 62 70 71 66 66 72 
73 68 67 72 77 75 72 71 73 77 80 83 85 79 71 74 77 72 59 56 60 69 77 81 77 67 
56 48 41 42 48 55 61 67 73 79 80 71 64 65 66 63 64 70 73 68 63 59 61 65 70 75 
75 72 69 69 71 74 75 80 84 84 82 81 83 74 60 54 58 66 69 65 62 63 71 75 77 81 
82 80 77 72 65 64 73 75 74 68 79 87 91 89 84 76 71 68 66 66 72 72 68 69 76 77 
64 55 59 71 74 69 68 73 71 65 64 68 69 70 74 81 85 78 69 69 72 70 62 61 65 61 
52 50 57 66 73 75 71 64 57 49 41 39 45 53 61 68 74 79 77 66 59 64 67 62 58 65 
70 71 67 66 65 64 67 71 73 70 68 73 78 81 81 79 76 76 76 77 78 74 66 63 65 66 
64 62 59 60 66 71 75 78 81 83 83 77 69 68 73 76 75 68 83 94 95 87 78 76 79 78 
73 69 68 67 65 69 80 85 76 64 66 74 75 68 67 71 70 67 66 67 65 62 67 77 81 75 
64 60 65 63 58 58 61 57 48 46 55 67 73 72 66 58 52 44 36 35 42 54 62 63 66 72 
71 61 54 60 64 57 54 57 64 67 69 70 69 69 69 76 81 83 80 78 78 77 75 73 73 73 
72 70 68 73 79 78 71 62 57 59 61 61 67 72 73 72 73 78 81 77 71 69 76 80 81 71 
85 95 89 78 73 78 87 87 79 74 75 76 72 73 79 82 78 70 70 75 71 62 59 63 67 68 
67 66 64 61 63 67 72 69 64 65 69 67 61 61 65 61 52 53 61 73 77 69 57 48 44 39 
33 33 42 54 58 57 58 66 70 61 54 59 65 63 59 64 66 67 65 65 67 69 76 84 93 95 
89 76 68 65 64 66 70 76 76 67 64 73 87 88 73 60 60 67 69 68 70 75 73 69 70 75 
76 71 67 70 79 85 86 79 87 91 84 73 73 81 87 82 75 71 75 80 83 78 73 72 70 69 
71 71 65 54 50 53 60 65 64 63 65 68 67 68 69 67 66 72 78 75 65 59 61 61 59 64 
75 82 78 63 48 40 41 42 38 35 42 53 58 58 62 69 72 65 55 58 67 65 63 65 70 66 
58 52 54 61 72 84 94 95 83 67 58 59 59 57 63 76 79 73 68 77 88 84 71 60 66 78 
80 75 75 78 74 70 74 77 73 67 65 72 78 81 81 79 84 85 81 78 78 81 81 74 69 69 
69 77 83 79 68 62 62 65 69 69 65 57 50 48 56 62 61 57 63 71 73 70 70 68 67 75 
83 77 61 49 48 56 63 72 83 87 78 59 44 39 43 50 49 42 44 56 66 69 70 69 68 62 
58 61 66 63 54 54 61 62 51 42 41 51 65 78 88 88 76 60 59 63 58 49 51 64 74 74 
76 84 87 81 68 63 70 80 84 81 80 80 76 72 74 77 72 68 69 74 78 78 77 79 82 85 
85 85 85 81 77 75 74 71 68 70 75 74 66 60 60 63 67 69 70 68 60 54 56 63 59 55 
63 73 73 67 65 64 64 70 77 72 56 43 46 54 66 76 83 85 76 61 49 46 51 58 59 52 
52 63 79 83 76 62 55 54 59 67 72 67 55 51 59 63 53 41 40 48 60 73 81 80 72 67 
69 73 63 49 47 56 64 69 79 88 89 82 73 68 71 78 81 81 83 82 75 70 68 71 73 73 
73 75 81 82 81 79 87 90 90 89 86 81 78 79 79 74 68 68 72 70 67 65 63 62 65 68 
74 77 72 63 61 65 63 60 70 81 75 64 59 59 59 61 64 62 52 47 53 62 69 76 81 80 
73 65 60 60 63 72 76 75 71 77 89 94 85 63 46 48 60 72 81 78 69 65 74 74 61 46 
42 46 54 64 68 68 69 73 81 82 71 59 56 61 62 67 74 82 84 82 78 76 78 79 80 79 
82 81 74 66 64 69 76 79 77 77 82 83 82 76 86 89 86 84 80 77 76 77 77 78 78 81 
79 73 70 72 70 68 68 71 74 78 78 72 67 68 68 70 79 88 82 67 62 60 57 54 55 53 
50 52 59 65 69 74 80 78 69 64 66 71 78 90 101 105 103 101 104 110 101 75 54 49 
58 69 76 76 68 70 80 82 66 50 41 40 45 52 53 54 62 75 85 86 75 64 64 69 71 68 
67 67 70 76 78 81 85 86 80 76 80 83 76 68 64 71 79 80 76 76 76 76 75 64 74 78 
76 75 74 70 71 73 76 84 95 97 86 72 70 76 81 82 81 80 77 77 78 75 72 73 74 74 
76 82 82 76 71 67 61 57 58 56 52 53 60 62 63 71 79 76 67 60 63 75 89 102 116 
128 133 133 134 131 119 93 68 56 54 55 57 55 51 56 72 73 63 51 43 40 43 48 48 
52 61 76 84 84 72 62 62 72 77 71 61 55 61 69 76 79 83 83 75 70 75 79 77 68 64 
67 76 75 71 73 74 69 68 59 65 66 68 72 72 68 66 69 76 85 97 95 81 65 65 78 89 
93 93 91 86 76 72 72 73 78 80 71 62 66 75 83 81 70 63 67 71 69 57 54 59 62 61 
67 74 71 64 57 59 72 91 105 115 131 147 161 163 153 132 104 79 60 47 38 37 38 
40 54 65 67 57 52 50 49 50 51 51 55 66 75 82 81 70 58 59 68 72 69 58 53 62 74 
75 72 74 74 69 66 69 73 72 67 61 61 64 69 72 74 76 72 71 68 69 68 67 71 74 68 
63 65 72 78 80 78 72 64 65 77 87 90 90 93 87 74 64 65 72 80 79 65 48 51 71 86 
83 69 60 70 83 76 60 55 62 68 68 67 66 63 59 56 58 70 89 105 115 128 152 174 
179 165 140 111 84 57 35 26 28 34 45 64 76 72 64 61 60 58 55 51 49 54 62 69 72 
74 68 62 60 62 63 64 62 60 69 80 77 66 64 69 71 72 74 76 74 71 65 61 64 70 78 
80 76 77 77 76 80 73 66 70 76 74 67 64 67 71 71 68 71 72 71 72 75 77 78 81 80 
70 62 62 69 74 71 56 43 49 68 85 82 67 59 69 80 74 59 57 66 73 74 70 61 53 51 
52 54 66 88 112 129 145 164 181 185 172 148 120 84 50 26 19 25 34 48 67 82 82 
79 76 71 63 56 48 44 48 54 58 63 66 66 66 65 60 59 64 67 67 73 79 74 62 60 67 
75 81 86 85 81 77 73 70 74 80 84 81 73 77 79 76 79 71 63 68 81 86 80 70 68 72 
76 73 74 75 71 65 66 70 73 76 77 71 66 68 69 67 61 51 47 56 69 79 81 74 69 72 
72 66 59 60 65 68 68 68 60 49 43 43 47 61 90 123 151 172 185 194 193 184 162 
130 87 46 22 20 27 33 42 59 74 85 88 88 81 70 61 50 45 48 54 59 63 65 67 72 73 
67 62 67 69 66 69 75 71 60 57 64 73 80 83 84 78 74 73 77 83 88 84 75 70 76 77 
72 72 66 62 69 82 93 90 81 77 80 82 78 71 67 64 63 68 76 79 81 80 74 71 73 72 
63 52 49 53 59 66 71 75 83 86 82 72 61 60 64 60 53 54 59 59 49 38 35 41 58 89 
126 160 185 203 209 206 196 175 138 90 47 22 20 27 33 41 54 69 79 86 87 83 78 
70 60 51 51 60 68 70 70 71 78 85 82 74 69 66 63 67 72 69 60 57 62 69 71 71 70 
71 69 71 76 83 85 78 70 73 79 79 70 71 67 67 70 74 80 85 85 81 80 80 72 63 60 
61 66 75 83 86 87 84 76 69 71 70 57 44 42 49 55 57 62 71 84 95 95 79 64 62 62 
55 43 42 51 56 47 36 32 39 57 85 116 147 178 201 212 206 192 170 137 92 50 21 
13 18 30 42 58 71 77 78 77 78 77 76 69 60 57 63 71 75 74 76 84 93 94 86 73 65 
64 66 69 66 60 59 66 74 73 68 65 70 76 74 74 75 74 69 66 78 85 83 69 73 75 74 
70 63 60 70 77 76 73 71 66 59 61 66 68 72 77 82 85 85 77 67 63 58 47 35 34 38 
42 49 59 71 81 95 102 92 77 70 66 54 45 46 53 55 46 36 35 41 56 79 106 131 162 
191 201 191 174 154 129 94 52 18 4 7 22 41 59 72 75 71 68 67 67 72 73 69 64 61 
63 69 75 80 86 90 93 85 74 65 63 63 60 59 59 63 72 81 80 71 68 76 81 80 73 68 
64 61 67 83 86 83 69 71 75 78 74 62 56 59 65 66 65 66 65 62 64 67 66 63 64 68 
76 80 77 67 55 45 37 35 34 34 35 45 62 72 78 88 101 103 96 89 80 65 57 63 68 
61 47 40 42 49 61 82 104 125 153 183 195 181 161 148 129 96 55 18 0 3 16 32 50 
65 70 70 68 60 57 61 71 74 67 55 50 55 71 82 82 79 77 74 67 62 60 59 58 59 64 
68 74 79 75 67 64 71 76 74 72 70 66 64 71 81 79 73 71 66 69 79 84 75 66 60 57 
57 63 69 67 62 62 65 62 61 59 63 67 73 77 72 57 45 42 47 48 41 39 47 62 70 69 
76 88 100 103 103 95 79 72 81 86 76 58 51 55 63 77 99 117 128 147 178 197 186 
167 154 136 102 60 23 3 5 13 24 39 53 65 73 74 65 55 57 65 70 66 51 39 47 67 
82 81 71 63 62 62 62 61 61 65 72 75 71 68 67 63 58 61 66 69 69 72 77 77 75 77 
73 65 62 71 64 69 82 91 89 77 66 58 57 63 69 66 58 57 62 66 68 71 70 66 71 81 
81 67 54 57 64 61 53 48 52 60 61 56 56 68 83 96 102 97 79 72 80 94 91 79 74 79 
87 102 125 139 138 149 180 204 199 183 169 149 116 77 42 22 14 14 20 31 44 56 
70 77 72 63 63 64 66 67 59 46 49 68 83 82 70 61 59 64 70 69 67 72 82 83 72 62 
59 59 60 65 71 69 68 73 80 83 82 79 65 58 57 72 71 75 84 89 85 77 67 65 68 67 
66 61 55 55 62 68 74 79 77 70 73 86 88 71 58 60 69 67 59 57 60 63 61 53 49 58 
76 87 93 87 70 58 67 90 103 105 106 112 119 132 152 164 160 169 197 221 219 
205 189 170 143 111 80 55 38 25 24 30 33 39 52 68 74 76 75 70 69 75 74 64 61 
73 84 81 70 59 60 69 75 72 66 71 83 85 74 65 65 66 70 73 74 71 67 69 74 81 81 
74 61 57 57 75 80 78 76 77 72 65 63 71 75 71 62 57 59 62 65 66 70 74 75 71 75 
86 87 71 56 59 67 67 62 63 68 70 69 64 64 70 84 89 84 76 65 58 67 95 119 130 
137 146 153 165 181 191 194 207 231 247 246 235 221 199 174 147 120 96 73 51 
38 30 22 18 32 53 70 78 79 71 70 78 83 72 66 73 82 78 63 55 59 69 75 70 62 66 
78 81 73 69 73 76 75 72 70 65 62 61 65 75 78 71 61 58 57 76 84 78 67 64 64 59 
59 67 73 68 62 63 67 70 68 64 63 68 68 66 70 78 80 70 62 63 69 66 61 64 69 73 
75 78 82 90 92 87 77 70 70 77 92 116 135 149 161 174 185 198 213 221 230 247 
255 255 255 255 251 226 198 172 148 129 107 84 61 40 21 14 24 43 60 68 66 58 
59 70 78 73 69 76 83 75 60 51 57 69 74 70 63 66 73 72 66 65 72 77 75 71 66 63 
59 57 60 71 78 71 65 62 60 75 82 79 69 66 67 67 64 66 67 65 65 72 78 76 70 66 
65 65 61 56 59 68 71 69 68 72 70 62 56 59 65 68 74 82 89 92 90 78 67 67 78 95 
114 132 143 157 177 192 204 220 235 245 255 255 255 255 255 255 255 245 217 
192 172 157 141 119 94 68 40 29 31 37 45 51 52 49 52 63 71 74 74 78 79 69 54 
49 58 71 77 75 69 67 67 64 58 59 66 73 77 76 71 66 64 62 65 74 79 73 73 71 70 
77 81 81 77 74 76 76 75 74 70 70 74 80 81 75 67 67 69 64 55 49 52 60 62 59 59 
66 66 58 55 57 61 64 70 78 82 79 75 70 65 68 81 102 120 130 137 154 178 196 
207 224 241 255 255 255 255 255 255 255 255 255 238 219 204 194 176 154 130 
101 71 48 33 25 26 37 46 51 56 61 66 70 73 73 66 55 48 49 61 72 79 79 72 65 62 
59 59 61 63 69 77 80 74 67 69 71 74 77 77 74 83 85 81 83 81 80 77 73 74 76 79 
78 77 78 80 80 75 66 60 65 71 67 56 51 56 61 57 47 44 49 57 61 62 63 60 60 69 
72 69 67 67 71 72 74 81 96 112 119 124 143 169 188 201 218 237 250 255 255 255 
255 255 255 255 255 255 250 243 235 217 191 161 129 93 61 32 14 17 32 44 53 59 
61 57 59 64 64 54 45 47 55 62 69 77 79 74 67 61 62 65 68 65 66 74 78 69 62 68 
81 82 77 75 77 91 91 87 86 80 74 67 64 65 69 70 73 77 83 80 74 67 60 57 63 72 
70 60 54 58 60 55 45 34 38 50 63 73 69 62 65 74 77 71 69 75 80 78 74 72 80 89 
98 107 128 154 174 193 215 228 235 254 255 255 255 255 255 255 255 255 255 255 
255 255 224 189 150 110 71 42 22 23 34 41 47 56 56 50 48 56 60 52 48 51 58 60 
60 67 76 80 76 71 70 74 74 68 65 72 76 68 62 72 85 85 75 71 81 91 88 84 83 77 
67 60 59 62 63 62 63 72 80 80 73 70 67 64 68 74 72 60 50 50 52 53 46 36 32 43 
60 70 72 71 79 92 92 89 87 89 88 79 68 59 56 62 72 89 112 135 158 182 204 215 
217 229 248 255 255 255 255 255 255 255 255 255 255 255 251 214 171 128 90 62 
46 40 40 38 41 49 50 45 46 56 59 55 53 56 55 53 56 62 73 82 85 80 77 76 75 68 
66 71 76 74 72 80 88 85 74 71 79 83 81 78 75 74 70 67 67 68 64 59 60 69 78 81 
82 82 78 73 72 76 71 58 50 46 48 50 47 35 29 38 53 64 71 81 97 106 106 102 104 
102 92 79 68 56 49 47 57 72 91 112 134 159 177 187 194 207 217 220 221 227 233 
238 254 255 255 255 255 255 255 233 189 143 106 80 63 51 42 35 37 44 48 46 50 
59 62 59 60 57 52 52 61 70 72 77 81 79 74 71 67 61 60 65 71 77 82 87 91 86 77 
73 78 79 75 74 64 68 76 81 80 73 63 59 64 72 76 79 83 88 82 73 71 76 75 67 61 
59 55 54 47 35 30 40 54 65 70 80 96 103 101 104 109 107 94 80 70 65 59 52 51 
57 63 78 101 123 137 148 165 182 187 181 179 182 187 197 226 255 255 255 255 
255 255 242 197 150 111 85 64 49 36 28 32 45 56 62 66 69 66 65 66 60 51 58 73 
77 73 69 70 70 68 66 61 56 57 61 65 71 77 86 89 88 82 80 80 77 71 70 57 63 76 
87 85 71 61 65 75 78 74 71 74 78 75 69 70 75 78 79 80 76 68 61 52 41 36 43 57 
64 64 68 81 91 95 101 109 108 93 77 69 68 66 57 45 38 35 45 69 90 98 110 131 
146 147 137 136 139 142 158 194 231 255 255 255 255 255 240 198 149 108 77 56 
40 27 16 21 44 68 78 79 75 69 68 69 61 52 59 73 71 63 61 62 62 63 65 63 59 62 
66 67 64 65 72 80 81 80 80 81 73 66 66 59 62 74 85 83 72 66 75 87 85 71 61 62 
66 69 71 74 76 77 83 91 86 76 69 61 49 40 41 48 54 52 57 70 87 100 108 114 108 
93 76 68 67 62 47 35 27 21 31 52 69 76 86 102 111 103 94 95 104 110 127 167 
212 241 255 255 255 255 232 194 148 103 68 44 30 19 9 13 36 65 75 75 69 65 65 
66 60 56 60 64 58 51 53 55 55 57 62 65 66 70 76 75 69 62 64 70 71 71 75 78 70 
65 65 64 64 72 81 83 80 77 80 86 81 65 54 54 61 68 76 83 80 75 80 87 85 77 72 
65 54 42 38 43 47 49 54 71 92 107 118 120 111 92 78 70 66 53 35 27 28 30 36 49 
60 67 78 89 91 80 67 68 80 92 109 148 196 231 250 255 255 243 220 187 143 97 
59 35 24 19 14 17 36 53 62 63 65 67 65 63 61 61 63 59 50 49 51 50 48 51 59 67 
73 77 79 82 80 73 70 69 69 68 72 75 71 70 72 60 60 68 78 85 83 78 73 74 68 57 
51 53 58 65 75 84 82 73 72 76 79 76 70 64 59 54 52 56 59 60 62 72 89 104 117 
122 112 92 77 71 62 44 28 24 32 42 47 52 58 69 81 90 89 79 65 64 76 90 105 135 
181 220 242 246 240 228 207 172 129 87 53 32 25 26 29 37 48 58 59 65 75 77 70 
63 61 63 62 55 52 54 56 50 49 54 62 71 79 79 74 77 83 83 77 74 72 74 74 74 75 
78 78 47 52 65 75 80 79 71 65 66 66 59 56 57 57 56 64 75 78 71 63 67 77 78 70 
64 69 77 80 77 74 69 66 68 74 85 100 114 110 91 73 61 50 36 24 25 33 43 51 58 
66 80 94 99 97 89 78 76 91 106 116 135 172 210 233 236 228 214 189 150 107 74 
52 39 33 35 42 51 65 72 71 75 84 83 70 59 59 60 55 50 52 60 60 54 54 61 68 76 
83 79 69 66 74 78 74 71 73 75 77 75 79 81 80 41 50 66 70 69 69 68 66 73 77 74 
67 64 56 48 50 63 73 69 59 63 78 82 73 71 79 91 95 88 75 64 59 58 59 62 75 93 
101 90 69 50 35 27 27 28 31 37 49 64 80 97 110 114 111 104 95 98 116 133 141 
149 172 203 223 225 214 197 167 124 85 61 49 43 40 44 48 54 64 73 76 76 79 77 
66 58 57 57 51 44 49 60 62 57 57 63 69 76 85 84 73 67 66 68 65 65 69 73 75 76 
82 80 78 49 57 66 63 58 61 66 71 78 85 82 77 70 58 43 43 57 71 70 60 63 78 84 
77 74 77 83 85 82 69 55 52 54 52 51 58 74 88 84 68 48 32 26 28 29 25 26 42 67 
92 114 127 131 130 123 114 118 137 159 170 175 183 201 215 215 201 178 144 102 
67 48 40 36 42 52 56 54 53 61 65 68 72 73 69 64 62 59 52 45 48 58 62 58 56 61 
68 76 85 89 86 77 70 65 63 66 70 73 74 76 79 77 72 57 63 67 59 56 61 66 68 74 
82 83 77 71 60 46 44 58 72 70 59 60 72 83 83 76 67 62 66 72 65 53 51 55 56 55 
60 73 79 76 67 55 45 35 27 21 16 18 36 69 105 133 148 154 154 149 139 135 150 
174 194 204 203 209 215 211 190 161 125 86 56 40 30 28 37 57 66 58 52 51 55 59 
68 77 77 73 69 63 57 51 51 56 59 57 55 59 67 74 80 85 87 83 74 68 68 73 77 76 
73 75 74 75 72 59 67 69 63 62 69 70 64 70 83 83 74 66 61 55 56 65 72 67 53 50 
62 79 87 83 64 50 54 63 57 46 48 56 61 65 74 82 82 72 64 65 60 43 26 13 11 20 
43 79 121 156 175 183 185 181 168 159 163 184 212 227 227 226 225 214 184 147 
109 74 50 38 30 25 33 54 65 64 59 54 50 54 67 79 80 77 73 69 63 56 51 50 52 53 
55 59 65 69 70 73 78 80 75 72 74 80 83 78 70 68 71 73 72 59 68 73 68 68 74 71 
63 69 86 88 72 61 62 65 68 69 66 58 45 40 52 71 87 85 67 51 51 55 45 37 44 59 
65 70 78 88 90 77 66 66 62 46 25 15 20 36 61 96 140 179 204 213 217 214 202 
190 186 200 223 240 244 243 240 222 187 145 105 70 49 41 34 28 32 44 56 61 63 
60 53 55 69 77 75 73 74 74 69 58 47 43 46 53 59 62 64 64 65 67 74 79 79 77 79 
84 87 80 70 66 68 68 68 57 69 74 69 66 69 66 57 65 82 87 73 61 65 73 71 65 60 
51 41 37 47 63 75 74 63 50 49 50 46 44 53 67 68 63 67 84 93 87 73 62 54 41 28 
25 35 53 79 117 162 202 229 240 241 236 228 218 214 220 232 242 249 253 250 
231 196 156 117 78 51 41 38 36 38 46 51 54 60 62 62 69 77 79 70 67 70 73 69 60 
48 44 50 61 67 67 66 64 65 69 77 84 85 82 80 83 86 84 75 68 64 65 64 53 66 74 
69 62 62 58 52 55 71 82 77 70 71 76 72 64 57 52 42 37 43 53 57 55 49 45 46 53 
61 67 75 76 69 57 58 74 92 93 80 66 53 45 39 38 46 64 94 136 186 227 252 255 
254 247 241 238 236 237 241 245 252 255 254 233 199 165 127 87 53 40 40 42 48 
54 54 51 53 61 70 80 84 76 67 64 66 69 69 65 59 57 65 72 75 71 67 66 64 65 73 
84 89 84 77 76 84 88 82 71 63 67 69 45 57 69 70 65 63 62 56 55 66 80 84 80 75 
71 70 69 66 60 47 37 39 45 48 47 46 45 47 59 74 84 85 77 66 60 64 77 91 94 86 
72 64 60 55 53 58 77 112 158 202 241 255 255 255 253 251 249 249 249 252 255 
255 255 255 228 192 155 122 86 54 39 40 46 52 54 50 46 48 58 71 78 74 64 59 63 
66 64 65 70 71 74 79 82 78 70 67 66 62 56 62 77 89 86 74 70 80 89 83 70 68 77 
81 45 52 63 70 70 67 68 68 64 68 79 89 83 71 64 66 73 75 67 53 40 39 44 49 54 
58 57 56 60 72 78 75 68 66 69 77 87 94 95 86 76 73 74 73 69 78 104 142 181 213 
241 255 255 255 255 255 254 251 251 254 255 255 255 251 224 181 143 110 80 54 
42 43 49 52 50 40 38 45 54 60 63 52 40 45 62 65 57 55 63 72 77 81 83 77 69 68 
68 61 53 55 71 87 88 76 69 77 85 80 69 69 82 84 57 54 63 72 70 66 69 78 76 70 
74 83 83 71 62 63 71 75 71 58 48 45 48 54 62 69 70 66 62 60 61 62 63 68 77 87 
95 99 97 87 78 78 84 84 87 101 135 174 204 222 238 255 255 255 255 246 240 234 
232 238 246 251 247 241 220 182 140 104 75 53 43 45 53 61 54 41 39 49 54 49 43 
34 25 35 57 63 48 41 50 63 69 73 76 73 69 70 72 66 58 59 69 80 83 75 69 72 77 
74 67 67 73 76 73 67 71 77 72 63 70 83 83 72 66 73 81 79 70 66 67 70 67 61 56 
52 51 55 63 70 73 72 64 53 49 56 67 72 78 86 95 99 94 87 86 92 95 96 101 121 
154 189 217 230 240 248 250 242 228 220 214 206 201 206 214 216 213 213 208 
181 139 100 69 48 39 42 58 71 68 54 54 67 64 50 42 35 30 37 57 59 45 35 45 57 
64 68 71 70 68 70 74 72 66 66 70 72 72 71 69 67 68 68 66 60 62 65 83 77 77 80 
75 70 74 85 85 73 63 67 78 83 80 72 70 69 65 60 59 56 53 55 61 65 69 72 64 50 
45 56 71 78 76 80 89 91 88 87 101 114 114 112 117 136 163 189 212 230 237 236 
226 210 196 192 191 183 173 173 180 183 183 186 187 169 132 92 62 44 35 38 56 
74 73 63 69 81 77 59 55 52 43 44 54 55 45 41 49 60 66 71 71 68 65 70 76 76 72 
73 75 70 66 68 71 68 66 67 64 59 59 60 81 74 73 75 77 79 80 79 77 70 63 63 69 
77 78 76 75 73 65 58 59 60 59 61 65 64 66 71 68 55 47 56 74 78 72 70 76 79 78 
88 110 130 135 130 136 152 169 183 200 219 228 223 209 193 180 174 172 164 149 
143 150 157 162 166 162 143 114 82 57 42 35 38 52 66 67 61 68 79 71 65 67 67 
51 42 45 48 46 47 54 60 66 69 68 63 63 71 82 82 76 77 80 73 64 66 72 73 73 72 
68 64 62 66 72 66 62 64 72 80 79 70 63 64 63 60 61 65 69 72 73 70 60 55 60 68 
71 73 72 68 67 75 76 66 54 56 69 73 65 59 65 73 77 87 109 132 144 147 152 164 
174 182 193 207 216 215 204 194 181 166 154 141 128 118 120 131 143 142 130 
111 91 71 52 41 37 39 48 57 57 55 59 63 60 63 74 69 50 40 42 46 51 57 59 58 59 
63 64 60 61 73 87 88 81 80 82 75 63 61 67 75 81 81 73 61 65 70 64 63 59 60 68 
78 76 65 59 61 64 59 54 57 61 61 60 55 50 55 68 78 81 81 77 71 73 82 85 74 59 
52 57 61 55 51 58 71 79 87 102 126 147 158 162 166 175 185 193 202 207 206 205 
202 193 173 148 130 116 107 105 112 118 112 93 80 72 60 45 38 38 42 46 50 52 
53 57 57 60 70 78 69 50 45 50 56 64 72 71 61 57 62 66 62 61 71 84 89 86 83 82 
75 64 58 63 71 78 78 69 55 63 69 63 65 65 64 69 76 76 68 63 65 63 56 51 55 60 
59 49 42 45 59 76 87 89 86 79 72 73 81 83 73 59 49 48 50 46 46 55 67 75 82 96 
120 146 161 164 165 171 180 192 201 202 201 203 209 210 192 163 138 124 114 
110 105 99 83 67 61 62 54 40 35 39 44 46 48 51 57 62 64 69 80 82 67 53 51 59 
66 76 84 81 65 57 64 70 68 65 67 75 82 84 81 75 71 66 63 63 66 67 64 56 57 69 
73 64 68 67 65 67 75 78 74 68 65 62 54 53 60 66 62 50 43 50 66 77 82 87 87 82 
71 69 73 74 67 59 54 52 48 46 49 58 65 71 78 94 117 138 150 155 155 155 162 
179 195 202 203 207 219 226 215 189 161 142 131 120 107 88 66 54 55 59 52 39 
34 39 43 46 50 56 63 67 69 74 81 80 69 58 56 59 67 78 86 81 66 56 59 65 68 68 
69 70 74 77 72 67 65 66 66 66 63 59 56 52 71 81 83 63 65 64 60 62 71 80 79 71 
64 60 61 63 67 69 62 54 55 65 70 68 68 75 83 76 66 62 66 67 63 62 63 61 56 55 
63 69 69 70 78 94 113 123 125 130 134 133 138 155 181 202 214 224 235 244 237 
214 187 164 145 126 105 83 63 50 49 52 47 40 38 41 46 49 55 62 67 69 67 67 71 
74 75 70 60 57 63 74 81 77 66 57 53 55 61 70 74 73 72 70 66 66 69 66 63 61 59 
55 55 62 82 88 89 57 58 61 61 60 67 79 83 76 69 69 74 77 72 63 56 57 67 78 73 
63 60 68 73 68 59 59 65 68 67 67 68 65 59 63 71 74 69 68 77 94 105 105 100 103 
115 119 121 136 166 198 225 244 255 255 255 240 214 187 156 127 103 83 67 50 
41 40 40 38 38 43 49 56 60 61 64 67 65 59 59 68 79 81 70 61 65 76 80 77 70 63 
57 51 57 69 77 77 71 67 69 77 80 73 62 59 58 55 60 71 85 86 86 49 51 60 65 62 
60 70 79 79 74 77 83 81 70 59 55 66 78 83 79 71 70 74 69 62 59 62 71 76 77 76 
73 63 56 61 72 71 62 62 76 91 97 90 83 92 105 112 113 125 154 193 229 255 255 
255 255 255 236 203 164 127 99 83 66 49 37 34 37 34 32 37 49 59 61 55 54 61 65 
57 52 60 77 85 81 74 79 86 87 79 72 69 63 57 58 66 73 74 70 67 73 85 87 77 68 
66 63 61 68 79 82 80 80 48 52 59 66 62 56 60 72 74 70 69 76 73 63 60 68 76 79 
77 75 79 84 79 67 58 59 67 75 82 84 84 77 64 55 62 75 74 63 64 79 91 87 77 75 
85 98 100 101 112 141 179 218 252 255 255 255 255 246 209 165 122 92 72 57 43 
38 43 44 35 27 31 46 59 61 52 45 52 61 57 50 56 74 87 88 87 91 97 92 79 68 66 
68 67 65 66 69 70 71 73 79 85 83 75 73 76 71 67 72 80 74 75 75 62 62 62 67 67 
60 65 72 72 61 56 60 63 60 64 75 78 68 61 66 77 82 76 62 55 59 66 73 79 81 79 
77 68 59 66 81 82 72 72 84 87 77 65 68 79 82 76 74 91 120 156 194 235 255 255 
255 255 242 203 157 114 82 60 44 38 45 55 56 44 33 37 48 61 65 57 47 49 56 54 
49 57 74 87 89 86 90 97 92 77 63 63 69 73 71 67 66 70 74 77 81 81 75 71 74 78 
72 67 68 74 68 71 73 77 77 70 72 77 76 78 83 77 63 56 62 66 66 67 72 69 60 56 
67 77 79 72 65 61 62 64 69 72 72 72 73 70 63 65 76 76 70 71 79 79 70 64 66 72 
68 53 51 67 97 130 167 210 254 255 255 255 227 188 143 101 72 52 39 41 54 65 
62 53 48 50 57 64 67 63 56 55 58 55 53 59 73 83 82 76 78 86 84 71 60 60 68 73 
71 66 64 68 73 74 76 77 72 68 72 76 75 71 70 68 69 70 70 80 84 75 76 84 85 83 
87 85 75 70 77 80 74 67 65 62 62 71 82 85 81 76 74 75 71 68 66 68 66 66 70 70 
64 59 60 59 57 61 70 77 76 74 72 67 56 44 41 55 81 111 146 187 228 255 255 235 
204 169 128 89 61 46 44 53 65 70 64 58 62 65 65 63 62 61 60 63 65 63 60 62 70 
75 72 64 65 70 69 59 57 61 66 68 66 62 61 65 68 70 72 74 71 67 68 76 85 89 85 
75 72 70 68 75 80 73 73 81 80 77 79 85 83 82 85 86 74 63 61 66 72 80 87 82 76 
74 81 84 81 72 66 64 63 63 66 69 64 54 49 49 53 59 70 82 91 87 72 58 48 43 44 
53 72 98 128 161 195 217 219 202 178 151 118 82 55 46 50 62 72 69 62 61 67 72 
69 62 57 53 56 62 68 69 67 68 69 70 64 56 53 54 49 47 54 66 70 66 62 60 63 66 
70 73 77 77 72 66 65 73 89 100 95 81 72 72 70 73 76 68 66 73 73 68 73 82 85 84 
82 76 66 60 65 77 81 78 71 63 61 67 79 87 84 71 61 59 60 60 64 68 66 58 54 55 
62 67 75 87 94 87 64 46 45 50 52 57 67 85 110 134 159 178 181 168 149 131 107 
77 55 48 56 66 71 69 64 63 66 65 65 64 58 52 51 58 64 62 65 68 72 70 62 52 47 
47 45 48 62 76 77 70 64 63 68 75 80 84 85 82 74 67 64 67 78 87 87 75 71 78 79 
77 77 66 62 69 71 69 75 87 87 80 74 68 58 56 69 81 85 75 59 51 53 65 78 85 80 
65 51 50 54 60 66 71 72 69 66 67 68 71 75 82 84 74 57 48 53 65 69 68 68 77 94 
112 130 145 147 133 115 103 87 69 53 52 61 69 71 72 74 72 63 55 54 58 59 52 51 
58 58 53 49 57 67 70 66 57 53 55 61 65 74 82 81 76 69 64 71 83 90 92 88 80 75 
72 68 66 66 70 68 67 72 83 86 77 77 68 64 68 71 72 83 92 87 74 67 65 59 55 61 
74 80 75 66 58 60 67 75 79 72 58 46 43 49 60 70 75 75 73 70 66 64 63 66 70 73 
68 62 64 70 77 83 81 78 77 89 101 112 120 120 105 85 71 64 54 47 52 67 75 73 
76 83 83 68 52 43 42 43 42 48 60 64 51 41 46 56 64 65 66 66 70 76 81 79 77 80 
81 74 66 72 88 95 91 83 76 76 81 80 73 71 69 67 66 74 79 80 73 75 72 70 72 69 
71 84 95 84 67 64 69 67 60 56 60 68 76 74 70 68 67 64 64 63 58 50 44 48 59 69 
72 69 63 57 49 49 52 55 59 65 72 78 80 78 77 80 85 81 81 90 100 103 103 101 
88 68 55 50 46 44 54 71 77 72 72 83 86 77 57 39 27 20 26 42 63 71 61 49 46 50 
52 58 66 71 73 75 76 74 71 77 86 81 73 77 90 94 85 74 74 83 88 85 78 74 76 77 
74 77 70 70 66 69 71 74 74 68 66 80 91 82 66 67 78 78 68 59 55 61 72 75 72 69 
64 54 47 54 64 61 51 49 57 65 65 58 50 41 37 40 48 51 55 63 74 86 91 81 66 65 
71 73 74 85 97 98 94 91 83 66 53 49 47 46 55 72 75 66 67 77 84 78 64 42 21 16 
22 40 58 68 68 62 62 59 51 50 61 69 67 66 67 70 72 79 88 87 79 81 89 88 80 73 
75 84 86 78 71 70 76 82 83 75 65 62 58 57 60 67 70 65 63 73 85 79 72 77 83 79 
70 63 62 66 71 71 67 68 68 51 43 54 70 69 57 52 55 59 59 55 49 44 42 48 53 55 
56 62 70 80 88 79 62 55 60 64 64 74 87 92 88 85 79 67 56 53 50 45 50 63 68 66 
71 84 84 80 68 50 32 28 38 48 53 59 63 70 77 75 62 53 61 69 68 63 70 77 80 82 
86 84 80 80 84 85 80 79 80 81 77 73 68 68 70 78 82 71 64 61 56 49 47 55 64 66 
67 72 76 76 76 83 84 72 64 67 71 74 73 64 59 69 75 64 52 60 77 74 60 53 55 54 
53 57 61 59 56 56 58 58 60 59 56 62 71 74 64 57 62 64 62 63 74 81 79 76 71 61 
53 51 47 41 44 54 62 70 84 91 88 80 73 60 47 45 52 56 52 52 61 71 80 83 73 65 
69 76 75 74 79 88 87 81 78 77 77 80 83 86 87 87 84 80 76 76 76 70 66 71 75 70 
68 66 61 51 43 49 63 74 79 78 75 73 77 82 77 65 59 67 75 75 66 54 48 61 77 75 
63 68 81 79 64 57 57 55 55 63 72 72 62 55 54 58 62 59 47 43 55 67 67 63 67 71 
65 60 65 71 71 67 63 53 46 44 43 42 48 59 64 72 83 84 77 74 71 63 53 52 54 53 
51 56 63 70 73 75 74 73 75 77 78 79 86 90 86 77 71 69 73 82 89 90 90 88 84 79 
78 79 79 74 69 70 72 72 71 73 67 58 49 53 65 79 84 81 77 73 74 75 67 58 56 63 
68 69 61 47 41 52 73 76 68 67 77 76 68 63 64 64 66 75 81 76 63 52 50 58 67 65 
52 41 49 63 64 57 60 67 68 64 65 69 68 69 65 56 40 36 42 53 66 75 75 72 69 66 
63 65 66 60 55 53 51 49 52 61 68 67 64 65 69 74 76 73 70 72 80 83 79 73 66 62 
65 77 87 87 83 81 77 75 76 77 76 80 84 84 78 68 71 75 70 65 60 65 74 76 75 75 
73 73 70 64 59 55 56 58 63 68 66 55 46 54 72 80 70 62 65 69 69 69 71 74 78 82 
84 77 65 56 53 58 67 70 59 51 53 56 51 43 45 58 66 70 73 74 71 72 76 68 49 37 
41 59 77 83 78 69 62 57 61 66 64 59 58 58 54 52 59 66 67 63 61 63 66 73 78 73 
64 63 68 73 75 74 69 60 57 65 72 74 74 74 72 69 70 73 78 87 99 97 80 62 67 73 
70 70 72 82 87 78 66 63 66 69 66 61 59 63 64 63 66 75 77 70 62 65 79 85 76 61 
54 61 69 71 71 73 75 79 78 75 70 65 60 57 58 59 58 54 55 50 37 33 42 58 66 72 
76 73 66 66 77 78 65 46 44 55 68 75 70 65 63 65 70 72 66 60 64 62 56 57 67 73 
65 60 64 67 68 73 81 78 65 57 61 67 73 77 75 66 60 61 65 65 69 73 71 66 65 70 
79 88 95 88 74 66 69 73 68 70 77 94 97 81 66 63 65 67 65 63 67 76 77 74 73 79 
83 78 71 71 80 87 81 64 54 60 71 73 66 60 62 67 70 70 71 72 66 57 51 49 51 59 
58 46 34 36 52 66 70 68 67 63 54 53 65 79 71 55 45 47 55 63 69 69 70 74 78 76 
70 70 69 64 52 56 72 77 69 66 73 77 74 74 79 77 64 55 59 66 69 71 71 68 66 72 
72 68 67 73 73 67 63 66 72 78 77 73 69 73 71 70 71 71 81 93 93 80 71 73 74 74 
69 66 71 81 83 76 73 77 80 78 73 70 72 80 79 69 60 68 81 78 63 53 54 61 65 67 
71 74 70 60 52 50 58 67 66 50 38 45 60 70 68 62 56 53 49 49 60 70 66 53 45 45 
52 65 75 80 77 77 80 80 79 81 79 64 51 56 73 80 75 75 83 87 81 74 72 67 60 59 
64 68 65 59 57 60 70 78 80 71 65 71 78 75 67 65 67 71 70 70 72 73 66 64 80 81 
84 88 80 71 73 79 84 81 74 65 66 74 76 71 68 74 76 73 68 65 65 69 71 66 63 75 
88 84 66 55 58 64 66 67 72 78 72 61 53 54 65 74 68 54 46 51 61 65 61 55 53 55 
58 63 67 63 53 46 44 45 52 66 80 80 76 74 79 85 87 87 83 69 59 62 74 77 77 80 
87 89 80 68 63 62 63 67 73 72 62 54 52 58 68 77 75 66 63 72 85 87 80 71 71 75 
77 74 74 65 62 62 89 90 88 81 71 64 69 78 81 79 70 60 59 66 70 67 68 72 71 66 
63 63 62 61 62 57 59 70 84 80 67 59 62 65 65 68 77 81 74 58 49 54 64 68 62 54 
54 57 60 62 62 57 58 63 69 75 74 62 46 44 49 51 51 60 70 72 68 70 79 87 87 83 
76 70 67 71 72 70 71 79 84 81 70 60 58 64 71 78 81 76 64 59 63 67 69 72 70 63 
63 74 85 92 89 81 78 82 82 74 67 60 64 65 89 91 86 77 67 65 70 73 75 74 67 58 
59 68 72 69 69 72 68 63 66 68 66 65 62 59 55 63 73 73 65 64 66 65 63 67 77 81 
68 52 49 57 67 62 56 58 61 62 63 67 70 71 69 67 67 70 72 61 49 50 59 60 55 54 
61 67 68 70 79 87 83 71 62 61 65 69 64 58 63 73 79 74 62 56 60 69 77 84 86 78 
67 65 71 73 70 70 71 69 69 70 73 78 84 84 79 79 78 68 60 63 67 68 87 89 83 71 
66 70 76 77 76 72 67 64 66 73 76 72 69 70 70 70 75 78 76 77 78 71 65 66 70 71 
71 73 75 69 67 70 75 71 59 48 54 69 75 67 60 63 65 61 64 72 76 75 75 66 58 61 
65 60 52 55 63 64 56 54 61 72 76 74 80 86 80 65 54 53 58 60 58 53 59 70 75 71 
63 61 66 73 79 84 85 76 66 66 73 73 69 71 74 76 75 68 59 59 70 75 73 71 68 63 
60 65 67 66 89 88 79 67 64 74 85 86 80 74 70 71 75 76 75 71 68 70 77 83 85 81 
77 81 86 83 78 75 74 72 73 80 82 78 74 76 74 63 52 49 59 73 80 72 66 65 63 58 
62 70 70 66 66 63 58 60 66 61 55 57 61 60 53 51 60 75 77 74 75 80 73 61 55 55 
58 61 62 61 64 70 73 70 67 69 72 75 76 78 77 71 66 72 80 78 72 69 71 75 78 73 
60 56 60 63 64 66 66 64 62 62 65 64 86 82 73 64 66 77 86 87 81 74 73 77 80 78 
73 69 66 69 77 85 85 76 69 74 80 81 79 80 75 66 64 73 79 78 74 72 69 61 53 53 
58 64 72 70 67 67 64 60 62 66 64 59 60 62 61 63 66 64 61 63 65 62 57 53 60 70 
72 67 66 66 62 56 58 61 64 72 77 74 71 71 70 70 71 75 76 75 72 70 68 67 71 82 
90 87 76 68 65 72 82 85 76 66 59 56 57 64 70 65 60 57 63 65 75 70 68 66 69 77 
78 73 72 75 79 84 84 78 72 69 66 67 71 77 78 73 68 68 73 73 74 78 74 63 56 61 
71 71 64 61 61 61 61 57 51 55 66 71 70 72 74 68 65 66 66 67 70 66 58 56 59 63 
65 67 70 73 69 67 65 68 68 64 60 57 53 56 61 65 69 79 88 84 76 73 72 71 75 80 
77 72 71 71 69 69 77 86 89 84 77 69 65 74 87 92 86 75 64 58 60 66 68 63 56 58 
64 67 69 65 67 73 78 76 67 58 60 75 88 91 89 82 77 72 68 67 68 71 75 78 76 75 
74 72 70 72 75 70 60 61 67 67 57 53 57 64 68 62 52 54 70 78 77 82 87 80 67 64 
70 77 77 68 52 46 51 56 58 57 66 75 81 78 74 72 72 68 61 56 57 62 68 68 71 79 
85 85 80 80 79 75 76 78 74 68 70 75 74 72 74 76 73 69 72 74 74 77 85 87 81 72 
67 67 69 68 63 58 55 65 66 66 71 68 70 76 80 74 61 52 58 75 88 92 91 91 88 78 
69 66 65 67 75 82 81 79 79 76 70 70 77 77 71 67 67 63 57 55 60 67 72 67 59 63 
78 85 82 88 94 86 70 63 69 75 73 62 50 46 50 54 50 49 57 71 79 79 74 75 76 72 
65 61 64 70 74 74 71 72 75 79 83 86 83 75 71 71 69 66 68 73 74 71 67 63 56 57 
67 78 82 77 72 72 68 62 63 73 75 67 60 58 60 71 67 65 73 73 74 75 75 69 63 58 
63 73 81 82 86 95 95 81 64 58 59 62 72 79 78 75 80 80 75 72 77 79 74 69 65 60 
55 59 64 69 74 73 67 69 79 85 82 84 89 83 72 69 70 71 66 59 54 53 56 59 59 58 
64 73 76 74 70 71 74 72 68 69 70 70 71 73 69 65 71 81 88 89 82 72 66 67 69 70 
70 70 68 68 67 62 57 56 66 80 83 74 65 63 63 59 61 68 72 66 62 66 71 75 68 67 
69 73 75 77 74 68 68 70 69 72 74 72 78 91 94 76 59 55 57 62 69 73 71 71 77 79 
74 73 78 77 71 67 63 57 55 59 66 71 75 77 72 68 73 78 79 78 76 74 73 73 73 69 
66 64 62 59 60 64 72 77 79 81 79 73 66 62 62 66 72 77 76 66 62 64 65 67 77 95 
97 87 77 73 71 72 76 80 78 70 67 69 73 72 69 66 69 78 82 77 69 69 70 68 66 68 
66 66 70 76 79 70 65 65 64 68 72 77 75 72 72 73 70 69 71 70 72 84 87 73 60 63 
68 71 74 73 69 71 77 73 67 70 76 74 67 64 63 60 58 61 68 74 79 81 75 68 66 69 
73 73 70 69 70 70 66 65 68 72 72 66 62 68 78 83 82 80 79 74 62 53 54 61 75 84 
80 68 57 59 65 73 90 104 100 82 70 75 82 79 77 81 79 69 62 68 74 77 78 79 78 
78 82 81 76 75 77 77 77 74 71 71 77 82 79 62 59 62 64 64 67 70 72 70 71 68 64 
67 73 72 70 77 81 75 72 77 82 79 79 76 72 75 79 73 66 68 73 70 63 62 64 64 63 
64 71 77 82 85 84 77 69 67 68 70 72 71 70 65 61 61 71 81 82 76 72 76 84 81 74 
71 76 74 64 54 54 63 73 80 81 71 63 65 72 78 89 98 93 76 66 75 84 82 74 72 70 
60 57 63 71 73 81 88 87 83 81 78 74 71 73 75 78 77 78 80 80 77 71 59 59 62 68 
68 66 68 68 67 66 63 61 67 75 73 69 74 79 78 81 87 84 79 80 81 78 75 77 78 75 
74 72 65 60 62 67 70 67 65 68 75 80 85 88 85 78 70 67 70 76 77 75 70 68 71 80 
86 86 83 83 89 91 84 71 68 74 81 75 65 61 64 67 67 69 70 71 76 82 80 77 82 84 
75 67 70 81 82 77 73 68 62 60 67 71 74 80 88 90 84 77 69 63 62 64 67 68 72 78 
83 79 71 65 68 66 67 70 70 73 73 70 65 62 60 64 71 76 73 69 72 74 72 74 82 78 
72 75 82 80 73 74 79 86 83 71 64 63 68 75 79 74 67 68 73 76 78 79 80 76 71 66 
70 77 81 79 78 78 84 88 88 83 79 84 92 96 87 75 70 79 89 89 76 66 65 64 58 56 
65 77 88 90 79 67 68 78 82 73 70 79 87 87 83 79 76 73 76 79 80 81 83 83 81 75 
65 59 61 64 62 61 63 74 81 78 74 72 78 72 72 64 68 72 73 67 59 55 59 64 71 72 
71 70 69 62 56 60 70 74 68 70 77 80 74 69 77 86 83 73 69 74 77 81 83 79 71 71 
75 74 68 65 66 69 68 66 69 75 77 76 76 81 85 88 85 78 74 76 85 90 84 74 70 74 
86 88 77 67 68 68 58 54 66 85 97 95 80 64 61 73 82 77 69 76 85 87 81 82 83 81 
78 81 85 84 78 72 73 73 71 70 70 69 62 58 63 72 79 80 83 84 78 71 70 63 66 70 
65 56 51 52 59 67 65 62 63 66 64 53 47 56 71 76 73 68 71 78 78 72 75 81 80 75 
78 81 78 75 78 77 73 71 75 74 67 61 61 66 69 66 67 71 71 68 69 75 78 78 76 73 
69 71 79 83 81 75 67 64 71 75 70 64 69 71 65 61 73 94 100 92 81 68 62 68 78 75 
66 67 75 75 69 72 79 76 71 72 83 84 73 63 63 70 79 84 80 68 60 61 68 74 76 79 
84 86 71 69 69 67 71 71 62 52 52 61 71 72 64 55 58 64 61 53 54 66 79 82 77 71 
71 79 82 80 77 78 77 77 84 85 73 66 71 75 72 69 71 75 74 67 63 66 68 66 65 67 
67 64 67 72 72 68 66 65 66 71 79 83 81 76 67 58 56 61 62 63 68 73 70 72 83 94 
91 84 79 76 69 70 78 78 69 65 68 68 66 72 78 76 66 67 76 79 71 60 56 66 81 88 
81 68 61 70 81 78 71 69 73 75 69 73 76 66 70 72 65 56 57 68 78 75 62 57 65 70 
67 59 62 74 80 80 77 75 75 78 82 83 82 79 74 75 83 82 71 63 69 74 72 68 71 79 
83 76 64 61 62 63 64 68 70 67 68 72 70 66 63 64 68 79 85 84 78 71 62 54 53 55 
59 66 74 76 76 77 83 82 70 68 76 80 76 75 82 84 78 74 75 75 76 83 87 82 72 67 
70 72 70 64 60 64 78 85 81 71 71 81 89 82 66 58 61 66 70 80 83 59 64 70 66 58 
55 62 66 64 56 57 69 78 72 64 64 72 75 75 76 78 76 74 76 81 87 84 74 72 77 78 
69 64 67 70 68 68 72 82 88 80 66 57 58 60 65 72 73 69 67 67 67 68 70 72 77 88 
91 82 71 62 57 56 60 59 62 71 78 80 76 76 73 64 57 62 77 85 83 81 86 89 87 86 
86 83 82 84 87 83 77 70 65 67 69 68 64 65 73 82 84 79 78 82 83 74 59 52 55 62 
73 72 71 67 66 64 58 62 74 88 89 77 70 78 88 87 75 64 65 69 67 66 73 78 72 64 
64 68 67 65 68 77 80 70 59 62 74 80 77 69 61 58 59 64 70 69 65 66 75 79 73 73 
79 83 79 68 62 62 64 66 71 78 85 89 88 77 67 66 75 83 83 77 72 68 70 74 76 75 
70 68 71 76 81 83 80 78 83 85 80 73 73 72 71 74 80 80 75 73 75 73 62 50 50 62 
75 78 69 64 65 62 59 64 73 72 71 67 66 64 58 62 74 88 89 77 70 78 88 87 75 64 
65 69 67 66 73 78 72 64 64 68 67 65 68 77 80 70 59 62 74 80 77 69 61 58 59 64 
70 69 65 66 75 79 74 73 79 83 79 68 62 62 64 66 71 78 85 89 88 77 67 66 75 83 
83 77 72 69 70 74 76 75 70 68 71 76 81 83 80 78 83 85 80 73 73 72 71 74 80 80 
75 73 75 73 62 50 50 62 75 78 69 64 65 62 59 64 67 63 60 67 68 64 55 53 67 85 
89 79 69 74 85 84 72 66 71 79 73 65 71 78 77 68 67 70 69 66 67 73 79 76 68 67 
75 82 80 72 65 63 63 67 73 75 69 73 85 89 82 74 73 77 74 65 57 55 56 60 69 81 
86 88 83 73 64 67 79 88 87 80 73 72 77 79 77 73 69 67 72 79 86 86 76 72 77 84 
82 80 79 74 67 70 77 81 78 75 74 69 58 51 52 61 70 74 70 66 66 62 58 63 
