P2
112 112
255
73 88 86 87 78 72 74 77 79 77 89 80 81 81 85 90 94 80 84 88 83 78 78 79 75 73 
78 81 78 76 82 85 83 81 84 89 92 91 92 93 92 89 88 94 92 85 80 83 89 89 86 86 
87 86 86 91 93 88 80 78 82 87 85 82 77 76 77 80 80 78 76 77 83 86 82 76 83 93 
91 86 90 92 97 93 82 77 81 82 80 79 77 77 79 81 82 83 81 75 70 70 72 75 77 77 
74 72 72 80 74 74 77 82 76 88 86 85 75 67 68 73 78 89 91 79 74 75 81 89 93 77 
85 85 78 73 76 80 77 77 85 89 84 79 81 82 84 84 81 81 84 84 84 82 80 84 93 98 
94 87 85 88 89 87 85 82 79 79 85 94 95 90 81 78 81 85 81 74 71 77 82 84 86 86 
83 81 80 80 78 79 79 77 77 84 85 87 88 87 85 83 74 82 85 81 77 73 78 83 86 90 
92 84 73 65 64 68 75 79 78 75 72 75 81 78 81 85 83 86 85 83 76 71 71 74 77 90 
87 79 72 76 85 90 91 89 88 83 79 80 81 81 80 80 82 83 82 83 87 91 91 92 93 91 
88 88 89 88 87 89 92 93 91 87 83 82 82 85 87 82 75 76 86 92 90 84 78 75 77 81 
81 78 75 76 79 79 76 78 80 81 82 83 82 77 73 71 74 72 72 78 87 90 84 78 83 88 
88 83 77 77 80 82 85 87 87 95 84 72 69 73 78 76 81 82 79 76 87 83 83 86 89 75 
78 84 92 91 84 84 98 97 93 91 89 83 87 87 83 79 79 77 74 76 82 82 78 79 82 81 
80 84 88 88 87 90 90 86 83 85 89 92 91 88 86 85 86 85 83 79 79 85 91 89 83 83 
87 88 84 80 79 79 81 85 88 86 82 81 81 80 77 77 76 75 79 84 81 73 71 77 80 76 
76 80 86 88 80 81 89 93 87 78 79 86 89 87 88 89 88 87 85 85 87 88 87 88 93 91 
81 71 81 79 78 78 78 76 77 79 78 81 86 79 80 82 87 93 87 78 86 83 75 74 78 79 
77 82 91 91 85 79 79 80 82 86 84 77 78 84 86 82 79 83 88 90 88 85 82 83 88 91 
89 83 81 86 92 95 92 89 88 86 83 82 85 88 88 88 88 87 84 85 92 95 90 82 79 79 
80 80 78 73 74 84 89 85 81 81 83 82 77 80 94 98 89 82 84 95 102 98 89 85 86 86 
82 79 83 92 98 100 99 93 83 76 74 72 73 75 73 69 72 76 81 90 86 75 73 78 87 92 
87 85 86 80 74 74 79 82 81 88 99 100 90 81 79 82 84 82 75 69 73 82 86 83 81 85 
89 89 86 85 86 90 95 99 95 89 86 88 91 93 91 89 86 86 86 86 89 91 88 84 84 85 
83 82 87 89 85 80 84 91 91 87 81 77 78 85 86 81 77 78 80 79 78 80 83 86 87 90 
90 97 99 89 80 82 82 82 82 81 85 93 99 100 97 91 84 80 77 74 71 72 70 66 70 74 
80 91 84 76 72 80 89 91 91 93 85 83 79 80 84 82 80 87 98 99 90 83 83 86 84 78 
72 71 77 86 89 86 84 87 91 90 86 86 90 93 95 96 93 91 90 91 90 88 85 82 82 85 
87 88 89 89 84 78 78 81 82 81 81 80 77 78 88 96 96 90 85 82 83 85 85 81 79 79 
78 79 82 81 77 75 80 85 87 91 93 88 83 76 82 80 79 80 83 88 90 90 88 84 81 83 
82 80 75 72 83 81 78 82 91 84 84 76 73 82 89 90 95 92 86 87 85 86 87 80 74 79 
89 92 87 84 86 88 84 78 75 77 82 87 87 84 83 87 92 92 87 86 88 87 84 84 86 88 
89 91 90 86 83 81 81 84 87 89 90 89 84 78 76 78 81 83 83 79 77 81 90 94 93 88 
85 84 85 86 88 88 86 84 82 83 86 86 80 74 72 74 81 89 92 89 78 77 83 85 80 75 
77 79 80 81 81 79 75 75 81 87 84 78 92 91 85 83 86 82 83 74 73 79 85 90 94 87 
88 89 85 84 83 76 70 73 80 82 81 84 88 88 84 81 80 80 80 81 81 79 80 86 94 95 
89 85 84 81 76 78 82 83 85 88 87 86 87 86 85 85 89 93 95 93 88 82 80 81 83 85 
83 79 79 85 90 90 88 86 85 84 84 87 90 90 86 83 82 84 88 88 83 75 68 70 82 89 
88 83 78 82 83 83 83 79 74 79 83 85 87 85 76 70 72 96 84 73 87 93 89 84 74 88 
83 77 75 78 81 95 92 84 90 88 81 77 76 73 70 71 74 76 79 86 91 90 88 86 84 80 
77 76 76 76 77 85 96 99 92 85 84 81 79 80 81 78 79 83 85 87 92 92 88 85 89 96 
96 91 85 84 86 86 85 84 81 78 80 85 88 86 85 87 86 83 81 84 89 88 83 77 77 81 
87 88 86 82 76 78 85 87 81 77 84 92 90 83 80 77 79 82 83 86 88 89 84 72 69 93 
85 79 85 94 94 88 81 89 87 83 78 78 83 101 89 84 89 86 79 74 73 75 73 71 73 77 
83 91 96 95 92 91 88 82 76 74 75 75 76 82 92 97 92 85 84 84 84 83 79 75 76 80 
83 87 93 95 90 85 87 93 92 83 77 80 87 88 84 81 80 79 79 81 82 82 85 89 89 83 
79 81 87 87 81 74 75 81 87 90 91 90 88 86 85 83 79 79 86 94 93 82 78 83 89 88 
85 86 88 91 87 77 75 89 84 81 88 94 95 92 86 86 88 84 77 77 86 98 86 82 83 81 
80 79 79 77 74 72 76 81 87 95 98 96 92 90 89 83 77 74 75 76 76 77 82 87 84 81 
83 87 86 81 75 73 76 79 81 84 90 93 89 85 85 88 87 80 76 79 86 86 79 76 78 78 
78 78 79 81 86 90 90 86 82 82 85 85 80 75 78 85 91 94 95 94 90 85 81 82 83 81 
82 87 90 87 85 92 100 98 92 88 87 89 86 80 82 80 79 82 88 90 92 94 83 82 86 80 
73 75 86 88 83 82 78 77 79 83 84 81 76 75 79 83 87 92 96 93 87 83 83 82 78 76 
79 82 81 78 77 75 72 74 81 87 83 76 72 74 78 80 78 80 83 84 83 82 83 85 86 84 
83 85 86 82 73 69 72 77 79 81 83 85 88 91 92 89 85 83 82 82 79 78 81 89 96 98 
96 93 88 81 79 82 87 84 80 81 88 90 90 95 99 95 87 83 84 85 83 80 81 79 73 72 
82 82 87 93 84 83 86 79 74 79 84 82 86 84 80 78 79 84 87 85 81 81 83 83 83 88 
94 92 82 76 77 80 80 82 86 90 89 86 81 75 70 72 79 83 79 73 72 77 82 80 77 76 
77 76 76 80 82 83 86 88 86 83 81 78 72 68 71 76 81 86 88 88 88 90 91 90 85 81 
79 80 81 81 83 89 96 98 94 90 85 81 78 83 89 87 81 81 85 86 86 88 89 84 79 80 
82 82 80 80 82 87 76 70 74 77 86 92 90 90 87 83 80 83 84 84 88 88 85 83 85 88 
91 89 86 87 89 86 86 92 99 96 84 75 76 79 82 83 86 89 90 90 89 85 79 74 76 77 
76 73 75 80 84 81 76 74 72 71 75 81 82 82 84 85 79 73 74 77 75 74 75 77 82 86 
87 85 84 85 87 86 83 79 80 83 85 83 81 85 92 95 91 87 85 81 78 82 88 86 82 82 
84 82 81 85 85 79 75 78 82 82 80 80 83 94 83 69 72 78 88 91 93 95 87 88 86 88 
88 85 86 87 88 90 92 94 94 89 86 88 91 91 92 98 104 101 89 78 77 79 78 77 78 
81 84 88 92 94 90 81 75 73 74 76 78 83 86 82 76 73 73 73 78 83 82 79 81 80 72 
68 73 78 77 75 75 75 78 81 80 78 78 79 79 79 80 80 83 86 85 82 79 81 89 93 91 
85 83 79 76 79 84 83 80 83 85 81 81 86 86 78 73 77 84 84 79 77 79 90 85 75 72 
78 86 89 94 92 86 89 87 88 88 84 84 85 87 91 94 93 89 84 82 85 90 91 93 97 100 
100 92 83 79 78 75 72 71 74 78 83 90 96 96 87 78 75 77 81 85 89 90 86 80 78 79 
81 84 83 78 74 76 78 77 76 77 77 74 70 70 69 72 75 75 75 77 76 74 74 77 80 83 
84 81 77 75 78 87 95 94 86 78 72 72 78 85 85 83 85 88 84 82 86 87 79 73 76 84 
84 77 74 78 86 83 80 72 75 81 86 95 90 84 90 87 88 86 83 85 84 86 90 89 86 83 
82 83 86 88 88 87 87 91 93 91 86 82 80 79 76 74 76 79 84 90 93 93 90 85 81 82 
86 91 94 94 89 84 84 87 89 87 83 76 71 73 81 84 83 80 76 72 69 68 65 66 71 75 
78 81 80 76 75 77 80 82 80 77 72 71 76 86 96 97 88 75 69 73 84 93 93 89 88 89 
86 83 84 85 79 74 75 80 80 75 73 79 83 81 80 75 75 79 84 101 89 84 90 89 87 82 
83 87 87 87 88 87 84 82 84 88 90 90 86 81 81 84 88 89 87 85 85 85 82 81 82 84 
89 91 89 88 90 90 86 84 87 90 92 90 87 84 86 88 88 86 82 77 73 76 83 87 82 76 
73 75 77 73 65 64 71 79 83 86 86 84 83 83 83 83 82 78 73 71 75 84 93 96 90 80 
75 80 89 96 94 87 84 85 84 83 83 82 78 74 75 78 77 74 75 79 80 80 82 81 78 79 
84 103 87 83 85 85 84 81 84 89 88 86 88 89 86 85 87 91 92 91 87 82 81 82 84 84 
84 86 87 85 80 81 85 91 93 90 86 86 89 91 88 84 84 84 83 82 80 81 83 83 81 79 
79 79 79 81 86 86 78 71 71 78 84 80 71 68 74 81 84 87 90 90 88 85 83 84 85 82 
76 74 78 85 91 94 91 86 83 85 89 89 84 79 77 79 83 84 84 80 76 75 78 80 79 77 
77 78 96 79 82 85 77 77 82 92 85 81 78 81 83 83 87 90 86 83 87 93 91 89 91 92 
92 91 90 86 81 80 81 80 81 84 84 79 74 79 89 95 93 87 84 85 88 89 87 85 83 82 
80 78 77 80 83 81 75 72 74 79 82 85 88 86 80 72 72 79 86 85 78 75 79 81 82 85 
90 91 87 81 79 81 83 80 77 77 80 84 87 90 89 87 86 87 86 82 78 75 76 81 85 86 
84 78 73 75 81 84 83 81 79 77 95 75 77 83 73 73 86 81 86 83 80 85 87 86 90 91 
85 83 89 95 93 92 97 98 92 90 90 87 80 77 78 79 80 83 84 78 74 81 92 95 90 86 
84 84 83 83 85 87 88 88 86 83 81 83 86 83 76 70 71 76 82 87 89 88 85 79 76 78 
83 84 82 81 83 82 82 86 90 90 85 79 76 76 78 78 78 80 81 80 80 83 85 84 83 86 
87 86 83 81 83 87 88 87 83 76 71 73 79 84 85 83 79 74 86 73 77 82 74 75 84 81 
88 89 88 90 89 91 94 92 87 87 94 97 92 91 99 101 93 87 88 87 80 75 77 80 78 79 
84 83 80 83 89 89 87 87 87 82 77 75 80 87 91 94 94 91 87 88 89 87 82 76 73 75 
81 86 88 86 83 79 75 73 76 79 79 81 83 84 84 87 90 90 86 80 76 74 76 79 83 84 
80 73 71 77 82 84 84 86 91 93 91 88 88 90 90 87 85 81 75 72 74 81 86 85 78 72 
78 73 78 86 80 81 87 84 86 88 88 88 93 97 97 92 87 89 95 96 89 88 95 98 91 85 
86 87 82 77 79 81 78 76 80 86 85 83 82 82 84 88 89 81 71 69 75 83 89 94 94 92 
90 90 89 87 85 81 76 74 77 81 82 78 72 66 61 61 66 71 73 76 79 81 82 84 87 89 
87 82 77 75 78 83 86 85 79 71 70 76 83 87 88 88 91 94 93 89 87 89 91 93 95 94 
86 75 74 81 86 84 77 74 80 76 79 88 87 86 91 87 84 83 81 87 95 96 92 88 86 89 
92 92 88 87 92 93 88 85 88 91 87 81 80 81 77 73 76 84 87 85 82 80 83 86 87 80 
72 69 73 80 86 90 90 90 90 89 86 83 81 79 74 70 70 72 71 66 58 50 46 49 57 64 
67 69 71 72 73 77 84 90 89 83 77 77 80 82 83 81 77 74 75 79 85 89 89 87 86 88 
89 88 86 88 93 98 104 104 96 87 85 86 84 78 75 76 85 78 78 88 89 86 88 87 85 
80 80 90 94 89 86 87 88 88 88 92 94 94 93 89 85 87 93 95 90 83 81 80 76 73 76 
84 87 86 84 83 82 81 81 79 76 75 76 80 86 88 88 89 93 92 86 79 75 73 69 66 65 
63 60 55 50 45 42 46 53 59 62 63 64 64 66 73 84 91 89 82 78 79 81 79 76 75 76 
78 77 78 81 86 88 84 81 84 87 86 83 83 88 95 102 103 99 99 97 91 80 70 68 73 
82 79 76 85 90 87 89 85 83 80 84 97 96 89 86 89 91 88 87 93 100 99 93 86 84 89 
96 98 92 86 84 83 80 78 81 84 84 83 83 83 82 79 78 79 80 79 79 83 89 91 90 94 
101 100 89 76 69 67 66 64 61 54 47 48 51 52 51 53 56 58 60 61 62 62 64 71 83 
89 84 77 77 81 82 77 74 75 79 80 75 72 76 83 85 80 78 80 85 85 80 76 79 87 92 
93 95 101 101 92 78 69 66 68 76 76 72 84 89 89 87 82 81 81 87 105 104 95 89 88 
89 88 87 91 97 96 89 80 80 87 95 95 90 87 88 88 87 87 88 85 79 78 82 84 82 79 
76 77 79 80 80 84 91 94 93 97 103 101 87 69 60 60 60 59 55 45 40 48 60 66 67 
67 66 65 64 63 62 63 64 69 77 80 75 70 74 81 83 79 74 76 81 82 76 72 77 82 80 
75 74 76 80 82 78 73 75 82 85 84 89 98 98 89 82 79 75 70 73 74 71 84 86 84 84 
82 82 83 88 106 106 97 88 84 85 87 88 89 89 86 79 72 73 81 90 90 87 87 91 92 
91 91 91 86 79 80 86 86 80 75 73 72 75 79 79 82 88 92 92 93 94 90 77 62 53 51 
51 52 49 43 44 59 78 88 90 88 87 83 75 65 59 58 62 65 69 70 65 65 72 81 84 80 
73 72 77 83 82 82 85 84 77 71 72 74 78 81 81 77 77 81 81 81 88 95 94 87 88 91 
88 79 76 75 75 84 81 78 81 85 81 80 88 98 100 92 84 81 84 88 90 89 85 80 73 68 
69 77 85 86 85 87 92 93 89 87 87 85 83 87 91 87 77 69 67 66 70 75 77 78 82 87 
87 84 82 78 71 59 51 45 44 48 51 53 62 81 101 112 114 115 113 103 85 65 52 51 
57 61 64 65 63 65 73 84 89 84 73 68 73 82 89 94 96 89 78 74 77 80 81 83 83 82 
82 82 81 82 87 94 93 88 90 95 92 85 80 75 79 85 82 80 87 88 86 84 83 93 93 87 
82 82 85 89 91 89 84 80 76 72 72 78 85 86 85 87 91 91 85 80 79 80 82 87 91 86 
73 64 62 61 65 70 72 72 77 83 83 78 75 75 71 61 50 42 43 51 61 70 85 104 122 
133 138 141 136 121 95 69 52 49 53 60 66 70 71 70 76 87 95 91 79 73 74 81 89 
98 100 90 80 79 85 88 86 83 82 83 84 84 82 81 85 92 92 89 90 92 91 87 84 80 76 
87 88 88 91 90 94 80 82 91 90 83 79 80 82 85 86 84 79 79 80 77 75 80 87 87 84 
86 90 89 81 75 73 74 77 82 86 83 71 61 56 57 63 70 72 72 78 82 80 75 75 78 74 
60 45 37 41 53 69 86 106 125 141 151 160 163 154 133 105 78 58 51 53 61 70 77 
78 74 76 87 98 96 87 80 79 81 84 90 91 86 79 81 88 91 86 79 77 79 81 81 80 80 
84 90 92 89 87 88 90 90 89 86 70 86 89 88 87 94 90 75 84 89 87 80 75 76 79 82 
81 75 71 75 79 76 73 78 88 87 81 83 90 89 81 73 72 73 74 78 82 81 69 56 51 55 
66 75 77 77 80 79 73 70 76 82 74 54 38 33 39 54 74 99 125 146 159 169 178 180 
166 140 113 86 64 51 51 60 69 77 78 73 73 83 94 94 85 79 80 82 81 81 84 82 76 
79 85 89 83 75 72 74 76 77 77 79 84 90 91 86 82 84 90 93 90 87 71 84 86 80 86 
89 81 78 81 84 83 78 76 78 81 83 82 74 68 69 74 73 70 77 87 86 80 80 87 91 85 
76 73 74 75 78 81 79 68 56 51 56 68 78 81 80 78 72 64 64 76 83 74 52 37 35 43 
59 83 114 144 167 177 183 190 189 173 145 117 89 64 49 48 55 63 71 75 74 74 80 
88 88 79 73 77 83 85 84 84 82 76 74 80 85 82 77 74 75 76 77 80 82 84 86 85 81 
80 84 90 91 85 81 77 84 84 76 86 80 83 81 77 79 81 82 84 86 87 87 85 78 71 71 
74 73 72 78 85 86 81 81 86 91 90 82 73 72 75 80 82 78 69 61 59 62 69 77 81 79 
74 67 60 63 75 81 72 55 45 46 57 74 100 129 159 180 190 193 194 191 175 149 
120 91 65 50 47 51 59 69 76 77 75 78 84 84 77 73 76 84 89 89 88 85 78 74 76 82 
84 83 84 83 82 83 86 86 82 80 81 83 86 88 89 87 80 75 81 84 84 77 83 80 87 84 
79 79 81 84 87 89 87 85 81 77 74 76 78 77 76 78 83 84 83 82 84 89 91 84 71 65 
71 79 82 78 71 68 69 70 70 75 81 80 74 67 63 68 76 79 71 62 60 64 74 90 112 
138 163 183 194 197 195 190 175 151 122 93 68 53 49 51 58 68 75 76 73 75 79 80 
79 75 75 79 84 85 86 86 83 78 77 81 86 89 90 89 86 87 90 88 82 80 85 90 92 91 
90 88 84 78 86 82 83 78 79 82 89 87 85 84 83 83 82 81 80 76 72 70 73 79 83 80 
77 77 79 80 81 81 81 83 85 79 66 59 65 76 79 75 71 73 77 76 74 76 82 83 77 73 
72 75 78 77 74 74 80 86 93 104 120 139 160 179 190 193 191 184 170 147 118 90 
65 51 47 51 58 66 70 71 70 70 72 76 79 78 75 73 73 74 79 85 87 81 78 80 84 88 
90 89 87 89 91 89 85 87 91 93 92 89 88 90 92 85 89 80 83 80 78 84 87 88 88 87 
86 80 75 74 74 71 67 67 73 82 85 82 77 78 79 79 80 80 77 74 76 73 64 58 64 71 
73 72 72 76 80 79 76 80 87 87 82 80 81 81 78 77 80 89 101 109 114 120 129 141 
156 171 180 181 177 170 156 133 107 79 55 41 40 48 57 63 68 71 73 72 72 77 83 
83 76 70 66 68 76 84 85 79 76 77 80 84 87 87 88 90 91 89 87 90 92 90 85 81 81 
87 91 87 87 82 83 78 80 84 83 85 86 86 85 79 76 77 79 77 72 71 75 81 84 82 80 
82 82 81 79 79 74 67 68 71 67 64 68 71 71 72 76 79 78 76 77 82 88 87 83 83 85 
81 75 75 87 104 120 130 134 136 139 145 155 165 168 164 159 152 139 119 96 70 
46 32 33 44 54 62 71 77 77 75 76 85 91 88 79 69 67 70 77 82 79 72 72 77 80 80 
82 84 85 87 87 84 83 86 88 86 80 73 73 77 81 84 80 87 83 85 79 81 82 84 83 82 
83 83 83 87 88 85 81 78 76 77 79 80 81 83 83 81 79 77 72 64 62 66 69 70 73 72 
71 75 84 85 78 74 75 81 84 82 80 82 83 76 70 76 94 118 137 148 151 150 150 152 
156 159 158 150 142 137 129 114 95 71 46 30 31 40 48 59 70 77 76 75 81 90 95 
88 78 70 69 75 81 80 71 66 71 80 82 78 77 77 79 79 78 76 77 82 87 88 81 74 72 
72 75 79 76 90 91 91 76 85 89 88 83 82 84 88 90 90 88 86 84 82 77 74 75 78 80 
80 80 79 76 73 68 63 59 61 66 71 74 73 70 75 86 89 84 79 78 79 78 77 79 81 81 
76 74 83 103 131 155 169 171 169 164 160 157 154 149 140 133 130 128 117 100 
79 54 38 35 39 41 49 63 72 75 77 84 92 93 86 77 73 74 80 83 78 69 65 73 82 83 
77 73 72 75 75 74 74 77 84 90 91 85 80 80 80 79 82 83 90 94 88 80 90 92 90 84 
85 90 92 87 80 77 79 83 85 80 75 74 78 79 78 77 75 71 67 65 62 59 60 63 69 73 
72 69 72 82 89 92 92 88 79 75 76 79 82 83 84 86 96 114 142 171 193 200 198 187 
175 163 154 146 138 133 133 132 123 107 87 65 50 44 41 36 39 51 65 75 81 86 89 
90 87 82 79 81 84 82 76 69 68 74 81 80 74 70 71 76 79 79 79 81 87 91 91 87 86 
91 92 88 87 92 86 93 83 85 88 89 87 85 89 95 92 80 70 68 74 82 86 82 76 76 79 
79 76 74 72 67 63 63 64 64 65 66 70 73 74 71 71 76 86 98 104 98 85 77 77 78 78 
82 89 98 108 125 153 187 217 232 230 215 195 175 161 152 146 144 145 143 134 
118 100 81 65 54 43 33 31 40 56 71 79 81 84 88 89 87 86 87 86 81 74 71 73 79 
81 77 70 67 69 77 83 85 83 83 87 91 91 88 90 96 97 92 88 96 85 85 83 83 84 84 
84 86 92 96 89 78 70 70 76 83 84 79 74 76 79 77 73 72 71 67 64 65 68 72 74 75 
76 80 82 77 73 74 85 101 112 108 94 84 79 74 71 75 86 100 117 139 169 205 237 
255 255 240 215 190 172 161 159 161 165 163 153 139 122 100 78 59 42 29 24 32 
47 62 70 74 79 86 90 88 88 89 86 79 74 75 81 85 84 77 70 68 71 79 87 88 84 83 
86 92 93 90 91 96 96 89 84 85 86 75 82 80 80 81 85 89 91 90 87 82 78 76 77 80 
79 74 72 74 75 71 69 73 76 75 71 70 73 79 84 84 83 87 89 84 76 75 84 100 113 
114 104 93 83 72 64 66 78 95 121 154 186 219 248 255 255 255 229 203 182 170 
170 178 185 187 180 167 146 119 87 59 38 24 21 29 42 57 68 74 81 87 88 86 86 
84 78 73 72 76 82 86 84 78 75 76 79 84 89 89 85 82 85 90 92 89 90 94 94 88 84 
80 85 78 76 77 76 78 84 85 81 80 84 88 85 79 74 75 76 72 70 70 69 66 69 78 85 
83 77 74 76 82 86 86 85 89 93 89 81 78 84 96 107 113 110 100 86 72 63 62 70 90 
124 163 198 227 252 255 255 255 232 206 187 178 181 191 203 209 207 193 166 
129 90 57 33 22 22 29 42 57 71 83 89 89 85 81 79 74 65 62 69 76 79 80 81 80 80 
83 86 87 87 87 84 81 82 86 87 85 87 92 95 92 87 80 82 83 74 76 74 77 83 81 73 
72 82 91 88 79 73 75 77 74 69 67 67 69 74 84 90 86 79 77 79 83 84 82 81 86 93 
93 89 87 89 93 100 107 108 99 85 72 65 64 69 88 124 167 204 232 254 255 255 
246 222 201 188 185 192 205 218 227 227 213 181 137 92 54 31 21 23 32 45 60 75 
88 92 87 78 74 73 66 56 57 68 77 78 78 81 81 82 84 86 85 84 84 82 80 81 84 84 
83 86 92 95 93 89 84 77 80 78 78 76 80 85 82 73 72 82 90 86 79 78 83 84 79 72 
69 72 76 82 88 91 87 83 83 86 87 86 82 81 86 92 95 97 98 98 98 101 105 103 94 
82 74 71 69 71 86 121 166 206 235 255 255 255 232 210 196 191 195 206 221 234 
244 246 231 197 149 98 56 31 21 25 37 52 66 78 87 89 81 73 73 73 66 57 59 71 
80 82 85 87 84 81 80 81 83 85 87 86 84 86 88 85 83 85 89 90 88 85 84 80 79 85 
79 81 86 87 84 77 75 80 83 80 79 85 90 89 83 77 76 79 82 84 88 91 91 92 94 94 
94 92 90 89 90 92 95 98 101 103 103 105 105 100 91 83 78 76 74 72 84 118 164 
204 235 255 255 248 224 203 194 196 206 222 239 255 255 255 252 218 168 113 
67 37 25 29 44 60 73 82 87 87 79 74 78 79 71 61 64 75 82 87 92 91 84 78 75 77 
83 90 93 91 90 92 92 86 82 83 87 87 83 79 80 86 88 84 81 87 86 84 81 77 74 75 
75 75 79 86 90 88 84 82 83 84 82 81 87 94 97 98 97 95 92 93 95 96 96 94 94 96 
98 99 102 107 106 98 86 80 78 77 75 76 89 118 160 201 232 253 255 243 219 199 
193 201 218 238 255 255 255 255 255 242 193 136 84 47 28 28 42 59 73 83 90 88 
80 76 80 80 69 61 65 75 80 87 92 89 81 75 71 71 79 88 92 89 88 91 90 84 78 80 
86 86 79 72 74 98 90 83 88 90 84 78 74 73 74 74 74 73 77 81 83 83 83 85 85 82 
77 78 86 93 94 91 88 83 81 85 91 95 94 95 97 98 96 95 98 104 102 91 78 71 71 
72 74 81 96 123 159 198 229 248 251 238 216 196 191 204 226 251 255 255 255 
255 255 255 213 154 98 55 29 23 32 48 64 79 88 86 77 73 78 76 66 61 68 76 79 
85 89 86 80 77 71 67 71 80 82 80 81 86 86 80 76 78 84 85 78 70 72 99 86 89 93 
93 86 78 74 75 77 80 80 78 76 76 77 77 79 81 81 77 73 74 81 86 83 77 74 71 72 
79 86 87 89 94 100 102 99 96 98 99 95 84 71 65 64 67 72 83 101 126 160 196 225 
239 238 226 208 192 189 203 228 255 255 255 255 255 255 255 219 159 104 60 33 
23 28 41 58 74 83 81 73 72 77 76 68 66 74 79 79 82 86 85 84 82 75 68 69 74 76 
75 79 84 85 81 77 78 81 84 81 76 79 90 84 93 96 96 91 83 79 79 83 87 87 82 79 
77 75 73 73 75 75 71 67 70 75 77 74 69 65 65 69 78 84 84 85 90 97 100 100 100 
100 98 92 82 71 63 60 61 67 80 98 123 159 195 219 225 218 208 195 183 183 199 
227 255 255 255 255 255 255 255 208 150 101 64 40 29 34 45 60 74 81 80 76 77 
82 79 74 74 79 79 78 81 84 86 86 85 78 70 70 73 75 76 81 86 85 82 80 79 79 82 
84 84 87 80 85 95 96 96 91 85 82 83 86 88 87 84 83 82 79 73 71 72 70 66 64 68 
72 75 74 69 64 62 67 76 82 81 81 83 87 91 96 102 104 101 94 85 71 58 51 51 60 
75 93 118 154 189 209 209 200 188 175 168 171 190 222 255 255 255 255 255 255 
243 187 133 92 62 42 33 36 48 62 74 82 84 83 86 86 80 76 77 79 78 78 83 86 87 
87 84 76 70 70 73 74 77 81 83 82 80 81 79 77 79 83 86 89 76 89 95 95 91 86 83 
82 84 86 86 85 84 85 87 84 76 72 71 69 67 69 73 76 77 77 72 66 64 68 74 76 78 
79 80 81 86 95 105 109 107 101 88 68 47 37 41 55 72 90 114 146 177 194 194 185 
170 154 147 153 176 215 255 255 255 255 255 255 224 167 117 80 55 37 28 32 45 
57 67 76 81 86 90 86 76 73 77 80 80 82 86 89 88 87 82 73 67 68 72 74 76 79 79 
78 80 81 78 76 77 81 83 86 79 91 94 92 86 81 81 82 84 85 85 85 86 87 89 85 78 
73 71 70 74 80 83 81 80 78 74 70 70 72 74 75 78 82 84 84 89 99 110 115 112 101 
84 62 42 33 41 57 74 89 108 135 160 173 176 169 151 132 123 130 155 199 249 
255 255 255 255 255 212 157 106 68 44 28 22 27 41 51 57 63 72 81 87 82 71 70 
79 86 85 84 85 86 85 85 81 73 67 68 72 75 76 76 76 77 80 80 77 75 77 78 77 82 
83 88 90 88 82 80 83 86 85 82 82 85 89 91 89 84 80 75 72 71 77 86 88 85 82 79 
75 75 77 78 76 77 81 87 89 89 94 105 115 117 111 97 80 61 47 42 51 63 76 86 100 
121 140 151 152 144 127 107 99 106 130 174 227 255 255 255 255 245 204 152 100 
58 32 18 16 24 39 50 55 58 65 74 79 76 71 71 80 87 87 84 82 81 80 81 80 74 68 
69 76 80 80 76 73 76 81 81 78 76 76 75 74 78 82 82 84 83 80 81 87 90 86 79 77 
83 91 93 88 82 82 81 77 73 75 82 86 86 84 80 77 78 79 77 74 76 81 85 84 87 96 
106 114 115 109 96 80 64 54 53 59 67 73 79 89 105 121 130 127 116 100 84 78 87 
111 151 200 241 255 255 251 227 190 144 93 49 20 6 8 21 38 53 60 63 65 68 71 
72 73 73 75 78 82 85 85 82 78 76 76 73 70 71 79 86 85 78 72 76 84 86 82 80 78 
77 78 82 86 76 78 79 79 81 85 89 86 78 73 79 89 91 83 78 82 87 84 76 72 75 81 
85 83 79 78 81 81 76 71 71 74 76 78 84 94 103 108 111 111 102 86 69 58 56 59 
62 66 71 81 95 109 116 110 96 80 67 66 79 105 140 180 214 234 237 227 205 172 
130 83 42 12 0 4 20 39 53 63 68 68 65 66 71 75 72 67 67 75 86 90 85 76 71 71 
72 71 74 82 90 91 82 73 77 87 91 88 86 87 88 91 93 81 74 77 80 80 79 80 82 80 
74 70 75 85 87 80 75 81 87 85 76 70 73 79 83 81 78 80 87 88 81 73 70 71 74 78 
85 93 98 103 110 114 108 92 73 59 54 53 55 61 70 82 97 111 115 105 89 72 61 63 
81 110 142 172 196 211 215 207 186 153 113 73 38 13 3 12 30 44 53 62 69 70 67 
68 73 75 69 61 61 72 85 89 84 75 71 72 75 77 79 85 93 94 85 76 79 88 92 90 89 
90 94 98 97 81 80 82 83 81 76 73 74 75 71 68 73 84 89 84 77 78 82 81 77 74 76 
81 83 82 82 88 95 94 86 77 73 73 75 78 83 89 95 103 111 115 107 93 78 65 56 52 
56 66 80 97 114 127 128 116 97 77 64 68 90 121 152 176 193 203 205 194 171 138 
100 65 36 18 15 28 45 54 57 64 73 76 74 72 74 74 67 59 61 71 81 83 81 78 77 80 
84 85 84 87 92 93 85 77 79 87 90 87 83 82 84 86 87 85 87 84 82 78 71 66 69 73 
72 69 74 84 91 88 82 78 79 82 83 82 83 86 87 88 91 97 100 94 83 76 74 74 72 72 
77 87 98 108 114 113 104 94 86 77 67 63 69 82 99 121 141 152 152 140 117 93 80 
87 109 141 171 193 207 212 205 187 160 126 88 56 34 22 24 37 53 62 66 75 85 87 
80 74 74 74 68 62 63 70 76 79 81 83 85 87 89 88 86 87 91 91 84 77 79 86 88 84 
77 72 71 73 75 84 87 80 77 75 67 61 66 76 80 76 75 81 86 88 85 80 80 84 89 89 
89 88 88 89 95 100 97 85 75 71 71 68 64 64 75 91 104 113 119 115 104 96 93 90 
82 79 88 103 124 150 173 186 185 172 150 125 116 126 146 173 199 220 229 228 
214 189 155 117 79 49 31 24 26 38 53 66 76 87 95 93 82 75 74 74 70 64 64 71 76 
78 81 86 88 88 86 86 86 88 90 89 83 78 80 87 90 84 78 76 76 76 76 83 81 76 77 
77 70 62 65 78 86 84 79 77 80 85 86 83 81 83 86 89 88 84 80 80 85 89 87 79 71 
69 68 63 59 65 82 100 110 117 123 121 108 98 96 95 91 92 104 124 149 179 206 
222 222 210 189 170 166 178 194 210 228 245 248 242 225 197 160 119 78 46 28 
23 28 41 56 69 78 87 93 90 82 76 75 73 70 66 67 74 80 82 84 87 88 84 81 82 84 
85 87 87 85 80 81 88 92 87 83 86 90 90 84 85 79 78 82 85 81 71 70 77 86 87 81 
76 79 86 89 84 79 76 79 83 83 76 68 65 69 75 77 74 71 72 71 67 65 75 95 111 
117 122 130 128 114 100 95 93 91 96 115 142 173 205 235 253 255 244 226 213 
213 223 232 239 252 255 255 253 235 208 172 129 86 49 27 22 31 48 62 68 71 76 
82 84 83 80 76 71 70 70 73 79 83 84 86 88 86 81 79 80 81 81 83 87 87 79 77 85 
92 89 84 90 98 98 87 85 82 83 86 88 87 82 80 79 82 85 82 78 80 86 87 82 75 72 
75 79 78 69 59 56 62 68 71 70 72 76 80 79 79 88 104 118 124 129 134 130 115 
103 99 95 90 98 124 158 192 225 255 255 255 255 251 242 243 248 249 254 255 
255 255 255 239 213 178 138 94 53 27 22 33 52 64 64 61 65 74 83 87 84 76 69 70 
75 81 83 80 78 81 84 83 80 80 82 83 81 82 87 86 77 73 81 91 90 84 87 93 93 85 
81 85 87 86 84 87 89 88 82 80 82 80 76 76 78 78 76 72 73 76 76 70 61 54 58 66 
71 72 71 74 82 89 90 90 95 108 120 128 133 134 124 111 107 109 104 97 105 132 
169 203 236 255 255 255 255 255 255 255 254 251 255 255 255 255 253 235 207 
172 134 93 56 31 24 35 52 61 60 56 60 73 86 92 88 78 70 71 79 86 84 75 69 71 
78 81 81 82 84 85 82 82 84 82 75 74 83 92 91 86 84 85 85 82 79 84 88 86 82 85 
90 91 84 79 79 76 71 68 68 68 70 72 75 75 71 61 56 57 63 71 72 72 73 78 88 97 
99 99 103 111 121 129 133 130 118 109 112 119 118 113 117 138 170 202 234 255 
255 255 255 255 255 255 251 246 252 255 255 246 235 221 192 155 119 86 57 37 
30 36 48 58 61 62 67 77 88 92 89 80 72 72 79 84 80 71 66 71 79 82 82 81 82 82 
81 80 79 78 78 82 90 94 93 87 82 78 79 83 81 84 89 88 84 85 89 88 82 78 76 73 
70 66 64 65 69 72 73 72 69 66 63 65 67 68 66 67 73 82 91 99 104 109 115 119 
123 129 133 130 119 112 115 122 126 127 130 144 168 197 225 250 255 255 255 
251 250 245 237 233 237 238 228 215 208 198 171 133 100 74 54 39 31 33 42 56 
67 74 77 81 86 89 86 81 76 76 80 81 77 72 73 79 83 84 83 81 78 77 78 78 77 79 
83 87 90 93 93 89 81 75 76 85 84 82 89 87 84 84 85 82 79 77 76 75 73 70 68 70 
72 72 69 69 73 79 79 75 70 65 61 62 71 83 92 97 104 116 123 124 122 124 130 
132 127 120 117 120 126 132 139 152 173 198 220 235 244 244 236 228 220 211 
204 204 208 207 195 183 179 170 144 110 82 62 48 38 31 30 39 56 72 80 81 81 82 
84 83 79 78 82 85 84 80 78 82 86 85 83 83 82 79 76 79 81 82 81 80 81 84 89 93 
91 83 77 77 84 84 85 85 82 82 82 81 78 78 79 79 79 78 76 75 76 76 73 70 71 80 
91 91 82 74 69 66 66 76 89 94 94 98 108 115 114 110 114 123 131 132 124 116 
116 124 135 148 165 187 208 220 225 226 222 213 198 180 165 158 160 167 166 
158 152 150 139 114 88 68 54 45 42 38 37 44 58 71 76 75 73 76 79 78 75 77 84 
89 88 85 85 88 88 84 82 83 85 82 81 83 87 87 81 75 75 81 89 94 93 86 81 80 85 
81 86 80 78 80 82 79 76 78 81 82 81 79 77 76 79 80 77 74 78 88 97 95 86 79 76 
73 74 83 93 94 89 86 89 93 93 96 102 114 125 127 121 114 116 129 145 161 179 
202 220 226 221 215 207 193 172 146 124 113 114 118 119 119 119 117 106 87 70 
59 52 51 54 53 49 50 59 66 67 64 64 69 74 74 71 73 81 87 87 85 87 90 88 83 80 
83 85 85 84 86 89 88 80 73 75 84 91 93 91 87 82 77 84 78 84 79 78 81 83 79 75 
78 81 79 76 74 74 77 83 85 82 79 81 89 97 96 89 81 76 73 74 80 85 85 79 74 72 
74 81 91 100 109 117 122 120 119 126 142 159 172 189 212 231 235 225 214 201 
184 160 129 102 86 79 77 80 83 85 83 76 67 60 56 55 59 65 63 55 52 57 63 63 60 
62 69 74 73 71 73 80 84 82 79 82 86 86 83 81 81 83 84 85 86 88 86 77 72 78 87 
91 89 87 84 80 71 87 78 82 82 80 83 82 77 74 75 76 74 71 71 74 82 91 92 86 79 
79 85 93 97 91 79 68 65 67 68 67 68 68 66 64 69 81 93 101 106 112 118 122 126 
135 150 165 176 192 214 234 241 235 222 207 190 165 133 103 80 66 59 58 58 55 
53 54 57 59 58 59 64 69 66 57 52 56 64 67 66 68 73 76 76 76 78 82 82 78 74 76 
81 83 83 82 80 79 82 85 86 85 82 76 73 78 85 86 84 84 82 80 73 87 81 84 85 84 
85 80 74 71 72 74 74 74 75 80 90 99 99 91 83 81 85 91 93 87 74 64 61 63 59 54 
56 62 63 61 67 81 92 97 102 107 113 120 129 139 150 162 173 187 207 228 240 
241 235 226 210 186 155 122 96 77 62 54 45 37 35 44 56 62 62 61 64 69 69 63 58 
61 67 72 72 71 72 75 77 79 80 80 77 74 73 74 78 81 83 84 81 77 78 82 85 85 84 
79 75 78 81 80 79 81 82 82 73 90 84 87 85 87 87 79 70 67 71 79 84 84 82 84 92 
100 101 95 90 90 93 92 87 79 71 66 65 65 61 54 57 65 65 60 64 76 85 90 95 99 
104 113 126 140 150 157 165 177 196 220 237 246 250 249 240 220 189 156 128 
102 79 60 44 33 31 42 59 67 65 61 63 69 74 72 66 66 72 76 73 68 67 71 75 77 76 
72 70 71 73 75 77 79 82 85 82 76 75 79 84 87 87 83 78 79 78 74 75 79 82 80 75 
92 85 87 81 86 87 78 69 67 75 86 91 88 81 81 86 93 96 94 94 97 97 91 81 74 73 
72 71 68 66 63 67 71 68 61 61 70 78 83 88 93 98 107 123 139 149 152 154 163 
185 214 239 254 255 255 255 255 225 193 162 129 97 70 49 36 35 46 61 67 65 62 
63 71 78 77 70 68 73 77 73 66 64 68 73 74 69 66 67 72 77 79 79 80 82 85 83 79 
78 81 85 87 86 80 77 78 78 74 77 84 85 81 79 92 86 88 78 84 84 79 74 75 82 90 
92 84 76 75 80 85 89 92 93 94 92 84 76 73 76 75 71 70 72 73 76 77 72 63 62 68 
74 78 83 88 93 102 118 133 141 139 139 148 173 207 238 255 255 255 255 255 248 
218 186 151 114 81 57 42 40 48 59 65 66 66 69 77 82 78 70 67 72 77 75 70 68 69 
70 68 63 64 71 79 82 82 80 80 81 82 81 81 84 86 86 86 83 75 73 77 80 78 83 92 
91 85 82 91 89 91 78 83 83 81 82 85 89 91 89 82 75 75 79 82 85 88 87 83 79 74 
71 73 76 74 69 71 78 80 79 78 75 70 69 72 75 78 81 84 88 96 108 118 121 119 
120 131 155 187 221 248 255 255 255 255 249 223 196 166 132 97 67 47 42 47 55 
61 66 72 78 84 86 81 72 68 70 76 78 76 71 66 62 59 59 66 77 85 85 81 80 80 79 
78 78 82 86 88 88 87 82 75 74 80 82 81 87 93 92 89 87 94 90 93 82 85 85 85 87 
89 89 89 88 83 78 79 81 82 82 83 81 75 69 67 66 69 73 73 69 72 80 83 81 81 81 
79 77 78 81 83 84 83 85 89 97 101 100 98 100 111 131 158 190 222 252 255 255 
255 238 217 198 177 149 114 77 52 45 49 56 61 66 74 82 87 88 84 78 74 72 74 76 
74 68 60 54 55 61 72 83 86 80 75 77 80 80 78 80 84 87 88 88 88 86 82 82 85 83 
78 81 86 90 91 87 91 91 93 84 87 88 89 90 89 87 87 88 83 78 79 83 82 79 78 78 
75 70 64 63 66 72 75 72 72 79 86 89 90 90 87 83 81 82 85 86 85 83 85 88 88 84 
80 81 91 108 131 160 194 225 246 253 245 227 209 193 177 155 121 83 58 51 58 
67 70 70 74 80 85 86 86 85 81 76 74 75 74 68 61 58 62 72 81 86 84 76 72 76 81 
82 82 86 88 87 85 86 89 88 87 86 86 80 73 72 78 90 88 85 87 93 93 88 87 90 93 
93 90 86 87 87 82 77 78 83 82 77 76 79 80 75 68 65 68 75 77 75 74 81 91 99 101 
100 94 86 79 77 79 84 85 83 80 80 78 74 69 68 75 89 111 139 169 196 215 226 
226 215 198 182 166 144 113 83 64 60 69 80 83 78 75 77 79 81 84 86 84 78 76 80 
83 79 74 72 77 82 86 86 81 77 76 79 82 82 85 89 89 84 81 84 89 89 85 82 81 76 
71 70 81 87 84 88 88 96 92 84 89 92 95 94 91 87 87 86 81 76 79 83 81 77 77 81 
83 78 71 68 71 76 77 75 76 85 97 105 107 106 102 92 81 72 72 78 83 82 77 72 69 
66 63 62 67 77 95 120 145 168 186 200 205 198 183 166 147 123 96 76 66 64 71 
82 85 79 72 71 73 76 81 84 83 80 81 87 93 92 87 85 86 85 82 80 80 81 83 82 81 
80 84 88 86 81 80 85 89 89 83 76 74 74 72 74 84 84 84 90 92 94 89 81 91 93 93 
92 89 86 85 83 78 76 79 82 82 78 78 82 82 78 72 70 72 74 74 73 78 89 100 104 
106 109 109 100 84 71 66 71 79 82 76 70 66 65 65 64 66 71 81 99 120 139 159 
176 183 178 165 150 130 102 79 71 68 66 67 74 75 70 64 64 70 76 80 82 82 81 83 
88 93 91 87 85 86 81 74 75 82 86 84 79 76 78 84 86 83 81 82 85 88 86 81 76 75 
75 74 77 89 86 86 93 88 87 86 84 92 92 90 88 86 85 83 80 75 73 75 80 82 80 79 
81 82 78 74 71 71 71 70 71 77 89 98 100 102 107 109 100 83 69 62 64 74 82 81 
75 71 72 72 71 69 69 71 79 93 113 135 154 161 156 148 137 117 89 72 71 73 67 
61 62 64 62 61 65 72 78 83 86 86 84 84 86 86 82 77 79 82 79 73 77 86 87 81 73 
72 77 84 84 82 82 84 83 81 80 80 80 81 79 76 81 92 90 89 85 83 82 84 87 93 92 
87 83 82 84 86 82 74 70 71 77 80 80 78 79 82 81 76 71 68 67 67 68 72 81 91 94 
96 100 100 92 78 67 60 61 71 82 85 81 78 79 80 76 73 69 65 65 74 91 111 127 
134 134 129 120 103 84 72 73 75 68 58 57 60 64 67 70 72 76 83 89 88 86 86 87 
84 76 71 74 81 82 79 81 86 84 79 76 74 77 82 82 81 83 86 82 77 76 78 82 85 84 
80 84 95 94 90 81 81 81 83 88 95 91 83 78 78 83 88 86 77 69 69 74 78 78 77 78 
81 82 77 69 64 64 67 68 67 69 77 84 89 90 89 83 74 66 60 61 72 83 86 82 79 80 
79 76 73 69 64 62 65 76 89 100 106 109 106 98 87 78 74 75 74 68 61 60 64 70 71 
68 65 66 74 83 86 86 87 87 85 79 74 75 81 83 83 83 83 81 82 86 83 78 78 80 80 
83 87 86 82 79 80 84 88 87 85 88 96 94 89 82 82 84 84 87 96 88 79 73 74 80 88 
89 80 72 71 74 78 82 82 81 82 82 79 72 66 66 70 71 66 62 66 74 80 83 81 79 73 
66 61 66 78 86 85 80 77 76 74 73 72 71 68 64 63 67 73 78 84 88 85 77 72 73 74 
73 70 65 63 65 70 73 70 63 56 56 63 73 81 84 84 85 86 83 78 76 79 81 83 83 81 
80 85 90 85 77 76 79 81 84 88 89 87 86 87 90 93 91 88 92 97 93 90 81 79 84 86 
89 90 86 80 76 75 78 85 87 82 78 78 78 82 89 90 86 82 82 83 80 73 70 73 76 72 
65 62 67 74 79 80 77 72 65 63 72 83 88 85 81 80 77 73 74 76 75 72 67 64 64 66 
68 72 74 71 65 63 68 70 68 63 60 63 70 75 75 71 64 59 59 62 68 76 80 81 82 86 
85 79 75 75 77 80 81 79 79 84 85 80 75 76 82 84 84 86 87 87 90 93 94 94 90 87 
91 95 92 92 82 75 82 86 90 84 85 85 84 82 80 81 83 83 85 86 83 85 92 93 84 76 
77 85 86 79 73 74 79 78 69 61 62 69 78 80 76 70 66 68 76 84 84 81 84 87 83 78 
78 79 75 70 67 65 68 70 70 70 70 67 63 62 65 66 64 62 63 66 71 75 76 73 70 72 
74 71 69 73 77 78 81 85 84 78 75 77 79 79 79 79 79 81 81 76 76 81 85 85 84 84 
84 86 90 92 91 88 85 86 88 89 92 92 78 76 79 82 88 81 84 88 91 89 86 83 81 83 
88 90 85 84 89 89 79 71 72 82 87 80 72 71 74 73 68 60 60 67 74 76 73 70 71 74 
79 81 76 75 82 87 84 78 78 78 72 64 62 65 72 77 76 73 72 70 68 67 66 66 67 69 
72 74 73 71 70 69 72 80 86 82 74 72 75 78 81 83 82 78 78 82 82 78 74 74 78 82 
82 80 82 85 84 82 83 84 84 86 89 89 85 83 83 87 88 87 92 88 79 83 80 81 87 82 
84 88 92 94 94 89 84 83 87 88 84 82 85 85 79 74 74 80 84 81 76 71 67 65 66 68 
69 70 72 72 71 73 76 78 79 78 72 70 75 80 80 77 77 77 70 60 57 62 70 75 74 74 
74 75 75 74 72 71 73 76 79 80 77 72 68 66 70 81 89 86 79 75 78 80 80 81 81 80 
80 82 81 73 67 69 77 84 85 86 87 87 84 80 83 87 88 87 88 88 85 83 83 90 89 87 
90 86 80 85 83 83 85 84 85 88 91 93 94 92 88 87 87 86 83 81 83 85 84 82 81 81 
82 82 80 76 68 64 70 80 83 80 75 71 72 75 76 77 78 78 75 72 72 74 76 78 81 79 
72 63 59 60 64 65 66 70 75 77 80 81 79 76 74 74 76 79 82 81 76 70 71 78 84 83 
80 81 84 83 81 81 81 80 77 77 75 69 65 69 77 81 82 85 88 89 85 81 84 89 89 85 
86 90 89 85 86 88 87 87 88 84 81 83 85 82 80 80 85 89 91 90 87 86 87 88 88 87 
83 81 83 86 89 88 86 83 82 82 84 82 73 69 77 87 91 86 79 74 71 71 71 73 78 81 
80 77 73 70 72 79 84 83 76 69 65 64 63 60 61 70 77 80 82 83 81 77 73 70 71 78 
83 84 81 77 74 76 79 79 80 84 86 84 80 80 81 78 74 72 73 71 71 73 76 75 75 79 
85 87 86 83 86 89 87 83 85 92 93 89 85 83 85 88 90 86 85 83 87 86 84 81 82 87 
90 86 80 78 81 86 88 87 85 83 84 88 90 87 84 83 83 86 89 85 78 76 81 87 87 83 
79 74 69 67 68 71 77 81 82 80 75 69 68 75 82 82 77 74 74 74 69 64 68 77 84 84 
82 82 80 76 73 71 73 77 80 80 79 78 78 78 78 78 78 81 83 81 79 80 81 78 72 71 
73 75 76 77 76 75 73 76 81 85 86 87 90 91 87 84 88 95 95 89 82 81 86 90 91 91 
88 85 83 88 92 91 80 85 88 84 76 73 78 85 89 90 89 88 87 87 86 83 80 81 85 90 
92 88 83 82 84 84 82 80 78 75 71 70 71 72 75 76 77 79 77 68 63 69 78 80 77 76 
79 80 77 73 77 86 89 84 80 79 77 74 73 74 76 78 78 77 77 81 83 83 80 76 75 78 
82 82 80 84 87 84 75 70 71 74 76 79 82 82 78 78 82 85 89 93 95 94 89 88 93 97 
93 86 82 82 85 88 89 87 85 85 81 93 98 94 82 85 87 83 76 75 80 88 92 94 94 92 
87 83 82 83 82 79 84 91 94 91 89 90 88 84 81 81 79 78 77 78 76 73 72 71 73 77 
77 70 64 69 78 79 75 76 80 83 82 81 82 85 87 82 78 77 75 73 73 76 78 80 81 82 
83 86 86 84 79 73 72 78 84 84 83 88 93 90 79 71 72 74 77 83 88 87 83 81 83 87 
92 96 96 92 88 88 93 95 89 81 80 79 81 83 85 83 81 82 81 91 96 92 84 82 81 80 
77 79 85 93 97 97 94 90 84 79 80 86 85 80 80 88 92 91 91 93 89 83 83 83 81 79 
82 84 79 73 70 70 71 76 78 74 71 74 78 76 74 76 81 85 87 86 82 80 81 79 77 77 
76 74 75 79 80 81 85 89 88 86 82 80 76 70 71 78 84 84 82 86 91 90 83 77 77 78 
80 83 86 84 81 82 86 90 92 93 90 88 87 87 89 91 88 77 76 76 78 81 85 86 82 83 
85 91 90 88 85 83 81 78 79 80 87 95 99 97 92 87 82 78 80 87 89 82 78 84 88 87 
88 90 85 80 81 83 80 78 82 85 80 73 71 72 74 79 82 79 75 74 74 71 72 76 82 88 
93 91 82 76 77 79 80 79 78 78 79 81 79 79 85 92 90 83 78 77 75 69 69 73 78 79 
80 82 84 86 85 85 84 82 80 79 79 76 75 83 92 96 93 90 86 87 90 88 87 90 90 79 
76 78 81 85 87 90 84 87 87 89 86 85 85 87 88 86 83 83 84 89 96 94 89 86 83 80 
81 87 88 84 81 84 84 82 84 87 82 76 77 81 81 79 81 82 79 75 74 75 78 82 84 81 
74 69 67 68 73 76 80 87 95 94 85 78 79 82 82 80 79 80 81 79 75 74 81 91 90 80 
75 76 75 71 68 69 72 78 81 81 81 83 87 89 88 84 80 79 79 75 76 85 97 102 100 
93 88 88 91 89 87 91 88 80 82 86 88 88 87 89 84 88 83 84 83 85 83 92 96 92 90 
90 87 86 89 91 87 85 80 75 77 82 84 82 83 85 83 80 83 86 81 74 75 82 84 81 78 
78 79 77 77 77 77 79 81 78 72 68 70 77 81 77 74 82 93 94 87 81 82 83 82 78 77 
79 80 77 70 69 77 87 84 75 71 74 76 75 73 72 76 83 85 81 79 82 86 89 88 84 83 
85 88 85 82 86 96 104 105 98 90 87 88 87 87 90 85 81 85 88 88 84 82 85 84 88 
78 79 80 85 83 94 97 93 88 86 85 86 88 90 85 82 81 76 75 86 86 81 83 87 85 81 
84 87 82 74 74 82 86 80 75 76 80 80 80 79 77 75 77 78 76 76 82 90 90 79 71 76 
87 90 85 80 79 79 78 76 76 78 80 78 72 71 77 84 80 71 67 72 78 82 83 84 86 90 
88 82 78 82 84 84 83 83 84 89 95 95 88 86 92 101 104 98 88 83 84 86 89 91 84 
82 83 81 79 77 78 82 84 88 81 81 82 87 84 92 93 89 86 85 83 84 88 90 86 82 78 
75 78 81 88 88 87 90 87 83 84 86 82 74 73 79 82 78 73 76 81 84 85 84 80 74 73 
76 81 84 88 92 92 82 73 74 80 82 80 76 74 74 76 77 78 80 83 83 80 78 82 85 82 
73 70 74 82 88 89 90 92 94 90 84 83 85 85 82 80 81 82 85 91 94 90 84 86 95 98 
92 84 81 84 88 91 94 90 84 80 74 74 76 79 77 81 85 74 70 82 78 87 91 88 86 87 
86 82 80 82 88 88 81 74 74 80 84 90 89 85 85 86 83 84 84 81 75 74 78 78 75 73 
77 82 86 89 91 85 76 69 71 77 82 84 85 85 80 77 76 76 75 74 73 73 74 76 79 80 
82 85 88 87 85 85 86 83 77 74 79 85 88 87 87 91 92 90 88 90 92 89 83 81 82 83 
83 84 86 85 82 84 90 93 87 81 81 84 87 91 94 91 86 81 77 78 84 82 73 78 83 74 
79 84 84 94 87 85 85 88 89 84 79 80 86 87 81 76 77 84 92 96 96 93 89 83 80 78 
78 75 74 76 79 79 76 76 78 81 85 91 95 91 80 68 65 70 76 78 77 76 76 77 76 73 
69 70 74 77 78 78 78 78 80 84 90 91 88 85 81 77 74 75 81 85 85 84 86 88 87 87 
90 94 94 89 85 84 86 87 86 83 82 82 80 82 88 90 85 78 78 80 83 86 86 84 84 83 
83 88 90 82 73 78 85 76 83 84 82 89 81 81 83 88 89 87 83 83 84 83 80 77 80 86 
94 98 96 92 87 83 78 75 76 80 80 80 81 81 80 79 77 77 80 87 93 93 85 73 66 68 
74 78 76 73 73 75 76 72 68 69 76 81 82 80 77 76 76 81 87 90 88 82 76 71 70 75 
81 85 86 87 90 89 84 82 85 90 90 87 85 86 87 88 86 86 87 85 81 81 85 86 81 76 
75 78 81 83 83 82 81 85 89 90 86 78 79 83 87 77 86 84 80 81 81 82 85 92 96 92 
87 83 81 81 80 80 80 82 88 95 95 89 86 84 79 76 80 83 82 80 82 85 86 84 78 75 
75 80 86 91 90 81 72 71 76 80 79 74 71 73 76 74 71 73 79 83 82 79 76 75 75 78 
82 86 85 80 74 70 72 78 84 88 89 91 93 89 80 75 78 83 85 84 84 84 82 81 83 85 
89 89 84 79 81 82 80 79 80 82 84 85 87 83 84 90 92 83 74 79 78 79 81 77 86 83 
81 81 78 76 83 82 90 95 89 86 85 86 88 85 87 88 86 87 91 90 85 81 76 74 78 88 
88 85 87 90 87 82 82 80 76 76 83 89 89 84 73 71 77 82 83 79 74 72 75 77 77 80 
83 81 77 76 75 75 76 78 81 83 84 81 76 74 78 85 88 88 88 89 89 85 76 72 75 80 
83 82 82 81 78 77 78 81 85 87 83 78 78 80 82 85 88 88 87 88 89 83 88 95 77 83 
84 74 67 77 90 87 82 78 82 85 72 79 83 86 98 102 93 85 86 95 95 92 89 86 85 86 
89 88 81 82 77 74 82 82 88 88 85 85 85 84 85 81 77 76 80 85 83 75 74 73 76 83 
87 87 80 74 74 79 83 86 87 82 77 74 75 75 78 82 83 84 85 83 79 79 85 89 87 84 
82 82 82 80 77 77 80 82 80 78 77 78 78 80 83 83 83 86 86 81 77 80 83 85 84 84 
84 82 83 88 89 73 74 81 84 76 69 74 83 88 74 79 82 85 75 83 84 86 94 93 85 79 
86 96 97 91 86 85 83 84 88 90 87 79 73 75 79 86 92 93 92 89 82 77 72 73 77 78 
80 80 80 81 85 84 81 83 89 89 85 82 80 82 86 89 88 84 79 78 77 77 80 85 88 87 
84 81 80 82 87 88 82 78 80 81 81 82 84 86 86 82 76 80 83 87 90 86 80 80 83 82 
77 76 78 80 83 84 82 81 84 87 90 90 85 76 76 84 88 83 76 74 76 88 73 85 85 84 
77 86 83 81 83 83 77 75 84 92 93 88 86 85 82 80 82 88 88 81 75 76 84 93 98 97 
92 88 85 79 77 80 84 83 80 83 87 87 84 83 85 79 78 80 84 85 87 87 85 85 83 80 
80 81 81 80 82 86 90 87 80 76 78 84 88 80 80 78 78 80 82 80 79 79 80 78 77 78 
80 83 87 85 79 77 80 82 83 84 85 86 86 89 84 83 89 92 88 81 77 80 82 86 87 84 
78 74 73 79 80 88 88 82 76 87 83 81 81 81 77 77 85 91 88 85 88 88 84 79 79 85 
87 82 78 78 85 92 97 96 90 87 86 82 76 76 83 87 86 87 90 88 84 84 84 79 75 77 
80 83 87 89 90 88 82 77 74 79 87 81 76 78 83 87 86 81 78 80 81 82 82 84 86 86 
83 77 74 74 76 78 81 86 85 83 85 86 82 80 81 83 86 90 89 87 87 89 84 87 95 94 
82 71 78 77 79 80 79 82 88 88 80 
