P2
112 112
255
70 73 77 82 81 77 73 71 72 72 72 71 70 69 69 75 81 80 77 77 77 74 74 76 76 77 
80 81 75 66 74 76 71 64 68 76 79 75 71 70 71 74 74 72 73 76 71 65 65 71 76 76 
74 71 67 67 73 81 84 82 81 81 78 72 73 77 79 79 83 86 85 82 80 81 79 76 77 75 
78 72 71 78 86 87 83 79 79 82 82 74 68 73 79 79 81 85 81 72 67 67 65 61 63 65 
63 58 57 66 74 72 68 70 68 70 73 75 74 74 77 81 79 72 68 71 77 77 73 77 83 83 
78 75 74 72 74 76 74 72 72 72 67 69 71 75 69 63 64 74 78 75 71 71 74 76 74 67 
67 68 65 61 63 68 71 75 80 78 69 69 77 86 88 86 86 85 81 75 72 74 75 76 78 81 
80 77 78 83 82 79 77 80 80 80 78 84 91 90 79 71 71 78 82 74 68 73 79 79 81 88 
86 77 71 69 62 56 59 68 72 70 68 72 76 73 68 69 80 70 74 71 68 70 78 87 88 81 
74 76 81 79 76 80 85 83 76 73 72 72 74 75 72 68 70 73 72 66 69 70 68 62 64 71 
75 73 70 72 75 76 73 69 67 66 62 59 60 61 61 67 78 77 70 72 82 89 90 87 84 83 
84 82 82 80 76 73 71 70 67 64 69 78 81 78 76 76 77 78 81 84 90 87 76 66 66 74 
80 73 68 74 79 76 77 85 86 79 75 72 65 56 58 70 79 80 78 76 74 67 64 68 84 67 
73 72 70 72 78 84 86 82 79 80 81 79 78 82 82 75 68 69 73 76 76 75 73 73 76 78 
71 69 68 68 65 59 61 68 73 72 73 74 74 71 72 74 74 71 64 60 60 58 55 61 71 74 
70 73 81 86 87 84 78 76 82 90 91 88 80 72 68 65 58 53 61 72 78 74 71 69 67 69 
77 85 84 85 78 73 75 81 80 70 66 73 78 75 76 84 88 84 81 78 73 65 65 73 81 83 
80 77 73 65 64 71 84 67 71 73 74 74 73 73 74 72 72 75 79 81 81 81 76 66 60 66 
75 79 77 75 75 79 77 77 77 76 74 70 63 59 61 69 73 75 78 82 78 72 72 78 81 76 
69 64 63 61 60 65 72 74 74 74 76 78 82 83 76 69 75 83 88 83 78 73 70 67 59 55 
61 72 74 70 65 62 60 64 69 72 80 79 79 78 83 87 80 67 66 75 81 80 81 88 93 89 
84 83 81 77 74 74 75 75 76 79 79 72 69 77 83 73 70 69 72 72 68 67 70 70 68 71 
78 83 82 80 74 65 61 66 75 79 76 72 72 75 76 76 78 82 82 77 71 68 72 74 74 75 
80 85 84 77 73 77 80 79 72 67 65 66 67 69 72 74 75 75 72 74 80 85 78 69 66 71 
75 76 74 73 73 68 62 58 64 69 69 65 64 64 65 67 70 66 62 71 74 75 79 81 76 69 
73 84 87 82 80 87 90 86 81 81 83 84 80 72 66 66 73 83 88 82 75 80 82 81 73 67 
68 68 66 69 78 82 78 76 80 81 78 77 77 75 71 70 72 74 73 70 68 74 74 73 76 82 
85 84 81 82 82 79 73 71 74 81 83 76 70 69 73 76 72 65 62 65 67 66 64 66 72 73 
71 70 76 79 77 68 62 63 69 75 77 76 71 66 60 59 62 65 64 65 69 73 75 76 73 66 
58 57 68 73 72 72 71 72 80 88 85 75 71 76 82 80 76 75 79 83 81 73 66 67 74 86 
91 86 78 78 81 87 78 71 70 70 67 71 82 88 84 79 78 76 73 76 82 83 77 70 65 67 
70 71 73 72 75 74 74 78 84 84 84 85 84 75 68 66 68 73 74 70 60 56 62 68 69 63 
61 63 64 60 54 57 63 69 68 67 66 67 67 64 60 58 65 75 80 77 71 63 60 59 61 63 
64 66 70 75 77 77 73 66 60 61 67 73 73 67 64 68 76 83 78 68 64 71 79 80 74 70 
73 79 82 80 75 74 78 85 87 82 76 74 80 86 79 74 74 71 65 66 74 77 74 74 75 73 
71 74 79 80 73 65 61 64 69 70 73 78 79 76 73 75 78 76 74 76 75 68 63 66 70 70 
70 65 55 51 54 62 65 66 66 68 68 60 54 54 61 66 65 62 60 58 60 63 62 58 60 67 
74 76 73 69 63 61 61 65 66 64 62 63 66 66 66 65 65 69 75 76 73 66 57 59 68 77 
78 72 69 76 85 84 75 68 71 79 83 83 79 76 79 83 81 75 72 74 79 78 71 71 74 71 
65 65 69 67 63 66 72 73 70 71 74 73 67 64 66 71 67 79 81 82 81 78 77 76 73 66 
63 68 71 67 64 70 76 77 74 67 59 56 58 63 68 73 76 78 75 70 65 65 67 66 61 59 
59 58 62 67 69 64 60 61 67 73 76 75 70 65 65 68 69 63 56 54 55 59 62 63 67 73 
79 77 74 72 65 56 64 76 81 77 73 78 85 84 75 72 77 82 82 77 72 70 77 84 82 73 
71 77 74 68 64 67 73 72 69 72 75 70 62 63 68 67 64 67 72 71 67 69 77 71 78 80 
82 84 83 80 80 80 73 65 63 69 74 70 69 73 81 82 76 69 63 63 66 69 73 80 83 83 
81 80 78 78 76 68 58 58 60 61 62 67 73 73 68 64 65 68 72 72 72 70 70 72 74 69 
62 58 58 60 63 64 65 71 78 77 73 70 70 70 68 77 79 73 68 71 77 78 78 81 84 83 
79 73 66 66 74 85 84 75 71 77 66 67 66 69 75 78 78 80 80 74 68 67 65 59 57 64 
72 74 71 73 78 76 73 71 74 80 82 80 79 78 76 73 73 77 79 76 72 74 80 79 73 66 
64 66 68 70 73 79 81 80 81 83 82 80 77 67 58 56 60 60 60 63 69 75 75 71 64 62 
61 64 69 74 74 73 75 77 75 70 67 65 66 64 64 69 76 77 71 66 65 67 72 78 75 67 
65 68 70 73 82 89 87 78 73 73 70 66 70 80 81 73 69 72 62 72 72 71 76 82 86 84 
78 73 73 75 69 58 55 63 71 72 70 80 80 78 70 62 66 75 79 77 74 74 77 82 83 81 
80 79 75 75 76 73 66 63 66 69 69 68 71 76 77 77 78 78 74 73 72 67 57 55 59 62 
63 62 64 68 73 71 64 58 57 61 70 75 74 70 72 79 81 78 70 66 65 64 63 68 75 76 
70 65 64 65 70 75 70 65 70 76 71 69 79 88 82 69 68 75 75 67 66 74 78 72 67 69 
64 75 72 66 69 80 88 85 76 70 76 83 79 65 59 63 65 64 65 78 82 80 71 63 65 74 
78 76 72 72 78 84 82 77 77 78 78 76 74 68 62 62 71 75 72 69 70 74 75 75 74 69 
65 67 70 68 60 57 60 66 70 67 61 60 64 65 63 61 64 69 71 73 71 69 71 75 78 75 
68 64 63 63 61 64 72 74 71 70 70 71 72 76 79 76 76 85 77 67 72 80 76 67 70 79 
77 69 69 79 82 75 68 70 64 74 70 61 61 71 83 84 75 69 76 86 85 73 66 66 63 60 
68 76 79 78 74 70 72 76 80 78 74 72 76 80 78 74 74 77 77 75 71 65 57 58 66 74 
73 70 68 68 70 71 69 65 66 73 79 76 68 63 65 69 74 72 65 59 59 59 60 63 72 75 
72 67 68 74 74 72 69 68 64 61 64 64 60 61 68 73 73 74 77 76 73 75 79 80 76 86 
81 69 70 76 74 71 76 82 79 74 79 88 88 78 69 72 63 73 72 64 59 66 79 83 73 66 
73 86 87 78 72 72 69 62 68 72 72 72 74 77 76 78 80 79 76 74 76 78 79 78 77 77 
73 70 68 62 56 53 58 64 68 67 63 61 63 67 67 67 73 84 86 81 73 71 71 72 74 74 
70 67 65 63 59 63 71 74 66 59 66 78 78 69 65 65 62 59 66 70 67 67 73 76 74 72 
75 75 72 70 73 75 74 71 80 73 73 76 74 72 77 81 79 77 81 86 85 76 69 70 66 73 
74 70 67 73 84 84 71 62 69 84 87 78 73 75 63 70 70 69 65 65 72 77 78 78 79 80 
79 77 77 80 82 83 80 74 69 66 64 62 59 57 58 59 63 64 61 58 61 65 67 69 76 82 
80 71 68 70 73 72 69 68 69 72 73 70 64 63 66 67 60 54 59 72 74 66 64 69 63 60 
66 76 77 78 82 83 73 67 68 71 69 67 68 71 72 66 66 75 74 75 71 68 70 73 74 73 
74 77 77 73 69 68 70 75 74 72 75 85 92 86 72 63 68 80 83 74 69 61 76 78 74 69 
64 64 68 74 76 76 77 79 81 81 80 80 80 79 74 69 66 66 65 63 63 63 61 60 62 63 
62 62 64 66 66 67 69 68 62 56 54 59 67 66 62 59 61 67 71 71 67 62 59 58 55 50 
53 61 63 60 64 69 67 59 64 72 75 78 83 80 70 61 61 64 64 64 67 72 72 69 66 70 
73 72 69 65 64 67 70 70 71 75 77 75 70 67 68 80 74 69 75 86 88 82 73 69 72 79 
79 70 68 74 81 78 75 73 72 71 71 74 75 74 71 72 78 80 79 76 73 70 65 64 67 70 
69 66 63 60 57 56 59 62 64 67 70 69 67 66 63 57 52 48 47 53 60 63 59 57 58 61 
62 65 65 61 51 47 49 51 52 54 55 56 58 65 65 60 60 64 66 69 72 71 64 61 62 64 
65 67 69 72 73 73 75 78 78 72 74 69 64 66 70 72 75 80 82 79 73 69 66 84 76 66 
68 74 75 73 74 76 78 81 79 71 73 70 69 71 72 75 80 81 78 77 76 72 65 64 71 78 
78 73 70 68 66 67 72 75 74 69 63 56 50 53 60 63 62 64 69 70 70 69 63 56 52 52 
51 52 59 61 57 58 60 58 56 59 65 62 50 45 49 56 58 56 56 55 55 57 61 62 61 62 
62 63 65 67 68 69 73 78 78 76 75 73 73 76 80 83 80 76 68 76 68 66 69 73 77 84 
86 80 74 72 72 82 75 65 64 67 68 70 75 79 79 79 77 76 69 61 62 67 70 74 81 84 
81 79 78 72 65 62 71 78 78 74 72 72 71 72 75 76 75 73 68 57 52 57 67 65 55 51 
56 64 69 69 64 56 56 59 57 54 55 53 49 50 53 55 53 57 66 65 58 53 59 65 66 63 
61 58 54 52 57 63 67 67 66 66 68 71 74 79 84 90 91 86 77 73 74 74 75 75 72 70 
74 72 70 66 68 70 74 81 84 80 76 76 79 76 71 68 70 73 74 74 76 77 75 71 78 74 
65 60 64 74 77 76 78 79 78 79 78 75 70 69 74 80 78 74 74 73 70 67 69 71 72 74 
69 60 55 63 73 66 49 35 41 53 63 66 63 59 61 66 63 57 54 51 45 42 45 48 52 59 
67 71 67 65 68 71 71 67 63 57 50 49 55 65 71 72 70 69 69 71 74 76 82 88 89 81 
73 70 72 68 65 64 63 65 72 83 81 68 71 71 71 76 80 79 78 79 78 74 74 76 79 81 
79 75 73 74 73 79 72 70 66 64 70 79 83 81 77 76 77 78 77 76 75 76 78 79 76 73 
73 70 61 56 58 63 67 70 68 61 57 67 75 72 50 35 34 46 57 64 68 72 78 81 73 66 
67 70 61 50 46 48 53 61 70 76 75 73 71 70 70 68 59 48 42 46 56 68 75 74 72 70 
68 65 66 69 73 76 75 69 65 68 71 68 64 64 66 68 74 82 86 82 75 74 71 74 77 77 
79 78 70 79 82 83 81 79 76 72 70 74 83 75 71 73 73 70 71 77 83 82 81 80 81 79 
75 73 75 77 78 77 74 71 71 63 52 45 51 59 63 64 63 60 63 71 78 74 60 46 42 47 
54 67 82 96 102 100 90 82 91 94 83 64 53 53 57 63 72 79 82 80 75 70 68 64 53 
40 37 45 59 70 75 74 72 72 69 63 62 66 69 68 66 62 63 67 73 72 69 70 71 73 76 
79 79 76 76 75 74 77 79 77 76 75 65 83 86 84 79 74 73 70 70 85 83 78 77 81 80 
75 69 70 75 80 83 85 83 77 72 71 74 76 75 73 70 67 63 55 44 43 52 61 62 59 57 
60 68 78 79 73 62 54 52 52 58 74 97 113 120 117 108 105 109 109 93 69 57 58 61 
63 68 78 88 92 86 76 67 60 50 41 41 48 57 65 68 67 69 73 71 65 63 65 68 68 68 
69 68 69 71 71 70 70 71 74 74 74 72 71 73 76 81 84 84 76 69 68 64 80 81 80 78 
76 75 72 71 85 79 76 78 83 82 76 69 66 69 75 81 82 78 72 70 76 77 74 69 65 65 
63 59 50 44 47 59 66 64 59 57 62 74 81 79 68 56 53 54 56 63 82 106 123 129 132 
130 126 123 115 95 71 59 61 62 60 60 71 85 94 92 80 66 58 54 53 53 53 54 58 60 
58 60 67 70 65 59 61 66 70 76 80 77 70 66 67 66 65 68 72 73 71 70 72 75 75 72 
76 86 74 64 64 66 73 72 73 77 79 78 74 84 76 72 72 75 79 81 77 71 66 66 70 75 
75 70 67 73 80 79 68 59 58 62 65 61 52 46 52 61 67 67 66 65 67 73 78 74 60 49 
45 49 53 65 88 114 132 145 153 154 146 134 121 100 74 56 53 55 52 53 61 73 83 
84 74 62 56 59 66 66 60 56 61 62 57 55 62 65 60 54 57 66 73 79 84 81 71 65 64 
64 66 69 75 77 75 75 79 83 82 78 76 77 71 63 67 70 71 69 66 69 75 77 79 79 76 
77 76 76 78 79 77 72 67 66 68 72 72 68 66 72 78 72 62 55 58 66 70 64 55 49 53 
60 66 71 75 73 69 67 65 60 52 40 36 38 46 64 95 126 151 168 180 176 159 140 
123 103 75 51 41 39 41 45 54 62 68 70 63 53 50 61 72 75 65 62 67 69 60 54 59 
64 59 53 57 68 73 71 74 73 68 62 60 63 69 76 81 82 80 80 86 91 91 86 82 79 79 
64 71 75 75 71 64 62 67 79 79 80 84 90 89 82 78 78 76 73 73 72 72 73 70 66 63 
65 68 67 61 58 61 67 69 61 49 47 52 60 69 77 80 76 69 61 53 47 41 36 31 33 44 
71 105 140 168 190 201 193 169 141 118 96 71 49 34 26 25 36 48 55 58 59 55 46 
47 57 71 72 67 65 72 72 62 56 61 64 58 53 58 69 69 63 60 65 65 57 53 58 71 81 
84 83 80 79 84 89 89 84 83 81 74 73 70 74 76 75 68 62 82 77 76 80 88 96 92 81 
73 73 75 79 83 84 79 74 67 61 56 57 62 66 68 64 61 63 64 55 43 40 47 59 70 79 
80 74 69 63 53 43 40 40 38 42 57 86 120 152 179 203 214 205 177 144 115 89 68 
51 36 20 13 23 40 49 50 52 51 49 50 57 63 65 63 68 76 74 64 59 62 60 53 47 53 
63 65 59 59 65 65 58 52 59 72 83 84 79 74 73 77 82 81 78 79 82 79 78 78 71 73 
74 71 75 78 75 74 78 87 90 84 68 62 65 72 80 88 88 83 74 67 60 56 58 64 72 73 
66 56 57 63 56 44 40 46 53 64 73 76 71 68 68 57 46 43 46 50 57 76 104 134 164 
191 215 225 213 186 152 120 91 66 51 34 16 6 13 32 44 46 46 49 53 56 58 60 60 
64 73 82 81 70 64 61 57 48 45 51 60 63 59 61 67 69 66 66 69 75 81 79 73 69 71 
79 82 80 75 78 80 83 86 90 70 68 69 70 76 78 76 75 80 87 87 77 63 57 59 65 72 
80 82 78 74 70 65 62 65 70 75 74 63 51 53 64 65 58 55 57 57 60 69 72 67 65 64 
57 46 41 46 52 64 84 113 144 175 204 224 227 215 189 160 131 97 66 43 29 18 10 
15 30 44 47 45 47 51 55 56 57 63 70 77 84 82 76 68 63 57 51 51 58 67 68 64 63 
66 70 74 78 77 74 73 74 69 67 75 85 91 87 80 75 77 82 90 91 71 66 67 73 66 71 
73 77 83 89 86 77 68 63 62 60 62 69 73 71 70 71 68 68 69 72 75 74 64 52 54 68 
76 76 76 74 67 64 71 75 71 66 64 59 50 44 41 46 62 88 116 146 177 202 216 219 
211 193 168 141 111 77 52 39 33 29 28 37 50 55 51 45 45 47 49 56 65 71 71 72 
74 73 70 65 59 54 54 63 72 73 68 64 64 67 72 76 75 68 67 70 69 71 77 87 91 89 
81 74 73 80 86 84 75 70 73 57 61 65 70 76 81 83 81 74 68 67 64 62 63 69 70 67 
67 72 72 70 69 70 72 74 70 61 59 69 79 83 86 81 70 65 72 79 80 76 72 67 62 54 
47 48 68 97 126 152 172 187 196 202 205 198 178 156 134 110 88 73 66 59 53 53 
59 63 57 47 42 43 47 54 62 65 60 59 64 70 70 67 60 54 54 62 70 71 67 65 66 67 
65 66 67 65 67 69 73 76 82 82 81 80 75 69 68 76 82 78 77 64 61 61 62 63 69 74 
74 73 70 66 63 64 67 69 72 75 75 70 72 78 80 75 69 66 67 71 72 66 61 65 71 79 
83 80 70 65 70 82 88 86 77 72 71 69 65 67 87 116 140 159 172 177 181 191 204 
206 193 178 167 156 138 119 105 97 89 79 74 70 63 53 45 43 46 52 57 59 56 56 
60 65 66 63 59 56 57 62 66 66 64 64 69 70 68 64 68 71 70 71 73 81 82 77 71 72 
71 67 67 73 77 77 64 62 66 69 66 64 69 73 71 66 66 66 65 69 72 75 77 80 78 76 
80 88 87 78 69 65 65 69 71 66 59 56 61 71 81 84 77 71 75 85 92 89 79 71 75 82 
85 89 104 126 148 166 176 179 183 195 211 220 215 205 203 200 187 166 148 141 
132 117 98 84 73 60 47 39 42 48 54 58 57 55 56 57 56 55 54 55 60 62 61 59 59 
63 70 77 76 73 76 79 77 69 70 77 79 73 70 72 73 71 71 72 75 78 70 70 76 78 71 
68 72 76 71 66 69 74 79 79 77 75 75 79 81 81 85 88 83 74 69 69 69 72 75 73 64 
56 55 66 79 87 85 80 80 86 91 90 82 77 82 92 100 103 112 129 149 167 179 186 
195 212 230 239 240 235 236 238 230 211 197 188 179 156 126 104 87 70 48 34 36 
44 52 54 50 45 44 46 49 49 50 55 58 57 52 50 55 62 70 77 78 77 80 83 78 66 63 
68 71 71 74 78 78 78 78 77 73 77 82 83 85 83 78 75 79 79 73 68 73 83 87 83 73 
68 72 78 82 83 83 80 72 66 70 74 75 75 80 83 77 68 62 64 72 80 82 83 83 85 89 
93 92 91 95 104 109 112 118 131 149 166 178 189 207 231 249 255 254 255 255 
255 255 255 244 235 221 191 158 129 107 82 54 35 31 40 43 42 36 32 35 43 51 55 
56 58 60 55 46 45 52 63 68 71 71 71 77 82 75 63 58 63 67 71 77 81 80 80 82 79 
74 73 84 81 79 78 78 80 81 79 71 68 75 85 87 78 66 65 71 78 78 76 74 71 65 65 
72 78 74 72 79 86 85 78 71 65 64 68 77 82 86 87 91 96 101 103 106 112 118 121 
128 140 153 166 174 186 207 233 249 254 254 255 255 255 255 255 255 255 253 
225 192 163 133 102 71 45 32 29 28 25 24 29 38 48 57 61 62 65 67 60 50 45 51 
61 66 66 64 67 75 81 75 63 60 65 70 70 75 77 76 78 81 78 71 68 74 67 63 66 71 
75 78 75 71 70 77 86 85 74 65 67 74 72 67 64 66 67 66 68 75 77 69 65 70 76 78 
77 73 68 62 66 75 87 92 93 94 97 101 103 106 113 120 128 136 145 154 160 166 
174 189 210 228 237 245 254 255 255 255 255 255 255 255 248 222 194 163 129 
97 64 37 21 13 13 22 37 50 55 58 59 60 65 68 66 56 49 50 59 65 63 63 67 77 82 
75 67 66 73 72 69 68 69 70 73 75 72 63 62 69 60 59 63 67 70 72 74 73 74 79 85 
83 73 65 68 69 65 58 59 64 68 67 68 72 71 64 58 58 61 63 67 72 71 67 67 74 86 
93 95 95 96 98 98 99 104 112 122 133 141 146 149 153 158 167 184 204 224 238 
247 255 255 255 255 255 255 255 255 243 221 193 161 126 87 47 20 7 9 24 47 58 
61 58 55 57 61 65 64 59 52 51 58 62 61 60 66 76 77 71 66 69 74 72 67 65 65 66 
68 70 66 58 56 75 69 69 72 72 69 68 71 73 74 78 83 82 70 63 64 65 60 59 63 69 
69 64 64 67 67 60 53 50 50 52 59 69 75 72 66 69 77 85 88 90 93 95 95 93 94 98 
108 120 129 134 139 145 150 157 171 192 211 224 230 238 252 255 255 255 255 
255 255 255 250 226 193 152 104 61 30 14 11 26 46 59 61 60 59 60 60 60 61 60 
57 55 57 59 57 57 65 72 71 64 62 68 73 72 70 70 71 71 70 70 67 59 56 78 76 78 
81 77 69 65 66 68 70 75 83 83 73 64 65 68 66 65 69 72 68 63 62 66 67 62 54 48 
46 49 57 68 77 74 66 65 73 77 77 79 84 89 91 92 90 89 94 104 114 123 134 142 
147 153 164 178 191 199 202 209 220 236 253 255 255 255 255 255 255 255 218 
166 116 74 48 29 21 28 44 54 57 60 63 64 62 59 60 63 63 60 58 58 57 60 65 70 
67 62 62 69 77 77 74 75 77 77 75 75 74 67 64 73 74 80 82 77 68 62 62 64 68 74 
82 85 77 70 74 76 73 70 70 71 69 66 66 67 69 66 60 53 51 53 58 67 74 73 67 68 
73 75 72 73 74 76 81 85 87 85 83 87 96 111 127 138 141 144 151 159 164 169 173 
176 179 192 215 247 255 255 255 255 255 255 231 176 121 84 61 43 32 34 48 56 
56 58 61 64 64 62 62 65 66 63 60 60 62 65 68 69 69 69 73 78 81 79 74 73 76 77 
76 77 78 77 75 72 75 79 80 75 68 63 61 63 67 73 80 81 76 75 77 78 73 68 68 70 
72 72 71 69 68 67 63 58 56 58 61 65 70 71 72 74 77 75 75 74 71 64 66 71 76 76 
73 72 78 94 115 125 129 132 137 141 142 144 147 143 140 148 177 220 255 255 
255 255 255 255 239 186 131 88 61 44 32 38 53 62 60 56 59 63 67 68 67 64 63 61 
61 64 67 67 63 62 67 76 81 83 80 74 71 74 76 73 69 73 78 79 78 77 81 81 76 73 
68 64 62 63 66 72 76 74 71 71 71 67 63 63 65 67 70 74 75 68 65 64 60 54 54 58 
64 67 70 73 77 81 80 78 80 81 71 59 51 53 57 62 61 59 61 77 96 109 117 127 136 
138 133 129 124 117 110 118 149 194 239 255 255 255 255 255 243 194 138 87 52 
32 24 30 47 58 58 56 59 65 68 70 68 63 58 56 60 68 73 67 57 53 61 72 80 78 72 
67 72 81 84 72 65 70 77 79 73 83 89 82 76 74 72 69 67 66 68 72 74 72 68 67 62 
57 55 60 63 62 63 70 72 69 63 61 57 54 55 62 69 71 72 76 83 87 85 81 82 79 69 
54 44 40 41 44 48 48 51 62 79 93 109 127 142 144 135 122 110 98 93 102 127 172 
221 255 255 255 255 255 238 194 137 83 45 23 15 18 30 43 51 56 63 66 65 65 66 
64 56 51 56 72 80 73 59 53 55 64 70 71 66 64 71 84 86 73 66 74 82 79 69 87 91 
85 79 80 79 77 76 77 74 73 74 70 67 64 61 59 61 65 65 59 58 64 70 68 64 63 63 
63 65 69 73 76 77 80 86 90 89 85 79 72 62 54 48 42 36 35 37 39 42 53 66 81 100 
125 144 148 138 122 105 92 86 89 110 151 204 249 255 255 255 247 220 178 127 
79 42 20 10 11 21 36 47 59 67 68 62 60 65 66 58 47 53 71 85 79 67 59 57 59 64 
67 66 66 70 78 81 75 74 81 88 82 71 82 88 82 80 82 82 79 82 84 80 74 68 63 59 
60 65 72 75 75 69 62 62 66 70 68 64 63 66 70 70 71 74 81 87 88 90 90 90 87 81 
72 67 64 62 55 43 34 30 30 36 47 60 75 94 120 139 146 139 124 109 95 85 82 101 
139 191 235 254 252 240 223 198 159 113 72 40 17 6 8 21 36 48 58 65 66 61 62 
69 72 63 50 53 71 82 77 67 63 61 61 64 68 71 73 75 76 79 78 79 85 87 81 77 78 
79 77 76 80 79 78 80 82 80 71 63 55 50 54 65 77 80 74 69 66 66 69 70 68 63 58 
61 65 68 68 75 87 96 97 91 89 89 92 92 87 81 78 76 66 50 32 23 21 28 40 55 72 
93 115 135 144 140 131 120 107 94 92 107 143 188 224 238 231 216 201 178 141 
97 61 32 11 1 6 20 35 45 52 57 61 62 65 72 75 69 59 62 74 80 71 66 67 67 65 63 
67 73 80 81 80 79 79 78 78 77 75 77 75 77 76 78 79 79 78 79 81 76 69 62 57 52 
52 60 70 70 68 67 69 70 69 69 69 63 55 51 56 62 68 78 90 97 95 92 87 87 93 99 
98 90 82 79 71 52 31 20 19 24 34 49 71 93 113 131 142 143 138 132 124 115 114 
127 152 184 212 223 214 197 180 157 119 78 43 21 6 3 8 20 32 42 48 54 61 67 69 
73 75 73 70 72 80 81 73 72 75 75 66 61 65 73 80 80 77 76 76 74 69 67 69 76 74 
78 82 84 85 83 84 86 82 73 64 64 65 64 59 60 60 62 64 71 76 75 71 71 74 70 57 
48 52 60 70 79 84 86 90 93 90 85 87 95 96 88 79 76 71 54 38 30 30 32 35 50 73 
97 114 130 141 143 141 139 136 132 134 144 156 173 193 205 197 179 159 134 98 
55 23 8 6 11 18 25 34 45 53 61 70 75 74 72 72 73 72 75 79 77 74 76 81 77 65 59 
65 75 76 71 69 72 76 75 71 67 71 75 70 74 81 88 87 85 90 94 89 73 65 66 73 73 
69 63 58 55 63 74 82 81 76 76 80 79 62 51 49 59 69 74 74 77 89 98 90 78 78 91 
96 89 79 76 71 59 47 43 44 43 45 56 78 99 117 133 144 143 140 138 136 136 143 
151 157 163 175 185 181 162 139 116 83 40 10 0 8 21 29 33 40 51 60 69 77 81 78 
73 69 68 70 71 69 66 65 70 76 74 67 63 69 76 72 63 62 68 76 80 78 77 77 77 65 
67 76 85 87 87 90 97 91 80 70 70 74 73 70 65 56 52 58 71 81 82 79 77 81 79 68 
53 49 57 64 67 65 70 85 92 80 66 74 91 102 96 86 80 74 62 52 50 51 50 50 58 75 
97 121 141 150 147 142 140 138 139 148 162 166 165 169 176 171 151 126 105 76 
38 6 0 12 26 35 39 45 55 64 72 79 84 82 74 66 64 69 70 65 59 58 61 66 70 72 72 
74 72 63 55 55 63 69 76 80 81 80 76 66 70 77 82 85 85 87 88 86 80 75 72 70 67 
65 62 56 52 56 67 75 78 77 75 73 71 62 51 48 51 57 58 58 63 73 76 62 59 72 93 
102 98 90 84 78 67 57 53 54 53 52 57 73 99 131 155 163 157 153 152 153 153 164 
178 183 178 175 174 166 142 117 97 74 40 13 8 16 30 40 48 54 60 65 72 80 85 83 
73 62 61 67 71 65 60 57 58 61 68 75 80 77 68 57 51 54 59 63 70 78 80 76 73 76 
79 81 82 83 84 81 78 75 73 71 68 65 63 62 60 58 57 63 72 78 78 78 75 67 58 51 
48 46 47 49 53 56 59 64 61 57 60 74 87 91 90 87 85 80 71 62 58 58 58 59 68 89 
122 157 179 181 177 172 173 174 177 186 198 200 192 181 173 159 135 110 89 66 
38 21 19 25 35 46 58 67 67 67 71 79 83 79 68 57 54 62 65 63 59 60 60 62 68 78 
82 81 72 61 58 60 62 64 72 81 80 72 68 83 85 83 80 81 82 79 74 71 69 67 65 64 
62 62 64 65 68 76 84 86 85 83 79 65 51 48 50 53 51 50 53 59 63 62 60 58 66 74 
77 78 81 85 84 77 67 62 61 62 66 76 95 125 161 191 203 204 199 195 191 195 202 
210 216 214 204 190 173 155 132 108 84 57 34 24 29 36 41 48 63 71 72 68 69 73 
75 70 61 52 52 55 57 56 60 64 66 67 72 78 82 81 76 70 67 67 67 68 78 86 83 70 
68 86 86 83 80 78 78 77 76 73 69 68 69 68 67 66 70 74 78 85 90 90 88 86 80 66 
54 52 62 67 63 56 54 62 65 63 57 58 67 74 74 73 82 90 87 74 61 58 59 64 77 98 
126 161 195 217 224 223 223 217 211 212 221 227 230 227 220 206 187 164 140 
114 85 56 32 27 35 44 43 43 51 61 66 65 66 67 67 63 58 54 54 53 52 54 62 69 70 
71 75 79 80 79 76 71 68 67 65 68 77 87 84 74 70 87 88 84 79 73 71 73 76 71 66 
67 72 74 70 69 70 75 80 86 88 86 83 81 76 64 54 56 66 73 69 55 52 57 62 60 54 
56 67 77 78 79 90 101 96 76 61 56 60 69 89 119 151 184 215 237 241 242 242 238 
229 227 231 235 236 236 234 225 207 180 148 119 91 60 37 29 37 45 43 37 37 47 
56 59 61 64 66 62 60 59 58 56 54 57 64 69 70 71 76 79 79 78 74 67 63 63 64 65 
73 81 84 81 78 89 91 86 76 67 63 68 73 68 61 60 69 70 68 63 64 68 76 83 84 77 
73 72 66 56 48 48 55 64 64 56 50 56 63 62 57 58 70 80 81 82 92 102 99 83 68 65 
69 80 104 136 167 199 233 255 255 255 255 249 240 235 235 236 239 241 240 233 
215 183 146 115 90 66 44 33 35 41 42 38 37 43 50 51 52 60 66 65 62 59 58 58 58 
61 65 67 69 72 75 77 78 79 75 67 62 63 66 67 70 75 84 88 86 90 94 88 76 64 60 
65 69 68 60 59 61 64 63 61 60 63 70 76 76 69 63 63 60 53 44 41 44 52 58 59 57 
61 67 67 62 61 68 77 79 76 80 89 91 84 79 80 86 94 117 148 180 212 245 255 255 
255 254 246 238 234 233 237 242 245 241 228 204 170 131 102 81 64 50 42 39 41 
44 45 47 52 55 49 44 51 61 65 62 59 57 58 60 64 67 70 75 78 76 72 73 77 77 73 
69 70 72 72 71 73 80 87 86 89 93 88 77 66 61 60 65 69 68 65 64 67 69 67 65 65 
66 66 66 63 61 62 62 58 52 46 47 52 60 63 64 67 71 70 63 59 63 71 74 70 70 76 
82 82 83 90 97 109 131 164 196 226 252 255 255 254 244 236 230 226 225 228 236 
239 233 216 189 152 117 88 69 57 53 51 50 48 47 48 54 63 67 55 43 43 56 64 66 
65 62 60 61 64 68 75 82 84 76 67 69 75 80 80 78 76 74 72 71 71 74 79 78 86 88 
83 76 70 63 59 62 70 75 73 74 79 80 75 69 68 66 62 63 66 67 67 66 64 61 59 59 
61 64 66 68 70 73 73 67 62 65 72 76 75 75 79 80 79 80 90 104 122 150 183 215 
241 255 255 255 241 228 218 213 209 204 203 208 210 206 193 166 134 103 78 59 
49 47 51 52 50 46 45 50 64 68 59 43 42 52 64 71 75 72 66 62 63 67 75 82 82 70 
63 65 75 82 83 80 76 70 68 67 67 68 69 71 84 83 79 75 73 70 65 65 71 74 75 78 
82 80 69 65 67 69 67 69 75 75 69 64 61 62 65 69 69 69 69 71 73 76 77 78 77 79 
81 80 79 82 85 85 79 81 93 114 139 168 199 229 254 255 255 243 224 205 190 183 
178 172 167 165 164 161 157 139 114 88 66 48 36 34 38 42 41 40 38 45 56 62 53 
44 44 52 60 70 77 77 69 63 62 65 71 76 72 63 58 63 73 79 78 74 72 72 71 70 69 
68 67 67 83 81 77 75 74 74 72 72 73 71 70 70 71 66 59 57 62 68 70 74 78 76 67 
57 54 59 67 72 73 72 74 76 76 75 80 85 88 87 84 78 74 76 83 85 87 92 110 132 
157 183 208 237 255 255 252 229 204 179 160 151 144 139 132 128 124 126 127 
119 97 73 52 35 23 22 27 32 36 36 38 45 55 57 51 46 49 53 56 64 72 73 66 61 60 
63 67 69 65 59 58 61 67 70 66 67 73 80 82 79 75 72 68 64 82 80 76 74 72 72 75 
76 75 72 69 67 64 60 58 59 59 60 62 67 73 71 64 55 54 59 67 70 71 73 76 79 73 
70 74 81 84 83 79 73 67 69 77 86 95 109 127 149 173 194 216 239 255 255 239 
214 189 165 146 129 119 111 107 106 104 106 110 101 79 55 37 25 19 22 32 38 40 
42 44 51 59 60 55 54 55 55 57 63 70 69 63 57 57 61 65 67 64 63 64 65 64 61 59 
62 73 83 86 82 76 72 67 61 78 76 75 74 71 72 76 78 78 77 78 76 72 69 70 66 59 
55 57 63 67 70 66 61 58 61 64 65 64 64 68 72 70 64 67 77 78 76 76 73 69 72 81 
92 104 116 130 150 177 203 224 244 254 247 227 205 187 167 145 122 101 91 91 
93 91 88 87 76 55 33 24 22 22 28 39 46 47 46 48 54 61 63 60 59 60 61 64 70 73 
70 63 55 53 57 64 64 62 65 71 72 65 59 57 59 68 77 79 74 72 71 68 63 74 72 72 
74 75 76 80 82 80 81 84 86 83 83 81 72 60 60 67 71 72 71 73 69 64 60 59 58 55 
51 55 64 69 66 71 79 82 80 77 74 72 77 89 100 108 116 125 146 174 205 231 248 
252 242 224 209 194 174 146 113 90 80 83 86 76 65 57 49 34 21 19 24 27 30 34 
40 43 47 47 51 57 60 61 62 65 69 73 76 74 70 64 55 50 56 63 62 57 60 69 73 67 
60 56 59 66 73 72 68 70 74 73 71 71 67 67 74 79 82 86 86 82 80 80 81 82 84 85 
73 64 71 82 83 77 75 77 75 67 60 56 54 47 42 46 62 72 74 78 86 88 83 77 71 67 
76 91 103 112 119 129 146 174 202 229 247 251 240 229 218 204 180 146 113 91 
84 85 79 65 48 39 36 30 24 26 31 33 30 30 35 42 47 48 49 52 57 61 65 69 74 76 
72 67 66 62 55 53 59 65 62 54 55 64 70 68 62 60 63 72 75 71 68 71 76 77 78 73 
65 65 74 83 87 87 86 80 75 73 72 73 82 86 78 70 76 83 81 75 77 83 80 71 62 58 
54 46 40 45 59 69 72 77 85 86 80 73 69 65 73 89 104 115 124 135 151 170 194 
219 240 244 239 232 226 213 186 153 125 110 99 88 76 59 45 38 38 38 37 36 40 
42 41 42 45 51 57 56 53 54 57 61 63 64 66 68 65 60 62 65 61 59 65 69 65 59 58 
64 70 70 67 65 68 75 77 72 68 70 71 73 78 75 67 67 78 86 87 85 80 76 71 69 70 
74 82 86 81 75 75 75 71 71 83 91 88 75 66 62 58 51 46 50 57 61 61 69 80 82 77 
78 79 76 79 91 105 114 121 132 146 163 183 207 229 238 237 235 232 219 195 167 
146 131 114 94 76 61 47 40 40 43 41 40 41 49 57 60 60 61 66 67 61 58 57 58 55 
51 54 60 64 62 66 70 70 70 72 72 68 65 67 71 74 74 70 65 65 69 71 69 67 67 66 
67 76 71 67 70 77 81 80 77 77 74 70 69 74 79 80 80 80 78 75 71 67 72 85 94 90 
77 68 66 65 61 56 57 59 57 58 67 79 82 82 86 92 89 86 93 103 108 112 122 138 
158 178 202 224 236 240 241 239 227 202 177 158 143 122 101 83 67 52 42 41 43 
44 42 45 57 69 72 65 61 66 72 69 61 57 55 51 48 52 66 72 71 72 76 78 77 76 73 
68 68 71 75 78 76 72 66 63 66 69 70 70 68 66 69 75 66 69 72 74 72 69 71 77 78 
72 69 75 78 76 75 77 80 78 74 71 73 78 85 82 74 66 67 69 67 62 60 60 60 61 69 
78 83 83 89 94 91 86 91 98 100 104 116 137 158 180 204 226 238 243 245 245 230 
203 174 155 139 123 105 88 72 58 49 47 51 55 57 61 69 78 74 63 55 62 72 71 64 
58 59 61 60 65 75 78 73 70 73 76 76 74 71 67 67 69 73 76 77 75 72 71 74 78 79 
77 73 72 74 74 65 71 76 76 70 65 70 80 82 76 72 74 78 79 80 84 82 77 75 76 72 
70 71 74 70 67 69 73 70 62 58 58 60 63 67 72 76 79 84 87 85 84 88 93 95 101 
116 136 157 180 207 229 240 239 240 239 225 193 160 140 125 111 96 82 70 61 57 
54 59 67 74 76 77 77 70 60 55 59 66 66 61 60 68 76 79 79 80 77 68 65 67 69 70 
70 69 68 67 69 71 74 76 77 78 78 80 83 82 77 74 75 77 74 66 71 77 81 76 71 72 
77 79 77 75 76 81 87 92 90 81 72 73 77 77 70 69 71 74 74 77 79 74 63 56 56 60 
62 62 62 65 72 78 81 80 83 86 88 89 97 112 131 151 178 208 233 240 233 228 226 
213 178 143 118 103 90 77 64 56 54 51 50 52 62 71 73 69 65 62 60 57 57 58 58 
56 58 70 83 86 82 78 72 67 65 67 69 69 69 70 72 74 76 77 77 75 75 77 77 75 74 
73 72 72 75 74 69 64 67 75 81 80 74 72 73 74 75 75 75 78 86 90 86 71 63 67 76 
79 76 75 78 83 84 84 84 79 69 61 59 63 66 64 58 59 66 74 77 78 80 81 79 80 88 
104 125 151 179 211 236 243 234 222 216 197 164 124 94 77 66 55 46 41 40 41 40 
43 51 58 59 55 53 53 54 54 52 51 51 50 53 63 75 76 71 69 69 69 69 70 72 72 73 
76 79 82 85 86 82 76 73 74 73 69 65 67 69 75 77 72 64 65 65 69 75 76 72 71 74 
76 76 74 70 70 73 76 70 62 57 62 71 76 76 75 80 87 86 82 79 78 74 68 65 70 77 
75 65 60 66 73 75 75 76 73 69 68 76 94 123 157 189 215 238 247 238 221 204 184 
148 104 72 53 46 40 34 33 36 41 43 46 51 57 57 54 51 49 48 46 44 43 42 43 46 
52 58 57 55 56 63 69 70 69 69 70 74 80 82 82 82 85 83 77 75 74 72 68 66 66 71 
78 81 75 71 65 65 68 70 69 67 72 79 84 82 77 70 66 65 64 61 58 59 64 68 71 71 
70 76 83 83 76 72 74 74 71 67 74 84 86 77 70 71 75 74 74 72 67 61 59 64 83 118 
160 192 218 238 248 237 214 192 168 130 86 50 34 31 32 33 36 44 51 54 57 61 63 
64 62 57 52 48 45 42 36 33 35 43 48 49 45 43 48 60 68 68 63 60 63 70 79 81 74 
71 75 78 79 76 74 70 68 67 68 70 77 82 79 75 80 71 73 72 68 66 71 81 85 83 78 
75 72 68 65 61 60 62 66 68 68 65 66 73 81 82 75 71 71 72 68 65 68 79 85 82 78 
78 78 75 72 68 62 56 54 57 74 108 151 187 215 235 239 224 199 175 148 110 66 
33 20 21 28 34 44 54 61 64 65 66 66 65 61 59 56 54 53 48 39 32 36 46 54 53 47 
43 48 59 70 67 57 53 57 66 76 77 69 63 66 73 76 76 71 66 65 67 68 69 73 78 74 
72 88 82 81 81 73 69 72 78 79 75 74 76 76 72 68 66 64 63 65 66 65 62 63 71 80 
82 78 73 70 68 64 59 57 64 72 76 77 80 79 75 70 62 54 50 52 57 70 100 140 179 
208 224 221 203 181 155 126 88 50 25 13 15 20 33 46 59 66 69 68 65 60 57 54 54 
56 59 59 55 48 42 46 57 63 61 56 51 52 61 69 65 55 51 58 66 73 75 72 69 68 68 
69 71 71 69 70 73 73 73 73 79 77 72 82 76 76 81 81 75 76 78 75 69 69 74 77 74 
73 72 69 65 63 65 66 64 65 70 74 75 73 71 69 68 64 56 50 52 59 66 72 76 79 76 
69 56 46 44 51 58 70 93 128 164 192 202 193 179 162 140 107 70 40 22 13 10 15 
28 46 61 68 70 67 61 57 54 50 50 54 59 59 57 53 52 58 66 69 66 60 56 55 61 65 
63 55 55 61 68 70 73 76 80 75 68 66 72 79 82 83 82 81 78 70 79 77 73 79 77 76 
81 81 80 80 80 78 72 72 79 84 80 78 79 76 69 67 70 72 73 72 71 70 68 68 68 69 
71 68 60 53 52 58 64 69 74 77 76 68 54 41 41 48 56 65 84 111 139 163 171 166 
155 145 126 94 61 36 23 17 16 19 33 51 64 69 67 63 59 58 59 54 51 54 60 62 59 
56 57 64 70 71 66 61 57 57 60 63 63 60 61 66 69 68 68 74 81 81 74 71 78 87 92 
90 85 81 70 75 75 74 74 74 72 76 83 78 73 79 81 82 79 82 91 95 88 80 79 76 71 
70 76 80 81 80 76 71 67 65 64 67 71 71 66 61 63 69 71 70 72 76 77 69 55 45 44 
48 52 60 74 92 110 129 142 140 135 126 109 84 56 37 27 26 30 37 50 64 73 73 68 
62 58 60 61 57 54 59 65 67 65 62 63 68 73 73 68 63 60 60 63 66 69 70 69 69 71 
69 65 67 74 80 78 76 79 86 91 89 81 74 78 74 71 72 74 76 71 80 69 74 67 68 80 
84 83 88 98 101 87 76 73 72 69 72 79 85 86 85 83 77 71 64 60 61 68 71 68 68 74 
80 76 70 69 76 80 72 60 51 50 51 53 57 65 72 84 102 120 123 117 105 91 73 56 
41 33 35 42 52 64 75 80 81 76 68 62 57 55 52 57 66 71 69 67 67 70 74 77 76 73 
68 64 65 68 72 77 78 73 70 71 73 69 67 71 77 78 76 76 82 88 86 79 78 77 71 67 
69 70 71 74 79 81 69 69 68 71 78 77 79 90 91 80 70 70 72 73 76 80 83 86 89 89 
86 78 69 61 61 66 69 69 71 79 81 76 66 66 76 81 75 62 55 54 54 53 54 54 56 65 
86 103 109 101 88 76 67 57 47 41 41 47 57 69 77 81 84 84 78 66 55 49 53 65 76 
76 69 68 71 76 75 74 75 76 73 70 69 71 75 79 78 72 67 69 74 74 72 72 75 76 76 
79 84 89 86 74 74 69 62 61 65 66 66 76 79 79 76 68 73 76 77 71 65 74 76 72 70 
73 76 79 78 74 75 80 88 92 91 87 79 69 65 66 69 68 71 74 75 70 63 65 74 82 74 
64 57 55 52 50 48 45 43 53 71 86 91 84 74 67 65 61 53 49 49 54 61 69 75 76 79 
86 83 72 58 54 59 74 84 79 72 71 79 78 73 69 73 78 77 74 73 75 76 77 76 69 64 
64 68 70 71 72 72 74 78 84 88 85 69 71 72 66 60 60 64 65 69 78 79 78 76 72 74 
79 81 76 69 69 73 73 74 77 79 82 76 67 65 75 84 88 89 90 85 74 65 64 67 70 70 
70 69 66 64 66 76 82 78 70 65 58 50 46 45 41 40 47 58 66 67 66 62 63 66 63 57 
54 59 65 68 73 75 72 74 80 83 75 64 59 64 74 81 79 74 78 82 80 71 69 76 81 79 
75 76 81 81 79 74 67 63 61 60 60 64 68 70 72 78 85 84 69 68 72 75 73 69 65 66 
66 74 78 79 78 77 76 72 69 81 74 68 71 82 82 80 79 79 80 74 65 65 75 83 83 84 
85 82 70 60 61 68 73 73 69 67 68 70 71 79 86 86 81 75 66 53 46 48 47 45 47 49 
48 47 47 51 59 67 66 58 57 65 72 73 73 72 70 68 73 75 70 63 60 64 70 75 76 77 
80 84 79 72 72 78 80 74 70 74 83 87 82 72 65 62 63 60 60 64 71 72 72 77 81 69 
71 73 74 76 79 77 72 69 70 77 76 76 77 79 78 75 71 68 81 68 68 75 82 80 79 77 
77 74 69 71 78 82 80 81 82 78 65 58 61 71 77 74 70 69 74 76 76 79 84 84 82 80 
73 58 53 54 54 51 50 47 42 35 34 39 51 63 66 61 61 67 73 73 69 68 67 63 62 63 
60 59 60 65 70 73 76 79 82 83 78 72 71 75 74 66 61 67 78 83 78 67 59 62 67 69 
69 73 76 75 74 77 69 72 78 80 75 72 76 78 73 73 77 78 74 74 76 76 72 69 66 65 
66 85 72 72 75 78 78 75 73 71 70 72 76 77 76 77 79 75 65 59 64 74 77 73 66 69 
77 81 76 71 70 69 72 77 75 66 60 59 54 49 46 47 42 34 28 31 41 53 59 60 61 68 
73 73 69 68 67 62 55 53 55 59 65 72 74 75 76 80 83 80 73 66 66 69 68 63 60 63 
70 73 68 60 57 62 71 75 77 80 79 75 75 69 68 70 79 83 75 69 72 73 71 73 78 76 
76 76 75 70 65 65 66 65 66 67 84 75 73 75 78 74 64 61 64 70 71 69 67 68 72 72 
66 60 65 73 75 68 62 67 76 80 70 60 54 56 64 74 76 69 64 60 52 41 38 41 42 39 
37 38 42 47 51 53 59 66 73 76 73 72 73 67 56 52 54 62 69 74 76 74 76 80 81 74 
63 58 60 64 65 63 64 67 68 65 62 59 61 67 72 75 78 79 77 76 75 70 66 67 76 80 
76 72 72 70 68 71 72 73 78 77 74 66 64 72 76 70 65 64 64 81 77 74 74 69 59 53 
57 65 69 66 62 62 66 71 69 65 65 69 70 64 60 64 76 78 68 56 51 55 65 75 76 69 
64 62 54 44 39 42 47 51 54 56 57 55 51 52 56 65 74 76 73 72 77 73 62 53 55 61 
66 69 72 73 77 80 76 66 57 55 61 65 63 62 66 70 70 66 64 65 67 70 73 73 75 74 
73 74 73 73 70 69 72 75 77 76 73 71 73 74 68 68 74 76 73 67 69 79 82 71 61 59 
62 69 79 77 74 70 62 55 58 66 72 71 67 64 68 73 75 71 66 65 64 61 60 67 76 79 
70 60 57 59 67 75 74 67 62 62 61 60 57 58 60 64 67 68 67 63 58 56 59 66 73 73 
66 68 75 77 67 57 54 58 61 64 67 71 77 79 72 64 61 66 72 71 65 63 67 73 75 74 
73 70 69 69 71 72 71 67 65 75 72 74 75 73 71 73 77 78 73 72 79 82 72 67 70 73 
74 70 72 79 79 70 62 62 67 73 80 85 69 70 69 67 66 71 76 76 74 71 70 72 74 70 
66 63 61 59 63 70 78 79 72 65 60 59 62 69 70 63 58 58 65 71 74 73 73 74 72 68 
64 61 58 57 61 68 74 70 63 64 73 79 71 62 57 60 62 63 65 68 73 74 71 66 69 76 
81 79 71 70 73 78 80 80 79 73 67 68 71 72 69 63 73 69 70 72 76 79 77 74 77 81 
76 72 78 81 73 69 69 72 75 74 74 75 74 71 70 74 77 79 81 83 86 62 71 75 77 77 
76 74 73 70 66 65 67 68 67 66 60 58 61 70 75 75 69 62 56 54 57 64 68 64 56 55 
62 72 75 74 74 77 73 67 62 59 56 56 61 69 74 69 62 62 71 75 73 67 64 65 67 66 
63 64 66 68 68 68 70 75 83 82 79 76 78 79 80 81 80 74 70 71 74 72 65 73 61 70 
72 70 76 85 85 77 76 81 79 72 69 69 67 72 72 74 77 79 77 74 72 73 77 81 81 78 
77 79 82 88 67 76 79 76 72 68 66 64 62 62 64 66 70 70 63 54 55 62 68 69 63 54 
51 53 58 65 71 71 65 62 66 71 69 64 67 70 69 66 66 64 59 57 61 69 71 66 59 60 
65 70 72 72 70 68 68 65 63 62 64 64 66 65 62 65 76 83 82 77 76 74 74 77 78 75 
72 74 74 68 72 56 65 75 75 70 76 88 89 77 70 75 78 72 65 63 63 74 77 79 82 84 
82 75 69 68 73 77 76 73 72 74 76 81 87 77 78 74 69 65 64 63 63 64 66 66 70 72 
64 52 51 58 65 66 59 50 49 56 61 67 75 78 76 73 75 76 68 63 62 64 62 63 66 66 
60 57 59 63 63 60 60 62 64 65 70 74 74 71 66 64 64 68 69 69 67 65 58 62 75 85 
81 75 71 69 69 72 74 73 72 73 73 75 63 65 74 78 74 71 78 90 88 74 66 71 76 74 
70 69 66 72 76 79 83 87 84 74 63 61 66 71 72 71 71 73 73 74 80 84 76 72 67 66 
67 69 69 69 66 64 68 74 68 59 57 63 67 65 58 52 55 60 62 65 73 80 80 76 77 76 
71 67 67 66 62 60 62 60 58 56 57 55 54 57 65 71 70 67 68 71 75 74 69 64 65 71 
75 74 72 69 66 69 82 86 82 76 74 71 71 72 73 72 72 75 80 64 65 70 75 75 74 76 
84 91 86 74 69 74 80 80 78 75 67 70 68 71 76 81 79 71 61 59 64 70 72 71 72 73 
71 69 73 80 83 80 71 67 69 70 74 72 66 60 66 75 75 70 68 68 68 64 59 60 66 70 
65 62 68 76 76 72 70 69 66 68 72 73 68 63 59 56 57 61 59 54 51 59 72 78 78 74 
68 67 70 76 72 65 63 66 69 69 69 71 72 81 87 86 79 79 79 75 72 72 72 72 74 79 
84 63 67 68 68 71 77 82 86 88 82 75 74 79 83 81 79 75 66 74 62 63 67 72 73 69 
66 65 67 70 71 72 73 73 70 64 67 76 82 80 75 73 71 69 69 73 66 61 66 76 80 78 
74 70 67 65 65 69 76 78 72 66 68 71 70 68 66 60 58 62 71 75 73 69 64 59 62 66 
65 58 56 63 72 76 79 79 75 66 69 75 74 69 64 63 60 58 60 65 73 82 87 80 77 79 
79 74 70 70 68 68 72 77 69 70 70 64 61 69 79 82 80 79 76 73 74 77 76 73 73 71 
67 79 62 61 64 68 71 73 73 71 68 67 68 70 74 77 73 65 64 72 78 77 73 68 72 68 
68 73 70 64 66 76 82 82 78 72 71 73 75 76 78 79 75 71 69 69 69 70 67 59 54 59 
69 74 76 77 73 67 66 69 67 62 63 69 72 70 73 81 81 74 72 75 79 76 71 68 63 58 
57 61 70 81 83 77 74 76 77 71 68 67 65 65 74 74 72 77 76 67 63 70 77 74 72 74 
75 74 73 73 68 65 68 72 73 79 63 61 64 69 74 78 79 74 67 65 66 68 74 82 82 73 
67 69 72 73 73 69 64 72 71 75 80 71 65 74 81 83 77 73 74 79 82 79 75 72 71 70 
70 70 73 75 72 64 58 63 70 74 77 81 80 75 71 72 71 68 71 77 77 72 70 76 77 74 
70 72 76 76 75 76 75 70 64 64 69 77 79 74 72 76 76 71 69 68 67 72 74 69 70 80 
83 76 72 74 72 67 70 77 79 77 77 77 72 68 72 77 79 74 69 63 63 68 75 81 82 76 
70 68 67 64 70 82 89 83 75 70 69 70 75 75 69 66 74 77 80 81 75 74 80 78 71 66 
68 76 81 82 75 69 65 67 71 75 78 81 78 69 65 67 74 77 76 76 76 75 77 80 77 72 
73 81 85 79 72 69 70 67 65 66 67 67 68 73 79 77 71 66 69 73 74 71 72 77 79 74 
71 71 72 73 70 66 70 81 86 83 79 77 71 67 72 78 78 75 79 84 82 80 84 87 83 74 
78 70 65 65 69 77 82 79 76 78 73 64 63 74 84 86 82 74 69 72 79 81 74 68 70 74 
76 80 80 80 78 73 63 58 59 65 77 83 79 69 64 66 71 75 78 78 75 69 65 68 77 81 
78 71 67 72 79 84 79 71 70 78 85 83 75 72 71 71 70 67 65 62 60 65 72 75 72 69 
67 67 66 67 72 80 81 77 73 74 78 71 67 67 72 81 84 82 78 74 71 71 74 72 67 67 
75 82 84 86 94 96 87 79 77 73 69 65 64 71 79 81 83 88 84 71 63 66 73 78 80 75 
70 75 82 79 70 67 69 74 79 70 81 80 75 71 64 60 58 61 72 81 80 72 70 70 71 70 
70 70 68 67 64 66 76 85 84 72 66 68 78 81 76 68 66 72 79 80 77 76 77 78 78 77 
72 68 64 64 70 75 75 72 67 62 58 60 69 79 81 78 76 76 71 64 62 65 73 80 81 78 
74 71 70 73 74 68 62 63 69 73 76 83 94 98 88 83 67 70 74 72 67 71 80 83 85 91 
91 82 70 64 64 68 69 66 67 76 81 71 61 61 67 70 73 77 68 79 79 76 68 62 63 64 
70 77 79 78 79 79 74 68 67 68 69 68 65 65 71 83 85 79 70 70 74 77 75 71 70 71 
73 74 75 75 75 75 76 77 77 75 74 74 77 81 80 76 70 62 57 58 67 76 79 76 76 67 
64 61 64 68 73 77 78 76 74 71 71 73 73 70 67 67 67 69 71 77 88 94 87 81 60 65 
75 78 75 75 81 83 82 87 90 85 75 67 63 61 59 56 61 74 78 65 54 57 63 65 66 68 
70 70 79 85 87 74 63 65 66 69 74 78 85 85 78 74 75 76 73 71 68 64 66 73 82 81 
76 72 71 73 75 75 73 71 72 74 74 72 69 67 68 71 74 78 81 83 84 84 82 79 74 69 
64 65 69 76 78 69 71 68 67 70 76 77 74 73 74 74 73 71 71 72 74 76 76 72 68 70 
74 76 80 86 86 75 62 62 72 80 80 78 78 77 77 82 86 82 75 69 66 64 60 55 60 71 
75 65 57 58 64 65 65 66 70 74 75 84 92 92 78 64 63 64 66 72 81 84 79 77 81 79 
74 71 70 67 64 69 79 84 80 74 71 72 72 70 67 69 75 79 77 72 70 69 70 71 72 75 
80 82 82 81 79 77 76 76 76 74 73 75 72 82 82 79 77 79 81 78 72 69 71 73 70 68 
68 70 74 79 80 75 71 74 77 75 75 82 85 71 64 63 71 80 82 80 76 72 74 83 87 83 
77 74 75 76 73 68 66 68 69 67 66 68 69 67 66 68 74 82 85 83 87 90 85 74 67 68 
69 70 76 77 72 72 75 75 71 71 74 73 70 74 81 86 83 77 76 77 74 66 62 70 83 89 
82 75 73 76 76 74 71 70 72 75 76 78 79 77 76 78 80 77 73 72 81 90 93 89 82 76 
73 69 66 68 73 74 69 67 67 68 71 76 77 75 75 78 78 74 73 78 81 70 82 82 79 73 
68 66 66 70 75 75 70 65 66 73 82 87 86 84 82 78 75 79 80 72 65 68 79 87 84 76 
75 81 80 84 78 71 70 78 80 79 79 75 67 64 67 71 72 74 79 79 75 76 83 87 83 79 
81 84 80 68 64 72 86 89 83 74 74 75 75 74 71 67 67 70 73 75 77 77 74 75 76 75 
73 68 69 70 71 74 75 77 79 80 76 72 73 76 74 70 71 74 73 70 69 70 70 71 75 74 
64 58 65 71 85 86 83 77 70 65 66 71 78 78 70 64 64 71 82 87 86 84 82 78 75 78 
79 73 67 72 83 89 83 73 74 81 82 75 79 67 65 69 82 86 84 80 73 69 72 76 76 77 
80 79 75 75 81 84 81 76 78 82 78 67 58 64 74 79 75 73 71 69 69 72 74 71 70 72 
72 70 69 70 71 72 74 74 71 71 71 70 71 74 75 76 80 81 76 72 73 74 71 67 68 72 
72 68 66 66 64 66 72 72 63 58 66 72 82 84 86 82 74 67 66 71 79 79 71 65 66 64 
68 74 77 76 78 80 77 73 74 76 77 77 78 79 79 79 74 69 67 70 71 75 65 62 67 79 
84 84 81 80 83 84 78 76 78 80 75 74 79 83 79 71 68 69 69 60 55 57 66 70 72 73 
72 66 67 76 81 78 74 75 73 65 59 62 67 71 74 72 76 87 88 82 76 76 77 76 75 78 
80 80 82 83 77 68 64 65 71 79 79 71 66 67 74 82 86 84 82 
