P2
112 112
255
63 61 60 71 76 80 76 73 75 69 62 62 74 75 79 80 75 68 65 64 65 69 73 75 75 74 
70 65 68 76 79 75 71 70 66 61 62 67 71 72 72 72 70 68 66 67 68 71 70 65 62 66 
70 73 76 81 81 78 77 75 72 69 66 62 61 65 68 68 64 62 61 65 69 72 72 73 75 75 
75 74 69 62 62 67 68 64 61 60 66 76 82 78 74 71 71 74 76 73 63 58 56 60 67 74 
73 69 66 69 70 68 64 63 73 70 69 69 73 76 74 70 73 75 67 67 64 63 67 73 73 70 
69 67 63 64 69 72 71 71 71 70 73 79 81 76 73 72 70 68 68 73 74 75 77 79 76 72 
69 67 65 64 65 63 63 65 67 69 75 81 81 77 75 75 73 69 63 56 53 55 58 59 62 68 
73 71 68 63 65 69 73 74 74 73 68 61 62 66 66 64 62 61 67 76 83 81 78 75 73 73 
74 72 70 67 64 64 72 77 75 69 67 68 70 69 70 71 79 77 76 67 71 75 70 64 65 76 
73 67 52 53 59 66 68 68 71 70 64 61 67 73 70 67 68 70 72 74 75 73 70 70 71 74 
74 74 73 73 80 86 83 73 68 65 61 59 61 65 68 68 66 67 73 80 80 78 79 79 76 70 
62 55 51 50 52 57 64 73 75 70 65 67 70 71 70 68 72 72 67 63 66 71 71 69 68 68 
72 80 85 85 82 78 74 72 72 75 76 72 66 66 73 77 72 68 68 70 70 71 73 77 79 75 
74 65 71 76 71 65 64 76 76 65 52 55 61 66 67 67 73 78 72 67 73 77 73 64 65 70 
73 73 70 68 66 66 72 78 77 72 68 72 82 92 88 76 67 66 63 58 58 63 68 66 63 65 
72 77 76 76 80 81 75 65 57 54 54 54 54 60 70 77 76 70 66 67 71 72 70 66 62 61 
64 70 73 74 72 70 72 73 76 80 82 85 86 81 74 70 73 77 78 74 67 68 74 74 68 65 
69 72 72 72 76 78 75 71 70 64 71 76 77 72 71 77 78 67 62 64 68 71 69 69 78 85 
81 76 77 80 74 67 66 73 80 79 74 69 67 68 74 80 78 69 66 72 82 90 88 78 70 69 
68 62 57 58 61 62 60 63 71 73 71 71 76 78 69 57 52 57 62 63 63 67 73 76 75 72 
70 71 73 74 72 71 68 65 63 65 68 71 73 75 76 77 77 73 77 82 86 84 75 73 74 77 
78 75 73 74 76 69 61 60 65 69 70 72 75 77 74 70 69 64 68 75 78 76 73 78 78 73 
70 67 69 70 69 71 79 84 79 73 75 78 77 71 70 78 85 85 80 76 73 71 74 78 74 66 
65 70 77 80 79 75 70 70 72 68 62 58 60 62 60 63 68 71 68 68 75 76 68 57 54 60 
68 70 68 68 68 66 70 73 74 74 74 72 72 74 75 72 67 63 60 63 69 74 75 75 74 70 
64 62 68 73 73 75 75 73 73 74 77 80 75 65 56 57 60 61 64 68 73 76 71 67 67 66 
69 75 77 74 71 75 75 75 71 66 65 68 71 74 77 76 69 65 68 75 78 76 73 78 83 82 
79 78 74 69 68 69 68 63 63 67 67 67 68 71 70 70 72 74 68 64 66 68 66 65 67 68 
67 70 75 77 72 65 62 66 70 68 65 61 56 57 63 71 74 74 72 69 67 71 77 77 73 64 
54 52 60 68 72 73 73 68 61 61 65 66 64 62 60 66 77 82 78 78 76 65 58 57 57 54 
55 61 67 71 65 62 61 71 75 79 79 73 68 70 71 72 71 67 66 71 76 79 76 70 63 60 
64 72 78 77 75 77 78 75 72 72 70 64 61 63 62 61 63 64 60 59 66 75 75 72 73 74 
71 66 67 69 68 67 67 66 66 69 72 72 71 70 68 70 69 63 56 51 51 54 61 67 71 73 
72 67 64 68 75 78 74 64 51 45 50 61 67 70 71 66 62 65 69 68 64 62 61 66 76 82 
78 73 70 70 73 79 75 48 47 53 61 66 64 59 59 75 78 80 80 75 66 64 67 72 75 73 
72 76 81 81 77 70 65 63 66 71 76 77 76 77 76 71 67 68 68 64 61 60 59 60 64 64 
59 58 69 82 83 74 72 73 68 62 62 64 66 68 68 68 68 68 65 63 64 67 69 70 70 64 
56 53 54 59 63 64 66 70 72 68 65 67 73 73 68 60 51 47 52 60 67 70 70 67 66 71 
73 71 69 68 68 71 80 84 81 78 74 73 74 75 72 62 56 55 59 65 70 63 63 70 69 69 
72 73 64 60 67 76 78 76 76 77 78 77 76 74 73 72 72 73 77 80 81 80 76 69 67 69 
69 67 66 63 60 61 65 66 62 60 67 78 80 74 70 69 65 60 59 61 64 68 71 72 72 70 
65 59 61 63 65 69 72 70 65 61 61 64 64 61 61 67 71 71 68 69 71 69 62 55 53 56 
61 68 72 73 73 71 73 75 73 69 70 72 74 77 82 85 84 81 76 73 73 73 72 68 64 61 
63 69 76 69 69 60 55 56 64 67 62 60 70 77 75 74 74 74 73 73 74 77 78 78 75 74 
76 82 85 81 73 66 67 70 70 69 70 70 66 63 64 64 63 63 64 67 69 67 67 66 63 60 
64 67 67 69 72 73 73 72 68 63 61 62 62 67 74 75 70 66 66 68 66 60 58 64 70 71 
70 68 69 67 61 56 55 60 65 70 75 77 76 75 76 75 70 65 67 71 75 77 80 82 86 84 
77 72 71 73 75 74 69 64 66 74 76 75 74 54 51 55 64 67 66 65 70 72 66 65 69 71 
71 72 74 74 75 75 73 70 72 79 82 76 67 62 66 70 70 69 73 75 72 66 61 59 62 64 
63 60 59 61 64 65 61 62 68 73 73 70 71 72 70 69 67 66 64 62 62 67 76 78 73 67 
69 72 69 61 58 63 69 71 68 65 66 68 65 60 59 59 61 66 71 74 74 74 73 71 68 66 
67 68 71 74 75 79 85 85 79 72 72 75 78 76 70 65 69 76 74 76 76 59 58 63 69 66 
69 69 65 63 59 59 65 71 72 74 74 71 71 74 72 68 68 73 74 69 63 63 67 68 67 68 
73 76 76 71 63 59 62 66 64 58 54 57 63 64 62 63 70 76 74 71 72 74 71 65 64 65 
65 63 62 67 76 80 75 69 69 72 69 62 59 62 66 68 66 64 66 70 71 68 65 62 62 66 
70 71 70 71 71 70 71 73 70 65 65 68 71 75 81 82 78 75 75 76 78 76 72 70 73 75 
73 78 78 68 68 67 69 64 67 66 62 58 55 57 64 68 69 70 72 71 73 76 76 70 68 70 
72 70 69 70 69 66 63 65 68 71 75 77 72 65 65 67 64 56 50 53 61 67 66 68 74 76 
73 70 74 78 73 65 60 62 65 63 61 64 72 76 73 67 66 68 68 65 63 63 64 64 65 67 
69 73 74 73 72 70 70 72 74 71 70 73 74 74 76 78 73 63 60 65 69 71 74 74 74 74 
74 72 73 75 76 77 77 70 73 78 78 75 72 67 66 60 62 63 63 58 55 57 63 65 64 64 
67 68 69 72 72 69 67 69 72 73 74 73 69 63 60 62 64 65 71 79 77 70 66 67 65 57 
53 55 64 71 73 73 75 76 71 67 71 75 71 62 58 59 62 62 60 61 64 65 63 59 60 65 
69 70 68 65 62 63 67 70 71 71 72 73 72 70 71 75 76 73 72 75 79 78 76 75 71 64 
62 65 68 67 66 65 67 69 68 65 66 70 76 79 75 64 70 74 74 74 72 67 65 59 59 62 
63 60 57 57 62 66 65 64 62 61 59 61 63 63 64 67 70 71 70 69 66 63 61 64 63 62 
66 73 74 68 65 67 68 65 62 63 67 72 73 70 69 72 70 65 65 68 64 58 57 58 59 59 
59 59 58 57 55 55 59 64 68 69 66 63 63 66 71 72 71 69 68 68 67 66 67 71 74 73 
73 77 81 79 74 70 69 67 67 69 68 65 62 60 63 66 65 62 62 65 71 76 74 64 68 69 
69 71 73 71 71 63 62 58 61 63 59 58 62 69 72 68 64 59 57 57 58 62 65 68 69 69 
67 65 63 63 64 66 66 64 63 67 69 66 65 66 69 70 70 69 69 70 68 63 63 67 69 65 
64 63 58 54 55 57 54 52 53 55 55 54 56 59 62 65 65 61 59 61 67 73 75 75 74 71 
67 65 65 66 67 68 69 70 72 75 79 78 73 69 66 66 68 71 71 68 65 64 66 69 69 67 
67 66 68 72 73 68 68 64 64 69 76 77 71 73 70 57 63 67 63 57 61 70 75 72 67 66 
65 63 62 65 69 72 73 72 70 66 63 62 63 67 69 69 68 68 70 68 66 66 67 68 71 70 
68 67 67 66 66 67 65 64 65 62 54 46 48 51 48 44 44 46 49 52 57 62 66 67 63 58 
58 66 74 77 75 76 77 74 67 63 64 65 66 66 67 67 67 69 73 76 76 71 65 62 65 70 
74 74 71 69 70 71 73 73 73 71 69 69 71 69 69 61 61 72 78 77 76 81 77 62 67 72 
68 62 60 66 70 68 67 69 71 69 67 69 72 72 72 72 71 66 61 59 63 70 76 76 75 74 
72 70 69 69 68 67 67 65 63 65 70 75 75 69 61 58 62 62 50 40 39 45 47 43 41 41 
44 48 54 60 65 66 62 58 59 66 71 72 70 71 74 71 64 59 59 59 60 64 69 69 65 63 
68 74 76 71 64 62 65 70 74 75 73 68 65 67 70 73 76 74 71 69 69 68 68 62 61 72 
75 70 73 78 74 65 71 75 74 70 67 66 65 64 67 69 69 70 72 75 73 69 66 68 68 64 
59 59 68 76 81 80 78 76 73 70 71 74 73 67 62 58 57 60 68 77 79 71 60 56 58 56 
47 39 40 47 53 53 49 46 46 49 51 53 56 58 55 52 54 58 60 61 63 66 68 64 59 56 
56 56 58 66 74 76 68 61 63 69 70 67 63 63 66 68 70 70 67 62 62 65 68 69 73 75 
73 70 73 72 67 66 66 68 68 61 68 70 71 71 73 75 75 77 75 70 66 68 72 70 67 67 
74 78 74 67 62 65 67 65 60 62 69 77 77 76 76 76 73 69 70 75 74 66 59 55 55 57 
63 69 73 68 61 55 53 48 43 43 47 56 64 65 61 55 54 55 51 47 46 46 44 44 47 51 
51 55 61 65 64 58 56 58 60 59 61 67 75 78 72 65 63 65 65 62 60 63 65 66 66 67 
67 66 69 73 69 65 70 75 74 73 76 78 66 69 69 64 62 57 69 68 76 78 73 69 72 77 
77 72 69 73 77 73 63 62 69 74 69 62 62 66 69 66 61 60 64 69 69 67 69 72 70 66 
66 70 71 67 62 60 60 60 60 60 59 58 57 54 46 40 41 47 56 65 75 79 73 66 65 65 
57 47 43 41 40 43 49 53 55 57 61 62 59 56 57 59 61 60 60 64 69 73 73 70 67 64 
61 60 61 63 64 63 64 68 71 73 77 78 72 65 66 74 76 74 74 74 64 66 67 63 60 74 
68 68 86 82 71 66 71 78 77 72 72 76 77 68 57 55 62 67 63 58 61 69 72 67 60 58 
61 64 65 65 66 65 61 58 62 67 69 68 67 66 66 64 61 56 50 47 47 47 42 39 44 55 
66 79 93 101 95 82 77 76 67 55 48 48 47 49 56 60 61 62 60 57 55 57 60 61 58 56 
57 61 64 68 71 72 68 62 59 61 64 66 66 63 63 65 69 72 76 77 72 64 65 72 75 73 
69 67 61 61 62 65 62 71 65 68 86 79 69 67 77 83 80 76 76 79 76 66 56 56 63 65 
61 57 64 74 75 70 63 62 63 66 69 72 70 62 53 53 60 68 69 69 69 68 66 63 62 59 
50 42 38 38 39 42 52 67 83 99 118 129 121 105 92 85 73 59 53 55 56 56 58 63 66 
65 62 58 57 61 64 63 58 55 58 63 66 67 70 70 66 59 57 60 65 68 69 67 63 62 63 
65 69 73 72 67 66 70 74 73 69 65 59 59 59 62 62 70 65 68 82 76 69 69 76 79 76 
73 76 79 78 72 66 64 67 67 61 59 66 75 76 71 68 68 67 66 71 79 77 64 52 54 65 
71 70 68 68 67 62 60 61 61 54 42 35 34 39 49 65 83 103 122 142 153 146 125 106 
89 71 53 48 52 58 59 62 65 67 67 65 64 63 62 63 62 59 56 59 65 67 68 69 68 65 
60 57 58 63 68 71 70 66 62 62 62 65 70 72 69 68 70 74 73 69 66 61 62 63 57 63 
71 68 72 78 72 68 67 67 65 61 62 68 73 76 77 75 71 68 65 61 60 65 70 70 67 67 
67 65 61 66 76 77 65 54 59 68 69 65 63 65 64 59 56 60 61 53 42 36 38 47 62 83 
105 125 142 159 168 162 141 115 90 66 47 39 43 51 59 63 66 65 63 64 67 66 62 
59 59 58 56 57 61 65 68 69 70 68 64 60 59 62 66 69 70 68 66 65 65 66 68 70 71 
71 73 75 73 68 66 68 71 72 58 64 72 71 74 74 68 66 65 62 57 54 56 59 64 69 73 
73 69 64 61 62 64 66 65 62 62 64 65 61 57 60 68 71 63 56 59 62 60 55 55 58 60 
56 54 57 57 49 38 37 47 62 82 106 130 149 160 171 177 171 150 120 92 68 49 38 
36 43 53 61 63 60 57 59 64 66 61 58 59 60 58 56 58 62 69 72 72 70 66 63 63 65 
67 67 67 65 65 67 70 72 72 71 72 73 74 74 71 68 66 75 80 81 64 67 72 70 77 72 
65 66 67 66 64 63 62 61 61 62 65 67 66 62 61 64 68 68 66 65 67 66 63 59 55 57 
63 63 57 55 56 56 50 47 50 55 58 56 54 55 55 43 33 34 51 73 96 124 152 169 175 
179 183 175 151 121 92 69 51 39 33 36 46 55 57 56 55 59 65 66 61 57 60 65 63 
59 57 62 68 71 70 67 65 63 64 67 68 67 65 62 61 66 74 79 78 76 75 74 73 73 71 
70 67 74 78 78 66 78 71 71 82 72 68 68 67 67 70 73 72 70 65 62 62 64 65 64 63 
65 68 69 70 75 77 74 65 56 53 55 58 56 51 52 56 55 50 48 53 61 64 61 56 56 53 
43 31 32 52 75 102 134 164 182 185 184 182 168 142 110 81 59 43 31 25 28 38 48 
53 56 59 65 69 66 57 53 60 67 66 60 58 61 65 65 63 63 63 62 61 63 67 70 68 63 
60 65 74 79 79 77 78 76 75 75 77 75 68 67 70 71 71 75 73 74 81 74 74 75 68 62 
68 74 77 75 71 65 63 64 67 67 66 67 68 69 72 78 81 76 65 57 54 58 57 52 47 50 
58 62 60 59 64 71 75 71 62 55 51 43 35 38 54 78 105 138 170 188 192 188 178 
156 125 92 64 42 28 21 19 22 30 40 48 56 63 68 69 64 56 51 57 68 66 59 55 59 
61 60 60 63 66 65 61 64 70 75 73 67 65 67 70 70 69 74 79 79 78 80 84 82 72 67 
68 68 80 71 74 74 76 76 79 80 71 63 65 73 76 75 72 68 65 66 69 70 69 69 70 69 
68 69 72 69 61 56 60 65 63 55 48 50 59 68 72 74 77 81 84 80 67 54 47 45 47 52 
65 86 110 141 171 192 198 193 176 146 110 80 54 32 20 16 18 20 26 34 42 52 62 
65 64 62 60 61 65 72 70 60 53 56 60 60 60 65 71 72 69 71 78 80 74 69 69 70 65 
58 61 71 81 80 76 78 84 83 73 74 68 68 87 68 71 70 69 72 76 78 74 69 70 74 74 
72 70 68 68 69 71 72 70 70 71 68 62 59 60 60 55 56 63 69 65 58 51 51 59 71 80 
86 87 87 89 86 72 54 49 55 63 72 84 101 122 148 175 193 199 192 171 136 101 
73 50 31 18 17 19 22 27 34 42 51 57 59 58 61 68 73 77 80 75 62 54 56 62 63 62 
65 73 77 76 77 82 79 70 65 67 68 59 54 59 75 84 80 70 70 78 79 73 74 67 66 85 
65 66 65 65 66 70 73 73 72 75 77 75 72 71 70 69 70 73 71 68 66 66 64 58 56 59 
59 54 54 61 64 61 58 56 55 59 71 84 92 92 88 88 89 79 64 60 72 84 93 105 121 
139 159 179 191 191 183 162 129 94 69 48 30 20 18 21 24 31 40 48 50 52 52 51 
56 66 72 74 74 71 63 55 57 62 63 61 65 74 79 78 77 78 75 65 60 63 63 58 55 64 
76 81 75 68 69 74 77 76 72 65 64 80 64 63 70 69 66 68 71 72 73 76 80 78 75 75 
74 71 70 71 70 64 61 61 60 58 60 64 63 56 53 58 61 60 60 60 57 58 69 85 93 93 
87 88 93 92 82 79 90 101 110 120 135 151 168 183 189 184 177 162 134 103 77 57 
39 28 27 28 29 36 46 51 50 47 44 42 46 55 60 59 61 64 61 57 56 59 61 61 67 75 
79 76 72 72 69 64 61 62 62 59 61 66 70 69 66 70 75 77 79 81 72 68 68 66 66 67 
86 76 69 69 74 73 70 75 78 78 77 77 76 71 68 70 70 65 60 59 60 61 65 69 66 58 
54 57 63 65 66 63 56 55 66 82 92 93 91 95 103 106 100 99 107 116 122 130 144 
158 174 188 194 191 187 180 163 135 108 87 65 52 48 45 39 40 48 52 49 44 39 35 
39 47 50 49 53 61 63 58 55 56 59 64 68 74 75 72 68 67 68 68 68 68 67 66 67 68 
64 60 64 73 79 77 77 81 74 71 71 67 66 72 95 81 65 66 73 73 66 66 71 73 72 72 
71 67 66 70 72 69 64 60 61 65 67 68 66 60 56 57 63 70 71 65 56 57 66 80 91 96 
98 104 111 114 111 112 119 125 131 140 153 166 181 197 206 208 210 212 202 179 
154 130 107 88 78 67 54 46 50 54 50 42 35 34 40 47 51 51 55 63 65 60 56 57 62 
67 69 71 72 69 67 69 71 72 74 74 74 74 74 70 63 60 67 76 76 72 71 75 75 71 71 
69 65 75 91 77 64 63 72 70 61 59 64 68 67 64 62 62 66 69 71 71 67 63 63 66 66 
65 66 66 60 55 58 67 72 68 63 64 72 81 90 97 101 105 109 112 113 115 120 125 
134 146 159 172 188 206 220 229 239 246 242 221 197 175 152 131 114 96 77 63 
59 58 51 40 33 36 44 50 51 51 54 59 61 60 59 59 62 66 68 70 72 72 72 75 76 73 
72 73 74 76 74 68 61 61 69 74 72 67 69 73 78 71 70 73 68 74 80 75 67 66 69 66 
60 58 64 69 68 62 59 61 65 67 64 63 64 63 65 66 62 60 66 71 68 57 55 64 71 71 
69 72 77 82 87 92 96 97 99 106 111 113 112 114 125 140 156 169 186 207 229 246 
255 255 255 255 235 216 197 177 154 131 107 87 74 63 49 38 33 37 43 43 42 44 
47 51 55 58 61 60 59 61 64 69 72 74 75 77 76 71 68 68 69 70 69 64 59 61 65 67 
66 67 69 72 77 72 72 74 72 69 72 72 69 67 66 63 61 62 66 71 73 69 65 65 68 65 
58 54 55 59 62 61 55 53 61 71 71 63 61 67 74 74 73 77 80 80 80 82 86 87 91 101 
110 109 104 104 113 129 144 158 175 198 225 250 255 255 255 255 255 252 236 
216 190 161 134 110 88 66 48 37 35 37 35 33 32 36 43 48 52 57 61 61 59 58 60 
62 64 66 69 72 72 70 69 67 65 65 65 63 62 63 64 62 62 65 67 67 72 73 72 74 74 
64 66 66 66 66 64 63 63 63 64 67 72 74 72 70 70 67 60 54 52 54 56 54 49 47 54 
65 70 70 71 75 78 77 78 79 80 77 73 72 74 76 82 91 102 105 103 102 106 117 130 
143 158 179 208 237 255 255 255 255 255 255 255 243 214 183 154 128 103 75 50 
37 33 31 29 27 33 42 51 55 56 59 63 65 64 63 59 56 56 59 64 67 68 69 70 67 64 
64 65 64 65 67 66 63 64 69 69 63 67 72 69 72 72 65 64 63 65 68 68 65 65 62 58 
61 69 74 75 74 74 72 68 62 58 57 55 52 47 46 53 63 71 75 78 80 81 82 83 83 80 
74 68 64 63 64 66 73 83 95 100 100 100 106 115 126 139 160 186 216 245 255 255 
255 255 255 255 255 233 203 176 150 124 93 62 41 31 25 23 29 42 56 66 66 63 63 
65 67 68 66 61 56 57 62 67 68 65 64 65 64 64 68 68 64 62 65 65 66 71 77 75 67 
64 67 71 72 72 71 68 66 67 70 68 65 63 60 58 62 70 77 79 79 77 74 71 69 66 63 
60 55 50 50 57 67 75 79 81 82 83 86 89 88 82 75 67 61 56 53 51 52 60 73 84 88 
90 94 99 107 123 144 169 195 225 254 255 255 255 255 255 255 250 228 204 177 
148 114 79 50 32 22 21 30 44 59 68 68 66 66 66 64 63 60 58 58 63 69 72 68 63 
59 59 60 65 72 72 64 59 59 61 65 72 78 76 69 63 63 76 73 74 74 73 71 68 65 60 
59 58 56 58 66 75 80 82 81 76 69 64 65 67 66 63 57 53 54 61 71 77 81 86 89 91 
94 98 97 89 80 70 59 52 48 45 40 41 52 63 72 78 81 82 87 104 128 150 172 201 
233 255 255 255 255 255 255 255 250 231 205 172 135 96 65 41 26 21 26 34 44 52 
56 60 64 64 60 54 51 51 55 61 67 68 66 63 60 59 59 65 72 74 68 62 60 58 60 66 
70 69 66 65 65 80 78 74 71 75 75 69 61 57 57 56 55 57 65 74 77 77 77 70 60 55 
59 65 67 63 59 56 56 61 69 76 82 91 98 101 105 109 109 99 86 72 57 48 48 46 39 
34 41 53 63 70 72 67 68 83 104 123 144 173 206 228 243 255 255 255 255 255 255 
255 233 200 159 119 84 55 32 21 21 24 29 34 41 50 59 64 61 56 52 52 53 57 60 
63 66 67 65 61 59 60 66 72 74 72 66 59 56 59 64 66 67 67 67 83 82 69 68 74 76 
72 65 62 63 61 57 58 64 70 71 71 70 63 53 51 58 66 68 65 60 56 55 57 63 70 79 
89 96 101 109 118 118 108 93 75 58 47 46 48 42 37 41 51 59 65 66 61 60 70 86 
100 119 148 176 194 205 222 241 255 255 255 255 255 255 230 190 148 108 71 38 
19 17 23 28 32 38 47 58 67 69 66 63 60 58 59 61 65 69 71 68 64 61 61 64 68 75 
78 74 66 61 61 66 73 74 69 82 83 82 66 70 73 75 73 70 68 68 66 64 65 69 71 70 
69 67 59 51 51 61 70 73 70 63 56 53 54 59 65 72 77 81 88 103 118 122 113 99 85 
68 54 49 47 42 38 41 48 55 59 62 62 63 70 79 87 101 123 149 163 174 194 222 
249 255 255 255 255 255 253 214 171 126 81 41 16 12 23 33 40 46 54 63 70 72 69 
66 66 67 66 67 70 71 70 68 66 65 66 66 67 71 76 77 74 70 68 72 78 76 74 81 81 
79 69 73 71 69 68 68 67 67 69 73 75 76 74 70 69 67 60 53 54 62 72 78 76 67 57 
54 56 60 63 66 66 66 74 94 112 118 113 105 95 81 66 56 49 42 37 37 41 47 52 56 
58 61 69 77 82 89 104 122 139 155 177 209 243 255 255 255 255 255 255 223 176 
127 81 41 14 9 20 34 45 54 62 69 72 68 61 60 65 68 67 68 70 69 65 63 63 65 67 
67 64 63 67 73 76 74 70 70 74 74 78 77 77 75 73 76 70 63 62 64 64 66 72 78 81 
78 73 68 67 68 64 59 58 63 70 78 78 69 59 56 60 62 63 65 64 63 70 88 106 111 
109 107 102 91 77 65 56 47 40 37 38 43 49 52 54 56 65 74 81 87 94 104 118 140 
168 202 238 255 255 255 255 255 255 216 165 114 72 41 17 9 18 30 44 56 64 68 
68 62 54 57 64 65 62 63 67 65 61 60 61 62 64 66 64 60 62 69 73 72 68 68 70 71 
76 73 73 73 78 79 71 63 61 62 63 66 73 79 79 76 72 68 67 67 67 66 65 64 66 70 
73 68 59 56 58 59 57 61 67 69 73 88 103 107 107 107 105 95 82 71 60 51 44 41 
40 44 50 56 59 63 69 77 87 92 93 93 102 126 160 198 237 255 255 255 255 255 
241 203 154 104 66 38 20 12 17 29 44 57 61 62 63 61 59 62 67 63 57 61 66 65 62 
63 65 65 65 67 67 66 68 74 77 75 73 73 71 68 71 74 74 75 78 78 72 64 62 62 62 
64 70 74 75 74 75 73 69 68 68 71 69 65 62 62 65 66 61 56 55 50 46 51 63 70 75 
85 98 105 108 111 109 98 83 67 55 46 43 42 43 45 53 64 73 80 83 84 90 93 89 82 
86 111 149 193 233 255 255 255 255 245 218 184 144 100 62 36 20 14 18 31 49 60 
61 57 59 64 65 68 69 63 57 60 67 66 64 67 71 69 66 66 69 72 77 80 81 79 82 82 
75 65 69 78 78 72 71 72 66 62 62 62 61 61 66 70 70 72 76 75 70 67 70 72 70 64 
58 57 62 66 65 60 54 46 39 40 52 62 68 76 87 98 108 115 111 97 77 59 45 38 36 
38 40 43 51 65 79 89 90 86 83 83 78 70 74 100 140 182 220 247 255 255 241 217 
187 158 126 88 54 32 22 19 23 35 51 63 63 60 63 67 67 66 64 61 58 61 66 65 64 
68 72 69 64 63 67 73 78 80 76 77 83 83 76 64 74 76 76 65 64 63 61 58 61 64 63 
63 66 68 67 68 71 70 66 66 70 72 67 60 56 57 63 68 67 60 55 50 42 38 41 49 56 
61 70 83 99 110 108 90 68 51 40 35 33 32 33 37 46 60 75 86 89 83 77 72 69 66 
75 100 135 169 197 218 228 227 216 189 157 127 98 65 38 26 23 25 31 41 52 61 
64 65 69 72 67 61 59 59 60 64 66 65 66 70 73 70 65 64 69 77 80 77 70 70 76 79 
73 66 70 71 71 68 61 61 59 56 59 64 66 66 66 67 64 62 63 62 62 65 70 70 63 59 
59 62 66 67 61 54 53 55 51 40 35 37 42 48 57 70 87 101 101 85 64 50 43 39 33 
26 24 30 43 61 78 90 94 89 80 73 70 74 87 111 136 158 177 191 200 201 189 163 
129 98 69 42 24 20 22 29 40 47 51 56 62 68 74 75 69 61 59 62 66 69 70 69 70 74 
76 73 70 72 79 86 87 78 69 66 71 74 71 66 70 69 71 75 67 65 62 57 57 62 65 64 
65 64 61 59 59 61 63 66 69 68 64 63 67 69 68 64 55 47 48 57 56 43 32 30 34 41 
52 65 81 94 97 87 71 58 51 43 33 23 19 27 47 73 94 105 106 100 91 83 82 88 104 
126 144 156 167 177 179 174 160 133 102 71 44 24 17 18 21 29 44 56 58 58 63 69 
75 77 72 65 64 68 72 73 71 68 69 72 73 73 74 79 86 89 87 79 68 66 70 74 72 68 
73 73 76 76 72 72 68 61 60 63 64 64 64 64 61 60 62 65 66 68 69 67 65 67 70 71 
67 60 53 46 46 51 52 42 30 27 32 42 54 65 76 89 97 95 84 71 59 46 33 24 24 37 
64 98 121 129 126 118 110 105 102 108 124 145 160 167 172 173 167 153 130 102 
72 43 21 10 12 18 22 31 48 63 67 65 67 70 73 73 71 65 63 67 69 65 61 59 61 64 
68 71 75 80 84 85 81 75 69 67 71 75 75 73 76 76 74 69 71 74 72 67 67 69 67 65 
66 66 64 64 66 68 68 69 69 68 66 66 65 65 61 57 52 48 46 46 45 37 29 30 37 47 
58 64 70 81 96 102 96 81 63 46 37 36 43 61 94 135 161 164 155 149 143 137 131 
131 148 172 186 190 187 181 167 143 113 79 47 21 5 2 10 21 28 37 50 63 67 68 
69 69 68 67 64 57 55 59 60 54 48 48 54 61 67 71 73 77 81 82 78 75 74 75 75 75 
75 75 74 75 68 62 64 69 71 72 75 75 70 67 69 70 70 69 67 67 67 67 68 71 70 65 
61 59 57 54 51 48 46 46 46 41 37 40 48 58 64 66 69 80 96 104 99 84 66 54 50 56 
70 93 132 177 208 211 200 191 183 173 162 160 174 200 214 214 208 197 178 151 
113 71 34 11 0 1 11 23 34 43 51 55 59 63 67 66 65 64 60 52 50 55 57 52 46 47 
55 64 70 72 71 71 76 80 79 78 81 82 78 72 70 74 70 71 69 59 59 67 73 77 80 80 
75 72 74 77 76 70 64 61 60 62 67 74 75 68 60 58 57 54 50 48 49 54 60 60 58 60 
66 71 74 75 78 88 100 105 98 85 75 71 75 83 98 125 168 215 246 252 244 231 218 
205 193 191 202 221 236 237 230 215 195 167 124 73 30 7 0 0 10 25 39 47 49 49 
52 60 64 63 62 64 61 54 52 57 60 57 53 55 60 66 71 72 68 67 70 74 77 78 81 81 
75 67 65 71 66 69 74 66 66 70 75 78 79 80 78 76 76 78 76 67 55 49 51 55 63 73 
75 67 57 54 55 54 51 51 57 70 82 87 88 89 89 88 86 88 92 99 107 108 101 91 88 
94 101 109 122 152 197 241 255 255 255 255 248 233 222 220 227 240 250 254 249 
234 210 178 134 79 31 6 0 2 12 28 41 48 49 49 53 59 63 60 58 60 60 58 58 61 63 
61 60 62 63 65 68 69 68 65 66 69 71 73 74 73 70 65 64 69 66 70 76 74 73 74 74 
74 74 75 76 75 74 74 71 61 46 40 43 51 60 68 70 63 54 48 48 51 53 59 70 88 104 
112 117 120 117 108 102 101 104 107 112 116 110 104 104 112 120 126 140 172 
217 255 255 255 255 255 255 253 240 237 243 250 255 255 255 248 218 182 136 
81 34 8 4 9 21 34 45 50 54 56 56 58 59 57 53 53 57 62 64 63 62 62 64 65 66 64 
65 67 68 66 65 65 66 66 67 68 69 68 68 69 70 74 75 75 71 66 66 68 70 73 74 73 
71 70 70 62 50 45 48 54 60 65 66 61 53 46 45 50 59 69 86 108 124 134 141 148 
147 135 122 117 114 112 115 121 121 115 115 121 127 134 151 185 228 255 255 
255 255 255 255 255 240 236 243 250 255 255 255 249 219 180 133 82 36 12 10 19 
30 41 47 53 59 62 60 55 57 58 54 53 59 67 66 60 56 58 64 68 69 67 66 67 69 68 
66 64 62 62 64 68 70 70 69 69 74 77 76 73 64 57 58 65 73 77 77 76 72 71 72 71 
66 61 60 61 63 66 65 59 54 50 50 55 66 81 102 125 145 155 163 173 174 163 145 
131 121 114 113 118 120 118 117 120 128 140 161 196 233 255 255 255 255 255 
255 240 225 225 234 242 246 248 246 234 207 172 130 81 39 16 17 26 34 40 47 54 
63 69 64 59 59 63 61 58 64 71 68 55 48 52 62 70 73 72 70 69 71 71 68 64 62 63 
66 67 66 65 68 72 70 80 80 75 64 54 55 65 74 79 80 77 74 72 73 76 76 73 67 62 
64 68 65 59 55 55 57 62 74 92 115 140 160 173 183 191 194 184 163 142 125 114 
108 107 107 107 110 115 127 147 172 203 234 255 255 255 255 255 234 214 202 
205 217 226 228 226 220 208 186 155 118 77 41 25 26 31 34 37 45 56 68 73 71 67 
70 72 67 62 65 73 71 58 48 50 62 73 77 76 72 71 75 78 74 68 65 67 69 67 62 61 
67 77 63 83 84 82 69 58 56 62 70 75 75 75 74 72 71 71 71 69 63 60 64 69 66 60 
58 59 60 64 79 100 124 146 168 185 197 205 206 196 175 149 127 112 101 94 91 
92 96 106 126 152 179 207 231 245 248 245 237 221 200 179 168 172 182 191 195 
195 191 178 156 127 96 70 48 37 39 39 35 34 43 56 68 74 75 77 80 78 67 57 59 
68 72 65 57 58 66 76 80 77 72 73 80 85 81 72 68 71 73 69 64 65 72 80 66 83 86 
83 74 64 61 62 65 68 69 71 74 75 71 65 62 61 60 61 64 68 65 61 59 59 57 61 78 
104 128 149 171 193 206 212 212 201 178 149 124 105 90 81 76 76 82 98 125 155 
180 203 223 232 230 220 207 188 165 142 130 128 133 140 148 156 157 147 124 
95 73 61 54 48 46 44 39 35 40 52 62 70 76 83 85 78 63 50 47 57 68 70 67 67 71 
77 79 76 71 73 82 87 81 71 67 71 75 75 72 73 78 82 73 81 83 80 75 70 68 65 64 
65 66 67 72 76 73 65 60 61 63 65 65 64 62 60 59 57 55 59 78 105 130 151 174 
198 212 214 209 197 175 144 117 96 80 68 62 63 73 95 126 156 180 203 221 227 
218 202 185 162 134 110 93 85 84 89 101 112 117 110 91 69 55 53 51 48 46 45 42 
38 39 49 60 67 75 82 83 75 61 48 43 51 63 71 73 73 72 72 72 70 69 72 79 82 75 
66 65 70 76 77 77 78 81 82 77 79 80 77 72 70 69 65 63 63 63 63 67 72 71 66 65 
66 68 68 66 64 63 64 62 58 55 59 76 102 127 149 171 192 205 204 196 183 162 
136 112 93 77 61 51 55 71 96 127 158 185 212 231 232 218 200 178 147 112 82 64 
52 47 51 62 72 75 71 61 50 44 43 42 42 44 46 46 43 45 54 64 70 72 74 75 70 62 
53 49 55 65 71 73 74 71 66 63 63 65 69 74 77 74 69 67 71 75 75 74 75 78 77 74 
79 82 77 70 67 65 64 63 63 62 63 68 70 67 64 66 70 71 70 70 69 71 72 69 60 54 
56 70 92 116 135 153 171 182 185 178 163 144 123 105 90 76 58 45 52 74 101 130 
162 196 226 243 242 229 210 183 144 99 65 45 31 24 27 36 41 41 39 38 38 37 37 
38 43 48 51 51 50 53 62 71 74 70 64 61 62 63 61 59 64 69 68 67 67 69 66 62 61 
63 67 73 80 82 78 72 72 75 75 71 71 73 77 70 80 86 80 70 64 65 69 69 68 68 71 
74 72 65 60 63 68 70 72 74 73 72 73 69 62 54 53 62 78 95 110 124 140 155 163 
161 145 124 105 91 82 72 57 47 56 81 109 136 170 207 237 253 252 244 229 199 
153 103 64 40 25 17 17 24 28 27 26 30 34 37 38 43 50 55 56 55 56 59 65 73 76 
69 57 50 55 63 65 66 68 70 66 61 62 65 68 69 67 64 66 73 84 90 83 74 71 74 76 
75 74 74 73 67 76 83 80 70 65 69 78 80 75 73 75 77 73 66 61 63 67 70 73 74 70 
65 65 65 60 54 52 57 66 75 83 94 109 125 138 139 128 109 91 80 75 68 58 53 64 
88 113 139 172 210 241 255 255 255 250 221 173 122 78 49 30 20 21 27 33 33 33 
34 37 40 44 50 54 54 53 54 57 60 63 71 75 70 56 48 52 61 66 65 67 68 65 61 58 
59 65 70 70 66 64 71 81 84 78 68 67 71 77 80 80 77 76 63 69 74 72 67 64 70 82 
85 78 72 71 72 73 72 69 65 65 68 72 73 67 61 62 65 61 56 54 55 57 60 64 70 80 
94 106 110 103 93 82 76 72 68 60 57 66 86 108 133 166 203 236 255 255 255 255 
242 198 147 101 64 41 31 31 38 41 42 42 41 42 44 49 53 53 51 49 52 55 56 59 65 
73 71 62 51 50 54 60 61 61 63 65 63 56 53 59 66 69 67 65 67 74 75 69 65 66 71 
76 80 79 77 84 62 66 66 64 61 61 68 79 82 76 70 68 69 73 78 75 66 61 63 68 71 
70 67 68 68 64 58 55 51 50 52 56 56 60 68 78 80 79 75 73 71 69 66 62 58 63 78 
97 121 154 193 229 255 255 255 255 253 214 169 122 82 57 47 45 44 42 41 43 46 
47 49 51 53 54 52 53 54 55 55 58 64 68 68 63 54 46 48 54 58 57 58 63 64 59 54 
55 63 68 68 67 68 72 72 70 70 75 77 78 79 77 72 86 65 68 67 64 62 62 68 77 81 
77 72 70 70 75 78 74 62 55 56 62 68 70 71 71 70 66 60 53 47 45 51 56 53 51 57 
64 67 64 62 63 63 63 65 65 62 62 70 84 107 140 181 219 251 255 255 255 246 215 
177 133 95 72 61 54 46 38 37 43 50 54 56 56 58 60 62 62 60 58 58 62 65 64 61 
58 53 47 48 55 59 57 58 63 65 62 58 57 59 62 64 65 66 71 74 73 76 81 83 81 79 
75 82 77 71 72 71 69 68 68 73 81 83 81 77 74 73 74 75 70 61 56 56 60 66 71 71 
70 68 67 62 54 46 47 54 58 55 49 50 56 61 61 59 58 56 57 61 65 64 60 61 70 90 
121 161 202 236 255 255 251 232 208 174 131 97 76 65 53 41 34 35 44 54 61 64 
64 65 69 73 72 68 64 63 65 64 58 53 50 49 49 54 60 63 62 63 68 69 65 61 58 56 
57 59 61 64 70 74 75 75 79 81 78 77 75 77 69 75 71 69 71 73 74 78 83 85 84 80 
75 73 73 73 71 67 63 61 64 71 74 72 68 67 68 67 60 53 52 57 58 52 43 41 46 54 
60 61 58 54 51 54 57 53 48 48 54 70 99 137 177 213 237 246 238 222 200 168 128 
93 72 59 47 39 37 39 47 55 64 70 70 68 72 78 78 75 73 69 64 59 54 47 44 43 47 
55 61 62 64 68 73 73 68 64 61 60 60 62 64 68 72 75 74 74 76 76 75 76 76 78 71 
74 68 65 67 72 76 78 80 83 86 83 76 71 71 74 75 73 67 64 68 76 77 72 68 67 69 
70 66 61 60 60 56 48 40 37 43 52 59 61 59 54 53 53 49 41 35 33 39 52 78 114 
150 182 208 225 227 215 195 164 129 99 77 59 47 45 50 52 52 56 64 71 70 66 68 
74 78 81 82 76 66 59 56 50 42 40 46 54 58 59 62 69 76 75 69 65 65 65 66 69 72 
73 74 73 72 74 77 77 76 76 77 82 77 70 68 67 67 68 71 74 75 80 86 84 76 71 73 
76 78 75 68 65 71 77 75 70 68 69 69 70 69 68 68 66 60 52 45 45 52 60 63 59 56 
58 62 64 54 39 29 25 27 37 60 91 123 150 176 199 211 207 187 158 129 108 90 70 
56 57 67 70 65 60 64 68 65 61 64 69 74 79 87 84 73 67 65 60 49 45 51 58 60 59 
62 70 77 77 68 62 62 65 67 70 73 73 70 65 66 72 77 78 78 77 76 80 78 70 72 73 
69 64 65 69 72 76 81 82 77 74 75 77 77 76 71 71 74 74 69 66 69 71 71 71 72 75 
76 74 68 60 53 53 60 68 65 57 54 63 74 75 61 41 28 21 18 24 43 71 99 124 150 
175 193 196 181 153 130 114 98 79 64 66 75 80 74 68 67 66 62 59 62 67 69 76 84 
85 79 73 72 67 57 52 56 64 65 63 65 71 77 76 69 61 60 62 64 66 70 72 68 63 64 
69 72 75 76 74 70 76 74 74 77 77 71 62 61 66 69 72 74 74 74 74 74 72 73 75 76 
77 75 69 62 62 67 71 72 73 75 78 79 77 72 66 59 54 59 64 62 54 54 64 75 76 61 
43 29 19 14 18 32 55 82 108 133 157 177 184 173 150 126 111 97 79 66 65 74 79 
77 73 71 67 60 56 60 65 69 74 80 80 75 71 68 64 57 53 57 64 67 65 66 71 75 73 
70 67 65 65 63 63 69 75 74 70 67 66 68 73 76 73 66 74 73 76 76 76 70 64 63 66 
68 67 66 65 67 70 67 65 66 71 76 79 73 62 56 57 63 66 69 73 76 78 76 73 71 68 
62 57 56 59 58 54 56 62 69 68 59 46 34 24 19 21 31 48 71 100 125 144 159 166 
160 141 120 102 88 73 63 62 67 73 74 75 75 71 63 55 55 61 68 75 76 75 70 65 60 
54 50 50 57 63 64 63 66 71 71 70 70 74 74 69 63 62 68 75 77 73 70 68 70 78 85 
79 66 74 73 77 72 70 69 67 68 69 67 64 61 61 64 66 64 62 63 66 72 76 71 61 57 
58 58 59 64 70 75 76 74 70 68 68 65 60 58 57 58 58 59 62 63 62 57 50 41 33 29 
30 36 45 66 93 120 135 143 146 139 125 108 91 77 66 60 58 60 64 69 72 75 75 66 
56 52 58 65 72 74 72 70 66 58 48 44 50 61 67 64 62 66 70 69 67 71 75 74 68 63 
63 67 71 73 73 72 71 76 84 88 83 64 71 70 77 72 68 66 66 69 71 70 67 64 64 68 
69 68 67 67 66 69 74 72 66 62 58 53 52 57 64 71 73 71 67 66 67 65 62 59 59 60 
61 62 62 63 63 59 53 48 42 37 35 37 44 60 87 110 124 128 125 117 106 95 81 70 
63 59 55 54 57 63 69 73 73 65 57 53 54 58 63 68 71 74 74 64 50 46 54 69 72 66 
62 66 73 73 71 71 72 68 65 66 67 69 69 70 73 75 75 77 81 81 75 65 67 68 77 75 
69 64 62 66 71 74 74 71 69 69 72 73 74 73 70 68 70 71 67 62 54 46 44 50 58 65 
67 66 64 64 65 63 60 58 57 57 56 57 63 69 69 64 59 53 48 41 35 34 41 56 75 93 
104 107 103 95 88 82 73 65 63 64 60 56 57 63 68 71 68 60 54 53 53 53 58 65 70 
75 79 73 61 55 63 71 72 66 62 68 77 80 77 73 69 66 66 71 74 72 69 69 73 76 77 
77 77 71 63 69 70 72 74 75 70 64 62 66 71 74 75 71 66 65 68 72 74 75 74 70 68 
69 67 59 48 43 43 50 60 67 65 60 60 63 64 60 55 54 55 53 50 51 63 75 77 71 66 
61 54 46 38 36 41 52 64 74 87 92 86 77 71 69 63 58 62 68 70 66 63 65 68 70 65 
55 50 50 52 56 62 66 70 74 78 77 71 68 71 71 66 62 62 66 75 80 79 75 70 67 69 
74 76 73 68 66 70 76 80 81 77 69 71 74 74 77 70 70 66 62 63 67 69 70 70 66 62 
62 66 68 70 74 75 72 71 73 71 61 52 49 51 58 68 73 69 61 60 62 60 52 46 49 54 
56 52 55 66 77 78 73 70 65 58 52 47 45 46 49 54 64 79 89 82 69 61 59 56 53 57 
66 70 70 65 62 64 68 66 58 51 51 54 60 66 69 70 72 76 76 74 74 75 70 63 60 60 
61 65 72 75 75 72 71 71 72 72 71 68 67 69 74 79 83 81 74 74 73 74 81 65 64 61 
61 63 65 65 66 67 66 66 70 71 68 66 71 75 74 74 78 76 68 62 62 63 65 72 77 74 
66 62 60 55 45 41 46 56 60 60 63 72 77 74 70 67 63 57 54 56 55 52 51 52 60 74 
85 84 71 58 54 52 50 50 57 65 66 62 58 59 65 68 65 60 57 57 60 64 66 67 71 75 
71 68 69 72 70 66 65 62 58 59 66 74 76 76 74 70 67 67 69 70 70 69 69 74 79 80 
76 73 70 72 83 63 61 61 61 63 64 63 65 69 71 74 78 78 69 64 69 75 75 74 75 73 
69 68 71 67 65 69 75 75 70 65 59 53 48 47 51 56 59 60 64 72 74 71 68 67 60 52 
51 57 58 57 56 58 60 64 71 75 72 60 51 48 47 47 53 63 67 65 60 58 61 65 69 68 
65 60 58 60 62 66 72 75 70 62 64 70 72 72 71 66 60 59 67 74 77 78 75 67 62 63 
68 73 73 67 63 66 74 76 73 72 67 71 81 60 59 62 65 66 65 63 63 67 69 73 76 77 
70 63 66 73 75 72 69 66 66 68 68 64 60 65 72 75 74 68 63 60 60 59 57 55 54 54 
60 66 69 69 71 70 61 52 50 56 61 62 63 63 61 55 54 62 67 61 50 45 45 48 56 66 
71 70 66 61 59 61 64 67 68 65 62 61 62 66 72 77 73 67 66 71 73 74 72 67 59 60 
66 69 71 74 73 65 59 62 70 75 72 64 59 64 73 74 69 71 64 69 76 58 57 61 66 69 
69 66 62 62 64 66 70 73 71 66 66 71 74 72 68 64 65 65 64 59 60 65 72 76 77 73 
68 68 69 67 62 56 53 55 60 64 65 69 72 70 62 55 57 64 69 68 65 61 57 50 47 54 
64 64 56 52 51 55 62 67 68 68 65 63 61 60 61 63 66 66 64 64 64 66 71 77 77 74 
72 71 70 70 69 65 61 61 62 59 60 67 70 63 59 64 71 75 71 62 59 65 74 73 66 67 
63 66 69 59 57 59 63 68 71 69 65 62 62 63 66 70 72 69 68 71 74 73 68 66 65 66 
63 61 62 67 73 77 79 77 73 71 73 72 68 61 58 60 65 67 64 66 68 65 60 59 65 73 
77 73 63 55 52 51 51 56 64 67 66 64 63 64 65 64 61 61 63 64 65 65 63 63 63 63 
63 64 66 69 73 77 76 73 70 67 66 66 69 69 68 66 61 53 53 63 68 64 60 63 68 69 
66 63 60 65 71 70 69 65 61 64 64 63 59 60 63 67 69 70 68 65 65 66 67 69 71 70 
71 74 75 72 68 66 66 68 66 64 63 67 72 76 79 78 75 74 75 78 75 66 61 60 66 67 
63 61 62 61 58 58 63 70 73 72 63 55 54 59 62 62 63 66 68 67 67 69 68 61 57 59 
64 68 69 67 64 61 61 61 62 67 72 76 79 79 74 67 64 63 64 68 73 75 75 72 64 56 
57 66 72 68 64 65 64 61 61 62 64 66 68 68 62 61 61 64 63 65 62 64 66 67 67 67 
65 65 68 71 72 71 71 72 73 74 74 70 67 65 66 67 67 64 64 66 69 72 74 75 74 74 
77 80 78 68 59 61 65 66 61 59 61 61 59 57 58 61 64 66 66 64 64 69 70 68 63 62 
63 64 65 69 70 65 60 64 68 69 68 65 60 59 61 63 65 70 74 77 80 80 74 67 64 63 
65 69 74 76 76 74 69 64 66 74 78 74 70 68 65 60 60 66 70 71 71 71 59 59 60 65 
66 64 63 64 67 67 67 64 61 61 68 76 79 78 76 75 74 73 73 71 69 65 64 64 64 65 
67 68 67 66 66 67 68 70 74 76 71 65 63 66 70 67 62 61 64 65 61 59 59 60 60 63 
67 69 68 70 72 70 66 63 62 62 64 69 72 71 68 69 70 67 64 61 59 60 64 67 68 68 
67 66 70 75 73 70 68 67 63 65 69 72 72 72 71 70 73 79 81 77 73 72 70 66 67 71 
74 74 76 77 64 61 62 64 66 63 61 61 64 68 70 67 62 61 67 75 79 78 78 78 76 75 
76 77 74 66 61 60 63 68 73 71 65 60 58 59 61 64 68 68 65 63 67 73 72 66 63 66 
68 64 59 59 63 64 63 63 66 66 64 65 69 72 72 69 66 65 65 68 72 73 74 75 73 67 
62 61 63 67 69 67 64 60 55 54 60 67 69 69 71 70 62 61 67 71 70 68 69 71 73 76 
77 74 71 71 72 73 73 74 73 74 79 84 71 69 65 63 61 65 64 62 65 71 75 72 66 65 
68 70 69 70 75 79 79 77 81 85 81 69 61 61 65 70 73 70 63 57 55 56 58 59 63 66 
67 68 71 70 64 58 62 67 68 61 55 57 64 67 65 66 66 63 60 61 67 73 74 71 66 62 
62 65 68 72 75 77 76 69 64 63 67 71 70 65 60 56 53 54 60 67 67 67 74 76 70 65 
71 76 71 65 65 70 72 72 71 68 66 67 72 77 77 72 69 73 83 71 75 76 72 64 59 71 
71 69 72 78 80 73 70 70 69 63 58 62 73 83 80 76 78 86 82 71 64 66 68 68 68 67 
64 61 60 60 58 57 59 66 71 72 71 65 56 53 60 69 68 61 54 55 62 67 68 68 67 63 
59 60 65 71 71 66 58 54 56 62 65 68 72 75 74 71 66 64 66 70 69 65 62 61 60 62 
67 70 68 69 77 84 80 74 76 79 75 66 65 72 77 76 71 68 66 67 74 81 77 70 66 73 
84 70 75 77 76 73 66 75 77 75 78 82 77 69 66 68 66 58 54 63 77 84 79 70 71 78 
78 72 68 69 69 67 64 66 68 69 68 66 61 55 55 62 70 72 70 65 58 56 62 69 68 62 
57 58 62 66 69 68 64 60 59 61 65 67 66 59 50 48 54 61 63 67 69 69 68 69 68 66 
65 67 69 69 70 71 69 67 69 70 69 71 79 84 80 75 76 79 77 71 70 77 85 84 79 74 
72 71 75 79 76 66 65 72 78 66 69 71 75 79 76 76 79 77 77 78 72 61 60 64 62 56 
56 66 77 79 73 68 70 75 76 75 75 74 72 67 64 65 69 71 72 70 65 58 55 58 63 65 
67 67 64 62 65 68 66 61 59 60 61 64 66 63 57 54 56 63 68 67 63 56 50 50 56 62 
66 69 69 65 61 65 69 67 64 67 71 73 75 75 71 67 66 68 70 73 77 78 72 67 69 75 
78 75 74 79 84 84 80 78 74 70 69 72 69 64 63 68 70 62 63 64 69 77 76 77 79 75 
72 72 68 62 61 63 61 59 62 68 70 67 68 71 76 77 80 82 81 78 73 68 63 62 65 70 
72 71 69 65 62 60 60 61 64 65 64 65 68 70 65 59 59 61 62 62 63 61 55 52 55 64 
70 70 65 61 59 61 64 65 68 72 71 63 58 63 68 67 66 67 70 69 71 74 71 66 66 70 
75 77 76 71 64 61 65 72 78 76 75 77 79 76 73 73 71 65 62 63 63 61 63 64 61 62 
63 62 64 69 71 73 76 70 67 68 69 68 68 69 67 66 68 68 62 61 66 76 79 76 78 81 
81 77 72 68 61 58 63 69 71 70 72 73 71 66 61 61 62 62 61 64 69 70 66 61 61 64 
63 62 65 66 63 57 58 64 71 73 71 70 70 72 71 69 69 71 69 63 61 67 71 70 69 68 
65 63 66 72 74 71 71 75 81 81 77 70 64 62 65 71 77 77 76 77 76 70 68 69 68 63 
60 60 59 60 63 63 59 65 67 64 63 66 69 63 72 71 66 65 70 73 73 73 73 74 73 68 
62 60 70 77 75 71 72 77 77 74 72 67 61 60 66 72 69 67 69 75 74 66 60 59 61 61 
60 62 67 70 67 63 64 66 65 63 65 70 69 67 66 69 73 76 76 75 75 75 73 70 69 68 
65 63 67 73 77 75 72 68 62 61 67 75 77 76 76 78 80 79 76 73 71 70 70 73 77 80 
80 80 76 70 67 69 69 67 64 62 59 61 65 65 63 65 69 71 69 71 72 66 72 70 64 63 
70 78 81 78 75 74 72 67 60 61 68 73 70 67 70 73 74 75 75 71 67 68 74 74 67 62 
65 72 70 61 55 57 62 63 63 63 66 69 69 67 67 70 70 67 64 66 69 71 73 75 77 79 
79 75 72 73 74 73 70 66 63 64 70 77 78 76 73 67 62 62 70 76 77 74 75 75 74 74 
75 76 77 77 75 74 77 82 85 81 74 68 67 71 70 69 70 68 64 63 64 66 60 64 72 77 
78 76 75 73 69 65 61 63 71 79 81 78 73 70 70 71 71 70 70 68 67 66 69 72 72 76 
79 77 75 78 82 77 65 59 64 70 69 61 56 59 64 66 67 67 68 71 71 71 73 78 79 73 
66 64 66 71 75 78 80 79 76 72 71 74 77 78 76 71 67 67 72 75 74 70 67 64 61 64 
71 73 69 67 69 72 71 72 74 75 75 76 74 71 73 80 83 78 68 62 66 70 70 70 73 75 
71 66 61 61 59 66 77 82 80 78 77 72 66 66 64 64 61 71 75 76 73 71 71 72 72 72 
70 69 69 69 70 72 75 76 74 73 74 79 82 76 66 62 67 74 72 65 61 63 65 67 69 71 
71 70 71 73 79 85 85 77 69 68 71 72 74 76 77 74 68 66 70 74 78 79 79 77 74 74 
74 74 71 65 62 61 60 63 67 65 60 60 66 70 72 74 74 72 72 73 71 67 68 74 75 70 
63 62 66 69 68 69 73 77 75 70 63 58 60 69 77 78 74 73 75 65 60 59 60 60 59 62 
67 72 71 71 77 69 68 68 70 70 69 69 70 75 79 77 73 72 76 77 76 73 71 70 74 79 
77 70 66 65 64 64 67 70 70 69 69 73 79 85 83 75 71 73 77 77 74 72 71 66 61 60 
64 72 76 77 78 78 78 77 77 77 73 66 60 60 62 63 62 59 55 57 64 69 70 72 73 71 
72 76 74 69 68 71 71 69 67 68 69 66 64 66 69 73 75 75 69 63 60 66 69 69 65 66 
68 57 52 52 58 61 61 62 68 75 78 76 79 80 74 62 60 63 61 64 63 70 77 76 72 73 
77 74 67 62 67 72 75 77 77 74 70 66 60 57 61 67 69 69 69 70 74 79 78 73 70 73 
77 78 75 70 64 60 58 59 64 69 72 73 73 74 74 74 75 77 75 68 62 62 65 65 62 58 
55 57 63 66 64 66 68 69 70 74 74 70 67 69 71 72 74 74 70 63 61 62 64 66 72 78 
76 68 58 60 63 64 65 67 66 58 50 51 58 63 62 61 66 75 79 77 75 75 70 63 61 64 
63 63 65 69 63 59 67 68 72 70 63 62 68 73 74 72 70 71 77 81 77 70 64 64 69 70 
68 64 65 71 74 72 69 68 71 76 75 69 62 61 66 69 69 69 69 69 69 67 67 67 70 73 
74 69 64 62 63 64 63 60 56 57 62 65 64 62 63 62 62 64 66 64 65 67 70 72 72 70 
67 62 61 62 63 62 67 75 75 64 60 61 64 67 72 77 71 62 54 54 57 62 61 60 65 75 
79 76 70 69 69 68 68 71 71 70 73 71 64 59 67 74 74 68 68 72 71 76 76 72 69 71 
78 85 86 83 77 71 70 72 70 64 62 68 75 75 70 64 67 74 76 70 63 67 75 77 72 67 
66 67 66 63 62 65 69 72 72 70 67 61 58 58 62 62 59 57 62 68 70 67 63 60 57 57 
59 62 65 68 69 69 67 64 64 63 64 66 66 63 64 68 70 69 65 66 66 67 73 80 77 63 
56 56 56 58 60 61 66 73 76 72 67 66 70 72 73 75 75 76 76 71 63 60 64 69 68 66 
67 70 70 72 75 74 72 74 76 84 86 83 78 71 70 73 72 67 65 69 71 69 65 64 66 71 
72 66 63 69 76 75 67 65 67 69 66 62 61 66 72 74 74 75 73 67 59 58 63 66 62 58 
61 70 75 72 67 64 63 61 61 64 69 71 72 71 69 65 62 62 63 67 69 68 66 68 69 71 
69 68 64 61 65 75 74 56 59 59 72 74 68 57 48 55 68 73 68 62 64 73 80 81 77 72 
70 70 72 73 71 69 68 69 69 70 74 78 77 73 73 77 74 67 62 66 72 74 71 71 70 66 
66 70 70 66 63 64 68 70 72 73 72 71 72 68 64 67 73 72 68 64 63 69 74 75 74 78 
81 75 65 61 67 70 67 60 61 68 71 69 67 68 70 68 66 68 71 72 73 74 72 67 62 59 
63 69 74 75 74 72 72 71 72 71 67 62 54 47 47 56 59 59 73 75 70 58 50 57 68 73 
67 62 64 73 79 80 77 72 70 70 72 72 71 69 69 69 68 69 73 78 77 73 72 76 74 66 
62 66 72 74 73 69 69 76 84 69 68 64 62 66 69 70 74 78 78 75 73 72 70 72 75 75 
70 66 66 69 73 72 71 75 78 75 67 66 71 75 73 68 65 65 66 64 66 68 70 70 72 73 
73 69 67 69 70 65 59 59 66 75 81 81 78 76 73 71 72 70 67 63 55 48 48 58 58 58 
73 78 79 69 64 66 71 68 64 60 61 64 70 73 75 74 74 73 69 66 66 69 73 71 65 61 
66 74 74 68 66 70 69 62 61 68 75 77 74 70 68 72 81 85 85 82 77 72 71 70 70 74 
75 74 73 72 71 72 75 75 72 72 74 77 75 71 68 71 76 74 70 69 72 76 76 75 73 69 
65 67 70 71 67 69 74 79 74 67 63 65 67 64 60 61 70 78 80 77 76 77 70 72 69 68 
68 68 62 56 54 
