P2
112 112
255
81 81 69 65 65 64 63 65 71 72 71 77 80 77 74 77 77 72 67 65 69 79 86 84 77 72 
70 70 71 72 75 80 84 84 79 75 72 72 74 76 76 78 80 75 67 67 75 78 74 69 62 59 
65 76 81 77 75 78 81 79 74 70 70 69 68 68 70 71 68 67 71 74 71 65 62 65 67 64 
61 63 71 79 80 77 79 83 84 81 84 85 78 68 68 75 80 78 74 77 81 78 73 74 76 78 
79 75 66 60 62 68 73 77 77 78 74 71 71 71 70 71 73 73 75 82 82 71 65 69 74 73 
70 70 73 80 83 79 74 70 65 60 61 68 77 84 84 81 78 75 71 70 72 76 81 85 84 74 
62 60 67 72 71 67 62 60 66 75 78 72 67 69 74 78 76 70 68 71 73 73 72 72 70 68 
70 74 74 68 63 63 64 61 57 58 66 73 75 74 76 81 82 81 84 85 78 71 73 82 87 82 
74 75 78 75 72 77 82 86 87 81 68 59 60 66 68 70 68 69 74 73 72 74 77 80 78 75 
78 88 90 76 63 65 72 76 77 77 79 81 82 79 75 71 63 55 57 69 79 81 76 74 78 80 
77 72 71 74 79 82 78 69 60 57 61 64 64 62 59 58 64 72 73 68 63 61 65 73 76 70 
62 65 74 79 77 73 68 64 64 69 73 71 66 65 67 65 61 60 64 66 67 68 72 75 76 78 
81 81 73 69 75 86 90 82 71 69 72 73 76 81 83 81 83 82 72 64 66 71 68 65 65 66 
68 66 62 64 72 82 82 75 75 85 91 82 68 65 72 80 82 80 79 79 80 80 80 76 65 55 
59 74 82 77 69 69 77 83 80 73 68 66 70 74 70 63 61 62 62 61 59 56 54 56 64 71 
72 68 63 58 58 66 73 67 55 55 68 78 77 71 64 57 54 61 70 72 70 70 73 73 70 67 
63 59 57 61 66 68 68 73 80 80 73 70 76 84 87 79 70 67 71 75 79 82 78 71 72 77 
76 72 74 77 74 66 68 67 61 59 56 56 65 78 85 79 73 77 85 83 74 69 73 80 81 77 
74 74 75 78 82 79 67 56 58 70 77 72 64 65 72 75 74 70 63 58 62 68 66 60 60 64 
65 61 56 52 53 58 67 72 72 69 65 60 57 61 68 65 56 53 64 76 77 71 64 54 48 53 
64 71 70 70 74 77 74 69 63 56 54 59 64 65 65 69 78 82 79 75 75 77 77 74 71 72 
76 78 79 80 75 67 65 71 75 74 75 78 76 71 72 71 57 61 64 63 65 75 86 87 80 77 
80 81 77 72 71 75 76 73 70 70 71 74 79 78 68 57 55 60 66 66 64 65 66 67 69 71 
66 58 60 68 68 59 55 61 64 59 53 53 58 64 69 70 69 67 66 65 62 61 64 66 63 61 
66 74 76 74 70 61 50 50 60 68 68 67 69 70 67 65 63 60 60 66 72 73 71 69 73 79 
80 76 72 69 67 68 70 75 78 78 76 77 78 73 67 66 67 67 68 72 75 74 73 72 62 68 
76 75 68 70 81 88 86 80 77 78 77 73 69 70 73 73 73 72 71 73 79 79 71 63 58 57 
59 64 67 67 66 66 70 75 72 62 60 69 71 62 54 59 63 59 52 55 65 70 70 68 67 66 
65 66 65 62 61 67 71 70 68 69 70 70 72 68 58 54 62 70 69 66 64 62 59 59 62 63 
66 72 78 82 79 71 66 71 74 72 69 67 66 65 67 71 75 73 69 72 79 80 72 63 60 60 
63 69 73 73 67 67 71 72 79 78 68 63 70 80 84 79 73 71 72 72 70 70 72 74 77 78 
76 77 81 81 74 70 66 63 62 65 67 66 65 66 71 77 75 66 61 69 75 70 61 63 67 63 
55 58 68 73 72 72 73 70 65 64 66 64 61 67 75 77 71 66 62 59 63 66 62 60 67 76 
75 69 65 61 57 58 60 62 65 68 71 76 76 68 63 67 73 71 71 73 72 67 63 65 69 66 
61 64 75 80 72 63 63 66 70 74 74 70 60 60 78 73 74 74 68 62 63 70 76 75 69 66 
68 70 73 75 75 73 75 78 78 78 82 82 76 73 72 70 69 68 64 60 60 62 67 73 77 72 
67 71 80 79 71 68 71 67 61 61 67 71 73 77 78 73 67 66 70 68 64 68 77 80 75 69 
61 53 53 57 59 62 71 81 80 75 70 67 64 62 60 61 63 63 61 62 64 62 61 70 77 76 
74 76 74 66 61 63 65 62 59 63 70 73 69 66 70 76 78 77 75 68 62 62 80 75 74 76 
75 70 65 66 70 72 70 68 67 67 72 79 79 71 70 75 77 76 79 82 78 73 73 75 75 72 
64 58 56 58 62 71 78 77 71 72 79 81 75 69 68 67 66 65 65 66 69 73 73 70 67 69 
73 70 64 67 75 78 75 71 66 59 54 55 58 63 72 79 81 79 75 74 73 69 64 63 66 65 
60 58 59 58 60 69 79 79 75 73 69 64 63 66 69 67 66 65 64 64 64 67 72 75 73 71 
72 68 68 68 79 81 83 86 87 82 74 70 71 73 75 76 69 61 63 74 77 72 71 77 79 76 
78 81 78 72 73 77 78 73 66 62 62 61 62 70 76 75 69 65 68 72 71 67 64 66 71 72 
68 66 68 69 67 64 64 68 70 65 59 61 69 74 73 71 69 67 63 61 62 66 70 75 78 80 
77 74 74 73 69 67 70 70 65 62 62 59 59 66 76 80 79 74 68 64 65 71 76 75 70 64 
59 58 62 66 67 66 63 65 68 69 68 68 73 80 88 93 92 85 78 75 74 73 75 78 71 58 
57 67 73 71 73 81 85 81 79 80 76 72 74 79 77 71 67 69 70 66 64 67 71 70 65 59 
56 62 70 70 66 68 75 78 73 68 70 70 67 63 63 65 64 60 55 55 61 69 70 69 68 68 
66 63 63 64 65 68 74 77 73 66 67 70 70 69 70 70 67 67 67 64 63 68 78 85 86 81 
72 65 64 71 78 76 67 60 58 60 64 66 64 62 64 69 69 66 64 65 66 70 79 86 85 79 
76 76 72 66 68 74 73 66 63 68 72 70 71 80 88 85 80 76 74 73 77 79 74 66 66 70 
71 65 60 60 63 67 67 61 56 61 73 78 72 70 76 80 74 68 68 69 65 62 64 65 63 60 
57 56 59 64 66 65 66 66 64 61 61 59 57 61 69 73 68 62 63 69 72 69 68 67 67 69 
71 68 70 78 86 90 89 82 71 60 59 68 75 71 61 60 65 67 67 67 65 66 73 79 74 65 
65 65 65 63 68 75 76 74 73 73 68 61 64 74 80 78 74 74 74 69 67 75 85 85 78 72 
72 75 78 77 69 63 61 62 61 58 55 54 58 65 70 69 63 66 77 81 75 69 73 76 71 64 
61 58 55 58 65 67 63 61 63 64 64 63 63 64 67 69 68 67 65 59 54 56 64 69 67 65 
70 77 78 73 70 69 70 72 72 70 74 85 92 91 85 77 67 57 57 67 73 67 60 65 72 71 
68 70 72 73 79 83 78 68 70 70 67 65 67 72 75 76 75 72 68 67 73 83 88 83 75 71 
71 69 66 69 79 82 75 69 72 76 77 74 70 66 61 55 53 56 58 58 58 62 69 73 72 71 
76 78 72 66 68 70 67 61 55 50 50 58 66 66 62 61 65 68 68 66 65 67 71 73 75 79 
78 67 58 58 62 65 66 68 75 83 82 76 74 76 77 76 74 72 76 85 90 86 81 77 71 64 
63 70 73 66 62 69 74 71 69 75 80 77 77 80 78 72 76 77 66 71 73 75 78 78 74 71 
72 79 87 90 88 80 71 66 67 68 66 68 75 78 74 72 75 75 71 70 74 75 66 56 54 60 
64 62 58 57 63 72 75 73 71 69 65 62 63 66 65 62 57 54 58 65 66 62 59 59 61 63 
65 67 70 73 73 71 73 82 83 71 61 60 61 60 60 63 71 78 77 71 73 80 82 77 75 75 
77 80 80 77 78 82 82 76 71 72 74 70 67 71 74 72 74 82 84 77 73 75 76 75 79 80 
66 73 73 71 72 72 68 67 74 84 90 86 80 76 74 70 68 67 67 69 72 74 75 77 79 73 
62 60 70 77 72 62 60 64 65 61 56 53 57 66 71 70 66 62 60 62 64 65 66 64 60 61 
66 68 61 55 54 55 53 52 56 63 69 73 69 60 61 72 74 64 58 59 59 57 56 58 65 71 
68 61 64 75 78 74 71 73 74 72 69 68 73 82 86 79 70 69 73 73 69 67 68 70 74 80 
80 75 73 75 76 76 78 79 71 72 66 61 62 65 65 66 71 78 79 75 71 76 81 80 73 69 
68 68 68 69 73 80 81 70 55 50 59 69 70 65 63 64 64 62 59 55 56 60 62 63 62 60 
61 66 69 70 69 65 61 61 63 60 51 48 49 48 44 45 51 57 63 67 63 54 55 64 65 57 
53 54 56 57 59 60 64 68 64 54 55 65 70 69 69 71 70 67 64 65 69 76 78 69 58 57 
66 71 65 56 56 60 64 68 71 74 78 81 79 76 74 75 77 73 63 58 61 65 69 70 69 67 
65 62 64 71 78 78 73 70 69 68 65 65 70 77 78 70 58 51 54 62 67 66 64 65 68 70 
70 65 60 56 54 55 57 59 64 71 74 74 71 67 63 61 58 50 42 42 45 44 42 47 55 57 
56 59 59 56 59 65 64 58 55 55 55 60 65 63 61 64 63 55 54 61 68 72 76 75 70 67 
67 70 71 72 70 61 49 47 57 65 60 51 49 54 57 60 67 77 85 86 82 76 68 67 77 73 
67 67 69 70 73 75 71 63 57 54 57 62 66 67 68 71 72 69 67 67 71 74 74 71 66 60 
58 62 68 67 63 64 69 75 77 72 64 56 51 49 50 55 63 71 73 72 70 68 64 62 57 48 
40 43 47 45 45 54 63 61 54 51 53 56 60 63 61 59 61 60 58 63 67 62 55 57 62 61 
60 64 72 80 84 82 73 69 72 75 73 70 69 64 54 49 55 63 63 58 58 63 65 66 72 82 
89 88 83 75 61 59 71 69 70 74 74 72 75 79 77 69 62 58 58 60 59 57 63 72 74 70 
69 73 77 78 74 70 67 62 59 61 67 66 60 59 65 72 76 73 65 58 51 46 45 50 59 66 
66 64 66 66 62 59 56 50 46 49 54 52 51 59 68 66 56 48 46 47 51 54 54 59 65 64 
60 62 66 61 53 57 64 65 64 66 71 78 83 80 72 68 71 73 70 66 67 69 67 61 61 66 
68 67 69 76 79 77 79 84 86 84 80 73 60 58 66 64 68 74 73 71 75 81 79 73 68 67 
68 68 62 55 59 71 75 70 69 76 85 87 80 70 63 58 56 58 63 64 63 62 65 69 71 69 
63 59 54 47 42 46 56 62 58 56 59 62 57 53 53 53 53 59 67 68 65 69 75 75 67 56 
46 42 44 47 52 61 68 65 57 58 64 62 58 62 67 65 61 63 67 70 71 70 67 66 67 68 
64 62 65 72 75 72 70 71 71 68 70 77 81 79 79 80 77 75 75 71 64 63 68 64 66 71 
70 69 74 78 73 66 65 69 74 77 70 58 58 70 77 73 69 75 87 92 86 72 63 59 58 59 
62 65 71 74 73 70 68 64 61 59 57 50 42 43 53 59 56 52 54 58 56 54 57 61 63 70 
82 90 91 89 87 85 81 70 56 46 45 48 55 65 69 63 56 57 61 60 59 62 64 61 58 62 
67 66 62 59 59 61 64 64 63 62 67 74 77 76 76 76 74 69 68 71 71 70 74 76 71 66 
68 69 66 65 74 66 65 68 67 65 69 73 68 60 59 63 72 79 77 66 62 71 80 76 69 70 
81 89 85 73 65 64 65 65 64 66 75 81 77 69 65 62 60 60 60 54 45 43 50 57 57 54 
54 57 59 63 70 77 79 83 97 112 119 113 100 91 86 78 64 54 51 52 57 64 64 58 57 
62 65 60 55 55 56 54 55 62 67 66 58 52 52 53 56 61 65 69 75 81 81 78 79 81 79 
75 72 69 64 64 73 78 73 66 66 68 64 63 77 66 63 67 66 64 66 70 70 65 62 63 69 
77 79 74 69 72 77 75 67 66 74 82 78 69 65 65 66 66 64 64 69 74 71 66 65 66 65 
63 62 58 52 48 50 55 60 60 59 59 60 65 77 89 94 100 111 128 139 131 110 94 86 
77 66 60 59 57 57 60 59 56 60 69 70 63 56 53 52 52 54 58 64 65 61 56 54 52 52 
59 68 76 83 87 84 80 80 82 82 80 78 72 65 66 77 83 79 72 70 69 65 65 74 65 64 
69 71 68 67 70 73 72 70 70 70 72 75 77 75 72 72 71 67 66 72 75 70 63 63 66 67 
66 64 62 62 63 63 64 69 73 73 68 64 61 58 56 55 57 63 65 63 59 56 58 70 89 104 
115 127 142 153 145 123 104 94 81 68 62 61 59 57 61 62 62 65 71 71 68 64 59 55 
53 53 55 62 68 70 68 65 60 56 60 69 77 82 82 81 80 78 78 79 81 80 72 66 71 81 
85 82 78 76 72 73 72 67 66 70 75 77 75 73 71 69 69 70 72 69 64 66 75 79 75 71 
69 67 67 70 68 62 59 64 70 71 69 68 66 62 60 63 67 71 75 76 73 67 62 62 64 63 
62 64 66 63 58 54 55 64 84 108 128 142 156 166 159 139 123 109 90 70 60 57 52 
52 62 72 73 70 66 64 67 70 65 57 52 53 57 66 74 75 72 70 67 61 59 64 69 69 69 
71 74 75 74 77 82 80 71 66 72 81 82 79 79 79 77 79 79 58 65 73 77 78 80 79 74 
68 64 65 69 66 59 61 73 80 78 72 67 62 60 60 59 55 57 66 73 73 71 71 72 68 64 
65 67 66 67 70 72 67 61 62 68 69 64 62 62 58 57 59 63 69 86 112 138 157 171 
178 171 152 134 117 93 70 57 51 43 44 59 76 79 70 59 55 61 69 66 57 53 55 61 
69 75 72 66 64 62 58 55 58 62 61 60 62 66 68 70 76 84 83 73 68 74 79 77 75 77 
80 80 78 78 52 61 68 70 75 82 85 81 74 69 69 70 67 62 64 72 76 74 70 62 52 47 
50 55 57 61 68 71 69 66 69 72 68 62 61 61 57 55 59 64 62 57 59 68 71 65 59 57 
56 57 63 70 79 97 125 151 169 181 184 175 156 135 114 90 70 58 50 41 41 56 71 
73 65 56 54 60 67 65 59 58 61 64 69 72 69 63 59 57 54 52 57 61 62 59 59 60 62 
66 73 81 83 79 76 79 80 76 75 78 79 78 72 73 54 60 62 63 71 84 88 85 82 80 80 
77 73 69 70 73 71 68 66 59 48 44 52 61 65 68 73 72 66 63 66 68 63 55 53 54 52 
50 52 56 56 54 58 68 72 65 58 56 58 61 65 73 89 114 144 165 176 182 182 172 
153 133 113 92 75 62 53 44 44 53 61 62 61 60 61 64 67 66 64 67 69 66 65 67 68 
67 64 60 54 52 56 61 61 58 56 56 59 64 69 74 80 84 85 84 82 79 77 77 73 71 67 
68 61 64 61 60 69 82 84 80 81 85 86 83 77 73 74 75 70 65 64 61 54 53 63 70 69 
70 77 78 70 65 68 70 64 55 54 56 56 53 51 53 55 57 61 69 74 69 61 59 64 69 72 
81 103 134 161 173 175 174 173 164 147 130 115 98 80 66 54 45 44 46 48 51 58 
64 66 66 66 65 67 71 71 66 62 64 68 72 71 65 57 54 57 58 56 52 50 53 59 65 67 
70 77 85 88 85 82 79 76 70 64 62 65 66 64 66 64 63 71 79 77 70 71 78 84 84 78 
74 78 81 74 65 62 62 59 61 67 67 60 61 73 80 75 69 73 78 74 65 62 65 65 61 57 
56 58 63 68 72 76 74 67 63 69 77 84 97 122 151 170 175 171 165 161 151 136 122 
109 95 80 66 54 44 40 38 37 42 53 64 64 59 59 62 67 69 68 65 64 66 71 76 75 67 
59 58 60 59 55 49 47 51 59 65 67 70 81 90 90 86 83 81 75 65 58 59 67 67 62 66 
68 71 77 79 73 64 62 69 77 80 75 73 80 85 78 66 59 58 59 62 64 58 49 52 67 77 
74 69 76 84 81 70 65 68 70 69 64 60 61 67 73 75 77 78 74 70 73 84 99 119 143 
165 177 179 171 160 150 139 125 110 97 85 75 66 55 44 37 35 34 38 48 57 55 50 
52 60 66 67 65 65 68 72 76 79 75 66 59 60 64 63 57 51 49 53 60 63 64 71 85 95 
94 89 88 87 79 68 61 63 68 68 64 67 75 83 84 80 72 66 63 65 70 73 70 68 74 81 
79 69 60 58 61 64 63 57 51 55 66 73 72 70 76 82 77 64 57 61 67 70 68 64 65 71 
77 75 72 73 76 77 83 96 116 141 164 179 187 189 179 162 147 137 125 110 95 85 
78 72 61 46 36 35 37 38 41 46 47 47 53 63 67 64 59 60 64 69 73 76 72 63 60 63 
65 63 59 54 52 55 60 61 61 70 84 93 92 88 88 88 81 71 65 66 68 68 69 70 81 90 
88 79 72 70 67 64 63 65 66 65 67 73 76 72 65 62 63 65 64 61 60 63 68 72 74 76 
76 76 70 60 52 52 59 67 71 72 74 77 79 73 64 64 72 82 96 114 137 163 184 195 
201 202 193 174 158 149 140 127 113 103 97 89 75 53 36 33 38 39 38 41 45 49 57 
68 69 60 52 51 53 56 61 67 66 63 66 70 68 63 62 60 58 57 59 60 62 69 78 84 82 
79 79 80 76 68 63 65 73 73 72 70 78 87 84 74 70 71 69 62 58 62 69 70 68 71 75 
74 69 65 65 63 61 61 66 71 69 70 77 83 79 71 70 69 62 56 58 67 75 81 85 85 80 
72 63 62 71 87 108 131 156 179 197 206 212 215 207 190 174 166 158 150 142 135 
125 113 95 67 40 30 34 38 39 43 47 50 56 66 68 60 52 50 48 47 52 60 63 65 73 
79 74 68 68 70 67 60 57 59 66 72 73 73 73 70 70 73 72 67 63 67 79 79 72 67 69 
75 74 69 67 69 70 65 60 64 73 76 74 76 79 76 69 65 64 60 55 58 70 78 73 68 77 
86 79 69 72 80 76 66 67 75 82 87 90 87 80 74 69 70 77 91 115 143 168 189 205 
215 223 227 219 202 187 179 173 169 171 169 156 138 118 87 51 31 30 33 36 43 
48 45 47 59 69 66 60 56 51 45 49 58 63 67 76 81 76 70 73 78 76 67 58 60 70 74 
70 67 68 69 70 74 74 68 66 72 77 77 73 67 64 64 65 65 64 67 70 70 68 69 74 74 
74 79 82 76 67 64 63 58 51 55 71 81 73 64 70 79 73 65 73 85 83 75 78 88 92 91 
89 84 78 75 75 76 81 94 118 149 177 199 216 228 237 239 228 209 194 188 186 
186 194 199 186 162 138 106 70 45 34 28 29 39 47 42 40 54 70 72 67 60 51 45 49 
59 66 72 78 79 73 68 70 76 80 76 65 62 69 73 69 65 67 72 77 80 78 70 65 71 70 
70 72 68 64 61 61 61 60 60 64 70 73 77 76 70 67 73 79 73 65 63 63 56 48 49 62 
69 62 53 58 66 62 60 73 87 85 81 89 100 101 95 87 81 77 76 76 76 80 95 120 152 
183 208 229 243 249 247 234 214 199 198 202 204 212 221 213 188 157 123 89 64 
45 29 25 37 47 46 45 55 67 68 63 56 49 46 52 60 69 77 81 77 69 64 63 70 80 82 
71 64 68 73 72 68 69 75 82 87 83 72 63 64 70 70 67 65 64 63 60 59 57 55 57 63 
71 80 81 70 62 66 72 70 65 64 62 55 46 46 52 54 49 45 50 54 54 60 76 87 88 90 
100 107 105 96 86 77 74 75 74 73 79 94 120 153 185 214 238 250 251 244 232 214 
201 206 218 224 230 241 241 219 183 143 107 80 56 36 29 39 49 52 52 55 56 53 
50 49 49 52 56 58 65 75 79 74 67 61 60 68 79 82 73 65 69 76 76 72 71 76 83 87 
86 77 67 65 74 74 62 60 62 64 61 59 61 64 64 63 68 78 79 69 59 61 68 68 64 61 
57 49 43 46 51 50 46 46 51 54 56 63 75 83 89 98 107 109 103 92 80 71 69 70 70 
69 74 88 112 145 181 214 237 246 243 235 225 211 201 212 233 246 254 255 255 
250 213 167 126 93 65 44 36 41 48 53 55 54 47 40 37 42 51 56 54 48 51 62 69 69 
66 63 63 69 76 76 68 65 70 76 76 71 70 75 80 84 84 79 73 71 73 73 61 58 61 64 
62 61 68 77 79 73 70 72 71 64 58 61 68 68 61 53 47 40 39 46 54 54 50 50 56 61 
63 67 72 77 87 100 108 106 97 86 76 68 64 62 60 59 62 73 97 131 170 205 228 
237 233 226 216 206 203 220 246 255 255 255 255 255 240 193 148 110 77 52 42 
42 45 49 56 59 54 43 36 40 52 56 48 38 40 51 61 67 70 69 69 71 72 67 63 63 69 
73 71 67 68 74 80 82 80 76 74 75 71 70 63 60 63 66 65 63 67 75 79 76 70 66 66 
64 62 65 71 71 61 51 46 41 38 43 52 54 50 51 58 64 66 68 71 77 88 100 105 102 
95 86 78 72 64 54 47 44 49 61 86 119 157 190 214 224 224 217 206 199 206 227 
255 255 255 255 255 255 255 216 169 127 87 57 44 42 41 45 56 68 71 60 47 47 56 
59 49 40 43 53 61 69 75 76 73 70 67 64 64 67 70 70 68 66 69 76 84 85 80 75 75 
76 73 72 66 61 64 70 70 67 65 66 67 67 63 60 63 68 67 67 71 71 65 60 60 56 46 
41 46 50 51 52 58 63 66 69 76 87 98 104 105 103 97 88 81 76 65 49 37 35 41 56 
83 118 152 180 200 212 216 209 195 190 203 228 254 255 255 255 255 255 255 230 
182 137 93 58 43 41 39 40 51 68 78 70 57 56 64 65 56 50 55 63 66 69 74 77 74 
68 65 67 71 73 72 70 69 70 73 77 83 87 85 81 80 80 76 75 66 61 64 71 75 75 71 
65 62 61 57 53 61 71 71 66 64 64 64 67 73 70 55 44 45 51 55 58 60 62 67 74 83 
96 106 109 107 105 97 85 76 71 61 44 32 30 35 51 81 119 153 176 191 202 208 
201 185 179 196 223 249 255 255 255 255 255 255 229 179 135 92 57 40 38 37 35 
41 57 67 63 55 58 64 63 57 57 64 71 71 66 68 74 74 67 63 68 75 77 75 72 73 74 
75 73 77 85 90 90 87 83 71 70 66 62 63 67 72 77 77 69 63 61 58 55 63 74 74 65 
58 56 57 63 72 73 64 55 54 56 60 62 62 62 67 75 84 93 102 104 104 102 94 79 68 
64 57 43 31 26 27 39 69 110 146 169 182 191 196 189 174 167 183 212 240 255 
255 255 255 255 255 215 166 126 89 56 36 34 36 36 38 46 52 49 48 54 55 50 49 
55 63 71 71 67 66 71 72 65 60 65 74 78 77 76 75 74 72 70 73 85 95 96 89 80 64 
63 70 66 63 62 66 73 75 69 63 64 67 68 72 77 74 65 59 55 53 58 66 72 73 72 66 
58 58 62 63 62 65 72 78 86 93 95 97 98 92 79 69 64 57 43 30 24 21 28 54 93 129 
154 168 175 177 171 159 153 166 193 222 250 255 255 255 255 255 203 154 119 
87 55 32 28 37 42 43 46 47 44 48 54 49 40 42 50 55 60 67 70 71 70 66 58 55 62 
73 79 80 79 76 70 68 70 77 89 97 95 85 73 65 64 74 70 65 62 64 70 73 70 67 70 
76 79 80 77 69 62 60 57 53 56 65 73 82 84 73 57 54 61 65 63 62 66 74 84 91 93 
95 98 96 87 79 71 58 41 28 23 21 25 45 79 114 139 153 159 160 155 143 135 143 
167 198 229 255 255 255 255 254 200 151 115 81 47 23 20 32 43 48 51 51 50 56 
62 58 49 50 55 52 49 58 70 75 69 59 53 54 62 72 77 79 79 74 67 65 72 82 90 93 
88 80 71 71 70 71 69 68 67 66 67 70 72 72 75 77 78 78 72 62 57 58 57 53 57 67 
76 83 85 72 55 52 61 66 61 57 59 69 83 93 97 101 105 104 97 88 75 55 36 25 23 
23 26 41 70 103 128 143 149 150 143 128 114 116 137 171 206 238 255 255 255 
241 196 150 107 66 30 10 10 24 37 46 51 53 54 63 74 74 69 67 66 56 46 49 62 69 
63 54 55 63 69 72 73 74 74 71 65 64 73 84 87 84 80 77 74 72 72 63 64 69 71 66 
60 59 65 71 72 69 68 70 68 60 57 61 62 58 62 72 78 81 80 69 56 55 62 64 59 53 
54 64 78 91 100 108 112 110 102 92 76 53 34 24 23 22 23 34 59 88 111 126 137 
140 129 109 91 87 106 142 182 216 240 251 246 223 189 148 100 50 14 0 5 18 31 
41 47 50 55 67 80 84 80 75 70 61 51 48 53 59 56 54 63 74 77 73 69 67 66 65 63 
64 73 82 82 76 72 74 75 72 71 62 65 71 73 67 57 52 56 64 66 61 60 66 69 65 63 
68 71 68 69 77 80 78 74 67 59 58 61 62 59 54 54 61 74 89 101 109 110 105 99 93 
79 59 41 30 23 17 16 26 47 69 86 102 118 124 110 88 71 67 80 113 156 196 224 
236 230 211 185 150 100 46 10 0 5 16 28 39 45 49 57 73 83 83 77 70 65 63 59 53 
52 55 56 57 65 75 77 73 67 62 59 61 63 65 72 80 78 71 68 72 75 74 73 68 72 74 
72 68 62 57 57 62 64 60 60 67 72 70 67 70 72 70 72 76 76 71 68 65 60 58 59 60 
60 58 56 59 70 86 98 101 97 93 94 93 84 69 54 39 24 14 13 25 44 58 66 82 104 
111 95 72 59 57 66 93 133 174 207 225 223 205 181 150 104 51 15 4 8 17 29 41 
47 51 62 78 83 76 68 62 59 63 68 64 59 60 62 60 62 66 70 71 69 63 58 61 66 70 
74 78 75 68 69 75 78 76 75 73 77 75 69 68 69 67 65 68 69 66 63 66 71 69 65 64 
64 65 69 72 67 62 62 63 59 55 54 57 59 59 55 54 61 74 84 85 84 88 95 96 86 72 
60 45 29 17 15 27 47 59 64 78 101 109 90 65 53 52 63 90 126 160 191 213 215 
199 175 145 103 54 18 3 6 17 32 45 51 54 63 75 76 68 62 58 56 62 72 73 68 65 
65 62 60 61 66 71 73 69 63 64 70 77 81 78 70 66 70 77 80 73 73 69 75 73 66 66 
70 72 72 76 79 75 68 65 64 63 61 60 60 63 68 69 62 57 61 65 60 53 50 53 57 59 
58 54 54 61 68 73 79 92 103 100 85 69 58 47 34 23 19 27 46 62 72 87 106 110 
92 69 57 57 72 103 138 165 188 208 213 200 177 147 106 57 19 1 3 16 32 43 49 
51 54 61 63 61 60 56 52 57 70 75 71 67 65 63 61 63 69 74 77 74 69 66 71 82 86 
76 64 62 68 72 73 74 74 65 72 71 66 67 72 74 74 79 83 80 73 66 60 58 60 64 64 
65 68 69 63 61 67 71 64 53 50 53 57 60 63 61 56 57 64 73 84 96 104 102 87 70 
59 51 42 32 26 29 45 66 83 100 115 118 104 87 77 78 93 125 159 183 203 220 226 
215 193 163 119 68 27 7 7 16 25 33 38 40 41 46 52 56 58 54 48 53 63 68 66 66 
66 64 61 62 68 74 78 78 72 65 67 79 82 69 59 60 64 64 67 78 79 69 73 71 67 70 
75 76 73 73 76 77 74 68 62 60 63 68 68 65 66 70 71 71 74 74 65 55 52 56 59 59 
61 61 56 56 65 77 84 88 93 98 90 75 65 62 56 47 41 43 58 79 99 118 134 140 131 
116 107 108 122 150 182 206 226 243 246 234 212 180 133 79 37 18 16 19 21 25 
30 34 38 44 52 57 56 49 46 52 59 61 62 66 69 65 58 56 60 68 77 82 77 66 64 72 
72 63 57 60 63 62 67 79 80 72 73 68 66 71 76 73 67 64 66 69 69 68 66 64 64 67 
67 63 63 70 76 75 73 71 65 56 52 56 59 54 50 48 45 46 57 70 74 73 80 94 94 81 
75 78 75 66 59 64 79 100 121 142 163 173 166 152 143 144 157 182 209 231 250 
255 255 248 222 188 138 83 42 24 23 25 27 32 38 43 48 56 64 63 54 44 44 54 62 
64 63 65 65 61 57 56 58 64 75 83 82 73 69 70 68 62 60 64 66 67 71 76 77 71 70 
66 68 74 77 71 64 62 64 65 65 68 71 68 64 65 67 63 61 67 71 67 63 66 65 56 49 
51 53 47 40 36 33 35 45 58 64 65 77 95 99 89 87 93 93 81 73 79 96 120 147 175 
199 210 204 192 185 188 201 220 240 255 255 255 255 253 226 190 141 86 45 29 
29 33 38 44 51 55 57 63 70 66 53 44 48 57 65 70 70 64 55 52 57 64 67 69 73 78 
79 78 77 75 72 67 65 68 72 73 74 72 72 69 70 69 73 80 83 78 71 68 69 68 67 71 
76 73 67 67 68 62 57 61 63 58 55 61 65 57 48 46 48 45 40 35 31 30 38 49 57 63 
79 98 106 100 98 106 107 97 89 94 111 139 177 214 238 246 242 234 230 232 239 
251 255 255 255 255 255 250 225 190 141 89 50 34 34 38 41 47 54 55 54 58 63 61 
52 50 56 59 62 69 73 62 49 48 61 75 79 76 72 69 69 73 77 78 75 72 71 72 75 75 
73 70 71 71 73 72 73 79 85 83 76 71 72 72 70 71 76 75 71 70 66 57 52 56 61 58 
55 57 60 55 48 46 50 52 49 41 32 29 34 42 48 56 71 91 103 105 107 116 122 118 
114 118 132 160 201 242 255 255 255 255 255 255 255 255 255 255 255 255 252 
238 216 180 133 85 51 37 37 39 37 39 45 47 47 49 53 50 48 56 64 59 53 59 66 62 
54 58 71 80 80 77 72 65 62 67 71 72 73 75 76 75 74 73 71 73 73 73 73 70 66 68 
76 78 71 67 70 70 65 61 65 72 74 72 65 55 50 54 61 62 60 58 56 51 47 47 54 59 
55 43 31 27 29 33 37 43 56 74 91 103 112 125 134 136 135 139 150 175 212 248 
255 255 255 255 255 255 255 248 237 234 238 242 236 222 198 161 116 76 47 34 
35 38 36 37 41 44 45 48 49 44 45 58 67 60 48 48 57 63 67 75 83 81 74 70 71 69 
67 68 67 66 68 74 78 76 72 70 71 77 78 73 69 66 62 62 67 69 66 64 67 66 56 49 
54 66 74 73 67 59 56 56 58 63 67 68 63 55 48 48 54 57 50 37 27 23 23 25 29 36 
47 60 77 96 113 127 136 139 140 145 158 182 211 238 255 255 255 255 255 255 
249 234 217 212 218 220 211 193 168 131 93 65 44 33 34 41 45 48 52 52 52 55 54 
49 50 61 69 66 55 50 55 65 75 85 90 82 69 63 67 73 76 76 72 68 67 72 75 74 71 
70 73 76 76 72 63 62 66 69 69 69 67 68 70 65 56 50 55 64 70 70 66 64 63 59 56 
61 74 83 80 67 55 50 50 47 39 30 25 23 21 23 30 40 50 59 72 89 109 124 132 135 
138 146 163 186 208 224 239 255 255 252 236 230 225 211 193 184 185 180 166 
147 123 92 63 48 41 35 38 47 56 61 65 64 63 65 65 63 63 69 72 73 68 62 61 65 
72 79 84 81 69 61 64 73 81 85 82 74 68 68 71 73 72 71 73 70 70 69 58 61 72 78 
77 73 71 71 72 69 64 62 62 62 60 59 60 61 62 59 54 58 73 86 85 71 58 52 47 39 
32 29 30 31 32 36 46 57 66 71 77 88 103 117 127 134 140 152 170 191 205 210 
217 228 231 217 200 191 187 173 154 141 136 127 111 96 79 54 34 30 34 39 45 52 
57 61 67 71 72 73 72 71 72 74 74 76 77 72 65 62 62 63 69 73 68 60 60 69 81 89 
88 77 66 63 69 74 74 72 71 70 70 70 62 66 77 82 80 74 68 66 67 70 70 69 66 60 
53 52 54 57 58 56 54 56 66 74 71 62 54 50 44 37 32 34 41 50 61 71 81 89 93 92 
90 92 98 105 115 127 141 156 173 189 198 198 199 203 200 184 165 153 143 126 
105 91 85 79 68 60 51 33 19 20 31 41 49 52 51 54 64 75 79 75 69 68 73 76 75 76 
77 73 65 60 56 54 57 62 62 58 58 67 79 89 88 76 62 59 70 77 75 70 69 74 75 73 
72 75 80 80 78 74 65 58 58 64 70 72 71 66 58 55 57 59 58 58 60 61 62 61 57 55 
54 50 43 37 36 41 55 76 97 114 123 128 125 116 106 100 96 93 97 113 136 157 
172 183 189 191 193 192 183 165 145 126 107 85 63 50 47 45 41 38 34 25 19 25 
36 43 47 50 47 50 63 79 84 74 64 65 75 79 75 73 73 68 63 61 60 58 56 58 59 59 
61 69 78 86 86 74 61 62 74 79 72 66 70 76 76 72 74 76 77 74 74 75 69 58 55 62 
70 73 76 78 72 65 63 63 62 65 71 72 67 60 58 61 62 54 43 37 40 50 70 99 127 
148 160 164 157 142 127 115 101 87 84 101 131 157 173 179 183 190 197 198 187 
169 146 118 88 63 44 33 28 25 23 21 19 17 23 37 44 43 44 49 49 50 61 79 85 75 
64 67 77 78 69 65 66 66 63 65 67 64 60 60 62 66 71 76 80 82 80 72 64 69 80 79 
67 62 70 71 71 68 67 70 72 69 69 74 74 65 61 67 72 70 72 79 79 71 66 65 64 69 
78 81 74 67 67 73 71 57 41 37 45 62 89 122 153 179 197 202 194 176 157 138 114 
90 81 96 124 153 171 177 182 193 206 209 202 188 164 127 88 62 50 41 28 18 15 
13 9 10 25 42 45 39 41 50 52 48 53 67 76 73 67 70 73 66 55 54 61 65 67 68 68 
66 62 61 64 72 80 83 80 76 73 68 67 75 82 77 66 65 70 69 68 70 66 71 75 71 65 
67 71 70 70 75 74 63 59 69 76 73 68 66 62 65 75 82 79 74 75 78 70 52 38 36 46 
72 111 151 186 217 240 245 232 211 191 167 131 96 82 92 113 137 158 174 187 
202 214 219 216 206 181 142 104 82 73 61 41 26 22 20 13 14 29 42 40 35 42 54 
55 46 41 49 62 69 71 70 65 53 46 50 59 66 68 66 66 66 64 62 64 74 83 84 77 69 
66 65 67 72 75 71 67 71 75 74 73 74 72 77 83 77 66 64 70 76 80 82 73 59 56 66 
73 72 69 65 58 58 68 78 82 81 80 75 62 46 36 34 44 73 122 173 215 253 255 255 
255 236 217 189 146 103 86 92 105 122 147 176 199 216 226 228 225 217 196 162 
130 111 97 79 58 45 40 36 28 27 38 44 40 40 51 61 58 46 37 40 54 67 73 72 63 
53 52 57 64 68 67 64 65 69 69 66 68 79 86 82 70 63 63 66 67 68 67 66 68 76 80 
80 80 74 74 77 79 75 68 68 77 86 87 82 71 63 66 74 75 70 66 60 50 50 61 75 82 
82 79 71 58 45 37 34 40 68 120 177 226 255 255 255 255 250 226 194 150 109 93 
99 109 122 148 182 210 227 237 240 237 230 212 183 156 136 116 94 75 64 56 46 
39 40 49 51 48 50 60 64 59 49 44 46 55 66 75 77 70 62 63 68 72 72 68 63 66 73 
74 70 74 86 90 81 67 61 65 69 70 69 67 67 70 76 80 79 80 70 69 68 70 70 70 74 
84 88 82 72 65 66 73 78 74 67 62 54 45 47 61 72 73 71 70 68 59 47 39 35 41 67 
114 168 218 255 255 255 255 254 222 184 142 108 96 102 114 127 150 179 204 222 
237 246 248 244 228 200 174 153 131 106 88 75 60 48 45 50 57 57 53 54 59 61 57 
52 52 56 60 64 71 77 73 66 68 73 74 72 67 63 67 74 76 74 79 90 92 81 69 67 70 
73 72 72 72 71 70 71 74 73 74 70 66 64 68 74 75 77 80 78 70 64 63 64 68 70 67 
64 61 53 46 51 66 71 63 56 59 63 60 50 40 38 47 72 109 154 204 248 255 255 255 
246 212 169 129 100 86 89 102 121 142 165 185 204 222 237 247 251 239 211 183 
162 139 112 90 74 60 51 52 60 64 62 55 51 53 58 58 53 52 57 59 59 64 70 69 65 
67 71 70 67 65 62 64 71 76 77 82 89 89 79 72 73 75 72 69 71 73 72 68 65 66 69 
69 73 68 66 71 76 76 72 71 68 67 69 69 65 61 61 62 62 62 57 50 56 70 73 63 53 
54 59 59 54 47 45 54 74 100 136 183 227 249 248 239 225 198 157 117 86 66 64 
79 103 127 149 167 184 201 219 236 247 239 212 184 162 137 106 82 69 62 59 62 
67 69 68 61 51 50 59 63 55 49 52 56 56 58 63 64 62 66 71 68 64 63 62 62 67 75 
81 84 86 81 71 68 72 75 71 65 66 71 71 67 64 65 71 71 70 69 68 69 69 66 63 63 
64 67 73 73 65 59 61 64 64 63 58 53 57 68 73 67 60 59 60 60 59 58 57 59 67 82 
111 152 191 206 202 196 193 176 140 101 69 47 42 57 84 112 135 151 165 179 197 
216 227 219 195 171 150 125 94 74 67 67 67 68 68 67 67 63 53 49 58 66 61 53 54 
57 56 57 61 60 61 67 73 71 68 67 66 64 67 76 84 85 81 72 63 61 68 72 69 64 64 
69 71 69 67 69 72 73 62 67 70 69 63 59 61 64 64 63 66 66 61 61 67 72 69 63 59 
56 57 62 66 64 63 64 66 65 65 65 63 57 54 61 84 117 146 157 153 149 150 140 
113 80 54 37 32 43 67 93 114 129 142 155 170 183 187 178 159 142 129 109 84 69 
67 69 71 72 70 65 64 61 53 47 53 62 65 63 64 63 61 63 65 62 60 65 72 74 74 73 
71 67 69 77 85 85 78 68 62 62 65 68 68 67 67 69 70 70 69 70 69 69 59 65 73 73 
68 65 69 73 67 58 56 58 58 63 72 77 72 64 61 61 61 60 57 55 58 65 70 71 68 64 
60 51 41 44 61 84 103 111 108 103 100 93 77 57 44 36 31 33 50 72 91 106 120 
132 140 144 142 133 119 109 102 90 73 61 60 62 67 75 77 73 66 61 54 48 50 58 
65 69 71 69 69 74 77 71 63 63 69 74 77 77 73 68 70 77 83 82 75 68 67 66 64 63 
66 71 73 72 71 70 69 67 66 66 67 69 74 78 77 76 79 78 68 57 54 58 60 63 69 73 
71 66 65 65 65 61 57 54 57 64 70 72 68 62 55 46 36 35 44 57 68 75 73 64 56 51 
44 36 34 35 31 27 37 57 76 92 105 113 115 114 111 103 91 83 79 72 59 49 47 50 
58 69 77 75 69 62 57 54 55 59 64 68 72 74 77 85 89 83 73 69 69 71 74 74 70 68 
71 76 78 75 69 67 70 70 64 60 66 75 79 76 72 70 69 67 69 69 80 76 75 78 80 80 
80 76 65 57 58 63 64 63 65 68 70 71 69 66 63 63 64 65 65 65 65 67 66 61 55 49 
42 38 38 42 49 56 54 42 31 26 26 25 29 35 32 27 34 54 74 86 92 95 94 96 98 92 
79 70 66 61 52 44 44 48 52 57 62 65 63 61 60 60 62 64 67 70 74 79 86 91 92 87 
81 77 73 69 67 66 66 68 72 74 72 66 63 66 73 74 66 62 67 76 79 77 71 66 65 67 
75 75 84 79 74 75 76 77 77 74 66 60 61 66 67 67 69 72 77 79 75 66 61 63 70 75 
74 66 60 60 63 60 56 54 52 45 38 36 42 49 48 37 25 20 24 29 35 41 39 33 39 59 
77 81 77 75 76 84 93 91 79 68 64 61 57 53 53 55 54 50 50 54 57 58 60 64 67 69 
71 74 77 83 89 91 86 79 78 80 77 70 64 62 65 70 74 73 68 64 64 70 77 77 71 67 
69 73 75 74 69 62 60 67 80 82 76 74 73 75 76 76 78 79 74 67 66 68 70 72 75 79 
84 85 79 69 64 66 72 76 75 66 58 57 60 60 57 57 55 47 35 30 35 42 44 37 27 23 
28 37 45 50 49 44 48 64 76 73 64 60 65 77 89 92 83 72 65 64 64 63 61 58 54 49 
48 52 55 57 61 68 70 69 69 71 72 76 82 84 76 67 68 75 77 74 69 66 69 73 75 73 
71 71 72 76 79 77 73 72 73 72 71 73 71 64 63 70 84 85 69 69 73 79 81 80 80 81 
78 70 68 70 73 73 75 78 80 79 75 71 70 70 71 73 74 67 56 53 58 64 64 61 56 47 
35 30 32 37 40 39 33 28 32 41 48 53 55 54 57 67 72 67 59 58 63 71 81 86 83 74 
65 63 66 66 60 54 50 48 49 52 53 54 61 72 75 70 66 66 66 65 69 72 67 60 60 67 
73 75 73 70 72 76 75 74 76 78 77 76 75 73 72 75 76 72 71 74 75 72 72 77 81 81 
73 71 73 79 84 82 77 72 67 63 65 72 77 75 69 67 66 65 66 69 72 70 68 72 77 72 
59 52 56 66 70 65 59 52 46 42 42 44 46 48 43 36 36 40 44 46 52 58 65 70 69 62 
59 62 65 65 66 71 75 71 63 61 64 66 62 54 49 48 49 49 49 52 63 76 80 71 65 68 
70 68 65 64 63 59 59 62 67 72 72 69 70 74 75 75 77 75 70 67 69 69 69 72 74 72 
71 73 75 76 76 78 70 71 78 77 74 76 81 80 70 59 52 53 61 73 80 75 63 56 54 55 
59 67 71 66 64 72 82 81 68 56 56 63 66 62 59 60 60 59 59 60 62 61 53 44 41 44 
45 45 49 57 65 69 67 60 58 62 62 58 56 61 68 71 66 62 62 66 65 59 54 53 53 52 
54 60 70 81 81 70 63 69 80 80 71 63 59 57 58 61 66 71 74 71 69 72 75 76 74 67 
60 60 64 63 61 64 70 70 69 70 72 74 73 71 59 59 74 75 73 74 80 80 69 54 47 50 
60 69 73 68 59 55 54 55 60 67 70 66 64 70 80 83 74 62 57 58 58 59 62 66 65 64 
65 69 72 67 55 45 45 52 57 57 56 57 60 64 63 59 56 57 59 59 60 62 68 74 73 67 
63 63 62 55 52 56 60 62 67 73 78 82 80 67 58 63 76 80 73 62 55 53 55 60 66 73 
80 78 72 71 75 78 75 66 59 61 64 61 56 60 68 71 69 68 71 73 71 64 57 56 67 69 
72 77 82 79 69 57 50 52 58 62 61 60 60 62 63 60 58 62 66 67 65 67 73 75 69 61 
56 55 60 67 70 67 62 61 66 71 72 65 52 45 49 60 69 71 67 61 58 59 59 58 57 58 
61 65 67 67 68 72 77 74 67 63 58 49 48 56 64 69 75 77 76 76 77 71 60 58 64 69 
68 62 55 51 53 57 62 69 78 79 72 69 73 77 74 66 62 65 68 65 62 65 73 75 72 70 
71 73 72 65 64 63 69 68 74 80 79 73 67 61 55 54 57 58 56 58 63 70 70 63 55 52 
57 62 64 65 66 66 60 54 52 57 68 78 75 63 57 62 68 70 68 63 55 50 54 64 73 77 
75 68 59 53 52 56 62 65 66 67 67 65 62 65 73 76 70 64 57 50 49 55 63 68 71 68 
63 66 76 80 75 67 63 64 67 67 61 55 54 55 57 59 66 71 71 70 72 73 70 63 61 64 
68 70 70 73 76 77 75 71 70 71 74 71 70 70 78 74 76 78 73 65 64 64 61 58 61 62 
61 61 65 70 72 66 55 49 51 58 63 66 68 65 57 51 51 57 69 77 71 59 57 63 67 66 
68 68 63 56 57 64 72 77 78 73 62 50 46 53 64 68 64 60 57 57 57 60 70 74 67 58 
53 50 49 53 58 63 65 59 53 62 78 88 88 81 73 68 68 70 66 59 55 56 58 56 57 64 
71 73 71 69 66 63 62 64 66 69 73 75 74 72 73 72 70 69 72 74 71 70 85 80 77 76 
69 62 62 66 65 64 67 69 68 65 63 66 70 69 61 53 52 58 66 73 77 72 62 54 53 56 
61 66 65 61 62 64 62 61 69 74 68 58 55 61 68 74 77 76 67 55 48 52 61 66 62 54 
51 54 58 62 69 72 63 52 48 47 46 48 53 59 61 54 53 68 85 89 84 81 75 68 65 65 
63 57 54 59 64 63 60 64 71 72 69 67 65 65 66 66 65 68 73 75 71 67 69 74 73 71 
72 73 69 68 87 82 78 75 69 63 63 64 64 65 69 72 73 70 63 62 68 70 66 59 58 62 
70 80 85 79 67 60 59 58 56 55 59 66 70 66 58 57 68 74 68 57 53 57 63 67 70 72 
70 64 58 56 60 65 64 59 56 58 60 61 66 68 63 57 53 51 50 52 57 61 60 54 56 73 
88 83 71 68 69 67 62 60 58 53 52 59 67 69 67 68 70 69 67 67 65 62 61 64 66 71 
77 80 74 66 68 74 76 74 74 73 69 68 83 81 76 70 67 69 69 66 63 64 68 72 74 73 
67 63 66 70 69 67 66 68 75 82 84 78 67 62 65 65 57 50 54 66 74 69 58 56 64 69 
66 59 57 59 62 61 60 63 67 67 64 61 63 68 71 69 66 63 60 57 57 59 60 61 60 59 
61 65 69 70 68 62 62 74 85 79 66 64 70 72 68 61 56 52 51 57 64 70 72 73 71 67 
66 68 65 56 51 56 65 74 80 81 74 67 67 73 76 74 75 74 69 68 74 76 71 65 67 77 
81 75 70 72 74 71 69 73 72 69 67 69 71 74 76 77 77 77 75 69 63 62 68 70 62 52 
51 61 71 69 62 60 63 66 68 69 68 67 67 62 56 58 63 65 63 64 67 71 74 75 73 68 
62 56 52 50 50 52 54 58 65 71 73 74 76 76 72 73 78 76 72 74 80 80 74 65 59 56 
56 59 65 71 75 77 74 69 66 69 68 59 50 51 61 71 75 73 69 65 66 72 74 72 72 72 
67 67 64 72 71 67 71 81 86 80 78 84 83 72 64 68 76 77 73 69 71 77 80 79 76 72 
68 64 62 65 70 72 67 59 55 59 66 69 68 66 64 65 70 75 72 70 71 66 58 58 65 67 
66 69 72 74 75 76 74 70 66 63 58 51 44 43 46 53 61 65 62 63 73 80 79 73 71 73 
78 83 83 79 71 67 67 67 65 65 70 75 77 79 79 74 69 70 73 69 61 55 59 66 68 67 
65 65 68 72 73 71 68 68 65 66 63 73 76 74 73 76 76 74 79 88 87 73 62 65 75 82 
78 71 70 74 77 75 73 71 70 69 67 69 71 71 67 64 63 64 68 73 75 72 63 60 65 68 
63 60 63 62 57 59 68 73 74 76 77 75 74 74 72 67 65 66 65 58 50 48 51 57 62 60 
54 54 65 74 76 69 65 68 76 80 76 69 65 69 76 77 71 68 71 76 76 78 81 81 75 73 
76 77 70 62 61 67 69 67 67 68 71 75 74 71 67 65 67 68 69 77 80 76 69 66 65 68 
76 85 85 76 69 66 70 75 76 71 68 70 71 70 71 74 76 72 68 67 67 64 61 64 69 72 
74 78 78 71 60 54 57 58 52 49 54 56 54 57 67 74 76 77 75 73 72 72 69 63 60 61 
62 61 59 59 62 65 65 62 58 60 66 69 67 64 61 64 72 74 69 63 62 70 80 82 75 69 
70 71 71 74 81 84 81 77 77 76 71 65 66 71 74 72 70 72 77 80 78 73 68 66 71 71 
74 79 77 71 64 63 65 69 76 79 78 77 76 71 65 64 67 66 64 65 66 67 70 74 73 66 
58 58 61 60 58 63 72 77 79 78 74 66 57 54 56 56 52 50 54 58 57 57 62 68 70 69 
68 68 70 70 67 62 59 57 58 62 67 70 69 66 63 61 64 70 71 65 59 59 60 63 68 72 
70 67 65 69 74 78 77 73 69 66 67 72 78 81 80 77 74 71 68 67 70 74 76 76 74 75 
81 87 83 75 71 70 72 72 71 75 73 67 66 68 70 72 74 73 69 70 74 70 62 60 62 62 
58 58 61 67 71 72 68 58 51 52 61 67 67 68 73 78 79 75 67 58 55 57 59 60 60 59 
61 64 62 58 59 64 66 63 62 66 70 69 66 64 62 60 61 67 74 76 73 65 59 58 63 70 
67 58 53 57 60 60 62 68 74 75 71 66 64 67 73 75 70 65 69 76 79 77 75 73 70 68 
69 71 72 72 73 76 78 77 81 86 83 76 75 75 71 70 66 70 71 72 74 75 71 69 70 70 
67 66 67 66 62 62 66 64 57 54 59 67 72 72 69 62 57 58 67 76 76 73 71 73 76 74 
64 53 52 56 59 62 65 64 62 64 65 62 62 67 70 67 65 68 71 67 64 65 65 65 67 72 
75 74 70 65 61 61 64 65 60 53 52 57 58 55 56 65 76 80 75 66 60 60 66 70 70 72 
77 81 79 75 72 71 69 69 71 72 70 66 67 73 77 74 71 74 74 75 79 79 71 69 66 70 
73 78 83 82 72 66 70 76 76 73 72 69 64 65 69 68 64 62 65 69 72 72 72 71 68 66 
70 76 77 70 65 66 72 73 65 55 53 55 56 60 64 62 58 61 66 67 70 75 76 72 70 71 
69 63 62 64 65 64 67 70 68 65 65 67 67 66 65 62 56 52 52 55 56 55 57 67 78 80 
74 69 65 61 61 65 72 78 82 80 75 72 72 72 71 71 71 70 67 65 65 70 73 68 61 60 
64 71 80 81 69 68 69 71 74 80 87 84 74 69 74 81 83 82 81 75 66 62 65 69 72 74 
75 72 69 68 69 72 70 67 66 70 72 68 64 64 67 69 67 62 59 58 57 59 61 59 58 60 
64 68 73 77 75 71 71 71 67 62 62 66 66 62 63 66 64 62 67 75 77 72 66 61 57 54 
52 54 58 63 67 73 77 71 65 67 70 66 61 63 70 76 77 72 68 69 72 72 73 73 70 68 
70 72 72 71 72 69 60 55 57 65 73 75 65 65 71 73 74 78 83 81 75 73 77 80 77 76 
77 71 61 58 63 70 76 78 75 68 64 65 68 69 68 64 62 64 70 73 71 66 62 64 67 67 
66 65 62 60 59 60 62 62 61 64 70 73 69 66 69 72 70 65 64 69 70 66 65 70 72 71 
76 85 85 78 71 67 64 60 56 57 65 73 76 76 70 59 54 60 67 65 63 65 68 70 70 68 
67 71 74 72 74 77 72 68 73 79 77 72 74 75 67 59 58 62 65 66 63 63 73 73 72 74 
77 76 72 75 81 80 70 63 63 61 56 59 67 73 74 71 64 58 61 69 74 73 71 67 64 66 
74 80 78 69 62 62 66 67 67 70 69 65 61 62 67 67 63 64 70 71 65 60 64 73 74 67 
62 66 73 74 75 80 82 78 78 84 85 82 79 79 77 71 65 66 72 77 76 72 63 53 51 57 
62 62 65 70 70 70 71 70 71 76 77 74 77 82 77 69 70 73 70 67 73 78 73 65 64 67 
65 62 66 66 75 72 69 70 74 75 74 79 86 84 70 58 57 58 60 66 72 74 73 67 57 52 
60 74 81 78 75 73 71 72 77 81 79 71 64 63 64 62 63 70 74 70 63 63 69 74 73 72 
75 75 65 56 57 68 73 64 54 57 69 77 80 84 81 74 72 76 78 77 79 82 82 77 72 71 
73 73 70 67 63 58 57 60 60 60 66 73 74 74 75 73 72 75 76 75 82 89 84 73 67 64 
61 62 70 76 73 68 70 76 75 69 73 72 74 71 68 70 76 80 80 81 84 80 68 59 59 63 
67 69 69 69 71 70 61 53 58 71 77 75 73 75 75 74 75 76 73 68 64 62 60 58 60 68 
75 72 64 63 70 79 82 80 79 76 67 55 53 62 69 63 52 52 62 71 74 75 73 69 70 73 
72 69 71 75 77 75 72 71 71 68 65 66 67 63 60 60 62 65 69 72 72 73 75 73 70 70 
72 75 84 92 88 76 66 63 62 65 71 74 71 69 74 81 83 78 78 78 69 70 70 72 78 81 
79 75 71 66 62 61 63 65 67 66 63 62 68 73 69 61 60 68 72 70 71 75 75 72 71 70 
66 63 60 57 55 56 60 67 71 69 64 63 70 79 81 77 74 73 69 61 57 61 67 66 58 55 
59 63 63 65 69 72 75 76 71 64 65 72 75 73 71 70 70 68 66 68 70 65 58 57 66 75 
78 75 71 71 73 73 72 72 73 77 85 90 85 73 64 65 70 74 75 75 73 72 75 80 82 80 
79 79 65 70 72 71 72 75 74 70 64 61 63 66 66 66 67 67 63 61 65 72 74 72 69 71 
74 74 76 78 74 69 68 67 63 59 56 52 51 57 63 67 69 68 67 67 70 76 76 71 68 68 
68 66 63 62 65 67 64 60 60 60 59 64 74 79 80 77 70 64 67 75 78 74 69 69 70 69 
66 66 69 67 59 57 69 84 89 83 75 71 72 75 77 79 81 82 85 86 80 67 61 65 73 76 
76 77 78 76 75 76 76 76 77 78 65 70 71 67 66 69 72 72 70 69 72 75 72 71 74 75 
71 65 64 69 75 76 72 71 73 75 77 78 72 66 66 66 62 58 56 54 55 61 67 69 71 75 
76 74 73 76 76 72 68 67 65 65 63 61 63 68 68 63 61 61 61 66 75 80 80 77 70 65 
69 76 77 72 68 69 71 69 64 61 65 69 66 64 71 84 89 83 75 69 68 73 80 85 87 84 
82 81 77 68 63 67 72 72 72 77 81 78 76 74 72 72 77 77 68 70 68 64 64 69 73 74 
73 73 75 76 74 76 80 82 75 65 60 65 72 72 66 62 62 64 68 70 67 63 63 63 61 59 
59 61 64 69 71 71 75 83 84 79 76 79 78 74 71 67 63 60 60 60 65 74 76 70 63 61 
62 64 67 69 71 74 72 68 67 70 69 67 69 72 72 68 63 60 63 70 72 71 72 76 78 75 
70 65 64 69 77 84 84 80 76 76 76 73 71 75 78 74 72 76 79 76 75 75 74 74 81 81 
68 67 64 63 65 69 71 71 70 71 72 72 71 74 79 80 73 63 59 64 71 69 61 56 56 58 
62 67 67 63 60 60 61 61 62 63 66 70 70 68 71 77 77 74 75 79 76 69 66 65 62 60 
61 63 70 81 84 76 67 62 61 61 61 59 61 68 72 69 66 65 65 67 71 73 69 67 68 68 
68 71 74 73 72 70 71 73 74 71 68 70 74 76 75 72 70 73 74 75 77 83 86 82 75 73 
73 73 73 74 75 77 81 82 66 63 61 63 67 68 68 68 70 73 73 71 70 72 75 75 72 68 
68 72 75 72 66 63 63 64 68 75 76 69 61 60 63 67 65 61 59 62 63 62 63 66 66 66 
71 75 70 60 58 63 65 64 65 68 73 81 82 76 69 66 66 68 67 63 61 66 71 70 67 67 
69 73 76 72 65 65 72 76 74 71 71 72 70 69 72 80 85 84 79 75 74 71 68 68 70 73 
72 71 75 83 88 85 76 71 71 72 73 72 71 75 73 73 68 67 68 67 65 67 72 73 71 76 
82 84 83 81 77 73 70 67 70 81 89 86 77 70 70 75 77 72 65 65 71 74 73 71 70 71 
73 75 71 67 67 68 68 71 76 76 74 71 66 62 66 74 78 79 81 82 80 75 72 70 69 67 
67 71 76 74 67 64 70 74 72 66 65 68 69 67 67 72 80 85 84 81 80 81 78 76 79 80 
73 64 64 71 77 76 72 73 77 78 75 73 70 68 71 74 72 70 71 74 76 76 74 73 68 67 
68 67 65 67 72 73 71 76 82 84 83 81 77 73 70 67 70 81 89 86 77 70 70 75 77 72 
65 66 72 75 73 71 70 71 73 75 71 67 67 69 69 71 76 76 74 71 66 62 66 74 78 79 
81 82 80 75 72 70 69 67 67 71 76 74 67 64 70 74 72 66 65 67 69 67 67 72 80 85 
84 81 80 81 79 76 79 80 73 64 64 71 77 76 72 73 77 78 75 73 70 68 71 74 72 69 
70 73 75 76 
