P2
112 112
255
79 74 74 78 80 74 67 67 72 97 89 85 66 73 83 89 90 89 85 82 80 78 83 93 99 93 
83 83 86 87 88 90 91 88 81 76 75 79 83 81 76 70 69 74 84 92 91 83 78 79 79 79 
75 70 69 74 80 83 85 84 84 86 85 83 84 88 90 77 84 85 88 96 100 93 85 88 94 88 
77 77 91 94 85 82 91 96 85 73 80 98 103 101 98 90 83 86 91 91 85 86 93 95 86 
73 67 70 77 83 86 92 95 89 83 74 74 82 84 81 74 71 71 96 86 82 71 81 88 86 81 
78 81 82 77 71 77 95 105 99 91 91 93 90 88 89 88 83 77 74 74 78 82 81 78 74 73 
76 81 84 81 77 78 79 73 68 69 72 74 77 84 89 90 87 84 85 88 87 85 87 93 93 89 
86 88 91 89 90 81 86 94 88 76 77 87 86 75 71 82 91 86 81 90 106 111 109 106 
98 89 88 91 87 81 83 90 91 81 71 66 71 84 89 87 85 89 90 86 75 73 90 89 88 86 
83 81 94 84 80 80 91 96 86 76 74 81 83 73 63 70 90 100 96 97 103 103 94 90 92 
91 85 83 85 82 82 85 83 82 83 83 81 81 80 75 74 82 82 71 66 73 81 84 87 90 91 
88 84 83 87 91 91 87 88 93 93 89 88 91 90 84 76 67 66 73 79 81 85 92 85 74 75 
87 96 92 85 88 94 98 100 98 91 83 84 89 84 78 80 85 86 81 75 72 77 87 90 84 79 
86 92 85 74 73 89 88 88 89 92 94 98 93 86 84 95 95 82 69 71 81 83 70 58 65 82 
90 89 96 108 108 96 92 97 96 89 87 91 89 85 86 87 87 90 92 89 87 82 77 79 86 
85 75 73 81 87 88 91 91 83 76 74 78 83 86 84 81 84 90 91 89 90 91 87 80 71 60 
58 69 82 85 87 91 96 93 83 98 100 92 84 84 85 84 88 90 82 76 83 92 87 78 79 82 
84 86 88 87 88 88 84 77 76 86 92 82 74 74 86 83 80 81 88 96 103 104 91 88 93 
87 72 62 68 80 82 72 62 67 80 86 87 96 109 109 98 96 102 99 87 82 86 87 84 86 
90 90 89 90 90 90 90 88 88 90 87 80 79 84 87 87 90 86 71 60 62 68 72 74 72 70 
74 83 90 91 90 86 80 75 69 61 58 69 83 88 88 94 100 96 87 86 92 93 86 83 90 83 
87 91 83 76 86 98 90 76 74 81 85 87 89 91 89 86 81 80 85 92 93 81 74 74 92 86 
77 76 83 94 96 99 88 92 92 81 67 64 72 81 83 78 72 73 80 84 88 99 109 106 97 
99 107 103 87 80 82 83 84 88 90 86 81 79 83 89 95 96 93 90 85 78 76 80 83 87 
90 84 66 52 54 62 68 70 68 65 67 78 88 89 84 76 71 70 73 71 68 73 81 80 80 89 
95 88 80 85 94 90 79 75 87 94 90 86 93 102 90 101 92 77 74 83 87 81 75 77 80 
83 84 89 97 99 94 80 74 73 95 92 84 83 90 83 84 85 90 93 89 79 71 74 77 81 88 
91 84 76 77 81 87 96 103 100 93 96 106 105 93 85 84 84 86 88 85 78 72 70 73 82 
91 93 90 84 78 72 71 75 80 85 88 80 64 55 57 65 72 76 76 73 73 78 82 82 77 72 
69 71 79 83 81 79 75 69 69 80 83 71 66 77 90 88 78 79 87 87 78 75 85 94 87 75 
74 85 91 87 90 80 68 66 75 82 86 89 92 94 90 83 78 77 84 83 86 91 96 81 83 85 
90 90 86 78 75 77 79 82 93 101 91 78 77 84 87 91 97 96 87 86 96 103 98 92 89 
88 88 87 80 74 71 67 66 72 81 86 83 78 73 70 71 75 79 82 80 72 64 61 63 71 80 
85 85 84 82 77 72 72 74 77 75 74 79 87 90 85 72 61 60 67 69 63 61 73 86 87 83 
87 91 84 73 72 84 92 85 79 88 104 107 102 97 87 78 79 85 88 85 84 81 82 84 92 
86 83 69 72 82 89 88 90 91 91 89 87 83 78 77 79 79 84 95 100 89 80 86 92 90 88 
90 89 82 78 85 95 98 95 94 93 94 91 80 73 74 71 66 70 79 83 81 76 72 72 74 77 
82 83 79 74 72 69 68 75 86 90 88 86 83 73 64 67 77 83 79 74 75 84 91 87 74 59 
52 55 61 64 66 74 84 85 83 88 93 87 81 84 94 97 91 85 91 102 108 108 105 96 87 
88 91 90 85 85 91 93 84 98 90 87 67 75 84 86 80 95 95 93 88 84 82 82 81 82 82 
86 93 94 84 82 90 93 87 83 82 81 79 80 85 90 92 91 91 94 95 90 78 70 73 76 75 
78 82 83 81 76 72 73 75 77 82 87 85 84 84 79 73 79 90 91 85 83 81 72 66 72 83 
86 80 72 71 78 85 83 72 60 52 53 60 68 73 79 86 87 85 87 90 89 89 96 100 96 89 
84 86 91 94 99 97 90 85 87 90 86 81 85 93 93 83 98 87 84 74 85 95 91 78 94 94 
93 89 83 84 87 87 87 86 87 90 90 85 84 87 86 82 80 80 80 82 88 92 90 84 79 78 
81 84 81 73 67 70 79 84 82 79 79 79 76 71 73 76 76 78 84 88 89 90 85 78 79 86 
85 78 78 81 79 77 81 87 86 81 74 68 70 74 73 70 64 60 61 67 71 73 79 89 95 93 
90 89 88 89 93 92 84 79 81 85 85 85 89 88 80 79 86 89 82 78 83 88 87 78 98 87 
84 79 90 99 91 89 93 94 90 88 88 93 94 95 97 93 87 85 86 86 87 86 82 81 84 87 
89 91 96 98 92 81 73 72 73 74 75 73 69 70 79 85 79 71 72 77 73 68 73 79 78 74 
77 81 83 84 85 78 68 68 70 69 75 84 85 83 84 86 86 85 80 69 64 70 75 75 75 74 
73 76 74 70 75 91 102 100 93 88 84 81 81 79 74 72 78 83 84 87 90 87 78 79 90 
92 82 78 82 84 84 79 101 96 95 82 90 94 84 88 93 92 78 88 99 109 106 105 110 
104 91 81 82 89 95 93 87 86 90 95 97 95 97 100 95 86 83 84 80 76 79 80 76 74 
78 81 75 68 72 75 69 65 73 84 84 77 75 77 77 79 80 72 59 53 58 69 81 87 84 78 
80 84 88 89 84 73 68 77 89 91 88 82 79 82 80 72 77 94 103 95 85 82 76 72 73 77 
76 73 74 79 84 92 98 92 82 85 97 94 80 74 79 84 86 88 102 104 105 86 91 92 80 
90 88 84 72 83 101 114 111 106 109 109 96 85 85 96 104 101 92 86 88 94 95 89 
90 98 98 93 94 98 90 81 81 82 78 76 78 80 76 73 77 76 67 65 76 89 87 80 79 82 
82 79 76 69 59 56 65 80 92 93 86 78 78 83 86 87 82 73 72 83 97 102 93 81 78 83 
85 80 83 95 97 87 78 77 74 69 72 80 81 75 70 75 84 95 99 92 84 91 101 93 77 73 
80 85 86 88 95 95 96 89 93 91 80 86 80 77 72 74 87 100 100 94 94 97 94 90 91 
98 101 95 87 83 84 89 88 80 83 95 99 93 94 99 95 83 79 80 77 75 80 83 80 79 81 
78 70 69 82 89 82 75 81 91 91 82 73 68 67 70 77 87 96 97 93 87 84 83 82 80 78 
75 75 80 88 93 87 77 74 80 85 85 86 92 94 88 83 84 81 74 72 79 81 74 70 76 88 
94 94 88 86 92 100 96 86 84 88 88 80 74 84 83 83 89 92 88 80 80 77 73 67 63 70 
80 85 82 79 80 86 89 88 90 88 83 81 83 89 90 84 76 79 92 98 94 94 97 96 90 85 
80 76 79 86 87 83 81 81 78 74 77 84 82 71 69 81 95 93 80 67 66 71 77 78 79 85 
91 93 92 89 85 80 79 81 84 83 79 78 81 82 79 75 77 80 82 83 87 91 93 96 96 90 
79 75 79 81 76 74 82 93 93 88 83 83 87 93 98 99 99 97 90 79 68 79 83 84 89 89 
86 79 80 80 72 66 61 62 71 80 81 76 76 82 84 81 81 83 84 83 88 94 93 85 78 79 
89 97 97 96 98 99 98 94 86 82 88 95 95 88 83 80 75 74 78 81 73 63 65 79 90 86 
72 61 62 74 79 74 69 72 79 82 84 84 81 80 81 85 91 91 84 79 83 90 89 81 76 77 
81 83 84 87 94 100 100 91 82 79 84 86 82 80 89 97 95 86 80 78 79 82 91 101 102 
97 90 83 78 86 91 92 90 87 84 82 84 85 79 81 77 69 70 80 83 79 79 84 84 79 82 
90 91 85 85 89 90 86 83 83 87 91 93 95 97 97 96 93 87 85 94 103 101 93 86 79 
70 67 73 76 68 58 62 76 84 77 63 55 61 76 85 82 75 74 74 72 70 74 78 80 77 76 
82 89 87 87 95 102 97 82 73 76 84 88 85 85 91 97 95 88 82 84 89 89 84 85 93 100 
97 87 79 75 74 76 84 93 94 89 88 90 90 93 95 95 91 86 82 87 86 88 95 105 100 
85 74 75 79 78 79 83 85 83 87 95 94 84 79 82 86 89 90 90 89 88 90 95 98 96 92 
86 79 80 90 99 98 94 88 78 66 63 70 73 64 56 60 74 80 72 60 54 61 76 88 90 86 
84 76 68 64 69 76 76 68 62 67 80 87 91 99 102 91 75 67 72 85 91 87 82 85 92 92 
86 83 87 90 87 83 86 94 99 98 90 82 78 79 84 88 90 87 85 88 92 91 95 94 94 94 
87 85 90 89 91 103 111 110 99 85 78 78 77 78 80 83 85 87 91 91 85 81 85 89 91 
91 93 93 92 94 100 104 101 94 83 73 73 80 87 89 91 87 76 66 68 74 72 62 56 61 
72 77 72 64 62 67 76 87 93 94 89 77 65 62 67 73 71 62 56 64 78 86 90 93 90 78 
66 63 70 82 89 85 79 80 87 90 88 85 86 87 84 83 88 91 92 93 90 82 80 87 97 100 
95 89 87 90 93 89 90 93 94 88 88 93 94 93 94 97 101 104 102 96 90 85 83 82 81 
83 86 86 87 87 86 87 94 96 90 87 92 101 104 101 101 104 104 97 85 74 71 74 75 
76 81 81 74 73 82 83 70 58 56 60 66 69 68 70 76 83 88 94 100 99 89 74 63 60 63 
65 62 58 60 72 85 91 87 82 75 67 62 63 69 77 82 80 76 78 84 90 89 82 79 82 84 
85 86 83 80 83 84 79 78 89 99 102 95 88 86 89 91 90 85 92 93 76 84 98 96 96 93 
90 90 92 95 99 97 91 89 88 86 86 87 88 88 85 83 88 97 98 88 83 91 103 108 101 
93 92 93 87 77 71 71 70 64 61 67 74 76 85 97 90 66 51 52 53 54 57 59 68 86 100 
106 108 110 106 91 72 61 56 54 50 48 52 62 78 92 94 85 76 68 62 62 66 69 71 74 
75 77 80 84 87 84 75 73 81 87 88 84 78 73 75 78 74 75 85 92 91 89 87 86 87 89 
89 88 88 88 71 74 92 90 92 91 90 88 87 88 91 91 88 87 87 87 89 92 94 91 86 83 
89 97 96 85 79 86 96 98 91 82 79 79 76 69 67 71 67 56 51 60 71 81 94 104 89 60 
46 49 50 47 49 54 66 87 105 111 115 116 111 97 76 60 51 43 36 35 45 61 79 89 
89 84 78 70 63 66 71 71 68 69 74 81 84 84 82 76 71 74 84 90 91 87 80 75 75 76 
73 74 80 80 79 83 90 94 93 90 87 90 82 80 74 68 86 83 85 95 95 93 89 85 85 86 
83 77 78 85 94 98 99 96 90 87 92 97 92 80 73 75 79 80 77 74 74 76 75 70 68 71 
68 58 54 65 77 84 92 98 85 62 50 53 55 52 53 62 77 94 108 113 118 124 124 113 
90 66 48 40 38 40 50 64 75 81 82 85 86 78 70 74 82 80 72 72 78 84 83 80 78 76 
77 82 88 92 93 90 84 79 79 78 75 76 78 75 74 83 96 102 100 95 89 85 79 77 72 
63 91 90 90 102 100 95 90 87 89 88 82 72 71 82 95 100 98 95 92 89 90 92 85 75 
69 67 67 65 66 69 74 78 77 72 70 71 67 61 63 75 84 82 83 87 80 65 60 62 61 58 
63 78 99 117 128 133 138 146 148 136 111 80 56 48 54 61 66 72 79 83 86 91 95 
88 79 83 90 87 78 76 80 81 78 78 81 86 89 89 86 87 89 88 83 80 81 80 80 84 88 
84 80 85 94 98 97 92 86 78 80 81 72 69 103 103 102 102 98 89 84 86 91 91 82 72 
68 75 85 89 89 91 92 89 85 82 78 71 68 65 61 57 59 63 68 71 70 67 65 65 60 57 
64 79 86 80 72 71 68 61 59 60 57 54 64 86 113 137 153 164 172 176 171 155 131 
98 71 61 67 75 76 78 87 95 101 104 103 97 91 93 91 83 74 74 77 78 80 84 90 95 
96 89 80 76 77 78 77 80 81 80 82 94 102 99 88 84 85 89 89 82 78 80 83 85 81 90 
104 104 99 94 92 81 77 81 86 86 79 71 67 68 70 73 79 89 95 91 85 78 73 69 67 
66 61 56 55 59 60 59 57 56 59 62 60 58 62 73 82 78 67 60 57 52 51 51 44 42 56 
80 108 136 161 182 196 198 184 165 142 112 84 68 66 68 67 70 84 98 104 105 103 
99 98 97 88 75 66 67 70 76 86 92 96 96 94 87 75 67 65 67 74 83 84 78 79 94 104 
99 88 82 84 88 89 84 77 87 85 87 95 109 93 94 89 91 88 79 74 78 83 82 76 71 69 
68 66 65 73 88 98 95 86 77 71 69 69 68 66 62 59 58 57 55 54 55 61 69 73 72 68 
68 72 76 74 69 63 58 55 50 41 37 51 75 99 128 159 187 208 212 197 173 151 123 
95 74 64 58 51 53 68 81 86 90 92 90 90 91 84 72 65 63 65 74 88 95 93 91 90 86 
77 70 66 66 74 84 85 77 74 86 95 88 81 85 93 96 95 90 82 91 88 88 98 89 88 87 
82 89 90 80 74 77 82 81 77 75 76 77 73 68 73 84 91 89 80 74 74 76 76 74 74 71 
64 59 60 64 65 66 69 80 91 94 85 72 65 72 82 86 81 76 72 63 54 50 61 82 109 
138 168 194 215 224 213 187 160 134 108 86 73 60 47 45 55 65 72 80 83 76 73 77 
78 76 71 66 65 73 85 90 90 90 88 84 80 77 74 72 76 84 85 79 78 86 89 82 81 93 
104 103 96 89 81 92 93 93 94 91 87 86 79 89 90 80 72 74 81 84 83 83 85 88 86 
79 77 78 78 74 70 73 80 86 84 79 78 73 66 62 69 78 80 74 72 83 100 107 99 81 
69 72 83 89 89 85 80 74 70 72 81 100 128 158 183 202 217 226 217 193 166 142 
119 96 79 68 55 51 57 63 72 84 84 69 57 64 76 82 80 72 69 72 81 89 97 100 91 
80 77 78 78 76 78 82 84 82 84 90 91 87 90 102 109 104 94 85 77 95 97 96 91 88 
84 85 87 92 88 77 73 76 82 87 91 92 90 93 95 91 83 75 66 65 69 77 86 90 85 78 
74 71 67 69 81 89 84 69 65 77 95 106 103 90 79 77 80 83 82 79 74 74 80 91 104 
122 147 174 191 201 211 215 205 187 168 149 124 94 73 66 63 63 65 65 69 81 84 
70 57 63 80 88 82 72 68 72 79 93 109 113 98 78 75 80 82 78 77 79 82 82 83 87 
91 93 95 100 102 100 94 85 80 95 93 92 91 81 79 89 100 95 84 75 76 82 86 91 96 
97 91 89 91 92 85 73 66 68 75 78 81 82 80 75 71 70 72 79 90 93 81 66 66 80 95 
103 103 97 91 88 84 81 81 79 74 76 89 107 124 143 167 186 195 200 204 201 189 
176 167 153 124 89 66 62 67 70 67 57 54 64 73 69 65 71 83 88 78 65 63 70 79 92 
108 111 96 81 80 88 88 81 76 75 78 80 79 82 90 94 93 90 90 93 91 87 86 89 84 
84 95 81 79 91 97 91 81 74 78 84 85 86 92 94 87 79 79 83 82 77 77 82 85 78 73 
75 78 77 77 79 81 82 86 88 86 83 83 91 102 106 105 102 99 94 87 84 89 95 93 95 
107 121 138 159 183 196 200 200 198 190 177 166 158 144 116 87 72 71 75 75 64 
49 44 53 66 72 71 75 83 87 78 66 64 70 78 85 91 92 85 83 87 94 94 87 79 75 78 
83 85 87 92 93 89 82 80 81 83 82 86 88 87 87 101 89 87 82 84 86 79 74 76 78 76 
76 84 89 84 74 73 79 84 85 90 95 91 78 72 79 87 88 90 92 86 76 71 79 92 101 
99 98 104 108 105 98 93 87 84 89 103 115 120 121 124 129 143 165 189 201 199 
195 190 182 169 152 136 119 102 87 84 84 84 78 64 51 49 58 70 77 74 73 82 93 
91 79 71 73 76 75 73 74 79 85 88 91 93 91 85 80 82 91 95 96 96 93 84 77 76 76 
76 77 83 97 101 102 98 98 95 78 80 86 85 77 74 74 72 74 83 89 83 73 74 83 88 
88 91 93 86 76 78 90 97 98 99 97 87 69 61 70 90 100 97 90 96 104 102 91 80 77 
83 98 115 126 132 136 136 136 147 171 192 199 194 187 183 178 164 140 119 105 
97 92 90 90 86 79 69 61 59 65 73 76 71 71 86 104 105 92 81 77 74 67 64 74 86 
90 85 83 87 92 89 83 85 92 95 96 95 87 77 73 77 80 78 77 83 104 106 105 103 
105 99 80 84 93 93 82 75 78 82 85 89 90 80 69 71 84 87 78 74 75 74 72 77 90 96 
94 93 92 83 69 60 66 82 91 85 81 91 104 103 91 80 82 94 110 120 126 133 142 
145 146 159 183 201 201 194 187 187 184 169 142 121 113 109 100 92 88 85 79 73 
67 63 61 62 64 66 73 89 107 110 99 90 85 77 64 65 82 96 93 81 76 82 90 89 84 
83 84 85 86 87 80 72 71 79 85 85 83 87 97 97 95 100 104 96 81 90 98 93 81 79 
87 95 97 93 84 71 61 66 80 83 69 59 64 71 71 70 72 75 76 81 86 85 77 67 68 81 
88 84 81 94 109 108 100 95 98 106 114 116 120 133 147 152 155 171 198 212 208 
202 202 207 205 188 161 142 135 129 113 98 93 91 84 75 66 59 52 48 54 64 76 87 
98 102 100 99 96 85 71 69 84 94 88 76 74 80 89 91 84 79 77 75 77 80 80 76 76 
80 86 88 87 89 89 88 87 95 99 90 84 94 98 88 78 82 92 99 96 86 73 61 56 63 77 
80 71 65 70 78 76 65 56 51 58 72 86 90 85 77 77 87 96 94 92 102 110 108 103 
104 107 108 108 108 116 135 148 147 152 175 203 215 213 215 226 235 233 215 
191 173 164 151 132 119 114 109 96 79 64 54 47 46 56 72 81 84 86 89 94 100 100 
89 75 74 80 81 75 73 76 82 88 91 87 81 80 78 75 78 86 87 82 79 86 93 91 87 91 
87 88 94 97 90 90 97 98 89 84 86 91 91 83 71 63 60 61 67 77 83 82 79 80 83 77 
64 51 45 54 70 84 90 89 88 89 95 101 102 102 106 105 98 93 97 101 98 98 104 
117 132 135 127 136 167 197 209 216 231 250 255 255 245 224 207 194 178 163 
155 148 134 110 84 64 51 44 46 60 76 84 82 76 73 78 85 86 77 69 71 71 65 62 71 
80 82 83 85 87 87 90 90 81 80 89 91 82 78 88 99 97 87 93 87 88 93 95 89 94 100 
102 99 95 92 87 80 69 61 61 68 72 76 83 91 94 89 84 77 69 60 54 55 61 70 77 82 
88 95 99 98 95 95 99 102 98 86 82 88 92 90 92 102 114 119 112 102 113 148 184 
206 227 252 255 255 255 255 252 233 219 206 194 187 173 148 115 84 64 49 39 38 
47 62 73 74 66 60 61 67 68 61 58 61 60 55 59 74 84 81 76 77 83 92 100 100 88 
81 85 85 76 73 87 100 96 85 89 81 79 86 88 86 94 98 101 102 102 93 83 73 64 61 
68 77 80 82 88 97 100 94 83 70 60 53 56 64 69 69 70 74 84 95 100 94 84 82 90 
95 90 80 80 88 90 87 88 97 104 104 94 85 95 127 167 205 240 255 255 255 255 
255 255 248 235 225 212 199 181 149 112 83 66 50 32 22 24 38 54 62 61 55 55 63 
66 61 58 60 61 61 68 82 89 84 77 77 82 92 102 101 88 79 81 81 72 70 82 93 89 
81 85 79 69 77 80 84 89 89 89 93 95 89 79 73 70 71 77 82 82 80 85 91 93 90 80 
70 60 55 58 68 72 69 69 76 85 94 98 92 81 79 89 96 89 83 87 94 93 87 85 87 89 
87 83 77 82 106 150 201 244 255 255 255 255 255 255 255 246 236 222 206 185 
154 119 93 74 53 29 14 17 29 43 57 65 63 62 69 78 77 73 72 77 82 85 91 96 94 
89 87 86 91 98 95 82 76 79 80 75 75 85 91 87 81 90 85 67 74 78 81 81 81 81 86 
89 85 78 76 79 82 84 83 81 78 79 81 81 84 83 79 72 65 63 71 76 73 75 85 92 96 
101 97 85 80 90 96 91 88 96 102 97 88 82 77 72 72 74 73 74 93 135 189 233 255 
255 255 255 255 255 255 255 249 237 222 202 172 140 114 88 57 28 16 23 35 44 
60 76 81 74 74 88 94 89 85 89 94 92 91 96 100 97 91 87 88 91 87 75 70 74 79 78 
83 92 97 91 86 96 94 71 76 80 81 80 82 86 91 92 86 78 76 81 84 83 80 78 80 80 
78 80 85 89 89 84 74 69 75 80 77 79 89 98 102 105 99 83 76 81 84 82 85 98 104 
96 86 80 72 63 61 66 69 72 89 128 175 213 235 247 255 255 255 255 255 255 255 
255 250 230 198 166 138 103 61 28 18 25 35 47 65 88 95 83 77 89 100 95 87 87 
88 85 83 90 95 93 88 86 86 86 82 74 69 73 78 81 86 94 95 88 85 99 103 74 75 84 
86 87 91 94 96 94 86 76 73 77 79 77 73 74 78 81 81 84 88 91 92 88 77 70 74 78 
74 72 81 93 102 104 95 80 72 75 77 76 81 93 100 91 79 75 71 64 58 61 67 74 92 
125 162 191 212 226 241 255 255 255 255 255 255 255 255 255 222 190 160 120 
74 39 25 23 28 42 66 89 94 82 79 90 98 92 82 77 74 73 77 86 90 86 84 86 87 82 
76 76 80 85 85 84 87 88 86 81 84 100 80 74 75 92 93 95 96 95 93 90 81 69 68 74 
76 72 69 72 78 82 84 86 86 84 85 84 77 69 69 71 67 63 68 79 92 99 94 83 82 91 
96 87 82 90 97 88 72 64 63 59 54 53 60 74 94 119 146 170 190 206 220 235 245 
246 245 252 255 255 255 255 240 206 178 140 97 61 39 28 27 41 63 79 78 73 77 
87 89 83 76 73 70 71 80 89 91 85 84 87 86 77 73 81 93 98 92 87 85 81 79 82 91 
94 85 78 80 91 91 91 93 95 94 88 77 68 69 77 79 74 73 81 87 90 92 93 88 80 78 
79 75 69 68 69 68 64 62 69 83 95 95 92 98 113 118 104 90 93 97 86 67 53 49 47 
43 42 50 69 93 113 130 151 170 185 195 205 215 221 229 244 255 255 255 255 252 
215 188 155 114 77 53 39 36 46 62 68 65 66 72 76 73 70 73 78 81 81 87 94 94 87 
82 84 85 79 78 86 97 98 91 85 80 76 78 88 98 90 87 82 84 84 84 85 91 98 101 
94 83 76 76 81 83 81 82 90 98 101 105 109 98 81 72 72 71 66 66 72 76 70 63 66 
82 96 98 95 101 116 122 110 95 92 92 79 59 45 39 38 36 37 46 69 95 111 123 139 
155 164 166 170 181 197 216 239 255 255 255 255 255 219 188 152 110 76 55 43 
41 50 62 65 63 64 66 64 60 63 74 84 89 87 86 87 88 84 82 86 91 91 90 92 92 88 
84 81 78 76 81 93 100 90 88 85 83 80 84 87 90 94 97 95 90 84 79 79 84 86 85 89 
96 102 111 116 103 78 63 62 61 56 61 72 78 71 63 68 85 98 98 89 90 105 117 110 
95 87 81 67 52 41 35 36 40 44 54 74 97 115 125 133 140 141 135 133 145 171 203 
231 255 255 255 255 252 216 176 135 95 66 50 39 36 46 57 62 62 60 59 58 59 64 
70 76 78 75 68 69 76 82 84 92 101 106 103 93 83 76 78 82 82 82 89 95 97 86 92 
88 82 80 88 90 86 82 82 85 89 85 77 75 81 86 84 84 88 94 103 105 90 68 58 60 
57 50 55 69 75 69 66 74 89 96 93 84 82 97 115 113 96 83 74 64 54 44 34 34 48 
58 65 78 97 113 121 123 123 119 110 103 113 144 183 219 244 255 255 255 237 
202 159 116 81 59 47 37 33 40 51 56 56 54 54 58 63 65 63 62 60 54 50 58 75 86 
88 93 100 103 98 87 74 69 76 84 88 90 91 90 90 75 97 93 80 81 87 86 79 72 72 
80 89 89 80 75 80 83 81 78 81 86 88 82 68 57 60 67 63 56 57 69 76 74 72 78 86 
86 84 82 84 95 110 109 94 82 75 68 60 47 31 29 48 66 74 80 92 104 110 107 105 
104 99 93 101 131 170 204 229 242 242 233 213 181 141 101 71 55 46 38 36 44 53 
58 57 55 57 62 67 64 58 57 55 49 48 64 84 90 87 87 90 89 83 79 74 74 80 87 91 
89 85 82 87 97 88 88 82 79 80 79 78 79 80 82 89 93 87 79 78 79 77 75 76 78 73 
60 51 52 62 72 73 68 66 73 80 79 73 71 71 71 75 82 87 92 99 97 87 80 77 70 59 
47 33 27 41 63 77 87 97 104 102 97 93 95 98 100 111 138 172 198 216 225 222 
209 189 161 127 91 63 49 42 39 42 50 60 66 66 63 63 67 68 64 62 65 64 58 58 73 
87 87 83 84 87 83 77 76 79 82 84 88 89 86 81 82 92 73 76 80 90 83 80 79 86 93 
91 85 87 91 88 77 72 75 76 75 74 73 65 51 46 51 59 68 74 76 75 79 84 77 64 56 
56 62 73 84 85 85 89 90 85 81 77 68 57 49 40 32 39 60 83 102 115 116 106 95 89 
92 101 112 130 159 188 205 212 216 210 192 168 143 115 82 55 40 35 37 44 52 61 
68 68 62 61 61 62 62 67 72 71 66 69 78 81 77 80 89 94 90 83 81 81 80 79 80 83 
86 86 90 99 67 74 81 93 91 86 85 91 97 92 81 79 84 82 72 67 74 81 80 77 73 66 
57 54 57 58 60 69 76 79 83 88 79 63 54 57 68 80 85 80 78 84 90 92 89 81 70 63 
59 52 47 54 75 101 125 137 130 113 97 91 95 105 122 147 177 203 214 216 211 
198 173 148 125 99 69 45 32 30 38 48 54 57 59 58 54 50 50 51 54 62 68 67 69 77 
83 76 71 80 93 94 91 89 87 81 73 69 69 77 86 90 93 96 81 83 87 91 93 91 88 90 
93 87 76 74 80 78 69 67 75 82 83 82 78 72 68 66 67 66 62 64 69 74 81 93 94 80 
70 72 82 88 84 75 74 86 98 101 96 85 75 72 69 67 71 87 111 135 155 159 142 119 
102 97 100 111 131 158 186 204 214 215 203 177 148 125 106 82 54 32 22 27 43 
60 64 59 52 50 49 48 47 45 46 52 60 65 73 86 89 77 69 76 84 81 79 89 91 80 69 
65 69 77 86 90 87 87 90 89 89 90 93 92 91 92 92 86 76 74 76 74 69 71 75 76 77 
80 80 75 73 74 76 75 69 62 57 59 73 94 105 96 84 82 88 89 84 77 80 92 103 106 
97 85 78 78 78 82 103 135 161 178 188 186 164 136 119 113 113 124 148 174 193 
203 210 211 194 160 125 100 82 61 36 15 9 22 50 73 76 63 50 46 51 57 57 53 49 
48 55 67 78 89 91 82 70 69 71 69 72 84 89 76 64 66 76 86 90 92 87 83 90 90 91 
95 94 95 95 95 95 92 85 80 74 70 73 79 77 70 68 73 75 73 75 77 78 78 72 59 45 
45 63 87 100 98 89 87 90 91 89 89 93 98 101 102 94 83 82 89 91 102 137 183 211 
222 225 220 198 169 150 141 137 146 171 198 211 216 218 214 193 154 112 80 57 
36 15 0 2 23 56 79 79 63 47 43 49 60 68 67 58 51 57 70 80 88 94 88 75 71 72 73 
78 87 86 72 60 65 81 93 98 98 94 87 94 94 97 101 97 95 95 93 95 100 99 92 82 
75 81 91 87 75 68 69 70 74 79 78 74 72 71 60 45 43 58 76 88 94 96 99 100 101 
102 102 98 92 91 93 88 82 91 108 114 125 163 217 248 255 255 252 230 202 182 
171 166 172 194 221 240 246 242 226 200 160 112 69 36 14 2 0 11 36 64 80 75 60 
48 45 49 60 72 75 65 56 61 73 82 89 96 94 87 86 89 90 92 93 87 72 61 64 76 87 
97 102 102 94 95 96 98 100 92 87 85 85 89 100 107 103 92 83 89 101 101 86 74 
71 72 77 84 78 67 67 72 67 56 55 65 76 84 96 109 116 116 114 111 108 97 85 84 
89 85 82 100 127 139 147 180 231 255 255 255 255 245 217 201 195 194 198 211 
236 255 255 255 238 207 166 117 67 28 9 7 16 31 51 70 78 74 66 61 60 61 65 71 
72 64 58 67 80 84 87 91 92 93 98 103 102 99 95 88 74 63 64 70 77 89 101 106 
99 88 91 96 94 88 84 83 82 86 95 101 97 87 85 92 103 104 92 80 77 79 82 85 78 
68 70 77 76 71 73 81 89 93 106 121 127 125 120 116 111 101 92 93 98 91 89 110 
140 156 168 197 242 255 255 255 255 248 222 211 214 219 224 232 252 255 255 
255 247 215 174 122 70 34 21 27 38 49 60 72 80 82 81 79 76 72 67 64 62 60 64 
76 86 83 79 79 81 85 94 103 101 96 95 87 71 62 65 71 74 82 96 101 93 79 87 95 
95 95 96 93 87 88 92 88 80 75 78 85 92 93 86 80 83 87 87 87 82 77 78 83 83 81 
86 94 101 104 112 122 126 124 119 116 115 112 108 106 109 106 104 122 150 172 
189 215 247 255 255 255 255 247 227 222 229 239 245 252 255 255 255 255 255 
228 185 128 76 46 39 46 52 56 62 71 82 90 92 90 81 69 62 60 60 61 71 83 85 77 
74 78 77 77 87 96 96 94 95 86 68 59 68 77 79 82 89 89 78 77 91 96 97 104 106 
97 89 90 93 87 77 74 75 74 74 75 75 79 88 92 91 92 90 84 81 82 82 80 85 94 99 
102 109 119 126 124 119 115 117 119 114 105 106 113 118 131 160 187 204 221 
243 255 255 255 255 241 227 226 234 243 252 255 255 255 255 255 255 232 186 
132 85 58 51 54 58 58 60 68 79 87 90 87 77 64 61 68 72 73 78 86 83 74 77 85 84 
79 85 93 94 91 91 87 72 63 71 82 84 81 82 79 69 83 98 92 94 101 99 87 81 86 93 
91 86 86 82 73 66 66 71 82 90 89 88 94 95 85 75 73 73 72 77 84 87 92 104 120 
133 132 124 118 120 119 107 93 93 103 116 135 165 192 205 215 233 248 253 252 
244 227 215 217 224 231 240 248 251 251 255 255 246 210 164 124 90 66 57 62 66 
64 62 65 72 77 79 81 77 69 71 82 86 82 83 89 85 75 77 85 85 81 85 94 91 82 83 
88 81 71 73 81 84 81 81 80 73 92 98 93 90 90 87 80 78 82 89 94 93 92 87 79 75 
74 79 90 91 82 80 92 95 81 68 66 69 70 72 76 78 85 101 123 138 138 130 125 125 
118 100 85 86 96 107 127 158 186 198 206 223 240 246 242 229 210 198 199 204 
206 213 226 233 232 232 229 209 168 127 105 87 69 62 68 74 68 62 67 73 73 74 
81 84 80 81 87 86 82 86 90 83 72 70 73 74 75 84 92 84 73 77 86 83 74 72 76 80 
82 83 84 78 96 97 97 94 87 87 88 85 81 84 90 91 87 84 84 87 89 91 97 95 81 75 
87 92 77 65 68 74 73 74 76 79 85 98 117 130 131 127 128 127 115 93 80 87 96 100 
114 144 174 189 200 218 236 240 232 215 196 183 179 176 172 175 189 202 202 
193 182 162 127 95 81 71 60 56 63 68 63 58 66 81 83 79 82 89 88 82 80 80 81 84 
84 75 65 62 64 67 72 83 87 78 71 77 85 83 75 70 73 79 85 88 88 81 90 95 99 95 
89 91 96 93 84 82 87 90 87 83 84 91 95 95 96 95 86 80 85 86 75 67 71 75 75 76 
80 85 88 95 105 114 117 116 121 120 103 79 73 84 93 93 103 132 161 180 196 216 
230 228 217 204 187 171 157 143 130 129 141 153 153 142 133 121 99 77 64 56 47 
43 52 60 59 56 66 85 91 84 81 85 87 81 79 83 86 82 76 69 66 66 70 75 79 85 86 
79 77 84 90 88 79 73 74 82 91 96 94 86 85 95 98 89 84 89 97 95 85 81 87 94 96 
90 86 91 95 93 87 84 86 85 85 82 78 76 74 74 74 78 84 87 87 88 94 102 107 109 
111 107 90 70 66 76 84 86 96 123 153 176 197 218 227 218 206 197 184 162 137 
111 93 90 97 104 102 94 90 86 78 67 59 51 44 41 52 66 69 66 70 83 89 83 77 76 
77 77 83 90 90 81 73 71 73 77 82 88 91 91 87 84 86 94 96 92 85 79 78 84 94 99 
97 81 89 100 97 83 79 86 94 91 81 76 81 91 96 94 89 90 95 91 77 72 80 86 83 80 
83 85 81 78 77 79 82 82 81 81 86 94 98 99 99 95 87 76 70 72 77 81 92 119 152 
179 202 222 229 221 207 197 182 155 124 97 78 71 74 74 68 61 59 60 60 58 57 56 
51 46 57 76 84 79 74 79 83 78 69 64 64 69 78 83 80 74 70 72 77 81 88 98 103 
99 92 88 93 99 97 90 85 84 84 84 89 94 93 74 98 104 97 85 83 86 86 81 74 69 71 
79 85 87 86 89 95 90 75 71 80 85 77 73 79 86 86 82 79 77 76 76 77 80 86 90 89 
87 86 89 91 89 81 75 76 80 92 119 152 177 198 218 230 230 220 204 182 154 128 
104 84 72 68 60 49 42 40 42 43 45 52 59 55 47 57 80 88 78 72 77 80 72 60 55 58 
65 69 68 65 64 67 70 73 78 89 104 110 104 94 89 92 95 91 85 84 88 90 88 88 93 
97 72 97 99 97 94 91 85 78 73 69 67 68 73 79 84 84 85 93 93 83 80 90 89 73 63 
69 80 83 78 71 68 70 77 82 87 91 92 89 85 80 85 96 98 89 79 80 87 97 117 141 
163 180 200 221 235 236 218 194 167 145 123 101 81 67 51 37 31 33 33 32 33 45 
57 54 47 59 79 82 72 67 76 80 70 58 55 62 68 68 62 58 62 67 69 70 74 88 102 
106 99 91 89 90 89 87 86 89 93 94 93 95 103 108 72 88 90 97 102 98 87 78 76 74 
75 79 83 88 91 87 85 90 97 93 90 97 96 78 66 72 82 82 72 60 58 69 81 85 85 88 
94 99 96 86 87 97 100 91 85 92 99 101 106 122 144 163 185 213 240 250 239 218 
195 172 146 118 91 64 40 27 27 33 34 30 30 42 54 54 53 66 82 80 70 69 80 86 80 
69 65 68 72 69 64 63 68 74 75 71 72 83 93 93 89 90 93 92 86 86 92 96 96 91 91 
96 104 105 71 84 86 98 105 100 90 87 87 84 83 86 91 96 96 91 87 93 99 96 93 97 
96 84 78 85 92 86 71 57 58 72 78 74 69 74 90 105 107 94 90 98 101 93 92 101 
102 91 88 104 133 160 186 220 250 255 255 241 222 193 160 128 97 62 34 22 26 
36 40 38 39 47 53 52 55 69 82 81 74 77 87 93 89 82 77 72 66 64 65 67 70 77 82 
78 74 78 82 81 81 90 99 95 86 84 92 98 93 86 83 86 87 84 70 88 87 95 101 97 92 
93 91 84 80 82 87 91 92 88 87 94 97 92 88 90 87 81 82 89 92 85 70 62 68 78 74 
59 54 62 80 98 107 103 99 103 103 99 98 100 90 74 74 98 132 163 193 229 255 
255 255 245 225 192 154 125 98 65 37 26 28 37 44 50 56 61 58 52 55 68 77 76 77 
84 93 93 86 82 80 71 60 59 65 68 69 76 83 83 78 78 79 76 76 86 95 94 86 83 87 
90 86 79 76 74 70 79 74 95 89 91 97 96 92 89 83 76 74 77 81 83 85 85 86 90 88 
82 80 83 82 77 77 80 80 75 67 68 79 86 75 59 54 60 70 86 104 111 111 112 112 
107 100 91 75 63 71 96 126 154 187 222 247 252 244 233 212 174 135 115 98 74 
50 38 38 42 53 65 74 77 72 64 63 69 72 73 78 85 89 86 78 76 77 72 64 65 73 75 
72 75 81 82 79 78 79 77 75 79 85 87 87 88 87 83 78 77 76 75 73 88 83 100 90 91 
97 97 90 82 76 74 77 79 80 81 82 81 82 82 78 74 79 85 84 79 75 73 72 69 69 77 
88 89 78 67 63 64 66 78 95 106 111 115 116 109 98 86 71 62 70 89 110 133 165 
201 227 235 232 223 200 160 123 105 94 77 59 52 55 59 68 79 86 90 89 84 79 77 
77 77 77 77 82 84 81 82 84 83 78 79 85 84 78 75 77 79 77 75 78 82 82 79 77 79 
88 94 92 85 81 82 81 82 84 93 91 96 86 87 95 93 85 80 79 82 85 84 82 82 81 78 
75 74 72 74 81 86 85 81 77 76 75 74 77 84 90 86 79 75 75 72 70 75 81 87 95 104 
109 103 93 83 72 65 68 78 92 113 144 179 203 216 219 213 191 152 117 96 81 64 
55 62 72 78 80 84 88 93 96 94 88 83 83 82 75 67 73 83 89 93 98 99 93 90 91 88 
82 79 81 83 79 75 80 88 90 84 74 73 85 95 95 92 91 89 83 81 87 89 92 83 74 77 
86 85 77 77 85 89 88 86 86 85 80 75 73 73 71 74 79 81 79 80 83 85 85 83 81 81 
83 82 83 86 87 85 81 75 67 66 75 89 96 93 86 80 72 66 65 70 80 98 127 158 182 
198 205 201 181 149 116 88 66 53 55 69 80 81 78 79 84 88 89 86 82 78 80 82 74 
63 62 73 82 94 105 106 97 90 87 85 84 86 91 92 85 79 83 91 92 83 72 72 84 93 
93 93 97 91 79 75 84 80 85 72 65 71 81 80 72 73 84 89 87 86 88 86 80 77 78 76 
71 69 72 74 75 81 91 97 97 91 83 76 78 82 87 92 96 96 89 75 62 59 68 81 86 84 
81 77 69 62 62 67 73 86 112 142 166 182 191 189 173 145 114 83 62 55 63 74 74 
69 66 70 78 84 81 74 69 68 72 77 75 66 59 60 69 85 101 102 91 83 81 83 88 93 
94 91 86 83 84 89 88 80 72 75 87 94 93 93 96 91 77 72 75 77 78 72 67 75 87 85 
76 73 79 85 87 89 89 83 77 80 83 80 71 68 70 74 80 90 99 102 101 97 90 84 81 
82 84 87 92 95 90 74 62 62 70 74 74 76 78 74 63 56 58 63 66 78 103 132 154 169 
178 176 160 136 108 80 61 57 62 65 60 58 61 69 78 83 80 71 64 64 68 74 77 73 
63 58 63 79 93 93 83 77 77 81 88 92 87 80 77 81 87 89 86 80 74 79 92 101 99 94 
93 91 79 72 85 81 75 79 72 79 92 96 87 79 79 85 90 93 90 79 74 78 82 81 78 77 
79 82 88 96 98 94 92 95 98 96 89 82 79 80 85 88 84 72 62 64 69 66 63 69 75 70 
57 49 52 58 60 73 97 121 138 151 156 149 134 114 94 73 56 47 46 46 49 61 72 76 
78 81 79 72 64 62 64 70 76 76 68 61 63 74 83 82 77 74 74 78 86 89 81 70 68 78 
87 89 87 83 79 82 94 103 100 93 90 86 76 70 94 87 74 83 75 77 90 100 95 87 86 
91 96 97 90 78 73 75 78 81 88 93 90 87 89 92 91 83 80 88 101 104 95 86 83 83 
82 78 73 66 60 63 67 64 60 63 67 63 52 47 53 56 55 64 89 110 121 127 127 117 
103 90 79 67 53 42 36 36 47 68 82 79 72 75 79 73 63 58 59 64 71 75 70 63 62 67 
72 72 71 69 70 77 88 91 81 68 66 75 84 87 87 87 86 86 92 97 95 90 86 80 72 70 
98 89 74 86 78 76 84 91 92 92 96 100 102 100 92 82 78 77 75 80 92 99 94 85 83 
85 86 80 76 84 96 101 96 89 90 87 78 67 63 61 60 64 68 68 65 61 57 51 49 55 62 
61 55 62 83 103 111 112 109 100 86 76 70 66 59 52 47 43 49 64 76 72 67 73 82 
80 68 60 61 64 67 70 69 63 60 63 68 71 69 66 69 81 93 93 80 67 66 75 83 84 86 
91 96 94 92 92 93 94 90 81 74 74 98 91 80 90 82 79 80 81 82 90 102 106 106 102 
97 88 84 82 75 72 81 91 90 82 79 80 83 82 76 74 82 91 91 86 85 81 70 61 63 65 
64 65 70 74 71 60 49 47 56 68 75 72 66 71 87 104 110 109 106 97 83 71 68 68 66 
65 62 56 51 55 63 66 68 76 88 89 76 67 69 70 68 66 65 62 61 66 74 77 72 67 71 
84 93 88 74 66 69 78 82 80 82 92 99 98 92 92 98 102 98 88 81 84 97 95 88 90 85 
83 83 80 80 92 104 105 100 100 98 91 88 85 74 64 70 82 85 82 81 81 80 78 71 65 
69 79 84 80 74 73 69 67 70 74 73 67 68 73 74 65 55 57 68 78 82 81 77 80 89 99 
102 103 101 92 77 67 67 68 67 69 70 66 56 54 61 70 75 80 87 85 75 70 75 79 71 
65 64 62 62 71 82 84 76 67 69 79 85 77 68 68 75 79 78 74 77 87 93 92 89 92 98 
101 98 92 89 85 92 94 93 91 86 86 87 86 89 98 103 97 90 91 92 88 87 86 76 67 
70 79 84 87 89 86 78 71 67 65 70 77 81 80 77 77 77 76 74 76 75 71 67 70 75 76 
72 74 78 80 82 84 80 78 79 80 83 89 89 79 66 62 66 67 67 71 77 73 62 57 64 74 
79 80 80 73 64 66 81 87 80 72 68 65 66 76 87 87 76 65 64 73 79 73 68 72 81 81 
74 71 76 84 87 86 87 92 92 88 87 90 92 85 88 91 94 100 89 87 92 95 96 99 97 90 
85 87 87 84 85 88 83 77 78 83 88 94 98 93 79 69 68 72 75 78 81 85 86 86 87 82 
72 69 71 72 67 66 73 84 89 90 83 79 81 86 85 78 69 65 69 79 83 75 65 64 69 72 
74 81 84 77 65 57 59 68 77 79 77 67 61 70 87 93 86 79 73 70 75 86 91 87 76 67 
70 79 84 79 75 78 83 80 74 73 80 86 86 86 90 93 88 78 77 83 87 90 90 90 91 101 
89 87 94 99 97 94 93 91 91 91 88 83 84 89 88 83 83 87 92 98 103 97 83 71 68 71 
71 71 74 78 79 83 88 85 74 65 68 70 67 63 71 87 98 97 85 78 83 92 95 88 74 65 
69 79 83 81 75 73 76 81 85 87 86 79 69 58 55 61 70 77 79 76 73 80 91 94 87 77 
72 74 85 93 92 85 77 74 82 93 95 88 83 84 85 82 78 79 84 86 85 85 88 90 86 79 
77 78 79 96 99 95 89 83 83 88 98 103 99 93 90 92 93 90 86 84 83 83 82 81 81 86 
92 95 98 97 87 75 70 71 69 67 65 63 63 70 81 85 79 73 74 74 68 66 74 88 98 95 
83 77 84 96 101 98 85 71 68 74 77 77 76 74 78 84 85 82 80 81 79 72 67 68 70 72 
79 85 85 84 85 88 86 78 72 77 90 96 88 79 76 77 86 97 96 87 86 90 92 91 87 83 
83 85 84 81 79 81 86 87 83 77 76 100 109 103 89 71 84 99 108 107 101 95 91 88 
83 78 77 79 78 75 75 77 79 81 86 87 89 92 90 82 78 80 82 77 66 60 58 64 75 83 
86 83 83 81 77 76 79 87 92 90 82 79 84 91 96 99 90 73 62 61 61 61 60 61 68 76 
76 73 77 86 89 87 84 83 78 71 75 85 90 85 78 82 89 89 80 80 89 93 83 73 68 72 
81 91 90 84 86 93 97 97 91 81 78 83 85 78 71 76 88 95 87 75 75 97 112 111 95 
77 94 111 115 106 98 95 92 87 78 70 70 75 73 71 75 80 79 76 79 84 88 89 87 84 
86 91 95 89 77 70 70 72 76 83 88 87 84 86 86 84 80 80 83 86 85 85 85 82 84 92 
91 75 61 57 54 49 46 49 59 68 71 73 81 89 88 84 86 90 85 74 73 84 92 86 77 81 
95 99 90 83 84 86 79 71 67 71 82 92 91 87 86 89 91 90 86 78 74 83 90 84 73 77 
91 97 87 73 75 85 101 106 100 88 100 109 106 97 92 92 92 89 83 77 75 75 71 71 
78 84 80 75 78 85 89 87 82 82 85 90 92 88 82 77 79 79 82 88 91 85 79 81 84 82 
77 74 76 80 85 91 89 77 73 84 90 81 72 68 62 53 49 52 59 67 74 81 87 86 74 68 
77 89 89 79 78 87 95 90 79 79 92 99 92 81 75 76 74 72 72 77 87 97 98 93 89 87 
84 80 80 79 79 87 95 90 79 80 92 97 87 77 68 72 84 93 101 90 93 96 94 90 90 90 
89 89 89 85 80 74 70 70 75 79 78 77 81 86 86 81 80 82 81 78 76 77 78 75 75 78 
84 92 94 87 77 73 74 75 75 73 72 73 79 88 89 76 68 76 85 84 82 80 72 66 67 69 
68 72 81 87 87 78 66 65 77 89 87 82 81 87 92 88 82 81 89 92 89 81 73 70 71 71 
71 75 84 94 97 94 93 92 87 81 80 83 87 94 96 90 80 81 91 96 92 86 72 69 77 84 
94 92 90 92 90 88 90 89 85 84 86 84 77 72 72 72 72 75 79 83 86 85 79 77 81 85 
78 68 64 70 74 71 70 75 83 90 93 88 79 70 69 74 79 77 72 66 68 77 83 74 66 71 
81 82 81 81 77 75 82 86 84 83 88 88 80 73 72 78 82 83 79 78 79 79 82 85 87 86 
87 90 93 89 82 76 75 70 67 69 76 87 92 92 94 98 93 84 80 84 91 96 94 87 81 83 
89 93 94 93 78 76 82 87 89 98 98 96 91 88 90 90 86 85 86 85 80 77 79 81 80 78 
83 89 91 86 79 77 82 84 75 64 63 70 74 71 71 78 83 85 86 84 77 71 74 84 88 82 
73 64 60 66 73 70 66 72 79 77 76 79 79 79 84 90 93 96 96 87 74 72 78 84 82 73 
69 71 74 77 81 90 96 93 91 93 96 92 87 84 80 72 68 72 80 90 93 89 90 97 95 86 
83 86 89 90 90 88 86 87 88 91 93 95 72 79 87 88 88 98 101 98 92 88 90 92 90 91 
95 96 93 89 87 87 86 85 88 93 95 90 82 77 78 78 71 68 72 79 80 77 78 83 85 82 
79 77 71 71 82 95 93 81 72 65 60 61 67 69 70 75 76 72 75 84 86 81 77 79 89 101 
100 84 71 72 80 82 75 69 67 68 71 77 89 100 102 96 93 95 91 80 75 79 76 71 74 
83 92 97 96 90 90 96 98 95 92 88 81 81 85 90 92 93 92 90 91 75 70 77 87 88 88 
92 99 100 94 90 91 91 89 90 98 107 106 96 85 81 83 88 91 91 93 91 80 70 67 69 
70 75 84 93 92 86 83 84 84 83 81 75 68 71 85 96 89 74 69 69 65 64 72 79 80 78 
73 67 75 90 95 86 73 72 86 99 98 83 74 80 86 83 75 73 74 71 67 74 92 104 101 
93 91 90 79 63 62 70 71 68 74 87 95 97 96 95 96 99 101 102 98 87 74 73 81 88 
94 100 102 94 89 83 81 84 91 94 93 87 98 103 97 92 90 85 79 80 92 104 103 92 
79 74 81 90 90 85 85 84 73 61 59 64 70 79 90 98 97 89 83 81 83 86 87 80 69 70 
84 92 83 72 73 76 72 71 80 89 90 85 77 68 71 88 98 90 78 79 89 96 95 88 85 90 
95 88 77 77 80 73 64 69 86 97 95 88 88 86 74 62 67 75 74 69 74 84 89 91 93 94 
95 95 95 94 91 82 73 73 80 85 92 104 111 100 85 91 91 92 97 100 97 83 94 102 
98 91 86 81 75 78 88 95 93 87 79 78 87 96 92 82 79 79 72 64 63 69 76 81 86 89 
89 87 82 78 78 84 87 79 71 75 87 88 77 73 81 85 80 78 84 91 94 94 87 76 73 83 
89 83 79 82 88 89 91 95 94 92 90 83 74 73 78 72 62 68 84 93 89 84 86 86 79 78 
87 90 81 74 76 82 83 84 86 86 86 86 83 81 83 81 78 79 79 78 85 101 112 103 87 
90 90 90 95 97 93 78 84 95 97 89 85 85 86 92 96 94 90 90 90 89 92 98 97 89 85 
82 76 72 72 74 77 79 78 77 79 83 83 77 71 74 77 73 73 83 91 82 70 71 83 90 87 
82 82 87 93 97 94 86 82 82 81 73 71 77 80 81 85 93 92 81 75 75 74 73 72 67 61 
69 84 91 86 81 81 84 88 93 99 95 82 75 76 79 81 83 85 83 83 83 79 77 81 87 91 
89 80 71 74 89 102 102 95 86 86 85 87 87 83 79 80 93 99 94 90 93 98 104 106 
99 94 97 100 95 91 95 101 103 96 84 75 76 75 71 72 75 77 74 76 84 85 74 66 67 
68 65 70 84 87 72 59 63 76 86 87 82 79 82 89 93 91 88 89 89 81 72 71 78 81 79 
81 87 82 68 64 72 78 77 70 62 58 66 80 86 79 72 72 79 88 92 94 92 86 77 74 75 
80 87 90 88 87 88 83 76 82 94 102 98 86 72 70 79 90 100 104 89 87 85 86 83 78 
70 67 73 81 86 91 95 100 106 106 102 99 102 102 96 89 91 102 111 104 85 74 77 
80 74 71 77 82 82 81 84 81 72 66 69 68 64 66 76 78 68 60 65 74 82 84 80 77 79 
85 85 82 82 88 89 81 74 79 88 90 84 84 86 77 65 64 74 80 78 71 63 59 65 76 78 
70 64 66 77 85 86 87 93 92 84 76 76 81 88 91 88 86 86 81 75 80 94 103 101 88 
76 74 79 86 95 93 95 89 87 90 87 77 77 73 73 78 86 93 94 94 95 99 101 102 102 
102 98 93 93 101 110 105 88 81 87 92 87 81 82 84 83 83 82 77 69 68 74 76 70 68 
71 77 80 80 81 84 85 88 86 81 81 84 82 77 77 82 81 72 71 81 91 94 90 90 89 79 
68 68 73 75 74 73 70 68 73 78 77 72 67 72 82 89 88 88 93 92 83 78 80 83 87 88 
83 76 74 72 72 79 89 94 90 79 73 80 86 88 91 96 97 85 81 89 90 78 81 83 85 87 
93 99 99 94 94 100 103 100 94 89 85 82 83 95 106 105 96 93 100 103 99 91 87 83 
79 78 79 76 69 67 75 81 80 78 80 85 94 99 96 93 93 97 98 92 86 84 82 76 75 76 
74 67 66 75 86 91 90 90 91 85 76 74 74 71 71 76 78 78 80 84 88 87 83 83 89 95 
95 88 83 77 73 75 80 84 88 90 83 71 64 67 72 78 83 84 79 72 71 81 88 88 89 95 
93 79 74 83 87 84 97 97 96 87 73 74 89 83 88 97 103 101 93 86 77 70 69 73 77 
80 82 88 96 102 100 95 91 87 82 79 81 78 71 67 71 78 82 86 89 91 95 98 93 89 
94 102 104 98 90 83 76 72 71 74 73 70 69 72 80 85 86 89 94 92 85 81 78 73 72 
77 79 77 78 85 95 102 95 86 90 99 98 86 74 68 71 77 81 84 91 95 87 73 68 73 79 
80 81 82 83 80 80 85 89 89 92 92 88 77 72 75 82 90 103 102 101 89 77 72 79 87 
95 100 99 93 94 89 81 76 76 76 75 78 81 81 80 81 86 93 98 97 90 87 89 87 80 73 
70 73 79 87 90 90 92 90 83 80 88 98 101 97 91 83 74 70 71 74 75 76 77 76 77 80 
85 93 99 96 86 80 77 75 75 79 78 72 70 80 92 98 92 83 87 95 95 85 75 75 83 86 
85 86 92 92 82 75 78 86 88 84 82 85 90 90 90 93 96 94 95 86 87 81 75 73 78 91 
97 93 92 87 76 70 73 79 88 98 103 98 92 87 81 76 80 89 75 78 87 90 91 90 94 100 
103 96 81 73 74 75 76 79 78 76 79 85 86 87 92 88 79 76 86 95 96 95 96 92 86 82 
80 77 75 80 85 84 83 85 91 99 102 92 79 71 71 72 76 83 82 75 69 76 88 89 84 81 
83 87 88 87 83 81 85 89 88 85 81 75 69 73 83 90 92 88 84 85 91 91 91 96 100 
97 92 84 89 89 83 77 79 91 91 80 79 82 73 70 74 78 82 92 100 99 91 86 85 87 94 
101 98 93 96 101 98 105 102 99 98 94 86 80 80 77 72 80 90 89 82 83 88 88 89 83 
73 78 90 94 92 96 102 103 99 95 89 79 76 83 91 95 97 99 99 102 100 89 78 74 73 
72 75 85 89 82 76 81 90 90 85 85 84 81 84 88 85 78 76 83 87 82 75 67 64 70 78 
83 86 88 86 85 86 87 86 91 94 90 83 87 94 98 92 85 86 93 90 76 74 84 76 75 81 
83 78 81 91 97 92 88 91 96 104 109 104 99 100 104 99 91 88 94 107 110 97 98 94 
86 79 80 87 90 86 86 89 91 92 96 93 87 89 92 86 89 97 98 95 92 85 77 76 82 90 
98 105 106 99 96 95 93 89 89 85 77 76 85 91 87 83 87 93 93 92 93 88 81 84 91 
86 76 76 83 87 84 77 73 73 74 75 76 78 83 87 90 89 86 85 86 85 82 88 87 95 101 
94 84 87 95 89 80 79 93 84 83 91 91 81 76 86 95 95 92 93 97 102 104 102 101 
102 102 99 95 91 91 99 105 100 94 98 103 102 98 94 87 88 86 83 84 89 96 98 90 
86 91 91 85 87 90 87 81 77 76 77 78 80 88 96 96 88 86 94 101 101 100 94 85 80 
82 87 89 87 87 88 90 94 98 93 85 88 93 87 80 83 90 89 84 81 83 84 82 81 79 78 
81 90 96 92 87 88 88 82 79 84 81 89 94 83 72 78 90 93 89 89 84 83 72 66 71 73 
67 66 72 77 85 92 94 91 93 99 102 99 92 86 79 70 70 73 75 76 77 78 78 81 86 96 
103 98 81 73 73 83 90 93 88 85 89 90 85 85 87 85 81 82 86 85 79 76 75 79 81 80 
85 96 100 97 93 93 90 84 78 81 86 86 82 80 81 89 97 93 86 88 92 87 83 87 90 86 
81 83 88 88 86 90 91 88 86 93 97 90 83 87 90 83 75 63 62 71 84 92 96 99 98 90 
85 85 84 80 71 68 75 79 76 73 77 84 93 100 98 93 93 100 105 101 93 86 77 71 72 
75 75 78 83 86 87 90 95 100 102 97 86 82 83 81 75 78 87 90 87 89 89 88 86 83 
84 88 90 86 81 85 90 88 83 85 91 93 92 86 83 84 84 80 74 72 77 81 81 80 80 85 
90 88 84 86 89 88 85 86 86 83 83 88 89 85 85 92 94 90 89 95 93 82 76 84 89 82 
73 60 59 70 83 94 101 103 98 82 78 78 82 78 70 66 72 79 81 84 87 89 93 96 90 
82 84 93 99 97 95 92 87 84 86 82 76 77 86 93 99 104 104 99 95 95 96 98 98 92 
85 80 81 84 87 86 82 79 80 86 91 91 88 81 77 79 83 81 80 84 87 81 74 73 78 84 
86 78 68 66 71 79 85 86 85 84 85 86 84 84 87 91 91 88 84 85 89 91 88 81 80 86 
87 84 85 90 87 76 72 79 86 85 71 64 64 71 80 90 99 101 93 
