P2
112 112
255
71 85 92 85 72 67 71 76 76 75 78 82 78 65 51 52 65 74 69 56 46 43 50 61 66 61 
55 54 62 71 72 67 69 74 74 70 69 68 62 56 60 71 78 74 64 58 58 56 58 71 81 76 
65 56 50 54 69 80 78 74 77 73 55 39 42 53 61 63 59 53 57 67 70 63 61 64 60 50 
52 69 83 80 68 68 82 95 102 102 92 79 74 77 77 77 78 75 74 74 69 62 61 64 65 
66 71 74 67 62 65 60 62 64 61 75 86 82 70 66 74 84 84 79 78 76 68 63 61 66 74 
78 74 63 52 48 51 57 59 58 60 67 74 73 66 63 68 72 72 71 69 64 55 54 62 71 73 
70 67 64 62 59 59 68 78 78 71 62 52 54 67 78 78 76 77 71 54 42 43 51 57 60 58 
58 67 76 75 67 64 64 57 48 50 65 76 72 64 67 80 91 99 102 92 74 64 66 73 81 84 
83 83 83 75 62 56 58 63 71 82 86 76 65 62 60 59 56 59 71 81 77 66 65 76 84 82 
77 74 69 61 60 68 75 77 77 74 67 59 57 59 62 62 63 68 77 79 72 65 64 69 71 67 
66 69 63 54 54 63 69 66 65 68 72 70 62 57 62 70 72 69 61 54 56 67 77 78 75 74 
68 56 47 46 49 52 55 57 63 74 83 81 72 67 64 57 50 53 64 71 68 62 67 77 85 92 
97 90 74 63 65 74 84 88 83 80 79 74 66 60 61 66 75 85 88 80 69 63 61 58 54 68 
64 69 82 92 88 80 80 80 74 70 70 72 72 68 61 55 56 66 79 80 69 64 71 83 84 78 
75 71 63 59 65 73 76 77 76 69 61 57 58 61 62 62 66 74 79 75 66 63 68 71 68 67 
69 66 56 53 60 68 68 65 67 70 71 65 59 60 67 72 71 65 56 54 62 74 78 77 75 70 
60 50 45 48 51 54 57 61 69 80 83 76 68 65 60 52 50 59 70 70 64 64 73 82 89 96 
94 79 65 63 63 64 68 67 65 76 92 92 77 68 73 75 69 61 64 74 82 76 63 54 56 66 
73 69 62 65 78 87 82 73 68 63 57 59 73 82 77 69 66 64 62 65 70 74 74 73 75 79 
78 72 70 74 78 73 63 60 67 66 57 56 68 72 60 52 59 72 75 68 60 55 56 59 60 57 
53 57 65 70 72 73 71 66 61 59 59 58 56 56 59 64 73 83 85 79 70 62 56 54 59 70 
75 69 61 63 73 80 84 86 85 80 73 71 67 69 71 72 70 85 97 90 69 58 61 65 66 67 
72 81 86 80 66 57 59 66 68 63 60 68 85 91 81 69 63 60 58 66 81 88 80 67 60 57 
57 65 74 78 78 77 77 75 70 71 79 87 83 70 60 61 68 68 61 65 78 78 60 47 55 69 
73 70 66 62 59 58 57 54 52 56 61 62 62 67 68 64 63 66 69 68 65 66 69 73 76 78 
80 78 71 61 54 57 73 90 93 77 61 63 76 85 84 77 75 77 78 75 75 78 79 76 73 82 
87 78 61 53 53 59 72 86 93 92 90 85 75 66 62 63 66 63 61 69 83 86 77 65 58 55 
59 71 86 93 88 76 65 57 56 62 69 69 68 70 72 69 67 76 89 90 75 60 57 65 74 74 
68 71 80 77 61 52 58 69 73 75 75 70 64 60 59 57 54 53 57 59 60 62 63 64 64 65 
67 66 65 68 75 79 75 71 72 74 72 64 57 62 81 102 103 83 66 70 85 91 82 70 67 
74 77 71 83 86 85 71 69 69 67 63 60 59 57 61 78 98 102 92 85 84 84 76 64 59 64 
67 65 68 76 78 71 60 52 52 60 71 82 90 91 85 74 64 59 59 58 55 57 63 68 67 67 
77 86 82 69 60 60 68 78 81 74 70 70 68 62 57 62 68 73 78 75 66 58 56 59 59 57 
55 59 66 68 64 63 67 71 69 63 59 58 62 70 72 68 63 64 69 72 68 61 62 75 90 92 
79 73 85 97 93 79 68 68 73 72 63 81 83 78 62 66 65 59 59 65 69 67 67 75 88 89 
78 68 72 82 80 65 54 60 70 71 72 77 79 70 57 50 54 62 66 70 78 84 84 76 66 60 
55 50 49 56 66 69 63 60 64 68 69 70 72 71 71 79 83 77 66 61 62 66 64 62 62 67 
71 68 60 56 57 59 60 60 59 62 70 72 68 68 77 83 76 62 54 55 60 65 65 63 65 68 
69 67 62 55 55 64 73 73 70 75 89 96 88 75 73 76 73 63 53 71 70 64 61 70 71 64 
61 64 68 68 64 63 68 71 63 54 57 71 75 63 54 60 71 77 81 85 82 69 56 51 56 63 
63 60 65 74 76 69 61 59 57 51 51 62 72 68 57 51 49 48 57 73 84 79 73 75 79 73 
63 60 67 74 72 65 60 60 61 62 64 67 67 61 58 60 61 60 62 63 63 69 81 86 72 53 
46 53 63 64 62 66 77 82 75 63 53 47 52 63 71 69 64 67 77 83 79 73 76 79 69 55 
49 63 61 57 65 73 76 67 57 53 57 62 58 54 59 65 62 54 54 63 70 65 62 66 72 77 
83 86 78 66 59 58 60 64 64 59 59 63 67 61 56 63 70 61 53 60 70 67 57 50 44 43 
54 74 86 81 72 68 68 65 63 65 72 76 73 67 61 55 53 59 69 75 69 56 51 57 61 58 
54 52 54 63 76 78 61 42 40 53 63 59 55 64 82 90 81 64 53 53 60 71 75 72 66 63 
67 74 77 77 77 75 65 53 54 66 64 61 64 69 72 64 51 47 55 65 64 61 65 72 70 63 
60 64 68 70 74 77 74 74 78 77 68 63 66 68 64 64 65 62 54 53 58 56 56 68 79 70 
53 54 65 68 63 56 49 50 60 73 78 74 68 62 58 59 66 71 70 67 64 63 58 49 47 55 
63 63 55 44 44 54 61 57 51 49 51 60 69 71 58 43 44 58 64 54 47 57 75 84 77 66 
63 67 71 73 71 69 67 64 65 72 79 83 81 74 63 56 64 74 74 68 60 61 64 59 52 54 
66 75 74 70 73 77 75 70 68 65 66 72 82 85 77 71 72 70 62 62 71 72 65 62 65 62 
52 49 57 62 63 70 78 71 57 57 66 71 67 59 52 54 63 68 66 62 60 59 58 64 73 75 
68 62 61 62 54 43 43 50 50 45 43 45 48 56 60 56 49 49 56 63 68 69 61 50 50 62 
65 57 50 56 68 73 68 63 65 70 71 67 63 63 65 63 60 65 74 81 81 72 61 59 74 81 
82 71 62 60 60 56 56 65 73 72 67 67 73 77 75 74 73 66 61 67 80 85 76 68 69 68 
63 63 71 74 67 64 64 60 54 57 70 77 73 69 71 72 70 69 70 69 65 57 51 53 61 65 
63 59 59 62 65 71 75 72 65 63 66 65 56 45 43 44 41 38 47 58 63 66 65 59 51 51 
59 67 69 69 63 54 50 55 61 59 55 57 65 70 67 61 60 62 63 64 64 65 65 60 54 56 
64 71 70 63 56 61 79 89 89 74 68 67 61 52 57 71 74 64 55 59 70 76 76 75 73 66 
60 64 76 81 74 65 67 72 70 67 70 73 70 68 64 59 57 66 81 86 78 67 65 70 76 74 
67 61 57 52 50 56 66 73 74 71 67 66 66 67 65 59 53 55 58 60 56 51 46 40 38 44 
60 72 75 76 76 71 63 58 61 66 68 68 67 61 54 53 54 52 49 55 69 79 79 70 62 58 
59 65 68 67 67 64 60 60 62 62 58 52 53 66 81 91 89 75 67 70 62 53 59 73 73 61 
52 55 65 72 75 73 70 66 67 73 81 85 80 73 74 80 81 74 67 66 68 69 64 57 57 65 
75 78 73 64 57 61 68 66 58 52 48 46 50 62 74 83 84 79 71 64 57 52 49 45 42 40 
40 45 49 49 44 38 41 53 68 74 73 75 79 79 74 68 64 66 67 67 70 71 67 64 58 49 
46 57 77 90 89 79 69 61 61 66 67 64 67 73 74 70 68 67 61 56 60 76 86 81 78 68 
62 66 62 56 61 71 71 63 54 53 58 66 71 69 67 68 74 82 89 92 90 84 84 88 89 80 
67 60 63 67 65 58 55 60 64 66 69 67 58 53 57 61 58 52 47 44 49 63 76 81 76 67 
62 58 50 43 41 44 43 39 37 40 43 42 39 42 52 63 68 66 63 64 67 71 72 68 65 68 
69 67 68 73 75 74 68 59 56 68 83 89 85 76 67 62 66 71 68 63 68 78 78 70 70 75 
73 66 69 83 89 71 68 62 64 63 60 59 64 72 74 68 58 54 57 64 67 67 66 67 71 78 
85 89 86 78 77 84 88 82 71 62 62 64 63 57 56 59 61 63 69 73 66 58 60 68 68 63 
57 52 52 61 71 71 60 50 52 57 55 47 45 48 48 46 45 46 41 35 39 54 67 70 64 59 
58 57 56 61 64 58 57 65 69 65 64 68 70 70 67 64 67 76 83 82 76 70 65 64 70 76 
73 67 70 75 70 62 66 75 73 65 66 78 83 66 66 64 72 65 62 64 73 82 85 77 64 59 
63 67 67 67 67 64 61 64 71 74 66 56 56 68 80 82 76 69 66 65 63 58 56 58 59 61 
68 75 72 64 65 72 73 68 65 61 56 58 65 65 55 46 50 59 60 54 49 45 40 39 43 47 
41 35 43 64 76 72 63 62 65 62 59 64 65 54 51 61 65 61 63 66 64 59 56 59 68 78 
80 77 75 74 71 69 70 74 73 69 68 69 65 62 68 73 68 59 60 68 71 63 66 72 82 71 
66 72 82 90 89 75 61 61 68 70 68 68 67 61 55 56 62 64 55 46 48 60 73 78 78 73 
68 66 66 63 59 55 53 53 60 69 69 62 61 65 65 61 60 57 53 53 59 60 54 49 50 54 
54 53 50 44 33 26 31 40 42 41 49 64 73 69 65 68 71 68 67 75 78 68 62 65 64 61 
66 72 68 58 53 58 69 77 77 74 76 79 76 69 65 67 69 68 66 67 67 69 74 76 71 65 
64 65 63 63 67 81 85 75 68 71 76 78 74 61 53 60 70 69 66 64 60 53 51 56 60 62 
61 59 60 65 70 74 73 68 63 63 67 69 67 60 52 48 52 61 62 57 57 62 61 55 50 48 
48 51 53 49 43 42 43 41 38 39 44 47 43 34 33 40 48 53 59 65 68 65 64 67 68 64 
65 77 88 86 81 78 71 65 71 80 80 72 65 67 73 76 70 65 67 71 68 60 55 59 68 72 
69 68 69 71 72 76 78 77 74 68 63 69 71 84 82 72 64 63 64 63 59 52 51 61 69 67 
62 56 46 40 46 56 58 58 64 72 73 68 67 69 68 62 58 59 66 75 78 70 57 49 50 56 
55 51 55 64 64 53 43 42 50 57 53 40 31 33 37 35 29 27 35 51 61 58 49 49 58 67 
71 72 70 64 59 59 60 57 57 70 84 88 85 79 71 66 72 82 85 81 74 72 74 74 65 57 
59 61 57 50 48 56 71 80 77 71 67 64 64 71 81 86 80 71 66 76 78 85 74 64 59 60 
62 64 61 55 55 63 67 64 60 55 42 35 44 57 56 51 57 68 70 64 63 67 67 64 63 64 
69 78 81 72 58 52 56 60 52 42 47 60 61 45 30 34 53 66 59 44 35 38 46 49 42 35 
41 58 74 75 66 62 68 75 79 80 77 67 57 55 57 56 55 63 71 73 68 63 60 62 70 77 
78 74 69 66 70 70 63 57 61 62 55 47 48 58 73 83 81 74 69 66 68 77 88 91 83 73 
72 77 80 83 64 56 56 61 68 74 72 62 58 61 62 61 62 63 54 46 51 59 56 48 49 58 
59 55 59 69 72 70 72 74 76 80 78 65 54 57 69 71 57 40 42 56 57 38 20 23 45 63 
63 57 54 56 63 71 69 61 60 69 78 82 78 77 77 77 76 80 80 70 59 57 59 57 55 58 
60 57 52 49 52 61 71 75 70 62 57 59 65 67 59 55 60 62 55 51 55 62 72 79 79 76 
78 82 85 87 90 86 77 74 79 70 75 75 57 54 59 66 75 82 77 66 62 66 65 63 66 70 
65 59 61 63 58 51 52 57 55 51 57 67 72 71 72 73 74 76 72 61 53 61 76 79 66 54 
57 67 64 44 26 25 38 53 60 67 70 66 68 78 85 82 77 77 81 86 91 91 86 75 65 67 
72 69 60 56 55 51 49 50 52 50 49 51 57 67 77 79 70 58 51 55 62 63 54 49 51 53 
52 55 62 66 70 76 76 77 86 95 94 84 72 63 62 70 82 68 73 69 63 63 69 73 78 81 
75 70 74 81 79 73 72 70 66 64 66 67 64 62 66 70 65 57 56 62 65 64 64 65 66 65 
62 59 58 64 72 74 70 70 76 81 73 58 46 40 42 49 58 68 69 59 59 72 85 85 82 85 
90 95 99 100 94 79 62 54 58 60 56 51 46 41 40 43 47 50 56 62 67 72 79 83 76 63 
52 52 58 61 56 51 51 50 52 59 64 65 72 80 81 80 85 91 85 70 54 46 50 64 74 76 
79 73 81 76 74 73 72 71 70 73 83 89 86 80 76 70 65 66 69 71 74 78 82 83 77 66 
58 56 56 56 61 67 67 58 54 58 62 63 63 61 62 69 77 79 73 66 59 52 48 51 59 64 
58 48 54 75 89 88 88 97 106 107 106 102 96 85 69 55 50 49 48 43 37 33 34 37 41 
47 55 65 72 73 73 75 74 70 61 54 55 61 63 62 59 55 52 55 58 62 73 86 87 82 81 
79 71 63 58 54 54 61 65 81 83 85 96 83 70 65 64 64 69 77 81 76 70 70 71 70 71 
73 73 74 82 88 85 81 77 70 62 55 51 53 65 78 76 62 56 62 62 56 53 52 51 56 64 
68 66 62 56 49 45 47 53 54 48 47 62 86 97 94 97 110 119 118 109 99 89 83 76 63 
49 42 41 36 28 26 31 35 37 40 47 58 70 72 66 61 63 71 73 65 58 58 61 63 60 52 
43 44 52 61 68 77 81 81 78 69 58 60 70 71 64 63 64 80 84 95 98 81 63 60 62 65 
74 84 79 64 53 53 58 65 76 82 78 75 82 87 78 69 70 73 69 59 50 50 63 78 79 70 
68 71 61 47 46 51 47 45 52 59 59 55 49 44 41 38 37 40 45 55 72 91 97 95 100 
112 118 114 104 91 80 78 80 71 53 41 38 33 25 26 37 42 39 37 40 50 63 69 63 54 
57 69 79 76 66 58 56 56 52 42 33 37 54 66 65 62 67 76 79 67 51 54 71 76 69 66 
71 82 86 98 85 69 57 60 66 67 74 83 79 66 56 51 48 56 72 83 81 75 78 80 71 62 
66 76 74 62 50 47 57 68 73 72 74 72 57 44 50 60 54 43 44 50 52 50 51 52 49 36 
25 32 52 67 76 84 88 90 97 105 106 100 89 79 75 81 86 76 56 44 42 40 36 42 53 
53 45 38 39 46 57 65 63 58 60 70 81 84 78 66 57 54 50 42 36 43 60 71 67 59 62 
73 79 71 59 61 74 75 66 68 78 88 88 89 63 55 56 66 71 65 63 68 72 72 68 58 48 
50 65 78 78 72 71 71 65 60 67 75 71 58 49 49 56 63 66 65 64 59 50 49 61 71 63 
48 42 44 47 51 58 64 61 44 30 37 61 79 81 80 85 91 96 102 102 93 80 73 78 87 
88 72 49 40 45 50 53 58 61 53 42 39 44 48 55 61 62 63 66 72 79 85 80 65 55 57 
59 56 53 56 64 70 71 69 69 73 77 77 76 81 85 77 65 72 86 83 78 69 58 59 63 73 
75 65 56 58 66 72 72 62 53 54 66 75 73 64 60 60 59 58 66 71 65 53 46 49 57 63 
64 60 52 45 44 53 67 74 68 58 54 54 55 58 63 68 66 57 50 54 69 82 85 85 93 103 
109 112 113 105 88 78 81 85 77 56 36 30 40 49 52 51 47 37 31 36 45 50 54 58 60 
64 67 69 72 74 66 49 44 54 66 70 70 69 66 66 73 78 75 72 75 80 86 91 88 74 66 
77 91 72 65 57 76 79 71 71 75 70 64 65 72 76 72 64 63 70 80 82 73 59 54 57 57 
57 63 68 63 52 43 44 51 60 64 61 52 43 41 49 60 65 64 66 73 77 71 62 57 59 61 
64 67 69 73 79 83 89 103 120 130 132 133 127 111 96 86 78 66 51 37 30 29 32 31 
28 24 21 22 29 38 45 52 58 59 61 63 61 60 60 53 40 39 53 66 73 79 78 72 69 76 
81 76 71 75 82 86 86 80 68 63 75 85 70 67 66 89 87 70 60 67 73 73 75 81 82 75 
69 73 84 92 90 76 60 57 62 59 55 61 69 67 56 44 41 49 60 66 65 57 45 37 39 47 
51 52 62 81 89 77 58 47 48 53 61 68 71 75 79 82 90 108 130 146 150 150 146 137 
123 103 85 75 71 62 44 26 18 18 19 19 19 19 22 29 38 50 59 59 57 56 53 53 58 
57 50 49 60 68 71 78 84 82 78 79 81 77 76 81 84 81 78 75 68 64 70 74 76 75 78 
82 80 65 58 65 71 69 69 75 80 76 71 73 81 88 90 81 68 63 65 59 52 56 65 66 60 
50 47 56 68 69 62 54 42 31 31 40 43 40 50 72 83 73 56 48 49 54 58 62 69 78 85 
89 96 112 135 155 166 168 169 167 157 134 111 101 99 88 63 37 25 27 34 36 31 
26 25 30 38 50 59 57 53 50 48 50 59 63 60 60 69 74 71 71 77 82 81 81 82 82 82 
83 81 74 70 74 75 71 68 68 78 78 78 73 71 67 65 68 68 59 54 61 70 71 67 66 69 
76 83 83 76 70 65 58 51 54 59 60 61 58 56 61 69 67 56 47 41 34 33 39 42 39 46 
65 77 75 68 65 64 64 63 64 71 83 93 99 108 125 149 174 190 195 197 198 190 169 
144 129 119 102 78 56 44 45 52 52 44 36 36 38 41 48 52 49 45 44 45 51 59 62 61 
65 74 77 72 66 65 68 73 79 82 83 81 78 72 65 64 73 82 78 68 64 81 82 78 73 68 
69 70 70 65 57 53 58 64 62 59 61 65 70 76 80 78 73 66 61 60 61 59 57 60 61 56 
56 61 61 52 45 45 44 41 40 43 49 58 70 78 83 86 81 73 69 69 70 75 86 98 110 
124 146 177 207 223 223 220 218 213 197 175 155 138 119 100 80 63 55 57 55 46 
38 39 42 43 44 44 41 36 37 44 55 63 64 66 73 78 79 75 69 63 60 63 71 77 78 75 
71 67 64 66 79 91 85 68 62 86 89 85 66 61 65 69 68 67 66 67 68 64 56 54 61 68 
69 68 70 73 72 67 66 71 72 65 58 58 59 55 55 60 60 52 48 52 55 52 49 49 57 69 
75 80 88 93 84 71 67 72 74 77 87 102 118 136 165 204 237 249 242 232 228 226 
219 205 188 171 153 134 109 81 63 57 52 38 28 31 39 44 46 46 39 31 31 44 62 70 
71 75 82 83 81 78 75 70 63 61 64 68 70 70 69 68 65 69 83 96 92 75 65 82 87 81 
53 53 62 67 67 67 71 74 72 63 56 57 64 67 64 59 63 70 71 64 62 68 71 66 59 54 
52 55 65 74 69 57 52 58 64 66 62 60 64 71 73 77 87 90 78 69 72 79 80 82 94 110 
126 144 174 216 251 255 253 243 240 239 236 231 225 216 199 173 139 104 80 66 
52 31 16 20 33 44 50 50 43 32 32 49 68 72 69 73 81 83 81 79 77 72 66 60 57 59 
64 67 70 69 63 61 74 91 94 82 73 69 73 66 55 55 63 69 67 66 67 67 65 64 66 67 
66 63 59 60 68 77 74 62 54 54 58 58 53 42 36 45 67 81 75 60 54 60 68 71 70 69 
72 73 69 72 81 81 72 70 79 85 84 90 106 125 140 157 184 221 252 255 255 255 
253 249 247 248 252 251 238 209 170 132 103 81 56 27 9 12 27 36 41 46 46 41 41 
55 69 66 57 60 71 78 79 76 71 68 65 60 55 56 61 65 69 70 63 56 64 81 86 78 77 
63 63 61 66 64 67 70 71 71 71 67 64 70 77 74 64 57 61 70 79 83 80 70 58 51 50 
52 48 31 17 26 52 69 65 54 50 57 65 66 66 73 82 80 70 70 77 74 66 66 73 76 77 
90 114 137 155 174 197 223 246 255 255 255 252 246 247 255 255 255 255 241 205 
166 131 100 66 28 5 9 23 27 29 37 46 49 53 60 63 55 47 51 64 72 71 67 66 68 67 
63 60 62 64 63 66 72 69 60 60 68 68 64 72 66 66 68 71 68 70 73 77 83 86 79 71 
73 77 70 58 53 63 75 78 75 77 79 75 63 53 51 50 37 22 22 38 53 56 50 48 55 62 
61 62 76 91 88 73 70 77 74 65 59 57 56 64 84 112 139 163 185 203 218 231 243 
248 243 233 230 240 255 255 255 255 255 238 201 162 125 83 37 9 12 28 33 32 38 
50 57 61 61 57 49 45 51 63 67 60 55 62 72 71 65 65 68 67 64 67 72 68 58 53 55 
53 53 66 70 70 72 70 70 73 74 76 84 88 79 67 64 67 63 55 55 64 69 63 58 67 80 
82 71 57 52 57 58 48 40 41 50 58 60 57 60 65 64 66 80 96 91 73 68 77 80 71 57 
47 46 59 79 103 134 165 189 200 205 212 224 229 222 212 212 230 255 255 255 
255 255 255 227 188 148 101 50 19 22 40 46 44 47 55 62 64 61 54 49 47 53 64 68 
56 48 58 73 71 62 61 66 67 66 70 70 59 49 48 53 55 59 70 72 72 71 73 74 74 69 
66 72 75 67 56 55 60 60 56 60 67 65 54 53 66 79 79 68 54 49 56 64 60 49 43 49 
64 74 72 69 70 71 76 86 95 87 69 64 74 81 76 61 48 49 60 71 91 127 166 190 195 
193 199 210 216 207 196 196 216 252 255 255 255 255 255 242 203 160 112 61 30 
32 46 50 47 49 54 59 62 59 56 54 51 52 62 70 60 49 57 73 72 60 57 61 63 66 71 
68 58 54 60 68 71 72 78 73 74 73 77 78 72 59 56 64 70 65 58 59 63 59 55 60 69 
69 62 64 76 83 78 66 54 44 44 50 47 38 34 42 62 78 82 77 75 77 80 86 90 82 66 
60 67 77 73 59 48 51 58 61 77 116 158 182 186 186 190 196 196 187 176 177 199 
237 255 255 255 255 255 252 208 160 112 66 37 34 42 44 44 47 51 55 58 58 59 60 
54 50 58 68 61 51 59 76 77 66 60 61 62 66 69 67 67 73 81 85 82 78 80 74 75 76 
74 75 67 55 53 66 77 76 73 73 69 59 52 59 70 75 73 75 82 84 79 70 58 43 36 37 
36 34 37 47 62 77 84 84 81 77 75 77 83 81 69 60 65 74 68 51 40 44 50 52 68 103 
141 163 173 179 183 181 172 160 151 157 182 223 255 255 255 255 255 255 203 
148 101 63 38 32 37 41 42 44 48 52 56 59 62 62 56 51 57 66 61 53 63 82 86 77 
67 63 62 66 67 67 75 86 91 90 86 81 80 71 70 71 63 68 68 59 56 65 77 80 81 79 
71 61 57 62 70 75 75 74 77 77 75 71 59 43 37 39 42 47 56 64 69 75 81 82 79 71 
65 70 84 89 79 67 67 70 61 42 29 30 37 47 68 97 125 144 161 176 181 174 158 
141 131 137 166 210 251 255 255 255 255 243 191 135 90 54 30 25 34 42 42 42 44 
51 57 60 61 58 53 52 60 69 68 62 67 81 90 86 73 64 63 68 68 66 74 84 85 85 91 
90 86 66 62 60 56 63 68 66 62 65 72 76 78 78 73 68 68 69 68 69 69 66 66 66 63 
61 55 45 41 47 54 60 67 71 70 67 67 67 65 58 55 66 87 98 89 73 65 60 51 37 25 
18 21 39 68 93 112 133 158 177 182 174 156 133 115 116 144 191 237 255 255 255 
249 219 175 128 85 45 17 14 30 44 46 45 47 53 58 59 58 54 47 46 55 67 71 67 66 
73 82 86 78 67 64 69 70 66 67 72 72 75 88 95 88 62 59 54 58 62 67 70 70 70 71 
72 75 78 76 74 75 73 67 63 60 55 52 48 44 45 48 46 44 50 57 59 58 59 59 54 47 
46 46 45 46 58 79 93 91 76 59 46 43 43 32 13 10 32 61 80 96 122 154 172 174 
164 147 123 100 96 117 161 209 242 251 243 223 195 161 122 78 33 5 7 27 45 54 
55 57 61 60 56 54 52 47 43 47 56 61 60 58 60 68 75 74 67 63 67 69 66 62 62 60 
62 73 83 78 65 63 59 64 64 67 74 77 73 67 66 73 79 77 71 69 68 65 60 51 41 37 
33 30 34 42 44 43 49 56 55 49 50 55 49 40 37 41 42 44 52 66 82 90 85 67 50 46 
50 41 19 10 26 49 64 80 110 144 158 150 136 121 101 83 80 98 134 177 210 224 
220 203 178 149 111 62 17 0 10 28 44 56 62 64 65 58 49 47 53 56 52 50 53 56 55 
54 55 59 62 62 59 58 62 67 68 63 59 56 55 62 72 71 69 68 67 69 67 71 81 85 72 
59 59 71 77 71 61 58 58 60 56 45 35 32 33 33 35 39 40 42 48 55 57 57 62 67 59 
46 43 49 54 56 60 70 84 96 98 87 71 59 51 36 20 15 24 41 56 75 101 126 134 122 
103 88 77 72 79 99 131 164 187 199 202 191 168 138 97 43 4 2 19 29 36 49 58 60 
59 50 39 40 55 63 59 56 61 64 61 60 61 60 55 53 53 54 58 65 69 66 63 61 61 65 
72 75 69 69 70 74 71 76 89 93 75 58 59 70 73 65 58 56 55 55 51 43 39 41 45 48 
48 46 45 47 52 57 62 70 79 81 68 52 48 57 66 71 76 83 91 97 100 98 88 71 49 28 
18 17 20 33 55 78 93 102 108 103 87 72 66 72 88 114 146 174 186 188 189 180 
156 125 85 35 0 3 21 25 25 38 49 49 48 43 32 33 49 56 49 49 62 70 69 66 66 63 
57 59 63 60 56 61 68 68 67 70 70 71 75 78 69 70 74 78 71 72 84 91 79 64 64 71 
68 62 62 63 58 52 48 45 47 51 56 61 62 59 57 59 58 57 61 71 81 80 67 52 49 59 
69 74 78 82 84 85 89 94 92 77 54 34 25 21 18 28 56 79 83 81 89 100 97 85 78 85 
103 127 160 189 201 196 187 168 138 107 74 33 2 2 18 21 19 31 41 40 41 44 34 
26 33 42 40 41 57 72 71 66 64 61 62 74 83 72 57 58 66 68 71 75 71 67 72 78 73 
76 80 81 73 68 71 76 74 68 71 72 65 58 63 67 62 52 47 48 51 55 61 67 71 68 65 
62 55 51 54 62 67 67 59 50 50 59 66 66 67 71 73 76 83 91 91 82 67 50 39 28 19 
27 55 78 79 76 90 111 117 106 98 104 121 141 170 203 221 215 194 164 127 95 65 
31 5 6 19 23 23 32 37 35 41 51 42 24 23 37 46 50 59 70 70 66 62 58 64 81 91 77 
57 56 65 70 72 74 67 58 66 83 77 80 85 81 78 70 63 62 63 68 76 76 64 56 62 70 
65 56 51 51 53 57 63 71 75 72 64 55 48 48 54 59 59 58 57 55 56 62 65 60 60 68 
76 84 93 97 94 87 76 60 46 34 26 34 60 82 88 93 109 126 129 118 111 123 143 
161 184 216 236 232 209 176 137 101 66 32 12 16 25 28 30 37 38 34 41 56 50 31 
27 42 56 59 58 60 63 66 67 63 63 73 77 66 53 55 64 66 67 68 63 54 62 83 73 76 
81 78 82 76 64 58 58 65 75 75 64 59 68 77 71 60 54 54 56 61 67 73 75 73 65 53 
48 53 61 64 63 64 66 67 66 65 60 56 60 74 87 95 101 102 96 89 79 63 48 40 41 
53 74 96 112 128 142 148 143 131 129 144 167 181 196 220 239 240 225 198 160 
118 77 43 27 28 29 28 34 43 42 36 41 53 52 41 40 50 55 50 45 45 54 66 74 72 66 
64 58 51 50 58 65 63 59 59 58 54 58 72 67 67 71 75 80 75 66 61 58 60 66 65 58 
60 74 82 74 63 58 58 63 69 72 72 71 71 67 56 50 54 60 61 63 69 74 75 72 63 52 
48 59 76 89 94 97 97 93 86 79 68 54 48 57 74 93 115 142 167 181 181 173 165 
163 176 193 200 202 216 236 245 239 216 178 133 92 60 44 38 30 28 38 48 47 42 
46 52 51 50 55 58 51 39 36 41 52 66 75 77 73 64 53 47 52 66 74 71 61 56 59 60 
60 63 67 66 68 75 75 71 66 62 57 55 59 58 53 57 70 76 71 65 63 67 74 78 75 67 
63 64 61 50 43 45 48 46 50 60 66 69 67 59 46 41 51 68 78 84 89 92 87 81 78 74 
63 55 64 85 108 136 172 203 217 215 208 203 203 209 219 222 218 222 237 251 
249 226 184 139 101 72 52 40 32 34 45 51 48 50 58 60 57 59 68 66 51 39 42 52 
61 66 70 77 82 76 61 51 54 69 84 84 73 67 71 74 69 64 77 75 73 76 74 71 66 58 
52 55 64 64 57 57 63 65 66 67 71 76 83 81 71 62 60 60 52 39 33 37 40 39 42 50 
55 57 59 56 45 37 40 50 58 69 84 93 89 83 84 85 76 64 70 92 122 158 199 229 
241 238 232 230 229 230 234 240 241 240 245 250 246 223 181 136 100 74 53 38 
35 43 52 51 47 56 69 72 66 66 71 65 49 44 54 68 72 68 69 80 91 87 69 52 50 64 
81 86 79 75 81 85 78 70 80 79 77 78 77 75 68 55 50 59 71 71 67 65 64 61 63 68 
74 81 83 73 62 62 69 67 51 34 29 35 41 44 48 53 53 51 52 51 43 33 29 30 36 52 
76 95 98 96 100 104 97 87 91 113 142 177 212 238 250 251 248 245 240 233 230 
237 248 252 246 237 225 205 169 125 92 70 51 34 32 42 51 50 50 59 70 71 64 60 
57 49 42 46 62 76 78 74 76 86 94 86 65 48 47 60 73 78 73 70 76 82 78 72 65 64 
71 78 81 80 73 60 56 65 72 69 68 72 69 61 58 62 67 72 69 57 51 66 85 83 61 40 
32 34 41 46 51 55 53 48 45 43 38 31 25 23 25 40 66 90 102 108 118 126 123 118 
125 143 164 184 207 229 245 251 249 245 236 224 214 218 233 242 232 212 194 
177 149 111 81 63 47 29 20 27 38 47 55 62 63 60 54 48 42 36 39 53 70 78 75 75 
80 86 83 70 55 49 56 67 72 72 68 63 63 67 71 73 45 47 63 80 83 81 75 67 64 71 
71 64 64 71 69 59 54 55 57 55 49 39 43 67 90 89 70 49 37 33 36 43 46 47 48 50 
47 39 31 28 27 25 27 37 55 75 91 107 124 139 143 142 150 166 178 184 194 212 
228 234 230 222 214 205 196 195 205 211 199 175 156 143 123 93 68 54 40 21 7 9 
20 37 54 61 59 54 51 48 42 38 44 59 72 72 66 68 76 77 68 55 51 57 67 71 70 68 
68 65 61 62 68 73 43 46 64 79 80 75 67 60 61 70 72 66 65 68 65 57 55 59 57 48 
40 38 46 64 79 77 67 55 45 40 41 44 42 40 44 53 54 41 26 22 24 26 33 45 57 68 
81 98 119 138 149 152 159 175 186 185 187 201 214 215 205 190 179 175 171 167 
168 166 153 130 114 105 92 69 49 38 28 15 6 5 13 28 45 56 59 59 59 57 52 48 50 
56 59 57 56 61 69 69 62 55 58 66 69 63 58 61 70 75 74 73 73 72 56 58 70 73 74 
69 58 50 55 68 76 74 71 70 65 58 59 66 65 56 51 55 61 63 59 53 52 53 54 55 55 
50 42 37 39 49 52 38 21 17 21 28 42 61 74 82 89 100 113 128 142 151 160 177 
189 189 187 196 205 205 193 172 150 137 132 128 122 117 105 88 74 68 61 47 30 
19 13 11 13 16 19 27 39 51 58 60 61 61 58 54 49 44 42 45 53 61 65 66 65 64 68 
72 66 54 50 59 73 81 84 83 77 69 67 67 68 66 71 68 62 58 64 75 80 76 75 78 73 
59 55 62 66 61 61 69 72 63 45 34 37 48 59 66 63 50 37 33 33 39 41 30 20 23 32 
43 59 81 98 106 109 110 112 119 134 150 160 173 184 187 186 190 198 200 191 
171 140 112 97 91 85 77 66 54 47 46 43 36 24 12 5 7 17 26 30 33 41 51 55 54 54 
56 58 54 45 34 33 47 63 66 64 67 71 72 74 73 63 53 54 66 77 79 79 79 75 65 72 
67 61 62 68 68 68 71 75 77 75 70 72 83 80 60 47 52 59 56 57 68 73 64 47 35 37 
49 61 68 61 43 32 31 32 35 35 29 29 41 55 66 84 108 124 127 123 118 113 116 
133 154 166 171 177 182 188 193 197 197 191 174 144 110 87 75 65 51 37 29 33 
41 42 40 34 23 12 8 16 27 38 46 53 54 51 49 52 57 58 52 40 29 33 57 78 76 67 
69 77 78 75 70 60 52 58 72 78 73 69 70 69 65 70 66 58 65 68 67 65 67 68 70 70 
67 69 79 79 63 49 51 57 56 54 61 68 67 58 51 54 61 67 68 59 43 35 35 33 32 33 
34 42 61 77 92 116 145 158 151 136 124 115 115 133 159 176 178 179 188 200 210 
212 208 198 179 149 118 96 81 63 40 21 16 28 43 47 46 45 38 26 17 18 27 43 58 
63 55 47 48 58 65 64 55 41 29 36 64 88 87 76 74 79 77 70 63 56 52 58 72 78 71 
66 68 70 68 66 65 61 72 74 69 62 57 56 63 71 74 73 73 71 64 57 56 60 62 60 59 
60 61 60 60 65 71 70 63 55 48 41 33 22 18 25 36 53 79 102 124 154 187 199 184 
161 142 125 115 126 157 183 188 190 201 216 229 233 228 212 188 157 128 109 
93 73 48 26 18 29 43 43 41 44 44 37 30 29 36 51 65 66 53 43 49 63 71 70 64 52 
39 42 65 86 88 80 75 74 71 64 56 53 55 59 69 74 72 72 74 73 70 66 66 67 72 76 
76 70 62 59 66 76 81 79 73 70 67 62 56 55 59 60 56 54 56 56 53 54 60 57 47 41 
41 36 22 6 5 19 39 64 100 136 162 188 214 229 221 198 174 148 122 119 147 180 
192 195 207 223 235 243 240 224 200 170 143 122 104 88 69 46 32 37 43 39 37 43 
47 46 47 52 57 64 71 71 61 53 58 66 68 68 70 64 54 53 64 75 77 72 66 65 66 62 
56 54 56 58 62 66 70 75 78 74 69 70 69 68 61 69 75 75 72 71 74 78 79 78 75 73 
73 68 57 51 53 55 53 54 59 58 46 35 36 35 30 28 30 27 16 9 17 36 55 79 120 165 
195 212 229 242 244 231 207 175 142 128 144 171 183 190 206 224 236 245 246 
233 213 190 166 139 115 100 86 63 44 46 52 50 50 55 56 55 63 73 77 75 75 78 78 
75 73 67 60 59 63 65 61 60 64 67 66 62 60 61 65 64 58 54 54 54 55 59 65 72 76 
73 71 76 72 62 51 60 68 71 72 77 79 76 71 69 69 68 70 71 65 58 56 56 55 57 64 
63 47 29 25 29 31 32 35 34 33 38 55 72 82 97 132 178 210 228 241 248 249 240 
220 192 165 149 151 163 173 186 205 223 238 252 255 242 223 207 188 156 125 
105 90 66 48 52 67 74 75 73 66 60 68 79 79 70 66 74 84 85 77 65 55 52 55 58 57 
57 60 62 62 62 62 63 64 61 58 57 54 50 51 55 59 66 72 72 74 83 76 56 51 59 66 
66 68 77 82 76 68 66 64 59 62 72 76 69 62 61 61 61 64 62 48 33 31 39 46 50 56 
64 73 85 99 107 107 115 141 177 207 230 245 245 235 224 210 191 174 162 155 
157 168 186 203 214 228 248 255 244 224 210 193 164 129 106 90 68 51 57 78 91 
90 81 69 62 65 72 69 57 51 57 70 75 69 60 57 56 56 54 49 46 52 59 63 64 66 64 
59 56 60 65 59 51 49 54 60 67 72 72 74 85 79 59 56 60 66 66 66 74 81 78 73 74 
72 62 62 76 84 75 63 66 72 70 64 57 45 34 35 46 57 65 77 98 118 132 137 134 
127 132 149 168 187 213 232 227 211 200 191 179 168 157 145 143 159 180 193 
195 202 220 232 225 208 196 185 163 132 110 96 79 63 65 80 89 83 74 66 63 65 
69 64 51 40 42 53 63 63 58 56 58 60 57 47 40 48 61 64 60 60 58 53 55 67 76 68 
52 48 57 69 78 78 72 68 77 75 64 61 57 62 66 67 71 76 75 77 84 84 71 64 76 86 
76 64 71 84 84 72 58 45 35 37 49 65 79 97 126 154 170 169 157 144 144 150 151 
162 189 209 201 187 181 174 163 153 140 125 121 138 160 172 172 172 181 191 
190 181 177 175 162 136 115 102 89 76 74 78 76 67 61 59 58 62 67 65 51 35 32 
44 61 66 57 48 50 57 59 51 45 54 68 67 56 49 49 51 56 66 73 68 52 47 59 76 85 
81 72 66 69 71 70 64 54 57 63 66 69 71 71 75 85 86 72 61 69 79 75 67 75 89 92 
82 68 54 45 46 59 81 104 129 157 185 200 200 185 162 148 141 136 142 166 182 
176 167 167 159 142 132 123 108 101 113 134 148 151 147 145 151 156 157 160 
165 157 133 109 95 86 78 76 74 66 59 59 57 50 51 60 62 50 32 25 37 60 70 59 46 
47 58 63 58 54 61 72 72 61 50 49 52 54 54 54 55 51 51 60 71 77 78 77 74 72 77 
77 63 55 59 64 67 69 70 68 72 82 84 72 61 64 71 70 69 77 88 89 81 70 58 52 56 
72 99 132 166 197 220 232 233 218 188 158 139 126 125 140 151 148 145 147 137 
118 108 107 98 91 97 112 125 130 126 120 122 131 136 138 139 131 108 83 71 70 
70 71 67 61 61 67 63 48 43 53 58 50 36 27 35 55 66 60 53 60 70 71 65 59 59 66 
73 73 65 60 58 54 45 39 44 53 60 61 60 63 74 81 81 75 78 76 58 59 67 70 70 70 
69 67 70 81 85 78 68 65 66 66 71 80 87 83 72 57 43 40 51 75 107 147 192 231 
253 255 255 253 218 178 146 122 109 110 114 113 113 115 106 91 85 88 89 85 88 
97 103 105 105 102 101 104 107 103 97 90 73 54 47 54 62 61 56 53 59 70 67 52 
44 50 55 51 46 42 44 54 59 56 59 69 76 76 70 61 52 55 69 80 79 73 65 56 46 40 
46 59 67 62 56 61 75 78 72 67 69 66 60 68 78 77 70 67 66 63 66 76 81 77 68 63 
62 67 77 86 86 77 63 42 23 22 40 69 102 143 192 237 255 255 255 255 236 191 
151 117 93 82 77 71 68 70 70 65 63 68 72 73 78 85 85 82 84 86 82 78 75 69 64 
63 56 42 37 47 56 50 41 40 48 58 61 54 45 44 45 46 50 56 58 55 49 46 51 60 66 
70 71 64 52 50 60 72 76 73 65 55 49 48 52 60 65 62 61 71 79 70 54 61 62 61 68 
76 84 80 67 60 58 57 59 65 69 66 58 54 59 72 84 86 80 73 63 44 22 19 36 62 90 
126 173 220 253 255 255 255 233 189 148 111 81 61 46 32 26 32 41 44 46 51 56 
61 70 77 75 68 66 69 67 63 60 56 55 59 57 46 41 49 53 43 33 36 45 50 53 52 45 
40 39 41 47 57 62 54 41 36 41 49 56 63 70 70 62 55 53 55 59 63 59 53 53 57 58 
59 61 63 70 79 78 61 44 65 67 68 74 78 83 79 66 57 54 54 56 60 63 61 53 50 58 
72 80 76 70 69 69 57 38 28 36 52 75 107 149 194 231 253 255 244 215 181 146 
107 70 43 23 7 5 19 32 35 35 40 48 57 68 75 71 61 55 56 58 62 64 61 58 59 56 
47 45 53 55 44 37 43 52 55 56 58 52 45 42 45 51 60 62 53 40 38 45 56 66 73 75 
72 69 66 59 50 48 53 58 60 64 69 70 65 62 67 73 73 67 57 51 70 73 76 74 72 74 
74 68 62 60 61 63 65 67 64 55 51 57 65 67 63 63 67 69 62 49 37 36 43 60 88 126 
167 204 227 226 206 184 166 139 99 58 30 13 2 6 26 40 37 29 29 38 51 64 73 70 
59 53 54 56 61 65 63 58 54 49 43 44 53 56 47 39 44 51 56 64 72 66 54 49 55 64 
71 71 60 49 48 59 74 87 88 78 65 64 71 75 68 58 55 62 74 80 80 78 70 64 68 72 
66 59 61 64 68 70 75 68 63 63 68 70 69 71 75 75 73 70 64 56 53 57 58 57 58 63 
67 66 62 56 47 41 38 45 65 95 129 165 189 186 162 142 132 116 86 54 35 24 12 
12 30 46 44 29 20 27 44 63 73 70 62 60 60 56 53 54 55 54 53 49 43 44 51 52 42 
33 35 42 52 71 85 79 63 57 62 72 80 81 70 58 58 68 83 92 86 68 53 54 70 89 92 
77 63 67 81 84 76 69 64 63 67 69 64 62 69 73 62 64 70 69 62 60 67 73 77 80 82 
80 74 68 61 57 57 60 61 60 62 67 69 68 69 67 58 44 32 29 41 62 88 119 142 142 
120 98 89 82 69 57 52 45 27 16 27 47 52 39 27 31 49 71 80 73 65 66 65 54 44 43 
47 51 56 56 52 50 52 51 39 30 33 42 56 78 93 86 72 66 65 67 74 78 70 60 60 70 
80 80 68 54 48 54 70 91 99 83 65 66 77 75 62 56 59 63 67 66 61 63 72 73 61 63 
70 83 75 68 70 77 82 83 81 75 69 63 59 57 59 64 67 67 67 67 69 73 78 75 60 39 
23 21 33 48 66 85 98 98 82 63 55 57 59 60 61 57 42 26 32 51 60 53 46 49 62 77 
80 70 61 63 60 51 44 43 42 44 53 62 66 66 64 58 47 40 43 55 69 82 86 80 76 76 
67 57 61 68 62 54 59 72 79 71 58 53 58 65 71 82 88 75 60 61 69 66 56 56 65 71 
68 59 53 57 66 68 62 65 78 99 90 74 68 73 81 81 76 69 62 57 55 55 59 65 73 74 
69 65 68 74 77 70 54 33 22 27 42 56 64 67 67 63 52 42 40 49 56 56 55 56 53 45 
48 60 64 60 57 57 61 66 66 57 50 51 51 47 48 48 39 34 44 62 76 80 75 66 57 51 
53 64 75 77 70 65 74 84 74 59 59 65 59 52 59 73 79 71 61 62 72 74 67 68 74 69 
59 61 68 66 60 64 74 76 67 55 50 55 63 65 61 66 86 103 92 71 61 65 73 75 72 67 
60 55 55 59 62 68 78 81 72 66 69 70 64 59 52 40 34 40 51 58 59 55 47 43 39 36 
40 51 56 50 45 52 60 59 60 64 63 58 55 50 45 46 49 45 43 46 49 49 51 49 41 36 
45 64 79 81 74 66 59 54 54 61 70 70 62 61 74 87 82 70 68 70 63 55 59 68 72 68 
63 65 73 70 60 58 68 70 63 63 71 73 67 68 76 77 68 60 58 62 67 68 61 67 90 96 
83 66 58 59 61 64 67 67 63 62 67 73 72 72 81 85 78 70 69 65 58 59 64 58 49 47 
47 46 45 43 38 38 38 36 40 50 54 46 43 54 61 57 55 59 61 61 58 47 36 37 45 46 
46 52 55 53 49 47 49 55 62 70 75 74 68 63 58 52 50 56 64 65 62 62 71 81 83 78 
73 70 63 58 59 64 67 64 61 62 63 59 51 55 67 71 63 63 75 81 74 72 77 80 77 74 
72 72 75 75 68 74 91 88 77 67 62 56 49 50 58 65 64 66 76 83 78 71 75 81 78 70 
65 63 65 72 78 70 58 53 49 44 42 41 38 39 41 37 36 45 51 48 47 55 56 47 46 56 
65 71 72 60 44 43 52 52 51 56 59 51 40 40 54 69 71 69 68 68 67 66 63 56 53 58 
62 61 58 55 58 67 75 75 67 61 58 57 59 65 69 67 61 57 56 53 50 57 69 70 61 61 
75 84 81 77 80 83 84 84 82 79 83 83 79 82 89 83 78 73 68 57 43 41 51 58 57 58 
68 79 77 69 68 72 69 61 56 61 74 83 79 65 58 61 63 59 55 50 42 41 44 41 39 47 
55 52 48 49 50 46 51 62 68 72 77 69 53 49 56 57 50 50 52 43 29 29 47 61 58 54 
60 66 67 70 70 66 63 64 63 57 52 47 45 52 64 66 59 55 56 57 60 66 71 69 62 56 
55 55 55 60 68 68 61 61 70 79 80 78 78 78 77 80 82 81 86 88 77 78 82 82 81 79 
75 63 46 42 49 54 51 48 57 71 77 72 64 62 58 49 47 58 75 79 68 55 55 66 74 74 
70 61 49 45 49 51 51 58 64 58 47 45 50 57 68 75 70 62 62 58 51 50 58 59 49 43 
47 45 35 32 40 46 43 46 57 64 63 64 69 68 65 64 63 60 59 54 45 46 56 60 56 57 
62 64 64 66 69 70 68 63 59 56 55 58 63 65 64 64 67 72 77 77 74 67 65 69 73 72 
76 80 61 64 75 81 78 78 79 71 56 48 51 58 57 55 59 71 79 72 60 55 51 45 45 58 
70 70 60 52 54 63 71 74 74 69 59 54 57 59 59 63 69 63 53 52 59 68 78 83 75 58 
45 41 42 49 59 61 53 48 57 63 57 48 46 46 45 49 58 61 57 55 58 59 58 59 63 67 
70 65 53 47 51 55 57 61 66 67 65 62 65 76 82 75 62 54 53 54 56 60 67 71 70 73 
78 78 73 66 65 69 68 61 59 67 50 56 74 72 69 73 79 77 68 57 51 57 69 72 70 72 
75 70 59 55 54 50 51 61 67 65 60 56 55 59 64 69 74 74 69 66 67 62 55 58 67 68 
63 65 68 70 73 78 75 59 41 34 37 48 59 60 54 54 68 78 72 58 50 51 50 52 54 55 
56 56 55 53 52 52 56 61 66 62 54 50 49 47 51 60 65 65 59 53 59 76 87 81 64 53 
53 56 55 60 72 77 73 73 76 76 76 77 79 81 76 63 57 67 57 61 71 60 62 70 75 75 
73 63 49 53 71 81 74 66 68 70 67 65 60 56 57 62 63 61 62 59 56 60 67 71 74 75 
72 75 80 69 53 54 66 71 70 72 70 63 59 62 63 54 42 36 39 49 59 59 51 52 66 75 
67 51 45 49 52 49 45 48 58 67 67 60 53 48 46 50 54 54 54 54 47 40 46 60 70 70 
60 52 55 66 76 74 65 59 60 63 63 68 78 78 69 65 66 69 77 85 87 86 83 72 66 73 
69 67 65 53 59 69 70 69 71 65 51 51 70 80 69 58 63 73 74 69 60 55 58 60 57 57 
62 63 62 68 73 71 68 68 70 80 91 82 62 57 70 75 70 68 66 58 50 47 45 42 40 41 
44 53 66 69 59 53 60 67 59 47 44 52 56 51 43 45 58 71 72 65 55 48 47 50 53 54 
57 56 47 40 50 69 82 85 78 69 62 61 61 63 65 67 68 69 70 79 86 79 64 58 62 66 
74 80 76 72 73 71 67 69 71 69 59 52 59 68 67 66 69 66 59 61 76 80 69 62 67 72 
69 60 52 50 56 59 57 60 68 72 73 75 71 63 57 62 71 83 92 86 67 62 72 74 63 56 
58 59 56 47 38 36 42 48 48 53 69 83 77 64 63 69 67 56 54 62 64 57 47 46 53 61 
62 56 52 53 59 62 59 54 52 50 43 45 61 77 87 93 94 88 78 67 59 59 66 73 73 70 
72 83 88 76 60 57 64 68 71 68 59 54 58 63 61 61 69 67 58 53 58 66 66 64 65 65 
66 72 83 85 80 78 78 71 62 53 48 49 56 62 66 72 80 82 80 75 67 58 56 65 76 83 
83 75 61 61 69 68 53 44 48 57 61 55 46 42 47 51 49 50 64 82 83 69 65 77 83 72 
62 62 61 55 50 48 49 52 52 50 54 64 70 67 58 49 44 41 41 53 70 77 79 84 90 87 
80 72 64 61 67 75 75 69 69 78 81 68 53 53 62 68 68 61 52 51 57 61 60 62 64 64 
58 56 60 64 63 60 60 63 67 72 80 86 88 89 84 70 60 56 55 55 60 69 78 84 87 84 
77 71 68 65 65 71 79 80 73 60 54 59 66 61 47 39 42 50 57 58 54 50 50 51 50 53 
64 74 72 60 61 78 88 78 63 56 52 48 48 51 53 57 59 56 59 69 72 65 57 51 46 44 
48 62 73 71 66 70 74 69 68 69 66 62 64 70 71 66 66 73 74 64 52 50 58 66 68 61 
54 59 68 69 65 67 62 62 58 61 61 62 61 60 61 64 65 66 72 81 85 81 73 63 59 64 
66 62 63 72 80 83 82 76 66 63 68 71 68 68 75 78 69 56 54 62 67 60 49 45 45 46 
50 54 55 54 53 53 55 62 69 69 62 55 59 74 81 74 62 56 52 49 51 56 62 71 76 69 
63 65 66 64 61 58 53 51 59 70 73 68 64 66 64 57 59 69 70 61 57 60 62 61 64 71 
72 66 59 56 60 69 71 61 53 62 78 78 70 68 66 63 61 61 59 58 62 66 68 68 66 67 
72 76 73 65 59 58 62 69 70 63 61 67 72 72 71 66 59 58 67 70 61 58 70 82 76 63 
61 66 68 62 56 54 52 50 51 52 53 54 55 56 59 64 66 62 61 63 69 74 73 66 63 62 
59 57 60 63 66 76 81 73 62 58 58 60 61 57 50 53 65 75 75 69 67 68 63 58 62 73 
73 62 56 57 58 60 65 67 64 64 66 65 64 68 69 57 45 54 76 82 70 64 70 67 63 56 
53 56 65 72 71 67 69 73 74 69 59 53 56 61 67 68 63 58 58 63 64 63 64 66 64 62 
67 67 57 56 72 88 85 74 68 66 64 61 62 62 59 59 59 56 51 53 56 57 59 60 56 55 
66 80 85 78 69 63 63 63 62 63 67 67 65 69 75 70 62 56 54 54 54 49 46 54 67 74 
75 73 71 67 61 61 68 74 70 62 62 66 66 65 65 63 59 62 69 70 64 61 62 57 46 47 
64 77 70 61 66 63 59 55 51 57 68 73 66 61 68 74 67 53 45 50 59 64 64 61 56 55 
58 60 60 61 68 75 75 69 66 66 64 67 78 87 86 80 72 63 55 57 66 68 65 66 68 63 
54 53 56 57 57 58 56 59 76 93 92 79 69 66 65 64 61 63 67 66 64 70 76 74 69 63 
56 52 51 51 55 64 71 72 74 76 73 66 62 66 71 71 65 63 70 76 75 68 64 63 65 71 
76 76 69 62 63 66 61 53 56 66 67 62 58 57 56 61 56 62 72 72 61 59 68 69 55 41 
42 55 63 60 55 55 59 64 64 58 56 61 75 84 79 68 63 67 73 77 79 79 80 79 73 61 
52 58 70 72 65 66 73 70 60 55 55 54 55 61 66 69 79 88 84 73 71 73 71 67 64 63 
66 66 68 78 86 85 79 73 64 58 59 64 73 80 79 73 75 79 76 69 69 73 75 70 66 68 
73 75 72 65 59 63 75 84 84 82 80 76 76 80 79 67 59 61 62 61 60 61 64 65 57 65 
75 72 61 63 71 69 55 46 52 66 67 58 52 57 69 77 73 60 54 61 73 78 70 61 60 70 
79 78 72 70 75 78 72 62 59 66 74 71 60 60 71 75 68 59 57 56 58 65 71 71 69 70 
68 67 69 71 69 67 67 68 70 71 71 78 87 88 83 78 71 69 73 80 86 88 82 75 77 80 
75 71 75 81 79 74 73 74 72 67 66 63 58 63 76 82 78 77 84 88 86 86 86 77 66 60 
58 59 70 72 74 61 51 60 71 67 61 68 79 79 70 63 68 76 74 63 57 61 71 78 75 66 
61 64 66 65 61 58 60 69 75 70 60 61 73 78 72 66 68 73 73 66 58 61 72 77 72 64 
61 63 66 69 69 65 60 59 64 65 63 58 54 56 61 67 73 76 72 71 78 84 82 76 74 78 
84 86 84 81 77 74 75 75 69 68 75 83 80 75 76 77 71 66 70 72 67 65 70 70 63 66 
80 86 80 75 75 73 66 61 58 62 74 76 75 61 50 56 65 63 61 70 84 90 87 82 81 83 
80 70 62 62 65 69 72 72 72 69 63 62 68 69 64 65 68 62 53 57 71 76 72 70 73 73 
67 64 66 73 78 79 75 67 63 65 67 65 63 62 62 66 71 69 58 45 41 46 53 59 68 76 
73 66 71 80 79 71 69 77 82 79 73 71 71 71 73 72 68 68 76 82 76 70 72 77 75 71 
74 79 75 68 66 63 58 61 72 74 65 58 60 63 67 69 70 74 71 73 72 70 64 67 72 71 
67 70 82 90 91 89 88 87 80 70 64 64 66 67 68 72 76 73 65 69 82 81 67 60 65 65 
56 58 71 75 71 71 73 67 58 62 76 84 81 76 74 69 64 61 59 55 56 60 67 74 78 71 
57 46 44 49 52 53 61 72 73 68 71 78 75 65 63 68 70 65 64 68 71 72 75 74 70 72 
80 83 74 65 67 76 78 71 67 70 76 77 73 68 65 64 64 62 60 60 62 69 81 89 85 79 
67 68 72 79 83 86 88 84 75 72 77 83 82 80 81 79 71 62 60 65 68 67 65 65 67 69 
68 72 81 79 64 58 67 68 60 61 73 77 71 69 69 61 54 64 82 85 74 67 71 74 71 66 
59 54 52 58 67 76 76 68 62 61 61 61 56 53 60 71 74 71 73 78 75 66 63 62 58 53 
59 70 75 76 77 72 65 69 83 88 77 66 67 75 76 66 58 61 72 80 79 74 70 69 65 65 
70 77 79 85 96 96 81 67 62 63 70 76 86 92 92 84 73 70 75 77 73 68 68 67 62 57 
59 62 63 62 61 58 57 60 63 67 72 69 61 61 67 63 54 59 75 78 68 63 62 58 57 69 
85 84 70 60 66 77 81 79 74 65 58 58 68 77 73 67 71 80 79 69 60 58 64 73 77 75 
76 80 80 76 72 65 54 50 61 74 77 77 76 67 58 65 85 94 84 72 72 76 74 67 62 62 
67 72 72 70 71 74 76 78 82 84 85 91 97 89 65 52 59 58 64 67 75 81 78 68 59 61 
69 72 69 66 65 64 62 62 64 61 55 56 63 64 59 56 57 63 70 74 72 71 68 55 44 54 
71 74 64 59 59 58 59 71 86 88 77 65 66 77 83 83 80 75 65 60 68 77 72 67 76 89 
88 74 66 67 71 73 73 71 73 78 83 84 81 70 56 56 70 80 77 74 71 62 55 66 87 94 
84 75 78 80 76 73 71 65 59 58 60 64 69 76 83 85 82 78 78 87 95 86 63 53 63 60 
61 65 70 72 64 54 50 53 59 63 65 68 71 72 70 68 68 63 55 57 69 73 67 60 60 67 
78 86 85 81 72 56 46 53 66 67 59 60 65 62 57 64 80 89 85 75 72 77 77 72 71 73 
67 59 62 68 67 68 77 86 84 75 72 73 71 65 60 57 62 69 73 79 82 74 62 64 79 84 
75 66 63 60 60 69 83 85 75 73 81 82 78 80 79 66 54 53 57 61 65 72 80 83 79 74 
75 87 98 93 76 66 72 70 66 74 79 78 66 56 55 55 54 56 62 69 77 79 72 63 62 64 
60 59 66 69 65 63 68 76 83 84 80 76 73 65 57 58 64 62 58 64 72 67 55 55 69 83 
83 75 73 76 70 61 62 70 68 57 53 54 59 69 79 79 74 73 74 69 59 52 48 47 53 58 
59 66 77 77 66 66 78 80 68 59 60 66 69 70 74 77 73 76 84 84 81 87 87 72 61 61 
63 61 61 65 73 79 80 76 76 85 93 90 80 73 75 74 73 79 88 89 77 66 64 64 62 61 
64 72 81 82 69 52 50 62 67 62 57 53 52 59 70 76 74 67 60 63 72 71 67 66 69 66 
63 67 73 67 56 55 67 78 76 67 64 66 62 58 65 75 70 58 50 48 55 70 81 77 71 73 
73 60 45 43 48 52 56 55 51 56 70 74 65 63 70 68 58 55 66 78 79 70 69 78 85 90 
93 88 82 86 88 79 72 71 68 64 63 64 67 73 76 73 71 74 77 75 71 71 66 69 72 
