P2
112 112
255
83 76 72 70 67 70 83 90 83 73 70 73 78 79 78 77 80 83 81 75 69 66 69 74 76 75 
73 73 74 75 78 82 82 83 85 83 76 71 71 76 76 68 58 57 63 67 67 69 77 82 80 76 
76 80 82 79 74 76 78 71 66 72 78 75 73 76 75 70 69 73 76 75 77 78 75 72 77 81 
79 76 78 80 80 80 80 78 69 60 61 69 75 75 74 76 81 83 77 71 72 75 75 72 69 69 
74 81 83 80 76 76 80 82 79 73 72 71 69 75 86 90 83 76 75 75 75 74 72 72 77 81 
80 73 66 66 72 78 79 77 76 77 77 74 73 75 76 78 82 82 77 74 74 77 78 72 64 63 
69 73 72 73 79 82 77 73 76 80 77 69 64 71 75 69 64 68 72 70 68 70 70 66 64 68 
75 81 83 80 73 70 75 80 79 75 74 77 81 83 80 73 65 60 61 66 71 73 72 74 80 85 
82 75 74 78 78 75 71 68 71 79 84 81 79 81 82 79 73 70 74 76 75 78 82 82 78 77 
77 76 73 72 72 73 78 84 83 74 65 65 70 75 76 76 79 82 80 75 73 73 70 70 74 76 
74 73 72 74 78 78 72 68 70 73 73 75 79 79 72 69 72 74 70 63 64 72 76 71 66 69 
73 74 72 70 68 64 63 65 71 77 77 74 71 70 73 77 77 73 70 72 76 78 74 68 64 63 
65 70 75 76 73 73 82 90 88 81 78 80 81 79 74 71 73 81 85 81 77 78 77 71 67 70 
76 78 77 77 76 75 75 79 80 77 76 77 78 76 77 80 80 74 68 67 70 71 71 75 80 82 
78 75 77 76 69 64 66 69 71 72 71 71 74 78 73 65 62 65 70 74 76 72 65 62 65 68 
66 64 69 75 74 69 67 69 72 74 73 70 68 67 66 67 70 71 69 68 70 72 73 74 76 75 
72 72 73 72 69 67 68 68 68 74 82 82 76 75 82 88 87 81 78 80 80 78 75 73 74 80 
82 79 75 75 71 64 64 71 77 77 75 73 72 73 77 82 83 80 80 82 81 76 72 72 74 72 
71 73 73 71 71 76 80 78 74 74 78 78 69 62 62 66 73 77 74 68 68 72 69 61 58 64 
72 74 72 66 60 58 62 65 64 65 70 72 68 66 68 69 67 66 64 64 66 70 71 72 73 71 
66 67 73 77 74 71 73 75 76 77 76 73 71 74 76 74 70 74 81 82 75 73 76 80 80 77 
76 77 76 74 74 75 74 75 76 75 75 75 69 62 64 72 77 76 74 72 71 73 78 82 82 79 
78 78 77 72 68 71 73 71 70 70 69 68 71 76 78 76 73 74 77 75 68 63 61 65 74 80 
76 67 65 68 67 62 62 72 79 79 73 66 63 64 68 69 66 65 68 68 67 70 74 73 67 61 
58 58 62 68 73 76 76 71 66 68 78 84 78 69 67 71 75 77 78 76 76 79 82 78 72 72 
76 76 73 71 71 73 78 80 78 75 72 72 77 81 77 72 70 70 73 73 68 62 64 73 78 79 
79 79 76 74 74 76 76 74 73 73 72 69 70 78 80 73 65 61 60 62 69 74 75 75 78 79 
77 69 63 62 63 65 71 76 73 66 65 68 67 63 65 73 80 80 75 71 71 74 76 73 69 69 
70 69 70 74 77 75 69 64 60 58 59 64 71 77 75 68 64 70 83 89 81 68 63 66 71 73 
75 74 75 77 79 77 73 72 73 75 75 74 71 73 80 83 80 74 69 71 80 85 80 71 68 69 
71 70 66 63 67 75 79 80 82 84 80 72 67 69 73 74 75 76 74 69 73 83 85 75 62 58 
60 66 73 74 71 74 81 84 78 67 61 65 69 69 71 74 70 64 65 68 67 62 62 67 72 74 
75 75 76 79 77 72 70 73 72 68 67 69 69 67 66 66 65 63 61 62 68 74 71 64 63 74 
87 91 81 68 64 68 71 72 72 72 72 74 74 71 70 71 73 76 79 77 71 72 78 80 78 74 
71 72 79 82 78 72 72 73 72 70 66 66 72 78 79 77 79 82 79 70 65 69 77 82 85 86 
80 72 71 79 81 71 63 64 71 79 81 76 71 73 80 83 77 68 66 74 79 76 73 73 69 63 
64 68 67 65 66 67 68 71 75 76 76 79 77 73 72 72 67 62 62 63 61 60 62 65 68 69 
66 62 65 70 69 66 69 79 90 90 80 69 68 72 74 74 73 72 73 75 74 70 67 66 68 74 
78 75 68 67 72 73 74 77 77 76 77 78 76 75 75 75 75 74 72 72 76 80 77 74 76 79 
78 72 69 74 82 89 92 92 84 74 70 74 73 67 65 71 80 86 85 77 71 71 74 75 73 71 
74 82 84 77 72 71 68 63 64 67 68 69 72 73 72 74 77 76 76 79 80 78 76 71 63 59 
63 66 65 63 63 65 69 72 69 62 61 67 70 72 77 85 90 88 79 73 73 76 76 74 73 73 
74 76 76 73 69 65 65 70 76 73 67 66 69 69 70 78 83 83 81 78 77 76 75 73 74 78 
80 79 78 76 74 74 78 81 80 77 76 78 83 87 89 89 84 77 74 75 73 68 67 73 80 83 
80 73 68 68 68 68 70 73 78 82 80 74 70 70 69 66 65 65 64 65 70 73 73 75 77 77 
77 79 80 80 79 73 66 66 74 78 74 68 65 65 67 69 65 58 59 67 73 76 79 83 86 83 
79 77 79 79 76 74 74 74 75 75 75 75 74 70 69 73 77 75 70 69 72 71 70 74 81 85 
83 79 76 75 75 74 75 80 83 81 75 70 70 74 79 81 78 77 79 81 83 83 82 81 81 80 
79 80 77 72 70 72 76 79 76 71 68 68 67 67 70 73 75 75 76 76 77 77 75 71 68 63 
58 59 65 68 68 69 73 76 78 77 76 77 78 75 70 73 83 87 79 70 66 65 65 64 61 58 
63 72 76 73 70 72 75 76 77 80 83 81 77 75 76 78 79 76 74 76 78 77 76 78 80 76 
69 67 71 73 70 67 71 77 79 76 72 73 77 79 79 79 79 76 71 68 70 74 75 72 68 69 
76 82 86 84 79 75 76 79 81 81 79 76 73 72 75 78 77 74 73 73 71 69 70 72 72 72 
75 81 85 84 80 75 69 62 58 62 69 69 64 63 67 74 78 76 73 74 75 71 67 71 80 82 
76 69 68 69 66 64 63 65 69 75 76 69 61 60 65 69 74 79 80 78 76 74 76 79 80 78 
75 76 79 79 78 77 76 71 63 59 62 69 69 64 64 70 77 77 74 75 80 82 80 76 72 70 
71 74 78 76 70 63 59 63 72 82 87 85 79 73 74 78 80 81 81 81 78 76 76 78 79 79 
80 78 74 70 70 73 74 73 74 79 83 81 76 71 65 59 58 65 73 74 67 63 66 72 76 76 
75 74 71 65 62 65 70 71 69 69 71 70 65 64 68 71 70 71 72 69 61 58 62 68 72 73 
72 71 70 69 70 73 76 77 76 77 79 78 75 72 70 67 60 53 54 63 68 67 66 72 79 82 
80 78 78 77 75 73 70 70 75 82 84 76 67 63 63 66 73 80 82 80 77 73 73 78 81 81 
83 85 84 79 76 76 80 83 82 77 72 71 72 75 74 70 67 70 72 70 66 63 60 56 54 60 
68 72 71 68 68 71 73 74 75 73 68 63 63 66 68 68 68 68 69 65 59 60 69 74 69 63 
66 70 68 63 63 66 68 67 64 64 64 63 65 71 75 77 78 80 80 77 73 70 69 69 65 57 
56 63 71 73 74 77 80 81 79 76 72 67 68 72 73 72 76 82 80 71 66 69 73 75 76 78 
77 75 73 71 72 77 80 80 82 85 84 79 74 74 78 82 79 73 71 73 75 73 67 60 60 65 
67 64 62 62 61 57 53 54 60 67 71 71 71 70 70 70 70 66 63 65 68 68 70 72 71 66 
64 60 56 58 68 77 72 63 62 68 71 65 59 60 64 64 64 64 63 62 67 75 79 79 80 83 
81 78 75 74 74 74 70 63 62 68 74 77 79 78 75 73 74 74 67 60 62 69 73 71 72 74 
74 69 69 76 80 78 77 78 77 74 72 70 70 73 75 74 75 78 79 78 75 73 74 76 74 71 
73 77 76 69 60 54 57 65 69 67 66 67 67 63 61 61 62 64 67 69 70 70 68 66 64 59 
60 66 67 63 64 70 68 60 57 59 59 60 68 77 77 68 61 64 68 65 59 59 64 67 67 68 
66 65 71 78 79 76 76 79 79 77 77 78 78 76 69 64 66 70 73 76 79 78 73 70 73 75 
69 61 61 68 71 68 67 70 73 74 76 81 82 77 74 76 77 75 72 71 70 69 69 69 69 70 
74 80 80 75 70 70 71 73 77 78 75 68 60 56 58 65 70 70 68 68 67 66 70 74 70 63 
60 63 66 65 63 62 61 59 61 66 63 54 53 58 56 48 47 55 62 63 65 72 74 67 58 59 
65 68 65 65 66 65 65 69 71 69 71 75 73 69 68 70 73 75 78 80 79 74 68 66 70 72 
70 71 75 77 73 71 74 75 70 63 64 68 70 68 67 70 75 78 80 82 81 75 70 72 75 74 
73 72 70 68 67 69 68 66 71 81 86 78 69 67 71 75 78 77 73 68 63 58 57 62 66 66 
65 64 63 66 75 77 68 57 54 57 58 56 55 58 61 59 60 62 58 48 44 46 45 40 41 52 
62 66 66 67 67 62 57 57 63 67 66 64 60 56 58 67 72 71 70 71 70 66 65 65 67 71 
76 79 78 73 70 72 76 74 68 67 70 72 70 69 69 69 65 62 63 67 70 69 69 71 73 75 
76 79 80 76 71 72 76 77 75 73 71 69 72 76 73 67 70 82 88 82 72 69 72 76 78 78 
75 70 64 58 57 61 65 64 63 63 64 66 69 67 57 52 55 58 54 48 49 55 58 52 48 50 
50 44 40 41 43 43 45 52 62 68 70 68 66 62 58 57 59 60 58 55 52 52 59 67 71 69 
69 69 68 68 68 66 66 69 74 77 77 74 73 76 78 76 72 70 69 68 67 66 66 65 62 58 
58 62 67 70 71 70 69 70 72 76 81 81 77 76 78 79 76 72 70 72 79 84 80 73 75 83 
87 82 74 71 74 78 81 81 79 72 64 60 61 66 68 66 68 71 70 64 59 54 51 55 62 63 
55 49 50 55 54 45 40 43 48 47 42 42 46 49 50 51 57 63 68 69 66 62 61 60 58 56 
54 53 54 60 68 71 68 66 67 67 64 65 68 68 68 70 73 75 77 76 75 75 77 78 79 78 
73 69 68 69 70 70 68 63 58 59 63 67 69 68 67 69 72 76 82 84 82 79 77 75 71 69 
69 72 79 84 81 77 80 83 81 75 70 71 75 79 80 80 77 71 65 63 65 68 67 68 74 80 
75 63 54 53 58 65 69 64 54 49 51 53 52 51 53 60 65 61 53 47 47 47 45 44 45 51 
58 62 61 60 63 66 64 61 61 62 63 68 74 71 63 61 65 65 60 60 64 68 72 73 71 72 
77 80 75 71 73 80 84 82 76 71 72 74 75 77 78 73 67 64 64 65 65 66 68 70 72 74 
78 80 79 77 72 68 66 68 69 71 75 77 75 76 78 75 68 64 64 68 73 75 74 71 69 66 
65 65 65 63 60 63 73 81 76 65 60 64 70 74 70 60 50 45 44 45 53 66 79 88 90 82 
69 57 47 40 36 35 36 40 48 55 57 60 68 74 71 66 66 67 66 68 71 67 59 59 65 65 
61 60 63 69 73 73 67 66 74 80 74 66 69 79 84 79 72 70 74 75 74 76 79 78 74 70 
68 67 66 67 70 70 70 70 71 73 74 74 71 67 68 71 72 72 72 70 69 70 70 65 58 59 
65 71 72 71 67 64 62 62 63 63 62 58 54 56 66 74 74 71 71 74 77 76 68 57 49 43 
40 43 59 82 100 109 110 102 90 74 57 42 36 37 37 39 46 54 59 64 71 74 69 63 63 
65 65 65 66 63 58 60 65 66 64 64 66 69 73 71 64 61 70 77 72 65 69 77 79 74 69 
70 74 74 72 73 77 76 74 74 73 71 70 72 73 70 67 67 69 71 74 76 75 73 74 76 77 
76 73 69 67 68 68 63 59 63 71 76 75 70 66 62 62 64 63 61 60 58 54 55 63 70 75 
77 77 77 76 73 65 56 49 46 45 55 76 99 116 126 130 125 114 96 72 51 42 41 41 
39 43 51 58 63 66 64 60 57 60 64 67 67 64 60 58 62 65 64 62 62 65 67 69 70 65 
61 66 71 71 70 74 79 78 73 72 73 75 72 71 74 78 77 76 77 76 73 71 73 75 71 66 
66 69 72 76 78 78 76 76 76 77 77 74 69 69 71 72 69 66 67 72 76 75 72 67 64 65 
68 64 58 57 58 55 56 64 73 79 79 76 74 73 68 58 48 45 46 53 70 96 121 140 153 
158 153 138 113 82 54 38 34 34 33 35 42 51 56 56 52 51 54 60 65 67 66 61 56 54 
59 63 62 60 60 62 62 64 68 67 63 61 64 69 75 81 82 79 78 78 78 74 69 68 73 78 
79 79 79 76 71 69 72 75 72 67 66 68 71 73 75 75 73 71 71 75 77 72 69 71 75 76 
73 68 65 64 68 71 71 68 66 68 70 64 57 55 56 53 53 62 73 78 74 68 67 69 63 48 
38 37 42 54 79 112 143 167 183 187 177 155 124 87 53 28 18 18 21 25 33 43 50 
50 47 48 54 60 62 60 57 54 50 47 51 59 64 64 63 63 61 61 66 69 65 58 57 63 74 
82 82 80 81 81 79 75 70 67 69 74 77 77 76 73 71 70 72 74 73 69 68 68 68 69 70 
71 71 69 68 73 76 72 70 75 79 76 71 66 60 56 58 63 67 67 66 69 70 64 56 54 53 
49 47 54 66 70 65 58 57 59 54 41 32 33 41 57 87 125 160 186 201 201 187 162 
131 95 59 28 10 5 10 17 26 38 48 51 49 49 54 59 58 53 48 47 47 44 44 54 64 69 
69 66 61 61 66 71 68 61 57 61 70 76 76 79 82 80 77 77 76 71 67 69 72 72 70 70 
73 74 72 70 69 70 71 71 69 67 68 71 72 67 65 71 77 75 74 80 81 74 67 64 61 56 
56 60 63 63 64 69 70 64 55 52 52 50 48 52 60 65 61 51 46 47 44 35 29 34 47 69 
102 139 171 194 207 206 190 166 135 100 64 33 10 1 3 11 22 37 50 53 51 50 53 
57 57 52 49 49 51 47 44 49 59 68 71 66 59 59 67 73 72 68 66 68 69 68 70 78 84 
80 76 78 79 73 66 67 69 68 66 69 76 77 72 67 67 71 75 74 72 69 68 71 71 65 63 
71 79 78 77 80 79 71 65 66 65 62 63 65 63 59 60 66 69 64 55 51 53 56 57 57 60 
63 59 48 40 39 37 29 24 31 50 79 115 149 177 199 214 215 199 171 134 94 57 27 
8 0 1 9 22 37 50 53 49 47 47 49 52 55 55 54 54 53 49 49 55 65 70 64 57 58 66 
70 69 69 72 74 70 64 67 79 87 84 77 75 73 68 65 67 67 64 63 69 77 78 73 69 72 
77 78 76 73 71 68 67 67 64 65 74 80 78 76 77 76 71 69 70 67 64 67 71 67 60 58 
63 68 66 59 55 58 64 67 63 60 60 55 47 42 40 35 24 18 27 49 80 117 152 182 208 
227 229 210 176 134 89 48 20 4 0 5 14 24 35 44 46 45 43 42 43 47 54 56 53 52 
54 55 53 55 63 67 63 57 61 67 66 60 60 67 74 73 68 69 78 84 82 75 69 65 64 67 
70 67 62 63 72 80 80 77 76 79 81 80 77 76 74 69 65 64 65 69 73 75 73 72 74 76 
76 76 75 69 62 65 70 70 65 63 65 68 69 66 64 68 73 73 67 60 56 52 49 47 43 33 
21 18 30 53 81 116 153 187 215 234 235 213 178 137 94 55 26 12 12 21 29 33 35 
37 39 40 42 45 46 48 53 54 49 48 54 59 59 58 60 61 57 58 65 69 63 53 53 63 74 
78 75 73 73 75 73 69 66 65 68 73 76 72 67 69 78 84 83 79 77 76 77 77 79 80 78 
72 67 67 69 69 66 65 66 68 72 76 79 82 83 75 65 63 67 70 71 70 69 69 69 69 71 
75 78 74 67 61 57 55 53 50 43 33 25 29 44 64 87 118 154 186 209 223 222 203 
173 139 105 74 49 38 39 45 48 47 43 40 37 36 41 49 52 52 52 53 51 52 59 65 65 
60 56 52 50 54 64 66 59 53 55 67 78 82 78 73 71 71 70 69 70 71 73 76 78 77 76 
80 83 84 83 79 75 71 70 72 75 77 76 74 74 75 74 68 61 60 64 66 67 70 74 81 86 
81 69 63 65 69 71 72 71 69 67 67 71 75 75 69 63 61 61 61 60 54 47 42 42 48 61 
75 92 120 153 179 194 201 199 186 166 142 118 97 83 77 76 74 68 63 58 52 43 35 
35 39 43 45 48 53 56 61 66 69 66 60 55 50 48 53 60 61 56 55 63 74 80 80 76 73 
74 75 75 74 74 73 72 73 75 79 82 84 82 79 80 81 78 73 70 69 69 69 68 70 75 79 
76 69 64 65 68 65 61 62 67 76 83 79 66 59 62 66 65 65 68 70 67 65 68 73 72 65 
61 62 65 69 69 64 60 61 66 71 75 81 96 123 154 176 186 190 187 181 172 159 142 
129 123 122 117 107 93 83 75 66 53 38 27 23 24 31 40 50 58 64 66 64 62 63 63 
60 55 55 57 56 53 57 65 72 75 73 71 73 77 79 79 76 73 69 68 71 75 78 81 81 76 
73 78 84 84 80 76 73 69 66 63 65 71 76 75 72 71 72 70 62 58 60 67 75 80 73 60 
56 63 65 60 57 63 70 71 67 68 75 76 71 67 68 71 76 79 77 76 80 87 90 89 90 104 
131 159 178 189 195 197 197 199 194 182 171 166 163 157 144 128 112 97 81 63 
45 28 17 17 26 37 46 53 58 59 58 62 72 77 73 64 56 52 51 52 57 63 67 68 67 66 
68 72 75 77 77 72 67 68 74 78 79 79 78 72 69 75 82 83 81 81 79 77 74 70 69 72 
75 76 75 75 74 69 61 59 63 71 78 79 70 59 59 67 68 61 56 62 71 72 68 68 76 81 
79 77 76 79 85 90 89 87 91 99 104 102 102 117 142 164 177 189 202 212 219 227 
230 224 216 209 201 191 181 169 152 128 100 75 54 37 25 23 28 34 38 44 51 55 
59 68 79 84 79 68 57 48 47 53 59 64 67 67 64 61 61 64 69 75 78 74 69 70 75 79 
79 78 77 72 68 70 74 74 75 80 84 84 82 79 76 76 76 75 74 74 73 70 65 63 66 70 
74 74 68 61 62 68 70 66 64 69 75 73 66 65 73 80 81 81 83 86 93 97 96 94 97 107 
113 112 111 125 148 164 172 183 200 217 229 240 248 251 251 246 235 221 212 
205 191 162 124 89 64 45 31 23 23 24 27 36 49 58 63 69 75 77 75 70 61 51 49 56 
63 65 68 68 64 58 58 62 68 74 77 75 71 72 75 78 78 78 78 74 69 68 70 70 72 78 
83 84 80 76 75 74 72 68 68 71 74 73 69 67 68 67 67 68 66 60 58 62 65 67 71 78 
82 77 67 65 72 78 81 84 88 94 100 103 102 101 105 115 120 116 113 125 145 158 
163 174 193 213 227 239 249 255 255 255 255 245 235 231 219 190 150 110 78 51 
29 16 11 12 18 33 51 61 61 62 64 66 67 70 67 59 55 60 63 62 62 64 62 61 63 68 
72 73 73 71 71 74 76 75 74 77 80 78 72 71 75 77 76 76 78 77 72 68 67 68 66 63 
65 72 78 76 71 70 72 71 69 70 68 59 51 52 56 61 70 83 89 82 70 67 73 79 82 85 
92 100 106 110 109 107 111 119 122 114 109 120 139 149 153 164 185 206 219 229 
243 255 255 255 255 255 255 251 240 214 176 137 99 62 32 15 12 13 18 31 47 56 
56 57 61 63 63 65 65 60 56 58 60 59 56 56 59 63 69 75 76 74 71 71 74 77 77 73 
70 73 80 79 73 73 81 85 80 74 72 71 68 65 65 65 63 63 68 78 84 80 71 72 79 80 
75 73 68 56 45 45 49 54 65 80 88 82 71 69 76 82 82 85 93 103 110 113 111 108 
109 115 118 111 104 113 130 139 144 156 179 199 208 217 236 255 255 255 255 
255 255 255 255 234 202 168 128 84 47 28 24 22 20 25 37 49 54 59 66 65 59 58 
59 55 51 53 61 63 59 55 56 62 70 74 74 72 72 75 77 79 77 70 64 66 74 77 73 72 
78 83 80 72 69 70 72 69 65 62 62 64 71 81 88 84 74 75 83 83 78 73 66 54 45 44 
48 51 61 75 82 79 75 78 85 87 84 84 91 100 105 104 100 98 100 106 111 106 99 
104 118 128 136 152 175 192 198 205 227 252 255 255 255 255 255 255 255 252 
227 200 163 115 70 43 33 25 15 14 28 46 57 62 65 61 55 54 56 52 47 52 65 71 66 
59 57 59 64 66 65 65 69 75 76 75 74 70 62 59 64 71 72 72 76 80 79 73 69 71 75 
71 62 57 59 64 69 77 85 84 76 76 81 81 78 77 71 61 54 54 54 54 62 73 80 84 90 
98 100 95 87 85 90 95 93 87 85 87 91 97 101 97 89 89 99 113 128 147 169 186 
192 198 215 235 244 246 249 255 255 255 255 255 248 229 196 144 92 55 34 20 8 
8 24 47 60 60 55 50 50 56 59 54 49 55 66 71 67 62 59 58 59 60 58 58 63 69 68 
66 70 72 65 57 59 67 73 76 80 83 81 74 69 70 74 70 62 58 62 67 69 71 76 78 75 
75 77 78 80 82 79 71 68 67 63 60 64 74 82 93 108 116 112 100 91 88 91 92 86 81 
81 84 87 88 87 83 74 72 80 97 117 139 162 181 191 195 201 207 211 215 226 239 
255 255 255 255 255 244 210 158 105 63 36 18 8 10 26 46 57 54 46 43 49 58 62 
59 57 61 66 65 62 62 62 60 60 62 61 58 60 63 60 59 66 71 67 61 61 67 72 77 82 
85 81 72 66 67 70 69 66 67 72 74 71 68 69 72 74 76 76 77 80 81 76 73 75 75 69 
65 69 76 83 94 111 118 111 99 93 92 93 91 87 85 85 84 81 76 72 67 63 63 72 90 
112 136 160 180 189 189 184 180 180 187 204 223 242 255 255 255 255 244 206 
156 106 66 37 19 14 17 28 41 49 50 47 47 53 61 63 63 66 70 72 67 62 63 65 65 
65 68 67 63 61 61 59 59 65 69 67 65 68 71 72 74 80 84 81 71 64 64 65 67 71 76 
79 79 75 71 69 71 75 78 78 77 76 70 64 65 72 74 71 70 76 81 82 88 99 106 102 
96 95 95 93 90 87 84 80 74 69 64 60 58 60 65 77 95 117 141 164 180 184 175 165 
158 158 167 183 205 228 250 255 255 255 237 197 149 103 64 36 21 18 22 29 36 
42 48 53 57 62 65 65 65 68 74 77 73 67 67 70 71 69 70 69 66 63 62 61 64 68 68 
66 68 74 78 76 75 80 87 85 74 65 61 60 63 70 77 79 78 77 75 71 71 75 78 77 75 
70 61 54 57 66 70 69 71 78 84 85 84 88 93 95 95 95 94 92 87 82 76 68 60 55 53 
52 54 59 68 80 97 119 145 168 180 178 163 149 142 143 150 164 186 213 238 255 
255 250 226 189 145 101 63 37 24 21 24 30 35 38 44 54 63 69 70 67 65 65 67 71 
71 69 70 74 74 71 70 69 67 66 63 62 65 70 69 65 67 74 80 82 81 84 89 87 75 62 
56 54 58 65 70 73 75 76 74 70 68 71 74 74 72 67 59 53 55 62 66 65 65 70 79 85 
86 86 90 95 96 93 90 89 87 83 74 63 54 49 47 46 48 53 61 73 88 111 139 164 177 
173 158 143 134 131 134 146 169 196 221 238 242 231 206 173 134 94 61 41 30 24 
24 31 38 40 43 51 62 71 73 70 67 63 61 62 64 67 71 74 72 70 71 72 70 68 64 61 
63 68 69 66 65 68 75 82 84 82 82 78 66 54 50 51 54 58 64 70 76 76 71 66 63 65 
69 70 69 67 63 59 57 59 63 63 58 56 65 78 84 86 92 99 98 89 85 87 92 91 83 70 
59 51 46 44 43 43 50 63 80 102 130 156 169 167 155 141 130 123 121 130 151 178 
202 220 224 210 182 147 111 77 52 40 33 27 25 33 45 50 49 51 59 68 72 69 65 64 
63 63 63 66 69 67 64 67 75 77 73 68 66 66 67 70 72 71 68 65 69 77 81 77 71 66 
57 49 49 53 55 57 63 73 80 77 68 62 62 65 68 69 66 64 65 64 59 57 60 61 53 46 
53 68 79 86 95 101 96 84 81 86 94 95 88 75 63 53 46 43 37 31 36 56 79 102 128 
150 159 158 151 141 130 120 116 122 139 163 188 207 211 192 159 123 89 60 40 
32 31 29 28 37 52 59 56 53 56 63 66 62 58 60 67 70 69 67 64 59 57 64 76 79 72 
67 70 76 77 76 77 77 75 69 66 71 77 74 69 64 57 53 56 62 63 63 66 74 80 74 64 
62 66 69 70 66 58 55 61 66 60 53 55 57 49 42 48 63 74 82 91 96 88 79 80 88 92 
90 83 74 63 51 41 37 28 16 20 46 79 107 131 148 153 152 147 139 127 118 114 
120 136 158 181 198 196 174 141 109 79 53 33 25 26 29 32 41 55 61 57 53 55 59 
61 56 52 56 68 75 73 65 58 55 57 66 74 75 68 66 73 82 84 81 79 78 77 72 66 68 
73 74 73 72 68 64 68 73 73 69 68 71 72 67 62 66 72 72 67 58 50 50 60 68 61 50 
49 51 45 40 49 63 69 71 78 83 79 75 82 90 92 87 82 78 69 50 34 27 18 4 6 34 70 
101 125 141 148 146 140 128 114 106 108 119 137 159 179 187 177 152 123 97 73 
49 30 21 21 26 33 43 52 55 55 56 59 61 61 57 53 57 69 77 73 63 56 57 62 67 69 
67 65 66 74 81 83 81 79 75 72 70 67 69 72 75 78 81 81 78 77 78 76 73 70 69 68 
67 67 71 73 67 57 50 49 55 66 73 64 51 48 49 43 40 50 63 63 57 60 67 70 75 86 
94 95 93 94 94 82 57 34 24 15 1 1 23 54 82 106 124 134 133 124 109 96 94 104 
122 142 165 181 183 165 136 107 84 61 39 23 17 18 23 32 43 49 51 54 62 66 64 
60 56 54 59 69 76 74 65 58 60 66 65 62 62 64 67 71 76 80 82 81 77 71 67 67 70 
74 75 77 83 85 82 79 77 74 73 73 73 73 73 73 73 69 58 48 48 56 63 69 71 64 52 
49 50 44 42 53 65 62 52 51 58 64 74 88 97 100 103 109 108 93 66 42 29 19 5 1 17 
42 65 86 105 118 121 114 102 93 98 114 135 154 173 188 189 169 136 102 74 48 
27 16 15 19 25 35 45 50 51 54 61 65 61 54 50 51 57 65 71 72 67 61 62 65 63 62 
66 69 67 66 70 77 82 83 80 74 67 65 70 75 74 73 75 77 75 73 71 69 69 72 76 79 
77 73 69 63 55 50 54 61 62 60 61 60 53 52 54 50 47 57 69 69 61 58 60 63 74 89 
97 100 107 113 109 93 71 52 39 24 7 3 19 44 67 86 102 115 123 123 115 109 116 
136 157 172 185 197 200 181 145 105 70 40 20 15 21 27 34 42 49 52 51 50 51 52 
50 44 41 47 56 61 64 67 67 63 63 64 64 67 75 77 67 58 62 71 76 77 77 75 68 64 
70 75 73 69 69 69 67 68 69 65 61 64 73 79 77 70 66 63 59 57 60 62 55 48 53 59 
59 60 63 61 57 61 71 73 70 69 65 63 70 84 90 93 102 109 104 91 78 65 50 29 11 
9 30 63 91 108 121 132 141 145 140 133 141 164 187 199 206 213 213 194 155 109 
67 34 17 17 28 37 45 51 52 50 47 44 41 40 39 35 35 46 59 65 65 68 70 66 63 63 
64 69 79 80 66 54 57 67 69 67 68 71 70 70 73 75 72 68 69 68 67 71 74 68 57 57 
67 75 75 70 66 63 60 59 61 61 53 47 54 64 67 70 76 76 69 67 70 71 71 71 65 57 
60 71 79 85 98 108 106 98 90 77 59 37 21 23 50 88 123 146 159 168 174 176 170 
165 176 202 223 232 236 239 233 207 164 117 71 34 15 16 28 40 50 57 54 46 43 
43 42 41 40 35 35 48 65 71 70 73 75 70 63 62 64 68 74 73 63 55 59 67 67 62 62 
66 71 76 77 74 69 69 71 72 72 76 79 74 64 59 64 71 73 70 66 61 57 56 60 61 58 
57 63 68 71 76 84 86 78 72 70 68 67 65 58 46 45 55 68 81 100 113 113 108 99 83 
64 49 41 48 74 114 155 186 204 214 217 213 204 202 218 243 255 255 255 255 249 
216 172 127 83 42 18 15 25 38 51 59 55 45 42 47 51 52 49 41 39 51 65 69 68 72 
77 72 64 63 66 67 68 67 63 61 66 71 69 64 60 61 67 73 74 70 67 67 70 72 74 75 
75 75 73 69 68 69 71 70 64 57 54 57 60 62 63 65 68 68 70 77 88 90 83 75 71 69 
66 62 51 38 35 46 61 79 100 114 115 110 100 84 70 66 71 81 105 143 186 222 244 
253 254 248 235 231 246 255 255 255 255 255 252 216 174 135 94 53 26 20 30 42 
54 61 56 47 43 49 57 59 54 45 43 53 61 59 58 65 74 73 67 64 67 68 67 65 63 66 
72 76 73 69 63 61 65 69 70 68 67 64 63 68 73 71 66 68 76 77 72 70 73 73 64 55 
54 59 62 61 61 64 67 66 67 75 87 92 86 76 70 70 68 61 48 35 34 45 60 76 93 104 
107 106 100 90 83 87 99 114 137 174 216 249 255 255 255 255 255 247 254 255 
255 255 255 255 242 207 169 133 96 57 32 30 41 51 57 61 57 49 43 46 54 59 54 
45 45 54 57 53 52 62 74 77 71 65 66 70 70 66 63 66 72 75 73 70 67 68 72 73 70 
69 70 64 59 63 71 68 60 61 72 76 72 72 77 77 67 55 53 59 62 58 56 60 65 65 63 
68 80 89 85 75 68 68 68 58 43 32 35 46 59 70 81 89 95 101 106 104 103 109 121 
137 161 197 235 255 255 255 255 255 255 255 254 255 255 255 255 250 227 193 
157 121 85 51 33 37 48 52 55 60 61 54 44 40 46 54 52 45 44 51 54 53 56 65 77 
80 72 65 67 74 76 70 64 66 70 69 64 63 67 74 81 80 73 71 73 67 60 62 68 66 60 
60 67 70 69 72 79 80 70 59 56 60 62 58 55 61 69 68 60 59 68 79 79 71 66 65 61 
48 34 28 33 44 54 62 71 80 89 102 115 121 124 130 140 154 175 207 241 255 255 
255 255 255 255 253 251 251 252 252 245 229 204 172 135 98 63 36 27 36 46 48 
51 60 66 62 49 38 39 48 51 46 43 47 53 57 59 66 75 78 69 61 66 77 81 76 71 72 
72 63 55 56 66 75 81 79 71 69 73 71 64 61 62 61 61 63 66 66 67 72 78 78 72 66 
63 65 64 60 59 67 76 74 63 56 61 70 70 66 63 59 49 35 27 29 36 43 49 57 68 80 
93 107 121 130 135 144 157 169 183 207 238 255 255 255 253 240 233 233 234 232 
231 225 211 192 172 145 108 70 38 18 15 28 42 48 51 59 65 62 54 44 41 47 51 48 
45 48 57 63 61 62 71 76 69 59 62 74 82 80 78 80 77 65 56 60 70 75 75 73 69 67 
72 74 69 61 58 58 62 67 69 68 68 72 75 75 73 72 70 67 64 61 63 72 81 79 68 62 
65 69 65 59 58 53 40 28 29 41 52 56 59 65 75 86 99 112 123 129 136 150 169 180 
185 201 231 255 255 249 230 210 198 195 194 190 185 177 162 147 135 115 81 45 
22 10 10 24 42 52 55 57 56 55 56 55 53 54 55 53 50 53 62 68 64 61 69 77 71 61 
59 69 78 80 79 81 79 71 65 70 75 74 70 72 73 70 72 75 72 65 61 63 68 74 76 75 
73 73 73 73 74 74 70 64 62 62 64 71 77 77 71 69 72 70 61 52 50 48 40 34 41 61 
77 84 88 92 95 98 106 118 126 132 139 156 177 186 185 196 223 245 246 231 208 
183 163 151 141 135 132 126 115 106 98 81 53 28 17 16 18 29 45 55 59 58 52 50 
57 66 68 63 59 56 53 53 61 69 69 66 71 76 73 64 61 66 73 75 74 75 75 73 71 72 
74 71 71 77 80 75 71 73 73 72 72 75 78 81 82 81 79 77 74 73 75 74 67 63 65 66 
65 67 70 71 71 72 72 68 56 45 42 45 47 48 58 80 100 113 125 131 127 120 121 
128 134 139 146 162 182 190 189 198 221 237 232 213 189 163 137 115 100 92 92 
92 86 76 63 47 29 19 21 26 30 37 46 55 62 66 61 56 60 71 73 67 62 60 57 55 59 
68 72 71 72 75 73 67 64 66 71 72 70 69 70 71 70 69 70 72 77 83 85 78 71 71 74 
76 78 80 80 80 80 81 81 78 74 75 78 75 67 66 71 72 67 63 64 69 73 74 70 62 50 
38 35 43 52 61 75 99 121 139 158 171 168 157 149 143 140 141 146 160 178 190 
195 207 225 231 219 200 179 155 128 102 82 73 72 75 72 59 40 25 20 23 28 32 36 
42 47 53 62 71 72 65 62 65 66 63 64 67 66 62 63 69 72 69 70 75 75 72 69 69 71 
73 70 67 68 71 70 68 72 79 83 84 83 79 74 72 73 75 75 74 73 73 74 77 78 75 73 
77 82 79 72 71 74 73 67 63 65 71 76 76 70 60 48 38 36 45 58 72 94 124 150 171 
193 211 214 200 179 157 140 134 136 147 166 184 197 211 225 226 213 197 181 
161 136 110 88 73 67 69 70 56 34 21 25 32 34 35 39 47 51 51 55 64 70 67 61 56 
53 56 65 72 72 68 67 70 69 65 68 75 78 76 72 69 71 73 70 66 69 73 72 72 78 85 
84 78 75 78 77 75 73 73 71 68 68 70 73 75 74 68 68 77 83 81 74 71 71 69 65 66 
70 76 79 76 69 61 55 48 48 56 68 86 115 153 187 211 231 247 250 232 200 164 
138 128 129 138 156 177 192 206 219 223 217 207 194 176 153 130 108 90 79 77 
77 63 39 27 30 35 35 38 45 52 53 48 46 49 57 63 62 55 49 54 65 71 69 64 65 69 
68 64 67 74 78 75 70 67 68 71 69 65 69 74 75 74 79 84 81 72 67 73 77 75 73 72 
70 69 70 74 77 77 72 65 64 73 79 76 69 66 65 64 64 70 77 82 81 75 67 64 63 61 
61 67 80 101 134 178 219 247 255 255 255 245 207 167 140 130 129 136 152 171 
186 200 215 225 226 219 207 192 173 153 134 117 102 95 89 72 50 35 31 30 31 40 
51 54 51 48 46 44 48 60 67 63 56 58 66 69 65 60 62 67 70 68 70 75 76 74 70 65 
66 70 70 66 68 75 76 74 75 79 77 70 65 69 74 74 71 71 71 72 74 77 80 80 75 68 
64 68 71 70 66 64 64 63 66 71 78 83 83 77 69 68 68 65 64 69 85 112 148 192 236 
255 255 255 255 245 207 169 144 134 131 135 147 164 181 198 216 230 231 222 
212 205 193 174 154 136 119 106 95 78 58 44 35 29 32 46 56 55 53 57 59 53 50 
58 67 67 62 63 67 67 64 61 62 66 69 70 72 75 75 75 73 69 68 72 73 69 69 74 75 
70 67 70 73 71 68 70 74 73 70 69 71 73 74 76 78 81 81 78 72 68 68 69 69 68 65 
64 66 71 73 76 79 79 76 73 69 63 59 66 87 117 152 192 233 255 255 255 255 241 
206 171 146 134 130 131 139 154 175 197 218 232 230 220 214 217 212 192 165 
141 119 103 91 77 59 47 40 37 43 56 64 60 58 66 70 62 52 53 59 61 63 66 67 65 
63 63 64 65 65 65 68 69 68 71 74 71 69 72 75 71 70 72 72 66 63 66 71 73 73 75 
78 75 69 67 69 71 72 73 76 80 84 84 80 73 68 69 73 72 65 60 63 68 67 65 69 76 
80 78 70 60 57 67 88 115 144 180 217 244 255 255 254 232 201 170 145 129 126 
128 134 146 166 188 209 224 224 216 216 226 226 203 170 138 111 93 84 73 56 44 
41 43 51 62 67 62 59 63 64 56 47 47 52 57 63 67 65 61 61 65 68 68 64 61 61 61 
58 60 66 68 67 71 76 73 70 70 70 68 67 69 72 73 74 78 79 74 67 65 68 69 70 72 
75 77 79 81 82 76 68 66 71 73 65 58 60 67 65 59 62 73 81 82 74 62 59 68 84 103 
127 161 196 221 235 241 233 211 186 162 138 122 118 123 128 139 155 172 188 
202 207 204 207 218 219 198 166 134 104 84 75 67 52 40 39 45 51 58 61 58 53 51 
48 43 41 44 51 59 65 67 63 62 65 70 74 74 69 63 60 60 56 54 58 64 67 71 76 75 
70 70 72 73 75 75 74 73 74 77 77 72 67 67 70 71 72 74 76 74 71 72 78 76 68 64 
70 75 71 63 64 69 67 63 65 72 81 85 81 69 61 63 72 83 105 137 167 187 200 207 
200 181 163 147 128 111 107 111 117 128 141 153 162 172 178 178 181 188 186 
169 148 124 95 72 64 60 50 39 38 43 47 51 53 52 48 46 44 42 42 44 51 60 67 67 
64 67 72 75 76 78 74 65 61 63 62 58 60 67 72 73 76 75 71 70 73 75 75 75 74 72 
73 76 76 73 72 74 76 75 74 75 78 75 69 69 73 74 70 68 74 80 80 75 73 74 72 70 
71 73 78 84 83 71 58 55 58 64 80 105 128 142 153 163 161 148 135 126 113 99 94 
98 106 117 129 136 140 146 149 148 148 149 143 132 123 109 85 61 54 56 52 42 
39 42 47 51 53 50 47 49 53 53 50 48 51 59 67 69 67 71 74 73 72 75 75 67 62 65 
68 66 66 72 76 75 76 76 71 70 72 72 70 70 71 69 70 76 80 79 77 78 78 75 73 76 
80 80 75 73 73 72 73 76 80 83 84 83 79 75 72 71 71 69 71 77 77 65 51 48 49 50 
57 73 89 99 110 122 126 118 108 101 93 84 82 89 99 111 119 123 124 126 124 120 
120 117 108 101 102 97 78 58 52 57 57 47 41 43 51 58 58 52 46 51 60 63 61 58 
57 61 68 70 69 70 70 67 66 71 75 71 67 67 70 71 71 74 74 72 73 73 69 69 73 72 
68 70 72 69 68 75 82 82 80 79 78 76 76 81 85 84 79 75 72 70 74 81 83 81 81 81 
77 72 69 70 68 66 69 76 74 60 48 45 45 42 42 50 62 71 80 93 99 94 84 78 72 69 
72 82 93 103 108 109 108 105 99 94 95 92 83 78 82 85 75 60 54 58 60 54 49 50 
57 64 64 55 47 51 61 68 71 71 68 66 70 72 70 68 67 64 63 65 71 75 75 73 71 72 
74 73 69 66 68 68 65 68 75 75 72 75 78 73 68 73 79 81 80 80 80 82 86 88 88 83 
77 72 67 67 74 82 82 76 74 74 72 69 70 72 69 68 74 82 78 63 51 46 44 41 39 41 
47 54 62 73 78 74 65 58 54 56 65 77 85 89 91 90 87 81 74 72 78 78 68 60 62 68 
68 59 53 54 58 59 58 59 62 66 68 62 55 55 61 67 73 77 75 72 74 75 71 69 68 65 
61 58 63 74 81 77 72 71 75 73 65 62 66 67 64 66 74 76 75 80 85 77 68 68 74 78 
80 82 85 90 93 90 84 79 74 68 64 66 73 80 79 74 71 70 68 66 70 74 71 69 75 82 
78 65 57 51 46 46 45 42 42 46 53 60 63 60 55 49 46 49 63 75 76 74 73 73 69 64 
60 63 72 75 65 52 47 49 54 53 49 49 52 56 61 64 64 65 69 70 66 62 61 62 68 76 
78 78 78 76 72 69 68 64 59 55 61 73 81 77 71 72 75 73 66 65 70 70 64 64 72 76 
76 81 86 80 69 66 71 76 79 81 86 92 92 84 77 75 72 67 67 70 76 79 79 76 74 71 
66 62 66 70 68 65 69 73 69 62 60 56 52 52 52 46 43 49 55 57 55 53 54 52 47 49 
61 71 68 61 61 62 61 58 57 61 69 72 63 48 35 32 37 43 46 46 46 50 59 66 65 64 
68 72 71 66 60 58 63 74 81 82 78 71 66 66 65 61 58 60 68 76 79 76 73 74 75 73 
69 70 75 74 67 65 72 76 75 77 82 79 72 69 74 77 77 78 84 90 89 81 75 73 69 66 
70 77 80 78 77 77 78 75 68 62 63 66 64 62 65 68 65 63 65 63 57 56 53 46 45 55 
61 58 51 50 54 55 51 48 56 63 60 51 49 53 55 54 53 55 57 57 52 41 28 20 23 33 
41 45 44 46 57 68 69 64 64 67 67 64 60 58 63 76 84 81 70 61 59 61 62 60 61 66 
73 77 76 75 76 76 76 73 71 73 78 77 72 71 75 77 72 70 75 77 76 76 78 78 76 77 
83 88 88 84 81 75 67 64 70 80 83 76 71 72 78 80 76 69 66 64 62 62 69 75 74 72 
72 69 62 58 55 48 48 57 61 56 49 48 51 53 50 48 51 56 52 43 39 43 46 47 47 47 
46 46 44 38 29 23 25 31 39 44 45 51 63 72 69 60 57 60 63 63 60 58 64 75 80 74 
61 54 56 60 61 62 64 68 71 73 74 76 78 78 76 74 71 72 77 77 74 75 77 75 70 68 
73 78 81 82 81 76 73 75 80 83 86 88 86 79 71 67 71 79 81 71 61 63 74 82 80 74 
68 64 61 63 73 82 83 79 77 74 69 65 63 57 54 57 58 54 51 50 50 49 49 48 49 51 
49 42 38 40 43 44 45 46 47 49 48 43 38 36 39 43 47 50 54 61 69 71 62 52 51 59 
65 65 62 60 65 74 77 68 58 56 59 60 61 65 69 68 67 71 77 82 82 80 77 74 70 71 
74 75 74 74 75 73 71 72 77 81 82 83 80 73 70 73 76 78 82 86 84 80 77 75 75 78 
77 67 56 61 75 82 79 72 67 63 63 68 76 83 82 77 74 75 73 72 71 66 60 57 56 55 
56 56 53 50 50 49 49 51 52 50 49 50 48 46 47 50 54 57 54 46 40 42 48 54 60 64 
66 68 69 65 56 50 54 64 69 68 64 65 70 77 78 70 62 62 64 62 63 68 72 70 68 72 
81 86 86 82 78 72 68 70 73 74 72 73 75 75 73 73 75 76 76 78 77 72 69 72 77 80 
81 80 77 75 77 79 79 79 78 68 61 70 82 83 75 70 68 67 69 73 77 78 75 68 66 68 
70 71 70 65 59 56 56 58 60 61 58 55 52 50 51 54 58 61 63 61 56 51 50 52 58 61 
56 45 39 39 43 50 61 70 72 67 62 60 59 59 63 67 67 64 63 67 74 80 80 72 67 68 
68 66 67 71 71 69 67 70 77 82 84 82 76 70 68 72 75 73 72 75 80 78 72 67 68 69 
68 71 72 69 66 72 81 83 79 73 68 67 71 76 79 81 81 75 72 80 86 82 75 73 74 73 
72 73 72 71 68 63 59 60 63 65 64 61 59 58 59 61 63 64 63 59 55 53 55 58 62 66 
69 68 63 59 58 59 64 66 60 50 44 41 36 38 49 63 67 61 57 61 67 68 64 60 56 56 
60 66 74 80 80 73 70 74 75 73 74 75 72 67 64 64 68 74 80 79 73 71 74 78 78 75 
73 77 82 78 67 60 61 65 64 65 68 65 62 68 79 82 75 68 65 65 69 76 80 82 81 77 
75 79 81 77 75 78 78 73 70 68 66 66 68 65 58 56 61 66 66 66 67 67 66 66 67 67 
66 61 56 56 59 60 61 65 70 72 72 71 72 72 74 73 66 57 53 48 40 35 42 55 61 57 
56 66 73 70 59 51 49 53 59 66 73 79 79 75 76 81 81 78 78 78 73 66 62 62 65 72 
77 75 72 74 80 82 81 78 77 78 79 74 63 55 57 61 61 63 68 67 61 62 70 74 73 70 
70 72 76 81 82 79 77 73 70 72 73 71 73 76 74 68 66 67 68 71 75 72 62 59 66 73 
74 73 73 71 70 71 72 71 67 60 57 59 63 62 62 66 72 75 78 81 82 81 79 74 67 59 
56 56 54 50 53 59 61 58 61 71 76 70 60 53 52 54 59 64 70 77 79 78 81 84 80 73 
73 74 69 65 66 70 72 76 77 73 71 76 80 79 78 80 82 82 78 71 62 55 54 56 60 67 
75 75 66 58 61 68 74 76 76 78 82 84 82 78 75 70 66 68 70 68 67 69 68 66 68 72 
76 79 83 79 68 63 70 77 75 70 65 63 65 71 73 70 63 58 57 62 66 66 67 71 73 73 
75 80 83 82 78 73 68 64 62 67 73 75 73 72 68 65 67 74 77 73 68 64 59 57 59 64 
70 77 79 79 80 79 70 62 63 66 64 65 74 80 80 79 76 72 73 77 77 73 72 79 86 87 
80 71 65 60 57 59 67 74 81 81 71 61 61 70 77 78 75 75 79 83 83 82 79 72 67 69 
70 65 59 61 65 69 73 78 80 81 85 82 73 67 71 75 70 60 53 53 60 68 70 65 58 55 
59 64 67 68 71 71 68 65 66 72 78 79 76 73 75 75 75 79 86 87 82 76 72 70 71 75 
78 77 74 69 63 60 62 67 73 78 78 77 77 73 63 55 57 61 62 67 77 83 81 78 76 75 
78 80 77 71 70 75 84 86 81 74 73 71 67 69 75 80 81 80 75 69 71 79 82 78 73 70 
74 81 86 88 84 75 68 67 67 61 57 60 66 71 76 78 77 77 81 82 75 69 71 73 68 58 
52 53 61 67 67 61 55 55 61 64 65 67 71 70 64 59 59 63 70 74 74 74 79 83 81 81 
84 82 75 71 73 73 73 75 78 78 74 67 62 64 68 69 71 73 74 73 74 72 64 57 57 61 
63 67 74 77 76 76 77 77 79 79 75 71 69 70 75 81 81 79 81 79 73 72 77 79 78 79 
79 77 77 82 84 81 74 69 70 80 89 93 89 78 66 60 59 59 61 64 67 71 75 78 76 76 
80 82 77 71 70 72 69 62 58 59 64 68 66 61 58 60 63 62 61 65 70 71 68 63 59 60 
66 70 70 72 78 78 71 67 71 71 68 71 75 76 74 74 75 74 69 62 60 65 69 65 62 65 
69 70 72 73 70 63 61 64 66 67 67 67 70 76 78 75 73 72 70 69 67 64 67 75 80 81 
82 77 68 66 72 76 78 81 82 77 74 76 80 81 77 70 70 81 93 96 91 80 65 54 53 59 
65 67 66 68 75 79 79 78 81 83 79 72 70 69 68 65 62 63 65 67 66 64 64 63 61 57 
57 62 68 72 74 71 66 65 69 71 68 69 72 68 56 53 61 68 69 71 73 72 69 69 68 67 
64 59 59 66 69 65 61 66 71 70 69 72 73 68 65 67 69 67 62 61 68 78 78 71 68 71 
71 69 65 62 66 74 79 78 73 68 63 64 71 76 80 83 82 76 71 70 72 75 75 71 74 86 
95 93 86 78 66 56 56 63 67 65 63 66 73 78 78 78 80 81 78 73 71 71 70 69 67 65 
65 66 67 68 66 62 57 54 56 62 67 71 75 73 69 70 74 73 66 63 64 59 49 48 60 68 
66 63 61 60 61 64 64 63 62 62 64 71 75 73 71 76 78 72 67 70 74 70 66 69 70 65 
60 61 69 77 76 69 70 77 78 73 68 67 71 78 80 74 66 62 65 72 78 81 83 83 81 79 
77 71 64 64 70 74 77 86 91 85 77 76 74 68 66 68 67 64 63 67 71 74 74 75 78 79 
76 73 73 76 78 79 77 70 66 67 70 70 66 59 55 57 61 65 67 71 74 72 67 67 70 68 
62 56 56 56 53 56 63 65 59 53 54 57 61 66 67 66 66 68 72 77 79 77 78 82 82 74 
68 72 75 70 66 70 68 61 59 64 69 72 71 69 75 83 84 78 73 73 75 78 80 76 69 66 
72 80 85 87 87 85 81 81 81 72 59 58 68 75 77 81 84 79 75 79 84 81 75 71 69 69 
70 72 72 74 76 79 81 81 76 72 71 74 79 83 80 73 69 71 73 70 65 60 59 64 68 68 
70 74 76 72 66 62 61 62 62 57 55 58 63 66 68 63 55 55 63 69 70 71 73 74 74 75 
77 78 76 73 75 78 77 72 70 77 79 71 69 74 72 62 61 67 68 66 66 71 78 82 82 79 
78 76 73 71 76 80 79 75 77 81 85 88 89 86 80 79 78 70 60 60 70 76 75 77 82 80 
78 81 85 82 75 71 73 76 78 76 75 77 80 83 86 85 80 72 66 64 68 75 75 71 72 76 
74 66 62 62 66 72 71 68 70 75 77 74 71 65 61 64 68 65 61 64 69 71 70 66 61 64 
74 80 75 71 75 81 82 79 76 73 69 69 72 74 73 69 72 81 83 76 75 81 79 69 67 71 
70 64 66 73 76 75 76 79 79 75 69 65 71 81 84 81 77 77 80 84 86 83 78 75 75 71 
66 66 72 76 75 75 79 77 74 74 75 73 69 70 76 80 78 74 75 79 81 81 82 83 81 73 
62 55 58 65 68 69 74 78 72 62 59 63 71 76 73 67 69 73 74 74 76 73 68 68 70 69 
65 67 70 71 74 76 72 69 73 76 72 70 76 85 84 76 68 64 65 69 76 79 76 72 74 81 
83 78 78 85 84 76 74 77 74 67 67 70 69 66 70 77 78 73 68 67 72 79 83 80 75 74 
77 81 81 78 75 75 76 75 71 69 70 72 72 72 72 69 66 66 67 68 69 73 77 76 72 69 
74 81 80 76 73 76 77 73 63 57 59 64 67 69 74 76 69 60 58 62 70 76 75 72 72 73 
70 71 76 78 73 70 66 65 67 70 71 71 78 84 79 69 66 67 67 68 74 80 77 68 60 59 
62 69 78 84 85 81 79 80 78 75 77 83 82 77 77 80 76 68 65 66 65 65 72 79 79 74 
74 75 77 78 79 78 76 77 80 81 80 77 76 77 77 74 71 69 67 66 69 71 70 68 68 68 
69 72 75 77 77 72 67 68 77 84 81 72 66 68 71 71 68 65 65 66 67 69 73 73 67 61 
59 60 67 75 77 76 77 75 71 70 75 80 80 72 64 64 71 75 72 71 76 79 74 66 64 64 
63 63 66 69 67 63 61 61 61 63 70 80 85 85 83 79 75 73 77 80 78 74 75 77 74 67 
64 67 72 75 80 83 81 79 80 82 79 75 75 76 77 78 80 83 82 80 79 78 74 70 70 71 
67 65 70 75 76 75 76 74 73 75 78 79 77 73 70 72 80 85 80 69 62 63 67 72 74 72 
68 65 66 71 75 73 68 65 62 61 65 72 76 76 76 75 71 71 76 85 87 78 68 69 76 76 
70 68 69 68 64 65 68 67 62 58 58 61 63 62 63 64 61 58 62 71 77 79 80 81 79 79 
83 85 81 75 73 74 73 68 66 71 78 83 84 83 81 81 83 82 77 73 72 74 75 74 74 79 
84 85 83 79 74 71 74 77 72 68 73 80 80 78 76 73 70 72 73 74 76 80 80 78 80 82 
76 67 61 62 67 73 79 78 71 66 67 73 77 75 71 67 64 61 61 65 69 73 73 71 69 69 
73 80 84 79 74 75 76 69 62 63 66 65 63 68 74 72 64 57 56 59 62 60 59 61 61 59 
63 71 72 70 73 80 84 85 88 91 88 80 74 74 76 75 70 70 74 79 81 79 78 80 83 82 
78 74 72 74 74 70 67 74 83 86 84 82 80 77 79 81 79 77 80 82 78 73 71 67 64 64 
64 65 73 83 85 81 80 80 75 68 65 65 68 74 82 83 79 73 70 72 76 77 72 66 62 59 
55 56 63 71 72 68 65 64 65 66 70 73 77 79 73 61 55 59 67 70 71 73 75 73 67 60 
56 59 61 57 54 57 61 64 70 76 75 68 68 73 77 80 83 87 86 79 72 73 79 80 74 67 
67 72 77 78 79 83 86 85 81 76 72 73 76 73 68 71 78 80 80 82 82 78 77 81 82 83 
84 82 77 72 68 65 62 61 59 61 71 79 79 76 78 80 76 71 70 69 68 72 80 85 84 80 
74 70 73 76 72 65 61 59 55 54 62 71 71 65 63 64 62 59 61 68 78 80 72 62 55 58 
65 72 76 75 72 71 69 63 58 60 64 61 58 60 64 67 71 77 78 72 68 66 66 68 73 77 
77 71 66 69 78 81 76 70 67 71 78 82 84 88 90 88 83 76 70 71 77 79 74 71 69 69 
72 77 76 70 68 72 76 77 78 78 77 75 72 69 67 67 67 69 75 75 68 67 75 79 75 72 
73 71 67 69 76 80 83 84 78 69 67 72 72 68 65 65 62 62 67 71 68 63 63 67 68 66 
67 71 75 74 71 65 61 59 64 72 75 72 68 69 69 66 62 65 69 70 67 67 69 69 68 70 
73 74 70 65 63 67 73 76 72 67 64 68 73 75 74 73 72 74 80 86 87 87 88 86 83 78 
73 73 79 82 78 71 66 63 67 71 68 62 60 64 65 63 66 73 77 77 75 74 75 77 78 81 
83 75 63 62 72 76 73 74 76 73 68 68 71 74 80 86 82 70 63 67 71 69 66 65 65 67 
70 69 65 61 62 67 73 76 78 76 70 67 67 68 66 64 68 72 71 67 66 69 71 67 63 66 
71 73 70 70 74 75 71 66 66 68 68 65 65 72 80 81 74 67 66 69 70 69 70 73 73 73 
79 84 82 79 80 83 85 84 80 78 80 81 79 75 72 69 70 72 69 64 64 67 66 63 65 73 
79 79 77 77 78 77 77 81 84 77 66 65 71 73 71 75 79 77 72 71 70 71 76 82 80 71 
65 67 69 65 60 59 63 68 71 69 65 62 63 68 74 81 83 78 69 66 69 72 71 70 72 72 
67 64 68 73 72 66 62 66 73 74 71 72 78 82 78 68 63 63 63 63 64 71 80 81 74 67 
69 75 75 70 69 73 72 70 75 80 76 70 74 81 86 86 82 79 79 79 79 80 81 78 77 79 
77 73 73 78 80 77 76 79 81 80 78 78 76 73 71 75 78 75 70 71 74 72 69 73 78 78 
77 76 72 69 70 74 76 75 73 73 70 63 58 60 65 71 73 71 67 64 65 70 75 79 79 75 
70 71 76 78 77 75 74 70 65 65 71 76 73 68 66 70 77 79 76 74 80 86 83 73 65 64 
64 62 62 68 76 76 69 66 72 81 81 76 76 77 74 71 76 80 75 71 73 78 81 82 78 74 
74 76 78 82 84 81 80 84 83 76 74 82 87 85 80 79 80 81 81 81 80 77 75 75 73 70 
71 74 76 72 69 70 74 78 81 82 76 70 68 70 74 78 80 79 73 66 64 67 72 75 76 73 
68 66 69 73 74 73 72 71 71 75 80 82 81 80 79 74 70 71 74 75 75 74 72 72 76 80 
79 76 79 84 81 74 69 69 70 68 67 71 76 73 67 67 75 81 80 78 81 84 80 76 80 83 
80 76 75 75 77 79 75 70 69 71 76 82 84 80 78 82 80 72 71 79 84 79 73 73 77 82 
84 85 86 87 85 80 72 66 67 71 74 73 71 70 72 77 84 86 81 75 74 74 74 75 76 78 
76 70 66 68 71 73 74 72 70 71 74 75 73 70 70 73 76 79 81 81 81 84 86 83 79 79 
76 73 75 78 74 67 68 75 77 75 77 80 77 72 71 74 74 72 74 78 78 71 66 71 77 77 
74 76 83 87 83 78 80 83 81 76 73 72 76 81 79 72 67 68 73 84 78 74 75 71 68 75 
82 81 73 68 70 78 82 83 84 86 88 86 80 71 64 65 69 73 73 72 71 72 77 83 87 84 
81 81 79 74 70 71 75 75 68 61 60 64 67 68 69 73 78 79 77 74 75 78 80 80 81 81 
76 75 81 86 84 81 81 77 72 74 78 74 66 67 74 75 74 77 79 76 73 75 78 76 75 78 
80 75 65 64 73 79 76 73 76 84 86 79 74 75 78 76 72 70 71 77 84 82 76 70 69 75 
83 
