P2
112 112
255
86 86 81 77 78 79 75 64 53 49 53 59 61 67 76 78 71 62 53 49 65 77 79 68 58 59 
64 63 60 64 69 70 70 68 61 54 51 54 61 70 74 73 72 70 65 63 64 65 61 57 57 61 
63 63 61 61 63 62 58 51 53 65 77 78 71 60 51 51 55 56 59 77 77 68 60 57 61 67 
72 72 67 66 75 81 73 59 54 56 60 66 66 59 57 65 76 81 78 68 54 44 49 62 71 70 
64 61 61 65 69 69 68 77 72 75 76 78 77 72 69 70 70 67 63 60 58 60 67 67 60 64 
79 83 62 71 78 73 64 65 67 63 64 69 70 67 63 60 56 53 56 63 72 79 78 74 69 61 
52 52 61 68 64 56 52 56 61 63 63 61 63 63 57 52 56 69 79 77 68 58 50 51 59 62 
63 64 63 49 47 48 51 56 61 62 57 56 62 65 59 55 64 76 78 74 71 73 75 77 76 72 
68 68 74 79 80 80 84 83 71 63 71 84 81 66 68 69 63 70 75 80 77 70 64 62 61 63 
66 65 60 57 58 58 56 66 82 64 55 63 73 73 69 70 69 62 60 65 66 62 60 61 62 63 
67 72 80 84 79 70 64 58 54 55 60 64 63 54 48 50 55 59 62 63 61 59 55 53 64 81 
87 77 67 58 51 51 59 65 68 72 70 61 56 57 59 60 62 65 67 70 72 66 53 52 66 77 
74 67 66 65 62 63 70 78 78 72 69 68 69 72 77 78 71 66 73 83 76 60 53 56 58 65 
72 76 74 68 66 63 59 62 67 67 61 57 56 56 60 71 82 69 58 62 69 65 65 72 68 57 
52 56 58 57 62 66 66 66 68 72 78 82 78 67 58 59 63 64 61 60 58 52 46 47 51 56 
62 68 68 62 53 56 71 88 89 78 65 58 52 51 54 60 65 71 78 76 65 61 59 64 64 66 
70 74 75 67 55 54 64 70 64 57 58 58 52 51 63 76 76 65 54 51 56 64 69 69 65 67 
77 81 72 60 46 50 64 66 68 71 70 68 71 70 60 56 59 60 56 55 57 59 63 71 87 78 
70 70 68 63 65 75 71 58 55 59 60 61 64 66 60 56 56 62 72 83 80 66 54 57 67 70 
65 60 59 53 48 52 56 57 61 68 72 66 57 59 73 83 82 73 64 60 59 57 56 57 61 66 
67 66 66 66 65 62 64 65 71 70 71 70 62 58 62 66 61 56 56 55 48 46 57 71 73 61 
48 45 52 61 66 63 62 70 82 83 72 64 55 59 71 67 66 66 65 64 69 72 64 57 56 57 
54 55 58 59 63 73 91 86 81 80 75 71 76 84 79 67 64 68 70 68 68 65 54 48 48 56 
71 86 86 70 55 57 66 71 70 69 66 58 52 59 66 59 54 58 62 61 58 60 67 72 72 67 
62 62 66 70 67 62 62 66 66 64 64 65 65 64 65 68 69 68 73 75 69 63 65 70 67 60 
57 56 52 47 52 64 72 66 57 54 59 66 68 64 62 71 85 86 75 66 67 71 66 63 63 63 
60 59 66 75 76 71 65 62 59 58 59 58 62 77 90 86 83 81 81 81 87 93 84 70 69 71 
71 70 71 68 59 53 53 59 71 83 84 73 62 59 62 65 70 76 72 58 49 58 68 62 48 42 
47 51 53 56 60 62 65 65 61 58 64 75 75 68 66 67 66 64 61 57 53 54 61 72 78 75 
68 57 71 66 69 71 66 56 54 58 60 57 55 62 71 73 67 62 62 65 68 68 66 70 83 87 
77 66 74 73 57 60 65 65 62 64 73 83 86 80 70 61 59 61 62 61 67 82 87 83 78 77 
76 80 88 90 81 71 68 66 63 66 68 66 64 62 62 62 64 71 74 71 66 61 56 54 63 74 
73 57 46 56 68 60 46 38 40 45 50 55 59 60 63 66 62 57 59 68 73 71 66 62 59 58 
57 53 48 51 60 68 73 75 65 53 53 65 70 68 59 51 53 64 73 73 69 71 78 79 72 63 
59 61 66 70 71 72 77 82 76 66 76 66 54 63 69 68 68 74 80 81 80 72 59 53 56 63 
66 68 74 76 81 79 74 69 66 70 79 80 75 71 70 66 60 59 61 60 60 64 67 62 59 62 
66 67 66 61 52 49 59 71 66 54 50 58 65 62 52 46 47 49 54 62 66 64 63 68 71 68 
62 63 69 70 66 60 57 58 61 63 60 62 64 62 58 57 56 53 57 68 74 70 60 58 63 72 
82 84 83 85 88 85 78 71 69 69 71 73 75 76 75 76 76 72 69 58 58 67 68 64 67 76 
75 65 60 57 51 52 58 63 65 70 72 72 73 73 71 66 62 64 72 75 70 70 74 69 59 56 
56 54 55 61 65 64 63 66 67 66 65 60 55 55 61 62 54 47 56 66 68 64 60 56 56 58 
64 72 74 66 61 69 80 79 68 62 66 70 69 65 63 66 72 77 76 71 65 59 49 46 52 56 
62 72 76 69 60 64 73 71 75 80 84 87 88 84 81 84 88 83 74 70 74 79 78 79 84 83 
63 58 64 66 63 55 58 72 70 55 48 51 55 60 64 62 58 62 77 68 62 64 69 70 67 69 
75 72 66 68 71 66 56 52 53 51 51 55 59 65 70 72 68 63 61 60 60 64 66 56 45 45 
58 69 68 63 60 58 60 66 74 78 73 62 56 66 80 79 66 62 66 70 70 70 70 70 74 80 
79 69 63 60 55 51 52 57 59 62 68 74 70 63 58 60 70 70 75 75 75 74 75 82 89 86 
73 66 73 83 84 85 90 89 66 65 66 65 57 48 54 69 73 64 55 56 60 66 69 65 56 79 
81 64 53 58 68 75 76 75 75 68 60 63 67 62 52 46 45 45 44 45 50 63 74 73 62 54 
54 58 63 67 67 60 49 51 63 68 64 59 55 54 60 70 77 76 65 52 51 63 75 73 62 59 
66 70 70 74 73 69 68 70 69 63 60 64 64 59 56 56 56 55 58 63 64 61 59 61 66 75 
76 62 62 67 69 70 73 77 76 74 78 84 83 79 80 80 73 70 68 66 57 47 53 68 75 72 
65 60 60 66 71 68 58 75 79 64 53 58 68 75 76 75 70 62 58 63 69 65 53 43 39 40 
39 39 47 63 75 72 57 47 49 58 62 65 67 64 58 60 68 71 65 57 50 49 57 67 72 70 
60 50 50 62 70 65 58 60 67 72 74 77 77 70 64 60 57 56 59 62 64 62 59 56 51 50 
52 56 58 57 57 64 69 70 76 71 71 67 68 62 60 70 84 88 82 76 70 64 63 65 80 74 
71 68 60 53 58 66 68 69 69 65 64 71 73 67 66 71 72 66 60 61 64 69 72 71 65 61 
62 67 69 66 57 48 45 47 48 46 54 69 75 72 62 53 53 60 64 64 65 63 57 61 70 74 
68 56 48 46 52 61 66 68 66 61 60 62 64 59 54 59 68 73 74 74 71 68 63 55 51 53 
58 56 52 56 62 56 46 45 52 59 61 57 57 62 64 59 52 52 57 63 72 64 60 70 86 87 
76 67 62 60 59 61 81 76 72 69 63 62 68 68 61 62 68 71 72 75 72 61 66 68 72 71 
66 60 57 63 70 69 63 60 61 61 57 54 54 53 59 61 59 59 64 70 71 69 68 62 59 61 
64 65 63 57 50 52 63 70 62 52 45 45 51 57 63 71 78 77 71 65 59 53 50 54 61 65 
65 60 59 63 65 58 52 56 60 51 41 48 61 57 44 49 64 73 71 63 60 64 67 64 58 52 
48 53 63 73 80 69 79 79 72 68 70 68 65 66 73 74 67 64 62 67 75 73 62 57 63 71 
73 72 66 63 62 65 69 69 65 57 55 62 71 69 59 58 60 52 43 41 47 58 65 66 61 61 
66 65 61 64 68 66 56 53 61 66 62 54 47 48 54 57 53 47 44 47 53 56 62 71 79 81 
75 66 59 55 54 54 55 58 60 57 55 63 70 64 54 60 64 47 36 44 59 60 53 61 79 86 
78 66 62 65 68 66 62 59 57 55 57 65 70 70 67 77 76 76 78 73 68 69 63 67 63 61 
60 67 74 73 64 58 61 68 70 66 61 60 58 61 63 63 61 57 56 62 70 68 60 61 70 62 
47 42 50 60 64 61 56 58 64 63 58 60 66 61 49 47 58 68 65 58 54 55 54 49 44 41 
42 46 52 56 61 67 70 71 68 63 59 60 60 58 57 62 70 67 61 66 69 62 53 56 61 48 
37 47 62 61 59 67 80 84 77 66 58 60 66 66 63 63 63 62 61 62 60 58 63 77 84 77 
74 67 65 71 59 63 63 63 62 63 66 68 64 60 63 70 69 62 68 65 66 67 64 60 60 62 
59 59 64 62 58 68 82 79 61 52 57 60 59 57 56 61 67 66 61 59 61 57 47 45 59 70 
69 67 69 68 60 49 40 34 33 38 46 55 61 60 58 58 62 59 55 54 57 58 61 70 78 74 
62 59 61 53 48 54 55 46 43 56 69 64 57 59 67 72 72 64 55 54 61 65 62 61 64 65 
63 64 66 64 62 66 73 70 58 55 67 75 62 63 64 70 68 60 57 62 65 62 65 69 66 59 
75 77 82 81 69 57 62 69 66 60 56 54 55 67 85 81 64 59 61 57 56 61 66 68 68 67 
62 59 60 59 52 47 57 70 74 78 83 78 64 48 34 26 25 32 43 55 60 54 48 54 62 60 
51 45 46 50 56 66 71 64 53 48 48 45 43 47 46 39 42 65 74 67 59 56 60 65 68 63 
54 54 59 62 62 61 66 71 71 69 71 73 72 67 59 57 56 54 58 67 62 61 64 76 76 65 
58 63 68 63 59 60 59 70 78 83 87 83 69 57 63 76 76 64 56 53 56 67 76 71 60 60 
67 62 63 72 75 69 63 61 59 54 55 57 50 46 55 68 77 83 85 76 61 44 28 19 21 32 
47 63 70 62 54 61 67 60 46 40 40 43 48 53 55 52 47 46 46 40 40 43 40 35 39 57 
71 71 67 65 66 65 59 54 54 56 58 62 66 67 72 78 77 73 71 73 72 62 52 54 66 74 
70 65 64 59 65 76 80 74 68 69 72 65 54 52 58 67 73 75 76 72 62 58 65 77 79 71 
63 63 68 74 72 62 57 64 73 72 69 75 75 66 61 62 57 47 41 42 40 40 48 62 72 77 
75 65 56 45 29 18 20 31 49 72 83 76 75 78 74 59 42 37 41 45 47 48 50 51 51 51 
48 42 40 46 48 45 45 53 64 71 72 74 71 61 46 43 50 52 53 61 74 78 78 79 77 71 
69 71 69 60 53 59 71 78 76 73 69 59 63 67 75 76 70 69 73 69 58 57 65 65 65 66 
65 64 63 64 69 74 75 72 70 74 79 79 71 60 55 64 74 71 65 64 65 64 66 68 60 43 
31 34 37 40 47 56 63 66 61 56 56 53 37 22 17 28 48 70 86 90 94 99 87 62 43 39 
44 49 52 54 57 58 56 51 47 43 45 54 65 67 63 63 66 70 74 75 70 58 45 44 51 51 
50 62 83 87 81 76 72 71 72 75 73 64 58 63 69 69 66 67 70 73 62 54 64 70 65 62 
73 78 70 66 74 65 65 68 68 65 66 70 72 71 69 67 66 69 72 71 64 55 52 59 67 64 
54 51 55 57 63 67 59 43 37 45 54 57 58 61 63 62 58 56 58 57 44 27 26 42 62 77 
86 90 98 107 96 71 52 45 44 48 55 59 62 62 57 51 50 51 54 62 70 74 77 77 76 77 
76 71 66 59 54 59 63 56 51 64 82 87 80 76 73 70 74 77 73 66 63 65 65 60 57 60 
63 65 68 56 60 68 65 63 77 88 82 71 77 71 71 76 77 70 64 65 67 65 60 57 53 51 
52 54 52 48 48 57 66 63 55 50 51 51 52 55 49 41 45 58 70 73 71 72 70 67 63 61 
64 62 49 39 46 69 89 96 92 90 97 101 92 77 62 48 40 41 48 53 56 57 55 56 61 65 
66 64 62 63 69 74 79 80 73 63 56 56 59 68 72 63 58 70 82 83 81 79 76 71 72 74 
69 66 68 70 68 61 55 56 55 53 79 71 71 76 75 74 84 93 88 70 81 78 77 81 81 73 
62 58 58 56 52 48 43 40 41 43 45 46 49 57 67 67 60 56 54 52 50 49 45 40 42 53 
62 64 70 72 68 65 64 66 69 68 57 48 59 89 110 111 103 101 101 99 91 78 64 44 
30 29 33 36 40 44 51 60 73 81 76 65 55 49 50 58 65 67 64 54 47 47 54 64 68 65 
62 71 82 82 79 78 74 71 70 70 68 69 70 69 65 58 57 56 50 47 89 84 82 82 81 81 
85 89 84 71 84 84 77 76 78 75 67 62 59 56 52 48 46 45 46 48 50 53 55 59 62 63 
61 57 55 56 59 60 54 43 39 37 39 44 54 58 55 54 58 62 70 75 66 54 61 88 113 
116 112 111 110 105 96 81 62 36 18 16 21 20 23 31 43 58 74 82 74 62 52 47 48 
52 53 56 58 53 47 44 48 56 61 60 59 66 77 80 77 73 71 69 69 70 72 72 69 62 55 
52 55 56 50 46 92 89 85 81 79 75 75 78 68 74 78 76 67 64 67 71 71 70 69 64 58 
56 56 58 59 59 61 64 64 59 54 54 56 55 55 59 67 71 66 55 44 33 30 36 45 48 49 
51 56 59 67 78 73 60 67 91 115 124 120 116 112 108 100 85 61 34 17 16 19 17 16 
24 38 53 68 72 62 51 49 57 64 64 58 56 57 55 52 50 50 52 56 56 55 59 73 82 79 
72 68 69 71 73 76 75 68 60 55 54 60 63 57 51 88 89 83 78 73 66 63 69 73 70 63 
61 58 56 58 61 67 72 71 65 59 58 63 66 68 66 67 71 69 58 49 47 52 56 55 60 70 
76 75 68 58 46 41 41 45 48 52 59 62 64 70 81 84 78 83 104 127 134 129 119 109 
102 94 80 61 41 27 27 31 25 25 31 42 54 65 67 57 45 49 67 77 76 66 56 50 50 55 
57 55 52 52 55 57 63 76 87 85 74 66 67 73 77 78 74 69 68 68 68 73 77 70 60 79 
85 82 76 70 65 61 60 66 66 62 61 61 56 53 55 63 70 66 56 52 57 65 69 70 66 66 
71 69 57 47 46 51 56 57 60 68 77 79 73 64 59 55 48 42 42 50 60 65 66 75 90 98 
102 106 115 127 130 125 115 104 93 80 68 56 43 35 35 37 36 37 45 52 59 66 66 
59 50 52 64 74 73 62 48 41 43 55 63 60 50 47 55 67 75 82 86 83 71 62 63 71 74 
72 70 70 73 73 72 77 83 82 75 71 77 77 72 70 70 70 48 59 71 76 77 71 61 55 59 
67 69 60 50 50 60 70 75 69 61 60 63 63 55 49 49 51 53 54 59 69 79 79 70 62 63 
63 49 34 30 41 53 59 63 76 94 113 124 126 123 120 116 111 108 102 90 73 59 50 
38 31 32 32 35 42 52 59 60 61 62 60 53 50 54 58 59 53 47 43 49 62 68 60 49 47 
59 75 81 78 77 75 67 59 60 61 60 63 66 68 67 62 60 67 80 84 86 70 71 68 63 66 
72 52 47 58 75 85 84 79 70 64 65 70 66 57 52 56 67 76 76 66 55 53 55 53 49 51 
57 56 52 52 58 69 81 84 71 65 71 71 53 33 28 41 56 61 65 80 105 130 143 143 
133 122 114 109 109 109 101 85 68 51 36 26 25 25 26 36 50 56 55 52 53 53 48 43 
44 48 51 52 54 58 65 70 69 60 53 54 66 74 72 66 65 66 64 58 52 48 46 54 63 63 
58 53 55 64 73 80 86 77 74 62 53 58 68 66 57 61 71 76 79 81 77 70 68 68 66 62 
60 65 70 74 69 58 51 51 51 46 43 52 65 63 55 56 62 71 83 90 85 81 85 81 58 38 
40 59 75 82 87 102 130 154 164 158 146 138 132 127 125 128 125 111 90 67 45 31 
27 22 18 25 39 47 47 44 44 45 42 41 45 52 55 58 65 73 78 76 66 57 57 64 68 64 
56 52 57 60 56 50 44 41 44 54 62 59 53 57 66 70 69 70 74 81 82 66 53 56 77 72 
65 62 63 67 73 80 81 73 67 69 74 76 73 72 70 69 62 53 53 57 55 47 46 55 64 62 
56 58 67 75 86 94 95 95 94 81 58 42 50 75 97 107 118 140 166 184 186 175 164 
160 160 157 154 155 151 135 113 90 66 47 35 22 11 16 30 39 41 40 41 44 46 48 
55 60 60 63 71 79 81 75 63 52 54 66 66 56 48 48 55 56 49 43 43 46 55 65 66 61 
60 68 73 70 62 58 63 74 82 72 61 61 75 71 64 60 60 64 70 77 77 71 65 70 80 85 
80 75 74 71 63 57 58 62 60 53 52 56 57 51 47 55 70 82 92 98 100 98 92 76 54 43 
55 82 107 127 149 176 201 212 208 198 189 188 190 191 186 181 170 148 128 110 
87 63 40 22 9 13 28 36 37 37 40 46 53 57 59 58 57 63 75 78 76 72 63 50 47 56 
62 58 52 53 60 60 54 51 53 59 67 72 72 70 72 72 67 58 53 55 63 66 73 72 70 67 
71 65 61 59 61 63 67 69 67 61 59 64 74 77 72 67 70 69 63 57 57 57 53 49 51 57 
56 49 46 57 73 90 101 100 94 90 86 76 61 54 66 91 116 143 174 205 228 237 235 
229 222 218 220 217 211 201 184 161 141 126 106 75 43 21 14 21 32 35 34 34 36 
44 56 59 53 46 48 64 75 74 68 68 65 52 42 49 59 61 60 61 67 70 67 65 66 68 68 
68 72 77 76 68 55 51 53 60 68 65 68 71 72 75 67 60 61 64 66 65 62 60 57 55 55 
59 63 63 56 54 54 53 50 46 47 45 39 36 44 58 61 61 60 66 79 95 103 93 80 80 82 
77 69 66 76 97 125 155 190 224 246 255 255 255 249 237 235 233 229 222 208 187 
165 148 124 87 50 27 25 33 37 34 33 36 39 47 57 58 49 42 48 64 73 68 60 59 61 
57 51 54 61 64 65 67 70 72 70 67 66 64 60 57 62 71 68 60 55 57 62 64 67 65 65 
66 67 72 61 56 63 73 75 68 61 56 55 56 59 61 61 59 55 49 46 42 38 39 44 44 38 
34 41 55 64 67 67 70 79 88 89 78 70 74 79 73 65 63 72 94 123 155 191 224 253 
255 255 255 255 237 234 241 247 248 242 225 201 176 147 105 62 37 33 38 38 34 
37 45 51 56 63 63 58 56 61 65 66 60 51 47 53 61 66 68 67 67 67 68 67 65 61 57 
55 54 54 53 56 63 64 60 65 73 70 61 63 63 60 61 74 70 56 53 65 76 77 71 64 61 
61 63 64 65 67 67 63 58 54 47 43 44 49 53 47 43 45 52 59 63 65 65 68 71 70 66 
70 76 75 64 53 50 61 85 116 149 182 215 247 255 255 255 246 224 223 240 255 
255 255 255 232 204 172 129 82 47 33 32 32 34 41 53 62 66 68 69 68 71 70 62 52 
46 41 39 46 61 72 75 72 68 67 67 66 64 61 54 52 55 58 61 65 68 66 65 71 77 70 
60 61 62 59 63 71 67 59 57 66 73 73 72 70 69 68 66 65 66 71 72 67 63 64 63 59 
55 56 57 54 51 50 53 57 64 68 67 65 62 62 67 71 72 63 49 38 39 58 88 119 147 
177 210 244 255 255 255 232 214 214 231 255 255 255 255 255 234 201 155 100 
54 26 19 24 34 45 59 69 72 72 71 70 71 67 53 38 31 31 33 42 54 64 66 64 62 64 
68 70 72 70 65 62 62 65 70 75 76 71 65 69 69 63 61 64 66 67 64 63 64 66 71 75 
74 73 74 76 76 74 70 65 66 70 70 64 61 68 76 76 69 63 56 52 50 51 55 64 76 84 
83 78 70 70 74 70 57 42 28 23 31 61 100 127 150 179 212 243 255 255 241 222 
208 207 226 255 255 255 255 255 255 231 177 112 56 20 10 19 33 47 61 72 76 76 
75 73 69 61 48 34 26 26 30 36 45 52 54 51 53 62 71 76 77 78 75 69 66 66 69 73 
73 70 65 63 61 58 62 68 72 76 52 51 58 69 78 82 78 72 73 76 76 75 73 72 70 70 
69 62 57 66 78 83 79 70 58 51 51 52 58 72 86 94 95 89 81 77 77 67 42 22 10 7 23 
60 102 131 153 180 210 231 239 233 221 208 199 205 228 255 255 255 255 255 255 
249 188 120 61 24 12 17 27 37 54 65 68 72 79 80 69 57 49 41 33 29 31 35 43 50 
51 48 50 61 72 74 72 71 70 68 65 63 63 66 68 67 67 66 62 60 64 71 73 49 44 46 
55 65 74 78 73 65 63 65 65 63 70 75 73 69 67 62 57 59 68 76 78 72 66 62 59 58 
63 74 82 83 85 85 79 75 73 60 36 16 7 6 24 62 105 134 159 185 206 214 212 205 
197 186 182 198 228 255 255 255 255 255 255 251 193 129 74 37 20 14 15 22 36 
48 51 60 77 76 63 51 49 49 44 39 39 42 49 58 63 59 55 59 66 65 59 59 62 65 65 
65 64 64 65 68 72 74 71 68 72 77 67 53 53 58 63 64 68 69 62 56 55 57 54 51 58 
69 69 61 58 57 54 53 58 65 70 73 73 73 69 64 67 72 70 63 67 75 73 67 65 58 37 
23 20 24 40 71 109 141 166 191 210 208 193 180 168 158 158 179 212 246 255 255 
255 255 255 245 200 146 95 54 28 14 9 12 26 39 45 54 66 63 47 40 48 55 54 53 
55 55 55 64 75 74 64 59 60 56 53 54 60 65 68 69 66 61 62 67 73 77 80 80 82 84 
65 67 75 80 77 73 72 70 62 56 59 63 57 49 53 63 61 50 45 48 52 55 58 58 61 66 
70 73 73 69 66 66 59 51 60 74 76 71 67 62 49 38 38 43 56 83 108 129 151 180 
204 205 185 161 142 131 135 154 182 213 247 255 255 255 255 243 208 162 112 
67 34 18 12 14 26 40 48 55 57 49 36 36 48 56 59 62 69 63 57 62 75 78 71 63 59 
56 55 60 66 68 69 65 59 54 57 64 70 77 85 87 86 86 65 73 85 88 81 77 80 78 69 
63 66 70 68 63 64 68 59 44 37 41 49 56 57 52 48 48 53 61 70 68 62 59 56 55 63 
79 83 78 75 69 58 50 48 53 66 87 101 107 122 154 185 197 181 152 129 120 125 
143 165 192 230 255 255 255 255 236 207 166 116 69 35 20 16 17 26 37 46 49 50 
43 37 40 45 48 52 62 69 66 53 53 65 72 71 67 62 59 61 67 71 71 70 64 56 53 58 
63 66 75 85 86 80 79 59 68 80 80 73 72 79 80 73 68 71 73 73 74 73 69 59 46 39 
40 45 53 55 48 39 33 34 46 62 65 54 51 58 64 71 79 83 79 74 70 65 58 54 58 76 
95 105 104 112 133 165 181 171 147 128 122 130 147 168 194 226 255 255 255 245 
221 192 155 111 68 36 22 19 20 28 36 41 42 43 44 43 41 37 34 43 58 67 62 54 51 
58 64 67 67 63 61 65 71 72 71 72 69 63 61 64 64 65 74 82 78 71 72 58 63 72 73 
65 67 74 75 73 73 75 73 73 73 69 60 53 50 48 47 47 53 61 59 49 36 32 40 52 56 
48 44 54 65 70 75 77 73 67 66 67 66 63 68 86 107 115 115 117 128 148 162 157 
140 123 118 128 146 170 195 221 245 255 253 233 202 170 137 98 61 37 26 22 23 
31 42 44 40 41 45 44 38 32 34 48 64 70 64 59 59 62 64 66 64 60 62 71 76 72 69 
73 72 67 66 67 66 66 71 74 66 59 65 64 67 73 74 68 67 73 74 74 77 78 73 67 65 
60 52 49 56 62 60 55 60 70 73 67 57 49 43 48 50 42 39 46 55 61 67 72 69 62 60 
67 69 65 68 81 98 111 114 117 124 137 149 143 123 105 101 111 130 156 183 211 
235 249 248 224 187 151 116 80 49 34 30 24 20 28 44 51 48 46 46 44 40 40 49 64 
74 74 67 62 63 67 71 69 61 57 67 80 82 75 71 71 70 65 66 68 66 66 67 63 54 50 
53 71 72 75 76 73 73 75 75 73 74 74 65 57 56 53 47 48 62 75 76 66 61 64 65 66 
69 65 57 53 50 45 42 45 50 52 58 67 69 65 61 63 62 57 56 63 76 90 101 110 119 
133 145 136 108 90 90 101 116 138 168 200 224 239 240 217 178 137 99 62 35 28 
32 28 18 20 40 57 58 55 52 50 52 59 69 77 80 75 67 59 60 70 80 77 66 63 75 88 
86 80 77 74 68 65 65 67 65 64 64 61 57 55 53 73 74 75 78 79 77 74 71 70 68 64 
58 52 52 53 48 47 64 81 82 70 57 49 48 55 68 79 75 65 56 53 54 57 57 53 54 62 
67 68 66 62 55 49 48 54 67 82 98 107 116 130 143 134 108 93 97 108 118 133 160 
189 207 219 222 206 172 132 91 53 24 22 37 35 24 24 42 58 62 60 59 59 63 72 80 
82 78 72 64 56 53 67 84 85 77 77 84 88 85 83 81 76 68 65 66 63 60 62 67 70 74 
76 71 69 68 73 82 84 75 68 65 65 62 60 56 55 60 60 52 48 59 76 80 71 60 54 53 
59 73 85 83 71 60 58 61 65 65 62 61 60 61 62 62 58 51 46 48 58 74 92 106 111 
113 122 136 137 119 108 114 122 127 137 156 176 189 200 205 193 163 129 92 52 
21 18 32 40 33 37 52 57 54 56 61 64 65 69 75 75 69 64 60 52 49 59 75 82 83 84 
85 82 81 83 78 68 61 61 61 58 56 63 72 75 82 88 86 55 55 62 78 81 72 66 64 62 
59 58 60 64 70 71 61 53 60 72 77 74 73 73 73 74 79 79 72 61 56 54 58 63 68 70 
72 67 55 46 47 50 47 43 46 58 77 98 112 114 114 123 137 146 139 132 133 138 
141 148 161 174 186 196 196 178 149 119 88 48 17 13 26 35 40 49 57 54 48 53 65 
71 65 60 62 62 59 56 56 54 49 51 60 66 72 75 76 77 81 81 71 55 50 54 56 58 62 
68 71 69 71 77 81 46 45 53 67 77 76 72 67 60 53 55 61 67 72 75 69 62 63 70 74 
75 80 79 74 72 69 63 53 46 46 49 56 64 68 74 81 79 61 41 39 46 45 43 46 58 77 
99 118 128 134 145 158 163 160 158 159 160 163 171 181 193 201 205 193 164 133 
107 78 41 11 4 15 27 37 49 54 50 50 62 77 79 66 51 48 53 55 56 58 59 55 51 51 
54 60 65 65 70 77 74 60 48 46 51 55 63 73 77 71 63 59 60 59 56 54 56 70 82 85 
80 67 56 52 55 60 61 62 66 65 64 65 67 72 77 79 73 60 55 60 56 47 42 42 48 56 
67 71 72 82 86 73 57 49 49 50 54 60 70 89 119 145 163 177 186 189 184 183 188 
189 189 192 203 216 222 220 209 186 157 127 101 73 35 6 0 9 21 32 41 46 47 56 
75 86 80 62 46 44 53 60 61 59 60 59 57 56 58 63 63 61 62 65 60 52 48 52 55 60 
71 82 83 73 62 57 53 48 73 72 71 78 88 92 81 63 55 59 63 60 54 52 55 61 66 68 
69 74 83 85 72 54 51 64 68 58 51 49 48 56 69 73 71 74 81 81 72 62 57 57 67 77 
90 113 150 185 210 224 232 223 212 215 220 219 214 216 228 243 244 230 207 181 
155 129 102 72 36 9 3 13 22 30 37 41 46 58 74 79 70 55 44 46 55 62 59 53 52 56 
60 63 67 70 68 63 60 59 58 54 54 58 63 69 79 86 82 70 59 57 59 62 78 79 77 80 
86 86 74 60 58 68 70 61 53 51 54 62 71 74 73 77 87 90 75 58 61 76 76 66 62 60 
53 55 67 75 73 72 76 79 76 69 61 61 73 90 106 134 175 212 240 255 255 255 253 
255 250 235 224 228 239 249 248 232 205 177 150 123 96 65 36 18 16 24 28 31 39 
46 48 52 59 62 58 50 45 46 49 52 50 46 49 57 62 66 67 67 67 65 65 67 70 67 62 
61 66 74 79 80 76 66 59 60 68 75 72 75 74 72 73 71 63 56 63 72 71 63 59 56 54 
60 69 69 65 68 79 83 72 58 58 68 65 56 63 68 62 58 66 78 83 81 79 77 77 72 65 
67 81 100 119 147 185 220 248 255 255 255 255 255 255 232 221 228 238 240 236 
222 197 165 133 101 74 49 30 21 27 35 34 34 44 53 50 41 39 44 48 48 47 46 44 
43 45 52 61 68 72 69 65 64 67 70 73 75 79 78 68 61 66 70 70 69 71 70 67 67 71 
74 70 69 69 65 60 56 53 53 61 69 68 66 67 59 52 51 55 52 44 45 60 69 62 52 50 
51 48 47 56 68 63 55 63 79 88 89 83 79 78 75 69 74 91 111 132 160 193 221 244 
255 255 255 255 255 245 216 211 220 222 216 210 200 178 146 110 78 54 36 24 22 
32 40 40 39 49 60 53 37 30 34 42 47 49 50 44 40 46 60 73 78 77 74 74 76 80 83 
78 73 72 71 64 59 59 63 62 67 77 82 78 74 72 70 69 65 64 63 56 52 49 51 58 62 
64 65 68 62 47 43 47 40 32 33 46 58 58 51 49 48 47 49 57 59 55 50 57 72 84 85 
82 82 82 76 73 80 97 117 141 171 202 223 237 249 255 255 255 254 226 206 205 
209 195 183 177 169 153 129 99 72 53 37 27 27 35 42 44 45 51 60 60 49 38 37 44 
51 56 56 47 39 42 55 66 70 71 77 83 89 92 88 78 63 55 55 55 51 52 57 65 77 87 
88 81 75 74 72 66 61 64 68 64 59 55 55 58 59 55 55 58 56 48 47 51 48 40 41 49 
55 56 54 54 56 59 60 58 54 50 50 54 64 72 74 75 78 81 79 78 88 105 124 151 182 
209 225 235 241 241 238 234 222 208 201 196 185 166 150 145 139 131 118 97 74 
54 41 34 34 40 47 49 48 50 57 63 62 54 47 51 57 60 55 43 35 37 44 51 57 64 72 
80 85 82 77 67 54 47 51 54 52 51 56 69 84 88 81 73 73 78 77 69 68 72 74 70 66 
63 60 59 56 48 44 47 50 52 57 61 58 53 52 56 57 54 55 60 67 72 71 64 56 53 53 
53 55 61 63 65 72 78 82 88 101 120 139 166 195 216 231 238 237 227 213 201 193 
184 178 167 150 135 125 117 111 111 107 90 65 45 34 32 37 46 54 56 52 47 48 57 
65 64 58 57 61 60 50 39 37 40 41 42 54 64 69 73 74 72 65 58 53 51 59 66 65 61 
64 72 80 78 68 63 71 81 79 77 79 78 72 65 64 63 61 60 56 52 50 53 58 63 64 65 
61 56 57 61 59 56 58 67 78 85 81 68 57 55 55 55 54 55 57 58 64 73 81 94 112 
132 155 181 206 226 240 245 234 210 185 169 156 145 134 121 110 105 102 92 80 
83 84 73 53 33 21 20 30 45 59 64 56 45 41 48 61 69 64 58 62 61 48 45 50 51 46 
44 56 70 72 73 76 75 67 61 55 54 61 73 76 73 74 75 74 67 57 55 65 76 77 80 84 
78 67 58 56 60 62 62 63 65 67 68 71 70 66 61 56 52 53 58 60 58 64 79 91 91 81 
65 53 51 59 64 62 57 52 51 57 67 78 91 108 129 157 185 210 232 249 251 231 197 
165 140 118 100 87 75 71 73 73 62 49 48 55 57 47 28 12 10 21 38 56 60 54 46 42 
47 61 69 64 57 59 62 58 58 65 64 53 51 64 76 75 73 78 81 77 68 57 52 57 66 69 
72 74 75 70 60 50 49 59 68 72 74 78 76 68 60 56 62 67 70 73 76 76 75 74 71 62 
54 51 48 49 53 57 58 68 86 93 83 67 55 49 53 67 77 71 57 46 46 53 64 76 86 98 
118 147 179 209 233 250 251 229 196 165 132 99 71 55 48 45 46 47 36 24 23 34 
45 44 30 13 10 21 35 45 48 49 50 53 54 61 65 61 55 56 60 62 66 73 70 61 59 69 
77 72 66 70 77 78 71 62 56 55 57 56 58 67 73 68 59 53 52 56 64 67 62 66 72 71 
65 61 64 71 76 79 80 74 68 66 64 57 51 52 54 54 57 56 55 65 80 83 70 56 51 52 
59 74 84 72 51 40 42 51 64 80 91 97 110 139 174 207 231 244 245 232 210 185 
151 106 65 47 42 39 37 36 31 22 21 33 42 40 27 17 21 32 36 37 40 47 56 61 58 
55 55 57 56 54 52 55 64 73 70 62 61 67 73 68 61 63 71 76 73 66 63 62 59 53 52 
63 72 70 65 62 61 62 64 67 53 54 62 66 66 60 61 66 71 75 74 67 58 56 57 54 55 
63 70 72 69 61 53 55 66 71 63 57 55 56 61 72 78 67 44 34 39 47 64 84 97 102 
110 135 171 205 229 239 241 237 228 212 181 132 84 62 54 47 42 42 40 33 33 40 
43 32 19 20 36 43 37 33 36 44 52 55 49 42 43 52 58 55 51 56 66 74 72 61 57 61 
67 65 63 65 71 74 71 67 66 68 65 59 59 67 74 74 67 62 61 63 63 63 53 52 59 65 
62 55 51 55 58 59 59 57 53 50 53 57 63 75 84 84 77 65 53 46 51 60 66 67 63 58 
57 67 72 62 46 37 41 45 59 79 91 95 108 135 169 203 227 239 242 242 239 230 
203 157 116 93 75 59 51 52 51 44 42 50 45 29 21 30 46 49 36 29 34 41 44 42 38 
36 40 49 57 59 60 68 77 78 72 61 54 57 65 69 67 65 65 66 67 66 66 67 70 69 68 
73 76 71 61 54 53 57 58 53 61 60 70 74 63 51 47 51 52 47 44 47 51 54 55 59 64 
73 81 81 75 65 52 40 39 50 62 69 67 59 56 64 69 60 47 45 48 51 58 68 76 85 104 
133 166 198 225 240 244 245 244 236 213 179 147 125 98 70 60 63 63 56 53 58 54 
39 34 46 55 51 39 36 41 46 44 37 35 39 45 48 52 57 66 76 79 76 66 57 52 57 67 
74 71 63 57 59 66 69 69 71 77 78 76 75 74 69 60 51 49 58 51 53 64 67 77 79 65 
50 49 59 59 50 42 46 57 65 63 56 54 61 71 75 73 65 54 41 36 39 49 59 62 60 62 
68 68 56 44 44 54 60 60 59 61 75 97 124 155 187 219 240 248 250 253 244 221 
194 168 144 112 79 69 78 78 69 66 69 66 53 47 51 56 51 50 55 61 62 55 43 37 43 
49 48 44 48 60 71 73 67 61 57 54 57 69 79 76 63 57 61 68 72 74 78 85 85 78 74 
72 72 70 65 60 61 61 62 63 65 75 75 63 53 56 66 71 63 54 56 68 75 69 55 50 58 
70 78 76 68 56 47 41 38 41 50 58 63 67 74 72 54 39 44 57 63 58 51 53 65 83 108 
140 177 212 236 249 255 255 253 230 201 176 149 114 85 77 83 83 74 71 78 77 63 
52 48 45 47 60 73 78 77 68 53 41 45 53 51 43 41 51 64 70 68 67 66 61 61 70 78 
76 66 61 65 68 67 71 79 87 85 78 72 72 76 81 77 65 70 74 74 66 67 69 67 61 61 
68 74 75 70 63 63 69 74 67 55 54 65 76 79 72 61 55 51 49 45 43 48 57 64 69 74 
75 63 49 53 61 58 49 47 51 58 69 90 124 166 201 224 239 253 255 251 228 202 
176 146 113 87 77 77 73 66 67 75 78 69 54 42 36 41 62 77 80 77 73 61 49 50 59 
58 48 42 52 67 76 77 75 73 67 64 70 75 71 63 63 67 67 62 64 74 82 79 74 72 71 
75 82 79 69 71 77 66 69 75 70 60 60 70 79 75 68 67 67 66 65 63 57 51 54 67 74 
69 57 51 52 55 56 52 47 49 57 65 68 71 72 68 67 71 70 59 49 53 63 65 61 71 105 
147 182 204 222 237 243 232 212 193 171 143 115 90 75 68 66 63 61 65 69 64 54 
44 38 40 55 70 70 69 69 61 53 53 59 62 57 53 61 73 79 77 74 68 60 56 62 70 67 
59 61 68 68 62 63 70 74 74 73 72 71 75 84 82 65 59 67 71 66 77 70 55 58 76 81 
71 61 62 70 70 65 59 49 44 53 65 67 59 52 56 66 72 68 60 50 49 59 71 76 72 71 
72 77 85 84 69 60 68 79 76 64 63 88 128 164 192 213 228 231 221 205 187 168 
141 119 97 79 69 68 67 60 55 52 52 52 52 49 48 57 65 66 65 63 58 51 48 53 60 
64 65 68 72 74 74 73 64 46 38 50 63 64 57 57 64 68 68 69 73 73 72 69 67 70 78 
86 81 56 53 83 79 60 68 66 55 55 72 78 68 61 72 81 79 71 63 55 53 62 71 71 62 
64 76 89 94 85 71 55 49 58 76 82 80 73 67 71 81 88 82 75 81 84 74 65 69 89 123 
162 199 222 233 234 228 212 190 162 138 121 107 87 71 68 66 58 49 44 45 51 54 
54 53 57 65 69 68 65 58 50 46 52 64 74 74 69 63 64 77 83 68 42 29 38 57 64 56 
53 59 67 75 79 80 77 73 67 60 64 77 89 71 60 61 87 83 56 61 62 57 59 70 74 70 
70 82 90 81 70 66 65 68 74 77 76 76 80 88 95 94 82 68 54 46 51 65 76 78 71 60 
59 72 83 86 84 82 76 68 70 84 107 137 173 210 232 242 244 239 220 187 150 125 
118 110 90 69 60 56 51 45 42 43 48 49 45 45 50 61 70 74 72 65 55 49 56 71 81 
77 64 53 54 73 88 75 48 36 43 58 66 62 58 62 71 80 84 81 77 75 71 61 58 71 79 
58 68 72 83 82 59 58 62 64 65 70 71 70 77 85 83 71 63 63 68 71 73 71 74 83 86 
81 76 70 62 54 50 46 47 55 63 69 68 60 59 70 81 83 78 75 70 70 83 105 129 149 
175 207 231 244 249 242 218 176 132 106 101 99 85 66 55 48 45 41 38 37 39 37 
31 32 39 50 63 74 75 69 59 51 55 70 81 73 58 46 46 63 79 77 61 53 57 64 65 64 
67 71 75 78 78 72 70 79 83 72 61 69 61 52 62 66 75 77 66 61 64 69 71 70 69 72 
79 81 71 62 61 63 65 66 66 64 70 81 83 74 66 59 56 56 56 57 54 55 58 63 64 62 
70 84 89 80 71 69 74 82 99 124 142 155 172 198 226 244 248 237 209 165 118 90 
82 80 74 64 54 48 44 38 33 31 32 31 29 30 35 42 55 65 68 65 56 48 50 62 70 67 
60 54 51 60 73 74 69 68 68 63 58 58 66 70 71 71 67 62 66 84 94 86 71 64 54 49 
52 50 68 73 73 69 69 73 74 70 69 74 79 76 67 66 69 69 66 68 68 66 69 77 79 76 
76 77 74 66 63 60 58 58 59 61 61 63 76 95 98 84 72 66 71 86 107 129 145 157 
170 197 228 245 244 227 197 157 114 82 69 67 63 55 49 44 41 39 36 36 40 44 43 
42 38 42 53 60 61 61 57 51 49 55 59 61 68 69 65 64 69 72 71 73 69 57 49 51 58 
63 65 67 66 63 69 84 90 85 77 65 59 54 54 48 66 72 77 76 74 74 75 71 67 69 74 
71 67 73 76 73 69 72 74 71 66 68 70 73 80 84 75 62 51 47 47 55 62 65 64 67 77 
91 98 90 73 57 58 73 96 120 144 161 177 203 233 246 236 211 181 145 109 81 68 
62 54 46 40 37 36 39 43 51 58 62 59 51 44 47 58 62 59 62 61 54 51 52 56 62 74 
81 73 67 65 66 67 69 66 56 49 56 62 64 67 71 73 72 74 77 76 77 77 59 68 65 61 
61 69 71 78 78 73 72 75 69 59 58 64 67 69 72 73 67 65 70 71 65 60 57 58 60 66 
67 58 46 38 35 41 55 68 74 75 75 77 83 86 77 59 42 40 52 72 99 133 161 185 215 
237 239 222 194 163 131 101 81 72 65 53 47 45 42 40 43 53 65 71 71 64 52 46 51 
62 64 58 60 61 52 48 52 55 60 71 78 74 65 62 62 64 69 69 61 59 68 74 72 71 76 
80 81 81 75 67 68 69 65 71 52 64 73 72 70 78 75 70 69 72 67 55 53 61 67 69 68 
64 60 59 63 62 57 55 57 56 56 56 56 53 50 47 41 46 59 70 78 81 79 75 73 67 55 
38 27 32 40 50 72 107 148 186 214 228 219 195 170 144 118 95 81 74 66 57 55 59 
57 51 53 63 72 74 69 62 54 48 53 61 59 55 58 57 49 46 52 54 54 61 69 68 64 64 
64 67 75 80 72 66 73 77 73 71 74 78 81 81 76 65 65 76 73 75 55 65 75 73 70 80 
74 71 71 72 67 60 58 61 64 64 63 59 57 59 61 58 55 58 63 63 60 59 60 63 65 58 
49 49 58 67 76 80 75 66 60 53 42 29 26 35 41 41 48 78 121 167 198 205 188 161 
139 123 104 85 75 67 57 50 53 64 67 65 65 68 69 67 66 66 61 54 52 55 57 58 61 
59 50 50 56 57 53 57 63 66 67 69 68 68 76 82 75 64 64 68 70 68 68 68 70 73 71 
66 70 82 78 74 70 71 75 74 71 79 76 75 74 69 66 65 66 63 58 58 58 57 57 61 63 
58 55 61 69 68 62 59 61 65 66 57 46 48 59 69 78 80 71 57 48 46 41 31 28 35 42 
43 45 64 98 137 168 172 152 129 114 102 88 72 60 51 41 35 42 56 65 71 71 65 56 
55 65 75 75 63 49 49 59 67 67 59 51 52 60 62 61 66 70 71 72 73 72 67 69 72 65 
56 58 64 66 65 61 58 56 60 64 66 71 77 78 81 81 79 78 74 70 78 80 80 73 63 60 
65 71 67 57 57 58 55 58 66 70 64 56 58 65 65 57 54 56 58 56 50 46 55 67 75 81 
82 71 56 48 49 50 38 26 24 33 44 55 70 88 113 132 135 122 105 92 83 73 57 43 
33 29 30 39 52 65 71 71 57 43 45 62 80 86 72 53 48 61 70 66 56 48 49 54 60 65 
71 75 73 73 77 75 68 64 61 60 61 65 67 63 59 57 54 54 58 62 61 62 73 74 75 77 
78 78 70 63 81 84 80 68 55 55 65 73 70 65 64 62 57 60 73 80 70 56 52 59 62 58 
55 58 57 54 52 56 67 73 74 77 80 77 66 59 63 66 51 31 19 24 39 56 69 80 89 96 
98 91 79 67 63 57 43 26 17 22 31 44 56 65 70 68 57 45 48 64 82 89 78 62 55 58 
64 64 61 56 49 49 54 60 66 67 65 67 71 72 68 63 60 64 72 74 68 59 56 58 61 63 
67 64 56 61 72 69 63 63 69 76 68 57 85 85 77 66 57 57 65 68 67 69 71 66 61 65 
79 85 75 58 51 58 65 63 62 61 59 56 57 62 69 70 66 69 75 77 71 68 69 69 61 43 
32 33 36 43 51 58 61 67 70 67 53 41 42 42 31 17 10 17 30 42 52 62 67 67 64 63 
65 75 82 85 81 72 64 60 61 68 73 70 59 51 50 55 60 58 56 57 61 64 66 67 68 71 
74 70 62 57 57 59 63 68 72 68 62 66 74 67 54 51 60 72 74 61 78 78 75 70 65 65 
65 63 62 66 69 70 68 72 81 85 80 69 62 63 67 65 60 58 54 52 53 59 66 67 64 64 
67 68 66 66 66 62 55 50 50 49 42 38 36 37 45 56 62 56 40 28 28 34 30 21 19 24 
27 31 42 57 65 70 74 78 81 83 83 84 81 77 71 65 63 69 76 73 61 53 52 57 62 63 
61 58 60 64 71 75 76 71 63 56 56 60 61 57 56 64 71 70 69 68 76 70 54 49 58 68 
79 71 63 69 74 75 71 68 65 62 63 66 68 72 74 76 79 83 86 81 70 66 63 61 57 54 
52 48 48 56 67 72 68 62 56 54 56 62 63 56 48 48 57 62 58 48 38 36 44 59 66 58 
41 29 29 34 36 35 37 38 32 29 40 57 64 67 67 68 71 75 82 86 84 81 78 72 66 65 
67 64 58 55 57 60 65 70 71 72 73 75 79 79 77 67 55 50 58 66 64 55 50 58 65 62 
65 78 82 77 66 60 65 68 76 74 53 64 73 74 70 65 62 63 68 73 71 69 71 72 71 75 
82 81 70 61 60 59 59 62 59 51 48 57 71 78 72 58 48 47 55 65 71 66 55 49 56 64 
64 58 50 44 48 58 63 59 49 44 46 48 47 47 52 52 47 47 55 64 63 54 47 44 47 60 
76 86 88 85 81 75 68 64 63 60 61 64 63 60 62 70 77 81 84 83 77 69 65 63 57 55 
63 70 66 55 53 59 54 51 53 83 86 83 74 70 70 65 68 70 53 63 69 70 70 68 62 63 
72 78 77 72 70 67 65 69 75 76 69 65 65 64 67 72 69 56 50 59 73 76 68 57 51 53 
61 71 81 81 69 58 58 59 59 58 56 49 47 52 56 55 55 59 61 60 56 52 56 63 67 70 
72 68 56 42 33 32 39 53 66 77 82 81 78 75 72 67 63 64 68 72 68 59 61 72 81 84 
85 80 67 54 54 62 62 61 65 70 69 65 65 65 55 54 77 81 81 76 67 63 63 57 70 70 
59 65 68 72 78 80 70 65 68 78 85 84 80 75 74 75 76 75 73 74 75 70 71 76 69 55 
49 58 69 70 64 59 60 62 63 67 76 84 81 70 63 56 55 57 55 51 50 55 60 62 61 59 
57 55 50 48 57 70 78 77 71 62 51 42 39 43 52 59 62 66 71 72 73 77 78 71 63 64 
71 76 73 66 68 80 85 82 80 76 62 50 52 65 72 67 69 74 74 74 76 71 64 63 75 75 
69 63 55 51 52 51 80 79 81 65 68 74 84 88 78 66 63 73 88 93 91 87 86 84 80 73 
71 74 77 73 69 69 61 46 45 56 65 68 66 63 62 64 59 54 62 74 79 74 65 59 59 60 
57 54 57 67 75 74 65 54 47 42 41 48 61 74 75 66 57 52 52 52 55 62 70 71 63 60 
62 64 69 76 79 70 60 61 70 76 74 71 74 80 81 74 75 76 66 51 53 68 76 76 77 77 
72 70 77 69 66 65 72 67 61 60 57 52 53 56 85 87 86 85 85 70 77 80 75 65 63 71 
84 88 84 78 76 79 74 64 61 68 74 72 66 61 52 43 43 51 62 72 74 65 61 62 59 50 
49 61 70 66 57 55 60 63 59 54 58 71 83 82 71 61 56 48 49 56 66 71 66 54 46 49 
57 62 66 72 75 71 59 52 56 61 68 75 72 62 56 59 66 70 71 71 71 71 67 66 73 78 
69 51 47 61 74 79 78 71 60 59 71 72 63 72 70 63 61 67 69 65 64 65 82 86 84 86 
89 86 83 68 66 67 68 71 76 77 69 61 59 64 67 65 62 66 73 74 66 58 52 48 48 50 
59 71 74 64 57 63 68 57 49 55 62 60 54 50 53 58 53 48 53 68 82 83 76 71 70 68 
65 65 68 69 65 58 55 58 63 67 70 74 74 64 50 45 52 66 76 77 66 56 54 59 62 64 
70 74 72 69 69 74 82 87 74 56 50 56 65 69 69 65 56 58 83 74 64 80 74 62 61 72 
78 74 68 65 80 84 78 78 80 78 76 76 72 64 65 65 69 72 72 65 58 60 70 76 74 70 
72 73 68 59 54 54 55 54 56 64 64 55 52 64 74 68 56 54 57 57 54 50 48 49 48 46 
49 63 76 77 68 65 71 74 72 67 64 70 75 76 75 74 72 69 68 72 72 62 46 42 55 75 
85 79 65 54 54 59 63 69 80 86 82 78 80 85 89 88 81 70 62 63 62 59 60 64 66 78 
88 77 77 86 75 58 57 71 81 77 69 63 83 82 67 66 67 67 69 70 64 56 52 54 61 72 
80 76 64 59 68 81 84 73 66 68 68 60 53 55 61 62 60 61 59 50 50 63 72 69 60 53 
50 50 52 51 51 55 58 56 55 59 68 68 60 57 64 73 73 65 62 70 81 83 82 82 78 67 
59 64 71 65 51 47 58 73 77 71 59 55 60 66 71 80 91 94 87 82 84 85 83 82 82 80 
76 71 63 56 55 63 72 84 83 74 75 81 68 52 53 69 81 80 74 67 81 75 55 58 61 62 
66 68 63 56 57 64 64 59 72 72 64 54 60 78 85 75 62 62 67 64 54 55 65 72 74 72 
66 60 60 64 67 64 58 54 49 46 47 51 59 65 70 69 61 56 60 63 61 58 63 72 73 65 
60 68 76 74 75 81 77 61 49 53 66 68 61 60 66 69 66 60 57 64 73 78 77 81 86 84 
79 76 77 76 74 76 80 80 75 68 62 57 53 54 64 78 78 64 74 74 62 52 57 71 81 85 
82 74 71 61 47 57 63 62 65 68 63 57 63 74 75 67 63 61 57 54 57 74 86 79 64 62 
69 71 67 64 69 78 85 82 75 70 72 72 63 55 54 59 60 54 49 51 58 65 71 73 65 58 
59 65 67 63 59 61 65 62 60 64 69 69 72 77 72 56 49 55 63 68 71 75 79 75 66 60 
65 76 85 85 77 68 66 68 72 72 72 69 71 77 81 76 67 58 57 57 53 47 67 74 75 69 
76 75 66 61 65 73 80 86 86 77 59 49 50 62 68 64 65 69 66 60 67 80 80 69 66 69 
68 66 61 72 82 81 71 65 71 81 82 79 75 76 80 76 67 64 68 69 58 46 50 62 64 58 
52 50 52 55 63 69 68 65 67 72 71 58 45 42 50 56 57 59 63 68 73 73 65 56 58 64 
63 63 71 82 85 77 69 68 72 78 84 84 72 57 52 60 71 74 70 67 71 79 83 77 65 53 
51 58 61 61 70 73 63 66 74 76 72 70 72 71 73 81 83 76 56 49 64 72 71 65 65 72 
72 63 67 83 86 74 68 72 75 75 75 73 71 74 71 67 70 81 88 85 73 62 64 61 54 56 
61 63 56 48 49 58 59 53 50 52 52 52 57 65 68 64 65 70 64 50 39 38 47 55 53 47 
47 56 67 66 54 53 64 69 62 57 66 76 76 63 62 69 72 72 75 77 71 60 55 62 72 72 
67 67 72 79 82 80 71 58 54 65 72 71 71 71 59 58 66 72 71 74 77 72 66 70 77 76 
64 62 78 80 73 62 64 73 72 63 65 78 84 80 74 74 75 78 79 74 69 71 65 61 63 73 
80 74 58 46 48 55 58 61 64 66 62 55 54 56 55 50 53 62 62 55 56 62 59 52 50 54 
55 56 55 54 59 60 53 41 36 46 63 66 57 51 62 69 58 53 60 66 60 50 53 63 68 62 
62 69 71 69 67 66 67 65 63 66 72 77 78 80 78 71 66 70 75 71 69 72 59 55 63 70 
69 72 80 78 66 62 70 76 72 74 79 83 75 62 62 69 68 60 58 65 71 75 76 75 73 77 
78 73 69 71 72 67 65 63 68 62 47 37 42 55 65 70 72 73 69 62 57 58 59 58 66 74 
69 59 56 58 54 42 37 42 53 64 68 67 65 63 62 56 50 57 73 76 68 61 63 66 59 52 
55 61 59 54 55 61 60 55 53 61 71 77 75 68 62 60 60 64 70 74 74 76 80 81 76 75 
74 71 65 75 62 60 67 70 66 66 74 77 70 65 69 74 72 74 68 75 74 65 62 65 66 61 
59 58 58 63 70 72 73 78 80 75 73 75 70 61 60 69 73 59 49 41 43 51 61 67 69 72 
73 66 60 62 68 71 74 75 66 54 54 58 58 51 43 46 54 60 64 64 61 65 70 73 70 69 
77 82 77 70 68 68 62 55 55 64 69 66 60 58 56 52 53 61 73 79 75 67 62 62 64 66 
70 73 70 67 72 79 79 76 73 69 82 74 64 64 70 68 60 56 63 71 72 69 70 70 64 64 
60 64 69 68 63 62 64 66 66 62 58 59 65 70 75 81 81 77 78 79 70 56 54 63 68 64 
64 51 49 49 55 59 61 64 66 63 62 70 77 77 71 63 55 49 51 60 66 64 58 54 51 52 
55 61 64 65 69 72 67 63 67 71 73 71 72 75 71 60 56 65 72 66 56 51 54 56 59 64 
73 77 68 60 61 67 71 72 73 73 64 56 61 72 77 73 68 65 75 72 65 64 68 66 62 61 
67 71 72 72 71 67 60 60 66 64 67 68 63 61 63 66 64 59 59 63 69 74 79 81 79 78 
81 82 72 58 56 63 65 61 62 67 69 55 57 59 59 55 53 56 65 77 83 77 62 51 47 47 
52 63 71 68 59 52 51 51 58 66 72 70 66 63 60 58 59 63 65 67 72 76 73 62 54 58 
66 61 50 51 57 60 59 62 68 71 64 54 58 70 77 79 80 74 59 49 54 67 74 66 59 56 
67 70 64 61 63 67 73 82 86 80 74 73 72 65 66 68 80 75 73 71 64 62 65 63 56 52 
59 70 79 84 83 77 74 78 84 83 74 65 65 68 66 62 65 72 74 73 73 63 61 54 50 57 
69 79 82 74 60 51 48 47 51 62 68 62 54 55 61 66 69 69 69 68 63 62 67 71 71 69 
66 66 69 74 72 58 50 56 62 61 56 57 65 67 64 62 65 68 63 57 61 72 80 85 86 78 
63 54 57 67 73 65 51 53 61 64 60 55 56 66 81 94 97 87 76 74 74 66 71 80 85 81 
78 72 65 65 68 64 55 55 64 75 85 89 83 73 70 78 85 82 76 73 72 69 64 61 66 74 
80 83 86 89 88 64 62 63 67 70 71 67 63 61 56 51 51 57 61 60 60 70 81 82 70 59 
54 56 60 67 78 87 84 76 71 69 70 74 72 62 52 53 57 58 57 64 72 77 75 70 66 68 
66 63 67 76 79 81 81 77 70 65 66 71 78 66 49 49 54 59 57 51 52 62 75 85 87 81 
76 75 73 65 67 81 79 75 74 70 66 68 72 69 66 69 72 75 80 85 80 70 67 74 76 73 
73 76 74 69 64 62 63 67 74 84 92 92 82 69 61 62 59 57 62 67 69 69 65 59 58 59 
60 64 72 84 91 87 70 53 48 54 59 65 75 83 81 76 72 71 72 75 75 68 60 54 51 52 
57 64 72 79 79 70 65 65 68 69 71 72 70 69 67 66 67 69 68 71 76 70 51 48 53 60 
61 58 56 60 66 71 74 75 76 75 67 58 65 76 74 69 68 69 68 71 71 69 71 77 75 67 
68 75 75 69 65 65 61 58 65 72 72 71 74 74 68 62 64 74 84 83 71 60 55 57 64 75 
66 75 77 75 71 69 70 70 66 67 76 87 89 84 73 62 60 64 62 61 65 69 70 72 72 72 
73 75 77 77 74 67 58 59 65 68 71 72 71 64 59 65 74 76 71 65 62 60 57 53 55 60 
60 68 71 70 57 57 62 67 70 70 67 66 67 68 70 75 81 78 63 48 71 76 76 72 71 73 
74 72 68 63 65 69 67 60 61 68 73 71 66 59 50 49 58 67 68 73 85 88 78 66 63 68 
74 74 72 72 69 62 56 60 75 86 77 73 73 75 83 82 72 64 67 76 79 80 77 71 72 74 
73 69 65 64 66 68 70 71 74 75 77 82 86 83 75 74 76 75 72 69 64 58 58 69 82 82 
70 61 61 65 60 51 50 52 63 75 67 63 65 67 70 70 69 70 71 72 72 69 70 77 86 84 
69 50 75 78 83 83 82 81 80 77 68 60 56 57 60 61 64 70 76 75 68 57 48 49 58 65 
68 72 82 85 76 68 67 68 66 67 73 80 78 67 54 53 65 80 84 78 70 75 82 83 71 59 
58 64 71 76 76 72 69 72 80 80 73 68 64 61 58 61 66 71 73 77 81 81 80 79 78 75 
73 70 64 60 64 75 82 75 63 58 66 73 70 62 58 58 84 80 68 62 66 69 67 61 57 59 
67 73 75 70 67 72 81 83 77 64 70 77 89 91 88 84 82 81 74 62 52 51 57 63 67 72 
78 78 70 59 50 50 57 63 65 68 71 71 67 65 66 62 56 58 67 71 67 60 56 56 61 67 
70 69 67 61 71 75 72 61 56 61 70 76 78 69 60 59 68 78 77 68 58 49 42 43 54 63 
66 66 66 68 71 74 73 73 73 68 65 66 72 75 72 61 51 56 72 79 76 68 65 73 87 85 
55 62 68 70 66 58 51 50 59 72 77 72 65 65 69 74 76 73 65 76 
