P2
112 112
255
76 84 81 85 87 84 80 75 68 81 77 90 85 78 74 69 64 67 72 72 70 72 75 76 76 75 
73 74 77 78 75 80 80 79 82 85 82 71 64 64 64 64 66 68 68 69 72 76 79 80 81 84 
85 81 73 69 70 73 73 74 76 78 78 79 79 74 69 74 74 73 73 73 76 76 78 79 77 76 
77 78 76 75 77 80 80 78 75 73 74 76 78 82 86 86 81 77 77 80 84 88 90 86 78 73 
73 73 74 71 63 64 80 91 70 80 66 64 63 69 75 72 66 81 82 82 81 76 73 69 66 71 
80 81 77 76 77 78 81 81 76 73 72 79 79 81 79 78 83 91 90 81 74 73 74 75 76 75 
71 67 67 72 74 73 71 73 77 77 74 72 73 74 74 74 74 75 77 80 80 75 67 64 70 77 
77 74 75 71 73 81 76 73 70 66 70 77 79 79 80 81 80 77 76 75 74 73 75 75 74 76 
78 76 74 74 67 65 78 92 91 82 80 82 81 78 76 75 64 75 77 72 68 71 73 69 65 76 
79 74 78 76 73 71 70 77 85 83 75 74 75 77 79 80 73 71 87 78 80 82 79 76 80 89 
90 82 77 80 84 86 86 82 78 73 71 73 74 71 65 61 63 67 69 69 72 74 74 71 70 70 
73 78 79 75 69 68 73 79 78 72 68 70 70 69 70 71 71 64 67 74 75 71 71 75 78 78 
77 75 71 69 71 72 71 73 75 74 74 75 72 67 71 76 77 75 75 76 78 81 82 78 68 66 
81 75 72 72 70 66 67 71 74 73 76 75 73 71 71 77 82 77 70 71 75 75 75 76 78 90 
82 73 75 78 75 72 74 78 79 74 72 77 85 86 84 82 81 78 74 72 74 72 65 58 58 62 
65 67 70 72 71 68 66 65 66 70 71 71 71 73 78 81 78 70 66 70 74 75 75 74 73 74 
77 80 81 79 68 75 80 79 74 70 68 68 72 73 71 72 77 79 79 80 78 70 63 60 64 68 
69 67 69 77 80 73 79 63 79 74 72 72 69 68 73 68 70 72 74 77 77 74 72 75 77 73 
72 76 79 76 75 76 76 79 75 68 71 70 69 68 69 69 68 68 71 76 78 78 76 76 77 75 
70 66 69 72 71 65 63 65 67 66 65 66 67 66 63 60 61 64 66 68 73 77 78 80 79 74 
70 73 76 76 75 72 69 70 73 76 75 76 79 78 76 74 74 71 68 72 77 77 73 77 85 88 
87 88 87 77 66 61 64 69 67 61 62 69 72 66 87 71 82 77 74 73 70 72 79 66 68 67 
73 80 82 79 76 78 79 79 83 88 86 79 78 71 70 75 70 68 69 69 69 67 65 64 66 73 
78 78 75 73 73 74 75 72 65 63 67 75 78 75 72 72 71 65 60 61 65 68 66 64 67 71 
71 71 77 80 77 77 78 77 76 77 75 72 71 69 65 65 70 74 73 73 80 79 75 73 75 75 
75 75 77 76 73 80 88 90 90 93 93 87 77 72 71 71 68 65 67 73 74 72 85 77 89 84 
78 74 71 72 81 71 69 68 73 77 80 80 80 83 86 88 94 98 92 84 78 67 71 76 71 68 
71 74 71 67 63 61 67 79 86 83 75 73 77 83 82 76 70 68 72 77 80 80 79 78 73 64 
57 57 65 72 73 72 76 79 76 74 80 84 79 74 72 73 76 78 75 70 69 68 63 59 62 69 
73 71 73 73 77 70 65 70 76 79 80 81 79 75 73 72 76 74 75 90 86 81 75 72 73 77 
82 86 84 80 79 74 94 89 81 75 70 67 77 79 79 78 74 71 72 78 83 86 87 87 91 96 
94 86 73 73 88 80 71 69 74 75 71 65 62 59 63 76 86 84 76 75 85 92 89 81 75 74 
71 69 73 80 84 82 75 66 57 57 64 73 75 74 76 78 74 72 79 85 81 72 67 67 72 76 
76 74 74 72 66 60 59 63 69 75 77 77 75 74 64 67 75 77 75 77 80 79 76 75 76 77 
81 86 87 82 74 68 70 84 89 89 83 76 78 72 93 88 79 74 69 64 75 83 87 84 76 68 
69 79 87 87 82 78 80 87 90 82 79 85 90 82 75 72 74 72 66 62 63 60 60 70 81 83 
80 81 87 91 87 78 76 73 64 58 63 75 83 84 78 70 62 59 65 71 71 68 68 70 69 70 
75 79 76 68 66 68 71 73 74 75 80 81 77 71 67 65 69 75 78 78 79 77 67 67 73 72 
69 70 76 79 78 76 75 73 73 76 77 76 77 77 80 84 86 82 72 64 81 77 87 83 77 74 
70 67 76 80 83 82 76 69 67 76 83 83 79 75 76 79 77 78 80 82 83 81 77 74 72 67 
61 61 65 66 63 66 75 83 87 87 86 85 79 76 76 75 66 57 60 71 81 82 79 74 69 66 
69 72 69 63 61 64 69 72 72 70 65 64 68 73 73 71 71 76 82 86 86 83 78 72 70 73 
76 76 75 74 73 71 73 71 69 71 77 80 78 74 71 69 69 71 73 73 75 77 75 75 76 74 
75 78 81 82 79 80 77 74 72 70 78 76 76 79 77 70 65 67 73 76 77 79 81 78 75 76 
78 77 80 80 76 72 69 64 59 61 69 71 68 66 72 81 88 91 87 82 79 81 83 84 78 69 
66 70 76 79 78 77 75 74 76 77 72 64 60 63 69 72 68 61 57 59 66 72 72 70 73 78 
83 85 86 86 83 75 70 69 70 70 70 72 74 73 72 76 75 77 80 80 75 70 67 68 70 72 
72 71 73 76 75 74 73 68 68 81 75 80 73 77 76 74 72 80 77 72 75 78 78 72 65 63 
66 70 75 81 84 75 76 81 79 81 83 83 78 72 68 64 62 64 69 73 72 72 74 79 84 85 
83 81 82 86 90 90 86 79 72 70 73 76 76 76 77 78 80 77 72 66 62 62 62 64 62 57 
55 57 61 65 68 72 76 80 81 82 83 83 82 79 73 66 64 66 69 69 73 77 78 80 83 81 
80 78 74 69 68 71 76 77 74 73 77 81 79 79 77 71 67 71 69 75 71 74 75 77 76 78 
72 70 76 78 77 74 69 65 65 68 70 79 75 67 76 79 79 83 86 84 79 74 71 70 67 66 
67 71 75 78 79 79 78 76 74 76 80 85 87 84 81 77 71 68 69 70 69 70 73 76 76 71 
66 64 63 60 57 57 60 59 59 60 62 63 67 72 76 76 78 80 80 79 80 81 77 68 64 67 
70 69 74 82 83 83 85 80 76 78 77 73 71 76 82 82 77 78 84 89 88 87 85 77 66 60 
70 68 70 70 75 80 82 74 70 72 78 79 77 75 71 67 65 67 84 80 66 68 72 73 72 75 
78 80 78 76 78 79 75 68 65 68 74 79 79 79 77 72 67 69 77 82 80 74 70 70 69 67 
64 61 59 60 66 71 70 65 62 62 63 61 57 58 64 66 65 67 68 68 69 73 73 72 73 78 
78 75 74 76 75 70 65 67 70 70 73 82 85 84 84 76 72 77 81 76 71 76 84 84 80 81 
87 89 90 92 92 84 71 63 79 67 68 66 72 79 81 73 73 79 81 78 75 73 69 64 63 74 
91 80 75 73 71 67 62 64 70 76 79 81 84 87 82 70 66 68 73 74 74 77 78 73 66 66 
73 79 75 68 67 70 70 66 61 55 51 54 62 69 69 67 63 62 62 60 58 61 67 69 70 72 
74 73 72 73 71 69 72 77 75 69 66 67 67 65 63 65 69 70 72 76 80 81 81 80 76 80 
86 79 72 73 80 83 82 84 86 85 86 91 93 89 80 73 83 73 71 71 73 72 72 72 77 83 
80 73 68 66 64 63 68 84 84 86 83 77 70 63 58 60 67 73 77 80 84 86 82 74 69 72 
73 70 68 72 80 79 69 63 67 70 68 67 70 72 68 62 59 58 55 56 62 71 74 70 65 60 
57 56 56 59 64 67 70 76 78 76 72 70 69 71 75 75 71 66 63 63 63 63 61 60 63 68 
72 74 75 79 83 79 70 69 78 82 71 70 73 78 83 87 87 83 81 83 86 87 85 80 78 79 
81 82 78 70 67 68 78 81 77 69 64 63 65 70 77 77 80 83 79 73 68 63 60 60 65 70 
71 72 75 79 80 77 75 75 72 66 64 71 81 84 76 66 63 61 61 66 72 71 62 53 57 63 
62 59 63 72 76 72 65 59 55 55 56 56 58 61 67 75 80 77 71 68 70 76 81 78 70 67 
67 65 64 64 60 56 57 65 73 76 76 79 85 87 80 72 71 76 75 62 64 69 76 83 85 82 
77 73 74 80 83 79 73 79 87 87 81 72 77 69 78 79 79 76 72 70 73 76 66 70 77 74 
70 68 66 64 62 63 67 70 68 66 69 76 81 81 78 73 67 64 65 72 81 83 80 71 63 58 
61 70 77 73 60 50 54 62 64 62 64 69 73 74 71 67 62 59 57 54 52 54 59 67 74 75 
73 73 75 81 84 79 71 72 74 69 64 63 61 57 57 65 75 79 78 78 85 89 84 75 71 73 
67 64 62 64 67 71 77 79 75 70 68 73 77 76 73 76 81 81 80 76 70 75 80 80 84 89 
88 80 76 70 66 75 73 70 69 69 68 64 61 64 71 74 70 67 72 80 83 80 74 68 64 65 
68 72 74 76 76 71 64 62 68 77 80 76 64 54 53 55 59 61 63 65 68 72 77 77 70 62 
57 53 50 50 53 56 60 67 73 77 78 78 76 69 66 70 73 66 57 58 63 63 63 68 75 79 
76 75 80 85 82 75 70 71 74 70 73 71 64 64 71 77 77 73 71 74 75 74 78 77 75 75 
79 78 67 80 80 79 84 92 93 79 75 73 71 74 73 72 71 70 66 62 60 64 71 75 73 72 
77 82 82 75 70 68 69 71 71 67 65 68 72 69 64 66 72 75 74 70 64 56 49 48 52 57 
61 62 61 66 74 77 70 62 56 55 56 59 57 51 49 54 63 70 70 67 63 58 56 60 63 57 
51 53 62 68 71 71 73 75 74 71 72 77 79 77 75 76 76 74 73 74 63 64 72 78 80 80 
81 81 75 69 80 77 71 75 78 78 73 79 79 78 79 84 78 70 76 73 71 72 73 73 71 67 
63 63 66 68 72 75 75 76 80 84 81 75 71 73 75 74 71 65 63 69 76 74 67 65 68 65 
59 58 58 53 47 43 48 55 58 57 57 62 68 71 67 60 57 60 67 71 66 56 47 46 51 54 
56 59 58 54 52 55 56 53 50 54 62 69 71 71 71 72 72 68 66 70 75 78 81 81 79 77 
75 74 70 61 72 78 81 85 88 83 70 60 79 73 69 75 78 77 77 80 81 78 74 73 68 73 
76 70 67 70 73 72 69 65 63 66 71 73 74 75 77 78 80 82 81 78 75 75 76 75 71 68 
69 76 83 78 69 66 64 58 52 52 54 53 49 50 54 56 56 58 63 67 71 69 64 60 60 66 
72 74 69 62 56 51 46 44 49 56 59 57 56 59 61 60 61 65 68 68 66 66 68 73 73 68 
65 67 71 75 80 80 76 74 76 77 75 70 71 77 78 81 83 76 64 55 77 70 71 78 79 80 
77 81 82 76 71 67 78 77 72 66 66 71 76 75 71 66 64 64 67 69 69 72 77 79 76 73 
72 72 72 73 74 74 73 74 76 78 81 77 72 70 69 65 61 59 56 52 54 58 60 58 58 64 
74 80 78 70 66 66 67 68 69 66 63 65 65 59 49 45 50 58 60 57 58 65 70 73 74 76 
74 68 62 60 64 72 74 70 66 66 68 71 75 75 70 71 77 81 80 76 76 80 77 75 73 68 
63 60 75 71 77 82 80 88 78 76 76 72 78 79 71 67 69 68 70 74 79 79 75 69 64 62 
60 59 61 68 75 77 70 64 60 60 62 66 69 70 72 75 77 77 75 73 73 76 78 78 75 67 
56 50 53 59 61 60 63 71 82 89 84 76 72 73 74 73 67 59 57 63 67 60 50 48 53 58 
58 56 58 66 72 75 78 78 75 70 63 57 60 67 71 68 64 62 63 68 73 73 69 71 80 85 
83 78 74 79 83 76 72 70 69 68 75 70 81 83 77 93 77 69 70 71 90 77 62 65 69 72 
72 72 76 79 77 70 66 63 59 57 61 69 74 75 71 66 59 54 55 58 62 64 67 71 74 75 
72 70 71 75 79 82 79 66 51 45 52 59 63 66 72 79 86 92 91 86 79 75 75 75 68 60 
57 63 64 56 45 45 51 55 57 59 63 65 66 67 69 71 72 72 68 60 58 65 69 65 59 56 
56 64 76 77 70 72 80 83 80 79 78 75 73 75 79 80 77 71 78 68 79 80 77 85 76 67 
73 86 91 73 69 68 70 72 70 69 72 77 76 72 70 67 63 61 65 71 73 73 76 75 67 58 
53 55 59 63 66 68 71 71 70 70 71 72 72 74 70 58 47 46 55 65 73 81 86 89 92 99 
102 96 83 74 73 75 71 63 60 64 66 57 46 43 48 52 57 65 70 68 63 59 61 65 69 72 
69 62 60 66 70 67 60 52 49 59 76 81 74 71 76 78 77 79 83 83 78 80 80 84 81 73 
79 68 77 79 81 74 74 68 77 90 82 79 78 74 72 70 70 71 73 74 74 73 72 68 61 58 
65 72 70 69 75 80 74 63 56 56 61 66 68 66 66 68 70 72 73 71 66 65 62 53 48 52 
61 71 84 97 101 99 102 109 110 100 84 74 74 76 72 64 61 66 69 61 51 50 53 55 
58 65 70 69 63 61 62 64 66 65 61 57 58 65 70 69 64 54 47 56 73 81 77 72 73 75 
74 75 81 82 78 76 78 80 79 74 73 72 79 80 84 69 75 77 85 79 73 81 84 81 75 72 
75 78 76 71 70 71 70 64 56 55 63 71 69 68 74 78 73 64 59 57 59 63 62 59 60 64 
70 74 76 74 69 63 57 52 54 61 66 74 91 107 111 109 111 115 111 96 83 78 80 78 
73 67 65 68 69 63 57 60 66 66 61 60 61 59 61 66 68 67 64 60 54 52 58 66 70 71 
67 59 52 55 69 78 78 76 76 74 69 66 71 77 78 74 72 74 76 73 65 76 80 79 71 62 
74 82 74 66 69 78 84 84 80 80 84 85 79 71 68 68 68 64 60 61 66 68 67 72 80 80 
70 61 56 54 53 53 50 48 51 60 65 70 75 77 74 64 52 48 58 69 72 76 95 114 121 
118 116 115 107 93 85 83 82 78 74 73 73 71 68 59 55 65 75 75 65 54 47 47 56 66 
69 67 65 63 59 58 64 69 71 72 71 64 57 58 66 72 75 78 79 74 65 60 65 76 79 74 
69 72 74 71 65 79 79 79 74 69 74 76 73 67 68 74 79 83 84 86 89 85 74 67 66 65 
66 69 72 72 70 68 68 76 86 84 71 59 53 49 48 48 44 42 47 54 59 64 71 75 72 58 
43 41 55 73 80 83 100 125 137 131 124 120 111 96 86 83 79 73 70 72 75 74 65 53 
48 57 72 75 65 50 42 41 50 60 61 60 63 67 66 66 70 72 72 76 75 69 62 62 64 66 
69 74 78 75 67 64 71 82 82 71 65 68 74 75 72 78 80 82 79 77 82 81 72 71 73 76 
76 78 83 88 88 79 68 62 63 64 64 71 78 77 73 70 70 77 86 83 72 61 55 51 51 52 
49 48 50 52 55 61 68 70 66 52 36 34 52 73 82 92 115 140 150 146 138 132 120 
101 84 76 70 63 60 62 67 69 62 49 43 49 60 63 60 54 47 44 48 51 50 48 52 61 64 
67 70 71 73 78 79 74 70 70 68 66 66 72 77 75 71 71 79 87 83 72 65 70 78 80 79 
77 81 82 77 83 90 81 71 73 79 81 80 78 81 86 85 77 66 63 64 64 65 70 76 77 76 
77 76 72 74 75 71 67 63 58 56 56 58 60 59 57 58 62 65 63 59 49 37 36 51 71 89 
108 132 153 160 154 149 143 127 102 80 66 57 51 49 51 55 60 58 51 47 48 49 52 
57 59 58 53 52 52 49 44 46 51 58 66 72 74 76 79 80 79 78 79 75 70 70 75 79 77 
72 71 77 85 82 73 68 73 76 77 83 78 76 76 79 90 81 73 71 73 78 84 84 80 77 79 
81 79 76 73 70 66 65 69 74 75 76 78 75 67 60 61 66 72 71 61 54 53 59 68 70 67 
65 66 62 55 50 48 44 43 54 73 97 123 146 159 160 157 154 147 130 106 83 66 55 
49 46 46 47 49 50 53 56 53 47 49 57 66 67 63 61 62 60 53 50 52 58 65 73 75 74 
75 76 78 81 81 74 70 73 80 81 76 70 68 70 75 77 74 72 72 71 71 91 80 70 70 84 
79 71 71 71 71 75 82 82 76 72 71 74 79 82 79 72 66 65 71 75 74 70 69 69 64 56 
56 64 73 71 60 48 46 56 68 75 77 76 72 64 53 46 45 47 52 63 81 105 130 150 159 
161 160 157 149 136 116 96 80 66 59 55 50 44 40 43 53 61 58 51 50 58 67 69 67 
68 70 65 59 57 59 60 64 68 68 67 68 71 76 80 76 67 62 71 80 81 77 74 72 70 71 
72 75 75 73 69 69 92 81 69 81 80 70 70 74 75 73 75 80 80 74 69 67 69 75 77 74 
67 61 63 71 76 71 62 59 63 65 61 59 62 66 65 57 48 48 55 65 76 84 85 80 71 60 
48 43 49 61 75 92 113 135 153 166 174 176 168 159 147 131 111 95 86 79 70 57 
47 41 42 52 60 58 50 47 51 58 63 67 69 66 60 57 60 62 62 61 63 62 61 64 69 76 
79 72 61 59 69 80 84 84 85 83 78 73 73 78 81 78 74 74 78 79 71 74 75 72 72 75 
75 73 77 83 85 81 76 71 70 71 70 65 59 57 60 67 71 68 60 54 58 64 63 57 54 54 
54 53 54 56 58 63 75 85 87 84 79 69 53 45 54 71 88 104 123 145 166 187 203 206 
195 180 164 146 125 112 109 106 93 75 61 54 46 45 48 48 44 39 38 44 56 65 67 
62 57 58 62 63 62 64 67 66 64 65 70 77 77 71 63 62 72 84 91 92 91 88 81 74 74 
80 85 84 80 79 65 72 76 68 74 77 77 74 71 72 78 84 87 84 78 73 72 71 68 62 56 
56 56 59 64 67 63 56 53 54 53 51 46 44 48 56 63 65 65 66 73 81 83 83 83 76 59 
52 64 83 100 117 138 162 188 216 238 244 229 207 184 163 146 139 141 142 128 
107 90 74 53 36 31 35 37 33 32 39 50 62 68 67 64 65 67 65 64 67 72 71 68 68 71 
75 74 70 66 67 75 84 89 89 85 83 78 72 72 78 83 82 80 80 67 63 74 68 76 80 80 
77 74 76 78 79 79 74 70 67 69 70 68 63 60 60 57 56 59 65 67 61 50 45 46 51 51 
49 55 66 74 76 75 76 81 84 83 83 84 80 67 62 75 94 111 127 152 181 212 241 255 
255 255 229 202 184 177 181 187 186 172 151 129 101 67 38 25 27 30 32 34 41 49 
59 68 71 71 72 71 68 64 64 65 65 65 68 70 70 69 68 69 71 73 76 79 80 78 78 78 
77 75 74 74 73 75 77 74 63 73 74 78 81 83 82 82 82 78 73 69 65 61 60 63 67 67 
65 67 70 67 61 61 68 72 68 58 48 51 57 61 62 68 79 85 86 87 89 92 93 88 82 83 
83 74 69 82 101 116 131 160 195 227 253 255 255 255 242 218 208 214 223 229 
226 213 193 166 130 89 53 31 21 19 25 34 44 52 60 68 72 71 71 70 66 60 54 50 
51 58 64 64 63 65 69 74 77 76 74 74 75 77 80 84 85 81 72 68 68 72 78 75 76 79 
78 78 80 83 85 85 82 76 71 68 66 62 59 61 64 66 67 73 80 80 73 71 74 79 79 72 
62 61 66 66 65 73 87 94 95 93 93 95 96 90 83 83 85 82 79 88 105 118 134 162 
200 233 255 255 255 255 245 230 228 238 248 251 250 241 220 190 155 114 73 36 
13 5 12 29 47 59 66 72 72 69 67 64 58 49 40 37 41 52 59 60 61 66 74 81 84 82 
77 74 75 77 79 82 83 79 73 70 73 78 82 79 79 73 79 81 81 83 85 83 79 74 71 72 
72 66 60 58 62 66 70 77 85 88 84 81 80 81 82 77 72 71 70 65 63 71 87 99 100 
95 89 88 90 89 85 85 89 90 88 95 107 121 140 168 201 231 251 255 255 249 239 
231 231 239 251 255 255 255 242 212 179 142 93 45 12 0 5 24 46 64 72 73 70 66 
66 61 48 36 30 33 41 52 59 60 62 68 76 81 83 81 76 72 71 70 68 69 71 72 71 74 
81 85 85 74 80 59 73 81 82 85 86 82 75 70 71 74 75 70 61 56 61 68 72 77 84 91 
91 87 82 74 71 71 73 74 74 69 66 74 88 98 100 94 86 84 87 89 88 88 89 89 89 93 
104 121 145 173 201 223 238 246 242 232 224 221 223 232 248 255 255 255 255 
246 212 172 121 66 28 11 8 18 37 58 68 66 60 64 69 64 47 33 33 40 48 54 58 61 
63 67 72 75 74 71 68 68 67 64 61 63 68 71 73 78 83 84 81 75 85 56 67 75 80 85 
86 78 68 64 69 75 78 76 69 63 63 68 72 74 80 88 93 93 84 71 64 65 70 76 78 80 
82 86 91 95 94 91 89 89 91 91 89 85 81 79 81 85 94 112 142 172 196 212 223 228 
223 214 208 209 215 229 250 255 255 255 255 255 247 203 147 92 51 27 13 12 25 
46 59 58 53 59 72 74 57 42 44 50 53 55 56 58 61 65 69 71 69 65 64 67 68 67 66 
70 75 78 78 80 81 78 72 75 83 67 68 71 74 80 80 69 58 60 67 74 78 80 80 76 71 
70 69 69 74 82 89 91 86 77 69 69 72 74 79 88 95 97 94 89 88 90 93 98 98 93 84 
75 68 67 72 78 85 102 131 162 187 202 208 208 203 194 191 197 211 230 254 255 
255 255 255 255 255 225 170 115 70 39 18 10 20 42 58 58 54 60 72 74 64 53 51 
55 57 59 60 59 62 67 72 75 72 67 66 68 70 71 72 77 81 82 82 84 82 76 67 81 77 
82 76 71 70 73 70 61 57 61 66 68 69 75 81 80 75 71 68 68 71 76 80 82 83 80 78 
78 76 73 77 86 95 95 88 85 87 91 95 99 97 86 73 63 58 59 67 74 83 97 119 147 
173 188 191 188 182 173 168 178 201 226 252 255 255 255 255 255 255 238 187 
131 81 44 21 14 24 44 60 66 65 65 67 68 62 54 52 56 63 68 69 67 68 72 76 76 73 
68 65 66 68 69 70 74 79 80 83 88 89 81 71 70 100 92 80 73 69 70 68 62 62 68 67 
60 58 65 71 74 72 68 67 68 70 70 72 75 76 77 78 80 78 74 74 82 88 84 77 79 87 
92 92 91 86 77 65 56 53 55 62 72 83 97 112 132 154 169 173 170 163 152 143 153 
181 213 242 255 255 255 255 255 255 242 192 132 78 39 18 15 25 40 53 65 67 64 
62 60 56 52 52 57 66 73 75 74 73 73 72 70 66 62 61 66 68 67 65 69 74 76 80 87 
91 86 80 67 101 93 82 75 73 73 72 69 70 71 68 60 57 60 64 66 66 64 62 63 64 64 
67 71 71 70 73 79 79 75 76 81 85 82 77 79 86 87 83 81 79 74 66 58 52 51 57 67 
80 95 109 124 140 152 158 158 152 139 127 132 160 195 228 255 255 255 255 255 
255 229 176 117 64 27 10 10 19 29 40 52 58 57 54 55 55 53 52 56 61 66 70 72 73 
72 69 65 61 59 64 71 75 72 67 68 72 72 71 77 84 83 79 68 90 87 80 74 72 72 73 
72 72 72 69 64 62 60 60 63 66 62 55 52 55 59 63 68 66 65 69 74 74 71 74 80 86 
89 87 84 81 78 77 78 77 75 69 61 53 50 53 60 72 86 102 116 130 143 150 151 144 
132 119 118 139 170 203 235 255 255 255 255 248 203 149 96 52 21 7 11 21 28 35 
44 51 51 51 54 58 57 53 50 48 51 58 66 69 71 70 68 66 65 70 79 82 76 69 70 72 
69 66 71 79 78 74 75 76 78 75 69 64 64 67 71 73 72 70 67 63 57 55 62 68 62 49 
46 50 55 60 61 60 60 65 67 64 64 68 73 80 89 90 83 74 71 74 77 74 69 63 57 54 
51 51 53 59 70 85 101 120 137 145 143 133 121 110 107 118 140 171 207 243 255 
255 254 224 180 130 86 52 28 16 18 28 38 44 50 54 55 56 60 61 58 52 44 38 41 
51 60 65 69 71 72 71 68 70 78 81 76 69 68 71 72 73 78 84 81 71 78 70 74 72 66 
61 61 67 73 75 74 71 67 62 57 57 62 63 57 48 45 50 54 56 55 52 54 58 59 56 60 
68 72 74 81 88 88 79 72 76 78 71 59 52 51 52 52 48 45 47 54 66 84 109 131 141 
132 120 112 106 103 108 123 152 189 225 246 248 234 208 169 124 84 57 38 25 24 
33 46 53 55 58 63 68 69 64 58 52 45 43 48 55 62 65 67 67 66 65 63 63 71 76 73 
65 61 65 74 79 83 86 83 73 69 73 78 78 73 70 72 77 80 80 76 71 67 65 64 66 66 
61 51 44 47 51 52 51 48 45 47 51 54 57 67 77 78 73 75 85 92 89 83 83 83 75 61 
50 47 48 46 41 37 39 48 59 74 97 123 133 125 113 109 107 104 108 125 154 188 
215 229 231 223 201 164 119 79 52 35 25 24 33 45 50 51 53 62 71 73 67 59 55 57 
62 67 70 72 73 70 65 60 58 57 59 65 71 69 61 56 59 68 76 79 78 77 72 75 80 88 
89 84 82 84 87 88 84 77 70 67 67 70 74 71 61 50 45 46 49 51 49 45 41 42 48 55 
63 74 83 83 77 74 81 92 96 92 88 87 82 69 54 44 39 34 31 31 37 49 62 74 93 113 
123 117 107 100 95 93 103 127 156 183 204 215 219 211 189 151 107 67 39 26 25 
28 35 42 44 43 46 54 62 66 64 62 65 73 82 85 82 80 77 73 67 63 62 62 61 64 65 
65 62 60 62 67 72 73 72 72 73 81 86 94 94 86 80 82 87 88 84 77 72 69 66 68 72 
70 63 56 50 49 51 53 53 48 44 45 51 56 62 71 79 83 79 75 81 92 97 93 88 86 80 
68 55 42 32 28 28 31 37 49 64 79 95 112 118 110 95 81 73 75 93 121 151 177 193 
202 205 194 166 129 89 53 29 24 31 39 43 45 46 48 51 54 53 55 60 62 68 80 91 
92 84 76 73 72 71 71 73 72 70 66 64 64 65 66 68 72 75 75 74 76 78 84 88 96 96 
84 74 75 80 81 78 76 75 72 67 64 65 66 64 62 60 58 59 62 63 60 57 58 59 58 58 
64 74 79 78 78 85 94 96 90 84 79 72 65 55 43 33 30 31 31 33 45 64 84 104 118 
117 103 84 69 65 75 96 123 152 175 189 194 191 174 143 106 72 43 24 24 36 47 
53 54 57 64 69 67 58 53 54 56 61 72 88 93 84 73 68 69 73 77 80 80 76 70 64 63 
63 63 65 71 74 71 70 75 80 83 84 92 94 87 76 72 75 75 73 74 76 75 70 68 68 66 
65 67 70 71 73 76 75 73 70 70 66 61 59 65 76 81 79 80 87 93 90 83 76 72 72 69 
62 49 38 33 28 23 26 43 67 91 113 123 118 102 85 76 79 95 116 138 161 181 192 
194 184 163 132 98 67 39 22 20 31 44 52 59 66 74 79 77 68 59 52 50 53 65 81 92 
90 79 72 74 78 80 81 80 77 68 60 58 55 52 56 64 66 61 61 70 76 80 79 86 92 88 
80 74 72 72 73 77 80 78 75 74 73 69 67 70 76 80 83 85 85 80 74 68 65 62 61 68 
77 81 77 79 86 87 82 77 76 78 81 79 68 53 41 32 24 16 23 48 78 104 122 128 121 
111 102 98 105 121 138 153 172 191 202 201 188 166 137 105 71 43 25 22 29 39 
48 57 67 74 78 77 72 63 53 50 54 63 75 87 91 84 79 78 80 80 78 77 73 65 58 57 
55 53 56 63 65 63 64 70 77 79 78 81 85 83 76 69 67 70 75 80 83 79 74 72 71 69 
69 73 77 78 80 82 82 77 66 56 55 59 60 63 70 74 73 75 82 83 77 77 82 89 92 85 
71 57 48 40 31 24 33 60 92 119 136 144 142 137 134 129 133 146 161 173 191 212 
222 218 202 178 148 111 75 48 34 32 37 43 49 56 67 75 77 77 74 63 54 55 63 69 
74 78 81 79 77 76 76 76 73 71 67 62 60 62 63 63 66 71 73 74 77 79 80 81 79 76 
77 76 68 61 61 66 71 76 78 75 67 63 63 67 72 76 76 72 68 68 71 69 56 46 50 58 
59 58 63 66 66 69 76 77 75 77 86 94 95 87 75 67 62 57 48 42 52 78 111 139 161 
175 181 179 173 164 164 176 192 205 220 237 249 243 223 194 156 109 70 47 39 
41 47 49 51 57 68 75 77 79 75 65 58 65 76 81 78 76 74 72 70 72 73 72 69 65 62 
59 60 64 67 69 72 77 80 81 81 79 78 79 78 75 73 71 66 61 61 62 64 67 70 70 64 
57 60 69 77 79 78 72 65 65 68 67 56 52 58 65 62 58 61 65 63 64 68 69 68 73 84 
94 96 91 85 82 78 71 64 63 77 105 139 170 196 214 222 219 208 196 194 206 223 
236 246 255 255 255 244 209 161 105 62 41 36 38 43 47 49 54 63 69 71 76 77 69 
64 74 85 87 84 80 75 70 69 71 74 71 67 63 61 60 60 61 63 66 72 79 81 79 74 72 
74 78 78 75 74 73 71 69 67 64 61 61 66 70 66 61 65 75 81 83 82 78 74 73 75 73 
66 65 71 75 65 57 58 61 60 59 60 60 61 70 85 98 102 101 98 95 89 80 75 80 101 
136 173 207 233 249 251 242 227 215 215 225 238 249 255 255 255 255 254 217 
164 104 60 38 31 30 34 40 46 52 56 57 61 69 74 70 67 73 81 82 80 78 74 69 69 
70 70 69 66 65 69 70 66 62 63 66 73 80 81 76 71 72 77 79 79 78 77 78 78 78 74 
67 61 60 64 69 69 66 69 76 81 83 82 79 77 79 80 76 69 67 72 74 67 55 50 51 52 
53 56 57 61 74 92 107 112 111 108 106 99 91 89 100 123 157 196 232 255 255 255 
252 235 225 226 232 239 249 255 255 255 255 249 211 159 104 61 36 25 23 29 40 
49 56 56 53 53 61 67 67 65 67 68 67 66 69 70 68 67 64 63 65 67 68 74 79 76 70 
68 71 76 80 80 75 74 79 85 79 79 77 77 79 80 80 78 71 63 57 58 61 64 65 66 71 
77 80 79 75 72 73 76 77 70 62 63 69 67 59 49 42 42 48 54 58 64 76 91 104 110 
113 116 116 112 108 111 124 143 171 205 239 255 255 255 255 240 232 232 235 
238 243 251 255 255 255 235 195 145 98 61 34 18 17 28 43 56 62 61 56 53 55 60 
62 61 60 56 52 54 62 67 69 67 62 62 65 67 66 72 79 80 75 73 75 77 77 76 76 77 
82 80 77 75 72 74 75 76 78 79 77 68 57 51 52 55 59 65 69 74 77 76 71 65 65 71 
77 73 65 61 66 70 66 54 44 42 46 51 54 60 69 79 88 98 107 117 123 124 124 131 
147 165 183 206 233 255 255 255 255 241 231 229 230 230 230 233 240 245 239 
213 172 129 91 60 32 16 16 27 42 54 63 65 60 55 54 55 56 58 56 50 46 52 63 69 
70 68 66 65 65 63 62 68 78 81 77 75 78 77 74 75 78 81 80 71 74 72 73 77 78 76 
77 82 84 76 63 53 50 55 63 69 71 73 75 73 68 59 56 64 76 79 70 65 69 73 67 57 
51 50 51 50 47 50 56 63 71 82 96 110 122 128 131 141 160 176 189 208 228 244 
255 255 250 233 217 208 206 206 202 200 206 210 202 181 146 110 82 57 35 21 21 
28 36 45 58 63 62 57 54 51 52 56 59 56 54 60 70 72 67 65 67 66 61 57 59 69 79 
80 76 76 76 74 73 76 82 84 78 73 73 72 79 88 89 83 79 81 83 80 72 64 61 65 70 
73 72 71 71 70 64 55 51 60 73 74 66 62 67 70 66 59 58 60 59 51 42 40 44 50 59 
70 84 102 118 127 133 144 160 175 190 208 228 243 251 251 237 213 189 176 172 
167 159 158 163 164 155 140 118 94 73 53 37 29 29 30 32 39 51 58 58 55 53 49 
49 59 71 73 70 73 77 73 64 64 67 65 58 57 62 71 76 74 71 72 75 72 71 77 84 86 
80 87 72 71 80 90 94 91 85 81 79 78 77 77 76 74 72 70 66 65 66 67 64 59 57 65 
72 66 55 53 63 68 67 63 63 64 60 50 39 36 38 44 52 64 78 97 118 131 138 146 
160 175 192 211 231 246 254 247 224 191 163 148 142 134 125 123 125 122 113 
104 95 82 65 47 36 33 36 36 36 42 52 57 54 52 51 49 52 65 81 85 80 78 78 73 68 
69 71 66 60 62 66 68 66 64 64 71 77 74 72 76 85 89 86 99 71 71 74 82 91 93 89 
83 79 78 83 88 85 77 68 62 60 60 60 62 65 67 69 72 72 63 52 51 59 67 68 65 61 
58 54 46 39 37 39 44 52 63 79 100 122 135 141 148 163 182 199 216 233 248 255 
248 219 179 145 129 120 112 105 103 100 90 79 74 72 68 55 42 33 34 41 45 44 48 
57 59 52 46 46 48 53 66 77 81 78 75 75 74 74 76 77 72 66 64 64 63 62 62 67 76 
82 80 77 80 86 89 88 67 76 73 70 74 84 88 85 82 81 83 87 88 84 74 64 58 58 58 
55 57 67 74 75 73 68 60 54 54 60 65 65 63 57 50 45 42 40 37 40 46 54 65 81 102 
120 129 131 142 161 183 202 219 234 246 255 251 221 177 140 116 103 96 91 90 
83 69 54 48 49 50 48 40 35 38 47 48 45 48 57 57 48 42 42 46 49 55 63 68 71 73 
74 74 75 78 80 77 69 62 58 61 67 71 73 78 81 79 79 81 83 83 81 64 81 76 69 70 
76 76 70 73 80 84 84 80 76 69 62 60 61 58 53 58 72 80 77 69 61 54 53 56 61 62 
63 62 57 48 41 39 38 36 40 51 64 75 87 102 113 116 119 131 152 175 199 222 240 
250 255 253 231 190 149 116 96 84 78 76 70 58 44 34 34 41 46 46 42 46 52 51 42 
40 48 51 46 43 46 48 48 49 52 59 69 76 77 74 72 75 80 82 72 59 53 62 74 77 75 
72 72 71 72 77 80 78 73 65 82 76 71 71 71 61 56 60 72 79 77 71 69 68 65 64 64 
63 60 66 78 81 72 62 55 52 54 60 65 67 66 65 60 51 42 39 39 41 50 68 87 99 106 
114 117 116 118 131 147 166 193 224 249 255 255 255 243 211 172 136 107 86 73 
65 61 56 48 40 37 41 49 53 51 53 59 55 44 37 42 50 51 53 57 60 58 55 53 57 68 
77 80 75 69 72 82 84 73 59 56 66 77 77 73 70 70 67 66 70 76 76 71 68 78 75 75 
75 69 57 50 53 62 71 71 67 66 68 69 69 72 72 71 74 78 72 61 54 57 60 63 69 75 
76 72 68 63 53 44 43 49 59 76 100 124 137 144 145 142 135 133 138 146 159 183 
218 246 255 255 255 251 228 196 162 127 98 75 62 56 57 58 55 51 50 55 57 55 57 
65 64 51 43 47 55 57 59 64 70 71 67 61 58 62 71 77 74 68 71 82 83 73 63 64 74 
79 75 73 77 79 73 66 65 70 74 73 71 72 74 80 80 71 61 57 54 55 62 67 67 64 64 
70 76 80 80 76 72 70 63 54 56 64 70 71 74 79 79 74 66 60 53 48 53 69 89 109 
136 162 178 186 188 180 164 150 142 140 147 166 195 222 241 250 251 247 235 
211 175 136 103 80 65 58 60 65 67 63 60 58 55 52 57 64 64 56 53 56 60 59 57 61 
70 77 78 71 63 60 64 70 69 65 68 77 80 73 69 72 79 79 75 76 84 89 80 67 61 65 
71 76 76 68 74 80 80 75 71 69 63 57 62 68 65 58 61 73 84 88 85 76 66 64 63 63 
68 75 75 72 71 74 77 74 67 60 55 53 66 91 117 137 162 189 210 222 224 212 188 
160 142 137 140 151 171 199 224 237 239 239 233 211 173 131 101 83 72 64 63 68 
73 72 66 59 52 49 53 58 59 57 59 64 66 61 56 58 67 78 82 77 69 63 61 61 60 58 
63 72 75 73 72 76 78 77 74 74 80 84 79 69 63 65 71 76 75 73 77 79 77 77 80 80 
71 67 71 73 64 56 61 77 91 96 91 79 66 62 67 74 78 78 74 71 70 73 75 76 73 65 
57 58 76 106 134 155 178 207 232 245 247 234 204 171 151 144 147 153 165 185 
210 225 230 231 225 203 162 122 98 87 78 69 65 68 73 77 74 64 54 53 58 61 60 
60 65 70 72 68 63 62 69 77 79 73 67 64 61 59 55 56 62 70 73 73 74 75 75 74 73 
71 69 71 74 72 70 71 74 78 69 85 85 80 77 79 84 83 76 73 76 73 63 58 66 83 93 
96 92 82 70 65 70 75 75 72 72 75 77 76 76 77 76 66 56 59 81 111 137 160 189 
221 247 255 255 248 219 186 164 156 157 160 165 178 195 208 215 218 211 184 
144 109 93 84 78 71 67 66 70 78 81 70 59 62 69 70 66 65 68 73 75 74 73 73 74 
74 70 63 59 61 64 64 62 63 67 71 73 74 76 75 72 71 71 66 60 63 70 76 76 74 75 
75 64 92 90 82 79 82 83 82 77 72 68 64 62 63 69 80 84 83 81 78 73 70 70 71 68 
65 70 78 81 78 75 75 73 63 53 58 78 106 133 160 194 230 255 255 255 255 229 
196 171 156 150 150 156 167 179 189 195 198 187 157 119 94 84 81 77 73 69 64 
64 74 78 69 60 63 69 69 64 61 64 67 70 72 78 79 77 72 64 55 53 58 67 70 70 70 
72 73 74 77 79 75 68 65 65 62 58 59 67 75 76 71 74 77 71 84 84 81 79 80 81 82 
80 71 62 58 60 65 68 71 70 66 65 69 72 71 69 67 66 65 68 74 78 75 72 73 71 59 
50 54 73 96 122 151 188 229 255 255 255 255 226 194 163 139 126 126 137 153 
168 174 177 175 155 120 90 78 77 79 79 78 73 63 60 65 70 65 56 55 59 58 52 50 
52 55 57 65 74 79 79 75 69 59 52 57 66 69 68 68 69 71 73 77 79 73 64 61 67 69 
63 59 64 70 70 66 73 85 83 76 77 78 77 76 78 83 85 78 66 59 61 64 65 63 62 61 
62 66 71 72 69 67 66 64 64 67 71 72 73 74 72 62 51 53 66 84 105 131 167 213 
252 255 255 233 206 176 144 116 103 104 120 142 157 160 158 147 121 87 64 60 
65 72 78 82 76 65 58 59 63 61 55 53 55 54 48 44 46 51 56 64 73 78 80 81 78 67 
58 59 64 66 65 65 65 66 69 73 74 69 64 66 76 81 72 61 62 66 65 65 86 87 88 76 
78 79 77 74 74 80 85 82 72 65 63 63 65 66 66 66 67 69 73 76 73 69 66 63 61 62 
66 70 75 79 78 68 55 52 58 69 83 105 138 181 221 236 224 199 173 150 125 103 
93 97 114 134 143 141 137 125 99 68 51 46 48 57 71 79 77 68 60 57 58 58 58 58 
60 60 55 51 52 58 65 73 77 77 79 81 78 72 66 65 67 68 68 66 63 62 65 67 66 63 
64 72 83 84 76 68 65 65 65 68 78 83 85 81 84 85 81 76 74 75 77 78 76 70 64 65 
71 76 76 74 70 69 73 78 77 72 66 62 62 63 64 69 77 86 87 77 61 51 50 56 67 86 
116 152 179 189 178 157 140 125 110 96 90 95 109 123 129 127 123 114 94 71 54 
40 36 47 66 75 74 69 64 59 58 60 60 59 60 62 62 58 56 62 72 79 77 74 73 73 71 
70 70 73 73 72 71 67 62 62 65 66 64 64 67 72 77 77 73 71 73 70 68 71 72 77 79 
84 84 87 86 83 79 72 70 74 80 76 69 69 79 86 87 81 72 68 71 77 77 71 63 61 65 
66 67 72 84 94 95 83 64 51 46 49 60 78 103 126 142 144 135 121 111 104 94 83 
80 87 99 111 119 121 120 110 95 78 61 44 39 48 63 69 68 69 69 68 67 68 65 57 
53 58 61 58 54 59 71 76 72 69 68 67 64 65 71 75 74 70 67 64 63 66 71 73 71 70 
70 69 67 65 67 74 78 75 73 74 71 72 69 74 75 79 81 83 81 74 68 70 78 81 74 71 
79 88 91 86 77 72 73 78 74 65 57 58 64 67 71 79 89 96 95 82 65 52 48 50 56 68 
84 100 110 110 102 92 87 83 75 67 68 77 89 101 112 118 117 106 90 76 63 49 43 
49 58 62 64 70 76 79 79 78 70 59 54 55 58 58 55 58 67 73 70 69 70 67 60 60 66 
71 68 65 64 65 68 72 77 78 78 76 71 64 60 60 66 74 79 78 75 70 75 71 61 66 69 
74 72 70 77 75 68 66 72 75 73 71 75 83 86 84 78 76 75 74 70 62 57 56 59 65 74 
83 88 92 90 79 65 56 54 54 52 55 63 74 83 86 81 71 65 62 57 56 63 74 84 93 106 
116 113 100 85 73 62 50 42 43 50 57 65 71 77 80 82 80 74 66 60 58 59 59 62 66 
71 71 70 72 73 68 59 54 58 64 65 65 68 73 75 77 76 77 81 81 74 64 63 67 71 73 
75 77 72 67 85 77 63 67 66 67 70 75 73 73 68 64 66 70 73 72 73 75 77 74 71 69 
66 64 63 64 63 60 59 63 72 80 83 85 86 81 70 61 59 58 55 54 57 64 68 70 67 58 
49 43 41 49 63 74 78 85 99 110 108 97 84 72 62 51 42 40 49 62 72 73 71 72 73 
73 71 67 64 62 59 61 67 74 75 72 71 74 74 68 57 53 56 62 66 68 71 75 76 77 74 
74 79 85 82 74 74 80 79 71 76 74 64 92 92 84 72 71 73 74 76 74 74 72 64 64 69 
76 78 76 73 73 73 70 65 59 55 54 59 67 71 68 63 64 72 79 80 81 85 84 74 64 60 
60 62 67 72 72 66 63 60 53 43 34 30 40 57 65 65 74 92 103 100 90 78 68 59 51 
44 46 58 71 76 71 65 61 61 62 61 61 63 63 62 62 67 74 76 73 73 76 76 69 61 58 
62 68 73 73 71 69 71 76 75 71 75 84 86 81 82 85 83 80 83 75 70 88 89 85 78 76 
79 78 78 76 73 67 61 62 72 81 83 78 76 79 82 77 68 59 53 53 60 69 74 71 66 68 
75 81 80 79 82 82 74 64 57 55 60 72 83 82 69 59 57 54 46 34 28 33 45 54 59 72 
89 97 91 80 69 59 53 50 49 54 65 73 74 69 63 59 56 52 49 51 58 66 68 65 65 71 
73 73 75 79 78 72 66 66 71 79 83 80 71 65 69 77 78 72 71 79 86 84 82 84 86 87 
88 83 82 77 80 82 80 80 84 82 81 78 70 69 64 59 69 80 81 77 78 86 90 84 73 63 
57 56 61 69 73 72 70 73 79 82 81 78 79 77 70 60 51 47 54 70 83 85 73 63 62 60 
52 41 33 33 43 55 64 76 89 93 85 74 61 54 52 52 54 59 65 69 71 71 71 65 58 51 
48 49 56 66 72 70 67 69 72 74 77 79 77 71 68 69 75 82 85 80 70 65 69 80 84 79 
74 80 86 84 81 82 85 82 86 87 86 71 74 78 78 79 84 84 84 82 74 67 68 73 69 72 
79 78 77 82 84 77 69 65 62 60 62 68 72 74 76 77 79 80 80 80 79 77 70 60 50 47 
54 70 85 85 77 72 73 69 60 50 44 44 51 61 70 78 85 87 81 70 58 51 53 57 60 63 
64 66 70 75 74 68 63 60 56 54 54 60 68 70 66 65 69 74 77 77 74 71 70 70 71 73 
73 69 65 65 71 83 90 87 82 83 84 81 77 75 71 75 82 86 80 71 72 75 77 72 76 77 
80 82 78 73 73 73 74 82 79 79 75 74 71 66 63 65 65 64 62 64 67 73 78 80 78 77 
80 82 82 79 73 63 55 54 61 75 86 86 78 75 77 75 68 62 58 57 59 63 69 75 79 80 
75 65 54 50 54 58 60 61 61 63 68 72 69 64 65 66 62 54 51 55 59 60 59 60 65 72 
76 77 75 73 72 69 65 62 61 62 64 68 73 81 87 87 83 79 76 71 76 65 66 72 77 80 
76 71 70 75 78 71 71 70 71 74 74 74 73 70 71 76 82 78 75 73 69 64 62 64 67 65 
62 62 64 69 76 79 77 76 78 79 78 77 75 70 62 58 64 74 83 83 76 72 74 75 72 68 
65 60 57 59 66 72 75 75 70 61 53 52 54 55 54 54 53 58 65 69 65 64 67 66 57 51 
51 54 56 55 56 59 63 69 76 80 80 76 73 69 65 62 62 65 69 72 72 71 73 74 72 70 
69 69 67 63 67 72 72 71 72 70 70 76 81 81 81 75 70 69 70 72 71 66 64 72 76 76 
76 78 78 72 67 66 66 66 67 69 71 72 75 75 74 73 74 72 68 69 73 73 65 60 63 71 
79 82 76 70 70 71 68 63 59 55 52 56 65 72 76 76 71 62 55 56 58 56 52 51 51 58 
68 73 71 72 73 64 52 48 54 59 57 57 62 65 66 69 75 83 84 80 76 74 72 69 70 71 
72 73 71 67 64 64 65 67 71 75 74 73 75 76 68 65 74 73 73 77 82 86 89 81 74 73 
76 78 75 68 66 71 75 75 77 84 86 81 75 72 72 71 74 79 81 78 75 73 71 70 70 68 
66 66 69 69 66 63 64 69 77 81 78 72 70 68 64 58 55 54 55 60 68 75 81 82 76 63 
54 57 62 61 58 57 59 67 75 77 77 80 79 66 53 51 60 62 59 61 69 73 71 69 75 84 
86 84 82 82 80 76 74 73 74 76 77 74 71 69 69 72 74 78 84 87 88 83 71 67 75 77 
75 75 77 74 79 77 75 78 83 85 82 76 74 79 80 74 70 76 84 84 80 83 83 80 80 82 
80 75 73 74 73 70 70 73 73 70 66 65 67 67 67 70 75 80 79 74 70 69 67 63 61 62 
64 68 74 80 86 87 77 62 54 56 61 63 62 62 66 72 75 73 74 81 82 70 58 59 67 67 
61 62 72 77 74 72 74 80 83 84 84 83 81 79 78 79 80 82 84 84 81 79 75 67 67 75 
86 91 92 87 76 75 68 71 72 70 70 65 71 74 76 79 80 81 83 81 81 85 84 77 73 74 
67 74 81 88 92 88 82 78 70 65 69 76 74 67 68 75 78 74 68 67 70 72 68 65 69 76 
76 70 68 70 70 68 66 67 70 74 78 83 85 82 72 62 59 59 61 60 59 61 68 75 73 68 
71 80 82 72 65 67 75 76 69 66 71 78 79 74 71 74 78 79 76 72 71 76 83 87 86 85 
86 84 80 78 72 66 64 72 80 83 86 85 79 82 60 65 71 72 71 69 75 81 82 77 71 71 
78 82 84 85 83 77 77 79 75 71 74 87 94 91 84 78 71 66 71 76 70 62 62 71 75 73 
70 71 74 73 64 58 62 71 71 64 64 68 69 64 61 63 67 73 79 83 81 74 68 66 67 66 
61 57 56 61 71 79 77 71 72 79 79 71 66 72 81 83 76 69 71 78 80 75 69 71 76 75 
68 62 63 71 82 85 83 81 80 78 76 73 76 68 67 72 74 74 78 82 80 71 65 67 78 83 
82 73 79 84 84 75 64 65 75 83 84 82 78 75 78 83 79 71 71 79 91 90 87 84 80 78 
78 76 69 63 66 70 72 69 70 74 76 71 60 52 56 65 68 63 65 70 68 60 55 58 65 73 
80 83 80 72 69 70 72 66 60 57 60 67 77 81 78 73 74 77 75 69 69 74 81 81 75 70 
72 77 77 70 66 70 76 75 68 62 64 72 78 77 73 73 76 78 81 81 77 71 70 74 73 71 
74 78 78 79 76 77 85 89 89 73 75 82 82 71 61 64 77 85 85 80 75 74 78 81 77 75 
79 78 79 89 89 89 87 86 84 77 70 72 79 80 72 68 70 75 76 69 58 49 49 57 67 70 
73 75 72 65 60 62 68 73 79 83 80 74 70 71 69 64 59 59 65 72 77 77 73 71 74 76 
74 71 72 77 78 74 68 68 73 75 70 64 65 72 77 78 74 71 72 76 77 72 68 70 76 82 
85 81 77 71 71 73 73 71 72 76 77 83 84 84 84 83 82 73 76 81 79 69 62 68 81 88 
86 81 77 77 79 79 73 71 77 81 80 85 93 91 88 85 82 76 73 78 85 84 75 68 70 74 
73 67 58 48 44 53 68 78 81 80 76 71 68 68 70 72 74 77 79 75 71 70 70 68 64 63 
68 75 77 72 69 73 78 79 75 73 74 76 76 71 66 70 77 76 67 62 70 78 80 78 78 79 
79 79 76 72 71 75 77 76 76 80 76 71 70 72 71 70 72 77 75 85 86 85 82 76 72 75 
80 82 77 70 68 73 81 88 90 87 83 81 79 75 68 67 74 78 77 81 85 86 81 79 80 77 
75 76 78 76 70 68 71 72 69 64 58 51 49 55 69 81 83 78 73 72 69 68 69 68 67 71 
76 77 75 74 77 78 74 69 72 80 81 76 75 80 83 79 75 72 71 72 72 70 68 75 82 79 
69 67 75 80 78 76 80 84 83 80 76 73 75 78 78 75 79 80 75 70 71 73 73 71 74 80 
76 83 82 82 80 74 70 74 78 77 72 71 75 77 79 85 90 90 85 82 79 73 68 70 80 84 
81 79 81 79 73 69 76 78 78 75 71 69 70 72 73 72 66 61 59 59 58 61 71 82 84 78 
74 72 67 64 67 69 69 71 76 80 80 80 84 85 80 73 74 80 82 80 81 84 83 78 75 74 
71 67 65 67 70 75 82 80 73 71 75 76 72 73 81 87 84 80 77 75 74 77 87 82 81 78 
73 70 72 75 76 74 77 81 77 77 75 75 74 71 72 72 72 69 67 72 78 77 74 78 84 84 
80 79 81 78 75 79 89 93 86 80 79 77 75 69 63 72 80 79 75 72 73 75 76 74 70 65 
64 66 65 66 73 84 87 85 83 78 68 62 67 76 79 75 74 77 79 81 86 87 80 72 70 73 
75 74 74 78 77 74 76 78 74 64 59 61 67 72 76 75 72 71 72 70 67 70 80 84 80 77 
81 80 76 89 88 82 76 72 70 68 67 70 74 74 74 77 73 70 71 71 69 69 74 70 65 61 
63 72 77 75 70 72 77 77 75 77 82 84 82 83 88 89 82 78 77 75 72 72 72 67 71 81 
80 76 73 73 75 78 77 72 69 70 69 68 75 84 89 89 89 85 70 59 64 79 82 75 67 65 
67 74 84 88 82 70 66 67 67 67 69 73 72 70 71 74 72 64 58 62 68 72 72 69 68 72 
73 69 66 71 79 80 74 75 80 80 80 81 82 78 71 67 68 68 63 62 68 72 70 71 66 67 
71 74 73 73 77 70 60 57 61 76 81 71 65 68 74 76 75 75 80 84 83 80 78 77 75 77 
80 79 77 77 74 70 76 78 81 75 69 69 73 79 79 75 72 72 72 74 79 84 83 81 83 81 
69 55 56 67 74 70 60 54 56 66 80 89 82 69 64 68 72 73 75 76 73 66 62 66 69 67 
67 72 77 78 75 70 70 75 78 74 70 72 80 80 74 74 83 88 82 76 77 76 71 68 70 72 
68 63 68 75 74 73 66 68 71 75 79 83 82 73 78 70 77 86 81 80 76 76 80 82 78 73 
75 81 83 80 76 74 76 81 85 86 85 84 81 79 75 79 79 75 68 67 73 77 74 69 69 72 
77 82 85 83 77 72 73 74 68 57 51 56 63 65 61 57 56 64 79 86 79 68 66 74 84 85 
82 79 74 66 60 63 72 78 78 79 83 83 79 73 73 79 84 81 76 79 82 79 76 75 87 93 
82 74 74 76 74 71 73 78 76 73 77 84 84 80 72 70 66 67 75 84 85 78 84 66 73 83 
82 73 71 74 80 85 83 79 76 76 79 80 79 78 80 83 85 84 82 80 79 76 77 75 78 75 
70 70 74 75 70 65 66 72 79 84 83 78 71 70 72 71 68 61 56 55 58 63 65 65 65 70 
77 81 76 68 69 79 88 88 81 74 71 68 64 68 77 83 81 78 79 80 77 73 73 78 84 87 
86 83 77 72 69 72 88 89 80 74 76 77 74 73 76 82 83 82 84 87 88 79 79 72 61 58 
66 79 86 71 88 65 72 80 81 77 74 72 75 82 81 70 61 67 80 88 88 81 83 81 78 76 
71 66 68 74 72 65 73 77 77 79 80 79 72 67 67 71 77 80 76 69 68 71 70 66 63 61 
59 56 57 58 61 66 70 72 74 76 73 69 70 77 82 81 74 68 67 68 68 70 75 77 76 75 
75 75 72 69 70 75 80 86 89 84 73 64 64 70 77 78 77 78 79 77 76 77 81 85 86 85 
84 81 81 69 86 77 66 64 69 76 83 63 82 69 73 78 80 79 77 73 75 81 79 71 66 71 
80 86 90 90 87 83 80 76 76 78 75 74 73 65 57 62 79 85 87 82 75 69 67 70 75 76 
71 66 68 71 65 55 55 59 60 58 53 48 49 58 65 67 67 69 69 68 68 69 70 70 67 64 
66 70 72 72 71 71 73 75 76 75 71 66 66 69 74 81 87 85 79 73 74 69 68 69 74 81 
82 77 77 81 83 83 83 84 81 75 71 93 89 81 76 77 76 72 72 66 72 77 76 75 76 77 
75 74 79 82 77 71 72 75 77 81 87 88 83 79 81 81 79 79 87 90 84 78 73 74 77 75 
81 79 70 67 67 71 75 77 74 71 72 72 62 51 52 61 65 63 57 48 46 53 61 62 62 64 
65 65 65 64 64 64 64 65 69 75 78 76 73 72 73 74 76 75 72 67 63 65 71 78 85 87 
84 79 76 70 66 66 72 79 79 76 76 79 79 77 76 78 76 72 71 90 85 80 79 81 77 65 
59 75 69 83 79 73 71 71 70 71 77 78 72 70 76 78 74 73 78 80 77 75 79 85 85 81 
80 79 76 75 80 84 85 84 84 81 66 66 70 73 76 76 74 73 77 76 66 55 56 62 67 71 
70 62 54 57 62 64 64 64 63 63 67 69 69 70 70 70 73 79 83 82 79 75 72 68 70 76 
79 73 67 68 71 77 83 82 76 76 73 70 70 71 74 76 75 73 72 72 71 71 72 72 70 70 
77 82 79 77 78 81 78 68 60 79 72 83 81 75 70 69 70 71 72 70 64 67 76 78 72 68 
72 76 75 74 76 81 84 82 78 75 75 78 83 87 86 82 79 76 76 73 65 71 75 73 72 74 
81 83 74 63 59 62 66 72 75 69 63 62 65 68 70 69 64 63 69 77 80 81 79 76 73 75 
82 85 82 76 68 64 68 81 87 85 79 75 71 73 77 68 71 71 67 69 74 78 77 75 74 72 
68 66 66 70 73 72 70 72 79 73 73 75 77 78 81 79 72 85 76 79 83 81 76 75 75 74 
69 63 59 63 73 76 70 65 69 77 80 77 73 74 80 84 83 79 79 80 82 82 78 72 66 67 
73 74 65 57 59 76 83 88 81 72 67 71 67 68 70 71 71 68 65 64 64 67 72 73 68 63 
69 79 85 87 87 81 73 73 79 83 81 74 68 67 72 81 89 92 89 79 68 64 65 63 68 68 
65 70 80 83 79 76 76 75 70 67 68 71 75 77 78 78 75 69 70 73 73 71 75 83 82 83 
81 80 85 86 83 79 75 70 64 60 57 60 90 86 81 77 77 81 85 84 80 76 75 74 74 77 
81 83 80 75 72 75 78 76 75 77 77 75 75 78 70 73 75 68 65 68 72 74 74 72 72 74 
75 70 63 64 72 74 68 66 72 79 83 88 90 85 78 75 78 81 78 72 70 71 73 77 82 89 
88 77 65 70 65 65 69 72 71 75 83 84 78 75 78 80 77 73 69 67 70 78 84 82 64 70 
75 79 83 86 85 80 81 
