P2
112 112
255
99 99 84 87 84 84 86 86 78 90 90 75 70 65 69 78 79 68 59 60 63 64 68 75 75 74 
76 77 75 80 88 89 88 90 91 83 74 72 71 64 57 62 73 83 89 96 100 92 83 83 89 85 
73 66 68 72 66 57 63 85 97 89 78 79 83 75 68 68 67 67 70 82 95 93 85 85 89 83 
73 70 73 77 81 80 77 74 74 68 60 63 80 96 94 83 71 64 64 66 70 76 82 78 68 66 
72 74 71 75 83 82 80 89 97 96 72 70 71 76 85 89 79 86 87 83 79 67 62 71 78 75 
68 63 56 50 53 65 72 73 72 69 66 67 72 76 82 93 98 89 76 73 73 66 60 64 74 83 
89 97 99 88 72 66 70 72 70 68 70 75 73 67 70 81 84 75 69 77 83 74 68 74 79 75 
78 92 96 88 87 87 90 87 81 79 82 87 88 81 70 67 73 74 64 58 68 82 85 81 77 72 
68 70 77 85 92 91 85 82 83 77 69 77 92 94 87 89 81 81 66 61 63 71 81 86 77 76 
81 89 85 70 57 55 62 67 70 66 55 46 49 61 69 72 71 64 55 53 56 61 71 86 93 83 
70 68 71 67 62 68 78 82 82 85 86 77 65 61 66 72 74 69 64 65 70 73 76 77 73 69 
73 87 93 83 74 73 72 67 74 91 97 87 77 73 70 67 86 85 88 94 96 86 70 64 71 74 
63 50 53 64 70 74 78 77 74 79 87 91 91 88 86 90 95 87 72 73 88 94 87 81 65 66 
77 72 71 70 72 75 72 72 77 84 81 74 62 51 50 56 65 66 63 60 64 68 70 72 73 67 
58 54 55 61 68 76 77 67 55 55 62 64 62 68 79 81 74 69 71 71 65 61 65 73 75 68 
59 58 65 71 74 72 72 76 85 97 99 87 74 69 62 56 64 81 90 87 81 75 69 66 66 68 
76 89 94 84 73 69 73 77 67 55 55 63 69 76 80 78 78 87 95 92 82 75 73 82 95 94 
76 68 78 85 77 66 62 63 86 87 83 72 64 64 68 81 79 76 75 76 74 63 57 59 67 73 
76 79 80 77 76 80 84 81 72 65 62 64 68 68 63 54 48 47 53 57 58 63 71 74 65 57 
61 67 66 61 62 67 69 66 64 65 69 70 68 67 71 78 83 88 87 75 64 60 56 52 58 70 
80 83 83 77 70 68 70 72 77 87 92 88 84 86 84 74 67 68 68 71 73 77 80 78 81 92 
98 87 73 66 67 77 92 94 78 67 75 83 74 61 69 70 80 83 79 68 58 58 94 93 86 79 
77 82 87 83 75 70 72 78 83 85 83 79 82 91 98 94 83 70 63 62 63 61 58 57 58 57 
54 54 55 60 64 62 54 50 57 66 67 64 66 69 66 62 67 77 78 71 64 63 67 72 72 70 
68 60 51 52 57 57 56 61 67 73 79 78 71 70 73 72 72 78 84 86 87 90 87 78 72 73 
76 79 81 80 77 77 79 89 93 80 67 66 75 87 98 96 81 70 79 90 83 68 75 77 71 69 
67 63 59 59 88 91 92 91 87 88 92 93 84 71 66 72 79 80 79 79 84 94 99 93 81 72 
67 64 63 63 64 68 72 70 63 59 61 67 67 57 48 49 61 72 72 69 73 76 70 63 66 77 
81 75 67 64 66 69 66 63 60 53 45 49 61 63 58 56 59 65 72 76 73 73 75 75 73 75 
80 80 80 83 86 83 81 82 86 86 81 75 73 74 68 59 60 76 92 67 77 91 102 102 85 
69 74 88 88 76 80 82 71 64 64 67 70 69 73 78 89 93 93 87 85 86 80 66 56 61 72 
79 83 85 84 86 87 81 76 80 82 76 72 71 69 70 72 72 67 66 73 78 71 57 49 55 73 
84 80 70 70 75 75 70 70 75 80 78 73 69 70 72 68 62 57 51 47 52 63 64 59 60 68 
73 74 74 75 77 81 81 79 80 84 82 77 79 86 88 86 88 95 94 83 69 66 73 73 63 61 
78 95 95 83 70 62 63 66 61 56 72 82 78 86 87 74 67 66 70 78 80 62 73 89 89 86 
79 76 80 79 67 58 61 71 81 89 91 86 81 80 78 78 88 97 94 83 76 70 64 63 65 67 
71 78 77 64 50 49 65 87 96 84 65 59 66 77 79 76 76 79 79 76 73 76 79 74 63 55 
53 54 60 65 61 57 67 84 89 83 75 72 75 80 81 78 79 81 79 76 80 89 91 86 84 89 
91 82 70 66 72 73 61 54 65 81 85 81 75 67 64 66 70 75 77 71 60 90 91 78 74 67 
63 69 76 61 82 97 88 79 73 75 82 81 72 68 71 75 80 85 87 83 81 85 86 85 88 96 
98 90 80 74 71 69 67 69 73 77 72 57 45 51 72 92 98 84 62 51 60 77 82 76 72 74 
77 78 78 81 86 83 72 63 60 63 69 69 58 53 65 86 93 85 72 63 64 70 72 68 65 65 
67 70 78 89 90 82 73 71 72 73 72 72 75 73 60 50 55 66 72 76 77 73 70 72 77 84 
88 83 71 85 87 85 85 73 59 54 57 59 94 97 86 78 75 78 78 70 64 67 75 78 77 78 
77 75 79 89 94 88 81 83 89 87 81 81 86 88 82 77 78 81 77 64 54 60 77 89 88 78 
65 55 61 76 81 72 64 68 76 83 85 84 87 89 82 71 63 64 69 68 56 49 56 73 81 78 
67 57 58 65 65 58 53 55 60 63 70 79 84 79 67 57 57 66 74 78 79 77 68 60 62 67 
72 78 79 76 77 83 88 91 92 90 84 75 76 87 89 80 67 56 50 53 91 82 77 79 82 79 
68 52 46 56 72 81 81 77 72 70 77 90 96 88 78 77 81 79 75 78 87 90 84 78 83 90 
89 81 73 74 81 81 72 67 67 64 65 75 82 75 67 67 73 82 86 80 76 78 77 68 59 56 
59 61 54 49 52 61 70 71 66 62 68 74 68 56 54 61 64 59 56 64 77 81 71 60 60 70 
77 78 78 79 76 72 71 72 76 80 80 78 84 92 94 89 84 82 85 71 72 81 80 78 77 71 
51 53 75 70 70 80 87 81 65 48 42 50 69 85 88 81 75 75 81 92 97 90 81 81 83 78 
71 69 74 73 70 72 81 89 91 88 82 80 81 74 60 56 64 67 66 73 83 85 80 73 69 71 
75 73 68 67 66 61 56 55 57 59 58 57 57 58 61 64 66 69 79 83 71 57 57 65 65 53 
42 49 68 80 76 67 69 79 81 73 72 77 79 76 69 67 71 77 78 80 89 97 93 80 72 70 
77 82 81 79 74 74 82 87 63 61 66 71 74 81 87 83 70 61 57 59 71 88 92 83 78 81 
87 94 97 91 82 83 89 88 79 71 67 64 62 67 72 73 77 80 78 78 80 73 57 53 64 70 
68 71 80 86 84 77 67 62 64 67 69 70 66 62 63 66 68 69 70 69 62 57 57 61 60 63 
73 77 66 54 55 59 57 49 43 46 57 68 68 64 70 81 81 71 67 75 79 74 64 60 68 77 
76 76 86 94 84 70 65 68 77 93 94 88 83 81 86 93 74 71 74 82 82 81 79 74 70 72 
73 71 77 89 90 80 77 85 91 93 95 92 85 82 89 96 92 80 72 70 69 66 59 52 59 70 
72 74 81 78 62 58 73 82 77 73 72 74 77 76 68 61 60 66 73 76 70 66 67 71 73 75 
76 71 60 56 62 68 63 57 60 62 58 56 57 53 49 55 65 64 57 56 55 55 65 78 77 68 
65 72 77 74 68 64 72 78 73 65 71 81 75 64 66 77 88 89 90 92 94 92 89 86 76 78 
87 90 84 77 70 65 68 77 79 74 79 89 86 76 78 88 89 86 88 90 88 84 86 92 91 82 
77 77 77 68 52 43 53 69 74 73 77 79 71 70 85 96 90 77 69 67 71 74 70 62 59 63 
70 70 63 56 58 64 69 70 69 63 58 61 75 84 77 66 62 63 64 67 65 54 51 69 88 85 
69 60 58 59 69 78 75 66 65 69 71 73 73 72 75 80 75 64 63 74 78 71 69 77 92 74 
74 85 91 92 85 77 71 84 96 95 86 76 68 65 71 80 79 72 77 85 82 74 80 92 89 79 
75 79 85 87 84 83 82 81 80 80 77 67 52 46 55 71 76 71 70 70 70 76 90 97 89 78 
74 73 75 74 67 60 57 58 59 54 45 42 48 59 69 69 63 60 63 70 84 94 90 79 75 76 
77 79 74 60 54 70 89 89 80 76 72 69 75 80 77 71 69 66 63 68 73 73 74 80 82 76 
75 86 94 89 77 72 82 62 63 86 88 86 77 62 65 93 104 101 88 77 71 69 73 78 76 
71 76 84 81 75 82 93 89 73 63 65 75 82 80 77 78 83 85 80 73 64 56 52 57 64 67 
63 59 59 66 78 87 85 77 75 81 85 85 77 65 56 54 56 53 44 35 37 46 59 72 74 66 
61 68 76 84 92 91 82 78 79 81 84 80 65 54 62 76 81 83 84 76 67 69 74 75 74 70 
60 53 59 69 74 77 82 86 86 89 97 103 98 84 74 77 61 61 96 93 84 76 61 69 101 
108 101 84 75 73 71 69 69 71 73 77 85 84 76 77 86 84 69 57 56 65 75 74 70 71 
79 84 81 75 70 65 61 59 60 61 59 56 58 70 82 84 76 71 76 84 86 82 73 62 56 54 
57 56 47 40 42 47 53 63 69 64 59 66 75 80 87 87 77 68 71 77 81 81 71 60 62 73 
82 86 82 67 56 59 65 66 68 66 56 46 54 71 82 80 75 75 77 83 88 91 89 85 82 83 
60 60 100 92 82 79 73 81 101 106 94 75 70 75 75 69 65 68 75 79 83 82 75 70 72 
73 65 59 57 63 73 74 65 60 67 79 87 86 84 80 74 69 68 68 67 63 66 77 85 84 78 
78 81 78 72 65 59 56 53 54 59 62 58 53 52 51 47 49 55 56 56 64 72 78 85 87 74 
59 59 68 74 74 71 69 73 81 87 86 75 56 49 58 65 62 63 68 63 52 58 77 88 78 64 
61 67 70 74 74 74 78 84 87 51 51 88 79 73 79 84 85 92 96 82 68 69 77 80 75 70 
70 73 74 73 73 71 67 64 62 60 61 64 70 79 83 74 64 66 80 95 96 89 81 76 74 74 
75 74 70 70 77 84 84 84 87 82 68 56 51 51 52 49 50 58 65 64 59 61 61 54 48 49 
53 60 68 76 81 87 87 72 56 55 63 65 62 62 68 78 86 88 84 68 48 43 59 72 70 69 
77 77 66 64 78 87 77 65 67 75 77 75 71 67 68 75 82 50 49 71 68 68 77 83 76 80 
83 75 69 69 73 76 78 77 72 64 59 59 63 66 66 64 59 56 60 67 75 84 89 84 77 78 
88 97 93 79 66 63 66 69 71 70 68 69 74 80 83 87 91 81 60 46 46 53 55 48 45 53 
61 59 56 66 76 70 59 55 59 67 75 79 83 86 83 69 59 62 67 64 57 57 64 75 84 89 
84 69 54 50 61 73 76 78 84 82 70 65 71 78 74 70 77 88 88 82 76 71 67 67 72 61 
61 64 72 76 80 79 76 76 77 77 77 73 67 70 77 78 68 54 49 53 61 64 67 69 65 59 
60 66 73 78 81 79 79 82 87 90 82 68 58 56 58 62 63 61 61 66 73 77 80 87 92 81 
57 40 43 55 60 54 49 54 60 56 53 65 82 81 69 63 66 68 71 72 75 77 71 63 61 70 
76 73 67 61 60 68 81 90 88 82 75 70 67 68 71 75 76 73 66 61 60 63 64 66 73 81 
82 76 75 78 76 70 68 72 73 70 84 86 81 81 88 81 80 87 90 82 72 72 76 75 64 53 
53 59 63 65 70 76 73 67 62 61 63 66 67 69 71 72 72 73 72 68 64 62 62 62 59 53 
54 62 71 74 76 82 87 78 55 38 40 53 61 61 60 65 70 65 57 63 78 82 76 73 72 66 
59 57 61 63 58 51 54 66 77 81 79 68 57 62 79 87 87 89 91 86 74 66 64 63 61 62 
64 62 55 53 57 60 62 66 67 66 71 78 81 77 72 75 76 80 92 91 78 83 94 86 84 92 
98 92 82 77 75 69 61 58 60 62 63 67 75 81 79 73 64 56 53 57 62 67 67 61 53 55 
62 67 66 64 65 63 56 48 50 60 68 70 70 73 73 66 54 41 39 46 56 63 70 79 85 81 
72 70 73 74 75 79 78 68 57 55 61 63 53 41 41 53 68 81 85 74 60 62 76 82 78 79 
85 83 73 66 62 56 52 59 70 71 62 58 62 65 66 66 66 67 70 75 79 79 76 72 72 85 
98 98 79 81 84 82 82 89 94 91 84 79 73 65 62 64 65 62 59 68 80 84 80 76 70 59 
53 57 66 71 67 55 44 48 59 64 61 58 59 57 51 49 55 64 70 70 68 63 57 53 50 41 
34 36 48 63 78 92 102 102 96 89 81 73 71 76 78 72 65 67 75 74 57 38 33 42 57 
76 87 81 68 67 76 78 71 67 69 70 67 65 62 57 53 59 72 78 73 66 70 74 73 72 73 
73 71 73 78 80 78 64 64 91 105 104 94 77 68 73 76 80 82 80 79 77 72 67 68 73 
73 66 61 68 82 88 86 86 83 71 62 64 69 71 67 57 50 58 72 72 60 49 46 46 47 53 
66 75 76 72 65 55 47 44 43 36 30 34 51 71 89 108 124 129 125 118 104 85 71 69 
71 69 63 67 76 73 54 36 33 41 54 70 82 81 70 68 74 76 72 67 66 67 68 67 60 55 
55 59 65 70 70 65 64 67 68 68 72 76 76 75 79 80 77 60 60 95 108 104 105 69 62 
67 70 71 69 69 72 73 71 71 75 79 78 73 67 68 75 85 92 98 93 80 73 73 73 70 67 
62 61 73 89 86 62 39 34 39 45 56 73 82 76 64 55 50 47 45 43 41 42 53 72 89 102 
120 139 147 143 139 127 103 81 72 70 61 49 48 53 52 43 38 43 50 55 63 70 69 63 
62 68 74 75 72 73 78 81 72 57 53 59 64 61 59 61 59 54 52 55 61 69 79 83 81 80 
79 75 67 69 93 105 88 91 61 63 65 68 69 67 66 68 69 70 73 74 71 70 72 71 64 60 
68 84 92 84 73 72 76 76 75 72 63 59 70 86 84 59 35 31 43 52 60 73 82 73 56 46 
47 50 51 51 55 63 77 95 108 112 119 134 143 139 136 134 118 96 85 77 63 43 31 
30 33 39 49 61 66 65 64 66 64 61 63 71 78 78 75 79 88 90 76 58 56 68 75 68 60 
62 61 51 44 48 59 73 86 91 90 86 81 77 81 83 84 95 66 66 54 61 67 73 75 75 75 
73 71 72 75 70 59 56 67 75 65 52 55 70 76 67 60 63 70 74 78 75 61 49 53 68 71 
55 40 46 63 70 67 70 76 72 59 51 52 54 56 60 68 77 88 107 125 129 126 129 130 
123 118 124 123 108 91 78 66 49 32 23 26 39 58 75 84 83 81 81 78 74 75 82 85 
81 78 83 90 88 73 58 60 76 85 77 67 66 63 51 42 47 61 73 84 92 96 93 86 78 83 
84 75 81 63 58 50 60 69 73 75 78 81 81 79 79 80 72 57 52 64 79 76 62 57 65 67 
62 56 56 58 62 70 74 64 50 49 60 67 62 58 69 84 83 71 63 64 67 67 64 61 60 64 
73 82 86 92 114 142 154 148 140 131 115 105 112 121 111 86 64 53 44 32 22 24 
36 56 78 94 99 98 96 90 82 79 84 86 84 82 84 86 81 69 59 61 76 86 77 65 63 61 
51 46 54 65 68 72 83 95 97 87 75 79 79 76 76 73 65 58 64 66 64 64 69 77 80 81 
83 81 75 68 64 69 78 81 73 64 63 65 68 67 59 48 45 55 72 77 70 65 70 78 81 80 
86 93 86 70 58 53 58 66 68 67 69 78 88 95 97 104 125 151 163 159 151 139 121 
107 111 118 108 78 49 34 27 20 17 23 35 51 76 98 105 99 93 86 74 65 68 75 79 
80 83 86 82 73 65 65 76 84 77 63 58 61 59 60 69 75 70 64 72 89 97 87 73 81 80 
88 82 77 72 70 67 60 52 53 62 69 72 74 75 73 72 75 76 74 73 76 76 65 55 55 67 
76 69 51 40 49 69 85 87 83 84 91 95 93 89 87 82 73 61 51 54 64 69 73 83 92 97 
104 113 125 139 151 155 150 147 143 130 115 112 114 104 77 49 29 17 12 19 33 
42 52 77 101 106 96 87 78 62 47 47 61 71 73 77 86 90 83 74 74 81 85 78 66 62 
64 67 71 80 86 78 65 66 81 95 93 83 81 80 94 88 72 75 75 69 57 50 57 69 72 69 
67 64 60 61 70 75 70 67 72 76 65 47 42 55 71 73 64 56 61 74 85 91 92 94 98 98 
89 78 71 71 74 71 63 64 74 79 83 93 101 103 110 127 146 159 159 151 143 144 
148 140 122 113 114 107 84 55 30 16 19 38 53 52 53 71 92 99 96 91 80 59 39 41 
59 69 67 71 86 95 88 78 78 85 85 76 69 66 65 65 69 78 84 81 72 70 79 92 98 94 
77 76 83 70 71 74 75 69 61 58 66 76 76 71 68 64 56 54 62 68 65 64 70 75 64 45 
36 43 56 66 72 78 82 84 86 91 96 99 98 91 78 64 58 64 76 79 77 83 93 94 90 95 
106 114 124 142 164 180 179 166 155 157 163 155 134 123 124 119 94 58 27 17 33 
59 67 54 43 50 64 75 84 88 78 57 42 48 66 73 66 66 79 87 79 71 75 82 80 74 71 
70 66 63 66 70 74 78 80 78 80 87 95 94 86 85 67 76 74 63 68 66 62 62 67 72 74 
74 74 70 62 60 66 71 68 65 67 69 61 47 39 40 46 57 73 86 88 82 83 90 95 93 89 
82 71 61 62 74 85 88 92 103 110 100 87 91 109 128 146 162 177 192 198 187 178 
181 187 175 153 140 141 136 108 66 33 27 48 70 68 49 34 32 37 48 62 69 63 53 
49 56 70 74 63 55 60 67 66 64 70 78 77 76 79 79 74 72 71 68 70 79 85 83 80 83 
89 89 103 103 62 78 71 58 61 61 60 59 58 60 67 73 76 74 73 77 82 81 73 67 66 
63 59 54 50 47 46 54 67 76 71 62 66 76 77 75 76 79 78 75 80 92 98 98 104 116 
116 97 81 88 114 144 168 180 187 199 210 207 204 208 208 193 172 161 162 155 
127 90 60 54 68 77 68 50 41 40 40 44 52 55 51 51 57 65 70 71 60 44 41 52 63 67 
72 76 77 79 86 88 84 81 78 72 74 79 80 76 76 82 86 85 100 100 62 73 69 70 68 
66 63 58 51 50 56 65 70 72 78 88 91 84 72 69 69 65 61 60 58 52 48 50 57 59 49 
40 46 59 62 61 70 81 87 89 96 104 105 100 104 114 110 90 80 94 123 155 181 193 
198 208 218 226 233 236 226 207 194 191 193 182 156 123 97 86 87 81 65 51 51 
57 61 63 64 58 48 47 59 71 73 69 59 44 40 55 73 78 77 77 76 76 81 84 83 82 82 
79 77 73 65 61 69 79 82 81 76 75 55 71 79 86 82 76 70 63 54 49 52 59 63 69 80 
88 86 77 71 73 74 68 63 61 59 54 50 51 53 49 40 36 46 61 67 66 70 78 86 93 101 
105 101 95 94 100 100 87 83 98 126 157 186 204 211 215 225 242 255 255 242 226 
225 232 234 221 195 162 132 112 95 74 52 40 44 55 66 73 74 64 47 40 50 67 74 
69 62 54 56 69 82 84 79 78 76 74 74 76 76 77 83 86 82 72 59 55 61 68 72 73 62 
60 76 75 85 85 79 72 70 69 65 60 59 62 66 74 81 80 75 74 79 82 77 70 63 61 60 
59 60 60 57 48 40 42 56 71 76 73 72 74 80 89 95 95 92 91 88 88 87 82 84 98 122 
149 179 204 216 218 226 246 255 255 251 245 255 255 255 255 232 197 164 134 
102 67 37 23 26 38 52 63 67 61 47 35 42 60 70 66 62 65 73 80 79 74 71 73 73 72 
74 75 74 75 83 91 90 81 71 65 61 58 61 67 70 68 77 76 78 71 64 60 63 70 72 68 
66 69 75 82 82 73 70 79 87 83 73 67 65 67 69 71 73 70 59 45 39 47 61 68 67 67 
72 78 83 87 86 81 82 89 86 78 72 72 81 95 112 133 160 189 207 213 221 240 255 
255 250 252 255 255 255 255 255 223 193 162 122 76 36 16 17 29 39 45 49 54 51 
45 50 65 72 67 62 68 79 79 68 61 61 61 60 64 73 78 78 77 82 86 88 87 87 82 67 
52 55 68 78 77 77 76 75 66 59 54 54 62 68 67 66 69 75 83 84 73 68 77 83 74 63 
63 71 78 81 81 77 69 55 44 44 57 66 60 52 55 72 88 95 92 79 70 78 91 88 73 63 
66 77 89 99 114 137 167 190 204 216 234 250 250 240 244 255 255 255 255 255 
235 213 189 150 98 50 25 24 33 37 35 36 46 58 62 67 79 87 81 64 60 70 73 65 61 
62 58 51 55 67 77 80 81 77 73 74 85 96 91 68 51 59 77 75 75 85 81 71 67 65 59 
53 57 65 67 64 62 65 74 80 73 64 67 74 68 58 59 73 86 90 84 75 68 61 57 62 76 
81 68 51 53 73 93 100 92 74 68 81 95 91 78 70 71 75 77 84 98 121 147 171 191 
209 228 240 235 222 226 251 255 255 255 255 239 226 210 175 122 70 40 36 42 43 
37 36 45 60 70 75 86 100 94 66 46 53 67 69 69 72 67 58 58 69 77 82 81 69 57 62 
82 97 88 65 56 69 84 69 70 92 82 67 67 71 67 60 61 69 74 69 62 57 61 70 70 63 
63 71 69 60 59 72 89 95 87 76 75 78 80 82 89 91 80 62 58 71 87 94 86 74 73 82 
91 90 84 80 75 64 60 69 90 114 135 153 173 193 210 215 205 197 207 234 255 255 
255 255 250 242 230 196 142 89 57 49 48 47 45 47 54 65 70 71 79 96 94 65 38 41 
61 70 73 76 73 65 66 76 81 82 78 66 54 60 81 93 82 64 61 73 81 72 72 87 84 74 
69 76 77 71 71 78 83 80 71 63 59 63 68 67 70 75 73 63 60 72 88 93 84 75 78 90 
96 94 90 86 76 65 63 70 81 86 83 79 79 78 76 72 70 69 62 50 46 62 92 118 133 
143 155 171 181 177 166 170 194 226 254 255 255 255 255 255 253 217 164 111 
77 60 48 41 46 58 66 70 68 63 66 82 85 62 38 44 61 66 67 70 66 58 60 76 85 84 
79 72 66 69 81 86 74 60 61 69 72 77 78 79 102 86 79 87 90 86 84 86 86 85 83 76 
66 63 66 72 78 81 75 66 65 75 84 82 72 65 70 85 95 95 88 77 66 59 62 71 77 80 
82 86 85 75 62 52 46 42 38 35 41 64 100 129 143 146 149 157 159 150 140 154 
190 226 249 255 255 255 255 255 255 234 182 128 89 62 40 30 42 58 67 69 65 56 
56 71 75 57 45 56 67 64 61 65 61 48 50 69 84 86 83 85 86 84 83 80 70 61 63 70 
71 76 75 79 96 91 88 92 96 97 95 89 82 81 86 83 72 64 66 74 81 82 78 76 80 85 
81 72 63 59 65 77 87 91 87 76 63 57 62 72 76 75 80 89 88 73 59 51 40 27 20 25 
41 69 105 136 151 156 156 155 149 137 131 148 188 225 247 255 255 255 255 255 
255 239 191 135 91 58 35 28 42 55 62 67 64 52 50 65 71 58 52 65 71 60 55 61 61 
52 54 70 80 79 81 92 99 92 82 77 74 71 73 79 77 71 72 74 73 78 83 86 89 94 95 
86 73 70 77 81 76 69 67 73 80 80 78 86 99 100 85 73 69 68 71 76 80 79 78 74 66 
63 70 77 75 71 76 82 75 63 60 60 47 27 16 23 40 66 98 127 147 158 158 150 138 
125 121 138 174 210 235 255 255 255 255 255 255 232 186 132 87 54 35 33 44 53 
57 64 67 58 54 66 75 65 58 66 67 51 42 53 63 65 70 76 73 64 65 81 92 85 75 75 
81 83 83 83 82 72 67 64 61 66 72 73 75 81 85 77 65 63 72 79 77 72 70 72 74 70 
67 81 101 106 92 79 76 76 77 77 74 67 66 68 69 72 80 85 81 75 73 69 55 46 52 
56 44 27 23 30 41 61 87 112 134 148 150 140 124 110 103 115 146 183 214 244 
255 255 255 255 250 219 173 123 82 52 33 30 38 43 45 54 65 68 67 71 77 69 61 
63 61 47 39 49 64 74 79 77 65 50 47 60 77 80 76 78 87 88 81 77 81 77 72 67 64 
66 67 66 67 72 73 69 64 65 74 79 75 68 66 68 66 57 51 62 83 92 86 76 70 68 69 
73 74 69 67 71 77 81 85 88 88 87 82 67 49 40 42 43 35 31 36 40 45 62 86 107 
125 137 138 129 115 97 84 90 121 161 198 231 255 255 255 255 235 202 153 108 
75 51 33 26 29 31 32 41 56 69 72 70 68 61 56 59 63 59 57 65 73 76 77 76 69 56 
47 54 74 89 87 81 82 82 73 66 76 77 85 75 70 67 65 66 68 67 65 66 67 69 76 79 
71 60 60 64 60 48 41 49 64 73 73 70 64 57 58 65 71 74 78 83 85 83 79 79 84 93 
94 83 67 55 48 43 36 36 40 43 48 65 90 110 122 127 126 118 105 84 68 77 113 
155 189 221 249 255 255 242 220 180 127 83 57 44 35 31 32 33 35 41 53 64 66 61 
55 47 43 52 69 78 82 86 85 77 70 71 76 75 68 69 83 97 95 82 76 76 69 62 69 89 
88 72 71 67 64 67 67 60 60 69 72 67 69 76 72 65 68 70 58 44 42 51 60 64 66 68 
67 61 56 55 59 67 78 84 83 77 70 65 69 83 97 100 93 81 69 56 41 32 29 32 39 59 
88 111 121 121 114 104 89 71 63 81 116 151 178 206 237 253 245 224 197 155 102 
55 31 29 33 37 35 33 38 49 60 65 60 55 52 43 36 44 66 82 88 88 84 73 61 62 76 
88 86 81 86 93 91 80 75 77 74 66 66 82 81 71 75 73 68 65 62 59 63 74 75 61 58 
71 78 76 79 75 57 43 47 57 61 61 59 64 72 69 55 44 45 55 64 67 69 71 70 65 61 
72 91 105 107 101 91 72 45 22 14 19 29 49 81 109 125 126 116 101 84 70 72 92 
121 145 164 190 221 234 219 190 161 127 83 38 14 15 29 33 24 17 26 48 67 73 66 
63 62 51 36 38 59 73 73 71 72 68 57 58 76 91 88 79 77 81 80 76 75 80 79 69 63 
76 76 77 81 81 76 67 64 66 74 81 77 62 57 68 75 71 70 67 56 47 48 55 58 57 52 
56 68 67 50 40 47 56 55 50 53 67 78 79 75 78 90 102 106 105 103 86 51 19 12 24 
36 53 82 115 139 147 140 122 102 89 90 106 127 143 158 181 205 208 183 148 119 
93 64 31 10 10 23 29 19 9 16 41 67 78 74 70 67 54 38 38 55 67 63 60 68 70 62 
66 86 97 87 75 74 77 77 74 75 80 79 69 60 73 76 80 82 84 79 72 72 80 86 86 81 
72 71 76 71 55 48 53 57 53 48 48 52 55 55 56 63 65 56 54 63 69 63 52 51 63 78 
88 89 87 92 98 97 95 100 89 54 25 28 46 60 76 104 137 163 175 170 152 129 112 
109 123 142 156 168 184 195 185 153 115 87 66 45 21 5 6 19 32 34 28 30 45 62 
70 69 65 61 52 43 46 61 71 67 64 72 76 70 75 95 102 90 79 81 85 81 77 81 87 83 
70 62 73 74 76 79 81 78 74 77 86 90 85 82 83 89 93 80 57 45 51 59 59 52 47 50 
58 64 65 67 68 67 69 74 78 78 70 62 58 63 75 81 81 86 92 89 84 87 81 55 37 44 
64 82 107 139 166 185 194 189 172 149 128 125 144 168 184 192 197 193 173 140 
105 79 58 35 12 0 3 19 40 56 58 57 59 61 58 52 52 55 56 58 66 76 79 72 68 74 
77 70 71 86 94 87 80 83 85 81 80 88 95 89 75 69 75 71 72 76 78 77 74 76 82 78 
71 73 84 94 97 89 71 58 58 62 62 57 53 55 63 71 74 72 68 66 68 71 73 79 81 73 
59 55 62 69 71 77 85 85 80 81 79 64 54 60 76 99 133 168 191 203 208 206 193 
171 149 146 169 200 217 218 209 195 172 142 113 90 66 38 13 5 14 33 55 73 77 
73 69 64 52 43 44 52 62 73 85 89 83 71 65 69 72 66 62 70 77 76 74 76 74 70 72 
81 87 83 75 72 78 72 72 73 76 79 78 75 70 60 54 63 75 79 80 78 70 63 61 62 62 
62 62 62 66 74 78 74 63 56 56 59 62 69 75 72 62 61 69 76 78 81 85 85 87 93 94 
85 79 83 93 115 150 187 211 224 230 230 222 204 183 176 192 218 233 234 223 
205 183 156 125 97 70 41 17 17 35 56 73 85 84 74 66 61 55 48 47 51 59 72 85 88 
79 68 63 66 68 65 61 62 64 65 69 70 65 59 59 62 62 63 68 72 81 72 66 66 75 86 
88 79 67 56 54 63 69 65 61 62 60 58 61 65 66 70 73 72 69 71 76 73 59 48 46 52 
58 64 68 65 62 70 84 91 92 92 91 89 95 108 112 105 102 107 117 137 173 210 236 
249 255 255 253 240 221 207 208 220 233 242 240 225 199 166 125 88 60 37 20 24 
46 65 76 82 79 65 50 47 52 55 53 51 53 61 71 71 68 66 65 65 65 66 67 63 55 56 
66 70 64 61 61 54 45 49 64 74 83 68 59 58 74 91 95 85 73 67 68 72 70 64 63 66 
65 66 71 75 75 78 84 81 70 63 63 61 51 43 43 52 63 69 69 64 64 76 87 90 91 95 
94 88 95 109 113 109 112 122 136 160 202 245 255 255 255 255 255 255 246 230 
222 223 234 250 255 240 209 166 117 75 49 34 24 30 47 59 62 66 70 60 41 32 41 
54 57 55 56 60 61 60 60 64 64 60 58 63 67 58 45 48 64 70 66 69 73 61 49 53 67 
77 82 72 57 53 68 83 86 80 75 77 79 78 71 67 74 83 85 83 83 80 76 78 85 81 66 
53 48 47 45 43 45 53 65 75 76 72 74 83 89 84 82 90 95 91 93 102 106 108 118 
130 142 170 222 255 255 255 255 255 255 255 251 240 234 232 239 253 255 241 
209 163 112 69 45 37 33 39 50 53 48 50 60 59 44 33 40 55 62 63 66 67 63 58 58 
60 58 55 54 58 60 54 46 51 65 70 66 69 74 68 60 62 69 75 85 82 63 53 60 68 67 
65 68 75 80 79 72 69 78 91 94 91 86 76 67 68 74 71 58 46 41 41 43 44 44 49 64 
82 90 90 92 101 106 95 85 89 100 103 103 109 113 118 130 141 147 170 222 255 
255 255 255 255 255 250 237 236 236 235 238 244 241 227 202 162 111 67 42 36 
37 45 52 51 43 41 50 56 51 47 54 66 72 72 71 70 65 64 64 62 58 56 58 58 57 55 
57 63 71 71 63 61 66 67 66 69 72 76 90 82 67 58 57 55 54 56 59 66 75 80 77 74 
77 81 83 83 82 72 59 56 61 60 49 40 37 38 40 38 34 40 63 90 106 108 109 121 
131 123 104 97 105 114 120 125 129 133 144 158 165 178 212 250 255 249 232 230 
229 217 210 217 222 220 217 214 210 204 188 154 104 59 32 28 34 46 53 49 39 36 
43 51 56 60 68 75 77 74 70 68 69 75 79 74 64 62 66 65 60 61 67 73 76 72 66 63 
64 65 69 75 78 84 79 76 71 65 58 54 57 57 53 56 69 79 79 75 72 68 67 73 80 75 
60 52 55 54 46 38 37 37 35 30 26 36 65 96 113 115 117 133 151 148 127 109 107 
116 127 135 141 147 160 179 194 204 218 233 238 229 212 200 187 174 173 187 
196 192 182 174 172 171 157 127 85 45 23 19 31 46 53 48 38 34 41 52 60 66 67 
69 71 70 66 65 73 84 90 82 68 64 70 70 65 65 72 77 78 76 74 72 69 66 69 76 82 
87 72 76 80 77 66 62 67 65 54 51 60 68 69 69 68 64 64 72 82 80 67 57 57 55 48 
45 47 46 41 35 35 48 73 98 112 117 125 143 161 163 145 123 112 114 125 138 149 
160 175 196 217 229 235 237 233 221 203 180 154 134 136 157 169 162 145 133 
132 130 113 86 59 37 22 15 25 45 59 57 46 42 46 54 61 62 59 58 64 66 64 64 70 
77 82 76 64 60 67 71 70 71 75 77 79 80 79 78 71 64 65 75 81 82 73 80 90 90 79 
74 79 77 64 54 55 58 58 62 68 71 72 73 75 75 69 64 63 61 55 54 57 55 48 44 54 
69 82 95 110 127 141 152 161 162 150 129 113 113 124 137 150 164 181 200 220 
238 248 250 241 222 199 169 134 106 106 128 141 132 112 100 99 93 75 54 41 35 
26 15 19 40 62 67 59 53 52 52 54 57 59 61 64 66 66 65 60 58 62 66 61 58 66 75 
78 76 76 79 82 82 79 77 71 65 70 80 82 78 71 79 90 93 83 77 83 85 76 66 63 61 
57 61 72 82 83 74 66 65 66 67 69 71 68 62 58 51 43 45 62 77 82 89 109 133 147 
148 145 144 139 125 110 109 119 128 137 156 182 203 222 241 255 255 250 226 
197 162 119 86 84 102 111 101 86 79 78 69 51 36 33 35 29 17 17 34 55 64 62 58 
55 51 52 61 70 72 68 67 68 67 58 47 47 54 57 59 66 75 77 73 73 80 87 85 78 76 
78 80 87 88 82 74 71 74 82 86 77 70 75 80 76 73 74 72 67 66 77 92 93 79 65 62 
66 67 72 82 85 76 60 48 42 50 68 81 84 92 112 130 134 129 126 127 129 123 112 
106 111 115 123 147 184 219 242 255 255 255 254 232 199 155 106 75 75 85 83 71 
66 69 66 53 38 31 35 39 34 25 23 33 44 48 52 55 58 57 60 69 77 76 68 64 69 71 
63 51 46 50 53 56 61 67 67 64 67 79 89 86 78 77 85 94 97 88 75 72 76 73 78 83 
75 66 68 70 65 67 77 82 76 71 80 96 99 83 68 69 72 69 71 87 99 92 75 62 60 70 
86 95 99 109 123 128 121 116 119 127 133 131 121 112 112 118 127 149 186 229 
255 255 255 254 250 237 205 159 112 86 82 79 66 55 57 60 54 44 37 37 40 43 42 
38 41 46 42 35 37 46 56 61 67 73 76 70 62 62 70 76 71 63 58 58 58 57 58 62 63 
62 64 73 81 78 72 73 83 95 98 89 75 73 81 77 80 86 80 69 65 64 60 63 78 86 80 
73 80 92 91 76 67 74 78 70 68 84 102 104 93 85 85 94 104 108 110 120 131 130 
119 116 122 131 136 134 125 116 117 125 134 147 175 217 252 255 255 248 246 
241 218 179 140 117 103 84 61 49 51 50 45 42 41 39 40 47 52 53 60 66 58 45 39 
43 49 56 66 72 70 61 54 58 71 77 75 71 72 75 72 65 62 67 74 72 67 66 67 62 60 
66 77 89 97 95 86 79 84 82 81 83 78 67 60 61 64 69 79 81 74 70 74 79 76 67 62 
67 71 66 66 79 97 108 108 103 102 107 112 107 102 109 120 124 121 119 121 123 
123 120 114 108 109 116 121 129 151 190 226 245 252 253 253 247 231 202 172 
149 127 96 66 52 50 46 43 44 43 38 38 47 57 61 70 84 87 74 57 46 40 45 58 68 
66 56 47 51 63 70 70 72 80 86 84 72 66 75 85 84 74 65 58 51 52 62 72 84 95 97 
92 85 88 88 82 78 73 62 54 58 68 76 80 76 67 64 68 72 70 65 61 58 59 63 68 79 
95 111 115 110 106 110 112 103 90 87 97 112 122 121 114 105 101 102 100 95 92 
92 94 104 133 170 205 232 254 255 255 251 235 211 184 161 138 108 77 61 56 51 
48 50 51 46 44 50 57 62 73 93 105 96 75 54 41 42 54 62 60 50 42 47 58 65 67 72 
82 89 85 73 69 77 83 81 75 70 62 55 56 64 71 81 91 92 86 83 92 92 83 77 73 63 
55 60 72 80 80 75 66 63 69 75 76 74 69 61 56 61 71 83 98 110 112 104 101 105 
107 98 83 74 81 102 119 119 108 97 95 100 100 88 75 70 76 95 127 162 193 226 
255 255 255 246 229 205 175 151 132 110 87 74 66 58 53 55 60 62 59 55 55 60 74 
93 103 97 81 65 55 54 58 58 52 45 44 54 67 73 72 75 83 87 81 73 75 77 71 63 67 
75 72 66 67 72 76 82 87 84 83 78 91 87 77 75 75 67 60 66 78 82 81 77 71 68 73 
81 85 84 80 71 62 62 71 83 97 105 102 94 92 96 95 85 72 66 76 95 110 111 105 
101 103 107 99 79 63 64 78 95 119 152 184 218 249 255 250 233 221 198 162 131 
115 106 95 84 71 58 51 52 61 71 68 54 49 58 75 90 92 83 75 71 68 65 64 59 50 
43 46 60 77 82 77 75 79 80 75 75 83 83 67 53 58 73 78 76 78 82 82 83 84 79 72 
79 82 74 65 68 75 69 62 68 80 81 77 76 75 72 75 83 88 88 84 75 66 63 68 79 91 
97 96 92 91 90 82 68 59 61 74 88 94 93 91 94 102 104 90 69 58 67 82 92 108 138 
172 204 228 236 231 223 214 191 153 122 108 105 100 87 69 53 44 44 56 70 67 49 
44 60 78 85 77 66 67 73 72 67 64 60 51 42 42 56 76 85 77 70 71 71 69 74 85 88 
74 59 60 72 80 84 89 91 85 80 79 76 69 81 73 63 59 67 76 70 60 65 76 76 72 72 
73 73 77 86 92 88 78 69 65 65 70 75 79 84 91 96 96 89 76 62 57 64 76 84 80 72 
66 70 81 86 78 66 64 74 81 86 104 134 165 189 203 210 214 214 203 174 139 116 
107 102 95 82 65 52 46 48 58 68 65 55 56 70 79 75 65 60 67 77 75 67 65 65 60 
49 42 55 79 90 80 70 68 68 66 68 78 85 80 71 70 75 81 89 96 93 81 72 73 75 70 
75 69 65 66 74 78 70 61 64 72 74 70 68 68 70 77 89 95 86 70 61 63 69 73 69 64 
67 81 94 95 86 76 67 64 70 78 81 77 66 56 55 65 72 71 71 78 82 80 83 104 133 
157 171 178 185 195 197 181 148 115 100 97 92 86 77 67 60 60 65 72 73 67 64 72 
79 75 64 57 61 72 83 85 80 79 80 76 64 56 68 94 105 90 74 72 74 70 66 67 74 78 
76 76 77 80 88 94 84 66 61 70 77 70 67 69 72 77 82 81 75 70 72 74 72 67 66 66 
66 75 89 94 85 71 63 64 67 65 60 57 62 76 90 90 79 73 72 68 65 67 74 79 76 68 
67 73 71 66 75 89 89 82 84 100 119 136 146 151 157 167 169 153 121 93 83 81 79 
80 80 77 73 75 83 84 76 63 63 75 80 70 58 56 64 75 86 91 92 93 94 88 75 68 82 
107 114 95 77 76 79 76 70 67 68 70 72 74 74 77 84 85 68 48 51 72 74 73 65 66 
72 81 85 83 81 82 83 78 69 63 65 66 67 75 87 90 83 74 71 67 59 51 53 63 74 83 
89 84 72 65 67 63 55 53 62 72 76 77 82 85 73 61 69 86 90 87 90 94 100 113 126 
131 133 137 137 124 101 83 73 66 63 71 81 83 78 77 81 82 71 56 55 68 75 68 59 
61 71 78 83 86 89 92 93 88 77 71 82 101 104 88 74 74 77 76 75 76 73 67 64 67 
69 72 79 82 68 51 59 80 77 77 69 62 65 77 82 79 79 84 87 81 68 61 64 68 71 77 
85 82 73 69 72 67 53 42 50 71 86 91 90 83 69 61 63 63 55 50 54 60 64 70 81 83 
69 55 61 78 87 91 97 97 98 110 121 123 122 121 116 104 90 79 69 54 45 55 73 81 
76 67 66 70 68 58 52 59 69 68 63 68 79 83 80 78 81 83 83 81 77 74 79 86 85 74 
67 68 69 69 73 79 76 66 60 61 63 63 71 82 83 76 79 85 76 75 73 64 61 70 77 74 
73 76 80 79 69 60 64 71 74 79 84 78 64 61 67 66 53 43 52 73 86 89 88 84 76 69 
70 70 63 55 52 52 56 66 76 77 65 54 60 74 82 87 98 107 111 119 124 122 120 120 
111 94 77 67 61 49 36 40 58 76 79 65 55 64 79 76 57 49 58 66 63 66 79 83 76 72 
77 80 77 76 79 82 82 76 69 62 62 64 63 61 64 69 68 62 59 61 63 60 62 74 88 92 
88 80 75 69 72 67 66 74 80 79 75 71 71 73 68 61 63 72 77 82 87 84 72 66 67 66 
54 47 55 70 78 80 85 89 86 80 76 72 63 56 51 52 60 72 78 75 63 55 60 72 77 80 
91 105 114 119 119 117 118 119 110 90 67 55 54 52 43 40 52 72 82 70 58 70 93 
91 62 41 50 65 63 58 66 73 68 65 74 78 71 68 77 86 82 71 61 59 63 66 63 58 56 
54 54 56 62 70 75 70 63 65 75 84 82 73 76 66 69 63 70 81 86 84 76 65 59 63 64 
63 66 72 77 81 86 90 88 82 74 64 55 54 60 67 72 78 84 90 90 84 75 64 55 52 51 
54 68 81 84 77 65 55 57 66 70 71 78 91 98 102 102 103 106 107 98 79 60 50 52 
56 54 49 54 68 76 72 65 76 95 92 66 45 53 71 70 59 57 63 62 60 67 71 66 62 67 
73 72 66 64 67 71 69 65 62 57 48 47 57 68 80 87 84 74 65 64 72 78 75 78 68 66 
60 70 80 82 77 67 54 47 52 64 73 74 72 68 67 71 80 87 87 79 68 61 62 66 68 72 
79 83 83 84 81 72 60 54 53 52 56 72 85 86 81 73 60 56 62 65 63 68 76 79 78 78 
82 89 91 81 65 53 50 53 57 58 57 58 62 66 68 70 81 92 89 71 57 63 78 79 68 59 
61 63 64 66 66 63 59 57 55 53 57 67 75 76 69 67 71 70 60 55 62 71 79 86 88 82 
71 65 70 82 75 77 74 69 68 73 75 72 65 58 49 45 54 72 84 81 70 58 51 51 60 70 
77 79 75 72 73 74 71 72 78 79 77 77 77 72 65 61 59 55 57 68 79 81 80 76 66 60 
63 63 60 64 69 66 61 61 67 77 83 74 59 51 52 54 54 55 57 59 57 59 68 78 87 88 
83 73 66 70 79 82 76 65 61 64 71 72 68 62 59 54 46 42 50 66 80 80 71 68 75 79 
74 68 69 72 75 80 82 79 74 70 71 79 63 71 75 74 82 77 70 62 59 59 57 56 64 79 
86 80 67 55 47 44 49 56 63 70 74 77 80 80 75 72 75 76 75 73 71 67 64 62 60 57 
60 67 72 71 72 69 61 59 65 65 60 61 62 56 54 61 66 69 73 70 61 56 57 55 50 47 
51 55 54 57 74 90 92 79 68 65 68 72 75 79 79 69 58 61 74 81 75 64 59 56 49 44 
50 67 82 83 73 65 67 71 73 74 74 73 76 79 77 73 72 72 69 69 51 62 70 71 87 75 
66 64 65 65 66 65 67 75 76 70 67 66 60 54 52 52 51 55 61 69 79 84 79 74 76 79 
76 69 62 56 54 55 58 63 71 77 74 68 64 58 49 51 61 63 59 57 54 47 53 67 69 56 
50 53 58 63 67 64 54 45 46 51 57 62 77 93 92 70 49 50 65 72 71 76 83 76 60 58 
78 94 87 69 59 57 56 52 54 67 78 79 70 60 57 60 68 76 76 74 75 78 76 72 73 74 
69 62 49 61 64 60 86 77 74 79 77 67 60 60 65 72 71 67 73 82 80 69 60 54 49 49 
54 62 75 84 82 79 83 86 77 65 55 50 50 54 59 68 82 88 80 70 63 53 41 43 54 58 
56 55 52 49 58 72 68 47 31 33 48 66 78 77 64 50 48 56 64 64 67 79 84 69 48 44 
57 64 64 70 82 83 70 63 80 101 98 74 55 53 57 55 55 64 72 72 67 63 63 66 73 80 
78 73 74 78 78 75 76 77 71 62 61 72 67 57 91 87 89 94 87 69 56 56 67 78 79 75 
81 91 88 74 62 58 59 61 63 67 73 76 75 78 88 90 77 63 58 58 61 65 66 69 83 90 
82 72 65 53 40 40 49 54 55 57 58 59 67 77 73 54 36 33 46 65 80 80 66 53 51 60 
67 59 49 54 68 69 57 48 50 52 54 63 78 86 80 72 81 97 95 71 54 54 58 56 58 69 
77 73 68 70 74 76 78 80 79 75 78 86 87 81 76 75 73 69 76 82 75 68 95 91 91 93 
88 74 62 60 70 79 83 80 79 81 77 69 62 62 70 78 79 77 75 68 61 66 80 83 74 65 
65 68 72 76 75 74 82 91 85 76 68 57 44 41 47 53 58 62 66 69 75 83 84 71 53 45 
53 67 76 74 62 51 50 58 62 51 37 39 53 63 61 54 51 50 54 64 78 86 82 75 78 87 
85 70 61 65 69 65 67 81 88 78 64 61 67 71 73 76 78 80 84 91 93 86 74 69 73 75 
79 82 79 76 90 82 80 83 84 78 69 64 63 67 73 74 70 64 64 66 64 65 73 82 83 81 
77 67 56 58 67 70 67 65 65 65 69 77 81 80 87 95 93 83 70 62 57 52 48 52 65 75 
76 76 77 81 84 75 56 48 60 73 76 72 63 54 51 53 55 49 42 46 56 61 62 61 60 61 
66 74 82 84 79 73 76 81 80 72 68 73 76 73 75 86 92 79 58 49 56 65 71 75 77 77 
78 83 89 85 73 66 72 69 72 76 76 74 83 75 74 80 82 75 66 58 54 54 61 68 65 58 
61 69 68 66 69 74 73 73 75 72 66 66 68 67 66 65 58 51 56 71 82 84 89 97 98 86 
70 67 72 66 52 52 71 88 91 83 73 69 70 60 42 43 64 81 81 75 70 64 57 52 51 52 
56 66 72 70 67 68 69 70 75 80 81 78 74 72 75 79 80 75 67 64 66 70 74 84 90 80 
63 58 65 73 78 78 75 69 66 70 78 81 74 66 68 61 66 70 73 72 79 75 78 84 79 66 
56 55 58 59 63 69 68 61 64 72 66 58 61 66 63 64 69 73 76 79 79 76 74 71 56 43 
48 67 81 83 85 93 95 84 70 71 79 73 58 56 74 92 96 86 71 63 61 51 38 44 68 84 
85 82 80 74 66 59 57 62 71 81 84 77 71 69 69 70 74 76 74 70 70 73 74 74 77 74 
60 48 52 64 71 77 84 83 77 77 83 86 84 83 78 69 61 60 67 74 75 71 67 64 68 70 
75 79 76 75 80 84 75 60 55 64 78 81 78 75 70 65 66 67 55 45 53 65 66 65 68 70 
73 80 82 80 81 77 61 47 52 70 80 80 79 84 87 80 72 74 80 74 64 65 75 83 84 77 
69 67 67 60 51 56 74 86 89 88 86 80 72 68 71 78 86 87 82 74 70 67 65 67 71 69 
61 60 69 77 73 66 70 74 62 47 52 67 73 71 78 84 82 84 87 85 83 86 87 77 61 53 
56 66 74 75 72 76 75 73 79 88 72 74 81 83 75 65 66 78 90 94 89 82 72 68 69 66 
50 40 51 68 75 75 73 68 65 70 77 78 77 75 68 61 65 76 80 75 70 70 73 74 76 81 
84 77 72 75 76 70 65 64 65 70 73 69 63 68 80 87 89 87 81 75 73 77 83 89 91 84 
74 69 68 67 66 69 73 65 53 55 72 83 75 63 66 75 75 68 70 75 75 71 79 86 82 76 
75 73 72 82 90 81 59 45 49 61 69 72 90 84 77 76 80 88 66 70 78 83 79 73 73 77 
81 82 84 81 73 71 74 70 57 51 61 75 81 81 77 68 64 69 76 74 70 72 76 77 78 79 
77 72 67 63 64 70 78 87 89 82 80 83 79 65 55 58 63 67 69 67 66 75 84 88 86 79 
69 63 70 81 87 86 81 72 67 68 72 72 71 74 76 67 56 59 76 85 77 66 68 79 85 86 
83 78 75 79 89 92 81 67 62 60 61 70 79 73 56 48 57 65 64 61 97 81 74 75 78 81 
64 63 71 80 80 75 70 65 60 62 71 77 78 79 81 77 69 69 78 83 81 78 75 69 67 73 
78 71 65 71 81 85 83 77 74 73 74 72 72 75 79 84 84 82 82 86 85 71 60 60 63 65 
65 64 67 77 86 86 82 75 61 55 64 78 81 75 66 61 65 73 78 78 75 75 76 72 67 69 
78 80 74 70 72 76 80 81 76 70 71 82 91 88 75 62 57 59 61 65 69 68 63 64 72 74 
64 57 92 74 67 71 73 70 76 64 69 81 81 72 68 62 55 57 68 80 87 90 89 82 77 81 
87 85 77 73 72 70 69 74 76 70 64 69 79 83 79 72 68 73 78 81 81 80 77 74 73 73 
77 84 89 80 66 61 62 63 66 68 70 75 80 81 80 78 68 58 58 66 73 70 62 61 71 80 
82 79 74 71 71 73 73 74 74 71 69 72 73 67 63 65 65 61 64 73 78 75 67 61 63 70 
73 72 70 72 73 76 81 79 71 66 79 67 63 65 67 61 93 77 80 89 85 74 74 75 71 68 
75 87 94 95 88 81 80 85 86 80 69 67 71 73 72 75 77 73 67 68 76 79 74 63 58 61 
66 69 73 76 76 71 67 66 69 78 85 78 63 55 55 58 65 71 70 67 67 70 75 78 76 69 
60 59 67 72 69 70 80 86 82 77 75 69 63 66 71 70 67 66 69 77 77 62 54 63 69 64 
61 65 68 69 69 67 69 77 80 75 70 69 71 75 79 79 77 75 71 68 63 64 68 64 99 87 
87 92 88 82 84 87 83 79 80 85 90 87 80 81 86 87 84 76 66 62 70 79 79 78 80 80 
74 74 82 83 71 57 50 49 49 49 57 70 76 72 68 65 66 71 76 72 61 53 52 54 63 72 
73 66 61 64 68 73 76 75 68 64 68 72 72 76 87 90 82 78 79 72 63 63 68 68 67 69 
75 84 83 68 61 74 82 71 60 62 71 78 79 73 67 70 73 66 58 58 62 67 72 75 75 70 
78 72 64 65 73 70 93 83 82 86 85 85 86 87 84 80 75 76 80 79 82 91 95 89 84 80 
73 64 69 82 85 80 79 81 78 81 89 88 71 55 51 49 46 44 55 70 73 66 63 67 69 69 
72 72 68 65 63 61 66 75 78 74 71 72 73 72 72 73 71 71 72 70 67 73 87 90 84 83 
86 81 70 65 68 71 74 75 75 78 78 72 75 86 84 66 55 66 80 85 82 75 67 66 66 59 
53 56 62 67 70 73 71 98 91 75 62 64 71 68 83 76 77 81 80 77 77 79 81 78 70 68 
75 82 92 103 100 88 86 89 84 72 72 82 85 80 79 78 75 77 84 82 70 64 63 59 54 
56 65 70 64 52 55 70 77 74 73 77 80 82 79 72 67 71 77 79 81 84 82 74 67 66 68 
73 76 73 68 72 83 87 83 83 88 85 74 65 64 72 78 75 65 61 65 73 83 88 78 61 58 
71 82 81 77 76 75 75 74 70 68 71 73 72 72 77 78 99 90 74 63 64 66 64 75 69 71 
77 80 74 66 70 79 79 74 74 82 90 99 104 96 85 86 93 88 76 74 80 82 79 79 78 72 
70 74 75 76 78 75 66 62 67 72 67 56 47 54 73 83 80 78 81 86 87 84 75 63 58 63 
74 81 85 81 70 60 60 66 74 81 82 78 80 84 84 80 81 85 83 73 60 58 67 76 71 56 
51 61 74 84 85 78 70 69 73 73 69 69 75 79 83 89 93 90 86 80 76 76 83 89 73 70 
67 67 69 70 69 79 80 78 83 88 89 82 76 74 74 75 82 91 94 95 95 89 80 81 85 80 
75 78 82 80 77 78 77 73 72 77 82 89 91 82 70 68 73 74 67 58 52 58 71 80 80 78 
80 82 83 81 74 61 54 58 67 72 75 73 64 57 62 71 76 81 87 93 95 94 91 86 84 84 
81 74 64 58 63 72 70 60 59 70 80 82 80 81 82 79 71 63 59 62 69 76 87 100 109 
102 88 77 75 78 85 90 48 50 56 67 75 76 75 77 78 75 84 87 84 77 69 67 71 79 83 
78 80 86 89 85 78 74 70 69 74 85 88 83 76 74 73 73 78 86 94 99 98 87 76 75 80 
78 69 59 53 55 65 74 74 70 71 75 80 83 80 70 64 64 63 62 66 69 64 58 64 73 76 
75 81 95 104 103 99 97 93 86 80 77 74 66 61 66 73 73 73 82 87 82 76 80 86 82 
70 61 59 62 69 79 92 104 107 95 78 70 72 77 80 80 46 41 45 59 72 76 74 81 82 
64 74 78 77 74 68 63 63 71 80 80 73 68 63 58 59 76 76 71 69 79 91 87 79 75 72 
71 77 85 92 97 97 89 81 82 86 80 66 53 46 50 63 73 72 65 65 71 80 88 89 83 77 
71 61 54 58 66 64 59 62 71 76 74 77 88 97 97 95 97 96 88 79 78 77 68 59 63 76 
85 83 84 87 84 76 75 82 81 72 65 65 66 71 83 94 96 90 79 68 64 68 71 69 65 56 
42 41 51 64 70 73 90 92 67 74 75 77 81 82 74 65 69 82 83 74 73 77 76 74 78 85 
90 87 80 61 67 69 68 68 71 76 80 79 84 92 89 80 81 84 78 62 48 45 54 69 77 75 
71 71 73 78 85 90 89 84 77 64 52 51 58 62 61 63 72 80 83 82 83 82 79 78 83 88 
85 79 75 72 65 59 65 82 91 84 76 78 81 77 73 74 75 71 67 65 64 68 81 92 88 76 
70 66 63 65 67 60 71 58 47 47 52 59 64 73 87 90 76 78 76 78 89 101 96 80 80 91 
90 81 82 88 87 82 78 78 79 78 80 92 101 94 85 90 92 68 70 73 79 81 81 77 78 83 
79 63 51 51 61 72 75 75 76 76 71 65 69 80 84 83 80 74 62 52 56 64 70 72 74 83 
89 86 78 70 65 66 71 79 81 78 72 69 68 68 75 88 92 79 68 71 78 79 74 71 71 70 
67 64 63 68 82 94 92 83 75 69 63 66 70 61 58 54 53 55 58 59 60 69 71 72 72 72 
73 77 89 105 105 90 85 91 90 86 86 87 85 82 74 68 71 77 87 101 106 93 83 89 93 
83 74 78 83 80 76 52 58 65 68 65 58 57 61 65 66 67 71 72 64 55 58 68 71 71 74 
79 76 65 60 69 78 76 70 76 87 86 74 64 64 67 72 77 79 76 70 69 73 78 84 91 89 
77 70 76 84 84 79 75 74 74 72 69 69 74 85 97 102 96 83 68 62 68 72 65 56 53 53 
57 62 65 63 63 62 62 61 64 75 82 89 101 101 87 80 82 83 81 78 76 78 81 75 69 
74 85 93 99 100 89 80 81 82 75 74 82 88 84 76 72 71 71 76 83 90 93 84 74 70 68 
65 66 66 68 71 67 62 57 60 71 78 74 70 73 76 71 66 73 88 92 80 67 67 75 78 78 
75 71 66 65 72 79 84 88 85 79 80 88 91 88 85 81 78 75 73 72 70 69 73 83 92 92 
80 66 62 67 68 65 65 57 52 55 67 79 79 69 70 68 66 71 86 95 96 99 95 82 74 76 
79 76 69 66 72 81 80 77 82 91 92 89 90 87 79 74 68 66 72 84 91 86 79 75 71 70 
75 78 75 77 85 86 77 74 73 70 76 81 80 71 59 48 50 58 65 73 79 83 79 71 71 80 
94 98 88 75 70 73 76 73 68 65 62 59 62 69 77 82 81 79 83 88 82 78 82 82 73 65 
64 67 65 60 56 58 65 69 68 66 67 67 65 67 73 66 58 57 70 90 97 85 92 93 86 93 
92 91 90 84 77 73 68 68 77 88 90 83 77 73 70 72 76 77 76 82 87 82 75 76 79 75 
64 58 60 64 65 64 64 65 67 68 73 79 74 61 52 52 56 59 65 82 97 95 90 84 72 63 
61 68 86 98 93 81 80 86 89 89 86 79 71 68 71 69 63 60 61 59 58 61 68 74 74 75 
82 81 67 60 72 81 71 56 59 69 74 69 58 49 46 49 58 68 74 73 71 61 71 75 70 69 
73 73 75 84 
