P2
112 112
255
70 70 77 80 78 75 71 67 68 76 75 67 67 69 73 74 71 70 70 69 70 75 77 77 76 77 
75 71 67 64 64 69 75 77 71 66 69 79 84 77 71 75 80 77 74 72 68 74 75 68 62 61 
66 71 72 72 75 75 73 73 75 76 82 85 77 64 57 62 70 68 64 65 71 72 68 68 70 71 
70 75 77 74 72 70 67 65 66 69 71 69 66 67 73 73 70 66 65 71 79 81 79 75 72 74 
78 79 77 72 69 70 72 72 70 72 76 80 78 75 71 68 71 71 74 71 69 69 72 72 68 66 
68 70 74 79 78 73 74 77 77 72 67 66 66 67 73 75 70 67 69 75 73 69 74 71 69 69 
66 67 73 77 76 70 63 61 66 70 71 73 76 77 77 80 81 81 79 77 67 56 55 65 73 70 
65 66 71 72 71 72 75 75 73 74 74 72 72 71 68 67 67 70 72 69 66 68 73 74 70 67 
67 69 75 78 77 74 71 70 73 76 76 71 69 71 75 75 69 68 76 75 73 70 68 72 74 69 
73 80 76 71 73 74 69 65 65 67 73 80 80 74 72 72 71 66 65 68 69 66 66 69 66 70 
69 73 70 62 59 63 67 67 63 62 68 73 75 73 67 64 65 68 68 69 72 73 75 79 78 73 
70 67 61 58 64 71 73 67 62 63 67 67 67 69 74 76 76 76 74 72 72 73 70 70 74 73 
76 73 69 68 73 75 72 71 73 76 74 72 74 74 71 69 72 74 77 80 81 73 61 59 67 62 
74 74 74 70 65 68 74 63 73 79 74 70 74 75 70 63 59 59 65 74 77 72 67 64 63 60 
62 79 75 69 73 79 76 71 72 73 69 64 62 65 66 63 58 57 60 66 71 74 72 69 68 70 
70 68 66 65 68 70 68 64 64 64 65 67 71 73 69 62 61 64 66 63 61 62 66 70 74 76 
73 69 68 68 70 73 73 76 76 76 72 72 75 75 72 72 75 74 69 68 72 76 75 69 72 78 
83 86 82 70 57 53 68 63 71 74 77 73 66 66 73 64 71 70 66 67 74 77 71 62 57 55 
60 67 71 72 74 71 67 71 80 81 73 72 80 77 68 66 68 70 68 66 66 67 66 62 58 57 
59 63 69 76 78 75 73 73 73 70 66 62 61 62 62 63 65 69 71 73 72 70 63 60 62 67 
68 66 61 58 58 63 70 73 68 62 59 62 68 76 81 79 77 75 74 75 75 72 70 73 76 74 
69 68 74 80 81 75 74 77 82 85 81 71 62 59 68 70 73 78 80 75 69 69 66 68 71 66 
63 66 76 80 75 68 72 70 67 66 70 76 76 70 67 70 75 72 68 71 74 71 68 66 66 65 
65 65 67 68 69 68 66 65 64 66 71 78 79 76 72 71 70 68 65 61 58 60 62 65 65 67 
70 72 72 67 62 60 63 67 69 69 66 60 58 62 70 72 64 56 56 60 66 74 79 78 72 71 
74 76 75 72 73 78 82 81 75 72 75 82 84 81 66 75 79 81 80 75 71 70 65 74 78 81 
80 77 74 74 71 72 71 66 71 74 77 78 78 75 71 67 65 65 67 73 74 69 64 69 72 67 
65 68 69 68 68 67 64 63 63 64 65 68 70 74 74 71 68 70 74 79 78 73 68 67 67 64 
62 60 58 59 62 63 60 60 65 71 73 70 64 61 62 64 66 70 71 66 63 66 72 72 64 59 
60 64 67 70 71 72 71 66 72 79 78 76 78 82 85 84 79 75 75 78 80 79 72 76 78 80 
78 73 72 76 66 74 78 78 77 77 70 71 72 70 68 70 75 78 75 74 77 77 72 67 67 68 
67 66 66 66 71 70 68 64 66 67 68 68 68 67 65 64 66 66 64 63 67 72 73 70 67 71 
77 78 74 69 67 67 65 63 61 58 57 58 59 58 55 54 62 70 73 69 63 61 63 63 64 69 
73 71 67 66 70 70 65 62 64 69 71 70 68 70 72 69 72 78 80 78 79 83 83 79 75 74 
77 79 78 75 71 69 65 77 75 68 66 72 73 70 72 70 69 72 74 71 68 68 69 73 78 79 
76 73 73 72 67 63 66 71 70 64 62 70 70 72 66 68 69 70 68 66 66 67 67 67 69 68 
63 59 61 68 71 66 64 71 77 76 69 65 66 66 65 62 59 56 57 58 58 57 54 56 62 69 
70 65 60 62 63 61 60 66 72 71 67 66 67 67 65 63 65 69 73 75 72 71 71 70 71 74 
74 73 76 79 77 73 73 77 84 86 81 74 70 65 72 80 82 77 72 72 74 74 70 67 68 71 
72 70 67 66 67 71 77 79 77 71 67 64 61 60 64 70 74 71 66 67 72 71 69 71 71 69 
65 62 63 68 69 69 68 67 65 61 63 69 70 64 63 70 76 72 65 62 62 63 62 60 56 55 
58 60 59 57 57 60 64 67 67 65 62 62 61 57 57 65 72 71 67 67 68 68 65 63 63 67 
73 76 75 72 69 67 68 69 69 66 70 73 73 73 76 82 88 88 82 74 71 68 70 76 81 80 
74 71 71 72 73 76 73 72 74 72 67 62 60 62 68 74 73 66 61 60 61 60 61 66 73 69 
67 69 71 69 69 70 71 67 62 60 64 69 69 65 63 64 67 68 69 71 69 64 63 68 70 68 
66 64 62 62 61 58 54 55 60 62 59 55 57 62 65 66 65 66 66 66 62 57 59 67 72 71 
69 70 70 68 66 65 65 67 70 73 74 73 70 67 67 69 64 63 65 69 73 77 80 81 84 83 
76 70 71 76 76 74 75 76 73 70 72 68 77 80 73 71 75 75 68 60 55 56 62 68 69 65 
61 63 65 65 62 65 69 73 71 69 68 67 66 67 69 67 63 63 65 68 65 60 57 61 68 70 
69 68 66 63 62 63 62 62 66 70 69 66 64 59 55 56 62 64 58 53 55 61 66 66 63 62 
67 70 68 65 66 68 70 69 71 71 68 66 67 69 68 67 67 68 71 74 74 73 70 69 73 68 
65 69 76 79 77 74 76 77 72 66 67 75 71 68 71 74 73 70 72 64 74 74 68 68 75 77 
71 64 61 62 65 70 73 71 68 69 71 67 64 65 67 70 69 67 66 65 63 64 67 67 66 67 
67 64 58 53 54 59 63 64 63 62 64 65 63 58 53 54 62 70 72 70 67 63 58 58 64 66 
61 55 55 60 65 65 60 59 64 72 74 72 69 66 63 66 69 69 65 64 68 70 67 64 64 67 
71 74 78 79 76 70 69 73 68 69 76 76 70 65 69 76 75 68 65 74 69 67 71 76 76 72 
73 65 71 68 64 67 76 81 77 71 70 72 74 76 79 79 76 73 72 63 64 64 69 75 73 69 
66 64 62 62 64 65 68 71 70 62 53 49 54 59 59 57 58 63 66 67 62 53 46 48 56 63 
67 67 69 68 64 63 67 69 67 62 60 61 64 66 63 61 65 70 73 71 66 59 56 60 64 65 
63 65 68 67 60 58 62 69 71 73 74 77 76 70 66 69 69 70 68 72 65 61 67 76 77 71 
68 75 75 71 75 81 82 77 67 68 71 67 64 66 73 79 78 75 74 76 77 78 79 80 77 71 
64 62 62 69 77 79 76 71 67 65 64 62 61 64 70 75 73 63 53 50 55 60 59 58 63 69 
71 67 59 50 45 47 53 58 59 61 67 71 70 69 70 71 70 68 65 63 65 68 67 66 66 66 
66 66 62 56 54 56 59 61 64 69 70 64 57 58 65 71 71 67 67 70 71 67 64 67 70 68 
70 69 66 62 67 73 72 68 71 76 79 74 76 82 84 80 72 72 71 66 66 66 68 73 76 74 
71 74 77 76 75 74 72 65 63 63 69 77 76 74 71 65 63 64 63 61 59 63 70 74 71 64 
57 55 59 63 63 65 70 75 73 66 58 51 49 52 55 57 56 54 60 68 70 69 66 65 65 69 
70 67 64 64 64 64 64 62 60 60 59 56 55 56 58 61 65 69 69 64 61 65 71 73 68 64 
63 66 67 65 64 65 67 67 67 72 76 69 68 69 66 64 71 77 75 74 75 78 79 78 73 71 
69 67 69 68 67 72 76 72 68 73 79 79 78 71 62 64 66 72 78 76 69 63 59 56 55 58 
59 57 57 63 69 68 65 63 60 60 65 69 69 68 69 72 72 69 63 58 56 54 55 56 53 49 
52 62 66 62 58 56 58 65 70 67 61 57 57 59 61 61 58 56 56 56 57 59 61 63 65 66 
66 66 70 76 78 74 69 65 65 66 67 66 66 67 66 64 63 76 77 73 70 68 64 63 70 78 
74 79 81 80 76 74 70 67 69 72 73 71 71 75 76 69 67 74 83 79 70 62 62 65 70 77 
80 73 63 58 55 51 50 52 54 55 60 68 70 65 61 61 62 62 66 71 69 64 61 62 69 73 
71 64 58 53 51 52 51 47 52 61 62 57 54 54 56 60 64 63 58 55 57 61 65 62 56 54 
55 57 60 62 63 64 64 64 64 67 76 83 83 77 71 68 67 68 69 68 68 68 68 65 63 66 
76 72 70 69 66 64 69 79 70 86 89 85 77 72 68 67 71 75 73 71 72 74 71 64 63 73 
81 67 65 64 64 65 69 74 75 70 65 63 60 54 49 49 52 57 66 75 75 69 66 64 61 60 
63 67 64 58 54 57 66 73 71 64 57 53 52 53 50 50 57 64 62 58 58 59 55 54 55 57 
58 59 61 65 67 64 58 58 59 62 63 64 64 64 67 66 65 69 76 82 81 75 71 67 67 69 
73 72 70 70 71 71 69 67 67 66 64 68 68 66 70 78 76 86 87 82 75 72 70 69 71 72 
69 69 69 69 65 61 61 70 72 71 75 70 65 64 65 66 67 68 71 72 67 60 54 52 54 59 
69 75 76 74 74 70 62 57 59 61 58 52 51 53 60 64 65 61 58 58 59 58 54 54 60 64 
61 61 65 62 51 43 44 51 56 58 59 62 63 62 62 65 65 64 64 64 63 64 69 70 68 68 
72 75 73 68 65 63 64 70 74 74 72 71 74 76 75 73 69 61 63 67 68 65 68 75 78 78 
80 74 70 71 76 74 67 66 68 71 72 69 66 65 66 70 73 77 77 68 63 64 64 63 62 67 
72 75 72 66 62 60 60 63 67 69 71 74 77 73 63 59 62 62 55 52 50 48 50 53 54 57 
59 61 62 61 57 56 58 58 57 60 64 57 41 33 35 44 50 51 52 55 55 55 62 67 66 62 
59 60 61 64 67 68 65 64 65 65 64 61 60 60 63 66 67 67 66 69 72 74 75 74 73 70 
66 66 65 60 63 71 74 72 76 71 65 68 77 75 65 63 70 75 77 73 69 69 72 71 72 73 
72 67 64 67 69 65 60 60 66 71 72 69 67 65 65 64 63 63 65 69 72 68 63 64 70 69 
61 55 51 46 43 45 49 54 58 60 60 60 57 55 54 52 50 52 55 49 37 32 35 45 49 48 
50 52 51 50 56 64 64 59 55 56 60 61 61 60 59 59 58 59 60 61 62 62 63 61 56 53 
57 63 67 70 73 74 75 72 68 67 61 57 60 67 71 72 79 73 65 66 77 73 68 67 71 75 
74 69 67 74 77 77 69 71 72 69 68 72 73 66 57 54 58 65 69 68 65 65 64 62 60 61 
62 63 62 60 60 67 76 75 67 61 57 51 47 48 50 54 58 62 61 59 57 55 53 50 48 49 
49 47 45 43 48 54 56 54 53 53 50 49 55 63 65 62 59 60 61 60 56 53 55 56 56 57 
62 66 66 66 65 59 50 47 53 61 65 70 75 78 77 77 74 71 64 62 62 64 66 67 78 73 
68 70 75 71 72 70 69 70 68 62 68 76 80 73 70 74 75 72 71 73 73 65 57 55 58 65 
68 67 64 65 65 61 59 62 62 59 55 54 58 67 75 74 66 62 61 58 54 52 53 56 62 66 
65 59 55 54 54 55 55 54 53 56 60 62 63 65 64 60 55 52 51 53 60 67 68 66 66 68 
66 59 51 51 55 59 57 59 64 67 67 68 69 64 54 52 58 63 66 72 80 83 80 79 79 76 
70 66 68 65 61 69 71 68 69 75 69 69 73 70 69 68 66 71 71 72 73 70 72 75 75 72 
70 71 72 68 64 63 64 67 70 70 68 70 69 65 62 63 62 56 53 55 59 65 69 67 61 59 
62 61 56 54 54 56 61 64 62 54 47 48 53 58 61 61 62 68 75 77 76 72 67 60 54 52 
54 59 65 69 69 66 68 71 69 59 50 51 57 60 59 60 63 62 61 64 69 69 62 60 62 64 
65 70 79 82 79 77 79 78 72 67 69 69 62 68 65 63 69 77 67 66 73 75 69 66 72 73 
68 67 69 69 73 76 75 71 68 70 73 73 69 66 65 67 70 71 72 72 72 70 66 64 59 55 
54 57 59 60 62 61 57 57 60 60 57 56 57 57 59 60 55 45 38 40 48 56 61 62 67 77 
88 91 89 82 71 61 55 55 58 62 67 68 67 64 64 68 68 61 52 52 54 56 57 58 59 58 
58 62 69 69 65 63 65 65 63 66 73 77 74 72 75 78 73 67 68 68 68 68 64 63 70 78 
66 65 74 76 61 62 71 70 65 69 71 72 75 78 77 71 67 71 74 70 62 59 62 64 66 67 
68 70 71 70 66 61 58 56 57 57 56 54 54 55 54 54 57 59 58 59 61 62 64 61 52 41 
34 34 41 49 55 61 71 85 99 107 107 99 85 71 61 58 59 60 62 64 63 59 58 62 66 
63 57 52 50 48 50 54 56 56 59 66 69 67 62 62 67 68 64 63 68 72 70 68 73 77 74 
68 64 70 74 70 66 64 71 80 70 71 74 64 57 60 66 65 68 74 76 76 76 79 75 68 66 
69 69 59 50 52 59 63 61 61 64 67 69 67 63 60 60 60 58 55 50 48 48 50 49 48 52 
56 58 59 63 68 68 62 50 40 34 32 34 40 49 63 80 97 112 122 125 120 105 86 70 
60 56 54 55 56 55 52 52 58 65 65 59 52 46 43 45 51 54 54 60 69 72 65 59 62 70 
71 65 61 65 70 70 71 76 79 75 68 65 67 73 73 67 66 72 82 70 74 68 63 59 62 66 
67 73 77 77 74 76 76 71 65 64 66 62 51 47 53 62 62 59 59 63 67 67 65 62 63 64 
62 57 53 50 47 46 46 44 42 46 54 59 60 61 64 64 56 44 35 31 30 31 34 45 65 88 
109 125 135 140 135 120 97 75 60 52 47 46 46 46 46 50 58 63 63 58 53 47 43 44 
50 51 50 55 66 70 64 59 61 68 70 65 62 65 71 74 78 83 82 74 67 67 68 70 73 73 
65 71 79 71 75 73 65 62 66 69 71 76 77 73 70 72 74 70 66 68 69 64 56 55 60 64 
61 58 60 64 67 66 62 60 63 65 62 57 55 55 52 48 45 44 44 47 56 63 63 62 59 55 
47 37 31 29 30 31 35 47 69 96 119 136 147 151 146 128 102 76 58 46 39 37 37 38 
42 48 56 60 58 56 55 50 44 44 51 53 48 48 59 67 65 58 56 61 66 65 65 67 71 75 
79 83 79 69 65 67 69 68 69 71 61 69 75 76 72 71 64 64 68 70 74 77 75 70 68 72 
75 74 75 77 75 70 66 66 67 64 59 57 60 63 65 63 59 57 60 62 59 58 61 65 63 56 
51 51 50 53 58 63 65 62 55 48 41 34 29 28 32 37 43 57 81 108 131 148 160 162 
154 133 105 78 58 44 34 29 28 29 35 45 53 55 53 55 57 53 45 45 55 60 54 47 53 
65 68 59 51 52 60 66 68 70 71 71 71 72 68 62 62 69 71 68 66 67 59 66 72 69 73 
68 66 65 66 70 75 78 77 73 71 72 75 78 79 81 79 75 73 75 72 65 60 59 60 62 61 
57 54 55 58 60 58 58 65 73 72 66 59 55 54 54 55 56 59 58 51 45 40 35 29 30 37 
45 55 72 97 123 144 160 168 168 160 140 110 82 61 46 34 26 23 24 30 43 53 56 
55 58 62 58 51 50 61 69 61 48 48 61 69 62 51 49 56 63 68 71 71 67 62 60 59 57 
60 68 72 69 66 67 63 64 67 73 80 80 75 68 66 69 73 76 77 77 75 73 72 73 75 78 
78 76 78 80 77 70 65 64 64 62 57 53 51 53 58 60 58 56 61 69 74 68 60 54 52 51 
47 46 50 52 50 47 44 38 34 35 44 54 68 87 111 133 151 164 168 167 160 144 118 
90 65 48 36 31 28 28 35 44 54 58 61 65 66 64 59 59 67 71 62 48 45 57 68 65 57 
53 56 61 65 69 68 63 58 58 59 58 59 64 70 69 67 70 69 63 62 72 82 84 80 72 67 
69 70 71 73 75 75 74 70 69 70 73 75 76 78 81 79 74 71 71 70 65 59 55 53 56 61 
64 61 55 55 62 67 65 56 52 53 52 44 38 41 47 51 52 50 44 42 44 52 64 79 100 
121 140 153 162 166 165 159 147 126 99 72 51 39 35 36 36 38 44 49 55 63 69 70 
67 65 65 66 64 55 44 44 54 66 68 64 62 61 61 63 66 65 60 57 61 65 62 60 63 68 
67 66 70 72 64 60 73 75 80 78 71 66 66 67 67 67 69 71 73 72 70 68 70 71 71 73 
74 73 71 72 73 73 69 65 62 57 57 62 68 66 59 55 60 67 66 58 55 59 60 50 37 35 
42 52 59 58 53 49 52 60 73 91 112 132 148 160 168 171 170 164 154 138 113 85 
59 41 35 34 33 34 35 39 46 57 68 70 69 67 64 59 52 45 40 43 54 64 69 69 68 65 
62 62 65 65 60 57 62 67 67 65 66 69 67 64 64 64 68 65 64 69 72 71 65 60 62 65 
64 63 64 66 69 70 69 65 64 67 67 66 64 63 64 67 71 72 70 67 63 56 53 56 63 65 
59 59 68 77 75 67 62 69 71 60 45 37 43 56 67 70 65 62 64 72 86 105 125 145 163 
176 184 186 182 174 166 152 129 98 67 46 32 24 21 22 26 31 38 52 66 71 71 71 
65 55 45 39 39 46 55 62 68 69 68 66 63 62 65 67 64 59 59 62 65 66 67 70 68 62 
60 59 73 70 55 68 67 65 60 58 61 64 64 64 64 63 64 65 64 60 59 65 70 68 62 57 
59 62 67 69 68 64 56 48 42 45 51 53 53 60 74 86 84 75 73 79 82 73 61 53 53 64 
78 85 84 81 81 87 101 121 142 162 181 196 204 204 198 190 182 168 142 108 78 
56 38 22 14 17 24 28 33 47 63 71 74 74 70 60 50 45 47 52 57 62 64 64 62 62 63 
62 63 66 65 58 53 55 60 63 63 65 67 64 62 65 74 73 64 71 65 63 62 65 65 65 65 
66 67 66 65 66 64 60 61 67 74 73 65 60 58 61 65 68 66 59 49 39 36 38 42 44 48 
61 79 89 87 83 86 93 95 90 81 71 67 75 88 98 100 98 96 102 118 141 162 182 200 
212 219 220 216 211 203 187 158 124 95 74 54 34 21 20 25 28 31 41 57 68 72 74 
75 70 62 59 61 61 59 58 57 56 56 60 63 63 63 64 62 56 51 53 59 60 57 59 64 66 
70 73 70 74 70 68 64 64 70 75 74 66 65 68 71 71 70 71 72 69 65 67 70 71 69 66 
63 63 65 68 66 59 48 40 37 38 42 46 54 68 81 87 87 90 99 107 108 104 94 83 78 
85 96 104 108 107 106 115 135 162 185 203 216 224 230 234 235 233 226 211 184 
151 122 97 73 50 34 26 25 25 26 34 48 59 64 68 73 74 70 69 68 65 57 52 50 51 
56 64 70 69 68 66 63 59 57 60 65 64 59 57 61 68 75 78 67 71 63 63 60 63 70 77 
72 66 64 68 71 70 69 72 75 72 68 63 62 65 70 73 70 66 66 69 68 62 55 47 41 42 
48 56 66 77 85 87 89 96 106 113 115 111 101 90 87 93 101 105 108 111 116 129 
151 177 200 215 226 232 238 245 251 251 244 232 212 184 154 125 95 66 45 31 24 
19 19 26 38 47 52 60 69 73 68 65 65 61 54 49 48 52 62 73 79 79 78 74 68 63 65 
70 73 70 66 63 62 68 76 78 71 68 64 63 60 60 63 65 66 64 64 66 67 66 64 66 69 
70 67 59 55 61 74 80 76 68 65 67 68 66 63 57 49 47 56 68 78 84 89 91 94 98 103 
109 115 115 107 97 97 102 105 105 108 114 124 140 161 182 200 217 229 235 241 
251 255 255 255 249 235 214 186 154 120 85 58 38 24 16 14 19 28 35 40 51 65 68 
60 55 56 56 52 49 49 54 66 79 84 85 83 77 68 64 67 71 71 72 73 70 65 67 74 75 
70 67 69 69 67 61 56 57 62 67 69 67 64 63 61 62 65 67 66 58 54 63 77 83 77 66 
60 62 66 68 69 67 60 58 64 75 83 88 92 97 98 95 94 97 106 111 107 101 102 104 
104 103 106 114 126 141 158 175 194 213 225 230 237 250 255 255 255 255 255 
239 213 181 144 106 72 44 25 15 13 17 22 27 32 46 63 64 54 49 53 56 56 53 51 
55 65 75 79 79 77 71 65 61 63 64 64 67 70 68 62 62 69 72 69 68 78 74 73 67 60 
59 66 74 76 70 65 65 65 65 65 66 64 59 58 65 75 79 72 62 57 59 65 71 72 71 68 
67 70 76 83 88 93 97 96 90 84 83 87 93 94 94 96 96 94 94 100 110 122 135 149 
167 190 210 217 217 223 242 255 255 255 255 255 255 234 204 166 124 83 48 23 
12 13 17 22 26 33 46 61 63 55 51 56 61 61 59 57 60 66 70 71 69 68 67 63 62 62 
61 59 61 64 61 54 56 64 69 69 71 73 67 73 73 68 66 69 74 76 73 70 69 70 70 69 
69 66 62 61 65 70 70 67 63 60 62 69 73 71 69 69 69 71 76 84 89 90 91 90 86 77 
70 67 70 73 76 79 79 78 83 94 107 119 129 143 163 187 203 205 201 211 232 251 
255 255 255 255 255 252 226 190 145 96 51 20 8 9 16 24 35 43 54 64 66 60 56 58 
62 63 64 67 68 68 68 67 66 66 66 66 65 64 62 61 62 63 57 51 55 61 65 67 68 67 
63 69 73 73 69 68 70 72 72 72 72 73 75 77 77 74 68 65 65 65 63 63 65 64 66 70 
70 65 63 67 72 75 83 91 92 87 85 87 83 73 63 57 55 56 59 61 63 66 75 91 106 
118 127 138 156 177 189 192 191 200 220 239 252 255 255 255 255 255 246 212 
168 115 64 27 8 7 16 30 44 54 62 69 71 66 59 58 59 60 65 70 69 66 63 64 66 67 
66 66 66 65 62 63 67 67 62 57 58 60 61 65 62 67 65 69 72 72 69 67 68 68 69 70 
72 74 78 83 85 80 73 68 66 62 57 60 63 61 59 62 61 56 56 65 76 84 94 100 96 88 
86 89 85 72 60 54 50 46 45 48 53 60 72 87 102 113 123 134 146 160 171 175 177 
188 206 225 241 255 255 255 255 255 255 229 187 138 87 45 20 11 17 30 45 54 62 
70 74 68 60 57 56 57 60 63 62 57 55 59 64 62 60 63 65 62 61 63 70 72 68 65 65 
63 63 66 72 66 71 69 70 68 66 66 66 66 66 68 70 73 76 80 83 77 70 69 68 62 54 
55 57 52 48 50 49 46 49 63 78 90 99 103 99 94 94 96 90 73 59 51 44 38 37 41 49 
59 68 79 91 103 118 131 141 148 153 157 159 168 185 206 227 249 255 255 255 
255 255 241 202 156 106 63 32 18 17 26 38 48 57 65 69 64 58 58 58 56 55 55 54 
52 55 62 64 57 55 60 66 66 62 65 71 74 73 69 68 67 67 69 70 64 71 69 67 65 63 
63 63 64 65 66 68 68 68 70 71 68 66 68 70 64 54 51 51 47 44 43 43 41 45 61 79 
90 94 96 94 93 98 101 94 77 61 50 40 33 32 37 45 55 63 69 79 96 117 136 145 
146 144 140 138 143 159 182 210 240 255 255 255 255 255 250 213 165 115 71 39 
22 17 22 33 44 53 60 62 58 56 59 62 60 54 50 54 58 64 70 69 60 56 62 71 74 71 
70 73 74 72 69 68 68 69 70 67 68 69 69 69 66 63 61 60 61 63 64 64 63 62 61 62 
63 67 70 71 66 56 49 47 46 45 44 41 40 47 62 78 86 86 83 82 85 92 100 95 82 67 
55 44 37 34 34 40 50 57 61 73 95 122 142 150 147 137 127 119 119 132 159 194 
232 255 255 255 255 255 250 212 162 111 68 40 25 19 21 31 43 53 60 61 60 60 62 
64 60 53 50 57 65 68 70 69 62 58 66 76 80 78 76 75 73 71 68 67 68 71 72 67 67 
68 70 73 70 66 63 62 63 63 61 59 60 63 64 63 66 70 71 68 62 54 47 44 45 46 45 
42 43 51 65 77 82 79 76 74 77 87 96 96 86 74 62 51 43 36 31 35 46 52 55 71 99 
124 139 146 141 128 112 100 98 112 141 182 225 255 255 255 255 255 237 198 147 
97 58 36 26 21 23 31 43 54 62 68 68 66 65 62 56 49 49 58 64 63 61 61 59 59 66 
74 78 78 77 76 75 72 69 68 71 74 76 73 66 67 72 75 71 66 63 64 66 64 59 57 62 
68 68 66 66 69 67 61 55 50 44 42 45 48 46 44 45 53 64 73 76 76 74 73 77 87 98 
99 91 78 63 50 42 32 26 31 41 47 53 72 101 121 128 130 127 114 96 84 84 99 130 
172 216 251 255 255 255 245 216 174 126 78 45 28 24 23 26 33 43 54 64 71 73 70 
65 60 53 48 50 60 63 59 57 59 58 58 62 68 72 74 75 74 74 72 69 69 73 77 80 78 
72 70 75 75 70 64 61 63 66 64 59 58 66 71 69 62 62 65 63 57 52 49 44 43 48 52 
49 44 44 51 59 64 67 71 74 75 80 93 103 103 95 81 63 46 35 27 23 26 33 40 50 
73 100 115 117 116 110 96 80 73 78 93 124 164 206 238 255 255 249 228 195 152 
104 59 29 18 18 22 29 37 45 55 65 72 73 68 64 59 52 49 55 64 65 61 62 62 59 56 
59 65 68 70 70 68 66 65 65 67 71 76 79 76 74 77 78 76 71 67 63 63 65 64 59 60 
68 72 67 61 62 65 63 59 57 52 47 47 53 58 54 46 44 50 55 55 56 62 70 75 83 96 
105 106 97 84 66 49 35 30 25 24 25 29 43 67 94 110 111 106 95 78 66 66 76 93 
120 158 196 225 241 242 232 212 179 133 83 39 14 7 12 20 29 39 45 54 66 73 72 
67 63 56 49 48 57 63 62 60 61 59 55 55 60 65 66 67 64 60 56 57 60 65 69 74 75 
71 68 79 76 76 77 75 71 68 67 62 57 59 67 71 67 63 66 68 65 64 64 61 56 55 58 
61 59 52 50 53 55 51 49 55 66 75 85 96 105 106 101 90 76 60 47 38 31 26 22 24 
34 59 87 104 107 100 82 64 55 61 75 93 120 155 189 215 226 225 215 196 162 114 
62 21 3 3 10 19 29 38 43 51 63 71 69 64 60 54 46 44 51 55 53 53 56 55 53 57 67 
69 67 64 60 55 53 55 60 63 66 69 69 66 69 73 72 75 80 81 78 74 70 62 55 56 64 
68 65 64 67 68 66 67 69 70 70 69 69 68 65 62 59 59 57 54 50 55 65 74 83 93 104 
109 107 102 89 71 55 43 33 26 24 25 34 59 87 105 107 96 78 59 53 61 75 96 125 
159 189 209 214 206 193 175 141 92 43 10 0 5 14 24 33 39 43 47 55 63 64 59 57 
54 49 47 49 50 49 53 60 59 57 64 70 69 64 62 59 56 57 60 62 61 61 63 62 61 73 
70 71 76 79 80 78 77 73 64 56 56 61 64 62 61 65 67 68 69 70 75 80 82 78 72 70 
67 63 59 57 56 56 59 64 69 75 85 98 109 114 111 99 79 60 45 33 26 28 34 48 73 
99 113 114 104 86 69 64 72 88 113 142 174 197 208 205 188 169 146 113 70 29 6 
2 11 22 32 42 49 51 48 50 56 59 58 58 59 58 56 56 56 56 63 69 70 69 69 68 63 
61 62 61 59 63 66 65 61 60 61 61 61 71 66 70 76 77 75 75 77 74 68 61 59 60 61 
61 62 65 68 70 69 68 71 78 80 74 69 66 65 61 56 56 56 55 56 58 58 62 72 89 104 
112 113 103 84 64 48 35 27 31 45 68 97 123 135 134 124 109 93 89 98 117 141 
169 196 212 213 201 176 148 118 84 48 21 6 7 17 29 40 53 62 62 55 51 54 57 57 
57 59 61 64 67 66 65 68 72 75 73 70 64 60 61 62 60 60 66 70 68 66 66 69 67 64 
68 60 65 70 71 71 74 75 73 70 69 67 64 63 66 68 69 69 68 65 61 62 64 63 58 53 
55 58 57 54 52 49 46 47 46 46 48 59 77 93 103 108 104 91 74 58 43 32 33 53 86 
122 152 169 171 162 147 132 129 139 154 173 196 219 230 225 205 175 138 98 58 
29 12 8 11 21 33 45 57 68 69 61 53 51 51 51 51 54 58 65 71 70 64 61 64 70 76 
73 66 62 62 62 59 61 67 71 71 71 75 78 76 70 67 60 62 64 64 66 71 73 70 72 75 
73 68 67 71 72 68 66 64 61 58 55 51 47 41 40 46 55 57 52 45 38 34 35 37 36 38 
51 69 85 99 108 110 100 84 67 52 39 41 63 101 145 182 206 217 212 195 181 179 
185 192 201 218 238 250 243 219 184 139 88 42 15 8 8 13 23 35 46 58 67 68 61 
52 47 45 44 48 51 57 64 70 67 57 51 55 66 76 78 72 66 64 62 61 65 70 72 71 73 
79 82 79 71 68 67 69 67 62 63 67 69 68 72 77 74 68 67 69 69 65 63 61 59 59 57 
50 42 37 38 45 55 56 47 37 31 30 33 35 33 37 50 69 87 103 116 119 108 89 74 61 
52 56 79 119 166 208 238 253 253 242 231 226 225 224 227 239 255 255 255 235 
197 147 89 37 13 9 10 13 24 37 49 59 64 65 60 52 46 45 49 54 56 59 64 67 61 51 
46 53 66 77 78 72 65 62 63 66 70 72 71 71 74 78 79 74 67 60 72 76 74 66 64 65 
66 67 70 72 68 63 62 65 67 66 66 63 57 58 60 55 49 45 46 51 56 54 44 35 33 35 
38 39 39 42 55 72 90 108 120 121 109 92 80 72 69 76 98 138 187 229 255 255 255 
255 255 255 249 247 251 255 255 255 255 242 201 150 91 41 18 15 15 17 25 39 53 
63 67 65 60 53 47 48 54 57 56 54 58 60 55 46 45 55 68 73 70 64 59 60 65 70 73 
73 71 72 76 77 73 68 63 64 67 72 72 71 68 66 65 67 69 67 61 56 57 62 68 72 73 
65 58 57 59 59 57 56 56 58 60 55 46 40 40 42 45 47 48 52 59 70 86 104 116 117 
108 95 87 84 84 91 113 154 206 244 255 255 255 255 255 255 255 255 255 255 255 
255 255 235 195 145 91 47 26 22 23 24 29 38 51 63 69 68 64 57 50 47 49 48 43 
42 47 53 50 43 43 54 65 66 60 56 58 63 68 73 74 74 74 76 78 76 71 66 64 68 62 
64 66 69 71 69 66 64 65 64 58 56 57 62 68 74 74 69 62 59 58 57 59 61 61 63 63 
58 51 47 46 47 49 54 57 59 61 66 79 96 109 112 108 101 96 95 96 104 125 167 
218 253 255 255 255 255 255 255 255 254 255 255 255 255 240 214 180 135 86 49 
34 31 29 29 32 36 45 58 68 69 66 61 54 49 45 40 35 36 45 51 48 41 41 51 62 61 
57 59 65 70 73 76 77 78 79 79 77 75 73 71 69 73 66 65 65 69 71 70 65 62 62 61 
62 63 64 64 65 69 71 69 66 62 56 56 60 62 62 62 62 59 55 53 52 50 51 57 60 63 
65 69 81 96 105 107 106 104 103 104 109 117 137 176 222 251 255 254 252 255 
255 255 247 238 234 233 229 220 204 183 156 118 76 48 38 35 34 34 37 38 44 55 
63 65 64 61 58 55 50 43 40 43 51 55 51 42 40 50 61 63 64 69 74 76 77 78 79 80 
82 81 77 74 76 77 74 68 73 72 73 71 72 70 66 64 64 68 72 74 70 62 60 63 67 67 
64 61 58 61 66 67 63 60 57 55 54 57 58 56 55 59 64 68 71 78 89 100 103 101 100 
103 108 116 123 132 148 180 217 241 246 241 237 235 232 226 216 205 198 195 
188 177 163 147 125 93 59 39 32 31 33 39 45 47 52 58 62 58 55 56 58 61 58 52 
50 54 60 60 54 46 44 53 62 66 71 76 77 76 76 78 78 77 78 78 76 76 78 79 76 69 
72 75 76 75 74 72 70 69 73 80 84 82 72 60 58 63 69 68 62 58 62 71 77 74 68 61 
56 53 56 61 62 62 63 69 76 79 82 86 95 101 100 94 92 98 111 125 136 145 157 
182 211 231 234 227 214 200 191 181 168 158 153 148 141 132 124 112 94 67 41 
27 22 22 27 40 51 57 62 66 64 55 50 50 55 59 59 57 57 61 64 63 58 53 54 59 64 
68 73 76 74 71 72 76 76 73 72 73 76 78 78 77 75 72 68 70 75 78 77 73 71 71 76 
84 89 83 70 60 60 68 74 72 63 58 64 75 80 78 72 67 62 60 62 66 66 67 75 86 97 
100 98 96 99 100 95 86 84 93 109 126 140 151 165 188 213 229 231 217 193 168 
150 133 118 108 102 97 92 89 88 83 68 49 33 25 22 21 26 38 53 61 65 67 66 60 
55 54 55 55 55 55 60 64 66 65 63 61 61 63 65 67 69 70 67 64 67 74 74 70 67 70 
75 78 77 75 73 74 73 63 73 79 77 73 69 70 72 78 83 82 74 66 66 70 74 72 66 64 
65 70 73 73 72 72 69 66 67 69 70 73 85 102 118 123 119 111 106 101 91 80 79 89 
104 120 138 156 177 201 223 236 234 218 189 155 124 99 78 66 60 56 52 55 59 56 
47 38 33 32 34 35 35 41 50 55 58 60 63 65 64 60 55 50 50 55 62 67 68 67 66 63 
61 62 63 64 65 65 62 59 63 70 73 69 66 70 76 79 78 75 72 76 74 58 70 78 77 72 
69 69 69 72 79 83 80 75 71 68 67 67 69 71 71 69 66 65 67 69 68 66 66 71 75 79 
90 109 129 138 136 128 119 108 93 80 78 88 102 118 139 165 193 218 237 245 242 
227 201 163 122 85 57 42 37 33 29 32 36 35 31 29 32 40 49 52 49 44 45 48 51 54 
58 66 69 64 55 48 49 56 63 66 67 69 66 60 57 61 64 65 66 66 64 60 61 68 71 69 
67 70 76 80 80 77 73 66 74 58 69 77 76 72 69 68 66 71 80 83 81 75 70 64 60 63 
70 77 79 73 67 61 60 62 61 57 60 70 81 86 92 110 131 142 143 138 130 116 98 84 
81 89 102 118 142 173 206 233 250 255 254 243 220 183 136 90 55 36 28 24 19 19 
21 24 23 24 30 43 56 60 54 47 45 49 53 53 55 64 69 64 55 49 51 57 59 60 64 68 
65 58 59 66 71 72 71 72 69 65 64 66 68 68 68 69 73 75 78 77 73 68 71 61 68 75 
76 72 67 63 62 69 77 78 71 66 65 63 59 61 69 77 81 79 72 65 59 56 53 49 53 67 
80 87 95 112 131 140 140 137 130 116 97 85 83 86 94 112 140 174 208 239 255 
255 255 255 237 203 157 108 68 44 32 22 15 13 18 24 25 25 31 44 56 59 54 50 52 
57 59 55 55 63 67 62 54 52 53 55 54 55 61 68 68 64 67 74 78 75 73 75 73 70 67 
66 66 67 69 71 69 70 72 74 73 74 75 66 67 71 73 70 65 60 58 64 70 68 61 58 62 
64 62 63 68 73 76 75 75 73 65 56 48 44 50 63 74 82 96 116 132 137 135 133 126 
110 91 82 79 77 83 102 132 167 201 235 255 255 255 255 248 222 182 135 93 64 
45 29 17 18 27 34 34 32 37 47 55 57 55 55 59 61 61 59 59 63 64 57 51 53 57 56 
54 56 64 72 73 72 74 79 77 71 70 74 73 69 66 65 64 66 71 72 70 68 69 72 74 78 
77 77 70 68 69 67 64 62 62 64 62 60 58 60 65 66 64 64 68 72 71 70 74 77 71 57 
45 43 51 60 68 78 95 116 129 131 131 130 123 106 88 79 74 70 75 96 124 154 187 
224 255 255 255 255 255 239 208 169 128 94 65 43 32 32 40 44 44 44 48 55 58 58 
58 59 58 56 56 58 62 64 60 52 49 55 60 59 55 58 67 76 77 74 75 75 70 63 66 70 
68 64 63 63 64 65 69 71 70 69 71 74 75 77 76 76 68 69 66 64 62 65 68 64 59 58 
63 67 69 67 64 65 67 68 67 66 71 76 70 56 47 47 54 59 64 75 93 109 117 121 124 
127 122 105 90 81 74 69 76 94 114 136 167 206 241 255 255 255 255 255 231 198 
160 119 82 56 44 42 43 45 47 53 62 66 64 61 60 58 53 50 51 56 59 59 55 51 53 
60 63 59 55 57 67 74 74 71 71 70 63 59 63 67 63 59 61 66 67 67 67 67 67 70 73 
75 74 71 68 65 68 67 64 59 58 61 63 61 56 61 69 73 70 66 64 64 64 64 63 63 69 
73 69 59 52 54 57 57 61 73 88 97 101 107 113 117 112 102 93 86 78 71 74 85 96 
112 142 182 220 248 255 255 255 255 240 212 174 129 88 60 45 37 35 38 46 59 71 
73 68 62 58 54 49 49 54 58 58 56 56 58 62 67 65 59 55 58 67 71 69 66 69 69 64 
61 65 66 63 61 66 73 76 74 70 67 66 69 74 76 74 70 65 61 70 66 64 58 56 56 56 
54 56 66 75 75 69 66 66 64 62 62 64 66 71 74 71 65 61 62 61 56 57 68 81 86 87 
92 99 102 98 92 90 88 81 71 66 69 77 92 117 152 190 225 253 255 255 255 239 
212 175 131 89 60 42 31 30 36 50 64 74 75 69 61 54 49 47 53 63 67 65 64 68 72 
71 70 68 64 63 67 72 73 69 67 71 74 71 70 71 70 67 66 71 78 83 83 79 72 69 71 
75 76 74 73 69 67 72 71 69 65 62 58 56 56 61 72 78 75 69 68 68 65 62 63 69 73 
75 76 74 70 68 69 67 61 57 63 73 78 77 79 85 88 87 84 84 83 77 67 58 57 63 75 
93 117 152 191 226 248 255 251 236 213 179 136 96 66 48 35 34 43 56 68 74 72 
67 59 51 46 50 60 70 74 71 75 83 82 75 71 73 75 75 77 78 75 71 70 75 78 77 76 
75 73 70 69 71 74 81 85 82 76 73 75 77 75 71 74 75 75 74 75 74 73 72 68 65 64 
68 74 75 72 68 66 66 65 64 67 74 77 77 75 73 69 68 73 75 68 60 59 66 70 70 70 
73 78 81 81 80 79 74 63 52 49 54 60 67 81 111 154 195 226 243 248 241 222 191 
149 108 80 59 44 41 49 59 69 72 70 65 58 52 50 54 64 70 69 66 74 84 80 72 69 
75 80 80 76 74 71 69 71 74 75 74 72 70 69 68 69 69 70 73 78 79 74 74 78 78 74 
72 70 73 77 74 70 75 74 75 75 73 71 70 71 71 68 63 62 63 65 68 74 77 76 73 73 
71 66 65 71 77 72 61 55 57 61 62 62 64 69 75 78 79 79 76 64 50 43 46 47 45 50 
75 121 167 208 236 248 245 230 202 162 121 90 68 50 43 47 54 64 70 69 65 58 54 
54 58 62 62 57 56 62 72 73 67 66 73 77 73 67 65 66 65 66 68 68 65 61 58 59 63 
68 70 67 68 72 74 72 74 78 78 75 77 65 68 71 68 69 72 71 73 72 75 72 70 71 73 
67 59 58 63 68 75 80 80 74 72 75 72 64 61 67 73 69 61 52 49 50 53 55 57 61 67 
74 79 83 82 70 54 44 43 39 31 29 48 90 142 191 229 247 244 230 205 169 129 96 
71 52 43 43 48 56 64 66 64 60 58 56 55 53 53 52 51 57 65 68 65 65 70 72 67 62 
62 63 61 60 62 63 60 54 52 54 61 66 67 64 65 71 73 70 72 77 78 78 82 66 64 66 
66 72 74 71 69 68 70 71 70 75 77 70 59 59 65 70 77 82 80 74 73 77 73 64 61 65 
68 66 61 51 44 43 48 52 54 57 64 72 78 84 85 79 66 52 42 31 19 18 35 73 123 
177 221 241 240 225 204 171 132 97 70 52 42 40 43 47 52 57 60 62 62 57 50 47 
49 51 52 56 63 66 66 66 70 71 66 61 61 62 59 59 61 64 62 57 56 57 60 61 60 59 
62 70 73 69 69 72 76 80 82 68 63 65 70 77 76 76 73 69 71 71 70 76 80 72 63 65 
67 68 73 82 81 74 74 75 71 64 64 66 66 63 61 54 46 43 47 52 54 58 67 74 77 81 
83 82 72 57 38 20 10 15 36 70 116 169 213 235 236 224 205 173 133 96 68 50 40 
38 39 39 43 50 57 62 63 58 50 45 47 50 52 56 60 63 66 68 69 69 64 59 58 60 61 
61 64 67 66 65 64 63 60 57 55 57 61 68 72 69 66 69 74 77 76 68 64 66 74 78 77 
77 78 73 74 74 71 75 80 74 68 68 67 64 68 79 82 76 70 68 66 67 70 71 67 62 62 
60 54 50 51 54 58 63 70 74 75 77 81 81 73 56 34 14 8 19 43 74 114 161 204 229 
235 228 210 175 132 96 70 51 40 37 38 39 42 49 55 58 60 57 51 44 44 48 54 58 
58 58 63 67 67 64 59 55 55 59 64 66 66 66 66 67 68 67 64 61 62 62 63 67 70 69 
67 68 71 70 70 68 65 66 72 75 70 66 75 73 78 74 72 77 81 76 70 69 67 63 67 77 
80 72 63 61 64 69 74 75 68 63 65 66 62 57 57 60 63 66 68 68 69 75 80 80 71 54 
33 17 13 25 48 75 108 149 190 219 232 233 214 174 131 99 77 58 45 41 43 46 49 
52 53 53 55 55 51 44 42 48 60 67 64 59 61 66 65 60 56 54 55 59 65 70 68 65 64 
66 68 70 71 71 69 66 64 67 71 71 68 68 69 68 68 71 68 67 71 73 67 62 62 72 75 
76 72 74 79 75 69 67 67 67 70 77 76 66 57 57 62 68 72 71 66 63 66 70 67 63 63 
65 67 68 66 63 66 72 76 74 66 53 36 22 18 28 46 67 95 132 172 202 220 225 207 
170 127 97 78 63 49 43 46 52 55 54 51 50 53 54 51 45 45 53 66 73 70 62 63 67 
65 61 58 57 58 59 65 71 71 69 67 67 69 72 76 74 70 65 65 68 72 72 75 75 70 71 
71 71 71 73 76 76 71 67 68 71 77 79 72 71 73 71 67 66 68 70 75 80 79 68 58 57 
60 63 64 62 58 58 64 70 70 69 70 71 69 68 67 66 66 67 67 64 57 47 35 25 23 30 
44 62 86 121 156 181 195 201 189 158 120 90 72 59 47 42 47 54 59 56 51 51 55 
56 53 49 51 59 67 71 68 64 67 70 69 64 62 62 60 59 64 71 75 75 72 71 70 73 74 
71 67 65 66 71 73 76 73 68 68 73 76 64 70 76 77 76 74 74 75 75 74 74 73 68 70 
70 66 66 66 68 75 83 83 74 66 62 62 60 57 52 49 52 61 70 73 73 75 75 71 68 70 
73 70 63 59 57 50 40 32 28 29 33 44 61 85 114 140 158 168 172 164 141 109 81 
62 50 42 41 47 56 59 58 55 56 60 60 56 54 57 63 68 68 65 65 70 75 73 70 69 68 
64 62 65 70 74 76 75 73 70 70 71 71 70 70 70 72 73 74 66 60 61 69 78 56 65 71 
71 69 71 75 77 72 65 66 67 68 75 75 69 68 64 61 69 77 78 73 68 66 64 61 56 51 
49 51 60 69 73 74 75 75 69 66 71 76 72 60 55 54 48 37 32 32 34 36 42 57 79 102 
121 133 141 144 138 120 94 70 53 45 42 46 52 57 59 57 56 60 65 66 62 60 63 69 
71 68 64 65 71 76 76 75 75 73 69 67 67 68 70 73 75 73 69 68 71 77 79 76 73 71 
67 68 64 59 59 66 76 59 65 70 68 65 66 69 71 67 61 61 63 66 75 78 76 71 67 61 
63 67 65 60 61 64 63 57 53 52 54 55 59 66 70 70 68 67 64 63 68 73 67 55 52 55 
51 40 34 36 38 36 38 49 67 85 99 109 115 117 111 98 79 60 47 43 45 49 54 56 55 
54 56 63 71 73 70 67 69 73 72 67 62 63 67 71 73 73 75 75 72 70 69 67 68 73 77 
75 71 71 75 83 83 77 71 68 69 72 68 63 62 68 74 69 72 74 72 68 67 64 65 66 66 
67 67 63 64 74 75 77 70 66 65 64 57 51 53 59 57 49 46 52 59 58 56 61 66 63 59 
58 60 63 66 67 59 50 51 58 57 48 41 41 43 38 36 43 58 73 84 91 95 95 89 79 67 
55 45 42 45 47 50 53 54 55 60 68 75 78 74 71 70 70 68 63 58 57 61 66 67 67 69 
71 72 72 70 67 69 76 81 80 78 78 82 85 82 74 69 68 71 74 70 65 65 71 72 71 71 
73 73 69 66 64 63 68 74 75 70 64 62 65 72 74 74 70 71 68 59 53 56 59 54 45 44 
53 60 57 53 57 62 59 55 56 63 67 67 65 57 50 53 63 66 60 53 51 51 45 40 45 57 
70 78 79 79 79 74 66 59 51 45 42 42 44 48 53 59 63 69 74 78 77 73 69 66 66 65 
62 56 54 58 64 65 62 64 69 73 75 71 66 68 77 82 81 81 84 86 83 79 75 71 67 70 
75 71 65 65 68 69 65 63 67 69 65 62 66 64 69 75 75 70 65 64 63 62 69 71 73 72 
69 63 61 64 66 59 51 52 59 63 57 54 59 63 61 58 64 70 71 67 66 61 55 55 63 70 
70 64 60 59 53 46 48 58 69 73 70 65 64 61 56 50 46 44 43 44 46 53 60 66 70 74 
75 72 70 68 64 62 63 66 65 61 59 61 64 65 64 66 72 77 76 69 64 67 75 76 75 76 
80 82 77 76 73 64 62 70 76 74 67 65 67 67 64 62 67 70 66 63 67 65 67 72 73 70 
69 71 68 60 61 69 71 71 67 65 66 69 70 66 61 61 66 67 62 61 65 68 66 65 67 70 
68 65 66 67 61 56 59 67 71 68 64 61 56 51 49 54 60 63 60 55 51 49 46 43 43 46 
51 53 56 60 65 67 67 69 68 63 60 62 63 61 62 65 67 67 64 63 64 66 69 74 79 80 
76 68 63 67 69 65 62 70 74 73 70 72 67 60 61 72 79 77 70 68 69 69 70 69 74 75 
71 70 70 67 68 73 75 72 73 75 75 67 61 67 74 72 68 67 69 70 69 67 65 65 66 65 
64 65 67 68 68 65 64 63 60 60 67 71 66 59 58 63 67 66 62 59 56 54 52 49 49 54 
55 50 45 43 42 41 44 53 61 65 65 65 65 63 62 64 64 58 56 61 64 63 62 63 66 69 
67 63 63 67 74 80 83 80 75 69 68 70 67 58 57 71 67 67 66 65 63 63 69 76 79 74 
69 68 70 70 72 71 75 75 73 75 78 71 73 77 77 75 73 74 75 73 68 67 70 76 75 71 
72 72 69 67 68 68 64 59 58 60 63 66 65 63 60 57 56 58 65 71 69 63 60 62 64 63 
60 58 59 62 61 54 51 56 57 52 46 44 44 44 49 59 68 71 68 66 65 63 64 71 71 64 
60 64 69 68 66 65 65 66 64 60 61 68 77 80 80 77 72 70 72 75 69 61 63 66 68 66 
62 60 65 72 78 79 75 69 67 69 69 69 69 67 70 71 71 73 77 68 74 76 74 71 71 72 
73 73 72 70 70 73 77 77 75 76 74 72 74 74 68 59 53 55 60 63 63 61 59 58 57 58 
64 70 70 67 64 62 62 63 62 62 65 70 72 67 63 64 63 56 51 50 49 48 52 62 70 72 
69 66 65 66 71 78 80 73 68 70 74 75 73 70 66 62 59 58 63 73 79 78 74 71 70 69 
71 75 72 64 64 67 70 67 59 58 66 75 81 79 73 69 71 72 70 67 67 65 67 68 68 69 
72 59 69 71 68 66 68 71 72 72 73 74 70 69 73 77 80 79 78 76 77 79 75 66 60 59 
61 63 62 62 63 62 60 61 65 70 73 72 66 60 60 63 65 67 70 74 76 74 72 70 67 62 
59 58 55 51 54 63 72 73 69 65 65 67 72 78 79 75 72 73 75 77 77 73 66 60 58 60 
68 78 82 76 70 70 70 68 69 68 63 64 66 69 72 68 60 59 66 72 76 77 75 74 76 76 
72 68 73 71 69 69 70 71 71 58 68 71 69 67 68 71 73 73 73 74 71 64 67 75 81 82 
78 74 77 81 80 74 68 63 63 63 64 66 68 66 65 65 68 71 76 74 66 58 57 61 65 69 
71 71 71 72 71 70 69 67 65 64 60 55 56 65 73 74 69 67 67 67 67 69 72 71 70 71 
72 75 76 71 64 61 62 67 73 78 77 72 70 72 73 69 67 66 68 68 68 71 74 70 64 64 
67 68 70 73 75 75 74 74 73 72 79 77 71 68 71 75 74 68 72 74 72 69 67 69 71 70 
71 73 69 63 67 73 79 80 78 74 77 81 83 81 74 66 63 64 68 70 71 70 68 69 70 71 
73 70 63 57 57 60 63 67 69 67 65 67 68 69 70 70 68 68 65 60 60 66 71 70 67 68 
71 68 64 65 67 69 69 68 68 71 73 70 64 64 69 73 74 73 69 66 66 70 70 71 71 69 
68 69 70 73 76 74 71 71 70 68 66 70 73 72 68 67 70 73 79 79 72 66 67 72 71 71 
72 72 71 67 63 64 66 66 69 74 72 64 69 71 77 76 75 77 78 79 80 83 80 70 64 66 
68 71 71 69 69 71 74 72 70 65 60 58 59 60 62 66 67 64 63 65 68 71 72 71 69 69 
68 64 62 65 67 65 63 68 72 70 67 68 70 71 70 66 64 69 75 74 69 67 70 73 72 70 
66 61 61 65 67 72 70 68 70 72 72 73 75 76 76 77 75 70 67 69 72 71 67 65 68 72 
76 80 74 67 64 66 67 64 63 66 69 66 62 63 64 65 68 74 75 71 67 72 75 76 73 72 
73 72 75 80 80 73 68 67 67 67 66 66 68 75 79 76 67 60 58 60 63 63 64 66 66 63 
63 65 68 72 74 72 69 69 70 67 64 65 67 62 59 62 67 67 69 72 73 72 71 68 63 67 
76 79 76 70 68 69 72 73 70 64 61 67 72 69 67 68 72 73 71 68 70 73 77 80 78 73 
68 70 73 73 71 69 68 70 75 79 76 69 66 68 69 69 62 66 72 70 68 69 70 69 70 72 
72 71 70 71 73 74 71 66 64 66 71 77 76 73 71 69 66 65 65 68 72 78 81 74 64 57 
57 63 68 67 65 65 65 64 64 65 68 72 74 73 70 71 73 71 68 69 69 64 56 54 54 57 
62 67 69 70 70 67 63 65 73 79 76 71 67 68 70 75 73 65 66 73 70 68 67 69 71 71 
68 64 64 68 74 80 81 75 69 68 72 73 72 70 68 67 71 70 72 74 74 74 76 77 69 72 
76 74 73 75 77 75 72 69 67 66 68 69 70 71 69 61 60 64 69 72 71 71 74 73 68 65 
69 73 74 75 74 69 61 56 56 64 71 70 65 62 62 63 65 67 68 71 73 72 71 73 75 72 
69 67 69 67 58 51 48 49 54 59 63 65 66 65 62 63 70 76 76 72 69 66 65 66 68 71 
72 72 71 72 74 73 71 69 67 65 64 64 70 80 83 79 72 69 69 69 68 69 67 67 76 76 
83 79 74 75 69 71 72 71 74 73 72 75 77 76 72 69 66 68 71 72 72 73 70 66 62 63 
66 66 65 70 76 75 70 68 73 77 73 67 65 67 65 59 56 61 70 73 68 62 59 62 64 65 
66 67 68 69 71 72 72 68 62 62 68 70 63 56 52 54 57 61 63 64 64 64 64 66 71 76 
76 75 72 66 59 65 74 74 76 76 76 79 82 79 73 70 71 70 66 62 67 79 86 84 79 76 
73 69 69 71 69 70 75 76 85 80 73 76 80 75 69 66 69 69 69 70 72 72 70 68 69 74 
78 78 78 79 76 66 62 61 60 60 61 68 76 78 74 72 76 77 71 62 63 70 73 66 58 61 
72 78 74 66 62 63 64 62 61 61 61 64 67 71 70 64 58 59 67 71 68 63 64 66 68 67 
68 67 66 67 69 71 74 77 76 75 74 68 66 73 75 75 79 80 79 83 86 83 77 73 74 74 
69 60 60 74 71 67 69 79 77 73 71 72 71 72 68 70 80 77 77 81 83 75 67 66 68 69 
69 71 71 70 67 65 68 74 78 77 78 80 78 68 61 54 58 57 58 63 71 78 78 76 75 75 
69 63 65 72 75 69 62 67 79 85 80 71 65 65 66 63 60 59 59 59 63 69 71 68 63 64 
69 69 67 69 73 74 71 70 70 68 68 70 74 76 77 77 73 72 72 72 76 76 73 73 77 79 
80 83 86 84 77 67 69 73 75 76 76 76 73 69 69 77 78 73 68 66 65 66 66 67 73 75 
81 85 84 78 73 72 71 69 70 74 74 69 62 60 65 69 70 69 72 76 77 71 60 60 62 63 
58 59 67 76 79 75 72 70 68 65 66 70 70 67 67 74 83 85 80 70 64 64 66 66 65 64 
61 58 58 66 75 75 70 69 70 68 68 73 76 71 62 62 67 69 68 69 75 80 80 77 71 69 
73 75 75 72 69 71 74 77 75 76 76 76 72 67 66 71 73 72 71 72 73 72 70 74 75 69 
61 58 59 62 71 72 72 77 81 81 78 77 79 78 75 68 67 71 72 67 61 61 66 69 67 67 
70 74 76 75 71 69 72 70 62 61 67 76 79 73 67 65 66 66 67 67 65 66 70 74 76 76 
72 66 61 61 64 67 69 69 66 60 57 63 73 76 72 69 69 68 71 76 75 62 51 55 66 72 
68 66 72 80 82 77 72 75 76 74 69 70 72 70 66 66 70 75 78 79 75 69 68 71 72 68 
65 67 71 74 71 76 75 68 61 59 63 69 77 76 71 75 74 70 68 70 77 79 77 70 65 65 
67 66 64 67 72 74 72 73 76 78 78 75 72 70 73 70 65 65 71 78 79 72 64 61 64 68 
67 64 61 64 68 67 64 64 67 66 63 61 62 64 68 71 69 63 59 62 70 73 68 65 64 66 
71 76 73 60 51 58 70 75 69 63 67 76 75 77 76 75 76 78 75 71 69 67 64 63 65 71 
78 81 76 70 69 72 74 70 66 67 70 74 74 79 78 75 71 69 72 76 76 76 67 67 64 61 
60 63 71 77 79 74 67 65 68 70 72 73 73 73 74 79 83 83 79 73 67 63 65 64 66 66 
71 76 77 70 63 61 66 71 69 62 58 62 64 62 58 62 68 71 69 67 66 66 68 70 67 63 
61 64 69 69 66 63 63 64 68 74 74 66 60 65 74 72 72 77 76 74 75 79 80 79 83 85 
81 74 71 70 68 64 63 69 78 82 78 70 68 71 74 73 70 69 69 71 79 79 79 82 82 79 
77 76 73 74 65 63 60 60 62 63 67 76 76 72 71 73 73 75 75 75 70 67 70 78 80 80 
81 77 64 59 66 68 70 71 68 72 74 71 65 67 72 76 72 63 59 63 68 63 63 69 75 76 
75 75 76 74 71 66 60 54 57 65 70 70 66 66 66 65 69 75 82 81 75 69 71 74 75 75 
73 70 73 77 79 80 83 86 83 76 73 74 73 67 61 66 79 86 81 74 70 69 70 71 71 68 
66 68 84 81 81 84 84 80 75 73 69 73 76 77 71 66 68 75 76 71 71 76 78 75 74 70 
73 72 67 68 70 70 71 73 73 69 66 69 69 70 70 72 72 73 75 72 69 69 77 75 67 65 
72 78 76 68 62 64 68 73 75 68 65 67 66 60 57 63 72 76 75 64 72 77 72 64 63 71 
78 77 72 74 76 75 73 71 69 69 71 75 78 80 83 84 81 74 72 74 75 67 58 62 77 86 
84 78 76 72 69 70 71 68 67 72 75 76 70 61 59 65 72 70 
