P2
112 112
255
59 58 60 57 61 70 73 69 66 62 59 62 63 61 56 56 59 64 67 70 72 76 79 75 70 70 
79 86 83 76 76 87 93 90 82 81 80 77 75 75 73 69 65 66 69 72 73 79 81 76 64 65 
73 75 69 66 71 75 77 77 75 74 71 70 69 68 66 67 70 72 74 76 76 74 77 83 81 73 
67 71 73 73 76 78 76 74 73 71 68 69 75 76 68 59 59 66 73 74 69 65 65 69 73 74 
76 82 89 85 76 70 68 63 44 43 78 72 67 65 66 70 77 78 75 75 75 74 71 69 63 60 
63 70 73 70 68 67 67 66 65 67 68 72 74 76 71 61 59 61 61 59 66 74 75 71 70 70 
71 70 71 74 76 76 70 63 59 60 64 67 71 75 76 69 59 60 72 81 77 69 68 70 73 75 
78 77 71 68 74 79 73 62 61 68 72 69 68 72 74 67 62 68 79 80 72 66 64 64 65 67 
71 74 74 69 61 59 65 76 84 82 78 77 83 83 74 58 52 51 78 75 71 70 71 74 74 71 
69 72 74 70 70 72 75 73 73 74 70 68 70 74 74 72 71 73 77 75 74 74 71 63 58 63 
67 69 75 81 82 78 76 72 66 63 64 68 70 69 66 63 63 66 70 71 71 75 80 72 57 56 
69 79 72 62 59 64 70 73 74 72 70 70 75 78 74 66 66 70 68 64 65 72 75 67 61 66 
77 77 70 62 60 65 70 70 66 69 72 74 71 68 69 73 79 80 74 72 75 79 75 63 63 63 
76 75 75 76 79 78 74 70 71 76 75 69 67 77 85 86 83 78 71 69 74 78 77 74 74 78 
80 76 71 73 75 68 61 63 69 73 78 83 84 80 78 72 64 61 64 68 69 68 68 70 72 73 
76 76 74 77 81 73 59 55 66 70 66 57 57 64 70 72 69 68 69 70 72 74 74 71 72 74 
71 65 64 71 76 73 65 66 72 74 70 63 60 66 73 67 61 60 68 73 73 70 67 68 75 80 
79 73 72 74 73 67 67 67 70 71 74 80 84 82 76 72 73 77 77 68 67 75 85 87 84 78 
70 68 73 76 74 73 75 79 80 75 70 73 76 70 62 62 67 69 74 81 83 82 80 73 65 61 
64 68 70 70 70 73 75 75 78 78 77 78 77 71 60 59 62 64 61 62 65 69 71 69 65 63 
66 68 68 70 72 71 72 73 73 69 66 69 76 76 70 68 70 74 74 69 63 65 67 63 57 61 
66 68 67 64 63 66 73 82 84 80 74 75 75 71 65 65 66 68 74 81 85 84 79 74 72 74 
76 72 69 72 79 81 80 76 70 69 73 74 73 74 75 76 75 73 71 73 73 68 63 65 67 66 
69 77 82 84 83 76 67 62 64 69 73 71 70 70 71 72 75 78 77 73 70 65 62 61 61 60 
63 68 71 70 67 65 62 63 67 68 68 69 69 68 67 69 72 71 66 66 72 74 71 68 71 75 
79 75 69 64 63 61 63 68 70 65 60 60 64 68 74 79 82 79 76 77 78 71 64 64 66 69 
74 80 82 81 78 73 69 70 74 76 72 73 75 76 76 76 76 76 76 75 74 74 73 70 71 73 
75 75 71 66 65 70 68 64 64 70 76 81 82 79 71 66 66 72 77 76 71 69 69 69 72 75 
73 69 65 65 66 65 62 61 65 70 71 66 64 63 63 65 68 69 69 69 68 66 65 66 70 72 
67 64 67 70 68 67 69 74 78 78 73 68 65 67 71 76 73 67 61 61 65 70 73 74 73 69 
68 73 76 72 74 74 68 69 73 75 75 74 73 70 67 65 70 73 72 71 72 72 73 77 82 82 
79 75 73 72 69 70 74 80 80 76 70 66 69 72 68 60 59 63 69 75 81 80 73 68 68 73 
79 76 71 69 68 67 70 73 72 67 68 73 74 68 63 62 66 70 70 70 69 68 65 64 66 66 
66 68 70 70 69 69 72 73 70 65 66 70 70 67 65 67 74 79 79 75 71 70 73 74 74 72 
70 65 62 63 67 70 68 63 62 66 73 76 83 83 70 69 70 71 70 69 69 69 66 64 65 68 
69 68 69 70 72 77 83 84 79 74 73 73 74 76 82 83 79 72 67 67 71 74 67 60 58 64 
68 72 78 78 69 61 62 68 71 66 61 62 62 63 68 74 72 66 70 79 80 72 63 62 64 68 
73 77 78 73 66 61 62 64 65 69 74 76 75 73 76 78 74 66 66 72 74 69 62 62 69 78 
83 79 73 68 67 67 70 76 77 67 57 53 60 67 70 67 63 64 71 80 81 81 69 70 71 71 
70 70 71 71 70 66 64 67 70 68 68 71 75 77 81 82 78 75 74 76 79 82 82 78 69 64 
64 68 76 78 74 67 68 73 72 72 75 74 63 53 55 62 61 55 52 55 57 59 67 75 72 64 
67 76 80 75 69 65 64 67 73 79 80 76 68 64 65 68 71 74 77 79 77 75 77 80 74 64 
61 68 74 71 65 63 68 77 81 79 72 67 65 65 69 77 78 71 58 53 58 68 72 72 70 69 
72 78 74 74 64 68 72 72 73 75 75 75 74 69 66 71 74 70 68 74 78 78 78 79 78 76 
76 77 79 78 74 66 61 62 66 73 79 83 80 77 80 81 77 72 74 74 65 56 56 60 59 54 
56 60 61 61 68 76 74 68 65 71 75 75 73 70 65 66 72 77 79 79 77 73 70 73 75 76 
76 77 74 71 72 73 68 59 56 63 69 71 68 68 70 74 78 77 73 71 71 71 72 73 75 71 
68 65 68 71 70 69 71 74 73 73 73 73 57 64 68 70 72 74 75 75 73 68 65 71 74 68 
65 73 80 81 78 79 79 79 80 81 77 71 65 61 60 64 71 76 80 82 78 77 81 83 77 71 
73 73 68 62 62 65 63 64 68 71 68 64 68 75 78 75 73 71 71 70 70 67 63 64 69 74 
80 85 85 78 71 71 73 73 72 74 72 66 65 66 63 57 58 64 68 68 67 68 69 71 72 72 
73 75 76 75 73 70 68 69 71 76 78 74 66 62 69 75 74 71 74 74 55 60 64 67 69 68 
68 70 71 67 65 69 71 64 63 70 81 80 77 76 78 82 87 87 79 68 62 60 63 67 73 78 
81 76 68 66 71 73 69 67 69 69 66 64 66 67 67 69 74 75 70 66 67 72 77 79 78 74 
68 64 63 61 59 58 62 68 75 83 84 76 69 70 73 68 67 70 70 65 63 64 62 63 67 72 
70 64 62 64 67 67 65 65 69 74 75 74 71 68 66 65 68 74 79 74 64 61 69 76 75 73 
71 72 62 63 66 69 67 62 61 67 72 71 69 73 73 69 67 75 78 75 72 71 73 79 86 87 
78 67 61 62 63 66 73 81 82 73 62 59 63 64 62 64 66 65 62 64 66 66 65 68 72 74 
72 70 71 72 72 72 73 71 67 63 62 60 56 52 53 57 64 70 73 71 70 74 73 66 60 62 
65 64 64 67 66 66 71 76 73 66 62 64 68 68 64 61 66 72 75 73 70 69 69 68 65 68 
73 73 67 66 72 76 74 71 65 65 73 70 71 73 69 62 60 67 72 73 74 77 77 74 75 77 
75 69 67 67 69 73 78 78 73 66 65 65 64 64 70 79 82 74 65 64 67 65 62 64 66 64 
63 65 67 66 65 68 73 76 77 76 75 72 64 58 57 60 63 62 61 58 53 49 48 51 55 59 
66 70 75 76 72 62 55 56 58 60 64 67 67 65 68 73 74 71 68 68 69 69 68 66 66 70 
74 73 70 70 75 75 70 65 69 73 72 72 73 72 68 66 61 61 80 73 73 77 75 69 66 69 
69 68 71 74 74 74 74 72 68 66 68 71 73 75 74 71 69 70 72 71 64 61 66 75 77 73 
70 71 75 70 64 63 65 64 64 69 73 74 73 74 77 80 78 75 72 66 55 46 45 51 55 55 
52 51 50 50 53 56 56 58 65 73 75 72 63 56 53 54 56 58 63 67 67 64 65 70 75 76 
74 71 68 68 72 73 70 67 69 72 69 69 75 81 76 70 70 73 73 72 70 67 63 62 62 62 
78 72 71 76 79 77 75 72 68 67 69 70 69 69 68 62 62 67 73 78 80 79 73 68 69 74 
78 74 64 60 64 71 72 70 70 74 75 70 63 61 63 65 67 73 80 84 82 79 78 76 71 63 
60 57 49 41 42 46 49 47 46 46 49 54 58 60 58 56 61 68 71 65 57 52 52 54 58 63 
67 70 68 65 66 71 76 78 76 72 66 67 74 78 72 64 65 69 67 63 67 76 76 72 70 72 
72 70 69 66 63 63 67 68 79 74 69 70 72 75 76 73 70 71 74 72 70 70 66 59 59 69 
76 79 79 74 67 65 69 76 80 76 68 63 66 70 70 69 69 71 72 68 61 60 64 67 69 73 
80 85 82 76 71 66 56 50 49 51 47 42 42 44 46 48 49 52 53 55 58 58 53 48 51 58 
64 63 58 54 53 55 61 70 75 74 71 66 65 71 76 78 77 74 70 70 74 78 74 67 67 71 
71 62 60 63 68 68 69 70 71 72 72 69 66 67 76 76 82 77 69 63 64 68 73 72 70 75 
79 78 73 74 70 61 60 66 73 75 72 65 61 62 69 74 77 78 75 70 66 65 65 66 67 68 
69 68 64 62 65 67 66 67 70 73 71 68 64 55 45 40 45 49 47 43 41 43 46 50 53 54 
54 53 54 53 49 45 45 52 60 66 64 59 57 58 65 72 75 75 71 66 66 71 76 76 76 76 
76 76 76 75 74 71 71 74 75 71 63 61 61 65 68 69 71 75 75 70 68 71 79 80 79 76 
68 61 63 70 76 75 71 71 77 76 75 77 74 65 61 65 71 73 71 67 64 68 70 68 68 75 
77 71 62 55 56 59 62 63 66 69 69 66 66 65 62 60 62 62 62 64 61 51 39 37 42 45 
44 41 43 46 49 50 47 46 47 49 50 49 48 48 50 53 60 67 67 63 61 63 67 69 69 72 
74 72 72 76 78 76 74 76 79 80 76 71 69 70 70 70 73 74 73 68 67 68 69 67 67 71 
72 67 68 73 77 77 73 74 68 65 69 77 83 83 74 68 69 72 74 76 74 69 66 69 75 79 
78 76 76 77 74 64 62 68 74 68 57 51 52 57 59 60 63 69 70 69 66 63 61 62 64 62 
61 63 61 50 40 38 41 40 38 42 49 56 58 53 44 39 41 46 47 44 42 49 53 55 58 62 
63 60 61 65 67 64 64 70 75 76 78 80 81 77 76 76 78 79 75 69 67 69 68 65 64 69 
74 75 73 72 67 62 60 66 68 68 70 75 73 73 71 72 69 68 72 77 82 84 76 69 71 75 
76 74 73 71 72 77 81 81 80 79 80 80 75 69 66 69 70 64 58 56 59 61 61 59 61 64 
68 68 65 60 59 65 70 65 58 56 54 48 43 44 45 41 42 50 60 67 71 68 60 52 49 49 
49 43 42 48 55 56 55 56 55 53 56 61 63 62 64 69 73 73 73 76 77 77 77 77 75 76 
76 73 71 73 74 68 61 63 70 74 72 69 65 59 60 66 72 73 76 76 73 73 69 70 69 69 
69 68 71 77 79 77 80 85 82 77 75 76 78 80 79 74 71 72 74 73 72 71 72 72 68 62 
59 61 64 65 63 60 58 60 65 68 64 56 55 64 70 64 54 48 46 44 46 53 56 56 58 68 
77 83 87 93 89 77 63 57 54 53 52 55 59 58 55 52 50 49 52 56 57 60 64 70 71 68 
66 68 71 72 73 71 68 71 77 78 75 77 80 75 68 64 68 68 68 67 67 67 68 73 77 78 
78 77 75 75 68 69 68 69 69 65 64 73 81 85 86 87 86 82 80 81 81 78 69 62 61 67 
69 69 68 71 71 67 62 58 58 61 64 66 65 61 58 60 67 72 67 57 53 59 64 60 53 48 
45 44 50 62 70 75 81 91 99 103 109 111 109 94 75 60 56 59 64 65 63 59 55 52 50 
52 55 55 54 55 62 69 73 70 66 65 67 66 64 62 61 67 76 77 74 74 76 76 72 68 64 
62 62 68 76 79 78 75 75 76 76 73 73 73 74 71 68 68 70 66 67 74 86 86 83 83 83 
81 80 82 83 76 65 57 60 68 74 73 73 71 65 59 55 57 59 60 62 65 66 63 61 64 70 
73 68 61 58 58 58 55 52 49 46 44 51 65 81 94 106 117 126 130 127 121 110 97 79 
61 50 53 61 65 60 54 52 53 55 60 62 59 53 54 59 68 73 72 68 66 65 61 57 56 59 
67 73 74 71 69 70 70 70 65 59 55 59 68 79 84 80 71 69 72 73 71 73 73 79 76 69 
65 67 69 71 79 84 83 78 78 78 74 70 75 82 80 70 62 63 69 75 79 81 78 66 57 59 
65 67 64 61 62 63 63 64 66 68 69 67 65 63 61 55 51 48 45 42 42 49 65 90 114 
132 146 155 155 144 122 105 93 81 62 46 43 49 54 51 47 48 53 58 64 66 59 53 55 
62 67 70 68 64 63 61 56 52 53 60 68 73 72 71 71 69 68 67 65 60 61 65 70 75 81 
78 70 67 72 76 73 76 76 77 75 68 63 66 73 78 80 80 77 77 79 77 67 59 64 76 84 
78 69 64 65 69 77 83 80 71 65 69 78 78 69 61 58 59 63 64 64 64 67 68 67 66 63 
56 49 43 40 40 44 53 71 98 131 154 168 176 174 155 125 100 86 74 59 44 34 35 
38 40 40 46 53 59 65 63 56 52 59 66 69 68 63 59 59 58 53 48 50 57 66 71 72 72 
75 76 72 69 66 69 75 79 74 72 77 81 76 73 78 82 80 78 77 67 67 66 67 73 81 83 
80 74 73 76 79 76 64 55 56 69 79 79 72 64 61 64 71 76 74 70 68 76 84 82 71 61 
59 62 64 61 58 61 68 71 67 65 63 58 47 39 36 42 52 65 82 112 142 166 179 187 
182 159 127 98 77 61 48 37 27 22 25 30 37 45 53 58 62 61 54 55 64 71 71 68 62 
58 57 60 56 51 51 56 62 68 70 72 77 80 77 70 68 74 85 86 78 73 79 88 86 81 81 
83 81 75 74 60 60 67 74 81 85 83 74 69 69 74 75 70 63 55 55 61 70 73 69 63 62 
65 68 67 65 64 67 74 80 78 68 63 65 69 64 54 49 56 67 69 65 63 64 57 46 34 32 
37 53 72 96 123 152 174 186 192 184 159 125 95 70 50 39 32 23 16 19 28 39 48 
52 55 60 61 58 61 69 73 69 66 63 59 61 65 63 58 58 60 63 67 69 71 74 78 76 71 
70 77 84 84 78 76 85 93 92 84 80 79 77 72 72 62 61 71 79 83 82 76 68 65 70 74 
72 67 61 57 56 60 65 67 66 63 64 68 69 66 62 62 63 68 75 72 63 60 66 69 60 48 
43 54 65 69 66 66 65 59 48 38 31 34 47 72 100 130 160 183 195 196 183 156 122 
92 66 47 39 35 27 21 24 34 46 52 50 50 55 59 61 64 71 72 67 62 59 60 63 67 65 
62 63 65 65 67 69 69 69 72 73 72 72 76 80 79 75 77 84 90 88 83 79 77 73 73 72 
69 70 77 83 81 76 72 67 68 73 76 72 65 61 61 63 66 67 66 66 66 68 71 71 68 66 
65 64 67 70 67 58 54 59 62 57 49 50 58 68 70 70 68 66 61 58 52 45 40 51 72 101 
132 164 187 197 195 179 152 120 90 64 49 43 41 36 31 32 41 52 56 51 47 51 57 
59 62 69 72 68 59 55 56 61 63 61 59 62 65 63 64 67 66 66 68 71 71 69 72 75 76 
74 74 76 79 81 81 81 80 77 77 76 76 76 80 82 77 73 72 71 70 71 73 69 64 64 69 
73 72 69 67 70 75 76 74 71 69 70 71 69 67 67 64 55 51 52 55 55 55 57 65 71 71 
68 63 61 64 67 65 57 58 68 86 106 134 162 183 191 187 172 147 121 94 69 54 48 
44 39 34 34 40 50 55 51 47 52 59 58 57 61 70 69 61 53 53 58 60 58 57 61 62 60 
61 65 68 68 71 72 67 64 65 74 79 79 73 70 74 80 83 83 83 80 77 76 75 75 78 77 
73 72 74 73 68 66 67 65 64 70 78 80 75 68 68 75 81 81 73 67 65 69 74 74 70 68 
63 57 51 48 49 51 52 55 63 68 67 60 54 57 64 70 65 62 69 88 102 117 137 162 
177 184 181 167 149 131 110 85 69 58 49 38 33 32 36 42 47 43 41 48 55 55 51 56 
64 67 61 55 56 61 64 64 65 65 62 58 62 69 72 72 74 72 66 60 65 76 86 84 74 69 
75 86 87 83 80 80 74 74 72 72 74 74 71 72 75 75 69 66 66 65 64 71 81 82 73 67 
69 75 79 75 67 59 59 64 70 72 70 68 66 62 55 48 44 44 45 48 56 64 64 58 54 57 
67 69 64 61 75 95 111 124 144 165 178 185 185 175 163 154 136 113 96 83 65 49 
40 38 37 37 36 32 31 37 45 47 46 51 58 62 59 60 65 69 71 73 75 74 65 61 65 74 
76 72 70 69 64 63 69 80 88 82 71 64 75 88 90 82 76 76 74 74 74 72 72 72 71 72 
75 75 72 71 70 67 62 66 74 74 69 66 69 71 69 66 60 56 56 59 62 62 64 66 69 68 
64 54 48 48 48 51 57 66 70 69 67 69 73 75 69 67 77 93 109 129 152 173 185 195 
200 196 191 186 169 146 130 119 99 78 66 59 51 43 34 28 28 33 40 41 42 48 55 
56 57 63 72 74 74 76 82 79 71 65 71 78 76 68 63 64 66 69 75 81 83 77 63 57 69 
84 88 80 75 74 77 77 75 70 67 67 70 72 72 69 67 68 70 67 62 62 67 68 66 68 70 
68 66 65 64 62 59 57 54 54 57 64 69 73 71 65 62 61 61 58 61 71 80 84 84 83 83 
83 79 76 78 88 105 130 158 181 197 213 223 224 222 217 202 177 165 157 140 119 
105 91 74 57 44 37 36 41 44 42 41 46 52 54 57 67 75 75 71 74 79 79 73 73 78 80 
75 64 60 65 72 78 79 79 77 71 59 55 61 75 79 77 74 75 80 80 73 68 63 64 70 73 
69 61 58 62 67 68 65 65 67 68 70 72 73 73 74 76 75 70 65 57 52 51 55 60 65 70 
73 73 73 73 67 61 63 73 86 93 94 93 93 91 85 79 81 90 106 130 159 185 208 231 
245 248 247 243 229 210 199 192 176 156 137 117 92 70 54 44 42 45 45 42 41 46 
52 56 61 71 79 77 72 70 71 70 71 77 82 81 71 62 59 66 78 83 81 74 72 70 63 57 
60 66 71 72 75 78 81 81 73 70 66 67 73 76 69 59 56 62 69 72 69 66 66 69 73 74 
75 80 86 86 79 73 68 62 56 55 56 57 61 67 72 75 77 74 66 61 66 81 93 96 95 97 
100 96 86 82 88 99 112 132 156 183 212 238 253 255 255 255 251 241 232 220 202 
179 157 129 101 76 57 44 37 34 34 35 40 48 55 58 63 71 79 80 77 72 66 62 65 73 
78 74 66 60 57 63 73 80 75 69 69 72 70 64 64 65 66 70 78 83 78 77 74 73 71 70 
73 75 69 63 62 69 75 75 70 63 61 67 73 74 75 82 88 83 72 67 68 67 63 61 60 62 
67 74 77 78 78 75 69 69 80 94 102 100 97 100 104 97 86 85 95 107 118 133 154 
182 212 234 246 251 255 255 255 255 255 242 222 199 173 142 109 83 61 43 30 21 
18 24 37 52 58 59 60 66 73 79 80 78 68 61 61 67 68 67 64 61 58 58 64 68 66 63 
65 74 77 75 72 68 65 68 78 82 71 71 70 73 74 71 68 66 66 66 70 74 75 72 66 60 
59 65 74 76 76 80 82 74 63 60 65 67 66 64 66 72 80 85 84 81 79 76 74 81 94 104 
106 103 99 101 101 93 85 88 99 109 119 131 152 182 210 226 231 238 248 255 255 
255 255 255 239 220 196 164 131 100 72 46 27 14 11 19 36 50 57 56 57 64 70 75 
80 79 72 63 62 63 63 63 67 68 64 61 62 63 62 59 66 77 82 81 77 71 64 64 72 74 
70 70 65 72 78 73 64 61 63 71 76 75 70 68 66 62 60 65 74 79 79 77 76 68 59 56 
59 62 62 63 68 78 88 91 87 82 79 76 77 85 97 102 102 100 98 95 90 85 83 90 100 
109 116 127 146 174 202 214 218 223 233 239 247 255 255 255 255 243 224 196 
164 130 94 59 33 17 14 23 36 46 48 50 56 66 73 75 76 76 70 64 65 66 65 66 69 
71 69 69 69 67 63 63 68 76 80 77 74 69 63 64 69 71 76 77 62 75 83 77 65 59 66 
76 80 74 66 66 68 67 63 64 71 78 77 73 70 64 57 51 52 56 58 59 64 76 88 92 87 
82 82 80 80 85 92 95 94 93 89 83 78 77 81 87 95 104 114 123 135 156 178 192 
199 207 214 217 227 247 255 255 255 255 251 228 198 166 128 85 49 25 19 27 39 
42 40 41 51 65 74 74 72 70 65 64 68 72 71 68 67 65 67 70 73 70 67 66 68 72 70 
66 65 65 64 66 72 75 81 81 67 77 82 77 66 63 69 78 80 74 68 67 73 71 66 64 71 
74 72 67 64 59 52 46 47 54 58 57 60 73 88 93 88 85 87 89 89 89 91 91 91 88 81 
74 73 77 80 81 84 94 108 119 125 134 152 168 181 189 194 197 210 235 255 255 
255 255 255 255 231 201 162 115 69 34 19 26 37 40 37 38 46 58 68 70 68 64 62 
63 69 74 74 70 65 61 61 66 69 69 68 67 66 66 62 57 59 63 65 68 74 79 80 80 69 
77 78 74 69 67 70 75 78 77 73 75 78 75 69 69 73 74 67 62 60 58 51 46 47 53 56 
56 61 75 92 97 93 88 91 93 92 89 87 88 90 88 79 72 73 79 80 76 72 81 99 114 
121 129 143 160 171 174 173 179 199 226 254 255 255 255 255 255 255 223 182 
134 83 42 19 20 31 38 39 42 47 53 60 63 61 57 56 60 65 69 70 69 66 61 60 62 66 
70 73 70 68 67 64 61 62 67 67 68 73 78 76 76 68 75 77 77 75 73 70 71 75 80 81 
81 82 78 72 71 74 72 63 58 59 59 56 52 50 50 53 59 68 83 96 101 96 92 90 89 86 
82 79 81 85 85 78 70 70 74 77 73 69 74 94 114 126 137 151 163 166 159 152 161 
184 214 243 255 255 255 255 255 255 231 184 134 85 44 19 13 21 30 41 50 56 56 
57 58 57 51 49 51 56 59 62 64 64 62 61 63 69 76 79 77 73 74 74 71 70 71 69 69 
71 75 71 71 68 73 78 81 80 75 69 67 73 80 83 82 82 78 71 69 71 68 61 57 60 62 
58 52 48 47 54 66 82 92 98 99 97 93 89 84 78 73 70 72 77 78 71 63 58 61 66 68 
67 75 96 118 133 143 151 155 152 141 134 141 165 196 227 255 255 255 255 255 
255 228 177 124 77 39 16 8 11 23 39 55 61 62 62 63 61 55 49 47 50 53 55 59 61 
61 61 65 71 76 79 78 77 79 80 76 72 70 69 70 71 71 65 65 67 70 77 82 81 76 69 
68 71 77 79 78 79 77 72 69 70 67 60 59 62 62 55 47 46 48 57 72 85 93 95 94 92 
90 87 82 77 72 70 70 72 70 61 53 48 48 52 56 61 75 99 121 135 140 138 135 132 
125 118 124 147 179 212 245 255 255 255 255 255 216 164 110 65 32 13 4 8 21 40 
53 60 63 67 71 72 67 59 56 56 57 57 59 62 62 64 66 66 68 72 76 77 77 76 72 68 
67 70 74 73 69 63 63 69 68 76 84 83 77 75 73 73 74 74 74 76 76 74 72 73 68 60 
59 63 64 55 49 50 56 62 68 78 86 91 91 89 88 87 83 79 77 75 73 70 62 53 47 43 
40 40 44 53 74 99 122 134 137 130 124 120 114 107 113 135 167 201 235 255 255 
255 255 236 194 144 96 56 30 15 9 13 28 42 49 53 60 66 70 73 72 70 67 66 64 64 
66 69 69 67 66 64 64 70 76 77 73 70 68 66 67 74 80 78 70 69 69 71 69 77 83 81 
78 78 77 73 71 69 68 69 73 73 74 74 68 61 58 65 66 61 56 60 65 66 67 72 80 87 
92 92 93 92 87 84 83 80 75 67 58 49 43 38 34 32 37 51 72 96 117 133 138 135 
127 121 109 98 103 127 158 191 225 255 255 255 243 208 166 122 80 50 33 23 19 
25 36 44 46 49 56 61 62 60 64 68 70 68 64 64 70 74 72 69 67 67 69 74 80 77 71 
69 71 71 70 75 81 81 74 77 77 71 68 73 76 74 72 75 74 71 68 66 59 61 67 73 73 
73 72 68 69 73 73 66 62 64 69 71 73 75 78 84 91 95 97 96 92 90 89 85 77 69 60 
51 41 34 28 29 36 51 70 89 108 126 137 137 132 120 105 93 100 122 150 178 211 
241 255 244 217 181 140 96 61 41 35 32 31 33 40 45 49 53 58 59 54 51 54 62 67 
66 62 63 70 74 72 67 69 72 74 78 77 73 68 71 77 77 74 72 77 79 78 80 80 68 65 
67 69 67 66 69 70 70 71 65 57 56 66 72 69 71 78 82 84 84 80 69 61 61 66 73 79 
81 78 79 84 88 91 93 94 96 98 93 85 78 71 58 43 30 25 25 32 45 62 80 100 118 
130 130 124 113 99 96 105 125 147 170 196 217 225 211 186 154 115 71 37 25 28 
33 34 36 40 49 58 64 64 60 56 51 52 59 66 68 65 65 69 71 68 68 70 73 74 73 69 
64 64 70 77 79 74 71 74 80 83 80 79 67 66 70 75 73 69 68 70 74 74 67 57 57 66 
68 63 65 78 89 92 89 81 69 60 57 60 66 73 78 79 77 78 79 82 88 96 104 107 102 
94 88 80 65 45 28 19 17 22 33 52 75 97 115 120 117 109 100 98 102 115 132 152 
170 185 196 194 177 152 125 90 50 19 9 17 28 33 35 41 53 66 71 67 62 59 55 53 
55 64 68 69 67 67 62 61 64 70 73 73 70 63 60 61 66 71 74 73 70 73 82 84 77 76 
72 71 77 83 80 72 67 70 72 70 62 54 57 65 65 58 58 71 84 88 86 80 70 61 56 53 
53 57 68 76 80 78 78 82 91 101 108 111 106 100 92 83 67 46 27 14 11 15 28 49 
76 101 114 116 106 99 96 100 111 123 139 158 175 182 182 173 150 120 93 65 33 
11 6 14 26 34 38 46 58 68 71 67 62 59 54 50 52 59 65 68 68 61 53 51 61 70 76 
77 73 66 63 65 67 67 70 72 68 70 78 84 77 76 79 75 76 78 74 64 62 65 67 62 57 
54 57 65 67 62 60 68 78 83 83 79 72 63 56 50 44 46 56 72 78 79 80 87 95 102 
107 108 106 101 92 80 65 48 28 14 10 18 33 55 80 105 120 118 110 104 104 112 
123 134 149 169 184 187 180 164 134 97 66 41 22 11 12 20 31 41 48 56 62 67 67 
64 60 57 52 50 54 59 62 67 68 61 49 48 58 70 79 83 79 72 68 70 71 70 72 73 67 
67 74 81 79 79 81 76 72 68 63 59 59 64 63 62 61 63 64 68 71 70 68 71 77 79 78 
75 70 63 57 52 49 47 54 63 70 73 77 85 91 96 101 106 106 101 90 76 62 47 29 12 
9 20 41 64 88 114 131 135 129 124 125 133 144 156 172 192 205 203 192 171 136 
92 56 32 17 13 16 25 38 51 61 65 66 64 65 63 60 57 56 59 63 65 66 68 70 63 54 
52 57 66 76 83 81 73 70 71 72 74 78 78 73 68 75 81 78 78 79 78 74 70 67 65 67 
68 66 64 68 71 71 70 72 74 73 73 74 73 69 64 61 59 57 56 56 54 54 57 60 64 69 
76 81 87 94 102 106 100 87 72 58 43 24 7 4 20 47 76 106 134 155 162 160 155 
155 162 174 188 206 224 234 229 215 190 150 103 66 39 20 8 11 24 42 59 67 69 
64 62 64 66 63 60 62 67 71 71 70 71 69 63 58 57 58 60 68 76 78 72 68 67 69 74 
80 83 79 75 76 79 72 72 76 80 81 79 77 75 74 70 66 66 70 73 73 71 73 75 74 70 
69 66 59 52 52 54 56 59 60 58 54 53 54 58 63 68 74 80 89 98 103 99 86 71 57 40 
21 6 7 27 59 98 135 167 189 197 198 195 193 196 205 218 234 255 255 255 239 
207 164 118 80 50 20 2 1 22 45 60 65 63 59 57 62 66 63 60 61 66 67 67 68 71 69 
62 59 62 62 62 64 70 72 70 66 63 64 70 79 83 82 79 76 74 69 68 75 78 79 80 80 
78 74 70 66 67 70 72 73 73 74 74 70 65 63 61 55 47 46 52 57 60 63 61 59 57 57 
58 61 65 71 79 87 96 101 98 86 74 62 46 29 20 26 47 81 126 171 206 225 232 234 
234 232 230 230 236 252 255 255 255 253 217 171 125 87 52 21 0 3 24 46 55 53 
52 52 54 58 60 57 53 54 58 59 58 61 69 72 65 61 64 68 67 66 66 67 67 66 63 63 
69 75 79 80 78 76 72 73 73 76 75 74 75 76 76 73 71 71 72 73 72 73 73 72 69 64 
59 59 61 58 49 46 52 59 63 64 65 64 63 61 59 59 62 70 79 88 96 101 96 87 80 75 
63 49 44 52 70 103 149 200 236 252 255 255 255 255 255 250 250 255 255 255 255 
252 215 171 127 85 51 25 13 16 30 45 47 44 44 51 54 54 55 52 48 49 52 54 52 55 
66 74 71 65 66 68 69 68 68 68 69 69 67 67 71 73 74 73 75 75 75 77 78 79 77 73 
71 73 73 73 76 79 79 74 71 71 72 69 64 59 56 60 65 64 56 52 56 62 64 63 63 65 
64 61 58 57 58 66 76 87 97 99 93 86 88 91 83 72 69 77 93 120 167 216 252 255 
255 255 255 255 255 255 255 255 255 255 255 233 201 166 124 83 50 34 30 30 36 
42 45 44 48 57 59 58 58 56 53 49 51 54 53 56 64 73 74 71 66 65 64 67 71 74 74 
72 71 74 76 75 70 68 68 71 74 75 76 83 82 74 69 68 69 72 78 83 80 73 68 70 71 
68 64 61 61 65 68 64 58 55 59 63 62 58 56 57 57 55 54 54 56 63 75 88 96 96 89 
85 94 101 98 89 90 101 116 141 179 222 253 255 255 255 255 255 255 254 248 250 
253 247 228 203 178 150 116 77 48 36 36 35 38 45 51 54 58 63 63 62 64 66 62 55 
54 58 61 61 62 66 70 71 68 62 60 64 72 76 76 71 71 76 79 74 68 65 67 67 70 72 
73 84 83 74 68 69 72 75 79 80 77 70 66 68 69 69 67 66 66 68 65 57 52 54 59 62 
60 53 48 47 47 47 50 52 55 62 75 87 93 91 88 91 99 106 103 99 106 122 139 160 
188 220 246 255 255 255 255 255 247 233 224 223 222 213 194 172 149 125 96 66 
42 31 31 34 41 52 58 61 62 63 61 59 62 68 66 62 60 67 71 69 61 58 61 68 69 64 
62 65 70 74 72 67 66 72 74 69 65 69 72 70 68 69 69 79 81 77 75 77 83 84 80 75 
71 70 70 68 68 69 68 66 65 65 59 50 47 54 62 64 59 52 46 44 44 47 51 53 53 60 
71 82 86 87 92 101 110 110 106 107 120 137 154 171 193 217 239 252 254 248 242 
234 220 202 191 187 183 172 156 139 119 95 72 52 37 29 28 35 48 58 61 60 58 57 
55 54 57 60 63 63 67 74 78 75 64 58 60 67 69 69 69 70 69 71 69 63 59 65 69 65 
66 76 81 74 67 66 66 69 80 83 81 84 88 87 77 67 65 72 75 72 68 67 68 64 63 62 
58 51 54 64 71 68 61 55 51 50 51 54 56 53 50 54 64 73 79 86 98 111 116 114 111 
118 132 148 162 177 195 215 235 247 244 229 215 200 181 162 150 145 138 126 
113 102 89 71 52 43 39 35 34 40 52 61 62 58 55 54 53 55 56 58 59 61 66 72 77 
75 71 67 70 71 69 69 74 74 71 71 72 63 56 61 69 71 73 81 85 74 66 69 69 63 78 
83 79 78 81 78 69 61 63 74 79 75 68 68 69 68 66 65 62 60 64 77 81 74 64 59 57 
55 56 58 56 51 48 49 57 67 76 87 100 110 114 112 115 127 144 157 170 184 198 
215 233 242 234 212 185 161 139 117 104 99 95 84 71 66 62 54 43 40 43 44 43 45 
54 62 66 63 59 56 59 62 65 64 62 61 63 68 73 76 75 76 77 74 68 68 74 77 73 74 
76 67 58 63 76 81 82 85 81 73 66 76 77 61 74 77 73 72 74 72 66 63 68 75 79 76 
73 73 73 71 71 70 67 65 71 80 83 75 67 63 58 54 51 52 51 49 48 49 54 64 76 85 
94 101 105 108 115 130 146 161 176 192 207 221 234 239 229 202 168 136 108 84 
68 63 65 57 47 42 45 43 38 38 44 48 47 49 54 64 69 68 62 62 66 72 73 71 67 63 
63 68 73 75 73 72 72 70 68 70 77 79 74 74 74 69 61 66 80 89 89 84 78 71 73 81 
81 61 70 74 73 75 75 74 71 70 70 73 75 78 80 80 76 73 71 72 70 69 69 73 72 69 
67 66 59 50 47 47 48 48 48 48 51 62 71 77 81 88 96 103 111 122 137 154 173 194 
214 231 243 246 237 211 173 135 103 76 55 49 50 48 38 36 40 40 35 34 41 47 50 
53 58 64 67 64 61 64 73 76 72 67 63 60 59 63 68 67 62 60 62 68 71 75 80 80 78 
72 71 67 63 67 79 89 87 80 72 72 77 79 78 62 67 71 75 78 77 72 72 70 66 65 71 
78 84 84 79 71 69 71 73 72 69 64 60 59 65 69 64 56 52 53 51 48 48 47 49 54 60 
60 64 74 86 94 101 110 123 141 163 186 211 234 252 255 251 230 195 158 121 89 
64 51 49 45 39 38 41 40 35 33 37 45 54 61 64 64 61 59 59 68 74 73 64 57 56 54 
53 53 56 56 54 55 64 73 78 78 78 80 80 76 70 66 65 70 78 82 80 73 69 73 79 78 
77 67 66 69 73 76 72 69 69 66 59 59 67 76 79 80 77 71 68 70 72 73 71 65 58 57 
66 74 72 65 63 60 55 49 47 46 45 45 43 43 49 63 76 84 89 99 114 133 154 177 
202 229 251 255 255 242 219 187 151 115 85 67 59 51 43 41 42 42 38 36 38 46 56 
66 67 62 59 60 65 69 71 65 56 54 55 55 51 49 50 53 56 65 74 81 79 74 73 76 82 
81 75 70 72 76 79 77 73 69 70 76 79 81 81 70 64 63 68 72 71 70 70 66 60 61 71 
75 73 71 70 68 67 68 71 73 74 73 68 67 71 78 76 71 65 60 55 50 47 44 40 33 28 
30 42 57 71 79 86 96 111 131 154 176 200 224 246 255 253 244 234 214 181 144 
112 92 77 63 51 44 43 43 45 46 48 50 58 66 66 59 59 65 68 68 65 61 56 55 59 58 
53 49 50 55 64 74 83 81 74 68 68 73 80 84 79 74 77 81 80 76 71 69 71 77 81 86 
86 68 59 58 64 72 75 75 75 71 66 70 78 78 71 65 63 61 62 67 71 75 76 75 76 77 
79 78 77 71 63 55 51 49 46 42 34 25 21 28 43 60 76 87 95 103 115 132 155 180 
202 221 238 248 250 247 245 233 204 168 138 115 94 75 61 52 46 47 53 60 61 60 
60 65 64 59 61 64 65 62 64 65 61 58 58 57 53 49 51 55 64 75 81 75 66 63 67 72 
77 79 77 73 73 77 78 75 71 67 68 74 82 85 85 64 59 60 66 74 75 75 78 77 74 76 
81 82 74 68 63 60 60 64 72 77 73 68 71 79 80 78 76 73 63 54 50 48 44 39 33 26 
26 38 56 75 95 110 118 122 126 135 151 175 195 210 225 239 247 249 250 239 212 
179 151 128 103 82 68 58 51 49 54 63 68 63 59 62 64 64 62 61 56 58 64 69 64 59 
57 56 53 52 53 55 59 70 77 75 66 65 69 73 75 75 72 67 64 68 72 74 70 66 66 74 
82 76 76 66 66 68 72 74 71 71 77 82 80 78 81 81 79 74 70 65 60 61 69 76 71 61 
62 72 77 75 74 74 65 55 49 45 41 39 36 35 42 59 81 107 131 149 157 154 147 143 
148 160 174 188 205 227 240 245 245 234 207 175 149 127 104 82 67 58 51 46 47 
56 61 57 51 54 62 65 64 60 55 54 61 64 62 60 63 64 61 61 62 58 60 69 82 83 77 
71 72 75 76 75 71 65 63 66 73 75 73 69 71 76 78 65 64 72 74 75 75 72 69 68 76 
82 82 79 79 79 78 77 74 68 61 56 62 71 69 60 59 67 72 70 71 69 63 52 45 42 40 
39 39 44 59 86 118 150 178 197 205 195 178 160 149 147 151 163 185 210 228 234 
232 220 193 160 135 116 97 76 60 51 49 47 48 52 55 51 47 49 55 60 65 67 63 59 
58 60 62 68 73 73 69 69 68 64 64 76 89 92 86 78 75 76 77 73 68 68 69 75 79 79 
74 71 72 74 71 62 62 78 78 74 72 70 70 70 74 78 77 75 74 74 74 73 69 63 58 55 
58 64 67 62 61 65 67 68 69 67 57 48 43 42 43 43 43 50 74 111 151 187 216 236 
241 231 205 180 158 142 135 141 162 188 209 215 211 197 171 142 117 101 87 71 
53 45 51 58 60 59 59 58 56 52 49 54 63 71 71 65 62 64 71 78 81 77 71 69 68 65 
69 80 89 89 84 80 76 75 72 64 62 66 74 78 79 74 69 66 67 67 64 67 67 78 75 70 
67 70 72 73 73 74 72 67 66 67 68 67 61 57 58 62 64 66 65 63 63 63 64 68 73 68 
59 52 48 48 50 52 51 58 86 128 172 207 235 255 255 248 223 195 169 144 127 124 
134 157 179 189 183 167 148 127 107 91 81 69 51 42 48 63 67 64 64 66 65 56 49 
50 59 66 67 64 63 68 76 82 83 77 70 66 65 65 70 79 80 77 76 76 74 72 67 61 58 
64 71 74 71 68 66 65 65 65 65 75 75 76 73 66 67 71 74 72 72 75 74 67 61 62 65 
63 59 58 63 71 75 72 67 63 61 59 58 67 73 69 63 62 59 55 54 57 57 66 93 138 
180 215 244 255 255 255 234 206 176 146 122 109 110 124 147 161 158 146 133 
122 104 87 76 65 49 36 41 54 58 57 57 61 59 56 52 53 54 57 59 60 60 64 70 76 
79 78 73 69 69 69 73 74 72 70 72 74 70 70 71 70 69 71 72 69 68 69 72 72 70 70 
72 79 79 78 74 70 70 72 71 68 70 77 79 72 64 63 64 63 60 61 67 74 77 75 68 62 
59 54 54 63 70 68 65 69 68 59 55 54 54 63 93 139 183 220 252 255 255 255 244 
216 181 144 116 99 96 106 127 143 146 138 132 122 104 84 68 59 44 32 35 44 50 
50 50 47 48 51 58 57 56 56 61 62 60 58 60 66 73 77 75 74 75 78 77 73 69 71 75 
74 68 68 78 83 83 81 76 70 68 74 78 77 74 74 78 81 80 84 79 75 73 72 70 65 67 
74 78 74 68 65 66 64 62 62 65 68 71 70 65 60 57 54 55 63 71 68 66 71 70 63 55 
51 45 52 83 129 178 220 253 255 255 255 248 219 179 137 105 88 87 101 121 137 
142 138 131 119 101 79 63 53 42 32 32 41 48 53 51 46 43 54 62 61 56 61 67 67 
61 56 56 61 68 72 73 75 80 83 81 75 71 73 77 76 67 68 77 87 88 85 77 70 69 74 
76 74 73 76 79 76 76 85 80 74 71 72 72 72 69 71 73 71 67 67 67 65 62 61 63 65 
65 64 60 58 58 59 61 70 75 70 66 68 70 66 60 52 43 47 73 116 164 207 240 255 
255 251 235 204 162 120 88 74 78 95 116 132 138 134 123 111 95 77 62 55 44 33 
31 40 50 57 60 53 53 61 66 58 54 59 67 65 59 55 56 60 64 67 69 75 82 85 83 78 
73 72 75 75 71 68 75 81 82 81 76 69 69 73 74 72 74 76 77 72 72 80 75 69 66 69 
76 77 76 74 73 71 69 71 73 69 64 63 67 70 68 63 56 57 62 66 69 74 76 70 63 64 
69 70 66 59 52 54 71 102 140 178 209 225 228 221 203 171 132 96 69 60 67 86 107 
123 130 125 113 102 91 77 66 60 54 42 39 44 53 60 66 63 63 66 64 55 50 57 63 
63 58 54 53 59 63 66 69 75 81 83 82 78 73 69 71 76 75 71 73 76 77 77 75 74 74 
75 75 74 75 73 71 73 74 76 74 71 67 69 72 75 74 75 75 74 73 77 79 75 69 68 73 
77 75 65 58 58 68 71 73 74 75 69 64 67 75 78 73 65 59 59 67 83 109 138 165 182 
186 179 162 136 104 75 55 50 61 78 96 111 120 118 109 99 87 73 63 62 61 58 54 
56 58 61 65 65 63 65 65 56 52 56 61 62 59 53 53 59 65 67 70 74 77 77 76 74 71 
66 67 72 74 73 72 73 73 74 78 81 81 78 75 74 72 69 69 82 82 76 76 77 76 74 71 
66 68 71 74 72 74 79 81 77 73 71 73 78 77 70 61 64 68 69 68 71 76 75 74 79 87 
87 77 63 54 51 53 60 77 100 121 134 138 132 121 104 83 60 45 43 56 72 86 99 109 
114 109 100 86 69 57 56 62 64 64 60 56 56 60 58 56 62 67 64 58 57 59 61 60 58 
58 65 69 70 70 71 71 71 69 69 68 66 64 66 70 69 69 70 71 73 78 84 84 78 74 73 
73 72 75 83 83 75 72 76 81 80 72 66 66 70 70 68 72 78 78 75 73 71 69 70 74 72 
69 67 65 59 58 66 77 83 85 88 93 91 77 60 48 42 39 42 54 72 88 96 95 90 84 77 
64 48 36 39 52 68 77 86 96 104 106 99 85 68 54 51 56 61 61 54 49 52 58 57 56 
65 74 74 67 61 60 63 65 65 67 70 71 69 70 71 71 70 70 70 70 69 64 64 67 69 67 
68 71 74 77 82 82 78 74 75 76 79 83 76 75 70 62 66 76 78 72 68 71 72 68 65 71 
78 77 72 70 67 64 65 69 73 74 71 63 55 54 64 78 86 85 85 88 88 80 64 49 39 34 
34 42 56 67 70 65 61 59 56 47 37 32 37 53 66 71 74 80 89 93 91 80 67 56 52 53 
57 58 55 51 57 64 64 64 72 82 82 76 69 66 66 70 70 67 66 64 66 69 72 72 73 74 
74 74 72 68 66 71 73 69 68 74 77 78 79 80 78 75 76 78 79 79 65 65 70 60 62 70 
70 67 69 74 73 65 62 71 80 78 70 65 63 64 66 68 72 75 74 68 62 61 68 78 83 81 
76 77 83 81 71 54 43 38 36 39 46 53 50 47 49 51 47 39 33 33 41 53 63 65 64 65 
71 76 76 71 65 62 59 57 58 63 65 64 66 69 68 69 74 79 81 80 77 72 71 72 70 64 
57 56 59 66 69 71 72 75 76 75 72 67 66 72 74 68 67 75 81 79 78 79 79 78 79 79 
77 72 62 61 72 66 68 71 67 63 66 73 74 65 62 68 78 75 68 60 60 67 71 69 65 69 
73 73 71 69 69 75 79 79 73 72 75 78 72 61 52 49 47 45 45 45 42 42 51 56 51 43 
40 41 44 52 59 61 58 57 58 62 65 66 67 69 68 62 59 66 72 71 66 64 64 65 67 67 
71 78 81 77 73 72 70 62 55 52 56 61 65 68 70 70 70 72 71 66 65 70 71 64 63 73 
81 80 77 77 79 82 86 85 77 67 60 60 73 72 73 74 70 65 65 73 76 72 65 68 72 73 
68 62 61 68 72 65 59 62 69 73 72 68 66 69 77 81 79 73 72 74 73 66 64 63 61 55 
51 47 44 49 61 66 59 51 50 51 51 54 57 58 58 56 54 53 58 65 70 74 74 66 61 63 
69 66 61 58 60 63 61 59 62 75 82 81 75 72 68 63 58 58 60 62 65 69 67 63 63 69 
72 69 68 72 71 66 66 75 79 76 73 73 75 81 88 88 77 66 64 64 71 71 72 73 73 69 
66 70 77 76 70 68 71 75 74 68 63 65 66 61 58 62 67 67 65 64 64 68 75 83 84 78 
75 75 75 70 67 69 66 60 55 53 52 57 69 73 64 57 55 57 58 59 59 58 61 61 54 48 
53 61 65 67 68 68 63 63 64 63 61 62 66 69 69 64 65 73 83 82 76 70 67 65 67 70 
71 68 70 72 68 60 60 68 73 73 74 77 77 73 75 77 76 70 67 67 70 75 81 80 73 65 
70 70 69 67 67 69 72 70 65 67 73 73 69 68 72 77 79 74 67 63 62 62 65 70 69 63 
59 61 66 70 75 80 80 77 75 78 77 69 64 63 61 57 55 57 59 64 73 76 70 60 56 57 
62 63 60 58 61 63 56 48 50 58 59 56 60 64 66 66 67 66 66 69 72 75 77 74 69 72 
79 79 71 65 64 68 74 80 78 72 74 76 73 66 65 68 70 70 72 76 75 75 75 74 69 66 
67 70 72 74 74 73 69 69 77 77 68 66 65 67 71 71 66 64 67 69 67 67 69 74 78 78 
73 68 66 68 73 76 72 66 62 63 66 70 73 73 71 68 68 74 76 71 64 62 59 54 54 61 
67 71 75 80 76 67 60 60 64 65 59 55 57 58 54 49 52 59 59 57 58 63 66 68 69 69 
67 66 68 71 75 73 69 71 77 74 65 59 61 67 75 81 78 72 71 77 78 75 73 71 67 67 
69 70 70 70 69 64 63 67 72 77 80 78 72 68 69 73 80 80 71 71 69 70 73 74 69 64 
67 71 70 66 64 67 75 80 79 75 71 71 73 73 73 73 70 64 61 62 67 70 67 62 62 66 
74 77 75 72 66 59 58 66 75 76 78 80 81 76 70 68 70 65 57 52 51 51 49 48 52 58 
62 64 65 64 63 65 68 67 64 61 59 61 65 66 67 75 82 79 66 61 62 68 74 78 78 72 
69 72 75 77 76 72 69 70 72 70 69 69 65 59 61 70 76 80 80 75 68 66 70 77 79 79 
76 77 75 75 77 78 72 65 67 73 74 68 62 62 72 80 83 78 71 67 66 67 72 77 76 64 
54 53 61 69 70 67 63 66 74 81 83 81 74 67 65 71 75 76 76 80 82 80 76 75 72 64 
53 51 52 52 50 50 51 55 61 68 69 66 61 64 66 66 64 62 59 58 60 62 69 79 89 86 
77 70 72 76 78 80 81 75 68 64 66 71 74 72 70 76 79 75 72 73 67 59 61 69 74 76 
73 66 61 63 70 76 72 72 78 78 76 75 78 78 71 62 61 70 74 70 64 65 70 78 81 77 
70 66 66 67 71 78 77 68 57 55 61 70 73 71 70 71 73 78 80 79 75 69 68 70 72 72 
76 80 81 78 75 74 71 61 55 58 62 64 61 59 56 56 62 69 70 65 64 67 69 65 63 63 
63 60 60 62 68 77 82 83 80 79 81 80 78 79 80 76 66 61 63 70 75 73 71 74 78 76 
76 77 72 63 60 66 71 73 69 64 62 67 69 69 63 64 76 76 73 69 71 72 65 56 56 64 
70 70 68 68 71 75 77 76 73 72 72 72 72 72 74 70 68 68 71 72 69 69 72 74 73 72 
74 74 70 63 62 66 69 72 77 82 80 76 72 71 67 62 61 66 71 71 68 65 63 64 67 70 
69 66 67 74 75 66 58 59 60 60 61 64 66 66 68 72 76 79 81 78 72 72 75 73 67 65 
69 77 82 80 72 69 71 73 74 76 74 67 64 68 74 77 76 73 74 75 72 63 64 65 72 74 
70 65 64 65 61 58 60 66 68 67 66 68 69 70 71 71 73 75 76 75 71 69 67 69 73 77 
79 72 63 62 70 76 74 72 73 74 67 58 56 63 71 74 77 77 75 71 70 66 62 60 65 69 
69 67 64 63 66 70 72 73 70 66 66 74 79 70 58 55 58 60 64 68 68 63 61 65 71 77 
79 75 68 66 72 72 69 68 73 79 84 83 75 68 70 75 74 74 73 70 71 76 80 81 80 80 
80 80 74 66 71 71 67 70 69 64 64 64 63 64 70 73 70 63 61 64 67 67 64 64 69 75 
75 73 70 67 66 65 69 75 78 71 62 62 72 76 75 73 74 75 68 58 56 65 74 74 70 66 
64 65 63 58 55 59 65 68 66 64 64 66 69 72 73 74 73 66 60 67 75 72 63 59 61 62 
65 72 72 69 66 68 71 75 78 76 68 66 69 71 69 69 70 71 74 79 77 74 78 82 80 76 
74 75 78 80 80 76 74 74 76 75 73 71 72 72 60 62 64 64 65 67 66 67 72 76 72 65 
63 65 69 67 63 62 67 73 75 72 70 70 69 68 64 68 72 72 67 69 74 75 72 70 71 70 
67 62 62 69 74 72 65 59 59 59 56 51 53 60 66 67 67 70 74 75 76 74 73 74 77 69 
60 61 69 70 65 64 64 61 62 68 73 73 72 72 73 75 77 76 71 68 68 69 68 69 69 64 
66 75 80 83 85 88 85 81 79 81 81 78 70 64 64 68 70 69 68 71 66 65 54 56 58 60 
64 67 66 65 68 73 74 71 69 69 69 70 68 67 67 71 74 72 70 71 76 75 69 66 70 73 
72 72 73 70 66 65 64 64 65 66 67 69 71 68 62 59 61 62 56 53 59 66 70 68 68 72 
77 80 80 77 73 74 76 72 65 64 67 67 65 66 66 62 58 62 70 74 74 74 76 77 77 75 
73 72 72 70 68 69 69 66 67 75 86 86 84 84 84 82 81 83 83 75 63 57 61 69 72 71 
71 70 64 63 53 54 56 60 64 67 66 64 67 72 76 76 74 70 67 69 74 73 69 67 69 71 
68 69 76 81 75 69 71 73 73 71 69 65 62 62 61 61 64 67 66 66 65 63 59 60 67 70 
64 61 65 72 72 70 68 68 69 73 77 77 75 73 72 69 69 71 70 65 64 68 69 63 57 59 
66 72 72 72 76 79 76 73 73 76 78 74 68 66 68 69 71 80 85 83 79 79 79 75 73 78 
82 79 66 60 63 71 75 79 79 74 68 66 53 55 60 65 69 71 68 65 67 73 77 77 75 71 
66 69 76 78 70 63 66 69 66 63 68 76 75 71 70 72 71 70 69 66 63 63 62 62 65 65 
63 60 61 61 60 63 74 77 71 64 67 71 73 72 70 64 62 64 70 74 76 75 72 69 72 77 
75 68 65 67 66 61 58 60 67 69 67 67 73 77 74 70 71 75 79 75 67 62 66 72 77 80 
81 78 78 79 77 67 62 68 79 83 76 67 64 66 72 79 84 79 70 69 53 57 65 72 75 74 
69 65 66 73 77 78 77 73 70 71 76 77 72 67 68 72 69 62 60 63 67 67 69 70 72 73 
73 69 67 68 69 70 70 67 60 59 62 65 65 72 80 82 69 61 63 67 68 72 72 68 64 66 
68 69 72 78 77 74 76 80 77 70 65 63 61 60 63 69 72 70 66 68 73 77 75 73 71 71 
70 69 66 66 72 80 82 80 75 74 77 80 75 63 55 59 73 81 79 70 63 62 66 74 78 76 
65 65 57 60 67 73 75 74 71 66 68 73 77 76 76 76 77 76 75 74 73 71 71 75 75 70 
63 61 62 66 68 69 71 75 74 69 68 73 78 80 79 69 60 58 64 67 69 76 83 78 62 56 
60 64 65 68 72 70 70 72 70 63 67 76 81 78 75 74 73 70 67 63 60 64 73 80 80 73 
70 74 79 80 80 80 77 67 61 62 68 74 81 85 83 75 69 70 75 76 71 62 54 55 64 73 
74 69 63 61 65 69 69 67 62 62 61 64 67 67 69 72 74 73 74 78 78 75 74 76 79 79 
74 70 69 70 69 69 73 74 73 68 68 70 69 66 67 71 70 66 70 75 80 83 79 69 58 57 
61 64 65 70 76 69 57 55 64 70 69 70 71 70 71 74 67 61 62 75 81 76 69 65 66 70 
71 69 66 69 77 83 79 73 73 81 84 82 80 83 79 69 59 61 71 79 84 83 76 69 65 70 
74 72 67 60 56 56 61 66 68 66 63 64 67 69 65 62 64 63 61 66 66 64 65 72 75 76 
78 81 80 77 76 77 79 78 74 68 68 70 68 64 63 69 75 75 73 71 66 60 61 66 68 69 
73 76 76 76 74 66 57 56 60 63 63 66 68 65 58 60 71 78 77 75 74 72 72 71 66 59 
63 74 81 77 67 64 68 75 79 75 68 67 70 74 72 70 75 84 86 80 74 74 77 72 67 69 
77 83 81 76 71 66 68 73 75 71 64 60 59 61 65 66 66 65 65 67 70 70 67 65 69 69 
56 61 63 62 65 70 73 72 72 75 77 77 77 76 74 76 76 73 72 75 75 67 61 64 71 73 
71 68 63 59 61 69 73 75 77 75 72 71 71 65 59 58 63 68 69 67 67 69 67 69 75 80 
77 75 76 78 77 74 68 62 64 71 78 76 73 74 79 82 81 75 68 65 66 68 67 68 75 85 
87 81 72 71 75 77 75 76 81 82 77 73 71 70 70 73 74 69 64 63 67 70 70 68 67 70 
73 74 73 71 69 69 74 74 52 56 57 60 65 70 71 67 65 68 70 71 71 69 68 73 78 78 
75 78 80 74 67 66 68 68 67 68 68 69 71 75 78 78 78 75 74 74 73 67 61 60 67 74 
75 69 69 74 77 77 77 75 70 67 73 79 80 76 71 67 65 67 73 76 78 82 85 82 77 73 
71 71 70 69 67 68 72 81 88 85 77 73 76 77 75 76 79 78 73 72 74 72 68 68 68 66 
64 70 77 78 74 67 69 75 81 79 73 68 67 71 72 73 56 55 54 56 63 70 73 69 65 66 
66 65 62 60 62 68 77 76 73 74 76 75 71 67 62 60 63 70 78 80 77 75 74 76 74 73 
75 78 75 68 62 63 69 76 74 70 70 76 81 80 79 75 66 63 68 76 76 73 72 71 68 68 
72 77 78 80 81 78 75 77 78 77 74 70 68 66 68 75 83 85 79 76 76 76 72 73 75 74 
71 72 75 74 68 66 65 64 65 73 82 82 72 67 69 77 81 76 67 60 61 67 65 65 62 58 
52 55 62 70 73 71 67 66 64 59 56 57 60 69 74 73 70 69 69 69 69 63 57 55 60 71 
81 83 78 69 69 72 73 71 74 77 75 68 64 65 69 72 71 70 72 77 78 79 80 78 70 64 
66 71 71 71 74 75 72 70 75 79 77 76 76 76 78 82 82 76 70 67 68 67 66 71 79 81 
76 73 75 75 73 72 73 73 71 73 76 75 71 70 69 65 62 69 77 76 69 66 69 72 71 67 
60 56 56 61 55 55 64 57 53 57 63 68 70 66 63 62 60 54 51 54 62 69 73 72 71 71 
70 68 66 64 61 64 67 71 76 81 76 69 69 74 76 74 74 76 74 69 66 67 67 67 67 69 
75 76 74 72 78 77 70 63 66 72 75 78 82 80 74 69 74 77 76 74 75 76 79 83 79 70 
64 67 70 69 68 73 78 78 73 71 73 76 74 70 68 69 71 72 73 71 69 70 71 66 61 63 
69 68 66 68 69 68 65 64 62 59 58 57 51 51 61 53 54 62 68 69 67 62 58 58 57 52 
48 52 59 67 71 72 73 76 76 72 68 66 72 79 80 73 72 78 81 77 75 80 82 80 76 76 
74 69 67 66 67 66 65 70 77 77 68 68 73 74 65 60 66 75 83 87 88 84 74 68 69 72 
71 71 73 74 75 77 73 67 66 72 74 71 70 74 78 77 73 71 72 74 72 67 63 65 71 72 
68 62 59 64 68 67 64 64 67 67 69 72 73 71 72 73 72 68 62 56 54 53 59 54 57 67 
72 70 67 61 58 59 60 55 52 52 58 63 68 70 72 78 80 76 69 69 77 86 85 76 74 82 
90 85 81 81 83 80 77 76 73 69 65 66 68 69 70 74 81 76 66 65 72 74 65 62 68 77 
82 84 84 79 73 68 68 67 66 67 70 72 74 75 73 70 73 79 79 71 69 72 75 74 75 74 
73 72 72 68 64 67 73 75 68 58 56 62 69 71 68 67 67 70 73 75 75 79 84 84 78 72 
66 59 
