P2
112 112
255
62 65 75 69 60 60 65 69 68 66 63 63 61 58 59 66 70 66 65 60 67 72 74 72 66 59 
61 68 74 72 68 66 65 66 63 56 53 58 68 72 68 62 63 72 75 70 68 72 75 71 68 70 
72 70 72 75 72 66 61 58 56 60 66 71 71 66 60 59 64 63 60 57 56 61 69 76 76 70 
62 58 61 64 63 60 59 61 61 58 58 65 73 73 68 70 72 72 74 77 73 68 73 80 75 67 
70 81 85 79 68 63 59 57 58 59 72 65 56 57 65 71 70 64 61 63 62 58 57 63 70 68 
62 67 74 74 71 70 68 64 66 73 77 70 59 56 60 66 67 65 62 63 66 70 67 61 59 63 
64 62 66 71 68 62 63 68 69 66 66 68 69 68 66 66 68 70 74 79 75 68 66 65 65 66 
66 63 53 57 66 72 70 67 65 69 76 78 72 62 57 59 62 63 64 70 77 76 70 71 78 80 
78 74 67 63 69 77 73 67 72 81 83 75 67 66 60 52 58 52 66 61 55 55 60 63 59 55 
55 58 62 60 54 58 68 72 56 68 74 71 66 67 70 69 70 77 80 69 55 53 60 65 69 68 
67 66 69 71 68 61 56 57 58 59 67 72 65 57 61 68 70 65 62 61 64 69 71 69 69 73 
75 74 73 71 70 71 62 59 64 64 57 53 56 63 64 66 71 76 81 83 75 66 61 60 60 61 
64 71 78 79 72 71 76 78 75 69 60 57 63 69 67 65 70 79 81 74 70 71 66 53 63 63 
76 73 67 62 66 73 68 58 58 65 67 70 74 75 71 69 51 60 67 67 65 68 70 66 67 76 
77 65 56 57 61 58 57 61 66 67 68 74 73 64 60 61 58 59 68 74 69 62 64 72 73 68 
62 59 62 72 75 70 69 72 75 76 75 71 67 63 59 54 59 62 56 54 59 59 57 65 55 44 
47 59 63 59 61 67 62 47 39 42 49 53 55 60 65 63 60 59 59 62 71 77 76 69 66 67 
65 62 66 74 78 69 70 60 71 69 60 52 57 70 71 63 61 63 64 68 75 60 70 60 55 56 
60 65 70 72 68 62 62 71 72 63 58 62 62 52 52 59 63 61 62 69 71 68 66 66 59 56 
65 74 73 69 71 73 73 68 63 60 63 72 76 70 65 66 68 68 69 69 61 56 61 64 65 64 
60 59 68 71 63 60 62 63 56 63 65 61 61 64 62 54 47 46 47 49 53 60 63 62 59 57 
55 56 64 75 77 70 67 71 71 66 67 77 77 67 72 63 64 61 51 43 50 65 69 62 58 58 
61 65 70 59 64 65 60 56 57 64 72 74 68 61 64 71 72 64 59 61 61 55 57 66 66 59 
57 62 68 69 68 64 56 53 60 72 75 71 70 70 67 66 65 63 65 70 72 66 60 61 63 63 
63 61 54 51 58 66 64 64 66 70 73 77 72 66 68 69 68 68 67 64 62 61 62 62 61 59 
55 52 53 58 59 56 56 60 60 58 62 71 74 71 70 74 73 65 62 68 70 64 71 70 59 56 
49 48 54 63 65 60 57 59 63 65 65 62 66 66 61 56 56 62 71 74 69 64 69 75 73 66 
61 60 59 59 65 72 71 62 59 65 70 69 65 60 57 59 65 69 68 64 63 63 64 66 70 68 
64 66 65 58 56 62 68 68 65 60 55 54 56 62 64 65 70 74 73 71 72 71 72 72 70 70 
72 71 67 64 60 65 69 67 63 57 54 56 57 53 55 62 66 65 64 68 72 73 73 72 70 63 
58 59 61 61 67 73 55 55 56 62 65 63 62 64 67 68 69 68 61 68 73 65 57 55 58 65 
72 75 73 70 71 73 71 67 64 62 60 61 66 70 69 64 63 66 68 67 63 60 62 66 66 64 
59 55 57 61 65 71 75 71 63 61 59 55 54 62 69 70 68 65 62 59 57 60 62 62 62 63 
63 62 66 72 74 73 68 68 75 77 73 69 65 63 64 65 65 58 53 58 63 63 60 64 68 69 
69 69 72 76 74 67 64 64 62 58 55 58 63 66 54 53 60 70 72 63 62 72 77 71 69 67 
62 71 76 66 55 56 63 68 72 76 75 72 69 68 66 65 65 65 63 61 61 64 66 63 61 59 
61 63 61 61 64 66 63 59 56 55 57 63 68 75 79 72 64 61 61 59 57 57 59 60 61 61 
63 63 59 58 63 64 61 58 58 59 62 69 74 74 73 72 75 78 69 61 62 63 61 63 70 61 
56 61 74 77 70 68 71 73 71 69 73 77 74 63 58 62 64 59 53 54 61 57 61 58 64 70 
68 60 62 72 74 67 61 65 60 69 75 68 59 60 63 63 65 72 74 69 64 63 62 61 61 62 
61 58 57 60 63 61 57 54 54 58 61 64 66 65 62 60 60 60 63 67 70 74 78 74 67 66 
68 68 62 53 48 48 50 55 60 61 58 58 66 70 67 64 65 64 61 64 68 71 70 68 67 65 
61 58 59 63 61 56 56 64 71 71 71 76 74 72 74 75 69 65 70 76 73 63 57 58 60 58 
54 52 64 53 72 69 71 71 66 62 63 67 68 64 63 63 58 70 75 72 65 63 59 56 59 69 
72 66 59 60 62 58 55 55 55 54 56 58 59 59 60 58 56 58 62 67 70 68 64 62 61 63 
67 69 68 70 73 73 69 68 72 74 67 54 45 46 50 56 62 62 57 57 65 70 70 68 69 69 
65 62 60 61 60 61 61 59 60 63 65 62 58 54 54 62 71 77 75 70 70 69 73 74 68 64 
68 73 70 63 59 56 56 58 59 54 71 59 76 77 77 75 72 69 66 66 67 69 72 63 64 69 
76 77 70 63 58 54 58 68 71 64 57 59 64 62 55 50 50 55 61 58 53 56 63 63 58 57 
64 71 72 67 60 56 54 57 63 67 66 68 70 68 66 68 72 73 66 55 48 49 56 63 69 66 
57 54 63 69 66 64 67 70 68 63 60 60 60 59 59 61 61 65 66 62 58 55 53 58 66 71 
70 65 60 59 62 68 68 68 70 70 66 62 61 59 56 61 66 60 58 66 73 75 76 77 76 72 
68 67 69 73 74 67 60 62 71 77 70 62 61 60 60 65 69 66 61 63 69 69 62 54 55 63 
66 58 48 50 59 59 54 55 68 75 72 62 52 48 48 51 57 62 65 68 70 66 65 68 72 71 
66 57 51 51 58 68 73 68 57 53 61 67 64 60 63 69 69 67 70 72 68 62 61 63 63 64 
63 62 61 63 63 62 64 64 67 67 68 69 68 63 62 62 70 67 62 61 62 61 60 67 72 68 
60 68 71 70 73 76 74 68 63 63 70 74 64 72 45 48 60 70 67 64 65 66 63 62 65 67 
63 63 69 73 69 64 65 71 70 57 44 45 50 48 46 53 69 79 74 62 53 51 53 55 56 55 
59 67 74 73 70 69 71 71 67 61 54 49 53 64 71 64 54 52 59 63 61 59 62 67 69 70 
75 76 71 65 63 65 65 63 62 62 65 69 74 76 73 68 64 67 79 84 81 70 61 58 60 61 
61 61 62 63 64 71 75 70 64 68 69 66 70 74 73 66 59 61 70 77 71 64 37 39 47 61 
66 67 70 71 65 63 66 66 62 62 66 70 70 69 70 70 65 53 44 44 46 42 41 51 67 77 
73 63 58 60 63 65 60 53 55 67 77 78 73 70 69 68 66 63 55 47 48 57 63 60 53 53 
58 61 59 58 63 68 69 69 71 71 68 64 66 70 71 68 66 67 70 73 77 80 79 73 62 49 
48 63 77 72 63 58 60 62 58 58 60 61 67 72 72 66 64 71 63 63 70 74 73 69 65 66 
73 71 81 56 45 40 42 53 65 70 70 69 67 67 70 69 66 67 68 64 61 65 66 63 56 51 
51 52 52 48 46 55 64 67 63 58 57 60 63 65 62 56 57 65 73 74 70 66 63 60 59 58 
55 50 52 56 58 55 54 58 64 66 63 62 65 69 68 66 66 66 65 66 71 78 79 75 71 72 
73 69 68 71 76 73 65 56 53 59 63 62 60 60 60 62 63 64 69 74 70 67 65 60 61 70 
59 66 73 72 69 70 71 68 70 72 75 57 55 48 43 52 64 70 69 65 64 66 71 76 78 81 
75 62 53 56 61 57 52 54 60 62 60 59 61 64 63 61 60 60 59 59 57 55 55 58 63 69 
70 68 66 64 59 52 48 51 55 56 59 61 57 54 56 62 67 68 67 66 65 67 66 63 61 62 
63 66 71 78 79 74 71 73 72 65 60 63 71 75 74 68 63 63 64 60 61 67 64 59 63 71 
78 77 72 68 70 69 64 67 62 71 75 70 65 67 70 66 63 68 63 59 61 57 50 53 65 72 
70 64 60 63 71 81 88 90 81 65 53 55 62 61 59 62 66 66 63 65 68 68 65 62 65 70 
71 64 53 49 52 61 69 75 72 68 67 64 56 48 44 47 51 55 61 66 63 58 56 59 60 61 
61 61 62 62 62 61 60 60 60 62 65 69 71 68 65 68 70 65 61 63 68 72 74 72 66 62 
64 63 62 64 60 47 40 52 70 80 76 72 75 77 66 68 58 66 72 68 65 68 70 64 69 62 
56 59 63 62 58 59 67 75 73 68 64 65 71 82 87 87 80 67 60 62 67 70 70 71 69 64 
59 60 63 63 61 60 66 74 73 66 58 55 58 64 73 79 77 71 67 63 54 47 48 50 49 49 
57 66 67 61 58 57 54 51 52 56 58 57 59 64 66 63 61 61 63 63 64 64 62 63 66 67 
66 65 64 63 65 65 62 62 65 64 61 62 60 53 44 44 49 57 62 70 77 81 66 76 52 56 
62 64 67 73 74 66 69 58 53 58 61 64 64 66 73 75 72 70 69 68 73 79 81 76 73 69 
68 68 70 73 74 73 68 63 59 59 61 60 58 57 59 64 65 61 60 62 66 68 72 75 74 70 
65 59 51 48 53 55 49 45 51 62 63 61 62 62 58 55 56 59 56 54 57 67 72 68 64 64 
64 62 64 66 64 62 63 66 68 66 61 56 56 61 65 67 69 64 58 60 63 63 57 51 49 51 
57 63 68 70 64 77 55 54 55 58 63 72 75 70 65 55 58 62 64 68 70 74 77 73 64 62 
65 68 73 76 73 69 68 72 71 68 67 68 67 65 64 62 64 67 68 65 60 56 55 59 62 61 
61 67 70 68 65 65 65 66 66 59 52 51 56 57 51 48 52 58 59 59 64 68 68 65 66 63 
56 52 56 66 71 68 63 63 64 62 62 66 66 61 59 62 65 66 63 59 60 67 74 76 72 66 
61 62 65 68 66 58 52 53 58 63 63 61 61 69 64 60 57 55 59 68 75 74 59 60 67 72 
72 69 69 74 77 70 57 54 60 67 71 72 69 65 67 71 68 62 60 61 60 58 59 62 69 76 
79 73 64 56 53 60 67 68 66 67 68 64 58 56 61 66 68 62 56 55 57 56 54 57 62 64 
63 62 63 67 67 65 63 59 53 51 57 65 67 62 58 60 62 59 57 60 61 56 54 57 60 64 
67 65 65 71 79 79 73 69 68 67 64 64 66 62 55 54 58 59 58 58 58 62 68 64 58 55 
60 68 74 68 61 61 70 77 73 63 59 67 76 70 59 57 63 70 73 72 67 62 62 64 60 54 
54 58 59 58 60 64 72 79 80 73 61 52 49 55 64 66 62 62 64 60 54 54 59 65 63 57 
54 55 55 53 57 66 74 75 75 69 63 62 61 60 57 52 49 53 61 65 63 59 55 58 61 57 
54 55 53 49 49 53 57 63 68 68 65 68 74 74 68 68 73 69 59 57 62 61 55 54 57 56 
53 56 61 64 69 63 56 55 62 67 69 70 63 61 70 76 71 59 55 64 73 71 65 66 72 76 
77 74 67 59 59 59 55 51 54 60 64 65 67 67 70 77 76 67 56 48 44 46 52 56 56 57 
61 58 51 48 52 55 50 43 43 47 48 51 58 67 74 78 77 70 61 58 60 62 61 56 53 57 
62 63 60 56 53 54 57 55 51 51 50 46 46 51 56 63 71 73 69 68 69 68 63 62 68 67 
58 55 62 62 55 59 64 61 57 60 61 68 75 67 56 57 63 62 66 73 66 68 73 77 72 65 
64 68 69 68 69 73 75 75 75 74 66 61 62 61 54 52 57 64 68 69 68 64 65 70 70 60 
51 49 46 45 48 51 53 57 59 54 44 38 39 40 35 30 29 36 44 50 54 55 59 64 66 62 
56 55 61 67 68 64 61 61 60 58 55 53 50 49 50 49 49 49 48 47 48 52 55 62 73 82 
80 76 72 65 59 59 65 65 60 58 65 66 61 65 75 74 65 64 60 67 77 73 62 60 63 58 
70 72 72 76 77 75 72 71 72 70 65 63 67 70 69 66 65 64 62 63 67 65 56 53 59 66 
69 70 65 58 57 63 63 55 51 52 53 51 52 55 58 58 57 49 38 31 31 31 27 23 24 32 
44 50 47 39 38 46 52 50 46 49 55 60 64 66 65 62 58 55 54 52 48 46 44 44 45 46 
46 49 55 57 56 60 73 86 89 84 76 67 60 60 67 69 63 63 68 67 60 62 73 77 72 69 
61 60 72 75 71 66 64 63 66 68 71 75 74 68 62 63 66 66 61 59 61 61 57 54 54 55 
57 61 64 62 55 54 60 65 68 68 62 53 51 56 57 52 51 55 56 56 59 63 63 58 51 43 
34 29 29 29 26 23 26 35 47 49 40 28 28 37 42 40 38 40 42 45 53 62 66 63 58 57 
58 57 52 47 44 44 45 46 46 52 62 64 58 59 69 80 85 82 76 69 65 67 72 74 68 64 
65 62 51 51 61 68 71 73 63 57 68 75 78 73 64 58 63 65 66 72 71 61 55 55 57 59 
60 61 59 54 50 50 53 55 55 59 60 57 55 57 60 61 63 63 58 50 47 50 51 48 47 51 
53 57 65 70 65 53 42 33 28 26 27 31 33 33 35 42 50 51 41 32 34 39 38 33 29 29 
31 35 46 60 69 66 59 57 61 63 61 54 49 49 51 51 50 55 65 67 61 57 61 68 74 76 
73 68 67 71 74 72 68 65 62 57 50 50 56 62 68 74 65 60 65 71 77 74 65 60 64 67 
70 76 75 67 60 59 59 60 66 68 63 55 51 53 58 64 66 65 60 58 59 59 57 53 53 55 
51 46 45 48 49 47 45 46 48 52 62 68 62 47 35 28 24 22 27 35 42 47 50 57 64 65 
60 55 51 48 39 28 19 16 20 30 45 60 68 65 55 50 56 65 67 62 55 55 58 56 53 56 
64 66 59 54 57 64 69 71 68 63 62 66 65 64 64 66 64 58 56 60 64 66 66 68 64 67 
58 58 65 69 66 60 67 73 79 82 79 74 70 70 68 66 69 69 64 58 57 60 65 73 76 71 
63 61 62 58 53 50 49 46 44 43 44 49 51 51 50 50 48 47 51 57 56 47 38 33 28 25 
29 38 48 58 70 83 92 94 91 84 73 58 42 26 13 8 15 30 42 53 61 59 49 42 48 60 
67 65 60 59 60 57 53 54 61 62 57 54 59 67 70 68 62 57 56 58 59 59 62 68 68 63 
62 68 72 69 63 64 63 73 46 42 47 57 66 63 71 80 82 79 75 73 77 79 74 67 64 62 
60 60 65 67 69 74 76 69 61 62 65 62 61 60 52 42 37 39 43 47 54 58 60 60 54 45 
42 48 52 52 48 43 35 29 30 40 52 68 92 116 130 130 123 111 91 67 44 27 16 14 
22 35 44 51 57 56 46 38 44 57 65 65 65 65 61 56 53 55 59 62 58 54 58 65 66 60 
57 57 60 63 64 63 64 68 67 63 60 61 65 65 64 66 64 77 43 39 38 45 66 71 75 79 
77 72 69 72 79 83 77 65 59 58 58 63 69 71 71 73 72 65 60 64 71 72 74 74 60 42 
34 37 40 45 53 60 64 66 61 51 44 47 53 55 52 43 31 26 31 43 59 82 115 149 168 
166 152 132 104 72 47 32 24 23 32 46 53 58 63 61 48 37 42 54 64 68 73 71 63 56 
57 61 65 65 60 55 53 54 52 50 53 61 67 72 75 73 67 64 64 61 55 53 57 63 67 69 
68 80 51 48 43 60 70 72 74 72 69 67 68 73 80 84 78 66 60 61 63 67 69 68 66 70 
69 64 63 70 75 72 72 75 67 47 36 38 41 45 53 61 63 62 61 57 53 52 54 51 41 28 
19 19 32 51 74 102 142 180 202 198 178 148 114 79 53 40 31 26 33 49 61 67 72 
67 50 37 41 53 62 67 72 71 61 55 61 69 72 70 63 54 48 45 42 43 51 61 68 72 76 
73 65 60 63 64 57 57 63 68 70 70 71 81 58 58 55 56 67 73 70 64 61 65 69 71 77 
80 74 64 61 67 71 71 66 62 62 65 67 65 69 75 71 60 60 66 65 52 43 43 46 51 58 
63 61 57 59 64 62 58 54 45 28 11 5 14 36 62 93 128 167 202 221 215 192 159 121 
86 62 47 32 22 27 45 60 66 69 67 53 41 44 52 54 57 62 61 55 55 65 73 75 71 64 
55 48 46 42 44 54 63 64 66 69 68 60 57 63 67 65 64 69 72 72 70 70 75 60 62 63 
61 69 72 66 58 56 61 65 66 70 75 71 62 61 70 76 73 65 61 61 61 60 61 66 69 63 
53 52 62 65 56 50 51 54 58 62 63 59 57 61 70 71 64 54 44 25 7 4 18 43 72 108 
148 185 211 222 216 196 164 128 94 69 51 32 19 23 40 53 57 59 58 51 46 49 52 
48 47 53 55 53 59 70 74 72 68 61 55 51 50 47 47 55 64 64 64 67 65 57 54 60 63 
60 61 68 72 74 74 67 65 58 59 58 69 65 67 61 54 53 57 60 64 69 72 70 63 63 71 
76 72 64 62 63 59 55 55 57 58 56 55 57 61 62 57 56 60 63 64 63 62 60 61 68 77 
78 66 53 43 31 19 19 32 54 81 116 157 191 211 218 211 193 166 132 97 67 44 28 
16 18 32 45 46 46 47 45 45 48 49 47 50 58 61 62 68 75 73 65 61 57 54 54 54 50 
47 55 64 67 65 67 68 62 56 56 56 51 52 60 68 75 79 69 61 54 57 62 65 53 58 57 
55 54 56 61 69 74 72 66 62 66 72 73 65 60 60 62 60 56 53 51 49 51 55 56 54 53 
55 62 70 72 69 65 63 65 67 72 81 81 67 51 45 44 40 41 52 71 94 124 158 189 208 
213 204 186 161 130 94 60 34 17 10 15 27 35 36 36 38 40 40 42 45 48 56 66 68 
69 74 77 70 59 54 54 53 55 58 54 50 57 68 68 65 65 67 67 64 61 56 49 50 57 66 
73 78 73 61 54 54 69 56 51 51 53 55 56 57 64 75 81 73 61 57 64 71 67 59 58 60 
58 57 57 56 50 45 47 50 50 47 47 55 68 76 78 75 70 68 71 74 77 82 83 72 58 55 
62 65 66 76 95 114 135 159 184 201 201 189 169 149 125 93 58 30 15 14 21 29 31 
29 30 36 40 41 43 45 48 56 65 67 65 70 72 65 58 54 53 51 54 59 61 58 63 72 73 
65 57 59 68 73 70 61 54 56 61 64 68 71 75 59 58 63 74 65 58 52 52 54 55 55 63 
77 81 71 58 53 60 67 64 59 62 63 55 53 56 56 50 46 48 51 50 48 48 53 63 73 79 
80 76 74 77 80 81 84 85 78 71 74 85 93 96 104 123 138 148 163 180 188 182 168 
152 138 121 97 67 39 25 27 37 40 34 27 30 40 45 48 51 51 53 58 61 60 59 62 65 
63 63 61 59 53 53 59 64 65 68 74 75 66 56 56 64 73 71 64 60 63 67 65 64 67 75 
61 61 71 79 79 69 60 56 55 54 52 58 71 76 70 59 55 59 64 63 61 65 65 56 48 49 
50 48 50 53 55 57 57 52 48 53 66 82 88 86 82 83 85 85 85 84 82 83 92 107 116 
121 130 146 157 161 166 175 178 169 157 144 132 119 101 76 51 38 41 48 46 36 
30 33 39 46 52 58 60 62 63 60 56 58 59 61 63 66 67 65 59 55 58 66 70 70 72 72 
68 61 59 62 69 70 66 62 64 68 67 65 67 73 65 64 74 81 80 73 67 66 64 59 52 55 
65 71 69 63 58 59 62 59 59 64 62 51 42 41 43 45 51 53 53 57 59 51 42 49 68 87 
95 94 90 89 90 86 83 82 87 94 105 118 130 138 148 163 172 173 174 176 175 168 
160 148 131 115 102 82 60 45 46 50 43 32 28 30 33 39 50 61 64 64 65 62 56 58 
61 60 61 63 65 66 66 61 58 65 72 74 70 68 66 62 60 62 68 69 66 62 63 67 69 66 
65 66 71 67 74 73 72 67 69 77 77 65 55 58 67 70 67 63 59 57 58 57 57 61 60 48 
39 38 38 41 46 47 45 48 51 49 46 54 72 91 99 98 95 93 92 88 84 85 95 107 116 
126 139 153 166 180 191 194 192 186 179 173 169 157 136 116 104 90 70 52 48 47 
36 25 23 23 23 31 47 59 60 60 60 59 53 52 54 52 54 56 59 65 70 64 57 61 69 74 
71 65 61 60 61 64 68 69 64 59 63 71 71 65 61 62 72 69 71 70 66 63 68 78 79 68 
60 65 72 69 65 62 58 56 56 57 59 63 62 54 46 43 43 43 45 46 42 44 48 50 54 63 
76 91 98 97 91 88 89 89 85 87 102 117 124 133 153 176 192 205 217 225 221 208 
193 183 177 167 147 130 123 109 86 67 58 49 34 22 19 18 17 22 40 54 53 50 55 
57 51 43 40 42 47 52 56 62 68 65 57 56 64 70 67 61 57 61 66 70 71 68 62 60 66 
73 71 62 59 64 71 61 73 72 66 62 67 74 75 69 66 69 72 68 64 63 60 58 58 57 58 
63 68 64 59 57 57 57 55 54 52 51 54 60 65 70 77 87 93 90 82 78 81 83 79 80 95 
113 124 135 162 196 217 227 238 249 248 232 213 199 190 181 168 158 153 139 
113 90 75 60 38 23 19 18 15 18 33 47 48 45 51 57 52 40 35 37 46 53 57 61 64 63 
58 56 61 63 61 57 58 66 72 73 73 72 66 64 66 66 62 58 60 66 66 59 73 72 66 63 
64 67 68 66 66 67 66 63 63 65 63 61 60 58 55 59 69 70 69 70 71 69 65 61 59 62 
69 77 79 78 78 84 87 81 73 69 71 71 65 66 80 97 109 122 152 195 223 232 243 
255 255 247 229 218 208 199 193 192 190 176 148 117 91 69 44 26 22 22 19 19 33 
47 48 46 51 56 52 41 36 40 48 56 61 63 64 62 59 58 60 62 58 56 61 70 72 69 70 
74 74 69 64 57 53 56 64 61 59 63 70 67 63 61 61 62 64 65 64 62 61 61 64 67 65 
64 66 65 60 59 65 71 71 71 72 68 59 53 59 70 82 91 90 86 85 88 85 77 71 68 66 
62 55 54 67 79 84 100 136 178 206 221 235 250 254 245 233 226 221 215 214 223 
227 213 184 148 111 80 53 33 24 24 26 27 38 52 55 52 52 54 49 43 40 42 49 58 
66 66 65 63 61 59 60 61 56 54 61 68 68 62 63 72 78 75 67 59 57 61 67 72 62 69 
73 64 58 60 62 63 65 67 66 65 66 65 66 68 67 66 72 74 66 63 66 68 67 68 67 58 
47 46 57 73 88 97 95 92 97 99 91 81 76 73 67 57 48 47 56 64 70 88 120 157 185 
207 227 237 234 226 222 223 224 223 231 246 255 243 216 180 140 102 69 43 30 
28 30 33 42 54 60 58 56 57 54 48 44 44 48 60 70 70 66 64 63 60 58 58 55 51 53 
60 65 62 62 68 73 74 73 71 70 68 69 68 68 74 75 66 59 63 68 69 70 69 70 75 78 
74 69 69 69 68 70 72 69 66 66 65 63 66 65 55 48 50 61 73 86 94 95 96 105 110 
101 88 83 79 69 52 38 36 43 53 64 83 108 134 161 190 213 218 209 204 212 223 
225 228 244 255 255 255 240 211 172 129 90 58 37 29 30 32 40 50 55 57 60 60 56 
53 48 43 46 60 72 71 65 65 66 61 58 58 54 46 44 53 64 68 65 64 67 69 74 78 75 
68 66 67 69 72 71 65 64 69 73 73 70 67 69 78 87 81 68 65 67 64 60 59 62 65 66 
62 60 63 67 63 58 57 61 67 78 87 89 93 102 106 99 90 86 80 67 47 27 20 28 43 
61 79 94 111 136 169 193 199 195 197 212 226 230 234 252 255 255 255 254 231 
196 152 109 70 41 26 24 27 32 39 45 50 56 55 53 50 46 40 42 55 69 72 68 67 68 
64 60 60 57 46 42 51 64 70 69 68 69 68 69 72 72 62 55 70 66 65 64 65 68 72 74 
73 70 65 65 75 84 79 63 56 59 59 54 53 60 68 69 63 57 59 66 69 64 58 54 58 69 
79 82 82 89 93 90 85 82 77 64 44 22 10 15 34 55 73 83 94 118 153 179 188 191 
200 215 226 230 237 255 255 255 255 255 248 212 167 122 76 38 17 16 22 28 32 
38 44 50 52 49 49 48 41 38 51 68 73 72 71 69 65 60 60 57 50 46 53 64 67 68 72 
74 70 65 67 65 57 51 69 65 61 61 65 68 70 71 73 75 71 68 72 76 70 58 52 55 60 
61 64 69 73 73 65 56 54 61 65 61 53 47 50 61 72 75 76 80 87 86 80 75 69 60 45 
27 16 16 28 47 66 78 93 117 147 173 186 192 198 206 213 221 237 255 255 255 
255 255 255 229 181 132 81 35 13 15 26 31 34 40 47 54 57 59 61 58 49 45 51 65 
73 74 72 69 63 60 58 56 52 53 59 62 62 62 68 74 71 65 63 62 58 57 69 66 64 64 
64 63 63 66 72 77 77 73 70 71 68 61 57 59 66 74 78 79 78 75 67 58 52 53 55 50 
43 41 45 55 64 69 75 84 91 89 79 67 60 57 51 42 34 29 29 42 59 78 99 125 150 
168 177 181 185 190 198 213 238 255 255 255 255 255 255 245 194 140 87 41 16 
17 29 36 42 49 56 62 67 71 71 65 57 53 54 62 70 73 72 67 62 60 59 57 57 60 64 
61 57 56 62 66 66 62 62 64 65 69 74 70 71 70 63 57 55 61 69 73 75 75 74 71 69 
68 65 62 66 77 82 81 77 73 67 61 55 49 43 37 35 38 43 49 55 62 72 86 97 94 80 
65 59 58 58 56 52 45 37 41 56 78 103 130 151 160 161 162 166 173 185 208 239 
255 255 255 255 255 255 254 199 144 92 48 22 19 28 40 48 55 60 63 66 69 66 57 
54 55 55 56 62 69 70 65 61 59 58 59 61 64 65 61 55 56 61 62 60 60 63 66 69 72 
75 71 72 71 63 53 50 56 64 67 71 77 78 74 71 71 69 63 62 69 75 74 70 67 64 61 
56 46 37 32 34 38 41 41 43 50 62 79 93 94 84 73 69 67 63 62 59 52 45 45 54 74 
102 129 146 151 148 145 146 154 170 200 239 255 255 255 255 255 255 254 201 
144 96 54 24 17 25 41 50 52 53 55 59 62 57 50 50 56 56 51 54 63 67 65 61 59 58 
60 62 64 63 59 57 61 67 65 58 57 62 67 71 70 67 64 66 67 63 54 50 54 61 64 67 
75 80 76 72 73 71 64 63 65 63 60 59 59 57 55 53 45 36 34 38 41 38 32 33 43 58 
74 85 89 86 81 76 70 64 59 53 46 41 43 53 71 97 122 135 138 136 132 130 134 
151 184 229 255 255 255 255 255 255 243 196 141 92 52 26 17 24 40 49 49 47 49 
55 61 58 53 53 59 58 51 48 54 63 70 70 65 62 63 64 62 60 58 58 64 70 67 59 57 
61 69 74 71 64 61 59 61 64 60 54 57 62 63 65 72 78 77 74 73 72 67 64 59 49 45 
48 52 52 52 51 46 40 39 41 41 35 29 32 48 66 77 82 82 80 76 70 63 57 51 42 34 
35 43 54 70 93 112 119 122 124 121 115 115 132 166 212 255 255 255 255 255 246 
220 179 125 75 41 21 17 26 38 46 49 52 55 59 64 65 61 60 64 63 54 48 50 62 76 
79 72 66 66 65 62 62 64 62 62 66 66 63 64 68 74 78 70 68 63 56 55 63 66 62 61 
64 65 64 69 73 73 69 66 66 66 62 51 38 34 40 48 50 52 55 54 51 49 47 45 40 36 
41 56 73 82 82 80 76 70 61 53 48 43 34 30 36 46 56 71 90 104 107 106 107 104 
100 101 118 150 194 234 255 255 255 243 216 187 148 98 52 23 12 15 24 32 39 51 
62 66 66 65 65 63 61 62 65 61 54 52 63 77 79 71 65 64 63 62 67 71 67 61 61 66 
71 75 77 79 78 65 71 64 51 49 59 66 63 60 63 66 65 65 67 66 60 56 58 63 60 48 
37 36 42 46 47 52 58 63 64 63 60 56 52 48 48 56 67 76 82 82 78 70 62 53 45 39 
34 34 43 55 63 75 90 97 94 89 87 83 82 88 105 136 175 213 240 252 247 224 190 
156 116 72 33 11 5 10 18 24 30 46 65 75 72 68 64 61 57 56 60 62 59 58 63 70 71 
66 64 64 62 61 68 74 70 62 61 68 78 84 84 79 73 62 67 62 52 49 57 64 60 58 59 
62 63 63 62 60 54 49 53 62 62 52 46 49 53 49 46 51 60 68 72 73 70 65 60 56 51 
48 54 68 79 81 78 75 69 58 46 38 34 37 50 65 75 84 94 94 83 73 68 64 62 71 92 
121 158 193 220 233 230 207 170 132 94 54 23 7 5 9 17 24 30 43 61 74 73 66 62 
61 58 53 53 60 63 64 65 66 65 66 68 68 64 60 62 68 68 63 63 72 81 86 83 78 70 
62 65 65 63 60 61 64 63 60 57 58 60 59 58 57 55 53 56 63 61 51 49 56 56 52 48 
52 61 68 73 76 74 69 64 61 56 50 53 66 78 80 77 77 74 63 47 35 30 37 55 74 90 
101 107 98 79 65 59 53 50 61 82 110 142 175 200 212 208 187 151 113 77 42 18 
11 12 16 25 36 43 50 59 62 60 56 58 62 62 57 55 61 67 70 69 67 68 71 72 69 62 
54 54 59 64 63 65 70 76 80 80 76 71 64 62 70 75 72 68 68 70 67 60 59 61 60 57 
60 64 65 64 62 54 43 41 46 49 49 48 51 59 66 72 77 77 72 68 69 67 60 63 76 84 
82 78 79 77 64 47 33 28 38 60 85 106 124 130 114 89 72 63 55 51 61 83 108 135 
162 182 191 187 166 132 96 61 30 14 14 20 25 35 49 57 58 54 48 43 42 49 58 63 
63 62 64 68 71 71 71 71 71 69 65 57 49 49 56 62 62 62 64 67 70 74 74 72 67 57 
68 79 77 67 66 73 70 63 63 67 67 64 66 73 75 71 64 53 42 37 43 46 46 47 50 55 
63 72 79 79 74 73 76 77 73 74 83 86 82 81 84 78 64 49 38 34 46 73 101 125 148 
158 142 114 93 80 64 60 75 98 121 143 163 177 180 173 151 116 78 47 23 12 17 
23 28 39 51 59 58 50 40 34 35 43 52 59 62 63 65 67 69 69 68 65 62 61 59 56 51 
51 57 62 59 56 56 57 61 66 69 66 60 58 68 76 74 65 63 69 68 60 61 68 70 68 72 
76 76 72 66 57 52 50 51 50 50 51 50 52 62 76 83 79 74 74 78 79 78 77 80 81 80 
82 86 80 69 61 55 54 70 100 129 155 178 188 176 151 125 103 86 82 99 125 146 
166 181 185 180 165 136 97 59 33 17 12 15 22 29 38 47 52 51 46 39 35 36 40 47 
52 57 60 64 67 68 66 62 57 50 51 57 62 59 57 59 60 56 52 52 53 56 61 61 54 48 
66 70 73 70 65 63 66 64 56 55 61 65 64 67 70 69 66 65 63 61 60 56 53 53 53 53 
55 65 78 83 77 70 70 72 74 73 73 74 75 78 84 89 87 82 81 81 83 101 136 170 193 
210 218 211 191 164 139 121 119 135 158 178 195 204 199 182 158 123 78 41 20 
10 6 8 18 32 43 48 47 45 43 41 38 38 41 47 52 55 58 63 66 68 66 61 53 45 45 57 
70 70 64 63 61 57 54 54 55 56 57 55 47 43 71 73 72 71 68 67 70 66 58 57 59 58 
57 59 61 60 62 65 67 65 62 56 52 52 54 56 60 68 77 78 71 64 61 60 61 63 66 71 
76 81 86 93 97 101 104 105 109 130 167 203 225 240 250 248 231 206 182 167 167 
180 196 214 227 228 213 187 156 117 71 35 16 6 0 1 15 36 50 54 49 45 43 42 42 
44 49 56 62 60 58 57 61 65 65 62 53 44 43 56 70 74 69 66 64 61 60 62 60 55 53 
54 54 54 72 74 72 71 70 71 73 71 66 62 61 58 57 58 57 57 61 68 71 69 63 59 56 
54 53 55 60 67 71 67 62 56 50 47 48 52 59 68 79 84 89 98 110 122 129 131 133 
155 189 220 243 255 255 255 255 239 221 211 211 221 236 252 255 251 227 198 
165 124 78 40 21 11 2 1 15 38 56 61 57 51 47 45 47 53 61 68 70 64 55 50 54 60 
65 63 55 47 45 55 66 70 69 67 65 65 67 69 66 57 53 59 67 67 72 73 71 69 67 70 
73 73 68 62 60 60 61 63 60 58 63 71 74 71 67 64 60 54 48 47 54 62 63 60 56 51 
45 40 41 44 50 62 77 87 95 109 127 144 155 160 164 180 206 230 250 255 255 255 
255 254 244 239 240 249 255 255 255 255 242 213 180 137 86 47 29 19 11 9 21 42 
58 66 66 62 55 51 53 60 68 72 69 61 52 49 55 63 68 66 60 53 52 57 63 66 67 67 
65 65 69 73 71 66 62 66 72 68 65 66 65 63 64 68 72 71 66 61 56 57 63 65 60 56 
60 67 71 71 67 62 56 48 41 42 51 60 60 58 56 52 46 40 39 38 40 52 73 93 107 
125 145 163 177 186 194 208 224 237 247 255 255 255 255 252 249 248 251 255 
255 255 255 255 247 222 189 143 90 48 28 22 18 17 30 47 59 66 70 69 62 57 58 
65 70 70 62 55 53 55 63 70 72 69 64 60 60 63 65 67 70 70 68 66 68 72 75 74 72 
71 69 65 58 60 60 61 65 70 71 67 64 62 58 58 63 62 54 50 53 59 65 69 66 56 47 
44 44 47 56 62 60 55 53 49 42 37 35 34 35 45 67 92 112 134 157 178 192 203 215 
229 238 237 236 241 246 245 240 238 239 242 249 255 255 255 255 253 239 217 
182 136 86 45 25 20 21 24 34 46 52 57 66 71 67 63 63 67 70 67 61 57 57 60 64 
68 71 68 63 62 64 68 69 71 75 77 74 71 70 71 74 77 77 74 70 64 58 61 62 62 68 
73 67 58 59 64 64 62 62 60 52 46 48 52 59 65 61 49 42 44 50 57 62 62 58 51 46 
41 34 30 30 31 31 38 56 78 102 131 162 186 202 216 231 245 246 233 220 216 216 
211 207 209 215 224 236 247 247 241 235 230 219 196 161 119 78 45 27 22 24 29 
36 42 43 45 56 68 71 67 64 63 64 65 63 61 59 58 58 60 62 63 62 62 66 69 69 69 
74 78 77 76 75 72 71 74 76 77 71 57 63 66 66 64 67 70 62 51 53 61 65 67 67 61 
53 49 51 52 53 57 54 44 37 42 53 60 63 63 60 54 47 42 37 32 28 25 23 26 36 55 
82 120 159 189 209 228 248 255 252 230 207 194 184 171 163 165 177 192 209 221 
218 208 200 195 184 163 130 95 68 45 28 24 29 34 36 37 36 37 47 62 70 68 62 58 
57 61 66 67 62 55 52 53 57 61 63 64 65 66 66 66 69 72 73 76 75 69 67 71 75 76 
64 50 66 68 66 63 65 68 65 58 56 60 65 70 72 63 54 54 57 56 53 53 48 39 33 38 
50 58 64 66 66 62 59 57 54 45 33 20 11 10 19 38 68 111 157 192 217 239 255 255 
254 227 199 179 158 134 119 122 137 154 170 181 176 162 152 148 141 120 90 63 
48 36 28 26 32 37 35 35 37 39 46 57 64 64 62 60 59 66 74 77 71 60 52 50 53 59 
63 60 60 64 66 67 66 67 67 67 65 63 64 70 74 70 48 49 64 66 62 62 67 72 73 71 
68 65 69 75 74 63 54 55 61 61 57 53 48 40 37 42 52 60 65 66 68 70 73 74 70 60 
42 20 4 1 12 34 67 111 156 193 221 245 255 255 250 222 195 171 143 111 95 95 
105 119 132 138 130 113 103 100 97 80 53 33 29 29 26 28 36 39 36 37 45 52 56 
57 58 60 65 68 67 72 82 86 78 64 52 45 47 54 60 58 56 62 70 73 71 68 64 60 59 
63 67 72 73 64 59 55 63 61 60 64 69 71 74 75 72 70 74 77 73 61 53 55 61 64 61 
55 50 45 45 52 60 64 62 62 66 74 81 81 76 66 49 26 6 1 14 39 72 111 151 186 
217 242 255 255 241 218 193 168 141 111 91 84 86 92 99 99 88 72 63 62 62 52 34 
23 26 33 33 34 43 46 42 45 56 64 65 60 55 55 65 72 70 71 79 82 76 62 49 41 44 
54 62 61 61 68 75 76 72 67 62 58 61 69 74 73 70 58 63 62 66 61 59 64 66 63 63 
65 68 69 73 75 69 60 54 56 62 67 65 57 49 46 49 58 64 63 58 60 68 79 87 83 73 
63 50 32 15 8 18 41 69 97 130 167 203 230 243 244 235 220 199 177 152 125 101 
85 78 76 74 68 59 48 39 38 40 36 29 28 37 44 44 44 49 53 51 53 60 66 68 63 53 
51 62 69 67 65 70 72 67 57 49 46 51 62 68 66 65 73 76 71 66 63 59 55 59 70 75 
70 63 60 64 67 71 63 61 66 65 57 54 58 62 64 67 68 65 60 57 57 63 71 72 62 51 
46 50 60 65 62 60 65 73 82 88 86 74 62 52 40 28 22 25 40 58 75 102 143 187 217 
233 238 236 227 212 195 174 147 118 96 84 75 64 54 47 40 32 27 26 28 29 34 44 
51 52 55 58 57 55 55 57 61 63 60 52 47 54 62 64 65 69 69 65 59 55 54 61 68 69 
64 64 71 75 70 65 63 59 52 55 63 68 66 57 62 67 69 68 65 66 72 72 65 59 59 59 
60 61 61 61 61 60 59 63 72 76 69 59 52 53 59 64 62 65 73 79 82 86 88 83 70 58 
50 45 40 37 42 48 56 80 126 174 208 227 234 235 230 223 215 199 172 140 116 
100 86 68 52 42 39 31 23 20 23 26 31 38 47 56 64 68 62 54 52 53 56 56 53 48 44 
46 51 60 67 72 72 70 65 60 60 68 73 69 64 65 71 76 75 71 68 64 58 54 57 62 65 
62 69 73 68 61 66 73 79 80 74 65 59 58 59 59 58 63 67 66 62 60 65 69 70 68 62 
59 59 60 61 68 79 82 79 82 88 89 80 69 61 59 55 48 43 41 47 69 113 163 198 219 
228 229 228 228 228 217 194 164 138 118 99 76 53 37 31 26 22 21 24 26 28 33 41 
53 65 69 62 51 47 51 53 51 47 46 45 43 44 53 65 72 73 71 67 62 61 69 77 77 74 
74 78 79 76 72 70 68 64 59 56 58 63 67 75 77 66 56 67 77 82 80 73 63 58 60 62 
61 62 68 75 72 65 56 55 62 69 70 64 61 61 60 61 68 78 82 78 77 81 86 84 76 68 
66 63 55 45 37 41 63 102 144 180 206 222 226 225 229 232 226 206 181 153 129 
107 83 56 34 24 24 26 29 33 35 36 38 41 48 57 62 58 51 48 51 53 49 44 47 53 50 
46 53 65 70 68 68 66 60 60 69 80 83 83 85 85 80 72 67 68 68 64 59 56 57 63 64 
72 77 70 57 67 71 71 68 64 58 58 64 65 63 65 72 75 73 66 59 56 61 67 65 60 60 
63 62 59 66 75 79 76 73 73 76 78 76 71 68 67 60 47 36 39 60 90 123 157 191 214 
226 230 236 236 225 208 188 159 128 105 87 63 41 28 27 33 40 43 44 46 47 48 50 
52 54 57 59 57 57 56 51 49 54 61 59 56 60 69 70 66 65 66 60 58 66 75 79 82 85 
84 77 68 66 70 70 63 55 55 60 59 62 70 77 75 64 64 59 56 57 57 54 57 62 63 61 
63 67 66 65 67 66 65 66 67 63 58 60 62 60 57 61 69 73 72 70 69 70 73 76 75 72 
68 63 53 41 43 58 81 103 132 171 201 222 236 245 238 221 206 188 158 124 99 86 
71 53 37 31 37 46 48 47 48 52 57 57 55 56 64 71 69 66 63 60 58 61 65 64 64 68 
73 71 64 62 61 59 57 62 68 71 73 77 79 74 67 67 74 74 63 55 57 63 64 69 74 77 
72 66 58 48 50 58 56 51 52 57 57 57 59 60 56 57 65 71 71 69 67 63 62 63 61 53 
49 53 61 66 67 70 71 72 75 80 81 73 64 61 57 51 49 56 68 83 107 142 176 203 
224 237 234 217 200 183 152 118 92 81 72 58 42 32 38 51 56 51 47 51 57 60 59 
60 69 75 72 66 65 69 69 68 70 73 73 74 75 71 61 57 56 56 57 61 64 65 67 70 72 
72 67 67 74 74 64 58 61 69 71 74 77 75 64 62 56 50 55 63 60 49 47 54 55 55 59 
58 54 56 64 70 71 69 67 64 63 64 58 48 44 50 56 60 64 69 72 73 77 83 82 70 57 
56 60 58 52 51 57 69 89 118 149 174 195 213 219 207 188 166 137 105 83 73 65 
55 40 32 40 58 68 60 51 47 50 54 59 61 64 64 58 54 61 67 69 71 76 79 77 72 70 
65 58 53 55 57 59 61 62 62 62 62 66 70 69 68 71 75 71 63 65 71 70 70 74 72 64 
61 58 58 64 69 63 51 48 55 58 56 56 57 59 63 65 66 70 72 67 59 54 55 54 49 47 
50 54 57 61 65 67 71 77 80 74 60 51 53 59 59 53 50 55 67 86 110 135 153 169 
185 195 189 170 142 113 87 69 58 52 46 36 31 40 58 69 66 57 49 46 48 54 58 59 
55 49 44 46 53 60 67 72 74 68 60 56 55 52 51 56 61 62 62 62 62 57 55 60 68 68 
66 71 77 75 68 68 75 66 64 70 75 72 64 64 62 65 70 64 56 56 61 61 56 53 55 62 
67 66 63 69 74 68 54 46 47 49 50 49 50 52 55 56 58 63 68 72 70 61 51 46 51 57 
57 53 54 61 74 90 109 130 143 152 162 173 172 151 121 93 71 57 48 42 40 38 36 
37 46 57 63 60 56 50 49 53 57 59 59 53 42 38 45 55 63 65 63 54 45 46 48 46 49 
58 63 63 63 66 65 57 50 52 59 61 59 65 75 75 67 73 77 66 66 74 81 79 68 66 62 
61 66 66 63 64 68 66 59 54 53 60 65 64 60 62 67 65 56 49 48 51 52 51 52 55 56 
53 54 61 68 69 64 55 47 44 49 55 58 57 60 69 81 91 106 121 131 137 144 155 155 
137 108 81 60 49 44 43 48 51 49 44 45 49 55 62 64 60 55 53 55 60 68 63 45 38 
50 64 68 65 59 52 47 48 50 49 49 57 62 60 59 65 68 63 53 48 49 49 47 51 63 70 
68 79 72 67 71 80 82 77 69 68 62 61 65 67 67 68 71 71 65 59 55 59 66 67 63 62 
61 60 59 60 59 58 57 58 60 61 59 54 55 63 67 67 65 58 49 45 48 57 62 63 63 71 
82 91 102 111 114 115 125 137 137 121 98 73 53 43 43 51 60 66 65 57 53 53 58 
64 69 68 62 54 52 60 74 72 55 46 60 75 74 69 69 65 59 59 60 54 49 53 60 59 54 
59 69 71 60 50 47 46 40 40 51 62 65 71 66 66 76 82 78 71 69 70 67 66 67 65 62 
67 72 72 68 65 64 66 71 76 75 70 63 63 67 69 65 63 65 67 68 66 62 60 63 67 66 
65 66 63 52 43 44 53 60 61 62 68 78 90 99 104 101 100 105 115 114 103 88 70 50 
38 40 52 64 70 66 59 57 60 61 64 68 68 64 58 55 64 78 76 61 53 63 72 70 70 76 
75 67 64 66 57 47 52 61 63 60 62 70 74 68 58 53 51 44 37 44 58 66 70 68 68 76 
79 72 67 65 67 67 68 69 63 58 64 73 72 68 69 72 74 76 79 80 78 73 70 72 72 67 
63 69 72 71 66 64 67 72 71 65 61 63 61 52 41 39 45 51 51 52 59 71 83 93 99 97 
91 89 92 91 87 84 76 55 36 34 48 63 67 61 53 54 59 62 64 63 62 63 65 66 71 81 
77 59 52 59 61 60 66 74 72 64 61 65 60 51 53 66 73 71 70 75 75 69 61 58 57 53 
46 45 55 65 73 73 72 74 73 66 64 61 64 64 69 70 64 59 64 75 74 67 69 75 76 73 
72 74 74 71 70 75 75 68 63 67 73 73 67 67 72 78 75 66 60 60 57 48 41 40 45 45 
41 41 51 65 75 83 89 87 81 77 77 74 76 80 78 61 40 34 46 64 71 62 52 53 62 68 
65 60 58 63 72 77 77 77 69 54 47 53 56 54 60 64 58 52 55 62 63 59 59 66 75 77 
79 79 73 65 60 59 61 61 55 51 58 66 72 72 71 72 66 59 59 65 70 69 68 72 69 62 
68 75 72 64 65 74 75 69 64 64 64 60 63 74 77 68 64 70 77 75 69 69 73 78 76 70 
64 61 54 44 39 45 53 50 40 37 47 62 71 73 75 74 70 66 65 64 65 71 72 59 44 41 
53 70 77 68 58 60 68 72 67 58 55 64 79 82 78 72 62 51 49 55 57 53 51 52 47 45 
51 61 67 67 65 65 69 77 82 80 70 58 55 57 61 63 61 57 67 68 69 67 70 72 65 55 
54 72 77 74 71 74 73 67 66 71 69 61 64 72 73 67 62 63 62 56 58 68 74 70 68 74 
78 75 69 67 70 73 74 73 68 61 51 41 39 48 59 59 46 37 43 57 66 70 71 67 60 56 
57 59 56 55 55 52 47 52 66 78 78 67 60 63 68 67 59 51 50 61 77 85 79 71 62 55 
57 61 58 51 46 46 46 49 54 63 71 73 67 63 67 78 85 79 65 53 51 55 59 62 64 64 
69 70 68 67 70 70 64 55 53 69 72 70 68 71 73 70 67 68 69 65 66 73 74 67 64 68 
67 59 58 64 69 67 67 70 72 71 69 69 69 69 69 69 65 59 51 43 40 46 55 58 49 39 
37 46 58 68 74 68 57 54 57 58 53 44 39 42 51 64 74 77 71 62 56 57 56 51 46 41 
41 53 72 84 81 74 66 61 60 58 54 49 48 50 54 58 64 70 74 72 65 63 70 80 84 77 
65 54 54 59 63 66 67 71 63 69 68 65 63 63 59 56 56 61 61 61 60 65 72 73 71 71 
71 69 68 71 72 68 65 68 69 63 59 61 63 61 60 60 61 65 70 72 71 69 66 63 62 58 
52 44 40 42 48 53 51 44 37 38 48 64 75 73 62 54 56 58 52 38 31 39 55 70 75 71 
61 52 48 46 42 40 41 40 39 46 64 78 78 73 68 64 59 53 51 55 60 61 63 65 70 74 
73 66 58 63 74 79 77 71 64 59 61 68 72 71 70 52 60 66 64 57 53 53 52 53 56 62 
59 60 59 61 69 74 74 73 73 69 64 66 69 68 65 65 66 64 61 61 60 58 55 55 58 62 
69 71 70 68 66 63 62 60 54 46 39 37 41 51 57 53 43 37 44 58 70 71 63 54 50 50 
48 40 34 42 57 69 71 63 51 43 39 35 33 38 47 48 43 44 57 69 71 69 68 64 56 50 
54 65 73 71 66 64 67 70 67 57 51 59 72 72 64 60 59 60 64 72 77 71 68 58 62 65 
62 56 52 52 52 52 53 62 58 66 65 63 64 67 68 67 66 65 61 61 66 68 63 60 60 61 
61 60 57 55 58 63 66 65 66 66 65 65 65 65 66 67 61 51 41 38 43 55 64 62 51 43 
44 51 60 65 62 53 46 43 43 43 44 49 58 66 69 64 51 40 35 33 34 42 53 54 49 47 
55 63 66 67 68 65 57 53 59 69 74 71 63 57 59 64 63 53 47 54 66 67 58 56 59 59 
63 72 77 68 60 62 63 67 68 67 67 66 62 57 59 73 68 64 66 69 60 59 59 59 59 60 
59 60 65 68 63 58 57 57 57 54 51 54 64 70 70 66 63 61 61 61 63 65 69 72 70 63 
55 48 49 59 68 67 59 52 49 49 53 59 62 58 49 44 46 52 56 57 58 63 70 70 60 48 
42 41 42 46 54 58 54 51 56 62 64 66 68 64 59 58 62 66 68 66 62 56 55 59 62 55 
47 52 62 65 62 61 64 66 69 74 77 69 55 58 62 68 73 78 81 80 72 66 71 72 77 67 
68 72 70 65 62 60 59 60 61 62 65 66 62 59 58 58 55 51 50 54 61 64 62 57 57 59 
59 59 61 64 68 71 72 71 67 60 53 57 64 68 65 61 56 52 52 57 64 66 61 56 57 61 
63 61 57 59 67 71 66 59 56 55 52 52 58 62 60 57 60 64 63 62 64 62 59 62 63 61 
62 64 64 59 56 57 60 57 53 56 66 72 70 69 71 73 76 77 74 61 52 58 64 68 73 78 
83 80 72 69 75 66 77 74 71 74 77 73 71 71 67 60 64 64 63 63 62 62 64 65 65 62 
59 56 54 50 47 49 54 57 57 58 60 64 67 66 65 68 71 66 58 54 58 64 66 64 60 54 
53 60 70 74 71 68 66 64 64 62 58 56 59 66 69 67 66 65 60 57 62 66 66 66 67 66 
61 58 58 56 56 58 58 59 63 68 67 60 54 54 57 59 61 66 75 81 78 71 69 72 76 73 
65 59 58 64 68 70 71 72 74 73 66 64 71 70 70 74 67 70 74 72 72 74 72 68 68 67 
60 62 63 67 71 76 78 76 69 59 48 41 44 51 55 56 58 61 63 65 66 63 61 65 71 71 
65 59 58 61 64 63 58 55 57 64 71 75 74 71 68 64 65 69 64 57 54 61 68 71 70 69 
64 59 60 65 69 72 75 72 64 58 56 55 56 55 56 60 66 70 65 56 49 51 58 66 70 74 
81 85 80 69 64 68 72 69 61 68 69 70 69 68 67 67 69 70 65 61 66 74 64 69 62 65 
66 64 65 69 71 69 64 63 61 57 60 71 72 75 80 80 73 61 50 45 51 60 58 57 63 66 
65 64 64 65 65 67 70 74 73 69 65 64 64 62 58 59 63 67 68 68 69 68 66 62 65 73 
72 59 51 59 71 72 70 68 64 59 57 59 65 72 78 78 73 70 68 66 64 64 62 63 67 67 
60 51 49 55 64 71 73 73 76 78 73 66 65 72 76 72 65 70 74 71 66 63 63 66 71 73 
68 64 63 71 62 66 64 66 64 58 59 65 69 66 62 61 62 64 62 62 65 67 70 75 73 66 
59 57 60 64 60 59 66 68 59 54 59 66 68 67 66 69 73 73 71 69 64 58 59 66 76 72 
62 57 59 63 63 60 63 71 71 57 50 57 69 71 68 66 63 57 54 55 61 69 77 80 80 79 
77 73 72 71 68 66 66 63 57 52 53 61 68 69 67 67 69 69 66 68 74 80 82 77 65 69 
72 69 64 62 62 64 71 73 69 63 61 64 66 67 72 75 69 60 60 67 69 69 67 65 66 68 
64 59 61 67 66 63 67 74 70 64 63 64 61 61 66 63 50 43 50 60 66 63 59 60 63 66 
69 68 58 49 55 71 84 79 61 51 52 58 59 56 56 61 62 53 49 54 62 65 65 63 60 55 
53 56 63 71 76 76 75 73 70 68 69 71 69 66 63 62 60 57 59 65 68 64 59 66 70 68 
67 73 81 82 79 70 62 66 69 67 66 65 62 61 66 70 65 59 59 63 71 67 74 77 70 65 
69 72 70 69 69 69 69 69 67 63 64 67 64 58 61 73 75 68 62 64 64 62 65 59 47 39 
44 53 59 59 58 57 56 59 65 65 52 39 46 66 82 78 63 52 52 55 55 53 52 56 60 59 
54 54 56 58 60 62 59 55 55 61 69 76 76 71 65 60 57 59 65 71 69 65 64 64 63 60 
61 66 69 64 61 68 74 73 71 77 80 75 71 58 60 65 66 63 66 68 62 58 65 72 66 60 
60 71 74 66 69 68 63 64 73 75 69 66 68 69 68 69 70 69 68 70 67 58 59 71 77 69 
61 64 64 60 60 62 55 47 45 49 53 57 60 61 59 59 64 65 55 41 39 54 67 68 60 57 
58 57 55 54 56 61 67 69 64 60 57 58 61 63 61 58 57 61 68 75 77 71 63 57 57 63 
70 74 71 67 66 67 63 58 57 63 67 68 67 69 72 72 73 74 72 68 64 56 60 64 62 59 
64 67 61 58 67 76 72 63 64 81 73 68 64 58 55 60 70 74 69 66 68 69 67 66 67 66 
66 70 71 66 62 68 74 70 63 63 71 75 70 65 65 59 52 49 51 58 63 64 61 60 65 67 
62 53 49 52 56 58 61 66 68 63 56 56 60 65 73 74 69 65 65 64 64 64 65 65 61 58 
60 68 74 72 67 64 66 70 74 74 69 66 66 66 61 54 51 55 62 69 69 68 67 69 72 68 
63 62 63 55 58 59 56 57 62 65 61 60 68 75 71 64 67 80 68 69 66 59 54 57 65 69 
69 68 70 70 65 61 61 64 65 67 73 73 68 65 68 69 68 67 69 71 71 67 64 61 59 53 
53 58 62 62 60 59 60 64 69 69 64 59 56 59 65 72 72 65 59 58 61 62 63 63 63 65 
69 68 63 61 65 70 68 60 57 61 68 71 71 70 72 74 74 72 66 62 61 62 59 55 51 51 
57 66 70 68 68 71 71 63 56 57 69 51 53 53 53 57 62 63 63 63 67 68 65 63 67 72 
61 68 69 66 62 62 66 68 65 64 67 70 64 59 62 71 72 70 72 75 73 69 68 70 72 69 
65 64 67 69 64 59 57 57 56 58 58 56 57 58 55 59 68 76 74 67 63 63 65 67 66 63 
62 64 63 58 54 53 54 59 65 65 59 57 62 71 73 67 60 61 67 71 71 71 74 77 78 76 
68 61 58 59 59 58 57 56 60 65 67 65 64 67 66 60 54 57 53 53 54 55 58 61 64 65 
64 66 67 63 61 62 65 67 54 65 69 72 72 72 73 72 66 60 60 66 66 62 66 75 76 70 
66 69 73 74 73 74 73 69 62 59 63 68 66 60 58 60 61 64 66 57 54 56 57 58 67 77 
76 70 65 64 62 60 60 61 64 68 67 62 57 55 56 59 61 60 57 56 58 64 72 73 68 65 
68 71 71 71 74 78 81 81 75 67 60 56 55 57 61 62 63 65 62 56 54 57 58 56 55 61 
60 61 61 63 64 66 67 66 66 67 68 65 63 65 64 66 52 67 68 73 76 76 75 73 66 55 
54 61 65 64 65 69 68 63 59 62 67 72 73 70 65 64 61 59 61 65 65 62 61 66 72 77 
79 76 66 56 60 64 68 75 75 69 67 68 63 60 62 66 68 70 69 67 64 65 66 64 59 60 
62 62 58 59 66 71 72 68 68 68 68 69 70 73 78 82 76 68 63 58 53 53 58 62 65 67 
64 56 51 50 52 54 57 57 65 68 66 65 66 68 67 64 64 67 71 69 70 71 68 65 55 71 
68 69 72 70 67 66 61 53 51 56 61 63 62 61 59 58 59 59 62 65 64 61 58 58 60 62 
63 63 63 62 64 70 75 78 80 78 71 66 64 64 63 67 64 67 72 74 68 65 71 76 73 68 
66 66 67 68 68 65 61 62 67 68 63 59 62 69 73 70 65 62 64 68 70 71 76 79 74 67 
65 62 55 53 58 63 67 71 72 68 62 56 52 52 55 57 68 70 65 65 68 68 65 61 63 71 
76 72 71 73 71 63 62 58 58 63 70 72 71 67 63 61 64 71 58 60 64 64 61 64 66 66 
64 61 58 61 61 60 61 63 65 64 63 64 68 71 70 67 69 73 75 75 73 66 62 64 66 61 
65 69 66 64 71 79 73 63 63 65 65 64 65 65 63 63 65 67 65 63 64 69 73 70 64 61 
65 72 72 72 77 80 75 68 65 66 63 61 64 67 70 74 79 81 77 66 57 55 57 64 64 60 
58 57 55 57 61 62 63 64 64 64 69 75 62 
