P2
112 112
255
83 80 77 76 70 64 64 71 76 77 76 69 63 63 69 77 81 80 75 65 61 67 74 71 56 49 
60 75 76 69 64 61 56 55 61 68 67 58 51 50 55 62 71 71 66 60 55 56 63 68 68 68 
68 68 69 73 74 71 72 71 66 60 62 66 60 50 47 48 46 48 55 62 68 71 69 65 64 64 
63 64 68 72 72 72 74 74 69 62 59 63 65 62 57 58 63 66 62 63 69 73 73 73 74 74 
68 64 71 84 85 73 69 78 77 80 82 67 68 70 73 75 74 74 77 76 71 66 66 67 71 74 
71 63 58 66 77 72 57 53 65 74 69 62 61 60 56 55 62 70 73 69 65 62 60 60 60 58 
55 51 47 49 59 64 61 61 64 61 59 66 73 75 75 71 63 57 62 68 66 60 58 58 55 54 
60 67 74 79 79 72 65 63 67 76 81 75 64 64 71 72 67 64 66 69 70 70 68 66 67 67 
64 65 69 69 67 69 72 71 67 66 77 91 92 77 66 69 68 76 83 63 67 71 77 78 74 75 
78 78 72 66 65 64 64 68 71 68 65 70 77 71 59 57 65 67 58 54 57 60 59 62 69 76 
80 84 83 79 75 72 64 55 52 53 51 51 57 58 54 57 62 57 52 56 67 74 75 69 59 58 
66 73 71 66 64 64 61 59 62 66 72 78 78 71 63 59 66 79 85 73 57 58 68 69 61 62 
70 74 72 70 68 64 64 66 67 69 69 62 54 57 65 71 71 70 74 84 86 77 65 63 61 68 
79 66 70 76 79 78 77 79 81 76 68 66 70 74 72 73 76 77 74 75 79 75 65 61 62 60 
55 54 60 65 68 72 75 78 85 92 92 85 80 79 73 61 57 60 60 58 57 54 52 59 64 56 
47 47 56 66 69 64 59 63 72 73 65 58 58 62 65 66 63 61 63 66 67 65 64 64 67 75 
81 73 61 62 70 68 59 59 67 70 67 64 60 55 57 64 69 69 65 56 49 52 64 76 81 77 
73 76 81 78 68 60 60 65 74 67 73 78 77 76 76 78 78 73 67 68 78 86 84 79 79 79 
76 75 80 83 74 64 60 57 53 54 62 70 73 73 71 74 85 94 88 75 71 74 72 63 62 68 
67 61 55 52 52 59 61 52 42 39 45 55 61 61 63 70 75 70 57 51 51 59 71 75 69 61 
59 58 57 59 66 72 72 71 73 71 69 70 71 67 61 60 63 65 65 64 59 52 52 60 65 63 
60 60 63 64 70 80 86 83 77 76 80 82 76 65 67 69 74 65 71 71 67 68 72 73 72 71 
69 69 76 83 83 76 73 73 70 69 77 83 77 64 57 53 47 46 56 68 72 65 60 67 84 90 
80 67 63 66 63 60 64 72 71 62 54 53 56 58 53 45 38 36 42 52 58 60 65 75 79 71 
62 58 57 61 73 81 78 73 72 70 61 58 65 70 67 61 61 64 65 65 64 62 61 60 60 63 
68 71 65 55 51 56 62 61 61 70 78 75 69 71 78 80 78 76 78 82 81 73 71 72 78 65 
68 62 53 56 66 70 71 72 71 67 68 72 72 68 67 67 64 64 71 74 66 57 54 51 45 42 
50 63 67 60 56 67 81 82 75 70 68 63 55 54 60 69 72 67 61 61 66 65 56 47 44 45 
49 56 60 60 66 78 81 75 72 71 66 61 66 75 82 87 90 88 74 63 62 64 58 51 52 58 
62 61 59 60 61 59 59 65 70 72 69 60 55 60 67 66 65 73 78 69 56 56 64 70 71 69 
70 76 82 78 68 69 77 72 73 59 41 44 60 72 78 78 72 64 64 69 68 65 65 67 65 63 
64 62 54 51 53 55 52 49 50 58 64 65 67 72 75 73 75 80 77 65 53 49 54 65 73 75 
71 69 72 72 65 62 62 62 61 64 65 64 70 79 79 72 69 70 64 55 54 63 78 87 89 85 
78 69 64 61 56 51 53 60 67 68 66 63 61 59 62 67 68 66 65 65 63 67 73 71 66 69 
71 61 49 50 61 67 65 59 59 68 77 75 64 64 74 76 77 62 44 45 61 76 83 81 70 61 
63 72 73 68 65 66 65 63 60 55 53 54 57 59 62 61 57 57 63 72 78 78 71 67 74 82 
79 68 58 54 56 63 72 77 75 71 69 67 68 74 78 74 69 68 67 66 70 74 68 58 55 58 
56 51 51 59 70 75 69 62 65 69 67 61 55 53 56 62 68 70 68 63 57 56 63 68 63 58 
60 66 68 70 70 66 59 60 65 63 56 57 65 71 65 56 53 62 72 71 65 67 76 73 77 68 
60 61 69 76 78 74 66 60 64 72 73 67 62 61 61 61 59 58 63 66 63 62 66 68 64 60 
63 70 77 75 67 65 72 77 73 68 67 63 60 63 70 77 79 73 66 60 63 72 77 73 65 62 
62 60 60 61 55 47 47 53 55 54 55 61 67 65 54 49 57 67 66 60 56 55 56 59 60 58 
56 52 51 55 61 61 56 55 59 63 66 69 68 60 52 53 63 68 63 59 65 71 69 61 56 62 
71 71 69 73 79 74 78 77 78 76 73 69 66 66 67 67 67 67 65 59 56 55 58 61 62 64 
71 74 69 63 63 64 65 62 61 63 67 68 65 67 71 70 66 67 71 69 63 63 71 81 85 79 
67 58 56 60 64 60 53 52 54 52 52 54 52 50 54 59 59 57 56 60 67 66 58 57 67 72 
66 61 62 63 60 59 57 49 42 40 48 57 56 49 49 58 62 59 62 70 73 64 52 52 61 63 
56 54 61 70 71 65 62 64 69 69 71 76 77 81 82 83 81 75 68 64 63 66 73 76 71 62 
55 51 51 54 62 67 65 64 70 76 73 65 57 52 56 61 60 59 61 64 66 70 72 67 61 62 
67 69 66 67 76 85 85 76 65 55 50 50 52 51 50 52 53 52 52 56 58 60 63 64 60 55 
53 56 63 68 70 74 79 76 66 62 67 71 68 67 66 56 40 35 45 58 56 46 50 65 68 59 
61 74 77 66 55 55 58 54 49 52 63 72 71 66 64 65 66 67 74 76 71 82 81 78 71 61 
60 66 71 72 76 77 68 58 53 51 52 58 68 70 64 60 65 74 76 69 56 45 50 60 62 58 
59 63 68 71 72 68 61 59 65 71 70 71 79 84 78 67 60 55 51 49 48 50 55 60 61 58 
56 57 59 61 62 62 59 56 55 55 57 64 74 80 79 71 63 60 65 69 69 74 77 67 45 34 
42 55 59 56 62 73 71 63 65 76 75 64 59 61 60 55 56 64 70 72 68 64 64 67 70 71 
80 76 70 75 76 74 64 53 59 72 77 74 73 70 62 55 56 57 58 61 67 66 59 57 64 73 
77 74 64 54 58 67 67 59 55 59 65 68 69 67 64 65 71 76 73 70 73 74 68 62 61 62 
60 56 51 49 55 65 69 67 63 57 54 54 59 65 66 64 61 58 52 54 65 73 71 64 58 58 
63 64 66 74 79 68 51 43 47 56 63 68 71 76 74 70 71 75 71 62 64 69 67 65 69 75 
73 68 66 65 66 71 78 81 81 76 70 69 76 76 64 52 57 69 73 72 71 69 62 57 59 62 
61 60 60 59 57 60 67 72 74 74 69 67 73 80 76 66 56 55 58 60 59 63 67 70 74 74 
70 66 65 61 58 59 64 67 67 64 56 50 53 65 75 78 75 66 57 55 61 73 76 70 63 57 
50 49 56 63 64 59 53 54 59 62 65 72 74 64 55 56 60 62 63 68 71 77 82 81 76 73 
68 65 69 75 71 67 72 76 71 66 68 70 69 72 80 83 74 72 70 64 76 80 66 51 51 59 
67 73 76 75 68 64 65 64 62 60 58 59 64 69 72 71 71 70 67 68 76 83 82 76 68 59 
54 50 48 53 61 64 64 64 66 67 65 57 52 56 63 66 67 67 62 57 61 69 77 82 82 76 
66 60 63 74 77 68 59 55 53 52 54 60 62 58 48 46 52 61 65 67 65 56 53 63 71 68 
62 64 71 80 89 88 79 73 68 67 73 76 70 63 66 71 69 70 74 73 68 68 73 76 70 70 
72 60 74 80 68 54 51 57 68 78 80 75 71 71 73 69 67 66 66 68 74 76 73 70 67 64 
62 62 67 72 76 81 81 69 56 48 45 47 50 49 48 54 68 77 74 63 55 59 65 67 64 62 
63 66 72 75 74 73 73 73 69 62 60 64 67 62 57 57 59 58 58 62 65 60 48 42 51 62 
64 61 60 54 51 60 70 67 62 65 72 78 82 81 76 72 69 70 77 81 74 64 62 66 70 73 
77 74 68 68 73 73 71 70 73 67 75 79 72 63 60 64 75 82 77 68 66 71 73 70 71 73 
73 74 76 74 68 63 61 58 58 60 59 56 61 73 82 76 62 52 49 49 46 41 40 51 71 83 
77 62 56 62 70 71 63 54 56 67 76 74 64 58 60 65 70 66 58 52 53 57 60 61 60 59 
59 63 68 67 56 50 59 69 66 61 61 60 59 63 67 63 61 68 73 73 71 71 73 72 69 72 
81 88 83 73 66 65 68 72 75 76 74 75 79 78 70 69 71 76 76 76 70 67 65 67 73 77 
71 63 62 66 63 63 67 71 71 71 72 69 62 57 54 53 57 60 55 47 49 62 72 70 61 56 
56 54 49 43 43 52 67 75 67 50 43 52 65 72 66 53 52 63 71 66 56 52 56 64 72 73 
65 51 47 54 60 60 55 53 56 61 68 70 63 59 67 73 68 62 64 67 70 73 71 65 62 68 
72 72 73 76 77 74 70 70 78 87 88 82 74 67 66 69 74 78 80 82 83 77 64 67 72 74 
72 66 60 58 61 62 63 66 66 65 68 68 61 56 58 62 64 67 70 67 61 57 53 52 56 56 
49 44 48 58 61 59 57 60 63 58 51 49 51 54 57 61 57 44 33 36 52 69 73 62 55 61 
67 60 53 54 60 65 68 71 67 57 54 57 60 58 53 52 53 59 68 70 65 62 67 70 64 59 
59 64 72 79 77 70 67 70 74 78 85 88 82 75 71 68 70 78 83 81 73 65 64 71 78 80 
82 83 79 69 62 72 80 62 61 57 50 52 59 62 62 63 64 69 76 77 72 63 57 57 63 71 
72 67 64 62 59 57 57 53 46 48 56 61 59 52 56 68 74 64 54 55 60 55 48 51 56 51 
38 34 45 64 74 68 61 63 67 62 55 56 61 62 59 58 60 63 68 65 59 57 60 60 57 58 
65 69 65 62 63 64 59 51 49 54 64 73 74 73 74 74 73 77 84 83 77 73 73 71 71 74 
79 76 64 56 60 72 81 81 80 78 71 61 61 77 88 57 56 56 54 60 71 76 76 73 68 69 
76 79 77 68 58 57 66 74 70 63 62 65 65 63 60 56 55 60 66 67 59 52 59 74 82 71 
59 60 64 55 44 46 55 55 48 44 48 58 66 64 59 60 65 67 62 58 58 59 55 50 55 66 
73 65 53 53 64 70 63 58 61 67 65 61 59 59 55 47 44 47 55 59 62 67 73 74 69 69 
72 68 64 67 73 77 78 80 81 76 63 53 56 68 74 75 73 70 62 56 56 71 85 67 62 63 
65 71 80 88 88 81 72 67 70 74 73 67 58 58 66 68 58 50 54 62 64 62 60 62 68 73 
72 68 61 56 61 72 76 67 61 63 62 50 40 42 49 52 54 54 52 52 56 55 51 50 57 68 
71 64 58 61 63 59 60 68 68 52 38 43 59 69 65 58 57 59 58 56 54 53 51 47 45 47 
50 50 51 57 63 64 62 63 66 64 60 62 67 72 77 79 79 77 73 63 56 58 61 63 65 64 
58 52 53 62 73 80 72 71 71 70 73 78 81 78 73 66 66 70 72 68 61 60 63 59 46 39 
47 60 61 56 54 61 72 75 68 63 63 64 64 64 62 57 59 60 53 40 36 39 44 50 57 59 
54 52 54 52 45 40 47 64 76 71 63 67 75 75 71 70 61 40 27 34 51 58 57 55 56 54 
50 49 49 50 50 50 51 51 51 51 51 52 51 50 53 59 66 68 62 57 56 58 63 66 67 72 
77 73 60 53 52 55 61 63 60 55 60 61 64 84 77 74 70 64 61 63 65 67 66 62 64 71 
76 72 63 59 62 61 51 45 54 66 65 55 51 59 69 70 62 60 66 71 65 56 53 57 63 59 
46 36 36 40 45 53 58 55 51 57 62 56 42 36 45 63 74 71 64 70 81 81 75 69 57 37 
25 32 45 48 47 52 59 60 53 51 53 54 54 57 59 56 55 59 59 52 43 39 44 50 59 63 
62 56 52 51 52 53 55 64 73 72 63 57 55 57 62 66 65 62 71 67 60 82 80 77 71 64 
60 56 56 59 57 53 59 73 80 74 61 54 60 69 69 63 65 72 70 60 56 64 74 71 64 63 
69 70 59 48 49 63 71 62 48 43 47 47 48 53 51 41 41 56 63 51 33 33 51 69 71 63 
59 66 75 75 68 61 53 38 25 27 38 41 39 48 65 74 69 65 64 60 58 66 72 64 57 61 
64 56 45 41 41 43 45 49 54 59 59 55 50 48 54 66 73 68 64 64 65 68 69 69 65 66 
73 68 56 77 81 82 77 69 61 55 55 58 54 48 56 72 80 74 58 51 59 73 78 71 67 69 
67 63 65 74 82 78 69 67 69 62 44 32 38 57 70 62 52 55 62 56 51 51 43 28 31 48 
54 36 21 31 57 77 74 63 61 68 72 69 62 57 50 37 21 20 29 34 32 40 62 77 79 78 
76 66 63 78 86 74 59 59 62 57 52 52 49 42 37 37 45 59 65 59 49 48 60 71 72 63 
60 65 72 79 81 73 62 64 72 65 52 68 77 84 82 74 63 56 58 61 58 53 58 68 73 71 
64 57 61 68 67 61 61 65 65 65 70 80 85 77 67 67 69 59 34 17 24 46 61 57 53 61 
69 62 53 49 41 28 29 41 43 28 20 33 61 80 83 78 80 84 83 78 71 62 52 38 21 16 
22 25 24 31 46 57 65 76 80 71 68 83 91 76 59 57 60 59 60 61 59 50 41 38 42 54 
61 57 50 52 63 69 65 56 53 57 66 79 87 77 62 63 71 62 52 61 70 81 83 78 72 67 
66 64 61 61 64 65 64 67 70 66 63 59 50 47 56 67 71 68 70 77 79 69 61 65 71 62 
39 22 27 46 59 58 55 60 64 59 50 46 41 33 31 38 41 38 38 50 69 88 96 100 105 
105 100 96 91 77 58 39 25 19 19 18 20 27 33 36 41 61 73 68 65 74 76 63 52 54 
57 56 58 62 61 56 51 50 52 55 58 60 60 63 66 66 62 57 54 52 55 66 76 72 62 66 
67 58 55 62 67 76 80 81 84 83 76 66 62 66 71 67 62 65 68 66 60 51 39 39 55 72 
77 70 66 67 67 61 58 64 71 67 55 46 48 59 67 65 59 58 59 53 41 34 31 28 30 38 
48 60 73 84 97 109 116 120 123 123 119 118 114 97 69 46 34 28 21 18 23 31 33 
29 30 42 55 56 53 55 53 46 44 50 52 47 47 52 53 52 55 62 68 67 65 67 70 70 69 
66 66 70 67 58 50 53 60 62 61 66 60 55 57 68 71 76 77 81 89 91 82 69 65 71 75 
69 63 63 60 54 52 48 40 41 57 73 78 71 63 58 55 52 54 62 68 69 69 71 71 69 70 
68 64 63 63 53 36 25 21 21 28 40 60 88 115 130 137 141 142 141 142 144 144 144 
138 119 92 68 54 44 32 23 22 27 30 32 34 34 37 41 44 46 43 39 45 54 51 42 41 
44 44 45 55 68 74 71 69 70 69 66 66 67 69 74 76 69 58 54 56 58 60 63 63 56 58 
70 74 79 79 82 87 88 81 72 70 73 71 64 60 59 52 45 48 53 53 52 61 71 74 69 62 
54 47 42 45 55 61 65 73 83 80 70 63 64 66 69 71 62 42 26 22 27 37 53 79 117 
154 175 180 178 174 169 166 169 171 168 159 143 121 100 83 68 51 33 16 9 15 31 
43 42 36 38 46 50 49 49 58 65 59 48 45 46 45 50 61 69 65 61 63 67 67 65 68 69 
65 63 70 74 68 64 65 66 65 66 74 64 60 66 70 79 83 81 79 76 73 72 75 74 66 58 
58 60 55 48 52 62 66 64 67 70 67 63 60 55 47 39 41 48 52 56 70 84 81 67 58 60 
65 69 71 65 50 35 33 44 58 75 101 141 186 217 223 216 210 202 193 192 195 190 
179 166 151 132 111 93 73 48 20 0 2 26 48 52 45 45 52 56 59 65 72 72 63 56 55 
56 56 62 70 68 57 52 58 64 68 73 77 73 59 50 58 69 70 68 72 74 75 77 82 73 65 
63 66 78 83 79 71 66 67 71 80 83 73 62 63 68 65 59 60 65 67 69 71 69 63 57 59 
60 55 49 48 49 48 53 72 88 86 71 62 61 62 62 61 57 48 38 41 60 80 99 121 160 
211 248 255 250 243 232 218 213 218 217 207 196 185 165 138 116 95 68 34 8 4 22 
41 48 44 44 50 56 62 72 77 71 60 59 64 68 68 71 74 70 62 59 60 61 64 71 79 73 
57 49 57 66 67 66 68 72 76 83 82 81 76 66 70 79 81 74 67 68 72 77 85 90 83 72 
70 73 71 66 63 61 60 66 73 72 62 55 59 65 63 59 58 55 51 58 79 96 93 79 71 67 
62 54 50 46 39 32 41 68 98 119 143 183 231 255 255 255 255 253 238 232 237 239 
232 226 218 198 168 143 120 85 45 20 12 18 27 31 30 32 43 53 60 68 73 69 59 58 
66 74 75 73 71 71 72 73 63 52 51 60 71 71 62 58 66 71 69 67 65 62 66 76 79 85 
85 70 76 80 74 63 60 73 83 85 86 86 79 69 65 65 67 68 65 58 54 62 74 73 58 48 
54 63 62 59 60 59 55 62 81 94 90 79 73 68 58 49 44 41 31 24 36 71 110 139 169 
210 249 255 255 255 255 255 247 240 243 243 240 240 240 227 202 177 149 103 
53 27 21 22 25 24 20 25 41 55 59 63 68 70 65 58 61 69 73 69 65 67 74 74 58 43 
44 57 70 75 70 66 69 74 75 74 69 60 59 68 76 84 85 72 76 74 62 47 45 62 79 82 
78 74 66 58 54 53 56 66 71 62 53 60 72 69 51 40 48 57 55 52 56 58 56 60 72 79 
77 72 69 63 52 42 37 35 28 21 34 75 121 160 198 241 255 255 255 255 255 250 
238 232 234 236 239 247 255 251 229 207 176 123 68 40 34 32 33 34 31 35 50 63 
65 63 68 72 69 58 53 60 66 64 58 58 63 61 50 42 47 60 73 81 76 64 60 66 73 76 
73 67 64 68 72 83 87 75 75 68 54 41 37 47 64 71 69 65 60 56 52 47 46 61 73 67 
58 63 73 68 53 47 54 57 50 47 54 58 57 58 65 70 70 67 64 58 47 36 30 30 28 25 
40 82 133 180 225 255 255 255 255 255 243 226 217 217 224 234 246 255 255 255 
240 216 185 136 87 58 46 36 32 41 50 54 61 68 70 69 70 72 68 56 48 53 61 61 54 
48 47 49 49 48 52 60 70 80 76 61 52 55 63 67 69 69 68 68 68 86 94 80 75 66 58 
53 50 53 60 64 63 61 60 61 59 50 44 55 69 69 65 73 83 79 70 68 67 59 47 45 51 
55 55 58 67 74 72 65 59 53 43 32 26 28 31 35 53 96 148 196 243 255 255 255 255 
249 223 201 196 205 217 230 248 255 255 255 231 202 173 135 95 70 50 31 23 37 
58 64 61 62 69 73 71 67 63 56 49 51 58 60 54 44 39 44 52 57 59 60 66 75 76 64 
54 53 55 57 61 65 65 63 68 84 93 79 74 68 66 70 72 73 71 66 61 58 57 60 62 56 
51 57 67 69 71 82 92 92 86 81 72 58 47 47 50 49 49 56 67 74 70 60 52 47 40 32 
27 30 36 44 68 111 161 210 252 255 255 255 253 230 200 177 177 191 205 215 233 
255 255 253 218 183 151 121 93 73 54 35 24 35 56 63 57 56 64 71 69 64 59 55 50 
49 52 55 54 47 42 46 57 65 66 64 65 72 76 68 61 57 54 52 57 62 61 60 65 74 77 
73 71 70 72 78 83 82 77 69 62 56 49 51 57 61 62 64 65 66 69 80 90 92 87 79 67 
55 50 52 51 43 42 50 58 61 58 52 49 46 40 33 28 31 39 52 79 120 168 215 252 
255 255 240 228 209 179 154 151 166 182 194 210 235 250 242 212 171 133 106 
86 72 60 46 35 42 57 61 56 57 63 67 67 63 58 54 50 46 44 46 51 52 51 57 63 67 
66 64 65 70 74 72 66 62 56 53 57 62 61 60 64 65 61 70 71 73 74 77 80 78 75 71 
67 60 49 45 53 64 67 63 57 56 62 73 81 82 77 70 61 56 55 54 47 39 39 46 51 50 
50 51 49 44 38 31 26 26 36 54 81 119 161 204 238 252 245 229 216 197 169 139 
124 134 157 180 200 220 236 233 206 162 122 98 84 70 58 46 38 42 53 57 57 57 
58 60 62 60 54 50 50 48 44 43 50 57 61 67 69 66 61 61 65 70 75 77 75 68 60 54 
56 58 58 61 66 63 59 71 71 73 74 75 77 77 75 74 74 69 59 53 59 67 66 55 48 49 
58 68 72 70 65 60 57 58 58 53 43 39 43 49 54 55 57 59 54 41 31 26 22 22 30 51 
80 115 147 179 214 240 247 241 227 205 176 144 121 123 148 180 204 218 225 220 
192 152 118 98 85 67 49 37 31 34 44 52 54 53 51 52 56 55 48 45 50 55 54 52 56 
61 65 70 74 69 63 64 69 74 80 86 86 75 62 55 52 52 58 65 67 61 62 68 68 71 73 
76 80 80 76 74 74 71 65 65 70 73 67 54 48 52 60 62 58 54 51 49 50 56 60 58 53 
50 54 59 62 63 66 69 63 45 27 21 23 27 36 56 86 116 140 162 196 233 255 255 
249 223 193 164 143 140 161 190 210 215 213 203 180 147 118 98 81 61 42 30 27 
31 41 49 51 49 47 49 53 54 50 48 56 64 65 64 66 66 65 69 76 77 72 71 71 73 81 
91 89 76 60 51 47 52 63 71 60 54 60 64 69 73 73 74 76 74 68 66 66 64 62 68 77 
79 73 63 57 59 63 58 46 39 40 42 44 52 62 69 69 66 67 69 69 66 66 71 69 53 32 
24 27 34 47 69 97 121 140 163 200 239 255 255 255 231 202 178 164 162 173 192 
204 204 197 188 174 150 120 93 72 54 40 33 30 33 41 49 47 42 44 51 56 59 58 60 
65 70 69 66 68 68 64 67 74 78 76 71 64 64 74 84 79 65 52 44 44 53 65 69 53 52 
61 64 76 83 77 71 69 67 63 61 59 57 59 68 78 82 78 70 62 60 63 61 48 38 41 47 
48 52 64 74 74 71 72 74 74 68 62 64 65 54 39 31 32 37 49 71 94 112 135 172 215 
247 255 251 240 223 200 179 168 167 172 181 190 191 184 177 170 155 127 94 69 
52 41 36 32 31 38 44 39 34 40 54 61 64 64 65 66 67 64 61 62 64 63 64 67 70 71 
68 62 60 67 72 67 55 47 45 48 56 62 60 54 58 65 64 80 89 83 70 66 71 72 66 59 
56 61 71 76 76 71 63 55 53 61 64 54 44 47 56 58 59 69 77 75 67 68 73 74 70 61 
56 57 53 46 41 39 39 44 58 73 90 120 170 217 241 237 222 217 214 199 181 172 
172 174 179 187 190 181 170 164 156 135 103 75 56 45 38 30 26 34 40 36 35 47 
62 68 68 64 56 52 55 62 65 63 60 59 61 63 63 67 71 69 65 65 65 63 61 57 56 59 
63 63 58 65 62 63 58 72 83 79 64 62 76 84 73 60 58 65 72 69 62 54 46 41 44 56 
61 51 41 46 57 62 67 77 85 83 74 69 70 69 65 60 54 52 54 53 51 49 46 42 44 52 
70 104 150 193 216 212 200 201 207 200 189 189 192 191 190 197 199 186 170 164 
160 143 113 81 59 48 40 29 24 31 41 42 45 58 70 74 71 63 49 41 50 69 81 74 60 
55 61 66 65 69 74 73 67 61 60 65 73 71 65 65 69 69 67 70 58 55 55 62 71 64 49 
50 70 81 72 59 60 65 65 59 52 47 42 38 43 54 57 44 34 39 51 59 66 79 90 90 85 
78 71 63 59 57 52 50 54 56 57 59 56 46 37 41 63 94 126 155 178 185 184 191 198 
195 190 200 211 209 201 202 203 194 182 177 170 150 119 88 62 48 41 33 26 29 
39 45 50 60 68 71 69 62 51 45 56 77 88 78 58 53 63 70 69 68 70 70 65 56 55 66 
76 72 62 61 68 75 78 69 54 53 62 62 63 54 40 41 60 72 67 59 62 64 58 55 56 56 
54 51 53 56 53 43 35 37 44 51 59 69 80 84 82 81 73 61 55 52 48 47 54 60 65 70 
68 52 34 36 60 85 102 119 142 159 169 180 185 181 179 193 208 207 200 201 206 
207 205 200 185 159 132 105 75 50 41 39 36 36 39 44 49 55 60 62 61 57 54 55 63 
75 78 66 53 53 62 67 67 65 66 69 67 58 57 67 74 67 57 56 64 74 78 65 56 59 71 
66 58 52 46 45 54 61 60 60 64 65 62 63 68 68 64 63 60 55 48 43 41 40 42 47 53 
60 67 70 71 73 69 60 55 53 50 52 61 72 77 78 72 53 32 31 51 71 81 95 117 137 
153 168 176 170 164 171 185 191 194 205 219 225 227 221 199 173 154 132 95 57 
43 45 46 46 46 48 51 55 60 59 56 54 57 64 68 70 64 54 50 53 57 60 66 68 67 67 
68 65 65 71 74 67 59 57 61 68 71 62 61 64 73 65 53 52 56 55 52 50 51 55 63 68 
72 77 78 72 63 60 57 49 44 47 50 48 46 50 54 57 60 63 63 65 64 60 59 61 62 66 
75 81 78 71 61 45 29 27 41 55 65 84 108 125 140 159 171 166 154 153 161 173 
191 216 235 243 245 236 211 185 171 149 107 65 45 45 47 46 50 53 56 60 66 63 
56 54 61 71 74 69 57 48 52 57 55 56 67 73 67 60 57 64 73 79 76 69 64 60 59 60 
63 62 61 60 71 62 50 53 60 60 54 50 50 52 56 63 73 85 85 73 62 57 52 48 51 62 
65 59 56 60 61 60 60 59 57 58 60 59 60 68 73 76 79 77 66 52 43 35 28 29 39 48 
62 86 112 125 134 153 170 167 153 146 151 169 200 229 244 249 251 239 212 183 
164 140 102 65 44 37 35 38 46 54 60 66 69 66 57 53 60 67 71 63 47 40 55 67 63 
59 66 72 65 52 46 59 77 81 73 66 62 59 56 57 60 64 58 52 70 59 52 57 61 60 58 
59 58 53 50 55 67 82 85 76 68 63 57 58 69 83 82 72 68 71 71 66 60 53 49 53 57 
54 53 60 66 67 66 63 54 43 34 30 29 33 39 47 64 94 119 125 128 145 165 166 155 
149 159 183 215 238 243 243 244 232 201 166 141 118 90 62 40 27 26 35 45 54 62 
69 69 61 53 50 51 51 52 46 33 34 59 78 74 64 64 69 66 53 45 56 74 77 66 58 57 
56 58 64 67 69 61 53 64 56 56 63 63 61 63 65 63 56 53 56 65 74 80 77 71 68 67 
71 82 91 88 77 74 79 83 78 64 49 44 52 57 50 41 40 43 43 45 50 53 47 37 31 31 
35 40 47 65 95 118 123 124 139 157 162 158 162 179 204 228 239 235 230 228 214 
183 152 128 107 85 62 39 25 28 42 51 56 63 69 66 57 51 48 42 35 37 38 34 41 66 
84 80 69 65 69 72 66 56 56 67 69 62 57 57 60 67 74 75 70 68 62 58 55 60 68 66 
62 64 66 63 62 65 67 69 73 77 75 67 67 73 80 85 86 80 72 73 80 89 87 70 49 43 
55 61 51 37 29 26 28 35 47 57 52 40 34 40 46 48 52 67 92 114 125 134 146 158 
165 172 187 207 222 232 234 227 220 210 192 166 146 129 109 86 64 41 29 35 49 
55 56 61 64 60 54 53 51 41 32 36 45 49 55 67 77 77 71 67 66 72 74 66 60 62 64 
62 62 66 71 77 79 74 65 69 69 63 58 60 66 66 63 65 67 66 68 74 75 73 78 81 74 
64 66 79 86 83 77 69 65 66 74 83 85 71 50 44 55 63 57 47 41 36 38 45 55 59 53 
41 38 49 60 62 65 78 98 117 135 153 166 172 179 195 219 237 238 233 230 227 
217 197 172 151 139 126 105 80 59 43 35 39 51 58 58 57 53 47 48 55 56 45 34 36 
49 57 58 59 62 66 68 63 57 62 70 67 61 60 61 63 68 74 81 84 79 67 61 67 71 75 
64 60 62 62 62 64 64 66 71 74 73 73 80 81 71 62 69 83 85 77 68 63 60 60 63 70 
74 67 52 47 53 60 61 61 62 60 60 62 62 57 49 41 40 48 58 67 79 97 116 130 150 
173 188 192 198 215 236 249 246 236 233 232 218 188 158 136 121 107 87 64 49 
40 35 37 49 63 64 56 45 38 42 51 54 47 37 34 43 52 54 51 51 59 65 60 52 55 65 
67 62 60 61 64 70 78 84 85 77 64 66 69 72 83 73 66 66 68 67 63 58 58 66 70 70 
73 76 71 61 59 69 78 76 67 60 59 58 57 59 64 67 62 52 47 50 54 58 64 68 69 68 
64 56 46 43 43 43 43 47 64 90 118 139 150 168 194 213 218 217 220 228 238 243 
238 232 225 208 179 147 119 97 82 65 47 37 35 33 35 48 64 66 55 44 42 46 48 48 
46 42 37 40 51 57 53 50 57 65 62 56 60 70 73 69 67 66 67 71 78 82 82 77 69 76 
77 77 83 81 76 75 79 78 67 54 52 61 67 71 75 73 62 53 56 62 65 63 60 57 57 58 
60 61 64 64 58 51 49 52 51 49 50 51 53 54 51 44 38 41 48 50 48 51 73 107 141 
165 177 192 216 235 238 227 217 215 224 235 233 220 202 181 160 133 102 76 60 
45 31 27 33 37 39 46 56 59 52 47 52 55 49 45 48 50 46 46 56 63 58 52 57 66 66 
63 68 77 80 77 75 74 71 74 80 83 81 78 76 81 81 78 80 86 83 75 73 78 72 60 56 
61 65 70 77 76 64 55 55 54 51 54 58 58 56 58 62 64 62 57 51 49 54 59 52 41 34 
35 38 42 42 42 42 43 47 52 56 69 95 128 161 186 200 211 225 234 232 225 217 
216 225 230 222 200 172 147 132 114 85 57 39 26 16 18 34 47 48 47 48 49 48 49 
55 58 53 49 53 56 49 45 54 63 60 53 58 69 70 66 70 78 77 72 74 75 72 72 78 82 
80 78 79 81 78 73 76 85 83 67 55 62 69 64 62 64 61 65 77 82 74 64 57 48 43 50 
56 53 52 57 64 67 64 56 50 51 58 62 54 40 33 37 46 49 51 54 53 43 37 45 61 85 
116 147 175 196 210 217 220 217 210 210 215 221 225 219 203 178 148 121 106 
94 72 44 22 11 6 13 33 53 57 51 47 48 50 51 55 60 60 59 62 60 47 40 49 61 61 
55 60 72 76 72 71 73 67 60 65 70 68 66 69 74 77 78 80 78 76 71 72 86 87 67 49 
50 59 62 63 63 57 62 77 86 79 67 55 45 42 46 47 44 46 56 65 71 74 71 61 55 58 
59 54 48 45 49 58 61 61 62 55 37 28 42 70 100 130 159 183 202 214 218 216 207 
195 195 203 210 207 197 182 162 132 99 79 73 62 41 22 13 13 18 31 50 59 55 51 
53 57 58 62 68 71 71 73 69 56 47 54 67 65 57 60 73 81 78 75 72 64 57 60 68 68 
64 63 68 75 78 79 74 77 77 71 90 94 75 57 54 57 61 64 64 60 64 77 81 69 57 51 
48 47 45 40 39 46 59 65 70 77 78 67 56 54 55 54 53 51 51 53 55 55 53 44 30 31 
54 87 116 142 169 193 211 221 224 221 211 195 182 182 185 181 172 162 148 119 
77 51 50 52 43 32 28 29 33 41 49 54 54 51 53 59 64 69 75 77 78 78 77 72 66 70 
76 70 55 55 69 79 78 73 72 67 62 63 69 73 74 73 71 75 78 75 69 79 84 71 87 90 
76 63 63 63 63 68 70 67 70 76 70 53 45 48 52 53 49 43 42 53 63 63 60 62 60 54 
47 48 53 56 55 52 47 44 44 45 42 33 29 40 67 99 127 153 181 207 223 229 229 
226 214 195 175 165 164 162 153 143 132 104 63 37 37 42 40 37 39 44 50 56 57 
53 51 49 50 56 63 67 70 74 76 77 78 77 76 77 78 68 54 51 63 71 67 63 67 68 65 
65 70 77 85 87 80 78 77 70 66 77 83 67 73 72 65 62 65 65 65 71 76 74 75 77 68 
51 47 52 56 58 57 52 52 60 66 62 52 46 40 37 39 48 55 57 56 55 52 50 49 49 44 
35 30 38 60 93 128 159 191 218 232 234 229 220 205 185 166 155 151 146 134 124 
114 93 64 47 44 41 33 33 42 50 57 62 62 56 53 52 50 54 60 61 59 64 72 74 72 68 
67 68 69 62 53 52 60 63 57 55 62 66 65 65 67 74 84 86 79 77 75 69 64 69 74 64 
63 59 58 62 65 62 63 72 77 75 75 77 73 67 63 61 60 63 68 65 61 61 65 65 57 46 
38 37 45 56 59 54 54 60 60 55 56 61 58 46 32 26 41 77 120 160 195 221 232 233 
228 214 195 175 158 145 135 124 111 103 97 84 67 65 63 48 30 30 45 55 56 56 58 
57 58 58 54 55 60 55 47 52 65 71 66 57 51 51 53 52 50 54 61 65 62 62 66 68 68 
69 67 68 73 72 69 71 75 70 60 62 67 66 61 60 64 67 64 59 63 73 76 69 66 71 76 
80 77 68 63 69 78 75 63 55 58 67 67 56 46 47 57 65 60 47 47 59 59 50 51 62 65 
56 39 23 30 66 112 154 189 212 222 227 227 214 192 170 151 133 117 103 92 89 
88 78 66 69 74 56 30 30 52 63 58 53 51 52 55 58 57 59 60 50 40 43 56 65 61 47 
35 33 37 42 47 56 67 76 78 77 73 67 66 72 71 66 65 64 62 68 76 70 56 58 63 65 
60 64 70 69 59 56 65 77 76 62 53 59 71 78 74 65 63 73 83 78 64 54 54 64 69 61 
52 55 65 67 53 36 41 58 61 50 46 55 63 61 50 35 39 69 109 147 181 204 216 223 
228 218 193 166 143 121 105 94 88 89 91 82 67 65 70 55 31 32 54 66 62 55 48 42 
44 53 60 63 57 45 38 43 52 60 59 44 25 18 25 37 48 60 74 84 87 83 72 57 53 66 
75 70 65 64 63 68 73 66 58 57 59 56 54 64 70 67 60 60 71 82 79 63 50 54 66 70 
62 54 57 67 74 73 68 62 61 64 66 59 54 61 69 63 43 30 42 65 71 62 53 51 53 53 
51 50 57 80 113 148 181 208 223 229 231 219 192 161 135 116 104 96 91 93 97 91 
75 66 64 54 37 36 50 62 62 56 47 37 38 50 62 62 48 39 44 54 57 61 63 50 26 16 
25 40 52 62 73 80 79 75 65 49 46 62 75 73 68 66 65 67 69 64 66 57 53 51 54 64 
71 71 72 74 80 85 81 69 60 61 67 65 54 46 48 53 55 62 71 71 65 62 62 57 53 60 
65 57 41 34 49 71 79 70 58 50 43 38 41 53 68 90 119 153 188 217 234 240 236 
219 192 163 141 125 113 101 89 83 87 87 78 70 68 66 55 46 48 56 59 56 51 45 45 
51 57 51 38 37 52 66 65 65 70 63 43 32 38 50 57 61 65 67 68 70 65 53 49 63 74 
74 72 72 70 68 70 71 75 59 52 57 61 67 71 75 80 86 85 80 77 75 73 73 73 67 54 
44 43 43 43 53 67 70 62 59 60 55 49 51 56 54 47 46 57 73 81 74 63 54 43 34 37 
51 66 86 116 152 185 216 238 246 242 224 199 175 158 143 125 103 80 63 61 67 
68 69 76 82 73 55 49 55 57 55 55 58 54 49 46 39 32 38 57 68 65 65 72 72 60 52 
54 60 62 59 58 59 65 72 72 62 56 62 71 75 80 83 78 72 77 83 79 63 59 65 61 63 
68 73 77 81 77 69 67 73 80 82 81 75 61 49 46 46 47 52 62 68 66 64 63 55 45 44 
49 52 52 56 65 78 84 80 74 69 59 48 46 53 59 74 104 141 175 208 237 252 252 
238 214 189 171 153 129 103 77 54 41 44 51 58 73 84 75 57 53 58 57 52 55 61 56 
46 40 37 35 43 57 63 59 60 69 72 66 60 59 62 64 62 60 62 67 72 72 67 59 58 65 
76 88 92 83 74 81 89 78 72 72 67 55 57 68 74 73 71 66 59 57 64 76 83 85 83 73 
60 56 57 58 59 64 72 78 80 74 61 49 47 49 50 52 58 70 84 89 83 79 79 75 64 58 
58 57 66 95 133 171 208 242 255 255 255 235 204 179 156 128 104 83 60 40 35 41 
50 64 71 64 55 57 59 53 48 52 57 52 44 43 47 48 52 58 59 55 56 63 69 66 60 56 
57 61 64 64 66 65 62 63 66 63 58 61 74 87 89 78 71 78 84 71 75 78 64 52 58 73 
80 75 67 61 56 53 55 64 74 79 82 80 73 67 66 66 65 67 73 80 84 78 67 58 56 55 
52 51 56 69 81 82 73 68 74 76 68 61 62 65 75 99 136 175 217 252 255 255 255 
253 221 193 163 131 107 89 67 44 34 38 48 59 61 57 57 59 54 47 48 57 60 54 48 
50 58 62 64 64 60 55 56 62 70 72 65 57 55 57 57 59 62 59 51 54 65 67 62 62 71 
80 80 71 67 70 73 60 64 69 63 58 64 76 81 74 63 60 59 57 55 57 63 69 75 80 77 
70 68 69 71 69 67 67 70 73 70 67 68 68 62 56 56 61 68 67 61 58 64 68 63 60 66 
78 92 113 142 176 217 252 255 255 255 255 234 205 172 135 107 89 67 44 33 37 
50 60 59 56 59 61 53 48 53 63 67 62 55 52 57 67 72 70 63 60 64 70 76 78 74 66 
62 60 53 52 56 55 49 53 65 69 65 65 72 77 78 73 69 66 62 57 55 57 62 62 66 69 
71 67 61 61 64 61 57 60 64 68 72 73 69 63 63 69 74 71 60 53 56 67 71 71 72 73 
69 59 52 52 56 59 60 62 64 63 60 62 71 86 102 119 140 167 202 234 255 255 255 
255 239 209 173 134 104 86 68 47 35 38 51 60 57 51 56 64 62 55 54 58 63 64 56 
48 48 59 68 67 62 67 77 81 80 77 75 73 72 69 59 53 55 56 53 54 60 63 63 68 77 
82 84 83 76 68 62 69 66 63 61 59 57 55 57 62 66 66 65 58 55 64 73 76 74 69 62 
57 59 64 68 66 56 48 55 67 73 70 65 59 54 49 45 46 52 61 67 67 64 62 64 69 76 
83 93 107 126 151 178 203 225 245 255 255 237 207 173 138 109 89 73 55 43 42 
50 54 50 46 53 66 70 61 52 52 57 59 51 42 43 52 61 63 63 72 85 87 79 72 69 73 
75 71 64 58 57 57 54 50 50 50 54 65 78 86 89 88 83 75 71 78 79 78 63 56 48 43 
47 62 74 72 62 52 50 62 75 78 75 71 66 61 59 57 55 54 51 50 59 69 71 64 50 35 
32 38 45 49 55 63 67 63 58 61 70 78 82 80 79 85 102 128 151 168 184 207 232 
242 228 201 173 144 117 94 74 58 49 46 48 48 44 45 57 68 68 60 56 62 69 62 48 
42 46 53 59 63 66 72 80 80 71 64 66 71 68 63 59 61 60 57 52 49 46 45 49 61 76 
85 88 86 80 76 76 74 74 78 67 62 51 41 45 61 73 70 60 52 54 64 71 72 73 77 76 
69 60 52 48 48 49 53 61 66 64 54 39 26 29 45 57 59 58 60 58 54 57 66 76 82 86 
83 74 69 80 104 126 137 150 174 202 217 210 189 164 138 112 86 64 51 48 49 48 
44 45 55 68 72 63 58 68 84 87 68 48 45 50 52 54 63 68 69 69 66 60 59 68 72 65 
55 57 64 65 58 54 56 56 54 57 67 79 86 88 84 77 73 73 66 61 64 69 69 63 52 53 
64 70 66 63 65 70 73 71 69 74 81 81 71 59 52 51 50 51 57 64 64 57 49 39 35 45 
61 68 65 61 57 52 53 64 76 80 80 79 79 73 65 69 88 105 114 123 144 169 184 181 
166 144 118 91 69 53 47 51 56 53 46 49 66 78 73 59 61 78 93 86 63 45 45 49 45 
46 58 65 66 63 59 55 58 71 76 66 57 65 75 73 64 61 66 70 70 71 76 82 88 89 85 
79 75 71 64 58 59 64 70 69 65 66 71 71 69 74 81 85 84 78 73 72 74 73 68 62 61 
60 56 55 60 65 63 57 52 48 50 58 65 62 57 59 56 52 57 71 81 81 74 69 67 67 64 
66 77 87 92 98 111 129 141 143 137 122 96 72 58 51 51 60 68 62 50 51 69 79 69 
57 64 82 88 73 54 46 49 50 46 47 56 59 59 62 65 65 67 74 76 68 64 73 83 80 70 
66 69 73 75 76 74 72 76 82 83 80 78 73 65 63 64 62 68 70 71 73 75 74 74 78 81 
82 83 80 74 65 59 59 64 68 70 69 62 59 60 60 57 58 60 59 59 61 58 49 45 50 54 
54 62 72 78 80 77 71 66 67 66 62 63 69 71 72 78 89 99 104 108 103 82 62 54 52 
54 64 72 62 47 49 66 74 66 58 65 77 78 70 63 59 57 55 55 58 58 51 45 57 73 79 
78 76 76 72 71 76 82 80 71 66 65 67 69 70 63 54 56 68 75 76 74 71 69 69 71 68 
72 73 73 72 73 73 71 67 66 68 73 77 73 63 53 52 60 69 73 70 63 59 57 53 50 58 
66 66 61 58 54 46 41 41 47 54 62 68 72 79 85 86 83 78 69 56 51 54 56 53 53 59 
66 76 86 85 70 57 55 56 58 65 66 52 35 41 61 73 68 60 59 62 65 71 76 71 61 57 
63 69 65 51 41 51 72 83 79 74 74 75 74 76 80 78 71 66 66 67 69 68 60 49 49 59 
68 71 71 70 74 72 71 77 78 78 73 68 68 71 70 63 58 63 71 76 77 71 62 57 59 68 
73 68 59 56 55 52 49 56 65 66 58 55 56 54 46 41 46 55 58 58 62 72 84 91 93 85 
67 50 45 49 49 42 35 34 43 59 72 71 57 52 58 65 70 71 64 45 30 36 59 74 73 60 
49 47 56 70 81 75 62 57 63 74 76 66 56 57 67 76 74 69 69 73 74 76 81 81 75 70 
73 77 77 74 66 58 55 57 62 67 71 74 75 71 67 82 80 75 69 62 63 72 80 76 70 70 
74 77 80 79 70 62 62 69 75 72 63 60 61 60 55 55 62 63 56 51 56 59 54 52 58 61 
56 50 52 61 71 79 82 73 53 39 40 46 44 35 24 17 28 50 65 61 48 48 60 71 80 81 
70 51 37 41 58 70 68 54 44 46 58 74 80 73 63 57 59 68 77 79 72 65 66 73 74 67 
63 66 69 72 78 82 76 69 70 76 77 73 68 64 60 56 58 64 72 76 71 69 65 80 76 69 
61 55 59 73 88 90 81 74 72 74 77 74 64 57 62 70 76 77 74 72 71 68 62 59 62 64 
60 56 58 61 60 63 72 71 57 47 50 58 63 67 67 54 37 29 32 37 39 38 31 23 30 50 
61 53 43 47 58 64 67 74 71 58 47 50 57 59 52 42 45 59 75 85 82 73 64 54 48 51 
65 72 67 61 65 75 78 71 61 62 66 67 71 76 72 62 58 62 66 65 63 62 61 59 60 67 
72 71 67 73 72 77 75 69 62 57 59 70 83 89 79 69 67 72 74 67 55 51 60 68 72 75 
78 79 76 71 69 67 66 66 65 65 66 66 65 67 75 73 59 50 57 65 66 64 60 47 32 27 
29 31 39 52 56 49 46 55 57 44 37 47 56 53 49 55 60 54 49 53 55 50 40 37 51 74 
89 91 84 75 66 51 38 38 49 56 53 53 63 74 75 67 61 65 69 67 67 71 67 56 51 55 
61 63 63 63 66 67 68 71 69 65 67 78 82 73 79 79 71 63 62 67 79 83 75 66 66 74 
77 70 59 56 62 66 68 72 76 76 71 69 74 75 67 60 63 70 74 72 67 65 69 70 62 57 
62 70 70 63 58 50 41 38 38 37 43 60 71 67 61 61 53 34 26 41 53 50 45 49 52 46 
44 51 56 51 42 43 58 77 85 84 82 79 70 55 44 43 48 51 52 58 67 69 63 56 59 71 
76 72 67 65 60 52 51 60 68 69 67 70 75 75 71 66 62 61 67 76 83 69 81 84 74 62 
60 67 79 84 77 67 65 70 76 75 70 67 67 67 67 70 71 68 62 64 72 74 61 51 56 68 
74 71 65 60 63 69 68 63 63 66 65 59 55 53 50 51 51 45 44 55 67 67 66 68 57 33 
16 29 49 55 55 57 54 44 40 48 57 56 50 52 62 72 71 70 77 82 75 64 60 61 60 58 
61 73 79 70 57 53 63 76 82 77 70 60 53 51 57 67 72 69 67 72 79 77 68 60 57 60 
66 70 77 67 78 80 64 53 55 66 78 81 75 64 58 60 68 73 74 71 68 66 65 64 64 61 
56 58 67 69 57 46 53 66 71 68 60 55 59 69 72 65 58 57 57 54 54 54 54 57 57 51 
44 47 54 59 67 76 69 43 19 24 44 56 60 64 60 50 45 51 57 56 50 50 60 66 62 62 
74 81 75 69 72 74 66 61 66 78 84 76 65 64 72 79 81 80 74 64 57 61 69 71 65 59 
60 69 77 76 69 64 64 65 69 67 74 64 70 71 58 49 54 64 68 70 68 62 57 58 62 65 
68 69 69 67 64 61 59 57 56 60 66 64 56 50 56 67 71 68 59 51 53 67 72 63 52 49 
50 52 54 56 55 57 60 59 53 50 50 55 65 77 78 57 34 32 42 49 54 63 65 59 54 58 
62 58 48 43 51 61 59 59 70 77 72 70 74 73 64 59 63 71 77 80 81 80 76 72 71 72 
74 72 70 73 76 69 57 51 57 69 77 75 72 72 75 74 69 66 71 59 62 65 61 57 61 63 
60 61 65 64 65 69 67 63 63 68 74 75 71 66 61 57 60 65 66 61 56 54 60 70 75 72 
62 51 51 63 69 61 51 47 49 53 56 58 56 58 63 67 66 61 56 57 64 74 75 62 48 45 
43 43 50 62 69 65 62 64 68 63 50 40 44 56 57 56 65 74 73 70 70 67 63 59 58 57 
63 77 88 85 71 60 57 60 65 68 71 74 71 59 50 49 60 73 78 76 74 75 75 73 64 66 
69 55 58 63 63 65 68 66 63 65 68 68 72 78 73 63 63 72 81 82 78 73 65 58 60 65 
65 59 55 56 64 73 77 74 66 58 57 64 69 65 57 55 57 60 63 63 62 64 68 71 72 69 
63 63 69 73 71 64 56 50 43 42 52 67 72 67 61 61 65 63 53 44 47 55 57 55 60 72 
78 73 69 67 65 61 54 48 52 67 78 73 61 55 55 55 58 61 66 68 65 55 50 53 63 72 
75 76 76 74 67 64 61 68 73 58 57 58 58 62 67 68 70 73 70 69 75 81 73 63 64 75 
79 75 71 70 68 63 60 64 68 65 58 55 63 71 73 70 68 64 64 67 70 69 68 68 69 71 
71 70 71 73 72 70 71 71 70 72 78 79 72 64 58 51 44 46 57 70 72 65 56 51 50 51 
51 51 58 64 62 57 57 67 77 78 74 73 71 64 54 48 49 55 60 57 55 60 63 60 59 62 
68 72 71 66 61 61 63 65 67 72 77 74 65 58 63 73 79 65 56 52 52 57 63 68 72 74 
71 71 77 81 71 60 61 69 71 63 58 65 74 74 68 69 77 78 66 57 59 64 62 60 62 63 
62 63 68 74 77 75 74 73 70 69 73 74 68 63 67 72 74 77 83 81 70 60 57 53 48 48 
58 69 72 64 53 45 40 41 46 56 68 73 68 58 53 60 74 81 79 78 74 66 60 58 57 52 
49 50 56 64 66 63 62 66 73 78 80 79 74 70 66 63 62 66 75 75 65 59 64 71 77 72 
57 52 56 62 65 66 67 69 71 75 80 79 68 55 51 57 61 58 56 66 80 84 77 76 82 85 
72 59 57 60 56 55 58 59 56 58 67 76 79 73 70 70 66 61 64 66 58 55 64 73 75 76 
80 79 66 56 56 57 53 49 55 67 73 69 59 49 44 43 49 60 70 71 65 56 51 57 73 82 
80 75 72 68 67 68 66 58 54 58 62 62 60 62 66 69 70 74 77 77 76 73 68 66 64 65 
71 71 63 59 68 70 73 75 63 62 65 68 68 64 60 60 69 79 82 76 65 52 44 47 56 61 
61 66 76 80 75 72 77 79 69 60 59 63 64 63 63 60 57 60 68 74 72 66 66 72 69 61 
59 60 54 54 65 73 72 71 76 77 68 58 57 60 56 50 53 64 73 71 63 56 52 50 52 57 
61 61 60 59 58 62 74 81 78 71 69 67 67 69 67 64 65 68 64 55 52 60 70 73 68 64 
66 71 73 69 65 65 66 66 67 65 62 64 81 76 73 76 73 74 72 68 67 62 56 56 68 81 
81 74 66 55 45 47 57 62 59 59 64 67 63 59 63 68 64 59 59 64 70 73 73 66 63 65 
68 69 65 62 68 78 76 66 63 61 56 54 62 69 67 63 70 78 75 63 57 58 56 52 55 63 
65 62 59 58 55 53 52 54 55 57 64 71 71 68 74 80 77 73 70 66 63 63 63 66 70 70 
60 47 46 58 70 74 69 63 64 72 74 65 59 62 66 66 65 62 64 75 86 79 73 70 75 77 
71 65 64 62 59 62 74 83 80 73 68 63 56 56 62 62 56 54 60 62 54 46 52 63 64 57 
55 57 64 72 74 68 65 67 67 66 64 65 71 77 74 66 63 60 54 51 56 63 60 55 61 74 
75 62 51 51 54 56 60 64 58 51 53 61 62 58 57 59 60 61 71 80 76 67 66 72 73 71 
69 65 62 60 62 65 69 67 56 45 46 55 66 72 73 69 69 75 74 65 60 65 72 74 70 64 
64 77 68 63 62 58 64 67 64 62 61 62 64 71 79 82 77 69 67 69 69 68 67 64 59 59 
66 67 55 44 50 64 67 60 53 53 57 65 66 62 61 64 67 68 71 73 71 69 66 62 60 57 
54 53 57 62 61 57 60 68 70 58 47 48 56 62 66 68 61 54 58 69 72 66 63 65 63 60 
64 71 69 59 57 62 66 64 64 66 67 65 62 62 63 62 57 53 53 58 66 76 80 77 75 74 
68 64 66 73 77 78 75 66 59 64 52 48 53 58 56 59 62 62 58 58 66 75 76 73 70 66 
64 68 73 74 72 67 63 63 68 70 61 51 54 64 66 62 57 56 57 59 56 52 55 63 69 71 
74 76 71 63 61 64 64 63 65 66 66 67 70 70 69 69 66 57 50 53 62 67 68 70 70 67 
68 72 71 65 61 62 58 49 46 53 60 60 59 61 63 62 61 68 72 68 60 55 56 60 62 64 
66 67 73 83 88 85 81 75 66 65 73 74 68 67 70 65 57 55 58 51 53 72 68 67 71 69 
59 56 67 75 69 63 65 67 65 65 70 74 73 68 63 60 63 68 68 62 60 62 60 60 62 62 
58 51 46 44 53 66 71 70 70 71 68 62 63 71 75 76 78 75 68 67 75 81 76 69 64 60 
58 61 66 66 65 69 78 79 72 64 59 56 55 57 57 51 45 50 63 70 69 68 70 69 66 67 
70 66 58 52 54 59 66 71 71 70 72 79 83 82 81 76 71 72 76 70 57 56 65 67 63 63 
69 63 57 79 79 80 82 79 66 59 66 72 65 59 66 73 71 64 65 69 70 66 61 57 61 68 
71 68 67 65 59 57 64 66 57 46 41 45 57 70 74 71 69 68 63 60 66 76 83 82 78 69 
60 62 74 79 72 63 62 63 65 67 66 62 60 68 82 86 72 54 47 51 56 60 65 67 63 64 
73 77 71 68 71 73 71 67 65 63 61 59 60 64 68 71 69 65 63 65 66 67 70 72 73 76 
78 71 60 61 70 71 65 65 65 68 61 70 73 78 82 81 72 63 63 66 63 62 69 77 78 70 
63 62 63 63 60 60 65 70 68 66 71 75 70 66 71 71 62 52 50 56 66 73 75 75 73 70 
63 59 64 75 83 80 70 61 57 63 68 69 64 63 63 65 70 74 67 58 56 65 79 85 73 53 
44 49 57 62 68 74 76 76 79 76 64 56 60 67 69 64 60 62 66 68 68 67 66 65 65 60 
55 54 55 54 56 64 69 73 78 78 72 71 73 67 55 55 63 71 67 62 60 66 71 71 69 64 
61 63 66 67 69 76 83 81 70 61 59 60 58 58 64 68 63 61 71 80 82 79 79 77 71 66 
66 70 74 75 74 75 73 69 65 60 61 68 76 74 66 63 65 65 62 60 62 67 66 65 73 79 
71 58 56 62 70 74 68 55 49 52 57 58 61 68 72 74 77 74 62 49 51 62 67 62 57 63 
69 68 65 63 58 55 58 58 54 54 55 50 48 55 62 66 73 79 77 72 69 61 51 52 71 75 
74 63 58 60 60 58 60 63 64 67 72 72 69 71 83 90 81 65 58 58 56 54 59 66 67 65 
70 76 77 77 77 76 73 72 74 75 76 76 73 69 65 64 67 65 59 59 64 66 65 69 70 63 
54 53 60 66 63 62 72 80 71 60 58 62 65 67 66 63 62 64 61 56 56 62 65 66 70 74 
70 59 57 67 70 61 56 64 69 62 56 54 49 45 48 53 55 57 57 49 45 50 57 61 67 73 
74 71 69 66 64 66 73 72 75 65 65 66 61 56 55 62 68 73 75 73 67 68 80 92 88 71 
60 60 60 57 60 69 78 78 73 67 61 62 67 72 73 70 68 68 72 77 77 70 63 63 69 69 
62 58 58 57 59 67 69 60 52 52 58 60 57 59 70 74 64 58 59 64 71 74 74 73 75 76 
70 61 60 64 66 63 66 75 76 70 68 74 74 63 59 68 70 59 50 48 44 40 42 49 56 60 
58 49 46 51 56 57 58 63 68 72 75 77 78 77 65 62 67 69 70 72 68 62 59 63 70 74 
74 71 68 68 77 88 88 75 65 65 69 66 63 67 78 85 79 65 54 55 64 73 75 71 63 59 
65 75 82 79 72 69 70 69 66 64 60 52 52 62 70 67 60 58 58 56 56 61 68 67 56 51 
55 63 74 83 82 76 75 73 69 66 66 69 70 67 69 75 77 72 71 75 74 65 62 68 68 56 
46 44 42 40 43 50 58 63 61 55 52 56 59 56 54 58 66 74 77 78 78 73 61 59 62 74 
72 71 70 70 69 66 67 70 72 74 74 74 78 84 85 76 69 71 74 70 62 58 64 75 77 68 
61 63 71 76 77 75 66 60 63 72 80 83 79 73 65 63 69 73 67 53 50 63 75 75 67 63 
59 55 55 62 69 66 55 49 50 57 67 74 74 68 63 59 59 65 69 69 69 69 69 72 75 73 
70 73 71 64 60 65 65 56 47 46 46 45 48 55 63 68 69 66 63 62 63 62 62 66 70 73 
74 76 74 68 65 65 67 73 70 66 66 74 79 72 63 65 75 81 80 78 79 83 80 73 71 74 
76 69 58 51 54 63 70 69 68 73 75 75 75 76 74 68 65 67 70 74 76 70 61 59 69 77 
70 55 53 67 75 70 63 62 60 55 55 62 70 71 65 61 58 58 60 60 59 56 52 48 51 62 
65 63 63 64 62 63 69 74 74 74 70 62 58 63 67 63 57 56 55 52 53 60 68 73 78 77 
70 64 64 68 76 79 73 66 67 73 72 66 86 79 75 79 69 57 57 66 75 77 73 66 59 61 
71 80 82 80 74 69 66 67 70 66 55 49 58 71 73 66 62 60 56 55 60 68 67 57 49 50 
57 70 79 79 74 70 67 64 65 68 70 70 69 70 73 76 74 70 72 73 67 61 64 67 59 47 
43 44 43 44 51 59 65 66 62 58 59 61 60 57 60 66 73 76 77 76 71 63 59 62 65 60 
52 52 59 64 65 66 70 76 77 75 74 75 71 64 65 73 71 66 71 84 
