P2
112 112
255
80 91 91 85 84 89 87 80 75 73 73 72 75 75 73 72 74 79 83 81 73 66 67 72 78 78 
72 65 66 76 79 69 62 62 71 80 83 82 82 81 75 69 69 70 66 60 56 59 64 68 69 71 
75 76 72 67 64 65 66 64 63 66 72 74 73 73 75 73 71 71 71 71 72 79 75 74 74 71 
68 67 66 67 69 72 77 83 89 86 77 73 77 80 74 68 72 78 77 71 69 72 76 78 80 81 
78 72 68 69 71 71 76 86 82 86 90 83 81 82 79 73 72 79 71 67 71 77 80 78 76 79 
85 86 78 69 68 74 79 79 73 68 70 73 70 69 64 65 70 75 76 77 78 77 75 74 74 72 
66 62 63 67 69 69 68 71 73 72 67 66 68 71 70 67 63 64 68 71 70 69 68 70 73 71 
68 67 72 73 80 73 72 68 66 66 66 68 71 73 75 79 82 79 74 73 78 79 72 68 73 80 
79 74 71 71 73 76 79 79 75 69 66 70 74 75 78 84 86 80 85 82 82 81 74 69 70 80 
71 67 70 80 88 87 81 79 83 85 80 73 73 77 78 76 72 70 70 63 71 70 66 66 69 70 
71 74 77 76 77 78 80 77 75 75 76 75 72 68 68 72 74 71 65 65 69 73 74 70 65 61 
62 65 70 70 70 71 73 72 66 64 69 76 80 79 74 70 65 67 66 66 68 71 73 73 72 71 
72 77 80 78 72 70 76 83 83 78 74 71 70 71 74 75 72 67 67 73 79 80 79 78 84 79 
77 80 85 86 79 73 74 76 74 70 73 84 90 86 79 76 80 82 79 76 77 79 74 70 71 75 
69 70 75 76 73 72 71 69 70 75 79 78 77 78 79 79 81 84 81 75 68 64 66 72 74 70 
64 64 68 71 72 71 67 62 61 66 71 73 70 71 74 72 65 63 69 77 80 77 73 71 71 71 
73 73 71 70 71 72 70 71 75 81 81 77 72 72 78 82 82 80 78 74 70 70 72 72 69 66 
68 74 81 83 79 73 79 83 72 75 83 87 83 79 81 73 76 75 79 86 86 78 70 71 77 80 
77 74 76 76 71 65 71 79 74 73 79 82 81 80 76 71 70 73 76 75 74 74 74 74 77 79 
76 69 63 60 61 66 69 66 64 65 66 66 68 70 68 66 67 71 73 71 68 70 74 74 68 64 
70 78 79 73 69 69 70 69 68 70 75 75 73 75 76 74 71 70 77 72 70 73 77 77 77 78 
79 75 72 71 71 68 65 65 69 73 79 83 80 74 78 87 71 72 76 81 82 82 74 71 79 78 
83 86 80 70 65 67 74 77 74 70 69 70 69 75 73 71 71 74 78 80 81 80 77 70 66 66 
68 69 70 70 67 66 66 66 66 65 63 59 58 60 61 62 66 69 67 63 63 66 67 67 70 73 
73 69 65 68 75 76 70 66 72 78 76 72 70 72 70 65 65 69 74 80 75 71 69 68 66 66 
67 68 69 71 74 75 74 78 80 77 72 71 69 64 62 67 73 76 77 79 79 76 77 86 74 73 
72 74 77 81 76 72 75 77 81 81 76 69 66 68 72 76 75 69 66 67 73 71 65 72 73 73 
74 73 73 74 72 66 60 60 64 67 69 68 65 61 58 57 61 67 68 64 61 61 60 62 70 75 
70 61 60 63 64 65 70 73 72 67 64 68 74 74 68 66 71 75 75 74 76 76 72 64 66 75 
79 75 77 81 64 65 66 66 68 71 73 76 82 88 85 77 78 79 82 70 68 64 65 71 79 80 
76 73 73 75 73 81 77 77 73 70 72 76 79 75 72 78 80 79 76 74 72 71 72 77 79 75 
69 68 75 67 73 73 74 74 73 71 69 70 69 64 61 62 67 70 71 68 65 63 60 58 61 67 
69 67 66 65 63 64 72 78 73 64 61 64 65 66 69 73 71 65 62 66 71 69 63 64 69 73 
75 77 78 78 75 70 70 75 78 76 76 78 74 65 68 66 66 70 73 75 78 82 81 75 73 77 
79 75 70 71 77 79 75 82 75 68 68 72 69 76 75 77 75 72 72 74 79 77 74 82 81 79 
79 78 76 73 73 76 78 77 73 73 73 72 73 75 78 76 75 73 71 71 70 68 68 71 73 74 
72 68 68 70 69 64 61 61 64 66 69 69 64 63 70 75 71 66 66 66 65 66 69 71 68 62 
60 64 68 66 62 64 69 73 75 76 75 74 75 74 72 70 70 73 77 78 75 71 69 70 66 66 
70 73 73 72 72 73 75 79 78 72 68 73 79 77 71 70 74 80 80 76 73 73 70 73 76 78 
79 77 78 77 77 80 78 78 79 77 74 72 72 71 70 70 72 77 76 74 75 80 80 77 74 73 
72 71 71 70 71 74 75 73 71 68 70 76 78 70 61 58 58 63 70 69 64 62 66 68 66 65 
67 67 65 65 67 68 66 63 61 64 67 66 67 69 71 71 72 72 70 70 73 75 70 65 66 73 
80 81 75 70 72 76 71 66 67 70 71 70 71 76 80 81 76 71 70 77 82 79 73 70 72 75 
78 80 80 73 67 68 76 85 88 83 78 74 73 70 69 72 74 70 68 70 71 67 62 66 75 77 
74 72 75 78 76 72 70 72 72 70 69 68 69 71 71 70 67 66 69 78 81 76 67 62 60 62 
65 65 63 64 65 64 60 61 65 67 65 65 64 65 68 69 67 66 67 68 70 72 70 67 67 69 
68 69 73 75 71 66 67 76 83 83 78 74 72 70 70 70 67 67 70 73 76 80 81 78 73 71 
74 80 83 82 77 73 71 72 75 78 81 75 68 67 77 88 90 76 72 72 69 63 63 67 67 63 
65 72 73 64 68 75 76 73 70 72 75 74 68 65 67 72 73 70 67 66 67 67 67 66 65 64 
68 76 80 76 71 69 64 60 59 60 62 66 68 66 61 61 64 66 66 64 63 62 66 71 71 68 
66 67 69 70 66 63 64 68 71 71 73 74 71 69 71 75 80 81 80 78 76 71 69 69 69 68 
69 73 78 79 77 72 70 71 76 79 80 80 79 75 71 70 72 75 76 76 73 71 79 88 85 74 
67 78 74 67 65 68 65 61 65 74 71 64 77 79 73 73 74 77 79 73 65 62 66 73 73 69 
68 70 71 70 68 67 66 66 69 74 75 72 70 70 67 63 60 61 64 67 69 70 68 67 67 66 
63 62 61 60 61 66 70 68 65 65 66 66 64 62 62 67 71 70 67 66 68 70 72 73 74 77 
79 81 77 70 68 71 72 72 73 76 78 76 72 68 69 73 77 77 76 77 79 76 72 70 71 72 
73 74 77 77 83 86 80 67 66 79 76 70 68 71 68 62 65 71 73 76 82 76 76 75 76 81 
81 75 68 66 70 73 71 69 72 77 79 77 74 73 72 72 72 73 71 67 67 70 72 71 70 70 
69 67 67 69 72 75 74 69 62 60 61 60 59 62 65 65 62 63 65 64 62 60 59 61 66 65 
59 58 63 68 71 71 70 71 76 80 76 68 66 70 73 75 78 83 80 77 72 70 71 77 78 75 
74 78 80 77 73 71 70 68 74 71 78 78 82 83 77 66 67 70 70 69 70 75 73 67 66 71 
75 77 76 76 76 72 72 76 76 74 73 75 74 73 71 72 75 79 80 80 77 75 74 72 71 69 
68 66 69 74 76 77 77 76 71 66 62 65 72 78 77 70 63 62 64 65 64 64 64 60 58 60 
63 64 62 58 55 57 62 63 59 59 62 67 71 72 70 70 75 79 76 68 65 69 72 72 76 91 
85 79 76 74 74 78 78 75 77 82 82 77 72 70 68 64 77 72 74 76 79 79 77 68 67 66 
68 70 75 80 78 72 69 72 73 72 72 74 72 69 69 70 71 72 76 78 76 74 74 75 76 75 
75 76 75 73 69 66 63 64 64 67 72 76 78 76 74 72 69 63 59 60 68 74 74 69 65 66 
70 71 72 73 67 58 54 57 61 63 63 60 57 59 64 67 65 64 64 67 72 74 73 72 77 81 
76 66 63 68 72 73 71 73 78 79 76 74 73 74 74 75 79 82 81 75 71 70 68 64 80 77 
71 77 80 79 79 71 71 72 77 79 81 82 80 75 72 73 74 71 69 69 70 72 74 74 72 72 
73 72 69 71 75 77 73 70 70 72 71 69 65 61 58 59 62 65 70 75 75 70 65 63 63 60 
55 55 62 68 69 67 66 68 71 73 76 76 69 58 54 57 60 63 66 66 62 62 67 70 69 67 
66 67 72 75 74 74 79 82 77 68 64 68 71 72 71 70 71 72 72 71 69 68 70 74 78 79 
76 73 72 71 70 69 81 80 73 81 81 79 66 76 72 76 83 84 81 80 78 68 70 79 79 71 
66 66 70 77 81 80 77 74 69 63 60 66 72 72 68 66 68 69 68 67 67 64 62 62 63 63 
67 70 68 62 57 57 58 57 52 52 58 64 65 64 65 67 68 69 71 72 67 60 58 59 60 63 
68 70 66 65 67 69 69 69 69 71 74 77 76 75 79 82 77 72 72 73 72 70 68 68 68 68 
69 69 68 66 68 72 76 74 73 75 77 75 71 71 75 81 74 78 75 72 73 75 63 71 79 80 
76 76 76 66 74 86 79 71 66 67 71 76 79 78 76 74 66 57 55 62 67 67 65 65 66 67 
66 68 70 68 65 64 64 65 67 68 61 51 47 51 56 55 52 51 56 59 59 57 59 62 65 66 
67 68 66 63 61 61 61 63 69 72 71 69 67 67 68 68 71 75 79 80 77 75 75 76 75 75 
77 77 72 69 69 70 69 68 66 72 73 70 69 73 75 74 74 77 80 78 72 68 72 79 72 71 
65 64 80 68 58 65 72 73 71 71 71 70 75 78 74 71 71 71 70 71 72 73 74 73 66 56 
55 61 66 67 65 62 63 65 66 69 70 66 60 59 62 66 69 66 54 41 38 44 51 53 52 52 
54 55 53 51 52 58 63 66 68 71 71 67 64 63 62 63 66 70 73 73 70 66 64 64 67 72 
76 76 72 68 68 68 68 71 76 75 70 70 73 74 72 69 67 66 71 74 72 75 78 78 77 76 
77 77 75 70 75 73 73 70 64 63 79 67 63 64 68 69 68 69 72 68 67 69 69 71 75 75 
72 70 71 73 75 72 63 57 59 64 69 69 66 60 59 66 70 71 69 61 53 53 60 65 68 65 
51 36 34 38 43 47 50 52 53 54 52 50 52 58 62 66 71 76 77 73 69 68 66 62 60 62 
68 72 70 66 64 63 63 65 66 64 61 60 61 62 62 64 69 70 69 72 78 79 74 71 70 68 
67 73 79 77 82 85 81 72 68 75 80 77 76 66 77 76 70 68 74 71 68 67 69 70 68 71 
72 67 67 68 69 72 76 77 76 75 77 79 79 72 62 59 63 66 68 68 64 58 60 68 73 71 
67 59 52 56 62 64 63 60 51 41 36 35 37 43 50 53 53 57 59 58 60 65 66 65 70 78 
78 73 72 74 70 62 55 54 61 66 69 69 69 67 66 64 61 58 57 58 59 58 58 59 63 66 
68 72 77 79 77 73 70 70 70 72 76 79 81 85 83 73 67 73 82 82 73 63 77 76 72 75 
67 71 71 72 76 73 71 76 74 71 72 73 70 70 72 75 78 80 82 83 81 72 63 62 65 65 
63 62 59 58 62 68 69 66 62 59 57 61 67 65 58 55 51 46 41 36 37 46 56 57 59 66 
72 71 73 77 73 67 68 72 71 66 68 73 71 63 58 58 62 64 66 69 70 68 67 67 66 63 
62 62 61 59 57 57 60 65 68 70 73 75 74 70 65 63 64 67 72 77 80 81 83 79 73 74 
79 79 69 65 69 68 68 72 62 72 78 80 75 72 74 79 75 73 74 73 69 66 67 70 74 77 
79 81 80 74 68 66 66 62 59 58 59 61 66 68 65 61 60 59 59 64 67 62 55 50 48 47 
46 43 45 56 67 70 72 83 91 89 88 89 82 70 67 68 62 56 59 65 66 66 67 71 72 69 
66 66 64 61 63 69 73 70 67 66 66 65 63 60 61 65 71 73 72 71 71 68 62 57 59 63 
70 78 78 75 78 80 76 74 74 74 68 69 66 67 71 74 68 75 80 80 74 73 76 78 76 71 
69 69 68 65 65 67 69 71 73 75 77 76 74 72 67 60 58 60 62 66 71 71 67 64 63 61 
58 59 60 59 53 45 43 48 54 55 61 72 82 86 94 107 112 107 101 96 84 69 62 61 55 
50 53 59 63 67 75 83 82 76 69 65 61 58 62 71 75 71 67 67 69 72 72 68 64 67 74 
77 74 72 73 73 67 63 64 68 71 75 77 77 76 74 70 70 73 75 66 71 71 74 80 76 74 
72 76 78 74 72 76 78 76 70 68 67 68 67 66 65 64 66 69 72 74 77 78 76 70 63 60 
62 65 69 73 73 71 70 67 62 55 54 56 58 52 42 40 49 61 69 77 87 98 106 118 131 
132 122 109 95 76 56 48 46 43 43 48 56 63 70 78 83 82 75 69 63 60 60 66 72 74 
68 64 66 69 73 76 74 70 68 72 75 75 75 79 82 78 73 71 71 71 71 72 73 74 73 70 
70 76 81 66 75 72 75 82 76 71 75 78 73 72 73 74 76 76 73 69 67 68 68 67 65 63 
63 67 71 72 74 76 77 74 67 64 64 65 68 70 70 69 70 69 65 60 58 59 61 56 44 39 
51 68 79 88 102 116 129 142 151 147 133 113 90 65 43 31 27 27 31 40 50 60 68 
73 74 71 66 62 59 58 60 64 68 67 64 64 66 66 66 71 75 73 68 67 69 72 76 83 86 
82 75 72 71 71 69 68 71 73 73 71 71 78 82 69 78 63 67 74 69 71 76 71 68 70 71 
71 73 77 75 68 66 68 70 70 69 65 62 66 70 70 69 70 73 75 73 69 66 64 64 65 64 
63 65 67 69 70 68 66 65 59 48 44 54 71 83 95 115 136 153 162 166 160 142 117 
87 59 39 26 18 17 24 34 42 51 59 63 63 60 59 60 59 58 58 60 60 59 61 65 66 63 
61 65 71 71 67 65 67 71 77 81 82 80 75 72 72 72 71 68 67 68 68 68 70 75 77 76 
76 59 62 80 62 76 68 66 67 70 70 68 72 77 74 67 67 72 76 77 76 71 65 65 70 71 
68 65 67 73 76 74 69 64 60 60 59 58 58 61 67 72 72 69 64 59 52 50 59 73 84 100 
125 150 167 176 177 167 148 119 86 60 44 33 23 20 26 34 39 45 53 59 59 59 63 
67 69 67 65 61 58 58 62 66 65 63 62 64 68 68 66 67 69 72 73 75 76 77 77 76 75 
75 73 69 65 64 65 65 67 69 73 83 73 66 63 80 69 71 68 70 71 75 73 69 73 81 78 
71 72 79 81 80 81 77 69 67 71 74 70 65 65 69 72 72 69 63 59 58 59 57 52 51 57 
64 68 65 60 56 53 53 60 73 86 103 126 150 168 180 180 168 147 116 81 58 47 40 
30 26 31 37 40 45 53 61 64 65 69 77 80 77 73 66 61 60 63 65 64 64 65 66 66 65 
65 68 69 69 68 69 72 76 79 81 79 77 75 71 67 66 67 66 66 66 69 83 72 71 67 77 
73 69 69 73 77 78 75 72 77 85 85 79 77 80 79 75 78 79 73 69 72 75 72 68 67 67 
65 64 64 63 60 58 59 56 49 43 46 55 60 59 56 56 56 55 60 72 88 107 128 148 166 
179 179 165 142 112 80 56 46 37 27 24 30 37 41 46 54 62 65 67 72 78 79 76 73 
67 63 61 64 65 64 65 68 68 66 65 66 67 67 65 67 71 73 74 78 82 82 81 79 73 69 
71 72 69 66 68 71 77 69 71 72 74 72 66 67 71 74 75 73 74 79 86 86 81 78 77 72 
69 72 77 75 72 72 73 70 69 71 67 59 53 55 59 59 57 56 55 49 43 43 50 56 57 57 
61 63 61 64 74 91 113 135 155 172 183 179 161 138 111 83 61 46 32 21 20 27 36 
43 49 54 58 61 65 70 72 70 66 65 65 63 62 65 66 67 68 68 68 66 66 68 69 65 64 
68 74 74 71 74 80 83 85 83 76 69 72 75 71 66 68 72 73 62 71 78 77 71 68 68 66 
64 65 70 76 79 80 79 75 73 73 71 70 71 74 73 73 73 69 65 69 72 69 59 52 51 56 
59 56 53 52 52 50 47 49 54 57 58 63 69 70 72 79 96 120 145 167 184 191 180 159 
137 112 90 71 55 37 24 23 31 41 49 55 57 56 57 62 67 66 60 56 59 63 64 63 65 
68 69 68 67 66 66 68 72 72 66 61 65 71 71 66 67 74 80 82 82 75 67 68 75 74 67 
67 71 74 64 72 79 73 70 70 67 61 55 57 67 76 76 74 71 70 71 73 74 74 72 70 70 
72 71 66 63 66 70 67 60 54 53 58 61 59 55 54 56 58 56 55 57 59 60 64 71 78 82 
88 102 125 151 175 189 192 182 163 142 119 100 87 74 56 43 39 44 50 57 59 56 
53 53 57 60 57 51 50 55 61 63 64 64 65 65 64 63 64 66 70 75 75 67 60 61 67 67 
61 61 68 72 72 73 71 64 65 71 73 68 66 70 76 74 71 69 68 70 70 65 58 52 56 66 
73 73 72 72 72 71 73 75 74 71 68 67 69 67 63 62 64 62 58 54 52 52 55 60 63 62 
60 61 65 67 65 64 66 67 70 76 84 92 99 111 131 155 176 189 192 187 177 160 138 
120 108 99 86 72 63 60 60 60 57 52 48 48 49 49 47 44 46 53 59 64 65 64 62 59 
55 56 60 67 73 76 74 65 58 60 67 66 61 61 66 67 65 65 68 66 65 68 72 69 66 69 
76 77 71 68 69 71 69 66 62 59 59 64 68 68 73 78 78 73 69 69 69 70 69 68 67 64 
62 62 62 58 53 52 52 49 48 54 63 68 68 66 68 70 72 75 79 81 80 83 92 103 112 
124 141 162 181 194 199 200 198 189 169 150 137 129 118 105 91 81 71 64 56 48 
41 38 38 40 41 43 47 53 59 64 66 65 64 59 51 49 57 67 72 73 68 60 56 60 67 68 
64 64 69 69 64 64 69 70 68 70 73 71 67 68 77 69 73 68 71 74 73 71 70 67 64 63 
64 67 74 80 79 72 65 64 67 71 73 72 68 63 61 61 62 60 60 62 61 51 44 48 60 72 
73 67 65 68 75 85 93 94 88 88 99 113 125 138 153 171 190 204 213 217 221 217 
203 186 173 162 152 139 123 105 88 74 60 46 32 24 26 35 43 48 51 54 57 59 61 
65 70 69 58 51 58 67 69 68 63 57 54 57 63 66 65 67 72 74 68 67 72 75 74 74 75 
73 70 69 80 61 77 66 69 73 74 74 74 71 67 66 67 69 73 77 76 70 65 65 68 73 76 
74 68 62 58 57 59 62 65 71 69 59 48 47 60 74 78 72 68 73 84 97 104 100 91 92 
104 119 133 146 161 178 196 213 225 233 238 237 229 219 208 198 188 175 157 
135 112 91 68 43 21 10 15 31 46 52 54 54 53 51 52 62 74 74 65 58 61 67 68 65 
62 57 53 52 56 61 66 71 75 75 71 69 74 79 78 74 74 76 76 75 82 64 72 61 64 67 
68 70 74 72 70 70 73 75 74 73 71 70 68 67 69 71 73 71 66 63 60 56 52 54 61 68 
71 66 58 54 63 77 86 87 84 88 98 106 108 102 94 95 107 119 130 144 162 180 199 
218 231 239 244 246 245 241 236 230 222 209 190 167 141 112 79 45 19 7 12 29 
44 51 53 53 50 46 48 61 73 74 64 60 64 68 66 64 62 59 55 53 54 59 68 74 75 74 
72 72 74 77 75 70 72 80 84 81 81 75 61 59 62 62 61 65 74 77 73 72 77 79 75 70 
69 69 67 64 63 65 66 65 65 68 68 61 52 50 54 63 71 72 69 67 71 83 95 100 101 
104 109 111 107 101 97 97 104 110 119 136 159 182 200 214 228 238 244 246 250 
254 255 255 250 238 221 202 177 142 100 60 31 18 19 29 40 45 48 52 50 46 50 62 
71 69 63 60 63 66 65 62 61 62 63 62 60 62 67 71 72 72 76 79 79 75 70 67 72 83 
89 86 75 74 60 62 67 66 60 66 78 81 74 70 76 80 76 70 68 68 64 58 55 58 61 61 
65 73 76 69 60 56 58 65 72 77 78 78 81 90 99 106 108 109 110 110 105 99 95 94 
95 98 109 129 155 178 193 204 217 231 239 243 251 255 255 255 255 255 252 239 
218 182 134 87 52 34 29 31 36 38 43 51 55 53 54 61 67 68 64 61 60 61 62 61 61 
64 69 72 69 64 64 68 70 75 82 88 84 76 69 68 73 82 87 84 74 75 68 71 77 76 71 
72 81 82 74 68 72 78 77 71 68 68 64 57 53 57 62 62 64 71 75 71 67 65 66 69 74 
78 80 84 89 95 102 108 109 106 104 103 100 93 87 85 85 88 100 121 146 167 179 
189 203 219 230 236 249 255 255 255 255 255 255 255 255 222 174 120 75 46 32 
29 31 32 40 52 61 62 59 59 62 65 64 58 52 53 59 62 62 63 69 74 71 66 64 67 71 
76 85 90 85 77 72 69 68 72 76 77 78 74 77 78 83 84 80 79 81 80 74 69 69 75 77 
73 69 68 67 61 57 61 66 65 59 59 62 64 67 69 67 69 73 78 82 88 96 101 107 113 
110 102 96 94 89 81 76 75 76 79 88 107 128 148 162 175 190 206 216 224 239 255 
255 255 255 255 255 255 255 253 206 151 99 56 32 24 24 29 40 54 65 70 67 61 57 
60 61 54 46 48 55 60 61 62 65 69 69 66 66 69 72 76 80 81 76 73 71 66 60 60 64 
69 75 68 81 77 79 82 82 80 79 77 75 70 69 73 77 76 72 69 69 66 64 66 70 68 59 
54 54 59 64 68 69 71 78 83 86 91 98 103 108 112 109 98 87 80 73 67 64 66 68 66 
72 88 108 127 145 162 179 191 197 203 221 247 255 255 255 255 255 255 255 255 
230 177 120 70 35 18 17 26 40 54 66 74 74 65 58 56 58 56 53 53 56 60 62 63 65 
67 67 65 66 71 75 77 77 71 65 66 67 64 58 58 63 69 68 68 79 74 73 76 79 79 77 
77 76 72 68 70 76 77 72 70 71 69 66 68 73 73 66 61 61 64 66 70 75 82 91 94 90 
90 93 98 101 103 100 91 78 68 60 56 56 60 59 56 58 73 92 110 129 148 163 170 
172 177 195 224 251 255 255 255 255 255 255 255 245 192 134 81 38 16 13 24 38 
53 65 74 76 68 58 54 59 63 63 62 63 64 65 67 68 68 66 65 68 74 79 81 79 71 63 
62 66 65 64 66 70 73 70 84 80 76 73 75 77 77 76 77 76 70 65 68 74 73 70 69 71 
68 65 66 72 75 72 71 71 70 70 73 83 96 105 103 93 86 86 91 93 92 88 81 71 61 
55 53 54 56 54 49 52 66 84 100 117 133 143 146 145 151 167 193 220 252 255 255 
255 255 255 255 249 194 137 84 42 19 16 26 38 49 62 72 74 66 57 55 60 65 65 65 
66 68 68 67 67 67 67 67 70 77 81 82 80 74 66 64 65 67 69 70 72 74 67 82 83 82 
79 75 74 75 75 75 73 69 67 69 72 71 68 69 72 70 65 66 70 71 70 71 72 69 66 70 
84 100 108 104 94 85 85 89 90 87 81 73 64 57 54 52 52 53 51 48 53 66 82 96 110 
122 127 126 125 128 141 160 187 223 255 255 255 255 255 255 238 185 130 82 47 
27 25 33 39 44 56 66 69 62 56 57 61 61 58 59 65 69 67 64 66 68 67 68 72 77 79 
78 77 76 72 68 67 68 68 67 67 71 66 81 84 86 81 72 67 68 71 74 72 69 70 71 72 
70 69 70 73 74 72 70 70 70 67 66 65 61 58 62 78 94 101 98 91 86 86 89 91 88 79 
69 61 55 52 48 48 51 52 51 58 72 86 98 109 116 116 112 109 111 117 133 159 195 
236 255 255 255 255 250 214 165 116 76 48 34 36 39 38 38 47 58 60 57 56 59 61 
57 51 54 63 67 66 65 68 70 68 67 71 77 77 74 76 78 76 72 70 71 71 68 66 69 62 
82 83 84 81 70 61 61 67 72 71 69 69 70 71 72 71 69 71 75 76 76 75 73 68 64 61 
58 55 58 69 84 93 93 88 85 85 90 94 89 79 67 59 54 50 45 46 50 51 53 63 79 93 
102 111 115 112 104 97 93 96 110 136 169 203 229 244 247 241 221 184 138 96 63 
42 32 32 35 33 34 41 50 51 50 55 60 60 55 52 57 63 65 64 66 69 70 68 67 70 75 
74 73 76 80 77 72 73 77 77 73 68 66 61 79 79 83 83 73 62 59 66 72 72 69 68 67 
70 73 72 68 68 70 73 77 78 75 70 65 63 62 60 59 66 78 86 86 81 79 84 93 97 91 
79 68 59 52 47 44 45 47 46 49 64 84 96 102 111 115 111 99 86 77 77 91 115 144 
171 195 213 222 218 196 158 113 74 46 29 21 22 28 32 38 44 49 50 52 59 64 60 
54 54 60 63 61 60 62 65 67 68 67 68 70 71 72 75 76 72 70 75 81 81 76 68 65 63 
73 75 83 85 77 66 62 67 73 74 71 68 67 71 75 75 71 67 67 69 73 75 73 68 65 65 
67 66 64 67 75 80 79 75 75 83 95 99 92 80 70 59 50 43 41 42 41 40 45 60 79 92 
98 106 114 112 99 81 67 66 78 99 123 147 171 190 199 195 175 139 95 58 33 17 
11 16 27 38 46 50 53 56 62 68 69 62 54 55 59 60 57 57 59 62 66 68 65 63 63 66 
71 73 71 66 67 76 81 80 76 70 66 76 70 71 78 83 79 68 63 69 75 75 71 70 70 74 
77 77 75 73 70 69 71 72 70 66 65 66 68 70 69 68 71 74 74 73 76 84 92 95 91 82 
72 60 49 41 38 37 37 37 42 53 69 80 88 99 110 111 101 86 73 69 78 93 113 135 
157 173 178 173 156 124 84 49 24 9 5 13 29 42 47 49 54 62 70 74 72 64 56 54 57 
60 59 59 61 64 67 67 61 56 57 64 72 72 68 64 67 74 77 76 74 71 70 74 69 66 69 
75 75 69 66 68 71 71 71 72 75 75 74 74 77 78 74 71 71 72 70 68 68 66 67 69 67 
65 65 69 73 77 80 83 87 90 89 83 75 63 51 44 38 34 33 34 38 45 56 69 81 94 104 
107 103 95 87 83 88 99 115 133 151 163 165 157 140 113 80 47 22 5 0 8 26 38 42 
43 50 62 70 72 71 67 61 59 62 65 66 67 67 67 68 67 61 56 58 66 71 71 68 67 70 
73 71 69 69 71 73 73 68 63 63 68 73 73 70 66 65 66 70 76 80 78 72 70 73 76 75 
72 73 75 74 74 74 70 65 64 62 57 56 63 73 79 81 82 85 88 88 84 77 68 58 49 38 
32 30 31 32 35 46 62 80 94 102 104 103 100 97 98 103 114 129 145 159 168 167 
154 133 106 76 49 25 7 1 9 23 35 40 41 47 58 66 68 68 69 68 66 68 70 72 72 71 
69 68 68 66 64 65 67 69 68 69 73 75 73 69 65 66 70 76 75 73 68 66 70 75 77 71 
64 60 63 68 77 82 80 71 66 67 71 71 72 76 80 79 78 78 74 67 64 61 55 51 58 67 
73 76 80 86 89 87 82 78 74 66 53 38 29 27 26 25 28 42 64 87 103 111 111 107 
104 104 109 121 137 154 171 184 189 183 165 137 105 76 50 29 15 11 18 29 38 44 
45 47 55 64 64 64 68 70 69 70 71 72 74 76 73 68 66 69 69 67 66 68 69 72 76 79 
77 72 68 68 71 77 78 79 77 75 76 78 76 69 62 60 62 66 73 79 78 69 62 64 68 71 
74 79 82 80 77 76 75 72 69 66 58 53 56 61 63 66 74 85 89 85 81 79 76 67 51 36 
27 23 22 21 27 46 75 101 122 132 130 123 116 116 127 146 167 187 206 217 218 
207 184 151 113 77 47 28 18 19 27 35 44 49 48 48 55 62 64 62 64 67 68 70 73 73 
76 80 76 68 63 66 67 66 66 69 72 72 73 76 77 76 73 72 73 76 79 82 81 80 78 77 
74 69 66 66 66 66 69 74 73 65 61 65 72 74 76 80 82 78 72 69 69 69 68 66 61 56 
55 57 57 59 69 84 90 88 86 84 79 65 47 32 26 23 22 25 36 62 94 126 150 164 164 
156 145 145 157 178 200 220 236 246 244 229 203 167 124 81 46 24 16 19 27 37 
47 52 51 50 57 65 63 61 64 66 67 72 77 77 77 78 75 69 63 64 67 67 68 71 72 69 
67 69 72 74 74 75 76 74 78 82 81 77 75 75 76 73 71 71 70 68 69 72 70 66 65 69 
74 75 73 75 78 75 69 63 61 60 59 58 57 56 57 58 56 58 68 83 94 98 99 97 89 71 
51 37 33 32 31 36 53 83 121 154 181 198 201 193 185 184 192 210 229 244 255 
255 255 242 213 176 132 87 51 29 21 20 26 37 50 56 54 54 62 66 63 62 65 66 65 
69 75 74 71 71 73 71 70 72 74 72 72 72 72 67 64 65 67 68 71 75 76 73 79 83 80 
73 69 72 75 72 68 67 67 67 70 74 74 71 71 72 72 70 66 66 70 72 68 63 61 56 54 
53 54 55 57 58 57 57 65 79 91 100 107 109 101 84 65 53 49 47 46 50 69 101 140 
177 206 224 228 224 220 221 226 238 252 255 255 255 255 246 216 178 135 94 63 
44 33 28 27 35 48 57 58 60 66 67 61 60 64 62 56 57 63 65 64 68 74 77 79 81 79 
75 72 72 71 67 65 66 66 65 66 69 72 72 79 85 81 71 67 70 72 68 62 60 60 62 69 
75 75 72 72 71 69 66 63 61 65 68 68 66 66 63 57 55 55 55 55 57 56 53 58 67 78 
90 102 107 103 91 78 69 65 64 62 66 83 115 154 191 223 241 245 245 246 248 250 
254 255 255 255 255 255 246 219 181 138 99 70 55 45 36 30 33 42 52 59 64 68 67 
59 55 57 56 49 48 53 59 63 71 80 82 82 81 77 72 71 72 71 69 68 69 68 66 64 65 
69 72 79 84 79 73 70 73 74 70 65 62 59 60 65 72 71 68 68 69 70 68 64 62 63 65 
66 68 72 71 64 57 56 54 53 54 54 50 50 56 67 82 96 99 94 88 84 80 80 80 79 84 
103 134 169 206 238 255 255 255 255 255 255 255 255 255 255 254 250 238 214 
180 138 97 68 53 47 41 36 33 37 49 60 66 68 64 56 52 53 53 49 49 54 62 68 76 
83 83 79 76 73 70 71 72 71 69 70 72 72 70 66 66 71 77 79 82 79 75 75 78 79 77 
74 72 66 61 62 66 65 63 64 70 73 70 64 60 60 60 61 67 77 78 69 60 56 54 53 55 
54 50 47 52 66 82 93 93 89 89 93 96 98 96 95 103 125 156 188 221 251 255 255 
255 255 253 245 236 230 229 230 230 225 213 191 158 119 83 57 44 43 44 41 38 
43 54 64 68 67 62 55 52 53 55 53 53 61 70 74 78 82 80 76 73 72 72 72 73 71 69 
71 75 77 76 72 71 76 80 82 84 81 78 78 81 81 79 77 76 71 64 62 64 65 63 65 71 
73 67 57 53 53 53 56 68 81 82 73 63 59 57 56 57 56 49 44 50 66 82 89 89 90 99 
109 115 116 112 109 118 141 172 202 230 255 255 255 248 236 230 220 205 194 
193 193 191 184 170 148 118 86 60 44 37 39 42 43 45 51 61 68 68 66 61 57 56 58 
57 54 55 65 75 78 78 79 78 74 71 72 73 74 72 69 67 71 76 80 78 74 74 77 80 82 
86 84 82 83 85 82 77 72 71 69 65 65 70 72 69 67 70 70 62 51 48 49 51 56 69 82 
82 73 66 65 62 59 57 53 46 40 45 59 74 82 85 92 106 117 123 124 123 124 134 
155 180 207 231 247 252 245 228 213 203 193 177 161 152 147 140 131 120 102 
76 51 38 35 35 37 41 45 48 53 59 64 65 65 63 60 59 59 57 53 54 65 75 77 76 77 
75 71 67 69 73 75 71 66 65 69 74 77 75 72 72 76 81 73 79 81 83 85 85 82 77 73 
69 67 66 69 74 75 70 63 64 65 58 50 51 55 57 61 72 80 78 71 69 68 64 57 51 46 
39 33 37 52 68 77 83 93 105 113 118 124 130 138 150 166 184 205 224 235 234 
225 209 193 180 167 149 128 111 97 87 79 75 63 45 28 23 27 33 39 46 50 52 52 
54 57 61 64 64 61 56 53 51 51 55 64 71 71 71 74 73 68 64 67 73 76 73 68 65 66 
70 71 69 68 70 75 81 68 70 73 78 82 81 79 78 76 71 67 65 67 69 68 62 56 56 60 
59 56 58 65 67 69 75 79 76 71 70 70 64 54 46 40 32 27 30 44 59 71 81 91 98 103 
110 120 133 146 159 169 180 197 215 225 224 214 197 177 158 139 117 92 69 53 
44 42 43 38 27 16 14 21 32 44 56 61 59 56 55 57 61 64 64 58 49 44 45 49 54 61 
64 64 67 71 72 67 65 68 74 77 76 72 68 66 67 68 67 67 70 73 81 72 69 70 74 77 
76 74 75 76 72 66 63 62 61 59 55 52 56 62 65 63 65 70 72 73 77 80 78 72 69 67 
62 54 45 37 29 23 24 31 41 56 70 81 87 93 102 115 130 144 156 163 172 188 209 
223 224 213 192 166 140 115 90 63 40 25 21 26 29 27 19 13 13 20 32 48 63 68 64 
61 60 62 64 67 65 57 47 44 46 49 53 58 61 62 64 68 71 69 66 68 70 71 73 74 71 
66 64 66 69 70 71 73 80 75 70 69 73 77 75 71 73 74 71 66 63 62 61 60 57 56 61 
69 72 68 68 70 73 74 77 79 76 68 64 62 59 51 42 34 28 24 22 21 27 40 57 69 76 
82 90 103 119 134 146 156 169 188 209 225 229 219 196 167 138 111 85 60 36 21 
17 22 27 24 19 17 20 26 36 51 63 65 62 60 61 63 68 71 69 61 55 55 57 56 54 58 
63 64 63 66 70 69 65 63 63 65 70 75 73 67 64 66 70 73 73 72 76 72 66 65 70 75 
74 72 74 75 72 66 65 66 68 68 64 62 65 73 74 69 68 70 73 75 76 75 69 62 58 58 
55 45 34 27 24 27 29 30 33 42 55 63 68 72 78 87 102 119 136 154 174 196 215 
229 236 229 210 185 158 130 103 78 57 38 26 22 25 24 24 27 33 38 45 54 60 58 
56 57 59 63 70 75 72 64 62 67 70 65 59 62 66 65 62 64 69 68 61 56 58 64 71 76 
75 70 67 68 71 73 72 74 76 69 62 60 64 70 73 73 77 80 76 70 66 68 73 74 69 63 
66 73 74 69 68 71 73 74 74 71 65 60 59 59 52 39 28 22 25 35 48 56 61 67 71 71 
71 70 70 75 87 105 125 150 178 204 222 234 243 242 230 211 187 158 127 102 82 
62 41 27 25 27 29 35 44 50 55 59 58 55 57 61 64 66 73 75 69 61 61 68 70 66 61 
63 68 66 62 64 67 65 57 54 59 69 76 78 77 74 72 73 74 74 74 76 77 72 66 63 65 
69 71 73 77 82 81 73 67 70 75 75 69 65 68 74 76 72 69 70 71 71 70 69 67 67 66 
61 52 40 30 27 35 53 73 88 98 103 102 95 89 82 76 73 80 95 116 143 175 204 223 
238 250 255 249 234 213 182 148 120 101 81 57 38 33 36 37 39 45 55 61 64 62 61 
63 69 71 70 71 70 64 58 56 59 61 58 56 60 66 68 63 61 64 64 58 57 65 75 78 78 
78 79 80 79 78 78 78 78 76 75 72 73 74 73 70 70 73 78 80 74 70 72 75 75 70 67 
71 77 77 71 65 64 66 68 68 69 73 74 69 59 50 44 39 40 54 81 107 125 139 147 
144 131 118 106 91 80 79 89 109 137 170 199 221 240 255 255 255 248 229 200 
166 137 116 95 69 50 47 50 48 44 46 54 62 65 66 66 68 71 71 69 66 65 63 61 61 
60 56 51 49 54 64 67 63 60 63 65 64 64 71 76 77 78 83 87 86 82 81 81 80 76 72 
74 74 76 77 74 70 68 71 74 75 74 73 75 77 75 72 70 72 74 72 64 59 59 64 69 74 
75 76 74 63 50 44 44 47 57 82 118 151 172 188 195 189 170 149 130 108 88 79 85 
103 131 163 194 219 239 253 255 255 251 232 208 180 153 129 103 77 60 58 61 59 
54 53 56 61 64 65 66 66 65 64 63 63 63 65 66 68 67 61 54 50 53 60 64 62 61 66 
71 70 69 73 75 75 80 90 93 88 81 80 81 77 70 79 71 71 72 72 70 69 70 71 71 73 
73 74 76 78 78 75 73 72 69 62 57 55 58 64 72 79 80 75 67 54 39 33 40 55 78 114 
158 197 224 239 243 230 203 174 149 122 96 81 82 98 122 152 185 212 231 243 
251 254 245 227 205 181 155 129 104 81 66 62 64 66 64 63 63 62 62 62 62 60 58 
58 61 65 66 65 64 65 67 66 61 56 56 58 59 60 65 72 74 71 70 72 75 77 82 90 91 
84 79 80 81 76 70 81 72 71 67 66 68 71 72 70 68 71 74 75 77 79 80 79 77 73 66 
57 54 58 62 67 73 78 78 72 63 49 33 26 38 63 98 142 190 232 255 255 255 255 
232 195 163 132 102 82 79 92 113 139 169 197 214 221 229 237 235 217 193 170 
145 118 96 80 67 60 60 65 69 71 70 65 60 57 56 55 55 56 63 70 71 63 56 57 63 
67 66 62 60 59 59 62 68 74 73 69 69 74 79 81 82 82 80 77 79 83 83 79 80 81 75 
73 67 66 71 73 70 65 64 69 75 78 78 79 80 80 78 76 68 59 59 67 72 72 71 73 73 
69 63 50 34 27 40 70 111 157 203 246 255 255 255 255 255 217 176 137 103 80 75 
86 105 128 154 177 190 192 198 209 212 197 176 154 130 102 80 69 62 55 53 60 
69 73 70 65 59 53 49 49 52 56 64 74 74 64 56 59 69 72 67 63 62 62 64 68 73 74 
71 69 72 79 84 83 79 73 71 72 76 81 82 78 80 80 74 74 70 71 75 74 66 61 63 71 
78 79 79 78 77 76 76 76 72 66 66 73 78 76 71 70 70 70 66 54 38 31 45 75 114 
157 202 246 255 255 255 255 255 235 186 140 101 75 68 79 99 121 143 160 167 
165 167 176 177 166 149 132 111 87 69 60 55 50 49 57 68 70 66 60 57 50 43 44 
50 56 63 70 71 65 63 69 78 78 70 64 63 65 69 74 77 75 72 71 75 83 87 83 74 70 
71 73 74 76 77 74 77 77 75 75 73 75 77 73 66 63 68 74 79 79 78 76 73 71 70 71 
72 70 68 71 75 75 71 70 73 74 67 53 39 36 48 72 105 146 191 236 255 255 255 
255 255 235 183 139 99 71 62 74 96 117 134 145 148 143 141 144 143 132 115 101 
88 76 65 57 52 49 50 57 64 63 59 58 57 51 44 46 53 58 60 62 64 64 66 73 79 76 
70 64 62 63 68 74 77 75 73 72 74 80 84 81 73 73 78 79 75 74 76 74 73 73 78 78 
75 76 77 73 68 69 73 77 78 78 78 73 68 66 66 66 67 67 66 67 70 71 70 71 75 78 
70 53 40 38 47 64 90 126 171 217 249 255 255 255 255 215 168 128 94 68 61 74 
96 112 122 128 130 124 119 120 119 107 88 76 72 71 67 59 54 52 52 55 59 58 56 
58 61 58 53 55 60 61 57 56 59 64 70 74 71 66 64 64 61 60 65 73 75 74 72 72 73 
77 82 80 74 75 81 83 78 76 76 76 72 72 79 77 73 73 75 73 71 73 76 78 77 78 76 
71 67 66 65 63 63 64 66 69 72 72 70 71 76 79 74 60 46 40 44 56 74 102 138 180 
212 231 235 232 215 182 141 107 81 64 61 73 92 104 109 111 111 107 102 100 100 
92 77 67 68 73 71 63 57 56 55 57 59 59 59 62 67 67 64 64 67 64 59 56 59 69 77 
75 66 59 59 63 63 62 67 74 76 74 74 74 73 76 80 78 74 73 78 79 75 74 74 81 78 
77 78 77 70 70 73 74 73 75 78 79 78 77 75 70 69 69 67 64 63 67 72 77 79 77 75 
73 76 79 75 64 53 43 41 47 60 78 103 135 167 186 192 189 175 148 112 81 63 55 
58 69 85 95 97 97 95 92 88 84 81 77 71 66 68 74 74 67 62 61 61 63 68 70 68 69 
73 73 69 69 72 70 66 62 64 70 76 75 68 62 63 67 67 67 71 78 79 77 77 77 75 75 
76 75 72 72 73 71 70 72 70 84 82 82 81 76 70 68 71 73 74 76 81 82 80 77 73 71 
72 73 70 65 64 69 76 83 84 81 79 78 77 75 71 65 56 46 42 44 51 60 74 97 121 
138 144 143 135 112 80 55 46 47 55 66 77 85 89 88 83 80 78 74 68 63 64 66 71 
75 72 67 64 65 66 72 79 81 76 72 73 74 70 69 72 74 73 71 69 69 72 73 72 72 73 
74 70 69 74 80 81 81 81 81 78 74 72 73 73 73 71 69 70 75 75 78 78 81 80 77 76 
70 69 71 73 77 81 82 80 77 73 70 71 73 72 67 63 66 73 80 83 82 81 80 77 71 67 
65 61 54 50 47 47 50 58 72 87 95 97 96 90 72 49 35 35 46 57 65 70 75 81 82 77 
75 77 74 65 58 62 70 75 75 70 63 61 62 66 73 80 83 76 70 71 72 67 63 65 69 72 
74 73 70 67 70 75 79 77 74 69 67 70 77 81 82 83 82 77 73 73 76 77 74 71 72 70 
78 75 73 73 74 77 72 71 71 69 70 74 78 80 78 76 74 72 68 67 71 74 70 65 63 67 
74 78 79 79 78 74 71 68 68 68 66 59 51 45 47 54 63 70 68 62 58 51 38 25 23 33 
49 61 64 63 65 71 75 74 76 81 79 69 62 67 76 80 76 67 59 57 61 65 68 72 73 70 
68 68 67 61 55 55 60 66 70 71 68 65 70 77 78 75 71 68 66 67 72 76 78 78 78 76 
74 74 78 78 74 73 73 80 81 77 76 75 72 75 70 69 71 70 68 74 81 81 76 72 71 69 
66 66 70 74 72 68 65 65 68 71 73 73 72 71 71 73 74 75 72 63 52 47 50 57 63 63 
57 48 42 35 24 18 21 33 48 60 64 61 58 64 70 73 77 82 81 72 67 70 77 78 72 63 
58 60 65 67 65 63 65 67 68 66 62 54 50 53 59 64 65 63 61 61 68 75 75 72 71 72 
71 69 70 72 72 72 73 75 75 76 78 77 73 71 74 81 78 79 79 79 74 74 69 68 72 71 
71 76 81 81 76 72 71 71 70 70 72 73 71 69 69 69 67 66 67 68 68 69 72 75 77 77 
73 64 55 53 57 60 62 59 53 48 45 39 29 24 25 33 44 56 63 62 60 62 67 72 74 76 
75 72 68 68 71 71 63 58 58 65 70 70 63 59 64 69 69 65 59 53 52 58 65 68 65 61 
57 58 66 71 71 70 74 78 76 73 71 71 70 70 74 78 79 78 78 76 73 74 76 78 76 74 
74 76 73 73 70 72 77 79 76 71 74 75 73 72 74 77 79 78 76 72 68 69 72 71 66 62 
63 67 70 71 71 72 75 78 73 66 62 65 65 61 57 55 52 51 52 49 41 35 34 37 43 50 
56 59 62 64 68 72 73 71 69 69 66 65 67 65 58 54 57 64 67 64 58 56 61 67 64 63 
63 61 61 65 69 70 70 70 66 64 66 68 68 71 76 80 77 72 72 73 72 73 77 81 81 80 
79 77 74 76 73 73 75 67 65 67 69 72 72 77 83 85 83 77 72 71 72 74 78 81 84 84 
78 72 68 68 73 73 65 59 62 69 73 72 68 66 72 78 76 70 70 73 71 63 57 53 52 53 
56 56 52 50 49 48 46 45 47 53 59 65 68 71 72 69 67 67 66 65 69 69 62 58 58 61 
60 57 53 52 54 56 58 63 71 74 71 68 67 67 74 79 76 70 69 70 70 73 79 80 74 69 
70 73 74 74 77 79 78 77 77 79 81 78 73 72 71 67 64 63 66 71 73 78 84 86 85 79 
72 67 69 76 80 81 81 80 77 73 70 70 74 76 68 60 62 68 73 72 66 63 69 78 76 70 
71 75 75 69 62 58 55 57 61 63 64 65 64 59 50 45 46 52 60 64 64 65 66 68 68 67 
66 68 74 76 71 65 63 61 58 56 55 52 49 49 52 64 77 80 75 69 65 66 73 78 76 72 
73 75 74 76 81 82 75 68 69 73 73 72 73 74 70 68 69 81 84 82 78 76 69 73 70 67 
68 68 69 74 79 82 80 77 72 69 71 76 80 80 75 73 73 73 73 73 76 78 71 63 61 66 
70 71 68 65 68 72 71 67 68 73 77 75 69 62 60 64 69 71 71 71 67 58 52 51 53 58 
62 62 59 59 61 65 68 69 67 69 76 77 73 69 66 64 61 60 60 56 51 48 54 66 75 77 
73 68 67 69 73 73 70 69 74 77 75 76 81 84 79 73 72 73 73 71 72 73 68 66 73 78 
82 83 82 81 71 73 73 71 74 65 63 68 74 75 73 71 72 73 74 76 79 78 73 68 68 73 
75 75 75 76 71 63 60 64 67 68 68 68 67 66 64 65 69 73 75 75 70 64 64 70 73 72 
70 66 61 54 53 58 63 62 60 58 58 57 58 63 68 68 66 68 71 70 67 66 66 65 63 63 
63 59 54 54 62 71 75 72 69 69 70 72 73 71 67 68 72 74 73 74 78 82 80 77 75 75 
74 72 72 73 71 70 72 75 77 77 79 80 67 66 66 69 74 68 64 67 71 69 64 66 72 76 
74 71 71 82 78 66 62 71 76 74 73 74 69 63 62 64 65 63 63 65 68 66 64 66 72 74 
72 71 67 64 66 70 71 70 69 66 61 56 58 64 67 62 56 54 58 60 61 62 67 68 66 66 
64 60 58 62 67 68 64 63 63 59 57 60 69 75 77 76 76 75 73 72 72 72 70 68 70 71 
71 72 75 78 79 78 76 75 74 72 69 69 71 70 72 76 75 73 73 75 66 63 63 66 71 74 
71 70 69 63 58 62 72 78 73 65 63 65 68 75 67 73 77 73 72 75 72 68 67 69 66 60 
58 63 68 68 66 69 73 72 70 69 68 67 68 69 69 70 73 73 68 64 64 67 69 64 57 54 
59 64 64 65 68 71 71 68 62 56 54 61 70 73 69 65 62 59 58 63 70 74 77 81 83 80 
74 70 70 72 71 70 69 69 70 70 71 74 77 76 72 72 72 69 65 72 73 69 74 78 78 76 
73 75 72 72 72 73 75 72 73 72 70 64 59 63 73 80 78 71 69 72 74 74 73 74 79 74 
75 79 79 75 74 74 69 62 60 65 69 69 67 68 69 68 67 68 70 73 74 72 70 72 77 77 
73 69 67 68 70 68 62 58 60 64 65 66 70 75 77 73 65 57 57 65 75 77 74 68 64 60 
60 65 70 70 71 77 82 78 72 69 69 70 71 71 69 68 68 66 65 70 75 73 68 67 70 68 
66 76 75 74 76 77 78 79 75 79 77 80 81 81 81 66 68 71 73 71 68 67 73 80 83 80 
77 78 78 74 68 67 74 77 76 82 83 79 76 74 71 69 71 72 70 67 65 66 67 67 67 69 
72 76 77 74 70 71 74 75 72 69 67 66 69 70 66 62 62 64 64 65 69 73 76 73 67 62 
63 71 78 79 74 71 69 66 67 72 74 70 69 72 75 72 69 68 67 67 70 71 70 69 66 63 
62 67 71 69 64 65 70 73 67 75 77 75 72 70 71 75 73 76 76 78 81 82 82 64 65 71 
77 79 76 71 70 75 81 81 75 73 73 70 65 63 67 72 76 80 83 81 76 73 71 75 81 80 
71 64 64 67 69 69 69 70 71 72 73 72 69 69 71 71 69 67 65 65 68 69 65 64 66 67 
66 64 63 64 68 68 66 66 70 76 79 76 72 72 74 75 76 78 77 74 71 72 73 70 67 67 
66 65 67 70 71 69 66 64 64 67 68 65 61 64 70 67 66 72 75 73 69 65 64 67 70 79 
77 77 79 80 79 68 70 76 81 82 79 73 69 71 76 75 70 67 70 72 71 69 72 72 71 77 
81 82 79 74 72 76 81 81 73 64 63 67 70 70 69 69 67 67 66 67 68 70 71 68 65 63 
63 67 70 68 64 64 70 73 70 65 60 58 61 65 67 69 72 76 77 73 69 71 77 81 81 79 
76 73 74 76 74 71 70 70 67 64 64 66 67 67 67 66 68 70 69 64 62 68 73 69 68 69 
71 71 71 69 65 64 67 83 82 80 81 80 76 71 74 79 81 79 78 78 74 73 75 74 70 69 
74 78 77 74 75 76 74 75 79 80 80 78 75 74 77 79 75 68 65 66 66 65 64 65 65 63 
62 65 70 74 73 69 63 62 65 70 73 69 64 65 71 76 73 68 63 60 61 65 70 73 72 71 
72 71 70 72 77 81 81 78 72 71 73 75 73 71 72 72 68 63 62 63 64 64 65 67 70 72 
71 68 69 74 75 72 69 69 70 71 73 73 70 67 66 82 82 81 80 78 74 71 74 79 76 71 
74 81 81 77 75 76 74 73 76 79 78 73 72 71 67 68 73 75 78 80 77 74 75 78 77 74 
71 67 62 59 59 62 64 63 62 64 70 75 76 70 65 66 71 76 75 71 68 69 72 73 73 70 
68 66 65 68 74 78 73 67 67 71 72 72 75 78 79 78 74 71 71 71 70 69 71 71 67 62 
61 64 66 65 67 70 71 71 71 72 77 78 77 74 70 69 69 68 69 70 71 73 69 80 80 78 
78 77 75 71 74 77 74 67 70 79 84 79 75 75 75 73 74 76 74 71 71 69 66 66 73 74 
73 76 78 76 74 75 76 76 74 69 62 56 56 61 64 65 65 66 68 73 75 73 72 73 78 79 
76 72 72 73 73 72 70 71 71 70 68 70 76 78 74 68 69 72 73 71 70 72 74 77 75 72 
70 70 70 71 71 69 65 62 63 68 71 70 71 73 71 68 70 76 79 81 79 74 70 70 69 66 
64 64 67 73 74 79 81 80 79 78 79 72 74 78 77 70 69 76 81 78 73 73 75 76 77 77 
73 72 73 74 71 69 74 77 72 72 70 75 77 73 70 72 75 73 67 62 60 62 65 68 72 72 
70 71 77 78 77 79 82 80 74 71 73 76 75 72 71 72 72 71 69 70 73 74 73 72 75 77 
75 71 67 66 68 71 71 70 70 73 75 75 73 70 68 66 68 72 74 72 72 73 71 68 72 73 
76 81 81 75 71 72 72 70 68 66 67 71 73 78 82 81 80 79 79 74 74 81 83 77 70 72 
77 76 71 71 76 80 81 79 74 71 73 76 74 73 74 77 76 74 76 77 82 76 69 71 75 76 
74 72 69 66 65 72 81 83 75 73 78 81 80 79 81 79 73 69 71 75 76 74 74 73 72 70 
70 71 72 72 73 76 79 78 74 71 68 65 65 66 68 70 73 76 77 76 73 73 73 72 73 74 
73 69 68 71 73 74 71 68 72 80 83 80 76 75 76 77 77 76 75 76 71 74 78 79 79 79 
77 74 75 81 85 78 71 72 77 75 69 69 75 79 80 77 73 68 68 73 77 76 75 74 75 75 
74 76 79 82 76 76 78 78 77 77 74 68 67 74 86 88 80 74 77 81 79 77 77 74 70 68 
70 74 77 77 76 74 71 69 70 74 75 75 77 80 80 74 70 70 70 67 65 67 70 74 77 77 
74 71 72 74 75 74 73 73 71 67 67 73 77 74 69 65 70 80 85 83 80 77 76 77 80 82 
82 81 70 72 75 77 79 81 78 78 69 85 80 74 69 74 76 74 68 68 75 79 79 77 74 68 
67 72 79 79 74 71 71 73 73 73 78 82 85 83 83 80 78 75 71 66 65 72 82 87 81 76 
77 79 77 73 70 67 65 66 70 73 77 78 77 74 70 69 72 75 76 77 80 81 77 69 65 67 
70 69 68 70 73 77 79 75 70 68 72 75 74 72 71 73 73 72 74 76 75 74 69 67 72 79 
81 80 80 80 78 77 78 81 82 81 72 74 76 77 79 82 81 81 75 83 81 80 76 70 65 63 
66 74 81 76 77 71 70 71 71 74 79 79 74 69 69 70 70 71 71 81 86 86 84 82 79 75 
69 63 61 66 76 83 81 78 79 80 76 70 65 61 60 64 68 72 75 78 78 76 73 71 71 72 
71 72 75 77 73 66 62 64 69 70 71 72 72 73 75 74 70 70 75 79 76 72 72 76 79 80 
78 71 72 72 70 71 75 78 75 74 78 82 81 80 80 80 79 76 77 78 78 77 77 79 80 81 
77 81 81 83 81 76 70 67 70 77 82 81 79 77 75 73 74 76 77 80 80 75 70 70 69 70 
75 81 80 82 78 81 82 78 69 62 58 60 71 79 82 82 83 81 77 71 66 62 63 66 69 70 
72 77 80 79 75 70 68 67 66 66 68 69 68 65 63 66 71 73 73 73 72 71 72 73 72 73 
78 81 78 74 74 78 81 80 69 65 67 71 73 74 76 76 72 71 76 82 82 81 81 79 76 74 
82 82 80 79 78 78 79 77 79 83 79 79 78 75 72 71 74 79 80 75 75 80 82 78 75 76 
75 74 74 76 76 72 69 68 72 78 79 76 80 77 79 77 71 64 60 61 68 77 82 83 82 79 
76 74 70 67 70 74 73 69 70 75 80 82 77 68 63 63 66 69 70 69 67 64 64 69 76 77 
75 75 76 76 75 75 74 74 78 82 80 75 74 76 79 75 65 65 69 76 77 74 74 74 72 71 
76 81 80 79 79 77 74 80 82 83 82 81 81 81 81 75 84 80 75 73 72 71 70 70 73 78 
76 69 68 77 84 81 75 74 75 76 78 78 75 72 72 75 76 74 70 73 74 73 73 74 71 68 
68 68 70 75 79 79 77 74 74 75 73 71 75 79 78 73 70 72 78 81 77 69 63 63 69 76 
77 75 70 66 66 72 78 76 73 75 80 80 77 74 72 74 78 82 82 76 72 72 74 73 70 72 
78 82 79 72 69 71 71 72 76 80 81 79 78 77 76 74 79 82 83 82 81 81 82 79 87 70 
68 69 71 72 72 70 72 77 77 70 66 72 79 80 74 72 74 78 81 81 77 72 68 69 75 78 
76 73 71 72 73 72 71 74 77 78 75 75 76 76 74 71 72 75 74 70 72 79 82 79 75 74 
76 80 80 74 68 66 70 75 78 78 75 72 71 74 77 71 67 71 77 77 72 70 71 73 78 82 
83 79 73 71 72 75 75 76 80 82 77 69 67 70 71 71 75 80 82 81 79 79 77 73 78 83 
84 81 77 76 80 87 83 64 64 68 73 76 77 73 71 76 81 78 71 69 74 78 74 69 70 76 
79 79 77 72 66 66 74 80 79 73 69 69 70 70 70 74 81 80 81 76 76 77 76 74 73 75 
74 70 70 74 79 82 81 79 78 78 78 76 73 68 67 69 72 75 78 78 75 74 73 68 63 67 
75 76 71 70 74 75 76 79 81 81 75 73 75 78 77 74 74 74 69 65 66 71 72 71 73 77 
80 80 79 79 75 76 81 87 88 84 78 75 76 91 82 70 66 69 74 80 81 77 73 75 83 86 
78 70 73 78 74 68 70 76 79 79 78 74 70 70 73 78 79 76 73 71 70 69 70 74 79 79 
74 80 75 75 76 72 70 76 76 73 69 70 74 78 81 82 79 74 71 71 70 67 65 66 68 72 
78 79 77 74 73 68 65 68 75 77 75 75 78 78 75 73 78 80 71 73 78 81 79 74 71 68 
64 63 68 72 72 71 71 74 77 78 80 78 74 76 81 88 92 90 84 79 77 84 86 78 71 72 
77 82 84 81 75 75 82 86 77 76 74 76 75 70 66 69 76 77 71 66 71 77 76 75 79 82 
81 78 73 70 67 67 68 69 71 72 72 69 73 72 73 77 79 78 76 75 75 70 77 82 80 73 
67 66 66 66 68 70 71 73 76 78 78 76 74 71 68 70 74 76 74 74 77 79 77 73 75 77 
69 71 75 79 81 80 75 67 64 66 71 74 74 73 74 75 77 80 82 79 75 81 84 82 77 72 
71 78 86 
