P2
112 112
255
59 64 65 65 69 68 60 53 52 57 61 64 63 60 60 58 57 64 69 66 68 68 65 64 64 65 
67 70 71 68 63 62 68 77 78 71 62 59 61 67 73 75 70 66 67 73 79 79 72 65 61 59 
59 66 73 71 70 76 80 81 80 75 70 68 64 56 52 57 64 62 66 74 82 83 79 80 85 84 
82 82 82 80 80 85 84 77 71 70 67 61 61 64 66 63 61 63 69 78 78 69 60 55 58 66 
77 78 72 71 71 68 64 66 62 59 62 67 72 70 62 53 50 50 53 59 62 60 53 48 49 72 
70 64 63 60 60 64 68 66 60 62 70 72 67 68 77 81 74 64 60 63 67 69 70 69 65 62 
64 73 81 81 75 69 65 62 64 70 77 77 70 67 71 79 80 74 69 67 64 58 56 60 65 69 
69 66 77 81 81 83 85 85 83 84 84 79 78 81 81 75 71 71 71 70 71 75 74 71 68 65 
68 77 82 77 64 53 50 60 73 76 72 70 71 68 65 63 72 57 60 64 70 71 64 58 54 53 
55 61 66 62 52 45 73 70 66 65 60 53 56 66 70 62 52 53 67 76 76 74 79 79 70 59 
59 67 73 74 71 67 62 60 63 72 81 85 80 74 70 67 67 73 76 72 67 65 67 72 75 72 
68 67 66 64 63 64 62 61 63 65 61 60 63 77 79 80 79 82 83 77 71 71 73 72 69 69 
70 74 79 80 76 71 68 65 67 74 81 79 67 56 54 63 75 78 75 73 73 70 67 64 77 57 
59 63 69 71 65 58 55 54 56 62 66 63 53 45 72 63 66 68 64 54 56 70 74 62 51 53 
65 75 78 76 75 74 70 64 59 64 73 76 71 65 60 60 64 71 78 81 77 73 72 72 72 72 
70 64 59 59 63 67 69 68 65 63 63 65 66 65 62 57 58 62 63 55 50 55 59 79 78 81 
82 76 71 69 73 72 69 68 70 73 79 80 75 70 68 65 66 74 81 79 67 57 55 65 76 79 
76 74 73 70 67 65 75 61 62 64 63 63 64 70 74 73 69 66 64 67 71 65 69 69 73 74 
68 61 64 74 78 73 67 65 69 72 73 70 69 72 74 70 62 61 66 74 71 63 59 61 68 72 
75 75 71 71 73 75 76 73 66 56 53 55 63 69 72 70 68 67 67 69 71 69 60 54 55 63 
66 61 54 57 64 70 69 69 71 67 65 66 66 64 61 57 59 64 68 67 61 59 63 65 60 57 
58 60 63 69 69 63 62 66 68 67 62 60 63 68 73 61 62 64 66 66 68 72 74 72 70 68 
66 64 65 66 81 79 79 79 73 65 68 76 81 81 82 81 75 67 66 68 68 71 78 76 63 59 
68 77 73 62 59 66 74 76 73 69 68 69 73 77 78 74 66 59 58 60 66 74 77 74 69 68 
70 72 74 76 79 73 65 65 68 69 66 66 70 75 77 76 74 70 67 64 63 64 64 64 64 69 
74 74 67 63 62 62 61 61 63 62 67 74 72 66 64 71 77 73 66 60 58 61 73 57 59 64 
66 66 67 72 73 70 71 74 73 70 65 71 81 81 79 78 74 67 66 72 76 78 84 85 77 69 
68 69 70 73 76 73 65 63 73 81 77 65 61 71 78 77 72 66 64 65 70 75 79 78 73 71 
71 67 64 70 73 70 66 66 67 68 68 73 78 79 76 70 67 67 70 73 74 75 77 76 71 64 
62 65 63 58 67 71 73 75 77 75 73 71 69 66 63 65 67 67 69 73 72 68 71 77 77 70 
60 56 55 54 72 55 58 66 69 65 66 72 73 70 70 75 76 72 66 67 72 74 75 74 72 66 
64 66 70 72 77 82 80 76 74 72 70 71 72 70 66 68 74 79 76 68 66 71 75 74 71 65 
59 60 65 72 76 76 74 76 76 66 54 55 62 65 64 64 63 62 63 66 71 71 68 63 59 56 
57 63 72 76 75 70 66 65 70 77 78 70 66 68 75 72 66 66 69 73 74 69 63 64 68 70 
68 67 67 69 73 76 68 56 51 53 54 52 70 59 63 72 70 65 68 76 77 70 68 70 69 64 
64 64 69 72 72 73 70 66 66 70 73 72 74 79 82 78 71 67 67 68 69 68 66 67 70 73 
73 71 69 69 70 72 73 67 60 57 62 68 68 65 65 71 71 60 48 46 54 64 68 66 62 61 
64 64 63 58 53 50 50 54 58 60 60 65 69 68 66 71 77 80 76 71 65 64 66 72 75 60 
66 72 72 67 61 60 67 70 65 60 58 63 68 66 58 50 49 54 53 49 64 70 75 76 70 64 
71 80 78 71 67 69 66 57 67 70 74 76 75 72 68 68 72 78 79 76 76 80 79 71 62 61 
66 69 67 64 62 62 65 70 74 72 67 62 64 70 74 69 61 59 62 64 61 59 61 65 67 62 
53 49 57 67 70 66 63 64 66 65 61 54 49 47 51 58 65 67 65 63 64 66 66 71 79 77 
68 63 65 66 67 74 82 82 77 76 68 66 62 63 69 71 66 56 53 56 59 59 55 53 56 59 
55 49 57 81 83 77 66 64 72 78 76 69 69 72 69 69 69 72 76 78 75 69 67 69 76 80 
80 79 78 78 73 63 57 61 70 70 63 56 54 57 64 72 75 71 63 55 55 63 69 66 60 61 
63 64 63 65 68 69 68 64 59 57 63 69 68 62 61 66 67 65 63 62 60 61 63 65 68 69 
68 62 59 59 61 63 67 69 64 62 64 63 62 68 78 82 81 82 83 78 70 68 72 74 68 60 
56 55 55 55 56 58 63 67 64 58 57 82 80 71 64 65 70 72 70 69 70 72 68 70 68 66 
67 71 71 68 69 73 76 77 77 77 76 74 69 63 58 62 69 68 62 55 53 56 65 72 76 72 
61 51 49 54 59 59 59 61 62 62 66 70 70 66 62 58 57 60 66 67 63 60 63 68 67 64 
64 67 69 72 75 72 68 65 65 63 60 59 61 64 67 67 69 69 69 62 57 62 71 76 80 84 
86 84 82 78 71 70 67 62 60 59 56 57 60 63 67 74 77 72 61 70 68 64 63 66 67 65 
65 69 72 70 65 75 68 60 59 65 70 73 75 78 77 73 74 75 72 68 67 65 61 58 61 65 
66 64 60 59 62 70 75 73 63 51 49 51 51 51 55 59 59 58 60 63 62 57 51 49 51 58 
63 62 57 58 65 69 65 62 63 63 65 71 75 73 67 62 64 66 65 63 62 62 60 59 60 64 
70 75 70 66 72 76 78 79 81 82 84 84 81 79 78 75 62 63 62 64 69 70 72 78 82 77 
64 59 60 63 66 67 65 62 64 69 71 71 72 80 73 64 62 68 74 78 82 82 78 74 74 73 
68 64 66 67 60 53 55 65 72 73 68 63 64 69 76 75 65 53 50 51 47 45 50 55 55 54 
56 58 56 52 49 49 52 58 59 55 52 57 62 63 63 65 65 62 61 64 69 70 67 65 67 72 
71 67 63 61 57 53 52 54 60 68 69 63 61 66 73 79 80 80 83 83 79 78 83 84 77 69 
65 71 75 75 73 76 78 75 62 56 62 68 71 68 63 63 65 66 65 68 69 79 79 72 69 71 
73 75 80 79 75 73 76 74 67 63 64 66 63 59 60 68 75 74 72 71 73 76 78 74 64 56 
54 53 47 44 48 52 53 56 59 60 57 55 55 56 59 64 63 57 54 56 58 58 62 70 73 67 
63 62 63 65 67 68 71 74 71 65 62 63 63 59 53 51 53 60 64 64 62 62 66 71 74 78 
83 82 75 72 75 79 75 71 70 66 63 64 71 71 73 71 63 59 64 71 71 66 63 66 67 59 
52 60 69 75 76 75 69 66 65 68 72 71 68 68 75 76 69 64 66 69 71 70 70 71 72 73 
75 78 82 81 79 71 65 62 64 61 54 51 52 53 54 57 61 60 58 59 59 61 66 72 72 65 
61 59 59 59 66 75 76 69 64 63 62 64 67 68 69 68 63 57 58 66 70 68 61 55 54 59 
66 69 68 66 64 68 72 73 74 73 71 70 72 73 71 70 71 70 64 61 64 67 70 70 63 65 
65 66 65 60 61 69 69 58 47 64 74 69 72 74 70 63 62 66 69 67 61 64 74 77 71 66 
67 72 78 77 70 67 68 72 78 82 83 81 75 68 67 72 75 70 62 58 57 57 56 58 59 58 
59 61 63 63 67 75 77 71 63 60 60 62 69 77 74 65 61 63 66 66 66 65 62 58 53 51 
58 67 71 69 64 60 61 65 68 73 75 72 68 69 73 72 69 65 65 67 70 72 70 69 70 72 
73 72 72 68 62 62 62 73 66 64 60 54 56 67 74 65 59 71 72 65 69 76 75 71 70 73 
74 69 64 69 76 78 74 69 68 72 75 71 62 59 65 74 80 82 79 77 71 65 65 72 76 70 
63 60 63 64 62 60 60 61 63 67 65 63 66 72 73 68 61 56 55 59 69 76 72 62 59 65 
70 69 66 61 56 53 53 56 62 67 68 65 64 63 65 68 68 69 72 72 67 65 67 70 68 65 
64 64 64 64 63 64 71 75 80 79 76 72 68 65 66 75 67 66 62 55 54 68 77 77 61 75 
64 60 67 75 78 76 76 77 75 70 71 77 82 83 78 73 70 70 69 62 56 58 65 75 80 79 
76 72 68 61 58 61 64 62 60 63 67 69 69 66 63 63 66 68 66 61 61 66 68 65 58 53 
52 54 64 72 72 65 63 66 71 70 66 61 56 54 58 64 69 69 66 64 65 65 66 68 66 63 
64 66 62 59 62 66 69 71 67 63 63 64 62 59 61 69 77 80 76 71 68 65 72 68 65 68 
70 61 60 70 79 81 61 69 61 60 67 73 72 75 76 72 66 67 74 81 83 82 77 72 68 66 
65 61 59 60 65 71 76 76 73 69 65 59 52 51 53 56 62 67 69 70 72 70 64 59 61 64 
62 57 58 65 68 64 58 55 54 56 61 67 68 66 65 66 69 69 68 63 58 56 61 68 72 69 
65 63 64 64 66 68 66 59 57 60 62 61 61 64 71 79 77 69 64 66 67 65 66 70 69 66 
64 68 67 65 73 64 66 73 76 71 65 67 74 75 67 68 66 70 75 76 73 74 74 68 61 65 
75 79 77 73 68 65 63 62 63 61 59 58 58 61 67 71 71 69 65 59 53 50 51 56 63 67 
67 67 70 70 62 55 57 61 58 57 62 68 68 63 58 58 60 62 63 62 61 62 64 65 65 66 
65 60 56 57 61 67 69 66 61 59 60 64 68 72 70 62 57 60 67 69 63 61 71 84 86 76 
68 69 72 74 74 77 74 66 60 62 65 66 66 72 75 78 80 77 69 65 66 71 69 70 72 80 
84 81 76 75 72 66 65 71 78 76 68 61 58 57 59 62 61 57 53 51 51 52 57 63 68 70 
69 63 59 57 56 57 60 62 62 64 69 70 65 57 54 53 54 58 65 69 64 58 55 57 62 64 
63 59 57 59 63 65 64 61 56 51 51 56 61 63 64 62 59 58 61 67 72 75 73 67 61 64 
72 74 65 59 70 86 88 79 69 69 74 74 72 72 74 71 65 62 62 60 61 80 82 80 78 76 
70 64 64 67 69 72 74 79 82 78 73 70 68 64 68 77 79 72 63 56 54 54 58 63 61 52 
46 48 53 53 52 55 63 71 70 65 62 62 62 59 58 61 64 66 69 69 65 57 49 45 49 58 
64 61 53 48 48 51 54 58 59 57 56 58 62 63 61 57 51 47 49 56 62 63 63 66 64 63 
68 73 73 69 67 67 67 70 74 73 66 61 68 83 85 76 71 73 74 69 64 63 68 71 71 67 
63 61 63 77 78 76 74 74 71 66 69 66 71 74 73 74 73 70 67 67 65 63 67 74 73 65 
60 58 57 55 58 60 57 49 46 52 60 58 50 49 58 69 70 62 59 61 63 60 60 64 68 68 
66 65 62 58 50 47 50 61 62 50 39 37 39 41 44 49 53 56 56 55 55 56 55 52 49 50 
56 64 65 65 67 72 73 71 72 73 68 60 59 63 70 72 72 69 65 64 69 76 76 73 73 77 
77 71 64 62 66 72 74 70 64 64 66 67 69 71 72 73 70 67 62 71 74 74 73 72 70 67 
68 70 69 66 65 67 65 60 59 62 63 59 56 56 53 49 49 54 62 61 53 48 58 70 70 61 
57 58 58 56 58 64 65 60 56 56 58 61 62 62 65 67 58 41 33 34 36 36 38 43 48 52 
52 49 45 43 44 46 49 54 63 69 66 64 71 77 77 73 72 71 65 59 56 62 69 71 68 67 
68 67 66 66 65 66 71 76 78 75 70 67 68 70 71 66 61 63 66 63 67 73 76 74 68 67 
68 74 73 71 73 74 74 74 75 76 72 67 65 64 60 56 58 65 69 65 59 55 55 54 53 55 
61 62 58 57 62 69 70 66 62 59 56 54 56 57 56 49 44 44 52 61 66 70 74 70 55 40 
36 44 48 46 44 46 47 50 51 45 35 30 31 39 46 55 63 66 66 65 70 74 72 69 70 72 
69 65 63 66 71 73 71 70 71 70 63 61 60 61 66 74 76 73 69 67 67 67 67 64 60 62 
64 68 72 77 78 73 68 64 70 72 69 69 72 77 80 81 79 74 67 64 64 62 55 52 58 68 
73 71 65 60 60 61 59 58 60 67 69 67 65 63 61 64 66 64 59 57 58 57 52 44 37 36 
42 50 54 59 65 63 52 44 50 62 68 66 60 55 52 52 54 50 38 28 27 36 46 54 60 63 
66 68 69 67 63 63 69 75 77 73 68 71 78 78 73 71 71 67 63 64 65 64 67 74 76 72 
66 63 64 68 69 66 65 67 66 68 71 72 71 70 70 59 65 70 71 69 72 77 83 84 78 68 
61 59 59 56 51 51 59 69 76 74 68 63 63 65 64 62 64 71 76 76 69 59 53 57 64 67 
63 63 66 64 58 49 41 36 35 38 41 44 51 57 56 54 62 76 85 82 75 65 58 58 61 60 
50 39 35 40 50 56 59 62 68 72 69 60 54 56 65 75 77 73 69 74 81 79 72 67 66 64 
64 68 70 67 68 73 78 75 68 64 66 72 74 71 69 72 69 68 65 62 62 67 74 57 61 68 
71 70 69 72 80 82 75 65 59 58 56 54 52 53 59 68 75 74 68 62 60 62 62 61 63 70 
76 79 74 64 55 55 62 65 61 61 67 68 62 56 49 40 35 35 37 41 51 61 67 70 77 85 
91 91 83 72 66 66 69 67 58 49 46 49 54 56 56 59 66 72 68 59 51 51 57 65 69 67 
67 72 79 78 70 65 65 66 66 68 67 63 62 68 74 73 69 68 72 76 74 68 67 71 70 73 
66 59 61 69 64 57 57 64 70 70 65 66 74 79 74 65 62 62 62 62 58 55 57 65 72 73 
68 62 60 58 56 57 59 64 70 77 77 70 63 61 62 59 54 54 59 60 56 54 52 46 39 39 
44 50 58 67 77 85 91 97 100 100 93 84 79 79 80 71 58 51 51 54 57 56 52 53 61 
67 66 59 54 51 51 57 62 62 61 66 71 70 69 70 71 71 70 67 63 58 58 62 66 68 67 
67 73 75 69 61 60 64 72 79 75 68 67 71 70 64 60 64 71 71 65 63 70 77 74 67 64 
68 72 72 67 60 58 64 72 74 70 66 62 57 55 56 58 58 63 70 71 67 63 61 63 60 52 
48 51 50 47 47 49 48 44 46 51 56 60 68 80 93 104 111 116 116 111 103 101 101 
93 75 57 49 49 53 58 57 51 48 54 60 58 56 56 56 55 59 63 61 57 55 58 61 66 70 
72 72 72 68 62 59 60 62 65 66 65 65 68 70 67 62 61 62 69 79 81 77 73 68 74 69 
65 67 74 77 69 62 66 74 74 68 67 69 74 78 75 68 65 70 76 76 73 68 64 61 63 65 
61 56 57 62 60 55 53 57 64 65 59 55 56 55 47 42 47 50 49 51 56 59 61 67 81 97 
111 120 127 132 131 123 120 118 103 78 60 50 46 49 53 54 49 44 44 46 48 51 57 
60 61 64 66 61 53 47 49 55 60 61 61 63 66 66 64 63 65 68 70 69 65 63 63 67 68 
68 69 69 64 72 76 76 73 77 67 68 65 68 76 80 74 63 59 63 72 74 72 70 72 78 80 
74 70 72 76 76 71 64 62 66 72 74 66 54 50 53 50 43 43 52 60 63 61 61 65 64 54 
44 43 48 52 54 58 63 68 77 90 103 113 121 128 136 137 134 128 118 99 78 62 53 
46 42 44 46 45 39 35 35 39 46 54 59 59 61 63 60 51 45 47 54 57 52 48 50 57 63 
66 65 67 70 73 71 66 60 60 63 67 69 72 73 60 70 70 70 75 71 58 62 64 68 77 82 
77 62 53 56 66 75 77 72 71 76 78 72 65 64 67 70 65 56 55 63 72 73 65 53 45 43 
39 37 42 51 55 54 53 57 65 68 59 47 41 45 50 55 61 69 79 91 103 112 118 121 
124 130 133 131 124 110 90 70 57 48 43 38 37 40 44 41 34 34 38 45 51 52 52 55 
60 60 54 48 50 57 58 49 41 43 54 63 65 62 61 65 70 70 66 61 59 61 64 65 67 69 
63 76 67 65 73 59 55 62 66 73 78 79 73 62 52 52 65 76 77 72 72 73 71 65 60 58 
62 64 57 46 45 54 62 64 60 51 44 39 35 37 46 54 56 53 51 54 60 65 63 53 44 45 
53 60 66 76 90 103 114 123 129 131 129 127 126 125 117 103 83 61 46 39 39 38 
38 42 47 47 43 42 44 46 46 46 49 57 65 65 59 55 58 63 63 56 46 44 54 62 63 56 
53 58 66 70 67 63 62 64 66 65 65 66 65 76 64 59 77 56 64 70 74 78 78 72 65 59 
56 60 69 76 75 71 70 71 68 63 63 64 66 62 51 40 41 49 55 56 56 54 50 44 40 42 
52 60 60 59 62 63 65 66 67 62 57 57 65 71 77 87 102 116 126 135 141 142 138 
131 125 118 110 97 78 58 40 34 40 46 43 45 50 53 52 52 52 50 47 48 57 70 78 75 
67 63 66 70 68 60 52 51 56 61 62 58 56 60 67 72 70 65 65 68 70 71 72 72 61 74 
62 59 68 63 74 79 79 78 74 63 57 60 66 71 77 79 76 72 71 69 66 65 67 69 69 63 
52 45 48 55 56 56 57 60 59 55 50 50 57 62 62 64 73 77 73 68 68 69 70 72 79 87 
96 107 122 136 144 148 148 148 144 134 121 111 100 88 74 57 41 38 46 51 47 44 
48 53 55 58 60 58 55 57 68 81 87 81 73 70 72 72 67 59 55 55 58 64 66 66 67 70 
74 74 71 66 64 67 69 72 75 76 59 69 65 66 60 67 76 79 76 73 69 62 59 65 72 74 
76 78 78 76 74 70 66 63 64 65 66 66 60 56 59 64 60 57 60 66 68 65 62 62 63 63 
62 66 76 82 76 67 65 70 76 82 92 105 119 136 153 165 168 163 155 148 143 132 
118 105 93 81 69 57 44 39 44 48 45 40 41 49 55 60 63 62 61 64 72 82 84 77 71 
72 74 71 62 57 58 61 64 68 71 72 73 73 74 73 68 63 62 62 62 65 70 73 65 69 68 
67 59 65 72 72 69 71 71 68 68 72 74 70 68 72 76 76 73 70 69 64 57 57 62 64 63 
65 67 63 57 54 59 67 72 72 72 72 73 72 70 72 77 80 75 64 62 68 78 90 106 126 
146 167 186 199 200 188 173 159 146 133 118 106 93 80 67 55 42 34 36 40 36 33 
36 44 53 58 58 59 60 64 70 75 75 67 63 66 70 68 62 60 64 69 70 70 70 69 67 66 
68 68 64 60 57 54 53 59 67 70 71 69 70 66 60 69 73 73 70 72 77 78 77 77 75 73 
72 70 69 68 69 71 72 67 57 53 57 60 60 63 63 55 50 51 58 66 70 72 76 79 82 85 
86 84 81 80 75 66 63 68 78 96 121 147 169 191 216 233 235 222 205 185 164 145 
128 114 99 83 67 53 41 32 29 33 35 35 37 42 50 55 56 57 58 61 69 74 71 62 55 
57 63 66 63 63 68 73 73 71 70 68 64 62 65 67 64 58 52 50 52 60 70 72 70 67 76 
64 65 74 81 79 73 73 78 82 81 79 79 82 83 76 66 62 66 72 74 65 53 50 53 56 56 
55 53 49 49 55 60 64 67 71 78 83 89 95 97 93 86 83 81 75 71 71 79 100 134 163 
184 207 236 255 255 252 235 215 190 166 145 127 110 92 74 60 48 38 32 31 35 40 
43 43 46 53 59 61 59 60 68 77 75 62 53 55 59 63 63 64 66 69 72 73 74 74 70 67 
68 71 66 58 51 51 57 67 75 78 64 67 72 66 66 75 83 81 74 70 73 78 79 76 77 82 
84 77 67 62 65 73 73 59 46 45 50 52 52 50 47 46 53 60 65 67 69 73 80 88 92 96 
96 93 89 87 84 83 81 79 83 105 140 175 199 222 249 255 255 255 255 238 215 190 
167 148 130 111 91 75 62 52 40 31 32 39 44 43 44 51 60 65 61 59 65 75 74 64 57 
59 63 67 68 65 63 65 68 72 75 78 76 70 68 70 65 55 52 58 68 76 80 81 60 70 73 
68 67 73 79 80 75 69 68 72 73 70 69 71 72 69 64 62 66 70 68 56 46 45 49 52 52 
47 45 48 54 59 65 74 79 82 87 93 93 91 91 91 89 85 82 82 84 86 89 109 145 184 
214 239 255 255 255 255 255 253 234 209 188 173 157 136 112 90 75 62 49 35 28 
32 39 42 47 54 60 60 57 58 63 68 66 60 58 61 67 72 74 70 64 62 63 66 71 75 73 
67 64 63 58 51 53 64 75 81 80 78 63 73 71 70 70 69 70 76 80 75 69 67 68 66 63 
62 61 61 61 62 61 61 60 57 53 51 53 56 53 49 49 53 57 59 65 79 89 92 96 99 95 
88 87 91 90 83 75 74 80 86 91 108 141 182 220 249 255 255 255 255 255 254 242 
222 205 194 181 158 128 100 81 67 55 41 30 26 32 41 51 55 55 51 53 57 62 62 57 
52 51 56 63 70 74 72 66 60 57 60 66 71 72 67 60 56 51 51 60 71 77 77 73 69 66 
69 71 70 66 58 57 68 79 76 67 63 61 60 60 60 59 61 64 64 57 51 51 57 59 59 60 
60 56 52 55 62 67 67 70 83 96 101 103 102 94 87 89 95 91 78 67 67 73 80 86 100 
129 168 208 239 251 252 252 250 248 249 245 233 219 211 200 178 146 116 90 72 
59 45 30 23 26 36 47 52 48 46 52 61 62 56 50 47 47 49 54 60 67 70 67 61 58 61 
65 71 73 70 63 57 54 59 69 74 73 70 71 69 61 71 71 69 62 50 46 57 71 70 60 53 
51 51 56 60 60 62 65 65 57 50 52 60 64 64 63 62 58 55 60 74 80 76 76 86 97 103 
103 100 93 88 89 92 88 71 59 62 68 72 78 94 120 155 191 214 221 222 227 232 
236 245 253 249 237 229 220 201 174 143 112 83 58 38 25 20 22 28 36 42 43 47 
57 63 59 50 46 47 48 49 49 54 62 69 70 68 67 70 71 71 73 73 69 61 59 66 74 75 
72 73 76 79 70 75 70 70 63 51 48 57 65 64 56 48 45 46 52 58 58 57 58 61 59 58 
61 68 70 66 61 57 54 56 65 77 83 78 74 79 90 98 99 96 90 85 86 85 75 60 52 58 
65 66 73 92 118 147 173 188 191 196 206 218 231 247 255 255 255 249 247 236 
211 176 135 93 55 27 15 18 22 25 29 36 45 53 63 65 54 42 43 51 54 54 56 60 64 
69 72 73 75 79 78 75 74 75 73 65 61 66 71 73 75 78 80 81 71 71 68 69 66 60 57 
60 66 65 59 53 49 48 53 57 54 50 53 61 65 65 68 72 74 67 57 50 49 53 63 73 76 
70 64 68 78 89 94 94 88 83 81 76 63 48 45 54 62 64 71 91 114 136 155 168 170 
175 189 207 224 248 255 255 255 255 255 255 244 202 151 99 52 21 12 18 25 28 
31 38 48 58 65 62 50 41 44 53 58 60 66 70 68 68 69 71 75 80 81 76 73 74 74 68 
62 63 66 69 75 79 76 73 71 67 66 67 66 63 61 63 66 66 64 60 55 52 55 56 54 53 
58 66 68 66 64 68 71 69 58 49 47 52 61 69 70 64 61 63 71 81 88 88 86 82 78 68 
54 40 39 51 63 66 73 86 103 121 141 154 158 163 176 195 215 240 255 255 255 
255 255 255 255 215 161 106 56 24 14 19 28 33 37 41 47 56 61 58 50 48 52 57 60 
67 75 76 70 66 68 70 71 74 76 71 67 68 70 69 66 64 64 65 71 77 75 69 72 68 68 
65 61 60 62 64 63 63 63 62 59 56 56 58 60 62 66 68 65 57 54 59 67 67 60 53 52 
57 66 73 74 71 67 68 71 75 79 79 80 81 78 65 48 34 32 44 57 65 70 79 91 109 
131 148 153 157 169 187 206 233 255 255 255 255 255 255 255 218 166 112 62 30 
18 21 30 39 43 42 44 49 55 59 59 61 64 63 63 72 80 78 69 66 70 72 69 68 69 66 
62 62 68 69 68 68 66 66 71 77 79 77 73 73 70 63 56 57 61 63 61 61 62 63 63 62 
62 64 66 68 67 62 56 49 46 52 59 61 57 55 58 63 71 79 81 77 73 72 73 74 72 71 
75 82 80 64 46 33 29 33 43 51 60 71 85 103 127 144 148 148 161 181 202 228 255 
255 255 255 255 255 252 213 166 114 66 32 17 20 32 44 47 45 43 49 59 68 72 75 
69 62 60 69 77 74 65 66 73 75 69 65 67 68 67 66 68 68 68 70 71 70 71 77 84 84 
76 78 75 66 57 57 62 62 59 60 62 65 67 68 70 71 72 69 61 52 47 45 44 47 52 54 
54 54 57 63 71 77 76 70 66 67 71 74 71 69 73 82 81 65 46 35 28 27 28 33 44 63 
80 101 123 135 132 130 143 168 195 219 248 255 255 255 255 255 248 205 158 109 
64 30 13 14 27 42 48 46 49 58 68 76 79 76 65 55 51 58 64 63 60 62 69 71 66 64 
69 73 74 72 71 69 67 69 72 72 69 68 75 82 75 81 83 79 70 68 66 63 61 62 63 65 
67 70 70 71 69 64 55 48 46 47 46 48 53 55 55 55 56 60 64 66 64 57 52 55 65 70 
70 70 76 81 76 62 47 36 29 26 24 25 36 56 76 97 116 121 111 107 122 150 180 
206 234 255 255 255 255 255 241 195 144 96 54 23 7 6 19 36 45 48 54 62 68 70 
69 65 56 49 49 52 55 56 57 60 62 63 63 64 68 72 73 71 71 72 69 67 70 71 65 62 
68 75 71 78 87 90 85 79 73 69 67 65 63 63 66 69 68 65 61 56 51 49 50 50 47 49 
56 59 58 57 57 58 58 59 56 49 44 48 56 63 68 74 77 78 71 58 43 31 25 24 25 29 
40 57 76 93 109 114 103 95 109 135 162 192 224 255 255 255 255 255 225 177 123 
75 36 11 0 2 17 35 46 51 57 61 59 54 51 50 50 52 55 58 60 61 62 61 57 57 60 64 
68 69 67 65 69 76 73 64 65 72 71 64 70 76 67 72 82 86 84 79 75 74 70 66 63 65 
69 73 71 62 56 53 53 54 54 50 47 50 57 59 57 55 54 54 57 59 58 53 50 51 55 60 
66 75 79 75 67 56 43 28 21 22 25 32 47 64 79 94 107 110 104 98 101 116 141 175 
213 244 255 255 255 239 202 154 101 52 18 2 0 6 23 41 52 55 58 61 57 49 44 44 
47 52 57 62 67 71 68 61 55 56 62 67 69 68 62 60 68 74 70 62 66 75 76 72 74 78 
67 68 73 75 74 71 71 71 67 63 64 69 77 79 74 62 56 57 59 58 52 46 45 53 59 58 
53 49 46 47 52 55 57 56 54 53 56 61 69 78 82 77 68 58 47 36 27 22 21 30 47 67 
81 93 104 109 106 98 92 95 116 154 196 226 243 249 240 217 180 133 81 35 9 4 12 
21 29 41 51 57 60 63 65 61 53 49 49 51 52 59 68 72 67 61 57 59 64 68 69 66 62 
60 64 68 64 60 66 77 78 74 76 77 71 70 70 69 68 66 65 64 60 59 64 71 77 76 68 
61 58 59 58 53 45 42 45 54 58 55 50 45 42 44 48 49 48 48 47 49 55 65 77 86 90 
85 75 65 56 47 37 25 19 26 46 66 81 91 99 101 100 90 76 74 96 134 173 200 217 
222 216 196 162 116 69 30 10 15 29 34 30 36 49 57 59 63 70 69 62 54 52 51 51 
58 67 69 64 61 61 63 64 67 68 65 63 63 67 67 63 59 67 77 78 74 75 75 73 70 69 
69 67 63 60 57 55 55 60 66 69 64 59 55 54 56 53 46 39 40 45 50 52 49 48 46 44 
46 49 46 41 39 39 43 54 71 86 95 97 93 83 71 62 55 45 30 22 29 50 71 87 96 97 
95 89 78 66 64 82 114 149 174 191 196 191 174 143 103 63 32 17 20 34 40 33 33 
48 60 57 53 60 64 59 54 53 53 56 63 67 66 64 63 65 65 64 66 69 67 64 66 69 69 
63 60 67 75 76 73 73 72 71 65 64 66 64 61 59 58 54 52 56 62 61 58 55 53 52 52 
52 48 46 48 49 47 45 46 48 48 48 50 51 47 41 39 41 44 56 73 89 95 96 91 79 69 
65 60 51 40 35 42 63 88 107 115 110 96 83 71 63 63 77 102 132 160 179 182 172 
154 127 95 65 38 18 15 28 37 36 39 54 64 57 46 47 53 53 51 53 55 58 62 66 63 
60 62 66 64 61 63 67 68 64 61 62 63 61 60 66 73 74 72 70 69 65 59 58 62 64 64 
65 65 61 57 60 64 62 58 56 54 52 53 56 58 59 61 58 52 49 52 54 52 49 48 47 44 
43 42 43 48 58 71 83 90 89 79 69 65 66 64 57 51 53 65 88 116 139 146 135 114 
94 81 74 74 84 106 135 164 182 181 167 145 119 92 67 43 21 7 15 32 39 44 59 67 
59 47 44 48 50 53 57 57 56 60 63 58 54 56 62 61 55 55 62 68 65 58 55 58 60 61 
65 72 74 72 70 68 59 55 58 63 66 68 70 71 69 66 67 67 63 57 54 52 51 57 62 62 
62 66 66 63 61 61 58 52 45 41 41 41 41 40 41 49 59 70 82 90 90 82 73 69 70 70 
64 63 72 93 123 156 179 184 169 142 118 107 104 105 112 131 159 184 196 189 
170 145 117 91 66 43 20 7 13 28 37 42 54 66 62 50 46 47 49 55 60 61 61 65 67 
62 55 54 57 57 53 54 63 72 73 65 61 64 68 66 66 67 71 73 72 70 57 58 61 65 68 
66 64 66 70 71 71 67 60 54 51 49 49 56 61 60 59 66 69 69 69 65 57 47 39 36 38 
42 42 37 38 48 59 70 81 89 94 94 89 83 79 75 72 77 96 127 163 197 220 226 210 
180 155 144 142 144 153 170 193 210 214 202 179 150 119 88 60 36 18 9 15 28 36 
40 49 58 57 50 45 45 48 55 62 65 68 74 75 69 63 58 56 55 58 64 72 77 77 73 72 
76 77 70 64 63 64 68 72 73 59 62 61 63 67 63 57 58 66 71 70 66 61 58 56 51 48 
52 60 65 67 70 71 69 66 60 51 42 36 36 41 47 46 43 45 55 63 68 72 78 86 95 97 
91 82 79 83 97 122 157 196 230 253 255 252 226 197 180 177 181 190 205 223 236 
234 218 190 156 119 82 51 26 11 7 14 30 40 41 45 51 48 42 39 42 48 56 62 67 72 
76 75 70 68 64 54 50 59 71 76 74 69 67 69 74 75 71 64 62 63 66 71 74 65 62 54 
57 64 65 60 60 66 70 71 69 68 68 67 59 50 52 63 73 78 76 71 67 62 56 49 44 39 
39 44 50 52 54 64 75 77 73 70 69 75 85 90 87 80 81 95 115 144 182 219 248 255 
255 255 255 234 214 207 210 218 228 242 254 254 235 201 161 118 78 43 19 7 6 18 
35 47 48 45 44 40 35 37 43 51 59 63 68 73 74 70 68 69 65 52 47 57 70 73 66 61 
57 58 62 66 66 66 69 71 71 70 72 68 61 50 53 65 70 67 69 72 72 69 68 68 70 71 
64 54 54 65 76 78 73 69 68 66 61 56 50 45 44 48 54 61 69 84 97 101 95 85 77 74 
79 83 83 82 88 103 127 159 198 235 255 255 255 255 255 255 238 233 235 237 241 
252 255 255 248 212 166 119 75 41 21 13 15 26 43 51 50 43 39 38 40 44 51 56 60 
63 67 72 74 72 72 73 66 53 47 55 66 69 66 64 59 57 57 60 61 64 72 75 72 66 66 
68 65 58 59 65 70 72 75 76 72 66 62 61 65 68 64 58 58 65 70 68 65 68 74 78 74 
68 60 53 51 59 69 78 87 102 119 129 126 113 95 83 79 83 91 98 102 112 133 169 
211 244 255 255 255 255 255 255 251 245 243 241 242 252 255 255 254 215 167 
118 75 43 25 21 25 33 43 48 45 39 38 41 48 55 59 58 58 60 65 70 76 81 83 79 68 
57 54 59 64 66 67 68 66 63 62 62 62 61 64 66 65 61 61 73 74 69 68 69 69 71 74 
75 72 67 63 60 61 67 68 63 63 67 65 60 60 69 81 87 84 76 68 62 64 76 93 106 
115 127 144 157 156 141 118 98 87 91 103 114 120 125 141 174 215 243 255 255 
255 255 255 250 241 233 227 226 229 240 255 255 244 207 159 110 69 40 28 26 28 
32 38 43 44 42 42 47 54 60 60 54 51 57 65 72 78 83 84 77 68 60 61 65 66 64 64 
64 65 63 66 69 67 63 59 57 56 58 61 70 73 73 72 70 67 65 68 70 70 70 66 64 68 
74 72 66 65 68 68 65 67 75 85 87 82 77 73 72 77 93 115 134 145 156 171 180 179 
165 142 120 103 99 108 121 128 135 151 181 216 240 248 245 237 231 226 220 209 
199 195 201 209 219 227 229 217 186 142 96 57 32 25 24 25 28 36 45 50 50 50 50 
54 59 58 49 47 57 70 76 76 75 71 64 61 61 64 67 69 68 67 64 60 59 64 68 70 69 
64 56 54 61 63 63 66 67 71 72 67 62 63 67 70 69 65 66 76 81 73 63 64 72 75 76 
80 84 85 82 77 75 75 75 81 100 124 147 165 180 190 193 188 175 159 138 115 101 
104 114 126 138 162 194 225 245 244 230 211 197 187 178 165 154 157 171 184 
190 190 188 176 152 117 75 43 27 24 24 23 28 40 54 61 60 54 50 54 59 58 50 49 
58 71 77 73 64 56 54 56 60 62 66 71 75 77 73 64 60 61 65 69 75 74 64 58 65 66 
63 60 62 69 73 69 66 68 72 71 67 64 66 74 75 66 60 65 74 78 82 86 87 83 79 78 
76 74 72 77 93 120 147 171 188 199 198 189 176 160 139 116 98 94 105 123 145 
176 211 240 254 245 216 187 165 149 132 116 109 116 133 148 154 152 144 131 
113 86 55 34 28 28 28 29 36 50 63 69 67 60 52 53 58 58 50 48 56 65 70 68 60 54 
53 56 56 57 64 73 81 84 79 68 63 66 70 74 81 80 72 66 71 71 70 64 63 69 74 72 
70 75 76 71 66 64 65 68 66 60 59 65 71 73 77 82 80 74 76 78 77 72 67 70 87 116 
147 173 194 207 208 198 180 157 135 112 95 93 107 131 161 196 228 250 255 243 
210 174 144 120 96 77 68 72 87 102 112 112 104 90 74 57 39 29 31 33 33 38 50 
63 71 75 76 71 61 57 53 49 46 46 48 53 60 62 60 58 57 55 53 57 67 77 82 82 75 
67 66 73 78 80 82 81 73 71 77 76 73 68 69 75 76 71 71 76 76 66 60 62 67 68 64 
60 61 63 61 62 68 74 74 72 73 76 74 68 64 69 85 113 147 178 201 214 218 210 
189 161 135 113 97 97 113 142 176 213 242 255 255 241 212 173 135 99 69 49 38 
37 44 56 67 70 63 53 44 35 28 27 31 34 36 44 59 71 75 80 84 82 71 60 50 44 44 
47 46 46 50 55 57 58 57 53 52 62 73 78 78 75 70 68 71 77 79 79 77 70 64 69 73 
72 69 71 75 80 78 72 71 75 74 66 59 62 70 73 69 63 62 57 50 49 61 74 79 79 80 
79 71 61 59 66 81 105 139 173 194 207 211 205 187 161 135 112 97 95 109 138 
175 215 245 255 255 245 218 179 134 88 53 31 19 14 16 23 31 34 29 24 23 25 27 
30 34 33 34 44 56 64 69 75 81 79 68 55 46 44 50 54 49 45 45 48 51 56 58 55 56 
64 71 74 73 71 71 74 77 77 75 73 70 62 57 67 65 64 65 68 72 77 77 72 71 75 75 
69 64 65 70 71 67 64 61 55 46 48 63 80 88 91 94 89 71 55 51 58 70 87 116 149 
172 182 184 179 166 145 122 102 88 86 98 126 164 205 238 255 255 246 223 188 
138 87 49 29 14 4 4 11 15 14 11 11 16 22 29 35 36 34 36 40 46 50 55 61 64 60 
52 45 42 44 53 59 55 48 46 46 48 55 61 61 58 60 63 65 66 70 72 75 76 72 68 69 
72 68 65 77 64 59 63 64 64 66 68 72 73 73 72 71 67 64 62 59 56 58 62 61 56 58 
70 84 91 94 97 92 74 53 46 52 60 71 94 123 144 152 153 148 135 117 98 83 73 73 
89 119 156 196 231 252 254 243 224 195 150 102 66 44 26 10 5 10 13 9 11 17 21 
24 30 36 38 38 41 44 44 44 46 51 51 46 43 42 40 43 52 60 57 52 51 50 49 55 63 
64 60 57 55 57 62 67 69 70 68 63 61 68 76 79 77 75 66 60 68 67 61 57 61 70 74 
71 67 66 64 60 53 48 48 55 65 70 68 68 76 84 87 88 90 86 70 52 45 52 60 65 77 
100 119 124 124 120 107 89 70 57 52 59 80 112 152 193 231 254 255 245 229 205 
164 122 91 70 47 24 15 16 16 13 19 30 31 25 29 39 42 44 49 54 54 52 53 55 53 
50 51 52 47 45 51 59 57 53 55 55 52 54 62 68 66 61 58 57 62 67 67 64 62 59 59 
66 73 78 72 75 63 60 73 74 69 60 61 69 74 69 63 63 63 59 54 50 51 56 65 70 73 
74 76 78 79 81 83 78 62 48 48 56 59 58 63 79 92 98 97 96 87 68 48 34 34 45 68 
102 144 189 228 254 255 250 233 209 173 133 104 85 64 42 30 28 27 25 29 36 35 
29 32 44 49 49 53 61 62 61 62 62 59 57 60 63 59 51 53 61 62 58 59 60 55 55 64 
72 73 69 63 61 63 67 66 62 60 62 64 65 69 73 81 72 60 58 72 78 75 67 65 71 72 
66 63 65 67 65 61 58 58 59 62 68 73 74 70 68 70 76 78 72 58 48 49 54 52 45 47 
58 69 75 77 77 71 56 36 23 25 39 61 93 135 180 221 248 254 244 228 203 167 128 
96 79 66 51 43 45 47 43 39 39 35 34 40 49 53 52 53 58 62 62 61 60 58 56 59 64 
62 57 59 65 65 61 62 63 60 58 64 73 75 71 66 62 64 67 63 58 57 61 66 67 69 74 
81 74 63 61 66 72 73 70 71 73 70 64 63 68 71 70 65 62 59 58 59 64 71 72 66 64 
66 71 71 65 55 46 44 46 42 33 31 40 53 60 63 64 59 46 29 17 19 35 62 94 132 
175 213 235 238 228 211 186 151 114 83 63 55 50 49 53 57 57 52 45 40 40 47 55 
57 55 54 56 59 59 55 53 53 53 54 61 66 64 62 64 63 61 62 63 60 58 64 71 72 69 
65 64 65 64 57 51 52 59 63 66 72 77 76 73 73 68 62 66 70 71 73 74 69 63 64 70 
72 68 65 63 62 61 61 61 63 64 65 69 71 69 62 56 51 45 42 40 35 29 28 35 46 55 
58 56 50 38 23 9 12 33 62 95 132 173 210 230 229 215 195 169 138 104 72 51 45 
46 46 47 53 58 59 54 49 48 52 56 60 62 60 60 61 57 51 49 51 55 58 65 70 69 63 
61 60 59 60 60 57 55 61 68 70 68 66 67 67 63 56 52 56 63 63 64 72 73 69 72 77 
77 67 66 71 74 73 70 66 65 67 69 67 62 62 67 70 70 67 60 55 56 65 75 80 71 58 
52 52 51 47 43 38 32 32 40 49 55 56 53 46 35 21 10 11 31 63 98 134 176 214 231 
226 211 189 160 127 93 62 41 36 40 42 40 43 53 59 57 53 51 52 56 61 63 61 60 
60 57 50 49 56 63 66 70 72 70 64 61 61 62 62 61 58 56 61 68 71 69 68 69 67 62 
58 62 67 68 66 65 70 69 67 69 76 77 71 67 70 73 70 66 64 65 66 66 62 58 60 68 
75 76 71 61 53 53 64 76 80 72 61 56 57 58 55 51 45 39 39 45 51 53 53 51 45 35 
24 17 19 37 68 103 142 184 222 238 231 215 189 153 113 76 46 28 26 33 38 39 43 
50 56 57 54 53 54 56 58 58 54 52 52 54 53 57 66 73 73 68 66 65 63 60 60 62 64 
64 63 62 66 71 72 71 69 69 67 65 65 68 70 66 62 61 70 68 69 70 73 74 69 63 63 
67 68 67 66 64 63 64 62 58 58 65 71 73 70 63 59 58 61 67 73 71 64 58 58 57 57 
56 52 47 44 45 48 48 48 47 42 34 26 22 27 43 72 110 155 200 234 247 240 219 
186 142 96 57 30 19 20 27 34 41 47 53 57 57 56 58 60 59 57 51 46 43 46 50 56 
65 77 82 76 65 59 61 61 57 56 60 65 67 66 68 71 74 73 70 68 69 72 74 74 71 66 
61 57 59 68 71 72 70 70 70 63 60 59 62 68 73 73 68 63 64 64 62 60 64 68 68 63 
62 65 65 62 60 65 69 66 59 53 51 54 59 60 56 51 49 51 52 51 48 43 35 27 25 31 
48 78 119 166 211 242 251 241 215 177 131 86 51 29 19 21 28 33 42 50 54 54 54 
55 58 62 61 55 49 45 43 41 45 53 66 81 85 75 63 59 62 61 57 57 62 67 67 66 69 
73 74 72 69 66 67 73 78 79 75 68 62 60 63 76 75 71 67 68 68 61 64 62 61 66 77 
83 76 68 66 69 69 69 71 73 69 60 59 67 69 61 56 61 67 64 57 51 50 56 64 67 63 
59 60 63 66 64 59 50 38 28 27 35 55 88 129 174 213 239 244 230 201 161 121 86 
56 35 26 29 35 40 46 50 49 46 44 45 48 53 53 51 50 49 44 40 42 48 60 72 78 73 
65 63 66 67 65 65 71 70 66 66 70 73 71 70 69 66 65 68 73 77 76 71 68 67 68 81 
74 64 63 68 69 63 71 69 62 63 77 89 83 72 68 71 74 74 76 77 72 64 61 63 64 59 
56 58 62 61 54 50 54 63 70 69 66 67 71 75 75 73 66 55 40 28 26 38 59 92 132 
172 206 227 230 214 184 148 112 82 57 35 27 32 41 48 55 56 49 42 38 38 39 41 
43 45 49 52 49 45 48 52 56 62 65 66 66 69 73 77 78 77 74 68 65 68 74 74 70 70 
73 72 67 64 67 72 76 74 70 67 81 80 69 57 61 69 70 70 76 71 62 62 76 88 84 73 
69 72 74 71 68 70 72 70 66 62 61 59 58 58 60 60 57 55 59 67 72 70 66 69 75 75 
71 67 61 52 40 28 26 35 53 81 114 150 184 208 212 196 167 133 99 69 44 26 20 
29 43 54 62 64 57 49 46 44 38 33 34 41 50 55 55 55 60 63 60 58 56 58 63 69 76 
82 84 80 72 64 66 74 79 75 69 70 76 76 71 66 65 70 77 77 69 65 79 76 65 58 59 
66 67 73 74 70 62 63 76 83 80 74 73 75 73 66 61 62 69 74 72 66 62 63 63 61 63 
67 66 63 62 66 69 67 64 67 71 68 60 54 53 51 43 34 29 32 43 61 87 118 152 179 
185 172 145 113 81 53 31 17 17 30 46 58 64 67 62 56 55 51 39 30 30 39 50 53 53 
60 69 73 68 60 55 54 57 63 69 73 75 70 65 64 71 78 79 73 68 68 70 70 67 65 65 
70 78 80 71 79 78 73 67 61 60 58 58 71 69 66 66 67 70 72 71 71 75 78 76 69 64 
65 69 73 72 67 63 65 67 66 68 74 72 65 62 65 65 62 60 63 66 64 57 50 51 54 51 
43 35 33 39 49 68 93 121 143 152 142 119 93 67 46 32 23 24 37 53 61 62 59 55 
55 57 52 41 31 31 37 42 43 45 56 69 74 70 66 63 59 56 55 59 62 64 63 63 67 71 
74 74 69 69 70 67 61 59 61 65 68 74 77 76 78 75 70 68 66 61 54 54 70 67 68 69 
67 64 62 62 65 72 77 77 73 69 68 69 70 68 62 61 65 69 69 70 73 72 66 64 69 70 
65 61 61 65 66 61 54 53 55 53 46 37 34 37 46 60 78 95 110 116 110 96 78 62 49 
39 32 32 42 59 65 60 52 50 55 60 58 48 40 39 40 39 38 42 52 63 67 66 67 69 65 
59 54 56 60 63 64 66 67 67 67 69 69 71 72 67 57 54 62 69 68 68 70 76 75 72 66 
66 67 64 59 61 74 70 71 72 66 62 61 61 62 69 75 75 70 66 65 66 67 66 61 61 67 
70 67 66 68 69 70 73 77 77 71 64 61 64 69 68 58 49 49 49 42 34 30 32 40 51 65 
76 83 84 83 78 71 61 50 43 36 35 43 57 65 61 54 54 60 67 67 61 55 51 47 47 47 
49 54 59 59 58 61 68 69 64 60 60 64 70 71 67 64 63 64 68 71 72 70 64 57 58 68 
74 70 63 63 73 74 71 64 63 66 68 72 73 76 71 70 69 65 63 67 67 66 71 77 76 69 
64 63 66 69 71 67 67 70 70 64 59 60 67 73 77 75 71 65 60 58 61 67 67 59 50 47 
48 43 33 26 26 31 41 54 64 66 64 64 66 64 56 46 39 35 34 40 55 64 62 58 59 62 
66 66 64 61 57 56 58 61 60 58 58 57 55 57 62 69 71 67 64 67 71 70 65 63 63 66 
70 72 70 65 61 62 68 75 77 70 62 60 73 76 74 68 64 65 71 77 78 75 68 66 65 64 
67 70 69 65 68 75 77 72 67 66 71 75 73 69 71 73 71 62 55 55 61 67 68 63 55 53 
54 55 57 61 65 63 59 58 57 50 38 29 27 29 38 49 56 56 54 56 58 57 48 39 35 36 
39 46 58 66 66 62 60 59 57 57 59 58 56 57 62 66 63 59 59 62 60 58 62 73 78 73 
67 66 65 63 62 65 66 66 65 68 70 67 64 67 76 80 74 64 60 64 72 75 77 73 67 66 
70 76 73 73 68 68 67 67 68 67 63 60 63 68 72 71 68 69 75 76 69 63 66 70 68 62 
56 55 57 60 59 53 48 49 53 54 53 56 63 70 72 71 64 54 45 41 40 41 44 47 49 49 
49 51 52 49 41 35 37 40 46 57 69 74 71 67 63 60 58 58 60 60 57 54 57 63 63 61 
60 64 64 62 64 71 76 72 66 63 59 55 60 68 68 60 54 60 71 75 73 74 80 79 68 58 
59 68 65 70 77 76 71 68 69 72 68 67 64 68 74 73 70 65 60 57 59 63 66 66 65 69 
73 72 64 59 61 63 62 60 60 57 55 55 55 54 54 56 54 51 49 52 61 70 73 68 59 53 
53 55 56 55 53 51 49 47 46 46 47 44 41 40 41 44 51 62 74 78 75 71 67 65 66 69 
71 70 63 54 53 59 64 62 59 62 66 66 66 67 67 66 66 64 58 53 59 70 70 56 47 55 
72 79 76 76 78 75 66 59 65 64 60 67 77 79 77 73 70 68 65 69 65 65 61 67 69 66 
62 61 63 66 66 65 64 65 68 69 65 63 64 63 61 61 62 60 57 56 58 59 62 62 56 48 
47 52 61 67 64 55 49 54 62 67 65 61 59 58 58 54 49 46 45 47 48 49 47 47 51 59 
67 74 75 72 67 67 70 75 77 76 68 58 52 55 63 65 60 61 70 75 71 68 65 66 71 72 
62 56 64 75 74 63 57 62 70 75 74 72 71 73 72 65 77 67 65 72 80 84 81 75 69 64 
63 69 65 68 69 69 58 60 63 65 68 70 71 68 64 61 63 67 69 70 71 70 67 65 66 65 
64 65 65 66 69 70 64 54 52 57 64 67 60 50 48 60 70 71 66 62 62 65 67 65 56 51 
50 51 55 56 53 49 50 54 59 66 72 71 66 65 69 72 73 74 71 60 50 51 60 64 63 66 
76 82 80 76 75 76 77 77 68 63 71 79 80 77 76 75 71 69 68 68 69 73 77 75 76 73 
70 76 83 82 77 70 63 60 62 69 66 65 63 61 62 65 68 67 70 74 72 67 62 59 60 64 
67 69 72 72 69 67 68 69 71 74 73 71 76 79 73 65 60 61 65 69 63 53 54 65 74 72 
65 64 67 72 73 68 62 59 58 57 58 59 57 53 51 52 55 61 66 66 65 68 69 68 68 70 
71 64 54 50 57 65 67 69 76 81 79 80 82 82 80 78 72 67 70 76 79 82 86 82 71 66 
68 68 69 75 78 72 76 68 68 75 80 76 67 60 56 57 62 71 62 58 54 52 52 53 58 63 
67 69 83 78 66 58 59 63 63 64 67 67 66 66 67 70 73 75 74 74 77 81 77 68 60 59 
61 63 60 55 57 68 74 73 68 69 73 75 74 67 62 63 64 64 64 65 62 58 57 58 58 59 
60 59 62 69 70 65 63 66 69 66 60 57 61 67 71 73 72 70 69 72 77 77 77 76 71 65 
65 70 73 76 81 83 77 71 72 72 71 73 74 76 70 62 64 74 78 70 61 55 53 55 60 67 
61 58 56 55 52 51 55 63 68 74 75 73 66 76 73 67 66 66 67 67 67 69 71 72 73 73 
71 71 74 76 73 66 60 56 54 54 53 50 54 66 72 71 70 71 73 74 71 64 60 62 66 68 
71 72 68 65 67 69 68 66 62 57 58 64 65 61 60 62 65 67 68 67 67 71 74 74 71 66 
64 66 70 72 73 73 70 64 65 69 70 71 77 81 80 77 72 70 69 70 67 75 70 62 67 77 
78 69 59 57 57 56 57 56 63 65 67 65 60 57 60 66 69 69 71 70 63 59 59 77 76 75 
74 74 74 76 78 76 73 71 69 68 71 71 69 66 64 60 55 49 46 47 50 57 63 67 68 68 
69 71 68 62 58 60 65 68 72 75 74 73 75 78 78 76 71 62 58 59 59 59 61 64 64 67 
74 77 74 72 73 72 69 67 66 68 72 74 73 71 68 67 71 76 76 74 76 81 79 71 64 65 
67 68 59 75 70 65 69 78 77 66 60 61 63 62 59 48 59 67 72 70 65 62 64 68 67 64 
62 62 62 62 64 61 60 71 75 74 77 78 77 75 73 71 70 70 71 70 69 69 68 65 59 50 
45 45 47 50 55 62 65 65 67 70 68 61 59 61 64 68 72 75 76 78 81 82 81 78 74 69 
63 59 59 63 67 67 64 67 76 82 79 74 71 69 67 66 69 74 78 78 73 68 67 70 76 81 
80 78 78 79 73 62 57 63 70 67 76 72 67 63 66 72 70 62 58 61 68 70 66 47 55 64 
69 68 65 64 65 67 68 64 58 56 59 68 73 67 59 64 79 85 78 80 75 71 72 72 69 70 
71 70 70 70 68 66 61 51 45 50 55 55 58 63 65 66 69 72 70 64 60 61 66 70 73 73 
75 77 80 80 75 70 67 67 66 62 62 64 68 68 63 63 71 80 80 77 74 71 68 67 68 71 
73 74 71 67 68 73 77 79 79 78 77 74 68 60 58 64 70 66 71 68 67 64 64 66 65 59 
55 60 69 74 74 51 55 64 67 65 65 65 64 66 70 69 64 58 59 70 76 71 62 62 72 75 
70 68 71 75 60 61 62 61 66 71 73 72 67 64 61 55 51 56 65 68 69 70 67 64 69 74 
73 68 63 60 65 73 78 77 74 72 72 72 69 61 58 61 64 65 64 65 66 65 63 62 65 72 
77 78 78 78 75 72 65 61 63 68 70 71 73 76 76 74 75 76 73 70 67 62 60 62 66 67 
66 68 71 70 66 65 63 56 52 56 67 74 76 55 61 68 69 66 64 63 63 67 72 75 71 64 
65 71 74 70 65 66 67 65 61 60 63 71 76 74 64 67 67 70 77 77 70 67 67 62 57 60 
68 73 75 72 64 60 65 71 73 70 62 56 62 76 83 82 75 66 63 64 63 58 54 57 63 66 
66 66 67 67 66 64 63 67 71 73 75 77 80 77 67 59 62 69 74 77 81 80 75 73 74 73 
68 66 66 64 58 54 60 69 69 72 76 72 67 65 61 55 50 55 63 71 75 63 65 71 71 65 
60 59 62 68 74 73 68 67 69 72 70 66 68 69 66 61 61 62 64 70 76 78 74 69 68 65 
71 76 73 68 68 68 62 58 61 68 73 69 60 57 63 70 72 69 62 57 61 76 86 83 74 64 
58 57 58 55 54 56 62 64 65 66 68 71 69 65 65 69 71 69 68 71 77 79 74 67 67 72 
76 79 82 81 75 73 75 72 64 63 66 65 59 54 60 73 75 79 76 68 61 60 57 53 52 54 
59 65 72 71 64 69 67 63 58 57 64 73 72 65 59 61 68 71 69 68 70 72 66 63 66 69 
67 66 71 73 72 68 66 70 72 69 65 63 65 64 61 58 58 62 66 66 62 64 71 75 73 69 
64 60 65 75 80 77 70 63 56 53 53 53 54 58 62 63 63 64 68 71 68 63 64 69 75 74 
68 67 73 78 77 72 70 69 70 73 76 74 70 73 76 73 66 63 66 68 68 65 61 78 82 82 
76 65 58 57 57 57 58 56 55 61 71 60 61 64 64 63 62 63 69 74 72 62 56 58 66 72 
74 71 71 71 66 63 69 71 65 61 61 65 66 65 64 65 66 68 69 70 72 65 63 61 61 61 
61 63 67 72 77 77 75 71 66 61 64 71 74 70 65 60 55 50 48 51 56 62 67 69 67 66 
68 70 66 60 61 68 74 76 75 72 70 72 75 73 67 62 63 67 69 65 63 69 75 75 69 65 
67 73 77 72 73 78 82 83 77 66 61 61 64 68 69 65 61 64 73 59 60 62 62 67 71 72 
72 73 70 65 63 63 67 76 79 74 69 66 64 65 67 66 61 57 59 62 66 66 65 62 61 63 
65 66 66 67 66 56 55 58 58 63 71 75 75 72 70 68 64 59 59 67 72 67 61 58 55 49 
47 51 59 66 72 75 74 70 68 68 65 62 62 66 69 74 79 77 70 67 73 75 71 65 66 71 
71 64 62 69 77 76 70 67 69 75 77 68 70 73 76 80 77 69 64 65 70 75 78 76 70 70 
71 62 61 63 64 69 78 77 72 70 71 72 73 69 70 78 82 76 67 66 68 69 70 67 62 60 
62 67 70 71 68 62 58 60 63 63 64 66 69 70 75 79 68 73 74 71 68 65 62 62 60 58 
61 70 75 69 60 57 56 52 49 53 60 66 71 77 78 74 68 66 64 64 66 67 65 70 78 75 
63 62 73 78 76 74 75 76 74 70 69 75 81 80 75 70 70 73 70 71 69 66 68 75 78 72 
67 66 69 73 79 80 76 68 62 67 65 67 64 70 76 74 69 68 73 78 77 71 69 76 80 75 
69 70 73 73 72 68 65 63 66 69 72 73 70 65 60 61 65 67 70 72 75 76 78 78 76 72 
72 69 63 59 60 58 60 63 67 76 80 72 63 59 59 57 54 54 58 63 68 75 80 78 71 65 
60 61 66 68 66 69 72 68 60 60 69 75 75 76 77 74 69 70 75 82 84 82 77 72 69 68 
68 71 69 63 63 69 75 75 70 70 69 70 74 78 75 64 58 65 68 67 65 68 71 66 60 61 
68 74 74 68 62 69 73 70 63 57 57 59 60 58 60 64 67 68 73 82 83 79 78 79 78 76 
77 77 73 73 78 80 74 65 60 58 61 66 53 59 61 63 70 78 80 74 66 66 66 62 57 55 
57 61 67 75 80 79 73 66 59 57 62 66 67 68 69 65 63 67 72 72 73 75 74 66 62 68 
77 81 80 76 72 67 65 64 68 68 71 69 65 68 74 74 68 61 60 66 71 68 65 67 68 
