P2
112 112
255
56 51 53 60 65 65 66 67 67 70 78 82 77 70 70 71 70 67 63 61 63 66 65 61 56 52 
52 58 68 73 73 71 71 72 75 78 78 69 62 58 55 51 50 55 58 61 66 71 70 68 69 72 
73 73 72 67 62 64 70 69 66 68 73 72 67 68 71 71 72 73 70 62 60 66 77 80 77 72 
71 71 72 71 67 62 63 68 69 70 75 85 87 84 75 70 65 61 59 62 69 77 82 77 67 61 
62 63 61 60 61 61 59 57 55 51 53 61 65 65 66 67 67 70 78 81 77 70 70 71 70 67 
63 61 63 66 65 61 56 52 52 58 68 73 73 71 72 72 75 78 78 69 62 58 55 51 50 54 
58 61 66 71 70 68 69 73 73 73 72 67 62 64 70 69 66 68 73 72 67 67 71 71 72 73 
70 62 60 66 77 80 77 72 71 71 73 72 67 62 64 68 69 70 75 85 87 84 75 70 65 60 
59 62 69 78 82 78 67 61 62 63 61 60 61 61 59 57 59 77 73 64 54 56 61 63 63 67 
68 65 62 65 70 69 65 65 70 71 65 59 59 65 76 84 85 79 74 68 61 62 64 62 55 55 
61 63 57 55 65 77 79 74 68 63 62 64 66 61 59 57 55 56 62 67 68 67 64 63 64 67 
66 63 59 57 60 67 71 72 69 65 58 56 58 61 64 64 60 55 59 67 69 61 58 61 66 66 
64 62 60 66 69 66 60 62 66 71 75 75 74 72 70 62 57 57 66 70 65 57 53 56 64 76 
74 63 53 53 62 66 68 69 68 63 60 66 77 78 72 69 75 75 68 60 58 64 74 83 81 74 
71 67 65 67 70 66 60 63 71 69 56 48 55 69 74 71 65 59 52 52 52 53 57 60 62 61 
63 65 68 67 62 57 62 69 67 59 54 53 55 58 63 66 65 59 56 57 60 61 62 62 57 55 
59 68 70 68 65 66 67 66 64 61 63 68 70 66 65 71 77 79 79 79 78 76 68 59 53 58 
66 70 66 58 55 60 65 75 75 71 63 63 68 72 72 73 73 68 66 71 79 80 73 72 75 73 
62 58 59 64 72 78 76 70 69 69 69 70 70 67 66 73 77 72 59 51 52 58 62 63 65 62 
57 50 47 50 58 67 69 67 63 61 65 67 61 54 60 69 69 61 56 57 55 52 54 61 64 62 
60 61 63 62 62 60 58 59 65 71 73 73 70 67 67 68 67 63 64 68 68 63 63 69 72 74 
76 78 79 76 68 57 54 55 60 63 67 65 63 63 61 75 76 75 71 67 69 72 74 74 75 75 
75 75 77 74 70 71 74 68 57 56 61 64 68 73 74 70 69 71 72 71 66 63 66 75 77 72 
68 64 60 55 55 62 69 70 64 59 57 60 67 71 72 67 60 57 60 64 61 58 62 70 69 63 
60 61 59 51 50 57 64 64 62 62 64 64 64 61 59 63 69 71 70 69 66 64 65 70 69 63 
62 65 65 61 59 62 63 64 69 71 71 69 65 60 56 55 54 60 67 70 65 62 59 72 71 70 
68 66 69 73 72 70 70 74 76 76 73 68 66 68 71 65 60 62 68 67 67 71 74 71 69 69 
72 71 65 58 61 69 72 72 75 76 70 61 61 69 75 71 65 63 67 73 76 75 70 65 59 56 
58 62 64 65 68 70 69 62 57 59 59 56 55 59 64 62 59 58 62 66 66 61 59 63 68 69 
65 62 61 61 65 68 67 61 60 63 65 63 64 65 62 60 60 60 59 59 63 63 61 58 59 61 
65 62 59 57 61 66 64 61 61 68 78 79 74 67 67 70 74 74 71 67 64 67 69 67 65 71 
76 73 68 69 71 69 65 66 69 71 65 58 56 60 66 72 76 77 72 66 67 74 74 69 63 65 
70 74 75 73 69 61 55 55 59 64 68 71 72 71 70 64 57 54 58 63 65 66 64 62 57 56 
61 67 68 62 60 64 69 68 63 59 59 61 63 67 66 65 63 65 67 68 70 71 64 59 57 56 
55 58 64 67 65 63 63 63 56 52 53 60 68 64 63 59 60 73 84 84 75 71 71 73 72 71 
69 67 67 69 71 69 69 73 78 75 73 71 69 65 62 61 65 68 66 60 54 53 61 70 75 72 
68 65 67 69 70 67 69 72 71 67 63 64 63 55 50 53 61 68 73 75 74 73 76 73 65 58 
60 67 74 72 68 64 59 58 62 69 70 66 65 68 71 69 64 59 58 59 61 63 66 68 67 66 
68 68 68 64 59 57 60 65 65 66 68 70 67 64 64 60 53 51 61 68 70 69 70 65 65 74 
81 77 72 73 78 76 71 69 70 72 74 76 77 74 71 71 73 76 77 76 69 63 60 59 61 64 
67 64 56 52 57 66 70 68 65 63 63 64 64 69 76 81 74 59 51 53 56 50 46 51 63 71 
76 76 73 72 75 79 74 66 62 68 74 75 71 67 62 59 62 68 71 70 69 69 68 66 63 61 
62 62 60 59 61 65 65 66 68 67 60 52 49 54 65 71 72 68 69 71 71 67 65 64 59 63 
73 76 71 72 76 75 73 73 72 67 67 75 77 71 66 68 75 79 81 82 81 77 72 69 70 74 
78 76 69 63 62 62 62 65 70 71 64 58 57 59 60 60 62 63 64 65 66 68 76 81 73 57 
48 51 55 52 47 51 61 68 70 69 66 65 69 74 75 69 63 61 68 73 72 67 62 59 60 62 
65 67 67 62 58 57 60 63 65 66 61 57 57 61 62 64 68 66 59 51 50 56 66 72 70 65 
66 71 74 71 70 71 70 71 75 75 70 69 76 80 77 72 65 61 67 75 73 64 59 66 74 78 
77 76 74 72 70 71 70 72 73 73 68 66 70 71 69 70 73 75 71 66 62 56 53 57 62 65 
68 73 72 70 73 75 68 58 52 55 58 56 51 52 59 62 59 58 58 62 67 72 75 71 62 58 
62 69 69 64 59 59 58 56 56 60 61 57 51 51 55 59 63 65 64 60 62 64 64 65 68 69 
65 62 61 63 66 68 66 63 63 70 71 69 69 73 73 69 66 68 71 64 73 77 74 68 61 60 
68 76 74 62 57 61 69 70 68 66 64 63 69 74 76 72 70 69 67 70 76 78 73 69 70 71 
70 69 64 57 56 61 67 68 71 74 74 72 72 71 65 60 58 58 59 59 54 52 55 56 54 54 
60 68 77 82 80 72 64 59 63 66 65 58 55 59 60 55 53 56 58 55 54 54 53 54 59 65 
66 66 69 71 68 67 69 71 70 70 69 67 67 68 69 67 66 68 67 63 65 71 72 63 58 63 
71 62 69 69 66 63 61 63 70 79 76 67 61 66 69 68 65 65 64 64 68 78 79 75 69 66 
62 64 72 75 69 64 63 63 62 61 58 56 58 65 70 69 66 65 66 68 70 68 65 64 63 59 
60 61 57 52 52 55 57 62 70 78 88 91 81 68 61 63 67 68 62 55 53 60 64 63 59 59 
57 57 58 61 58 57 61 69 68 67 70 74 71 69 72 73 70 68 67 65 67 71 75 72 69 66 
62 59 61 68 69 64 60 65 68 64 64 62 60 62 65 68 74 79 77 70 69 75 77 71 68 69 
69 65 68 73 75 70 68 65 61 57 63 68 68 63 61 58 53 50 49 48 53 59 67 68 62 56 
57 62 67 67 67 70 67 64 65 68 62 52 51 56 63 69 73 78 86 85 73 57 56 63 69 67 
62 56 55 59 66 67 67 63 58 56 61 66 66 65 70 72 67 61 64 71 72 71 75 74 70 65 
64 63 64 68 71 72 69 64 58 55 57 62 64 62 62 65 63 66 62 58 58 61 65 69 74 75 
72 69 74 82 80 73 69 69 65 60 61 62 61 63 68 73 67 60 61 67 73 71 66 57 49 47 
48 49 49 56 66 70 63 55 54 58 62 64 67 70 69 66 69 73 67 58 55 61 65 66 63 64 
67 68 57 49 52 61 63 63 62 61 59 59 62 65 66 66 60 58 62 68 70 68 68 68 63 58 
61 67 69 69 72 74 69 67 67 65 59 57 61 66 69 65 59 54 55 58 59 58 58 60 62 69 
60 57 58 60 60 64 69 70 67 69 76 80 79 75 71 66 60 58 58 56 55 60 72 80 74 63 
57 66 76 78 69 57 50 51 56 57 57 60 70 71 63 54 52 56 60 64 66 66 65 65 68 69 
68 64 62 64 63 57 50 47 50 52 50 48 52 56 56 57 63 67 67 63 62 61 63 64 64 62 
64 68 68 63 59 60 60 61 63 66 66 66 70 72 70 69 71 68 58 52 55 65 73 73 66 60 
58 58 56 53 53 58 68 71 61 59 63 62 60 61 67 68 68 71 75 77 78 78 76 70 66 66 
66 59 56 63 74 75 67 53 48 56 72 76 67 56 52 56 61 63 62 64 67 64 53 48 50 56 
64 68 67 63 63 65 66 67 70 70 67 62 55 48 43 41 44 48 50 51 51 52 52 55 62 67 
68 67 65 64 63 64 64 64 65 68 67 60 55 55 58 62 65 66 65 65 70 72 71 69 69 67 
60 53 54 64 74 77 73 67 62 60 57 53 53 62 74 71 62 62 70 73 67 66 70 70 69 70 
73 75 77 77 74 71 73 77 71 60 57 66 69 64 53 46 44 54 66 68 61 55 55 59 61 60 
58 57 59 54 47 46 51 60 69 72 67 61 63 69 71 72 74 73 65 56 47 41 39 39 41 44 
48 46 45 46 50 52 53 55 59 62 66 67 66 65 65 63 63 66 67 66 60 57 56 59 64 66 
65 64 64 67 67 65 64 63 60 56 55 58 65 71 73 69 63 61 61 57 58 67 73 71 64 65 
75 79 74 72 74 73 68 66 68 72 73 70 66 66 73 76 69 57 57 66 69 61 56 53 54 57 
60 60 56 57 61 64 64 58 54 54 57 57 54 53 57 63 66 65 58 55 60 70 75 75 74 67 
58 50 42 38 36 34 33 38 40 38 34 41 49 50 44 44 50 57 62 66 67 67 66 63 60 62 
68 71 68 60 55 58 64 67 63 58 55 57 62 66 66 64 63 63 60 57 58 66 71 70 64 62 
64 60 61 68 69 72 68 69 75 76 72 71 74 73 70 67 67 67 68 65 62 64 70 72 65 58 
60 71 73 70 66 67 63 57 55 56 59 61 65 68 68 64 59 59 63 67 65 61 61 62 59 52 
47 47 56 65 70 70 64 55 47 42 40 40 39 35 32 35 38 34 33 41 51 51 46 46 52 56 
58 60 63 64 66 64 60 59 64 68 65 57 55 60 68 70 65 56 52 54 63 73 75 72 71 74 
74 65 60 65 71 70 64 64 64 63 62 67 63 74 75 75 74 70 65 64 67 70 73 74 69 65 
63 63 65 70 74 73 69 64 68 73 74 73 73 70 62 53 53 60 66 67 64 63 66 68 66 63 
65 67 67 62 59 56 51 46 44 50 57 61 63 62 57 49 41 36 38 44 51 49 47 47 47 44 
44 50 57 58 55 54 56 56 54 54 56 59 62 65 63 61 61 60 56 53 56 65 73 74 69 65 
63 63 67 74 77 75 75 82 83 74 64 64 67 65 64 66 67 65 63 64 60 75 79 78 75 71 
64 60 59 64 73 77 73 63 60 61 66 72 77 75 70 67 68 68 67 69 74 73 63 56 59 67 
72 67 59 56 59 64 63 60 57 58 60 59 54 49 45 45 50 57 60 57 54 55 56 55 49 43 
41 52 64 73 74 70 61 56 57 59 61 61 59 53 51 50 51 53 54 54 57 59 61 61 60 55 
52 53 63 72 78 77 74 72 72 70 66 63 65 67 73 81 83 76 67 64 61 59 64 71 72 67 
65 63 63 71 72 71 71 72 70 64 59 61 68 73 69 62 60 61 65 70 74 73 67 65 64 62 
59 64 73 76 70 64 65 70 69 63 56 55 57 59 59 57 56 55 56 54 48 42 42 46 52 57 
57 51 47 48 57 64 67 60 57 63 79 93 99 87 72 64 64 61 56 55 52 47 43 45 49 52 
53 52 51 53 56 59 58 54 52 59 68 76 78 77 72 70 70 68 60 53 53 61 71 79 79 76 
72 69 61 60 69 78 75 69 67 65 65 66 63 61 62 68 70 69 66 65 65 65 62 60 62 65 
70 73 74 71 69 68 68 62 56 58 68 73 70 66 66 65 60 55 55 60 62 60 58 61 62 60 
56 51 44 40 44 49 51 51 50 48 46 47 55 67 77 80 78 82 93 108 110 98 80 75 73 
64 54 49 48 44 43 44 46 46 48 49 51 52 55 58 59 56 57 62 69 71 73 73 71 65 64 
65 62 55 54 61 71 76 76 76 77 73 65 65 77 82 76 68 71 68 62 64 60 58 60 64 68 
69 69 68 66 64 62 63 66 70 75 79 78 75 74 76 75 69 59 57 61 66 66 67 65 60 52 
48 53 61 67 63 61 62 64 60 56 52 47 45 51 55 52 46 45 47 49 49 53 64 78 89 95 
99 107 115 115 101 92 89 87 77 64 56 53 51 49 46 42 41 44 49 53 57 58 60 61 62 
63 66 64 63 64 70 71 67 64 69 71 67 63 65 70 72 72 75 77 72 64 67 77 82 74 74 
76 70 62 62 62 65 67 68 69 68 67 68 70 71 72 71 68 67 74 79 80 76 75 76 77 72 
66 64 64 65 67 70 71 63 51 46 49 60 67 67 63 63 60 57 57 60 56 53 57 61 56 46 
40 42 45 46 49 60 75 90 100 107 116 124 121 110 101 100 95 87 76 68 62 57 52 
44 40 41 45 49 55 59 62 62 63 67 70 69 64 58 58 64 69 68 68 74 78 75 68 66 67 
68 70 72 74 69 62 61 70 72 72 78 83 73 70 61 64 70 74 74 72 65 61 63 69 75 76 
74 68 64 68 75 78 75 74 72 69 68 70 71 70 69 69 73 73 67 56 50 53 61 67 68 69 
69 67 63 65 66 63 58 60 64 60 46 34 32 36 40 47 60 75 89 101 114 129 140 139 
125 113 101 92 85 81 72 64 58 50 42 39 45 48 50 54 61 65 64 65 68 71 71 68 61 
56 57 63 65 68 72 74 70 65 63 64 65 67 69 71 71 65 62 63 64 66 76 84 80 79 61 
64 70 73 74 72 65 59 60 67 70 70 69 67 67 69 73 74 76 76 72 64 63 68 72 70 68 
68 68 68 65 61 59 63 67 67 66 69 76 77 75 72 70 65 61 61 63 59 44 32 28 34 42 
52 65 80 95 110 126 145 159 158 144 125 106 89 83 78 69 57 52 50 45 46 51 52 
51 55 64 68 68 67 67 68 70 74 72 64 58 60 64 67 68 66 63 61 61 62 62 62 62 66 
71 73 70 67 64 64 69 79 82 79 60 64 67 69 71 73 70 65 66 70 69 64 63 67 71 72 
68 67 71 77 72 64 62 67 67 65 65 65 63 62 63 63 64 68 70 64 57 58 67 75 77 75 
72 70 67 64 60 52 42 32 33 43 53 64 76 92 109 126 139 152 165 166 153 133 111 
95 85 77 61 45 41 44 49 51 55 55 51 55 62 67 67 67 67 66 70 79 81 74 67 66 68 
69 66 63 61 63 64 63 60 57 54 56 64 73 75 73 70 67 68 73 80 78 62 64 66 66 70 
77 77 74 73 75 71 65 61 64 69 68 63 58 64 68 65 58 62 68 65 60 63 66 63 62 65 
66 65 66 66 60 49 45 50 60 70 74 78 78 74 65 54 45 36 31 36 49 65 78 92 108 
125 139 146 153 160 161 149 128 110 97 88 77 55 35 26 32 38 43 49 52 51 55 62 
65 64 65 68 68 72 77 79 74 71 72 72 70 66 62 61 64 67 65 60 56 52 51 57 66 71 
71 71 74 75 78 79 76 68 67 67 68 71 77 79 77 75 74 70 65 60 60 62 63 59 56 58 
60 55 50 56 62 57 52 57 64 63 65 69 71 68 65 63 57 49 42 43 51 61 68 73 74 70 
61 49 39 31 28 34 51 75 96 112 125 138 149 156 159 162 158 141 120 103 94 89 
77 57 34 24 23 25 29 39 48 54 60 68 69 64 63 66 69 70 70 69 68 71 72 71 69 68 
63 60 62 65 63 59 57 55 53 55 62 67 67 70 76 83 85 82 72 74 67 67 70 72 74 76 
78 76 71 66 63 61 59 60 61 63 61 60 59 53 49 50 53 45 38 43 53 60 63 69 74 74 
70 66 60 54 51 52 55 57 58 59 58 57 53 47 40 33 30 37 61 92 121 135 144 151 
162 169 172 171 161 143 121 106 96 90 81 64 44 32 28 24 25 34 48 57 66 75 75 
67 60 60 62 61 62 64 69 73 73 71 72 72 67 60 60 61 59 57 59 60 57 56 61 66 68 
68 74 80 83 78 69 70 64 65 70 71 70 73 79 79 73 66 67 67 65 63 65 67 66 62 60 
60 57 55 52 43 34 34 46 57 62 64 68 73 73 68 60 55 57 62 64 60 53 48 46 47 48 
44 40 38 40 53 80 116 145 162 169 175 180 183 181 173 162 149 135 120 108 97 
86 67 47 35 31 28 28 35 46 54 63 73 75 68 59 53 51 49 52 60 71 77 75 72 76 78 
73 65 63 61 57 57 61 65 61 57 59 65 68 70 70 73 75 73 73 64 61 65 69 71 70 74 
79 79 72 69 70 73 70 67 68 71 71 63 60 62 66 64 59 51 41 40 48 61 65 62 60 62 
65 62 56 53 57 64 68 65 60 54 49 47 45 41 38 40 50 70 103 138 169 192 206 210 
206 197 185 171 161 157 153 141 124 109 93 69 45 28 22 20 22 31 40 47 55 64 71 
71 64 58 51 45 44 52 65 74 72 69 71 76 73 71 69 66 60 58 63 66 66 61 59 60 66 
70 72 71 72 74 78 61 63 67 70 71 76 81 83 77 70 66 67 67 67 67 69 76 75 68 58 
61 66 68 64 59 53 50 55 64 67 64 58 55 54 53 52 51 55 63 67 69 69 68 61 53 45 
38 36 42 57 86 122 158 192 223 244 247 233 215 197 179 169 170 170 161 144 127 
107 80 49 26 13 10 14 23 33 40 48 59 69 75 74 70 65 54 44 42 53 65 69 65 65 65 
67 71 74 71 64 62 65 67 67 66 62 58 61 70 76 75 75 77 73 62 65 69 69 72 79 87 
87 80 72 67 63 60 60 65 73 80 81 72 62 60 64 64 61 60 60 59 58 57 60 62 62 55 
50 50 51 51 53 60 65 68 74 77 70 57 46 41 41 49 67 99 140 180 217 250 255 255 
254 232 211 192 183 183 184 177 168 152 129 97 64 36 18 11 12 19 28 35 43 53 
65 72 74 76 75 65 49 40 45 58 65 65 61 60 60 68 71 69 65 66 67 65 65 69 67 59 
59 69 78 79 76 74 66 64 68 71 71 72 77 81 80 77 75 72 66 59 59 67 75 81 80 74 
68 65 62 59 57 60 64 63 57 50 50 57 61 57 51 51 52 48 50 57 64 67 73 78 72 59 
48 46 50 60 82 117 162 204 243 255 255 255 255 237 214 195 188 191 194 196 194 
186 159 123 86 55 31 17 14 19 24 28 35 45 54 60 62 68 74 70 55 44 45 54 63 66 
65 61 61 62 63 60 60 65 68 64 64 69 71 65 65 70 77 76 74 68 66 68 73 77 77 76 
73 69 66 66 72 74 71 64 65 70 78 78 74 71 70 67 62 57 56 60 63 62 55 48 49 53 
55 52 51 55 54 51 51 61 69 70 72 74 70 60 52 51 58 74 102 141 183 223 255 255 
255 255 255 230 206 189 185 194 205 215 225 221 198 159 120 82 48 25 17 19 22 
24 29 38 47 49 52 59 70 71 62 53 51 56 62 67 69 67 63 60 57 56 58 63 67 66 64 
68 70 73 73 74 69 69 70 69 72 70 76 81 82 79 72 64 58 61 66 70 69 66 67 73 75 
70 65 65 67 66 63 62 62 61 61 57 53 52 55 54 50 49 54 59 61 59 63 72 79 78 74 
73 70 64 57 56 64 85 118 157 195 226 255 255 255 255 249 221 197 183 185 201 
221 240 254 255 236 207 166 118 70 40 26 22 22 25 31 39 46 51 53 60 70 73 67 
60 58 60 64 67 69 67 63 57 56 60 64 68 68 67 66 66 68 73 79 74 66 62 69 72 77 
64 70 79 80 76 69 63 60 59 61 61 60 61 64 69 67 60 58 62 66 65 67 72 71 65 58 
53 52 56 59 55 52 56 62 64 64 67 75 83 89 89 84 79 75 70 63 60 68 90 123 159 
190 217 245 255 255 255 235 210 190 182 192 214 243 255 255 255 255 249 211 
153 97 56 35 23 21 26 35 43 51 56 58 63 69 72 65 59 60 65 69 71 70 67 59 52 53 
61 71 72 68 64 64 66 67 73 77 75 66 66 73 78 80 56 65 75 77 72 67 63 61 60 58 
56 54 55 58 61 59 54 56 64 68 68 71 75 73 64 57 54 56 61 61 55 56 67 73 69 63 
70 79 87 95 99 97 88 81 74 67 62 68 89 120 152 179 205 232 255 255 242 216 195 
183 185 202 231 255 255 255 255 255 255 239 180 118 70 37 19 16 26 38 46 52 57 
60 64 68 68 61 55 58 67 74 77 76 69 57 47 46 57 68 71 65 60 63 68 71 72 74 72 
70 72 78 82 79 58 66 75 77 73 68 64 63 63 62 60 59 58 58 58 59 58 60 67 69 68 
66 66 63 59 57 58 63 66 62 54 57 69 79 71 68 74 85 88 93 103 101 90 79 73 66 
58 63 85 116 145 170 196 223 241 243 226 202 184 177 187 212 244 255 255 255 
255 255 255 252 196 132 77 35 14 16 30 41 46 51 57 62 66 70 67 58 50 55 63 70 
76 77 72 60 48 46 53 63 69 67 65 68 73 73 70 68 66 67 73 82 83 73 66 68 72 76 
74 70 65 66 69 71 71 71 69 63 61 63 65 65 65 67 64 57 54 55 59 61 63 66 68 60 
51 51 65 73 75 74 84 91 89 90 97 96 83 71 67 60 52 54 77 106 134 158 184 208 
224 226 217 197 178 169 182 211 249 255 255 255 255 255 255 255 200 139 79 33 
13 22 35 42 42 49 57 63 67 68 64 53 48 52 58 61 65 71 71 65 59 56 56 62 70 75 
76 76 76 72 67 62 60 63 73 83 81 68 70 66 68 72 76 71 65 63 68 73 74 76 72 65 
61 64 66 62 61 62 57 49 47 58 66 68 66 66 62 57 51 53 60 68 72 77 87 91 87 86 
90 90 77 67 62 57 45 46 65 92 115 138 164 187 200 206 202 188 163 150 162 200 
244 255 255 255 255 255 255 246 194 133 75 31 16 21 33 33 33 44 57 61 63 64 59 
51 49 54 57 56 58 64 67 68 69 68 61 59 67 77 80 77 74 70 66 63 61 66 77 84 78 
66 66 63 64 72 77 75 64 57 59 66 71 70 66 60 58 62 62 59 57 58 52 44 47 60 68 
68 66 65 63 61 64 65 66 68 70 74 82 88 87 86 89 87 78 66 60 55 44 43 57 78 97 
119 146 168 179 180 177 162 136 121 136 182 230 255 255 255 255 255 255 225 
175 117 66 31 17 22 28 27 28 41 56 60 59 62 60 55 53 56 57 59 63 67 67 68 72 
71 61 54 59 70 74 71 68 67 67 65 65 70 78 80 73 68 64 65 67 70 76 76 64 55 55 
64 67 66 62 57 59 62 62 58 60 58 50 43 49 58 62 62 64 67 67 72 78 80 77 76 76 
77 83 91 92 90 89 87 77 64 57 50 43 41 51 67 83 104 133 156 163 156 148 130 
106 92 113 158 210 247 255 255 255 254 233 198 147 95 57 35 25 27 33 35 36 46 
57 59 57 61 64 61 56 54 55 61 71 73 69 68 72 71 60 52 55 66 71 68 65 66 66 65 
65 69 72 72 69 71 68 74 72 68 70 72 67 59 61 67 68 65 62 61 63 65 61 61 62 59 
48 45 51 58 58 59 63 67 69 73 79 83 84 86 89 90 94 100 99 92 86 82 73 59 50 45 
39 34 41 55 71 95 122 146 147 137 125 110 87 75 91 134 183 225 251 255 252 235 
209 171 120 72 42 31 28 29 38 46 48 53 57 53 51 55 63 63 59 55 56 64 74 75 70 
70 73 70 61 56 59 68 73 72 68 66 66 67 68 68 68 70 71 71 74 80 77 68 68 72 71 
66 67 68 65 62 62 64 66 65 62 61 62 55 45 44 51 58 60 60 62 65 66 66 69 73 80 
88 93 96 99 103 97 88 83 81 70 56 47 43 33 26 29 44 63 85 110 126 128 120 111 
101 82 71 82 116 161 206 237 245 236 216 188 149 99 53 24 16 15 16 30 44 53 55 
54 49 44 51 57 63 64 64 65 70 75 74 70 70 72 66 60 59 64 71 75 74 69 66 68 71 
73 71 71 73 74 67 75 79 73 68 71 77 76 72 71 68 62 58 59 63 65 66 64 63 60 52 
45 44 49 54 59 58 57 61 65 64 61 65 73 80 83 85 89 92 89 85 88 87 75 57 49 44 
32 21 25 42 61 79 94 105 108 107 103 93 81 73 84 110 148 189 219 227 217 194 
164 127 83 42 15 3 0 5 20 41 53 55 54 50 50 52 56 59 66 73 77 79 79 75 71 70 
65 59 56 60 66 72 76 74 67 63 64 70 73 73 73 75 73 64 72 70 65 64 73 79 76 72 
70 68 63 59 59 62 65 66 65 63 59 53 51 51 50 52 56 52 50 55 66 64 57 57 66 69 
67 66 72 80 85 92 100 98 80 60 52 45 32 22 28 46 64 76 85 93 100 103 97 86 74 
74 87 111 137 169 195 205 196 174 143 107 70 37 12 0 0 10 28 48 58 58 57 59 58 
55 51 52 60 73 82 85 82 77 74 69 61 53 55 60 66 70 75 75 69 61 61 65 69 70 72 
73 70 66 67 66 64 67 75 75 70 65 65 65 64 64 67 70 70 66 61 57 54 55 59 60 55 
56 57 52 44 52 61 58 47 47 57 60 53 53 63 76 91 103 107 98 78 63 54 48 34 25 
32 50 67 79 87 95 103 104 94 78 69 72 90 110 128 150 173 186 182 163 134 100 
65 33 11 2 6 21 41 57 63 60 60 61 59 50 42 42 51 66 80 83 78 74 74 71 60 55 59 
63 63 64 71 76 75 67 63 62 62 64 67 69 68 68 64 68 69 74 78 75 66 59 57 58 60 
65 74 81 77 67 58 52 52 57 62 62 59 59 61 53 47 51 55 47 40 44 54 52 46 49 64 
81 96 106 103 88 74 64 59 50 37 30 36 52 70 86 98 105 108 105 92 80 72 77 93 
114 132 150 170 183 180 164 139 108 71 36 10 1 8 24 42 56 61 60 58 56 51 43 37 
39 47 61 73 75 68 64 69 68 61 59 64 68 63 62 67 76 77 72 64 58 54 57 63 68 69 
72 66 70 72 76 80 79 71 64 58 55 55 59 72 79 79 71 62 54 54 58 62 61 59 59 58 
54 53 54 50 44 43 53 57 51 45 53 67 81 93 102 96 83 71 66 59 50 40 37 43 58 79 
99 113 119 117 109 98 90 87 91 107 131 154 175 192 200 195 178 154 122 84 46 
19 7 11 24 39 51 57 58 54 50 49 46 43 44 49 57 65 64 57 55 61 62 60 61 68 69 
67 67 71 74 75 71 64 54 49 53 64 71 73 74 69 69 69 71 79 82 80 74 67 62 57 57 
60 68 73 76 69 59 53 57 60 62 61 58 52 52 56 56 49 45 51 60 60 52 49 58 68 74 
83 94 96 85 76 67 58 48 44 44 51 66 90 115 133 139 138 129 118 111 108 111 127 
156 187 210 227 234 225 204 174 136 94 57 31 19 20 30 41 49 55 55 50 50 54 58 
53 51 52 56 59 57 53 53 55 58 59 65 68 68 69 75 77 75 70 69 65 59 54 58 67 73 
74 69 68 66 63 68 77 82 80 77 73 68 63 59 57 58 67 73 68 54 48 51 57 62 64 59 
52 52 57 55 49 48 55 59 57 52 54 62 67 66 72 85 91 87 79 70 59 52 49 50 55 71 
98 129 153 169 174 167 154 142 137 137 153 184 217 243 255 255 255 233 196 149 
100 60 35 26 29 37 44 49 54 55 53 55 66 67 60 52 53 57 58 57 60 61 59 56 62 68 
70 66 70 75 78 73 70 70 71 67 63 64 70 72 70 68 66 60 61 67 75 76 73 71 70 66 
63 62 60 59 61 65 57 45 43 50 58 63 63 60 56 59 61 55 51 56 60 59 55 53 55 59 
62 62 66 76 82 81 77 74 68 61 58 55 57 74 106 145 178 202 217 210 194 180 174 
175 188 214 243 255 255 255 255 252 213 162 107 61 32 24 30 38 42 47 55 61 61 
65 74 74 62 51 52 57 58 61 67 70 63 58 59 67 70 70 70 72 70 70 70 72 71 69 66 
67 72 74 70 72 61 58 60 67 71 70 67 68 69 63 58 59 63 60 57 55 49 43 45 57 64 
63 58 54 57 64 65 56 56 64 69 63 58 56 53 53 55 59 64 70 74 74 76 78 76 71 67 
63 65 83 124 168 205 233 246 241 224 215 214 214 223 242 255 255 255 255 255 
255 215 166 114 64 29 18 27 36 38 43 55 65 67 71 78 80 65 52 51 55 56 58 66 69 
63 55 56 60 67 71 72 67 66 68 73 71 68 66 65 66 73 77 76 76 61 61 66 68 70 68 
66 68 68 64 56 57 60 59 56 58 55 50 51 62 67 61 49 45 50 62 64 60 59 69 70 64 
60 59 53 49 50 54 58 64 70 73 78 81 80 77 75 74 78 102 147 194 227 247 255 250 
239 236 236 235 240 250 255 255 255 255 255 239 200 157 112 67 29 15 22 33 36 
39 50 59 63 67 77 80 67 53 50 54 55 58 62 62 58 55 57 59 62 67 68 67 65 71 74 
72 68 69 68 67 69 76 77 75 63 70 73 73 72 72 68 64 65 62 58 57 59 59 62 66 67 
58 56 60 62 53 44 39 44 52 61 61 63 65 64 59 60 59 54 48 48 48 47 53 62 71 78 
82 83 84 88 91 96 120 163 208 234 247 252 250 245 242 238 235 235 239 240 244 
249 252 240 214 179 142 106 68 34 17 21 30 34 35 41 50 56 61 72 77 68 53 51 55 
60 61 62 59 56 61 67 67 62 60 62 65 68 72 74 73 74 76 74 68 66 69 74 69 70 77 
79 75 76 79 73 64 60 61 61 60 60 62 67 73 70 62 57 58 55 49 45 45 43 47 54 60 
60 57 53 54 57 57 49 45 45 41 38 43 54 66 76 82 87 95 105 110 114 133 170 206 
229 241 249 250 246 237 228 224 224 221 216 216 223 222 210 190 161 130 100 
68 42 27 26 29 29 30 37 49 57 64 73 78 69 56 51 55 60 63 63 59 57 65 76 75 66 
59 60 65 70 72 71 72 77 80 77 71 66 66 67 60 75 81 79 72 74 79 79 69 62 62 63 
62 60 62 69 72 69 61 57 57 53 49 51 52 47 41 46 53 53 47 45 53 59 55 45 41 41 
36 33 38 49 63 75 84 90 101 116 125 131 145 172 199 219 236 247 247 236 221 
210 208 207 199 188 187 189 187 177 165 143 113 83 58 42 36 34 31 27 27 38 54 
66 72 78 82 74 61 52 53 59 63 64 58 54 60 70 73 68 65 68 72 74 72 69 70 74 78 
77 74 69 64 60 54 73 78 75 69 68 73 76 72 66 62 63 62 60 62 68 72 69 62 57 56 
53 50 52 55 47 39 41 47 48 42 43 52 60 56 49 45 42 35 30 36 47 62 76 86 90 101 
116 131 144 162 183 200 215 231 241 235 217 198 185 180 175 164 152 150 151 
147 140 128 107 79 53 36 31 36 41 39 34 33 43 59 71 75 79 80 76 64 54 53 60 67 
68 61 52 52 57 60 61 69 76 79 77 73 68 66 67 68 70 69 65 58 54 58 68 71 72 71 
68 68 70 69 63 60 62 64 64 64 69 73 74 67 61 60 58 53 50 49 44 39 40 47 47 43 
44 51 56 54 51 51 46 35 28 31 42 58 74 83 88 96 113 133 154 178 202 215 222 
228 230 218 198 177 158 143 130 115 108 108 110 105 96 84 64 43 28 23 27 37 45 
48 44 43 48 59 68 72 72 72 71 66 59 56 63 69 69 61 53 51 50 49 55 67 77 77 73 
70 67 63 60 59 59 58 55 53 55 67 63 65 69 73 73 72 71 68 62 59 64 71 70 68 67 
74 78 76 69 69 68 61 54 50 46 42 43 48 49 47 49 53 53 48 46 46 43 31 21 22 35 
52 65 76 83 95 114 137 161 190 216 234 235 230 220 206 188 165 137 109 86 72 
66 69 70 66 57 46 35 28 27 30 35 40 46 47 46 46 51 59 68 71 68 64 67 71 69 63 
61 64 63 59 55 55 52 50 55 67 75 73 68 66 65 65 63 62 59 55 52 55 63 72 63 61 
66 73 76 77 77 74 67 62 67 72 74 69 68 74 83 80 75 75 76 70 64 59 55 48 46 48 
48 48 52 57 53 44 36 36 34 22 12 13 29 47 62 72 85 102 123 147 170 195 225 246 
249 237 223 210 193 165 125 84 58 43 38 38 37 34 28 25 26 32 39 42 43 43 42 40 
39 43 52 61 70 74 68 61 64 75 79 71 63 60 62 62 61 60 59 60 64 74 80 77 70 64 
64 67 72 73 69 62 60 63 69 67 63 61 65 70 73 77 79 77 68 62 63 70 73 72 71 77 
84 81 75 75 75 71 67 67 62 53 49 49 45 43 47 53 51 40 28 28 27 20 7 12 31 53 
67 79 94 112 133 156 176 199 228 251 255 251 242 230 210 173 124 78 48 32 24 
19 17 15 14 18 27 39 46 48 45 45 45 41 38 44 53 61 68 72 67 60 60 72 79 75 66 
65 68 70 67 65 66 70 73 79 84 85 75 64 59 67 73 73 67 64 66 67 68 63 65 64 66 
68 69 72 75 72 64 59 60 68 75 76 73 76 78 77 72 71 70 65 63 65 62 54 51 49 44 
38 40 44 43 31 22 23 29 23 16 22 43 65 80 91 104 118 134 153 174 198 225 249 
255 255 255 249 222 184 137 92 58 36 23 16 15 13 13 20 33 45 51 49 47 51 54 53 
51 54 58 57 59 62 62 56 55 61 69 69 66 67 70 70 66 65 70 74 75 75 82 84 76 61 
58 63 67 60 54 57 64 68 66 65 66 68 69 68 68 70 72 70 65 63 65 71 78 79 74 71 
71 70 67 66 65 62 61 62 59 51 48 49 45 41 40 41 36 26 19 23 31 32 34 44 64 82 
95 105 115 120 126 140 161 187 215 237 253 255 255 255 226 191 156 119 85 55 
35 29 28 23 19 26 38 48 52 50 50 54 60 62 63 65 62 56 53 57 59 56 53 54 58 61 
63 63 64 64 61 63 69 74 70 70 75 79 71 61 59 64 65 57 53 58 66 70 69 70 66 71 
71 69 68 71 74 72 70 71 70 71 77 81 76 69 69 68 63 59 60 63 64 62 54 45 44 47 
50 48 46 42 36 30 25 27 33 43 55 75 96 110 119 129 133 131 126 133 150 172 194 
215 234 254 255 255 227 197 169 142 111 80 58 49 44 34 27 31 41 47 49 49 51 55 
59 63 66 68 65 58 55 59 61 61 58 55 54 56 59 61 61 62 62 65 70 72 69 68 72 76 
70 64 64 69 69 66 65 68 73 75 74 73 65 70 71 67 67 70 72 70 72 75 71 64 68 77 
75 69 68 68 62 53 55 62 66 61 53 46 48 54 58 57 52 44 40 38 35 35 43 61 87 114 
138 153 160 165 164 151 139 138 147 158 171 188 210 234 252 251 231 201 174 
149 123 96 77 67 57 43 34 37 47 51 51 52 55 57 58 59 61 63 63 62 63 64 65 65 
64 60 57 56 58 60 64 67 67 67 70 73 74 71 73 73 71 68 68 69 70 70 71 73 75 77 
76 73 64 68 68 66 65 67 66 64 69 74 66 54 56 68 69 62 62 66 61 52 50 59 66 65 
58 57 63 68 69 68 61 52 45 45 43 46 63 93 127 158 182 198 204 204 194 175 155 
148 147 147 151 164 188 215 237 244 230 205 176 149 120 98 84 77 65 51 42 48 
59 65 64 62 61 60 58 56 56 58 62 67 70 71 70 69 68 65 62 60 58 60 64 68 68 65 
68 74 77 72 69 68 69 70 69 68 66 66 67 69 72 75 76 76 65 66 67 67 67 66 62 61 
66 70 63 52 55 63 65 56 57 62 60 50 47 56 65 67 65 67 73 75 74 75 73 62 53 50 
49 56 80 120 161 192 214 229 236 232 217 194 169 153 143 136 135 147 172 200 
223 231 222 201 177 147 116 90 79 72 64 52 49 56 69 76 74 67 62 58 56 54 53 56 
61 66 72 75 75 75 73 72 69 65 59 56 60 65 65 65 69 77 76 68 61 62 67 72 72 67 
63 61 62 65 69 73 76 75 65 65 67 69 68 67 65 64 66 69 66 62 62 67 64 60 60 64 
62 50 46 51 61 63 62 64 70 69 66 71 74 66 55 52 54 61 86 128 174 209 231 244 
250 244 228 204 176 152 135 127 124 134 156 185 207 215 204 187 166 141 109 
83 67 59 50 47 48 58 68 73 69 59 53 51 51 54 58 60 60 62 65 69 72 72 73 73 72 
66 56 50 55 62 66 67 74 79 77 66 61 64 70 73 71 66 62 60 62 66 70 71 72 68 66 
64 66 66 66 67 69 69 69 70 75 73 71 68 67 67 68 71 65 55 46 51 56 56 55 58 65 
64 59 61 64 61 53 53 56 63 86 127 174 214 239 252 253 244 227 203 174 143 126 
119 118 124 141 166 189 195 183 165 147 125 100 76 58 43 39 43 51 57 63 64 58 
51 47 46 49 60 70 72 66 61 61 62 63 62 62 65 68 63 51 45 51 61 65 68 75 79 75 
70 69 71 73 70 67 64 64 64 66 71 74 70 67 64 67 66 65 63 61 67 71 72 68 72 80 
82 73 67 67 70 71 69 64 54 48 52 57 58 58 64 71 69 60 54 56 54 53 52 54 63 87 
127 172 212 238 251 249 237 220 198 165 134 119 117 118 120 132 153 174 178 
167 148 131 111 90 70 49 36 36 49 59 61 62 61 56 52 50 47 50 61 77 81 77 71 68 
66 63 58 56 60 65 62 52 47 52 59 62 65 69 73 71 69 71 73 69 64 61 66 72 74 74 
79 79 74 65 64 69 68 67 62 61 66 75 73 67 69 79 82 73 68 69 69 64 59 53 47 46 
51 60 65 67 70 76 75 64 54 51 54 54 53 50 61 88 127 164 195 220 234 235 225 
210 188 157 128 115 118 123 127 134 151 164 166 153 138 121 102 81 61 44 33 40 
56 64 63 65 64 60 57 55 52 49 58 68 77 78 79 78 76 71 66 62 62 66 65 59 53 56 
61 63 64 66 66 64 64 65 67 64 59 58 66 75 79 80 83 83 76 69 65 67 67 69 66 63 
67 75 74 66 62 71 76 75 73 72 67 58 51 46 43 44 50 61 68 69 68 73 74 66 54 52 
57 60 54 50 59 86 116 143 167 189 206 209 202 190 170 145 120 114 120 130 136 
145 155 162 155 141 126 110 89 70 55 43 37 43 56 62 62 64 65 61 57 58 57 54 52 
54 58 68 76 78 77 76 75 68 62 61 64 63 60 62 66 67 64 64 65 64 62 62 65 66 62 
58 61 68 75 81 85 83 78 70 65 65 65 71 72 67 67 73 74 64 60 65 73 76 77 74 67 
60 57 54 50 46 49 58 66 64 63 68 73 67 58 56 62 65 59 54 60 78 99 117 137 159 
174 176 168 155 140 120 107 109 121 136 146 155 162 161 149 132 116 96 75 59 
52 46 40 42 51 56 59 63 65 60 55 55 58 60 57 48 47 57 70 75 74 76 76 69 56 53 
57 63 63 65 69 66 61 62 69 72 68 65 68 74 69 61 57 61 71 81 85 81 76 70 67 62 
63 71 75 71 69 73 73 67 64 68 74 75 74 72 67 66 67 65 57 50 48 55 60 60 60 68 
75 72 64 60 62 62 59 55 59 69 82 98 116 132 140 136 128 117 105 93 89 98 118 
138 154 166 172 165 148 129 114 91 67 53 51 47 43 42 49 54 58 63 66 63 56 52 
56 64 66 55 49 55 70 76 76 75 75 68 58 53 60 67 68 69 70 66 60 62 74 79 76 69 
73 76 71 62 59 61 70 80 82 76 71 69 70 62 62 69 73 71 71 76 76 73 73 77 77 72 
67 64 66 69 72 70 63 54 51 52 55 57 60 69 78 79 73 63 57 54 53 52 54 59 71 85 
99 105 102 96 88 82 75 69 70 85 110 135 156 175 182 172 148 132 115 93 65 52 
47 44 39 42 49 53 55 62 69 72 65 57 56 66 69 62 53 58 68 76 77 76 76 74 68 63 
67 71 73 74 74 72 67 70 76 81 75 71 73 75 65 58 57 62 67 75 78 72 69 69 72 62 
62 67 70 69 73 78 78 76 77 80 77 68 59 58 63 70 72 70 65 59 55 51 50 51 57 69 
81 88 81 68 55 52 51 50 48 52 62 74 79 75 68 61 58 54 51 48 54 72 98 125 149 
170 183 172 150 131 116 90 63 47 42 36 34 39 49 51 51 58 71 78 75 64 59 61 63 
57 54 54 61 67 74 74 74 76 73 69 68 71 73 73 75 75 76 75 76 74 70 69 73 70 61 
55 60 63 65 71 74 73 70 70 70 61 61 65 67 71 74 76 72 71 73 76 75 66 57 55 63 
68 67 63 60 59 58 54 48 50 57 69 81 85 81 70 61 58 57 52 47 48 56 62 59 52 43 
41 40 36 31 32 41 59 82 104 125 148 161 158 141 125 110 85 59 43 36 31 30 41 
51 53 50 56 67 76 76 67 58 56 53 51 51 51 49 55 64 70 70 69 67 65 69 73 73 70 
68 71 75 77 74 70 66 66 70 69 62 62 68 69 67 68 73 72 69 68 66 62 61 61 65 71 
74 68 62 62 67 71 71 66 58 58 64 66 59 54 54 58 62 60 57 57 64 69 72 72 71 69 
65 62 60 55 50 51 55 55 49 39 33 31 30 26 22 24 33 46 62 79 97 114 127 128 121 
113 101 81 57 44 38 34 37 48 58 58 54 56 63 70 71 65 57 52 50 52 56 54 47 47 
56 64 64 61 59 65 75 82 77 69 67 68 73 74 72 68 65 65 68 68 66 70 76 76 70 69 
70 69 66 64 62 64 61 57 59 68 70 62 56 59 65 67 67 63 60 63 68 65 58 56 59 65 
71 72 69 69 69 66 60 59 65 69 67 60 55 55 56 59 60 57 50 41 33 28 26 24 23 25 
31 39 49 64 79 90 96 97 95 92 86 72 55 45 42 42 46 54 61 60 59 58 61 65 69 66 
61 58 58 61 68 66 59 52 56 62 66 61 59 67 81 85 78 72 71 74 73 72 69 68 67 68 
71 71 69 71 76 77 75 72 70 66 62 61 60 64 59 55 56 66 69 66 61 63 66 66 64 61 
61 66 70 67 64 67 74 76 78 78 77 75 71 61 54 56 65 71 67 57 53 57 63 66 67 65 
60 53 42 33 29 29 29 30 34 39 48 62 75 81 81 78 76 73 69 62 52 45 44 45 49 52 
52 55 58 61 61 65 70 72 70 68 67 69 73 76 71 65 63 67 71 70 66 70 78 78 73 72 
77 77 73 69 70 73 75 77 78 77 73 70 71 74 78 78 72 66 61 59 63 61 58 57 62 68 
73 72 69 67 67 68 66 63 63 68 69 65 64 71 76 77 78 79 80 78 70 59 53 56 61 66 
66 63 60 62 66 69 70 70 69 64 56 46 41 39 34 31 33 42 50 60 70 74 73 69 65 61 
59 58 54 50 47 47 46 42 40 43 52 57 60 64 71 76 75 73 70 66 68 72 75 71 68 69 
75 77 74 74 72 68 65 72 76 74 66 66 72 79 81 82 81 79 74 70 68 72 77 78 73 65 
62 63 72 61 58 61 67 72 72 72 69 66 66 69 69 64 63 66 67 62 59 63 67 68 71 75 
76 74 68 60 55 54 55 59 66 69 66 63 64 64 64 65 69 71 67 62 57 49 37 27 29 37 
44 50 57 62 63 61 57 54 54 58 57 54 51 49 43 37 33 38 47 54 56 59 67 72 71 69 
65 61 59 65 71 71 65 65 72 79 79 74 68 61 63 71 76 68 60 61 70 76 77 74 73 71 
70 70 71 71 72 73 70 67 69 73 77 62 59 62 68 70 68 65 64 62 64 69 69 63 60 63 
65 62 61 62 61 61 63 65 64 63 63 61 59 57 55 59 65 66 63 59 59 58 54 53 59 68 
72 71 68 59 43 31 28 32 34 38 45 51 52 53 53 52 54 53 52 50 51 49 44 38 39 45 
54 59 58 58 62 66 65 65 65 62 62 67 71 67 61 60 68 75 75 70 63 59 63 73 76 68 
58 59 66 69 68 65 63 63 65 73 77 75 71 69 67 67 73 79 74 63 59 62 68 68 64 60 
60 61 63 67 67 63 61 64 66 67 67 68 65 60 58 57 55 56 62 65 64 61 62 63 61 56 
55 58 60 57 50 47 52 62 70 72 71 65 54 43 37 33 30 32 39 44 46 50 55 58 57 53 
45 45 49 52 48 47 50 57 66 70 66 61 64 66 65 65 71 72 71 73 74 68 60 60 66 69 
66 63 62 62 67 76 79 72 63 65 69 70 66 66 66 64 66 74 80 77 71 67 63 61 66 73 
68 65 62 66 70 70 64 59 58 60 62 64 67 67 66 66 67 69 70 69 64 58 58 59 60 62 
66 69 67 64 64 62 55 49 56 63 65 59 53 50 53 60 66 69 69 67 63 55 46 37 33 34 
36 38 41 50 60 66 66 59 52 52 58 58 55 56 60 63 68 71 70 68 71 71 66 68 75 79 
76 74 74 69 65 63 64 62 60 61 64 67 72 78 79 72 70 74 79 74 69 69 70 66 65 69 
73 70 68 68 64 58 58 66 70 69 68 69 71 69 65 60 59 60 60 61 63 67 67 66 68 68 
64 58 53 54 61 68 70 68 69 71 70 66 64 62 56 57 65 74 69 59 55 55 58 61 64 66 
67 67 66 59 48 38 37 39 38 36 42 53 63 68 68 68 66 68 69 62 58 61 65 63 61 67 
71 74 78 75 67 66 74 79 74 70 69 71 70 68 63 58 57 60 63 67 71 74 72 69 71 80 
82 76 70 68 65 61 59 61 60 60 65 73 74 64 59 63 68 69 68 67 63 61 61 63 64 64 
61 57 58 61 63 65 68 67 60 51 48 53 63 72 72 68 66 71 73 70 68 67 66 68 75 77 
70 61 57 60 63 62 61 62 66 68 68 61 47 40 43 49 48 47 54 63 66 62 64 67 73 76 
73 64 59 65 68 63 58 63 71 76 79 75 67 63 71 75 73 65 65 70 74 72 64 58 58 60 
59 61 67 69 68 67 73 79 80 77 74 69 63 58 59 58 55 56 68 78 78 68 56 60 61 62 
64 59 54 52 56 60 65 66 63 58 58 61 63 64 68 68 63 58 56 59 65 69 68 63 63 69 
73 71 70 72 74 71 70 71 71 68 66 68 70 66 60 59 65 71 71 64 51 46 51 60 62 62 
66 72 68 60 58 64 68 73 72 68 66 69 70 63 59 62 67 71 73 72 65 62 65 71 68 63 
63 69 76 74 66 58 62 64 62 60 65 69 68 69 73 77 78 78 78 74 67 68 68 64 56 60 
70 74 69 56 46 50 58 56 59 57 52 52 52 55 59 64 65 64 65 68 67 65 68 70 69 68 
67 66 66 67 67 65 64 68 69 66 66 72 73 67 60 63 71 75 73 74 76 71 63 60 64 69 
71 66 57 52 58 64 66 65 68 72 69 62 61 64 66 69 72 73 72 72 69 64 61 63 63 63 
65 65 63 61 63 66 64 59 60 69 76 75 66 61 68 74 71 67 70 72 69 68 71 74 76 77 
75 71 72 76 76 64 56 61 69 66 56 48 44 49 58 57 58 56 57 57 56 54 58 66 68 67 
70 74 71 68 70 72 71 69 68 67 66 70 72 71 68 67 65 61 62 69 71 65 58 63 72 76 
71 71 72 71 65 64 65 67 67 65 60 57 58 61 62 62 65 68 69 68 69 69 68 71 72 73 
70 67 66 66 69 69 66 62 61 62 64 65 67 66 60 54 57 68 76 74 66 64 71 79 76 73 
73 74 70 66 66 70 72 71 66 63 68 75 72 60 55 62 70 65 58 56 56 57 55 62 58 56 
59 64 63 62 66 71 69 64 66 72 72 71 73 75 71 66 64 64 65 70 74 74 70 66 61 57 
58 64 67 64 62 65 70 69 64 62 65 66 66 68 70 69 67 63 60 58 56 56 59 66 70 71 
70 71 72 69 68 71 74 69 62 60 62 68 75 79 76 70 63 63 67 72 72 68 61 53 55 65 
74 73 70 69 73 75 72 69 72 74 72 69 68 67 67 66 63 63 68 73 68 61 59 68 74 73 
69 69 65 60 53 66 60 57 60 67 69 69 70 71 65 59 60 67 71 70 73 75 70 65 65 64 
61 61 65 68 69 65 58 54 55 59 61 60 60 63 65 63 60 60 62 64 67 73 75 74 69 63 
60 59 57 56 62 71 76 72 70 70 70 64 62 69 75 72 64 61 62 67 75 81 82 76 68 66 
72 75 74 70 66 60 58 64 70 74 75 77 76 72 66 62 64 67 72 75 73 67 62 62 64 68 
74 76 72 66 67 72 74 73 73 72 67 56 57 65 63 60 62 67 69 66 64 64 61 59 61 66 
67 66 70 72 70 68 69 68 59 53 55 64 70 71 63 58 56 57 57 55 54 57 61 62 61 61 
64 66 69 73 74 72 65 58 57 62 64 62 63 70 71 68 65 69 69 62 60 69 77 76 72 69 
66 65 68 74 77 75 69 70 74 76 72 72 74 72 67 66 67 72 77 78 76 73 67 62 59 61 
68 76 76 67 60 60 63 69 75 77 72 68 67 68 66 67 72 74 68 60 64 64 64 64 64 68 
68 61 56 56 59 62 65 66 65 65 69 72 71 69 71 69 61 53 53 62 73 76 72 65 61 59 
57 53 52 58 65 66 62 61 64 67 68 69 68 65 59 54 56 65 70 68 64 65 67 66 65 65 
64 60 63 71 75 73 74 76 72 66 64 66 68 67 67 69 74 75 72 72 77 78 74 69 68 69 
71 70 69 71 71 67 62 61 65 70 70 64 60 60 63 68 73 74 70 65 64 63 59 60 68 76 
73 67 65 64 64 64 64 66 67 64 58 56 56 60 64 66 65 65 67 70 69 67 66 65 61 56 
54 59 68 74 74 69 64 61 60 56 55 63 73 70 62 57 61 64 65 65 67 68 64 61 63 69 
72 68 61 60 65 69 68 62 56 55 62 70 70 65 69 77 77 69 65 65 64 64 65 68 73 74 
71 71 72 73 72 71 69 67 64 60 60 64 69 70 68 66 65 64 62 60 61 65 69 72 75 74 
71 69 70 66 59 55 63 70 72 67 67 67 65 63 61 62 67 69 67 60 56 57 63 66 65 61 
59 60 63 65 64 62 61 60 57 56 59 66 71 70 64 62 62 60 59 67 74 70 58 53 58 62 
62 66 72 77 76 73 72 74 72 64 55 52 58 68 70 62 53 53 60 69 66 61 64 75 77 72 
67 67 66 64 64 66 70 71 72 69 67 64 64 66 68 65 61 60 59 63 66 69 69 69 68 66 
63 64 65 68 73 78 80 77 75 76 78 74 63 57 59 64 65 66 72 66 66 64 60 60 65 70 
68 61 55 58 65 69 65 57 52 53 60 69 72 69 67 69 69 62 59 63 71 70 65 63 64 62 
61 67 71 65 57 57 63 66 66 68 75 78 74 72 72 74 72 64 53 44 49 60 70 67 60 56 
62 69 68 60 63 72 75 71 67 67 67 66 65 65 66 69 72 72 68 62 60 62 64 63 62 64 
69 70 70 68 66 67 69 71 73 73 70 67 69 77 80 78 74 75 77 74 69 65 65 65 67 70 
73 61 64 65 63 60 62 63 61 55 54 61 70 73 68 62 57 58 65 73 79 76 74 78 80 73 
63 63 69 68 64 64 66 64 63 65 65 61 59 65 70 71 67 68 69 68 64 61 64 69 71 67 
58 50 49 58 68 71 65 61 65 71 71 63 63 69 73 70 68 69 68 68 67 65 64 66 70 73 
72 69 66 65 63 61 62 68 73 75 73 68 61 60 66 72 75 75 71 65 66 72 77 76 75 73 
70 67 68 71 72 70 69 71 67 55 59 62 63 62 61 58 53 52 57 67 75 76 73 70 69 68 
68 69 70 71 73 81 84 77 66 64 63 62 62 68 70 67 64 63 60 58 60 66 68 65 61 61 
61 60 58 58 60 65 67 67 65 62 62 64 69 70 67 65 67 72 72 69 67 72 74 73 72 72 
71 71 72 70 67 66 68 71 74 76 74 69 64 61 63 67 72 73 73 68 61 59 65 69 69 68 
67 68 68 71 73 75 76 75 67 62 65 70 70 68 67 67 62 53 52 55 57 60 60 55 52 55 
65 74 79 78 74 72 72 71 64 57 56 61 70 79 82 76 71 67 62 58 65 74 76 69 66 64 
61 59 61 62 59 56 58 59 59 59 63 64 65 63 61 60 63 68 71 71 70 71 71 70 69 70 
72 73 75 78 78 74 73 72 72 74 78 79 76 71 70 72 76 78 75 70 64 60 62 66 67 69 
73 74 68 66 70 71 66 62 64 69 72 69 66 67 75 74 67 61 66 68 65 64 66 64 63 50 
50 51 54 58 59 55 54 59 68 74 76 75 72 67 66 66 63 54 51 58 70 77 77 76 76 73 
65 63 72 81 76 70 68 68 64 64 67 64 56 55 59 63 60 62 66 69 65 61 57 56 59 66 
71 71 70 73 77 75 70 68 69 74 79 81 77 71 67 68 68 72 79 84 81 74 72 75 77 76 
72 69 65 62 64 66 66 68 75 79 76 74 75 74 68 62 62 67 69 65 58 60 65 66 58 58 
65 66 60 61 65 66 63 49 52 54 56 59 60 59 60 63 66 67 68 72 71 66 63 66 67 64 
59 63 70 74 74 75 78 74 66 66 77 82 76 71 73 70 64 64 72 70 63 59 63 64 62 62 
67 68 63 58 58 60 63 67 70 70 71 76 80 81 75 69 68 70 75 75 70 64 63 63 64 68 
77 80 74 67 67 71 74 72 71 73 73 71 68 67 67 70 75 78 79 76 74 71 67 62 60 60 
63 61 57 57 60 57 50 51 59 57 51 50 59 63 60 48 54 58 60 61 62 65 68 68 65 59 
60 65 71 68 67 70 76 73 68 66 68 70 70 73 75 71 63 62 72 76 74 75 80 74 60 62 
72 77 71 67 67 67 65 66 70 70 64 62 64 68 70 73 74 73 72 75 81 84 82 74 69 67 
71 71 67 63 65 67 67 71 75 72 62 56 56 61 65 67 72 78 81 76 70 66 68 71 72 74 
77 79 74 68 64 63 60 59 61 63 63 61 60 57 51 50 52 48 40 38 46 55 60 50 53 60 
63 63 64 67 71 71 67 60 55 59 65 67 68 73 76 74 68 64 65 66 68 70 73 71 63 61 
63 67 68 76 85 79 66 63 71 78 76 71 70 71 71 71 73 74 70 68 71 73 75 78 80 76 
70 71 77 82 81 75 69 69 73 75 71 70 75 79 78 75 74 68 60 57 59 60 60 64 70 76 
78 73 65 63 68 71 70 70 77 80 76 68 67 69 68 64 64 67 68 64 61 60 61 58 55 48 
38 34 39 53 65 51 54 61 67 66 66 68 69 70 72 68 61 56 59 63 67 69 69 66 63 62 
62 63 64 65 68 71 71 67 65 63 63 70 80 83 75 69 70 72 71 68 68 71 71 71 72 74 
73 71 71 72 73 78 80 74 65 64 71 75 73 69 69 71 75 78 76 76 81 85 80 73 69 68 
71 73 74 70 64 64 67 69 69 65 62 63 67 71 70 73 78 80 74 69 69 72 72 69 67 70 
72 67 60 61 65 67 63 56 48 41 45 57 65 52 54 62 68 68 68 68 66 69 76 79 71 64 
62 66 68 67 64 62 62 62 62 61 59 57 59 67 73 75 72 68 65 67 74 80 80 72 65 63 
61 58 59 63 66 65 68 71 71 69 69 70 70 74 76 70 62 63 69 70 66 66 69 72 72 73 
74 74 78 79 74 64 61 68 78 85 83 77 70 67 68 68 65 62 62 65 69 70 74 79 84 81 
73 67 66 66 66 66 68 74 78 72 62 58 64 67 65 61 56 53 54 60 
