P2
112 112
255
64 66 65 65 65 65 64 63 62 65 65 64 62 60 62 64 65 63 62 60 61 62 64 66 64 63 
63 63 64 66 67 67 67 68 67 65 64 64 65 64 62 62 62 63 63 64 64 65 65 65 64 63 
64 64 64 64 65 66 65 64 64 65 65 64 61 59 59 59 61 61 62 66 69 67 65 65 66 65 
63 64 66 68 68 67 67 67 67 65 64 66 67 66 65 64 65 66 66 65 63 63 64 64 62 61 
63 63 62 62 62 62 63 65 62 63 64 64 64 64 65 65 64 66 65 64 61 59 59 62 64 63 
64 63 60 59 61 63 64 63 63 63 64 65 63 64 65 66 66 65 64 65 65 65 64 64 63 62 
60 61 63 64 63 62 60 60 62 63 63 63 65 67 66 64 63 64 65 64 61 59 59 60 62 62 
63 65 66 65 65 66 66 63 61 63 66 66 65 64 65 65 65 65 66 67 67 67 67 67 67 67 
67 65 64 64 63 62 62 64 66 66 65 64 66 64 63 62 62 62 66 63 63 63 65 65 63 64 
64 64 61 59 60 62 64 65 65 64 60 59 61 64 65 65 65 64 65 62 61 62 63 64 65 65 
65 66 67 67 68 68 67 62 59 59 61 62 61 59 57 57 59 61 60 61 64 66 65 62 61 63 
64 64 62 60 60 60 60 59 60 63 64 63 62 63 62 60 61 63 64 64 63 63 63 63 63 65 
66 64 63 64 65 66 67 68 67 67 66 64 63 61 62 64 66 67 67 66 68 66 63 60 63 61 
66 65 66 66 66 66 65 64 65 65 64 64 65 64 63 62 64 65 62 60 63 65 66 65 64 64 
63 63 63 63 63 64 64 65 65 65 66 67 68 68 66 63 60 60 60 60 59 58 57 58 61 62 
60 60 61 62 61 60 60 62 64 64 63 62 61 60 59 58 58 58 60 61 61 61 61 63 62 61 
62 63 63 63 63 63 63 64 64 62 62 64 64 63 64 66 66 64 64 65 64 63 63 64 66 68 
66 64 67 66 63 60 64 62 65 65 66 64 64 66 67 65 65 64 64 66 68 64 61 60 64 65 
63 63 65 67 67 67 65 65 65 64 64 64 64 62 61 62 63 64 64 65 66 66 64 63 62 61 
60 60 59 58 58 60 62 62 60 59 60 60 59 57 58 60 62 62 61 61 60 60 59 58 57 57 
59 60 60 60 61 63 62 61 61 62 62 63 63 63 65 65 64 62 63 65 65 63 63 64 65 64 
63 63 64 65 64 63 64 67 66 64 66 66 64 61 65 63 63 64 64 63 63 64 67 65 64 62 
63 66 67 64 62 62 66 66 65 65 66 68 68 68 67 66 64 64 64 65 65 62 60 60 61 62 
63 63 64 63 62 62 62 62 61 61 61 60 60 61 62 61 59 59 60 60 58 57 58 59 60 60 
59 59 60 61 61 60 58 58 61 63 62 61 61 62 62 60 61 61 61 62 63 64 64 64 63 63 
64 66 64 62 62 63 65 66 65 64 64 66 66 64 62 64 65 65 66 68 67 64 64 63 62 63 
63 62 62 63 65 66 65 65 66 67 65 64 63 63 66 67 66 65 66 67 67 67 66 66 65 63 
64 65 65 63 61 61 61 62 63 63 62 62 61 60 60 61 63 64 63 61 61 62 62 61 60 60 
60 59 58 58 58 59 60 60 59 59 59 60 61 60 59 59 61 64 65 63 62 61 60 60 60 60 
59 59 62 64 64 63 63 63 65 66 64 63 62 62 63 63 65 65 65 65 66 65 63 63 64 64 
65 66 66 64 63 64 64 64 63 62 63 64 64 66 67 68 68 66 64 64 64 65 65 66 66 66 
65 66 66 65 67 66 65 63 64 65 65 64 62 61 61 62 63 62 62 62 61 59 58 59 63 65 
63 61 60 61 62 62 61 61 60 58 57 58 59 60 60 60 59 58 58 58 59 59 57 57 59 63 
65 64 62 61 61 60 60 60 60 60 61 64 64 63 62 62 64 65 65 64 64 64 64 64 65 66 
66 66 66 66 64 63 62 62 61 63 64 62 64 66 66 63 62 63 64 63 63 65 67 68 66 64 
63 64 66 65 64 64 65 65 66 67 68 67 66 66 66 65 64 64 64 63 62 60 60 62 63 62 
61 62 62 60 58 59 62 63 61 58 58 60 62 63 63 62 59 57 57 58 59 59 59 59 58 58 
57 56 57 57 56 56 58 62 64 65 63 62 61 60 59 59 59 60 62 64 64 62 60 62 64 64 
65 65 66 66 64 63 64 66 67 67 66 65 65 65 63 61 61 64 63 60 66 67 68 64 62 64 
64 63 62 64 66 66 64 62 63 65 66 65 64 64 64 64 65 69 70 69 67 66 66 65 63 62 
62 62 61 59 59 61 63 63 62 61 61 61 60 59 60 61 59 58 59 60 62 64 64 61 58 58 
59 60 60 59 59 58 58 58 57 57 57 57 57 57 59 61 63 64 63 61 61 59 57 56 57 59 
61 64 64 63 62 63 64 64 65 65 66 66 65 63 64 67 70 69 66 64 65 66 64 61 62 65 
64 62 66 66 68 65 64 65 65 63 63 64 65 65 64 63 63 64 65 64 64 64 65 64 66 67 
69 69 68 66 65 63 61 60 60 60 60 58 58 60 62 63 62 61 60 61 61 60 61 61 61 60 
60 61 62 62 61 59 57 58 61 61 59 58 58 58 59 59 58 57 57 57 58 59 60 61 62 62 
61 60 60 59 57 55 55 57 60 62 63 64 63 63 63 64 65 65 65 65 65 65 65 68 70 69 
66 63 65 67 66 63 64 65 64 64 65 65 66 65 66 66 66 64 63 65 65 65 64 64 64 63 
63 63 63 63 65 65 65 66 66 68 68 67 64 62 60 59 59 59 59 59 58 59 61 62 61 59 
59 60 61 61 61 61 61 60 61 61 60 59 58 57 57 59 61 61 58 56 56 58 59 59 57 55 
55 57 59 60 59 59 60 60 60 61 61 61 59 57 57 57 59 61 63 63 64 64 63 64 66 66 
64 63 64 65 66 67 68 68 66 65 66 68 67 66 65 65 64 63 63 65 64 63 64 66 66 64 
63 65 65 64 64 65 63 62 61 62 62 63 66 67 66 65 65 67 68 67 65 62 61 60 59 59 
59 60 59 59 60 61 60 59 59 60 60 60 60 59 58 57 58 59 59 57 57 57 58 59 59 58 
56 54 54 56 58 58 56 54 55 57 60 59 58 57 58 59 60 62 62 62 60 59 58 58 59 60 
62 63 65 65 64 65 66 66 64 63 64 65 66 65 66 67 67 67 67 67 66 65 65 66 65 63 
64 64 64 61 63 66 66 63 62 64 65 65 65 66 63 61 61 62 64 65 67 68 67 66 65 67 
67 67 65 63 62 61 61 60 61 61 60 60 60 60 60 60 59 60 59 58 57 56 55 56 58 59 
58 57 57 58 58 58 57 58 58 56 55 56 56 56 55 55 56 59 60 59 56 56 57 58 59 60 
60 60 59 59 59 58 58 60 62 63 64 65 65 65 67 67 64 63 63 65 65 64 65 67 68 67 
66 66 64 64 65 68 67 64 64 64 64 62 64 66 66 62 61 63 65 66 66 66 64 62 62 63 
65 66 66 67 66 65 65 65 66 65 65 63 63 63 63 61 60 60 59 59 59 60 60 60 59 59 
58 57 56 55 55 57 60 61 59 57 57 57 57 56 56 57 59 58 57 56 55 55 55 56 58 60 
60 58 56 57 58 58 57 57 57 57 58 59 59 59 59 61 63 64 65 66 66 66 67 66 63 63 
63 63 64 64 65 66 67 66 65 64 64 64 66 68 66 63 63 64 64 63 65 66 65 62 62 63 
64 65 66 64 64 64 63 63 63 64 65 64 64 65 65 65 65 64 64 63 62 63 63 61 59 58 
59 59 59 59 60 59 58 58 58 57 56 55 56 59 61 60 58 56 56 56 56 55 55 56 56 56 
56 54 53 53 55 56 58 59 59 58 57 58 59 58 56 56 56 57 58 60 60 60 61 63 65 66 
67 66 66 67 67 66 62 61 62 63 63 63 64 64 65 66 66 66 65 65 65 65 63 61 62 65 
65 64 66 66 64 63 64 63 63 65 66 63 63 65 64 63 63 64 64 63 63 65 67 66 65 64 
62 60 61 62 62 60 58 59 60 61 60 59 60 59 58 58 58 58 57 57 58 58 58 57 56 54 
54 55 54 52 52 52 52 51 51 50 50 51 53 55 56 56 57 57 58 59 60 58 57 57 58 59 
59 60 61 62 63 64 65 67 67 66 65 66 67 66 64 62 61 62 63 63 62 62 63 65 66 67 
66 67 66 64 62 61 61 65 66 66 67 67 64 65 66 64 65 67 66 62 63 64 64 63 64 65 
64 62 63 65 66 65 65 63 61 59 59 59 59 59 59 61 62 62 60 59 59 58 57 56 58 58 
58 58 58 57 56 54 53 52 53 53 50 47 45 47 48 48 47 46 47 48 50 52 53 53 54 55 
56 58 59 58 56 57 59 61 60 60 60 62 62 62 63 65 65 64 63 64 66 67 65 63 61 61 
62 62 61 59 60 62 63 64 65 67 68 66 64 63 63 66 67 66 67 67 65 66 67 66 67 68 
67 63 63 63 63 62 63 65 64 62 63 64 64 64 64 63 61 60 59 59 58 58 59 62 62 61 
59 57 57 56 55 54 55 56 57 57 57 56 55 53 51 49 50 50 46 42 40 42 45 47 46 45 
46 46 47 48 50 51 51 51 53 56 58 57 55 56 58 60 60 60 60 61 61 62 62 63 63 62 
62 63 64 65 65 64 62 61 62 63 62 60 59 60 60 61 63 67 68 67 65 64 65 66 66 65 
66 66 65 65 66 67 67 67 66 64 63 62 61 60 62 63 63 62 63 64 64 63 62 62 61 61 
61 60 58 58 59 61 62 61 59 57 57 56 54 52 53 53 54 54 54 54 53 52 49 46 45 46 
44 41 40 42 45 47 46 45 46 46 46 47 48 49 48 49 51 55 56 56 54 55 56 58 59 59 
59 60 61 62 64 64 63 61 62 62 63 63 64 65 64 63 64 64 63 62 61 61 62 62 63 66 
67 67 66 65 64 65 65 63 65 66 65 64 65 68 67 65 65 65 64 62 60 61 62 63 63 63 
64 65 65 64 62 60 60 61 62 62 61 59 59 59 61 62 60 59 58 56 53 51 50 51 51 52 
52 51 51 50 46 41 40 41 42 43 44 46 48 49 47 46 47 47 47 47 47 47 47 48 51 53 
54 55 54 54 54 55 57 57 57 58 59 62 64 63 62 60 61 61 61 61 63 65 66 65 65 65 
65 63 63 63 65 65 65 66 66 66 65 64 62 62 64 62 63 65 65 64 66 68 66 64 64 65 
63 61 61 62 63 63 63 63 64 65 65 64 62 59 59 61 62 62 61 60 58 57 59 61 61 60 
58 56 52 49 49 50 51 52 51 50 49 48 44 40 38 39 42 47 51 54 55 55 53 51 50 51 
50 47 46 46 47 49 50 51 52 52 52 52 53 55 56 56 55 56 57 59 60 60 60 59 59 59 
60 61 62 64 66 66 65 65 66 65 63 63 64 65 66 66 66 64 63 62 61 61 63 63 63 66 
65 64 66 68 67 66 66 66 63 60 61 63 63 62 63 62 62 62 63 63 62 60 60 60 60 59 
59 58 56 55 57 58 58 57 56 54 51 49 48 50 52 53 52 50 48 46 45 44 44 45 48 54 
60 63 64 64 62 59 57 55 52 49 46 47 49 50 50 50 50 50 50 50 52 54 56 57 56 56 
56 58 58 58 58 58 57 57 59 61 62 63 64 65 65 65 65 64 63 63 63 63 64 66 67 64 
62 61 61 62 64 64 64 66 65 64 66 68 69 68 67 67 64 61 61 62 62 61 61 60 59 59 
60 62 61 60 59 59 58 57 56 55 54 54 55 55 54 53 53 53 51 49 48 50 52 53 52 50 
48 46 47 50 53 55 60 66 72 75 76 76 73 68 63 59 54 49 47 48 50 51 51 50 50 50 
50 49 50 53 55 57 57 56 56 57 58 57 56 56 56 57 59 61 61 62 64 66 66 65 65 65 
64 63 62 62 63 66 67 64 63 62 62 64 65 65 64 67 65 64 66 68 69 68 67 67 66 64 
64 63 62 61 60 61 60 59 60 61 61 60 58 56 56 56 54 53 53 54 55 53 52 52 53 53 
50 48 48 49 50 51 50 49 47 46 49 54 59 65 72 80 85 88 89 88 83 75 67 60 53 47 
46 47 48 49 50 51 52 53 52 51 51 51 53 56 57 55 55 57 57 56 55 56 57 57 59 60 
61 62 64 66 66 66 67 67 66 65 63 63 63 65 66 65 64 62 63 64 67 66 65 67 65 64 
67 68 68 67 67 67 67 66 64 64 63 62 62 62 62 61 60 61 62 60 57 56 56 56 54 52 
52 54 54 53 52 53 54 52 50 49 49 50 49 48 47 46 45 46 49 55 61 71 82 93 99 102 
103 100 92 80 69 59 50 44 42 43 44 45 48 51 54 55 55 54 52 51 53 55 56 54 54 
56 56 56 55 57 58 58 58 59 61 62 64 66 66 66 67 68 68 66 64 63 62 63 64 66 65 
63 64 65 67 68 67 66 65 64 67 67 66 66 67 66 66 64 62 62 63 63 62 62 62 61 61 
62 62 61 59 58 59 58 54 51 51 53 53 52 51 53 54 52 50 50 52 52 50 48 46 43 42 
44 49 55 63 76 90 103 111 114 115 110 100 86 72 60 49 42 38 37 38 41 45 49 52 
53 53 53 53 53 53 55 55 54 54 55 56 56 57 58 59 58 57 57 59 61 64 65 65 64 66 
69 70 67 64 62 62 63 64 65 66 65 66 66 66 67 67 66 65 65 67 65 64 65 65 65 64 
61 60 61 63 62 61 59 59 59 60 61 61 60 59 60 61 59 55 52 52 53 53 51 49 50 52 
52 51 51 53 53 52 50 46 43 41 44 49 57 68 83 98 112 120 123 123 118 107 92 77 
62 50 41 36 34 35 38 42 46 49 50 50 51 53 54 54 53 53 53 55 56 56 57 57 58 58 
58 57 56 57 59 62 63 62 63 65 68 69 68 65 63 64 65 65 65 66 67 66 67 64 65 65 
64 65 65 66 65 65 64 63 63 63 62 61 61 62 61 59 57 56 56 57 59 60 59 59 60 61 
59 55 51 51 52 52 50 48 48 50 52 51 51 51 51 52 49 45 41 41 45 52 63 77 92 108 
121 129 131 130 124 113 98 81 65 51 41 36 33 33 36 40 44 47 49 49 50 52 54 53 
51 50 51 53 55 56 57 57 57 56 56 56 56 56 58 60 60 60 62 64 66 67 66 66 66 67 
68 68 66 66 67 66 66 63 63 63 64 64 64 66 68 68 65 61 62 65 66 65 64 63 60 59 
58 56 55 56 58 60 59 58 58 58 57 54 50 49 49 51 51 49 47 49 52 53 52 51 50 50 
46 41 39 41 48 57 70 86 104 120 132 138 140 136 129 117 102 84 67 52 43 36 32 
31 34 38 43 47 50 50 51 52 53 52 50 49 50 52 55 57 57 57 57 56 56 57 57 58 59 
60 60 61 62 63 63 63 64 66 67 68 69 68 68 66 67 65 65 63 63 63 63 62 64 67 70 
70 66 62 63 66 68 67 64 62 60 59 60 59 57 57 59 60 60 57 55 55 54 53 51 49 50 
52 53 51 49 50 53 55 55 53 51 49 45 40 39 44 52 63 78 97 116 131 142 148 149 
144 134 122 105 86 68 54 45 37 31 29 31 35 39 43 47 49 50 51 53 53 51 51 51 53 
56 57 57 58 58 58 57 58 58 59 61 62 62 61 61 61 60 60 62 65 66 65 66 67 68 67 
66 66 66 63 64 64 63 64 65 66 68 68 65 64 64 66 67 66 64 61 59 60 61 61 60 59 
60 59 58 56 54 52 52 53 54 53 52 53 55 54 52 52 54 57 57 55 52 50 47 43 43 50 
59 72 89 109 127 142 151 158 158 152 141 126 108 89 71 58 48 39 31 28 29 31 34 
37 42 46 48 51 54 55 54 54 53 53 55 56 56 58 60 60 59 58 58 59 60 62 62 60 60 
61 61 62 63 65 65 64 65 67 68 67 65 68 67 65 66 64 66 65 65 65 64 64 64 65 65 
64 63 63 63 63 61 60 61 63 63 61 59 56 55 55 54 52 52 54 56 56 54 53 54 55 55 
56 58 59 58 54 52 52 51 50 52 58 69 82 100 120 139 153 163 168 168 161 148 132 
114 95 78 63 51 41 32 28 28 29 30 32 38 43 47 51 55 57 57 55 54 52 52 54 55 57 
59 60 59 59 58 57 57 59 59 57 59 62 65 65 65 65 64 64 65 67 68 67 66 69 68 65 
65 64 66 65 65 63 62 62 64 66 64 61 60 61 63 63 61 60 61 63 63 61 57 53 52 54 
55 53 53 55 56 55 52 51 53 55 57 60 63 62 58 55 53 54 55 57 61 69 80 94 110 
130 150 165 176 181 180 172 160 145 126 108 90 74 59 45 35 29 28 28 28 30 34 
39 44 49 53 56 56 55 53 51 51 53 55 57 58 58 59 60 59 57 56 57 57 57 59 64 67 
66 65 64 64 63 65 67 67 66 67 70 68 64 64 65 66 66 64 63 62 63 64 64 63 61 60 
61 62 62 60 59 60 61 61 59 56 52 51 53 55 54 54 55 55 54 52 52 54 55 57 62 66 
66 63 60 59 60 62 66 72 80 92 107 124 143 163 180 193 199 197 190 179 165 148 
129 111 92 74 57 43 34 29 27 27 29 32 36 40 45 49 52 54 54 53 52 52 54 56 56 
56 57 59 60 60 59 58 59 59 59 60 64 66 65 64 63 63 63 64 66 66 66 68 68 68 65 
65 66 65 65 64 63 62 62 61 61 61 62 62 61 61 60 59 59 59 59 58 57 56 53 51 50 
52 53 53 53 53 53 54 56 57 56 57 62 68 70 70 68 68 68 69 74 81 91 105 121 140 
161 181 198 212 219 219 213 203 190 173 156 137 116 95 74 56 41 32 27 27 28 31 
33 36 41 45 50 53 54 54 55 56 56 55 54 55 57 59 60 60 60 60 61 62 62 62 64 64 
64 63 63 62 63 64 66 66 67 69 68 67 64 64 65 64 64 64 62 61 60 59 60 62 63 63 
61 61 61 61 61 60 58 55 55 57 55 52 48 48 50 51 51 50 52 56 60 61 60 60 64 69 
74 75 75 74 73 75 80 89 101 117 137 158 180 201 219 232 239 240 234 225 213 
199 183 165 144 120 96 72 52 38 28 25 26 29 33 36 39 44 49 53 55 56 57 58 57 
55 53 54 56 59 59 59 59 60 62 63 63 62 63 63 63 63 63 63 63 64 66 68 68 70 67 
66 63 63 64 63 64 64 62 60 59 60 61 63 63 61 60 60 62 63 62 61 58 55 55 57 57 
53 48 47 48 50 49 49 52 57 61 64 65 66 69 73 76 78 77 76 75 78 84 94 109 128 
151 174 197 219 237 248 253 253 248 242 232 221 208 194 174 149 120 92 67 47 
32 24 22 25 30 35 40 45 50 53 54 54 56 58 58 55 52 52 55 58 58 58 58 59 61 62 
62 61 62 62 63 63 64 63 62 62 64 68 68 68 66 64 63 65 65 64 64 64 62 60 60 61 
62 63 61 59 58 60 61 61 61 61 60 56 54 55 56 53 49 48 49 50 49 50 54 59 64 67 
69 72 75 77 78 78 77 77 79 81 87 98 114 136 160 183 208 231 247 255 255 255 
255 252 247 239 231 221 204 179 149 117 87 61 39 25 18 20 25 32 39 46 49 50 50 
50 52 55 57 54 52 52 54 56 57 57 57 58 60 62 62 61 61 62 63 64 65 64 62 61 63 
65 65 65 65 64 64 65 66 65 64 64 63 62 62 62 62 62 61 60 60 59 59 59 61 62 61 
58 53 52 52 51 49 49 50 51 51 54 58 63 66 70 73 76 78 80 79 77 75 78 81 83 89 
100 118 140 164 186 210 231 247 255 255 255 255 255 255 254 250 244 231 208 
178 144 110 78 50 29 18 16 20 27 36 44 48 49 48 48 50 53 54 52 50 50 52 55 56 
56 57 59 61 63 63 63 63 64 64 64 65 64 62 61 63 64 64 63 65 64 62 64 66 65 64 
64 64 65 64 63 61 60 60 61 61 60 59 60 62 63 61 58 53 50 48 48 48 49 51 52 54 
57 62 65 68 71 75 78 79 80 79 76 74 77 79 81 87 99 117 139 162 184 205 225 240 
248 252 253 255 255 255 255 255 255 253 234 206 172 136 99 65 37 21 15 16 23 
32 41 46 48 49 50 51 52 51 48 47 48 51 55 56 57 58 59 62 63 63 63 64 65 65 65 
64 62 61 61 63 65 65 64 66 64 61 65 66 66 64 64 65 65 64 62 60 59 60 61 61 60 
59 61 62 61 59 57 53 50 48 46 47 48 50 53 56 61 65 67 69 73 77 80 80 80 78 74 
73 73 74 75 81 94 112 134 157 178 198 215 230 239 244 245 248 254 255 255 255 
255 255 255 231 198 162 123 83 48 25 15 14 19 29 37 43 47 50 51 52 52 50 47 46 
48 52 56 58 59 58 59 60 61 61 61 62 64 65 63 61 60 60 62 64 65 65 65 66 65 64 
66 67 66 64 63 63 63 62 61 60 59 59 61 61 59 59 60 61 58 56 54 53 51 49 47 46 
48 51 55 59 65 70 72 74 77 80 83 82 79 75 72 70 68 66 68 75 87 104 126 150 173 
191 207 220 230 234 234 237 245 255 255 255 255 255 255 252 221 185 145 101 
60 31 16 13 17 25 33 40 45 49 50 51 51 49 48 48 49 53 57 59 59 59 59 59 59 59 
60 62 64 63 62 60 60 62 64 64 65 65 67 66 66 67 67 66 64 63 63 62 61 61 61 61 
60 60 62 62 59 59 60 60 57 55 54 53 52 51 49 47 49 54 58 63 68 74 78 80 81 84 
85 83 77 71 67 65 62 59 61 68 79 94 116 142 166 184 199 211 220 221 220 223 
232 246 255 255 255 255 255 255 240 204 162 115 71 38 19 13 15 22 30 38 44 48 
50 50 50 50 50 50 52 54 57 59 59 59 59 59 60 60 62 63 63 62 61 61 62 64 65 64 
64 65 67 66 66 67 66 64 64 64 63 62 61 61 62 62 61 61 63 62 59 58 59 59 56 54 
54 54 53 52 50 49 51 56 61 66 71 77 82 83 84 85 86 83 76 69 64 60 55 52 54 60 
69 85 107 134 157 176 191 202 207 206 202 204 215 233 255 255 255 255 255 255 
253 216 171 123 78 43 22 14 14 19 28 37 44 49 51 51 50 50 51 52 53 54 56 58 59 
60 60 59 60 61 63 63 62 62 62 64 65 66 65 65 64 66 66 63 66 66 65 63 64 64 64 
62 61 61 61 60 60 61 63 62 59 58 58 57 55 53 54 54 53 52 50 49 51 57 63 68 72 
76 80 83 84 86 86 83 76 70 64 57 49 45 46 50 58 74 98 124 148 168 182 190 192 
188 182 183 195 216 243 255 255 255 255 255 255 221 174 125 80 46 24 15 14 18 
26 36 43 49 51 51 51 51 51 51 52 54 57 58 60 60 59 58 58 60 62 62 61 61 64 66 
68 67 66 66 66 67 66 62 66 66 65 63 64 64 63 62 61 62 62 61 60 61 62 60 58 57 
58 56 53 54 55 54 52 51 50 49 52 58 64 69 72 74 77 81 85 87 87 83 77 70 63 54 
45 39 37 39 47 64 88 114 138 158 171 177 175 170 164 164 176 199 229 255 255 
255 255 255 255 220 172 122 78 45 25 17 15 18 25 34 42 48 51 52 52 52 51 50 51 
55 58 59 60 60 59 57 56 57 60 61 61 62 64 65 66 67 67 68 66 66 65 61 65 67 64 
63 63 63 62 63 64 65 64 62 61 61 61 58 57 57 57 55 53 55 57 56 53 51 50 50 52 
57 64 67 69 72 75 80 86 89 88 83 77 69 60 50 40 34 31 31 38 55 78 103 127 148 
161 165 161 154 149 149 159 182 213 247 255 255 255 255 252 212 165 116 73 41 
24 18 17 20 26 34 41 47 51 52 52 52 51 50 52 56 59 59 58 59 59 58 56 57 60 63 
64 63 63 62 63 65 67 68 66 65 63 63 65 65 63 62 63 62 61 63 65 65 63 61 61 60 
59 57 56 57 57 55 54 56 58 57 54 52 51 49 51 56 61 64 66 70 74 79 85 89 88 84 
78 69 58 47 38 31 26 27 34 50 71 93 117 139 153 155 150 142 137 137 145 166 
197 232 255 255 255 255 238 199 154 106 64 35 21 17 18 22 28 35 40 45 49 52 53 
52 51 51 52 55 57 57 56 57 58 58 58 59 62 64 65 64 62 62 63 65 67 68 67 66 63 
65 66 64 62 62 61 60 59 61 63 63 60 59 58 58 57 56 56 58 58 55 53 54 56 55 53 
51 50 49 50 54 59 62 64 68 73 77 82 86 87 85 81 72 59 47 37 29 23 23 31 46 65 
85 108 131 145 147 141 132 126 127 135 154 184 219 249 255 255 253 224 185 141 
95 55 29 18 16 19 23 30 36 41 45 50 53 53 52 50 50 52 55 56 55 54 56 57 57 57 
60 62 64 64 63 63 63 64 66 67 69 68 66 64 64 67 65 62 62 61 60 59 61 61 61 59 
58 58 58 58 57 57 58 58 55 53 53 53 53 51 49 48 48 51 55 59 60 62 66 70 73 77 
82 86 87 84 75 61 48 36 27 21 21 28 41 59 80 102 123 137 139 131 122 117 119 
128 148 177 210 238 254 255 241 211 173 130 85 46 22 14 14 18 25 32 38 43 48 
52 55 54 51 49 49 52 55 57 56 56 57 57 56 57 59 61 62 62 62 63 63 64 65 67 68 
67 66 65 68 66 66 64 63 62 61 61 61 61 61 61 61 61 61 60 58 57 56 55 54 53 53 
53 52 51 48 47 49 51 55 57 57 57 61 65 69 73 79 83 85 83 75 62 49 37 27 20 19 
23 36 55 77 99 117 129 130 123 113 110 113 126 147 175 205 229 242 243 227 198 
161 118 75 37 15 8 10 17 26 34 40 46 51 55 55 53 50 48 48 52 56 57 56 57 57 57 
56 57 59 60 60 61 62 63 63 63 63 65 66 65 65 66 66 64 66 67 67 66 63 62 62 61 
61 63 64 63 62 60 59 56 54 53 54 54 54 54 54 52 49 47 47 49 51 53 53 52 55 60 
65 70 75 80 82 80 74 63 51 39 30 23 19 22 32 52 76 98 115 124 125 118 109 106 
112 127 151 179 206 224 233 231 214 183 145 104 63 29 8 2 6 16 27 35 40 46 51 
54 52 50 48 47 48 51 55 55 55 56 56 56 57 59 60 61 61 61 62 63 64 63 62 63 64 
64 65 67 65 64 66 69 69 68 65 63 62 61 61 63 64 62 60 59 57 55 53 54 55 56 55 
55 55 54 51 48 46 45 48 51 51 49 51 56 62 68 74 78 80 79 75 67 55 44 34 27 23 
24 33 53 79 103 120 127 126 119 112 110 117 135 161 190 213 228 232 225 204 
170 130 90 52 22 4 0 6 18 30 37 41 44 48 50 49 48 47 47 47 49 53 54 54 55 55 
55 57 60 62 63 63 61 61 63 64 63 61 62 63 63 65 66 66 66 66 68 69 68 65 63 63 
63 62 62 64 63 60 58 56 55 55 56 57 57 55 54 55 55 53 50 47 45 47 51 51 49 50 
55 60 66 73 78 80 81 79 72 60 48 38 30 27 29 41 62 89 115 132 139 137 129 122 
120 128 147 176 205 226 238 238 227 201 163 121 80 45 19 4 1 8 21 33 40 42 44 
47 49 48 47 47 46 46 48 52 54 55 57 57 56 57 59 62 63 63 60 59 61 63 62 61 62 
63 63 64 65 67 67 67 66 67 67 66 64 64 63 62 62 65 65 62 59 58 57 57 58 58 57 
55 55 57 57 55 52 49 47 48 51 51 50 51 54 58 64 71 77 79 81 80 74 63 51 42 35 
33 39 54 78 107 135 153 160 156 148 140 138 145 164 193 221 240 249 247 232 
203 163 119 76 40 15 4 4 11 22 34 42 44 46 48 50 49 48 47 46 46 48 52 55 57 58 
59 58 58 59 60 62 63 61 59 60 61 62 62 64 66 66 64 64 67 66 66 65 65 66 65 64 
63 61 60 61 65 65 63 61 60 59 59 58 57 56 56 56 56 55 53 51 49 47 48 50 50 50 
52 54 56 62 70 75 78 80 80 74 65 56 49 44 44 51 70 98 131 160 179 187 183 175 
166 163 169 186 212 237 253 255 254 237 206 166 120 75 36 12 3 5 13 23 35 43 
47 48 50 52 51 48 47 46 47 49 54 57 58 58 59 59 60 59 59 61 62 62 61 60 61 61 
63 66 68 69 66 64 66 64 64 63 63 64 64 63 61 59 58 60 63 63 61 60 60 60 58 56 
55 56 56 55 52 50 49 49 47 47 47 49 50 51 52 52 54 59 68 75 78 81 81 77 69 63 
59 56 56 65 86 118 155 186 205 213 210 202 194 191 195 211 232 250 255 255 255 
240 208 167 120 74 35 10 2 7 16 26 36 45 48 49 51 53 52 49 47 47 48 50 54 57 
58 58 59 61 62 61 60 61 62 62 61 61 61 62 64 66 68 70 68 65 66 63 63 62 61 62 
63 63 60 58 58 59 61 61 60 60 60 58 56 55 55 57 56 52 47 46 48 50 49 48 47 48 
50 52 52 51 51 56 65 72 77 82 84 81 76 71 69 69 71 81 104 138 177 210 229 235 
232 224 218 215 218 229 245 255 255 255 255 240 206 163 116 71 34 12 5 10 20 
29 37 44 48 48 49 52 51 49 47 47 48 51 54 57 57 57 59 62 63 63 61 61 61 60 59 
59 62 64 65 65 66 69 69 67 66 64 64 62 61 62 64 64 61 59 58 59 59 59 59 60 60 
58 56 55 55 57 56 52 47 46 49 52 52 50 49 48 50 52 53 50 49 54 61 68 74 81 85 
85 82 80 80 83 89 102 126 161 199 229 247 252 248 240 234 231 231 238 249 255 
255 255 255 233 198 155 109 66 34 15 9 15 24 31 36 42 46 47 47 49 49 47 46 47 
49 51 54 56 57 57 60 62 63 61 60 61 61 59 58 58 62 65 67 66 65 68 69 68 65 67 
68 65 63 63 64 63 60 59 58 57 56 56 58 60 61 59 56 55 55 56 56 53 50 48 50 52 
53 52 50 49 50 52 52 50 49 53 60 66 72 78 83 87 88 88 91 98 109 124 148 181 
215 242 255 255 255 247 241 236 235 239 246 253 255 253 240 218 186 145 100 
60 32 17 13 18 27 32 37 42 47 48 47 46 47 46 45 47 49 52 54 55 56 58 60 62 61 
59 59 61 63 62 60 59 61 64 65 65 64 66 67 67 66 69 69 67 64 63 62 60 59 59 59 
58 56 55 57 60 61 60 58 55 55 55 56 54 52 50 51 52 52 51 50 49 50 52 52 51 51 
54 60 65 71 76 81 88 93 96 102 112 127 144 166 195 225 247 255 255 253 244 237 
232 231 233 237 240 241 234 219 197 167 129 87 51 26 15 14 20 28 34 38 44 49 
50 48 47 46 47 48 48 50 52 54 55 57 59 61 61 61 59 60 62 65 65 63 62 61 62 62 
62 62 63 65 65 65 68 67 65 63 61 60 59 59 61 61 60 59 58 59 61 61 61 59 57 55 
55 55 54 53 52 53 53 52 51 49 49 51 53 54 53 53 55 59 65 71 75 81 89 97 103 
110 124 141 160 181 206 230 248 255 255 246 234 225 219 217 217 219 219 216 
207 191 169 140 105 68 39 20 13 15 23 30 35 40 46 50 52 51 49 49 50 50 50 51 
54 56 57 58 60 60 60 60 60 62 63 65 65 65 63 62 61 61 61 61 63 64 64 64 66 64 
63 61 61 60 61 62 62 62 62 62 61 61 61 60 59 59 58 56 55 54 54 53 53 54 54 52 
50 50 50 52 53 55 56 56 57 61 67 72 76 82 91 100 107 117 133 153 173 194 216 
236 249 253 248 237 223 209 200 194 192 191 189 185 174 158 136 109 78 49 28 
16 13 19 28 34 37 41 44 48 50 52 52 52 52 51 50 51 54 57 59 59 59 58 57 58 60 
62 63 65 65 64 64 63 62 62 62 62 64 64 64 63 65 64 64 63 63 63 64 63 63 63 62 
62 62 62 60 58 58 59 59 57 55 54 54 53 54 55 54 52 50 50 52 53 54 55 57 60 63 
68 73 78 80 84 92 102 111 122 139 161 183 204 224 242 251 250 242 229 212 195 
179 168 162 159 156 150 140 125 106 82 56 34 20 14 15 22 32 37 39 41 44 46 49 
52 54 54 53 52 51 50 53 57 59 58 57 55 55 56 58 61 63 64 64 64 64 64 64 63 63 
64 66 65 65 63 65 65 64 65 65 66 66 65 63 62 62 61 60 60 59 58 57 58 59 58 55 
55 55 55 55 55 54 51 49 51 53 54 54 56 59 65 70 76 82 86 87 89 95 105 114 126 
143 166 189 210 230 246 252 248 238 224 205 184 162 146 137 133 128 121 110 
97 82 63 42 25 16 14 16 24 33 38 40 43 46 49 51 53 55 55 55 54 53 52 53 56 58 
57 56 55 56 57 59 61 61 63 64 64 64 64 64 64 64 65 67 66 65 63 65 64 64 64 65 
66 66 65 63 62 62 61 59 58 59 60 60 59 59 58 57 58 58 58 56 55 54 51 49 50 53 
54 55 58 63 71 78 85 91 95 97 99 104 110 118 127 144 168 192 213 233 249 254 
250 240 224 203 178 153 134 122 115 109 101 90 78 65 50 35 22 16 16 19 25 33 
39 42 46 50 52 53 54 55 55 55 55 55 54 54 56 57 57 56 56 58 60 61 61 61 62 64 
65 64 64 64 65 65 66 66 65 62 63 65 64 63 63 63 64 65 64 62 61 61 61 60 59 60 
61 62 60 58 58 58 59 60 58 56 54 54 52 50 50 52 54 57 61 69 78 88 96 103 108 
112 114 116 118 120 127 142 166 191 213 234 249 254 253 245 229 205 178 152 
131 116 105 98 89 78 66 54 42 31 22 19 20 23 28 35 40 44 48 51 53 54 54 54 53 
53 53 54 54 55 56 57 55 55 56 60 62 63 62 62 64 65 65 64 63 64 65 66 66 64 63 
61 64 66 65 64 63 62 63 64 63 62 61 61 62 62 60 59 60 60 59 59 59 60 59 59 57 
54 52 52 52 50 50 53 56 60 67 77 89 101 111 118 123 127 129 128 126 124 127 
141 163 188 210 230 245 253 254 249 234 210 184 159 137 118 103 93 84 72 59 46 
36 28 24 24 27 29 33 38 42 45 48 50 52 53 53 52 51 51 52 53 54 56 57 56 55 55 
57 60 63 63 63 64 66 66 64 63 63 64 66 66 65 64 64 63 65 65 66 65 64 63 63 63 
63 63 63 63 63 63 61 59 58 57 58 59 61 61 59 57 56 54 52 50 50 50 52 55 59 64 
72 85 100 115 126 134 138 140 140 138 134 131 132 143 162 184 205 224 240 250 
254 250 236 215 192 169 147 124 105 91 80 69 55 42 33 28 27 29 33 35 39 44 46 
47 48 50 52 54 53 51 51 52 53 53 54 57 58 58 57 57 59 61 63 63 64 65 66 65 62 
63 65 67 67 67 66 67 67 64 65 64 64 63 62 63 63 63 63 64 65 64 63 63 62 60 58 
57 57 59 60 60 58 56 56 55 53 51 51 51 54 58 62 67 77 91 108 125 138 147 151 
152 150 146 142 138 137 145 160 178 198 217 234 247 252 249 237 219 199 177 
153 128 105 88 76 64 52 41 34 30 31 34 37 40 45 49 50 50 50 51 53 55 54 52 51 
53 53 53 55 57 59 60 59 59 60 61 62 63 65 67 66 63 62 64 67 68 67 67 67 69 69 
65 66 65 63 61 60 61 63 63 62 63 65 64 62 61 62 62 60 58 58 57 57 57 56 56 58 
58 55 54 54 56 58 61 64 70 81 97 115 132 146 156 162 162 158 154 148 142 140 
144 155 171 189 208 227 241 247 245 236 220 201 179 154 127 102 83 69 58 48 40 
36 36 37 38 40 43 48 51 52 52 51 51 53 54 53 52 53 54 54 54 55 57 58 60 60 60 
61 60 60 62 65 68 67 64 62 64 67 67 67 67 67 66 66 66 65 65 65 62 61 62 64 64 
63 64 65 63 60 60 62 63 62 61 59 57 55 54 55 58 60 59 57 56 57 60 63 66 68 74 
85 101 119 137 151 162 168 169 165 158 151 143 138 139 148 162 180 200 219 232 
238 236 229 217 198 174 148 122 97 77 62 50 42 38 39 43 44 43 43 45 48 50 51 
52 51 49 50 51 52 53 54 55 56 56 56 56 57 58 59 60 61 60 59 61 64 66 66 64 62 
63 66 67 68 67 65 64 66 66 63 64 65 64 62 63 65 65 65 65 65 63 61 61 63 64 64 
63 61 58 55 55 57 60 61 60 58 57 59 62 67 70 72 78 87 100 117 135 150 162 168 
169 165 158 149 141 134 134 140 153 171 190 208 220 225 224 220 209 189 163 
137 113 90 69 54 43 38 38 42 47 48 47 47 48 48 48 49 50 49 48 48 50 52 53 54 
55 57 58 57 56 56 57 59 60 60 59 59 61 62 63 62 61 61 62 64 67 68 67 65 64 66 
66 64 63 63 63 63 63 64 65 65 66 65 63 61 62 64 65 66 64 62 60 59 59 60 61 60 
60 59 60 62 65 69 72 75 79 86 96 110 125 140 151 158 160 157 152 145 137 130 
127 132 144 161 180 196 207 212 212 208 197 176 149 123 102 80 60 46 38 36 38 
44 49 49 49 50 51 49 47 48 50 49 48 48 51 53 54 53 54 56 58 58 57 57 58 60 60 
59 59 61 62 62 60 59 60 61 62 62 64 66 65 66 67 67 66 65 62 61 63 64 64 63 63 
64 64 64 63 62 62 63 64 64 63 62 62 62 63 62 60 59 59 60 64 68 71 73 75 78 81 
85 91 100 112 123 134 141 145 144 141 136 130 123 120 124 135 151 168 183 193 
198 198 193 181 159 133 109 89 69 51 39 35 36 39 44 48 49 50 52 53 50 47 48 50 
50 50 51 53 55 55 55 55 56 58 58 58 59 60 62 62 61 60 62 64 63 60 60 62 64 63 
62 62 63 63 65 68 67 66 64 63 62 65 66 65 63 63 63 64 64 63 62 61 61 61 62 61 
61 62 63 62 60 58 58 58 61 66 73 76 77 78 81 83 85 87 93 99 107 115 122 127 
129 128 124 118 112 110 115 126 141 156 169 178 183 182 176 162 141 117 96 78 
61 46 37 35 37 40 44 48 49 51 53 53 49 46 46 49 50 51 52 54 55 56 57 57 59 59 
60 60 60 61 63 64 63 62 63 63 63 62 63 66 66 64 62 63 63 63 66 67 66 65 63 65 
66 67 67 65 63 63 64 65 65 64 63 61 60 61 60 60 61 62 62 59 57 57 58 59 61 67 
74 78 78 79 80 82 82 83 85 89 92 97 104 108 110 111 109 104 99 99 106 117 130 
144 155 164 167 166 158 144 125 104 84 69 55 44 38 37 39 42 45 48 50 52 53 52 
48 45 46 49 50 51 52 53 54 55 57 59 60 61 62 63 62 61 63 65 64 63 62 61 61 62 
64 67 67 64 63 64 64 64 66 67 66 64 65 67 69 69 67 64 62 63 65 65 65 64 61 59 
60 61 61 60 61 62 61 57 55 56 59 59 61 66 73 77 77 76 76 76 76 76 77 78 79 81 
84 87 90 92 92 89 87 90 98 107 119 132 142 148 151 149 142 130 114 95 77 62 52 
44 39 38 40 43 47 49 51 52 52 51 49 47 48 50 51 51 52 53 54 55 57 59 60 61 62 
63 61 60 61 63 63 62 62 61 60 62 65 66 65 64 64 65 66 66 66 67 67 65 66 66 68 
68 66 63 61 62 65 65 64 63 60 59 59 61 61 60 60 62 61 57 55 56 57 57 59 64 70 
74 74 73 72 71 71 70 68 66 65 65 66 68 71 76 78 78 80 85 92 100 110 120 128 
133 136 134 128 118 106 90 72 57 48 43 40 41 43 46 48 50 53 54 53 52 51 51 51 
51 52 52 54 55 55 56 57 58 59 59 61 62 60 60 61 62 62 62 63 63 62 64 66 66 64 
63 64 65 67 65 65 68 67 66 67 64 64 65 66 64 62 63 65 65 64 63 61 60 61 62 62 
61 61 62 61 59 56 55 55 54 56 61 68 72 73 72 70 68 66 64 60 56 54 54 54 55 57 
62 67 70 74 80 86 92 99 108 115 120 123 122 115 106 96 84 68 54 44 41 42 44 47 
48 49 52 56 57 54 53 53 53 51 50 51 54 56 56 56 56 57 58 59 59 60 60 60 60 62 
63 63 63 65 66 66 66 66 66 64 63 65 66 66 65 65 68 67 66 67 64 62 63 66 65 64 
65 66 66 65 64 63 63 63 64 63 62 62 63 63 61 58 56 54 53 53 58 64 69 72 72 69 
65 61 57 52 49 48 48 48 48 49 52 57 61 66 73 78 83 89 96 103 108 112 110 103 
93 85 75 64 52 44 42 44 47 49 50 50 53 57 58 56 54 54 53 51 50 53 56 57 57 56 
56 57 59 59 59 59 60 61 62 64 65 64 64 65 67 67 66 66 66 65 65 65 65 65 65 66 
67 67 66 66 64 63 64 64 64 64 65 65 65 65 64 64 64 65 65 63 62 62 62 62 61 59 
57 54 52 52 55 60 66 69 70 67 62 57 52 47 45 44 44 45 44 44 46 49 53 58 65 70 
75 80 87 92 96 99 97 90 82 74 68 60 52 47 45 46 48 50 50 50 53 57 57 55 54 54 
54 52 52 55 58 59 57 57 58 59 58 56 57 59 61 62 62 64 65 64 63 63 65 66 65 65 
66 66 66 65 64 64 66 65 67 66 65 65 64 63 63 64 63 64 65 64 64 63 63 63 63 64 
63 61 60 60 60 60 59 59 56 54 52 51 53 57 62 65 67 65 61 55 50 47 45 45 43 43 
43 44 46 49 51 54 60 65 68 73 78 81 84 85 84 78 72 68 64 58 52 50 50 50 50 51 
51 51 53 54 54 52 52 53 54 53 53 56 58 59 58 59 60 59 56 54 55 59 62 63 63 64 
65 64 62 60 62 64 65 65 66 67 66 65 64 65 66 66 66 67 65 65 65 63 62 62 63 64 
64 64 63 62 61 61 62 62 62 59 58 59 60 60 59 59 56 54 52 52 55 58 60 62 63 63 
60 56 53 50 49 48 46 44 44 46 48 51 53 54 57 61 63 65 67 70 72 73 72 68 65 64 
61 56 51 51 53 53 53 53 52 51 51 52 52 52 52 53 55 55 55 56 58 59 59 58 59 58 
56 55 56 59 63 64 63 64 65 65 62 60 61 64 65 66 67 67 66 65 65 66 66 64 66 67 
67 66 65 63 61 62 63 65 65 64 63 62 61 61 61 62 62 60 58 58 60 61 61 60 58 56 
55 55 57 57 58 58 60 60 59 57 55 53 52 50 49 48 47 48 50 53 54 54 56 58 58 58 
59 61 63 64 62 60 59 60 58 54 50 51 54 55 55 54 53 51 50 51 52 53 54 55 56 57 
57 58 60 60 59 58 58 57 57 57 58 60 63 64 63 63 64 64 63 61 61 63 64 65 66 67 
66 65 67 67 66 63 65 67 67 65 64 63 63 64 65 66 65 65 64 63 63 62 62 63 64 63 
61 59 60 61 62 61 61 60 59 58 57 55 54 55 57 58 58 57 55 53 52 51 52 52 50 49 
50 53 53 54 56 56 55 54 55 55 57 57 56 55 55 56 56 54 53 53 54 55 54 54 52 51 
49 49 51 53 54 55 58 60 61 61 61 61 61 60 60 60 59 59 60 61 62 63 62 61 61 63 
63 62 62 63 63 63 65 66 65 66 68 67 65 63 63 65 65 63 63 65 66 67 67 65 64 64 
64 64 65 65 64 64 64 65 63 60 59 60 61 62 62 62 61 60 57 54 53 54 56 57 58 56 
55 54 53 53 55 55 54 52 52 53 53 55 56 56 55 53 52 52 52 52 51 51 51 52 52 54 
54 54 53 52 52 51 51 50 49 48 48 50 52 55 58 61 62 63 63 63 63 62 62 61 61 60 
61 61 61 61 60 59 60 63 64 64 64 64 64 63 64 65 66 68 68 67 66 66 64 63 63 63 
64 66 67 68 67 64 62 62 64 65 66 67 66 64 64 65 64 61 59 60 60 60 61 62 61 61 
58 56 56 57 57 57 57 57 57 56 56 55 56 57 56 54 54 54 54 56 57 56 55 53 52 50 
49 48 48 48 48 48 49 51 52 53 51 50 49 49 50 51 51 49 48 49 52 55 58 60 62 63 
63 63 62 62 61 61 61 60 60 61 60 60 60 60 61 63 64 64 63 64 64 64 63 65 68 69 
68 67 67 67 64 62 63 64 64 66 67 68 66 63 61 61 63 65 66 68 66 63 62 64 63 61 
60 61 61 59 59 59 59 60 60 59 59 59 58 57 57 58 59 59 57 56 56 57 55 54 54 55 
56 56 56 54 52 52 51 49 47 46 47 48 49 49 49 49 50 50 50 50 50 49 50 52 53 52 
52 53 55 57 58 60 61 63 64 63 61 60 60 60 60 60 61 62 61 61 61 62 62 64 64 62 
61 62 65 64 63 65 68 69 67 65 66 66 63 62 65 66 65 65 67 67 66 63 61 61 63 64 
66 67 65 62 61 62 62 60 60 61 61 59 58 58 58 58 59 59 60 59 58 57 57 58 60 59 
57 55 56 56 54 53 54 55 56 55 53 50 49 49 49 49 48 47 48 50 52 53 52 50 50 51 
52 52 51 52 53 54 55 56 56 58 59 60 59 59 61 63 64 62 60 59 59 59 59 60 62 64 
64 64 64 64 63 64 64 63 61 62 65 65 63 64 67 67 65 64 63 64 61 63 66 66 64 64 
67 67 66 64 62 62 64 64 65 66 65 62 61 62 61 60 60 62 62 61 60 59 58 57 57 58 
59 58 57 57 57 58 59 59 57 56 56 56 53 52 53 54 55 55 53 50 48 47 48 49 49 49 
51 52 54 55 54 53 52 52 53 52 53 54 56 56 57 57 58 60 61 60 59 59 61 63 63 62 
61 61 61 60 58 59 62 65 65 66 67 66 65 65 65 65 63 64 65 64 63 64 65 66 65 65 
63 63 61 63 65 65 64 65 65 65 65 64 63 63 65 66 66 65 64 63 62 63 62 61 61 62 
62 62 61 60 58 57 57 58 59 58 58 58 59 59 60 59 58 58 58 57 54 52 52 53 53 54 
55 54 51 50 50 51 51 50 51 52 53 55 55 54 54 53 52 52 54 57 58 57 56 56 57 59 
59 59 58 59 60 61 62 63 63 64 63 61 58 58 61 63 65 66 67 67 66 66 66 65 65 66 
64 62 63 65 64 65 67 68 64 64 62 63 63 64 64 66 66 65 64 64 64 65 67 68 67 66 
65 65 63 63 62 62 63 63 63 62 61 59 58 58 59 59 59 59 58 59 60 61 60 60 59 59 
59 58 55 53 52 51 52 54 56 56 54 53 54 55 54 51 51 52 54 56 57 56 55 53 51 53 
57 59 59 57 54 54 56 58 58 58 58 58 58 59 61 63 65 66 66 63 60 59 61 62 63 64 
65 66 67 67 66 65 66 66 64 63 64 64 64 64 67 69 64 63 62 62 63 63 64 66 66 65 
64 64 64 65 67 69 68 67 67 67 66 62 62 64 65 65 64 62 61 60 59 60 60 59 59 59 
58 57 59 61 61 60 58 57 57 58 57 55 53 51 51 53 56 56 55 55 56 58 56 54 54 55 
57 58 58 58 57 54 53 56 59 60 59 56 53 53 56 59 60 59 58 57 57 59 61 63 65 66 
67 66 64 63 63 63 62 62 63 64 66 66 66 65 65 66 66 65 66 65 64 63 66 66 64 63 
63 63 63 61 64 66 66 64 62 62 62 63 65 67 67 67 68 68 66 64 62 64 65 65 63 62 
62 61 61 61 61 60 60 59 57 55 57 59 60 60 57 54 53 56 58 57 55 53 53 54 56 57 
56 55 55 57 58 58 59 60 59 58 57 57 57 55 55 58 60 61 59 57 56 56 58 60 61 61 
60 59 59 61 62 63 64 65 66 66 65 64 64 64 63 62 62 63 65 66 66 63 63 65 66 66 
67 66 64 63 65 68 67 66 65 64 63 61 65 66 67 64 61 60 59 61 63 64 64 65 67 67 
65 64 65 65 64 64 62 62 63 63 63 62 62 61 61 61 59 56 56 58 60 61 57 53 52 55 
59 59 58 56 56 56 57 57 57 56 55 56 58 60 62 62 60 57 55 56 56 55 56 59 61 61 
60 60 61 60 59 59 60 61 62 62 62 62 63 63 64 65 65 64 63 64 64 64 63 62 62 62 
63 65 64 63 63 65 66 66 66 66 64 63 64 70 70 69 67 65 63 62 66 66 67 64 63 61 
60 60 62 63 64 64 65 65 64 65 66 66 64 62 62 62 63 64 63 63 63 62 62 62 61 59 
58 58 59 60 58 54 53 55 58 60 59 59 58 58 57 57 58 58 57 57 59 61 61 61 60 58 
56 55 55 56 58 60 62 61 61 63 64 62 60 58 58 60 62 63 63 63 62 63 66 66 64 63 
62 62 63 63 63 62 62 63 63 63 64 65 65 66 66 66 65 64 63 63 64 68 69 67 65 63 
61 65 66 65 65 65 65 64 62 62 62 63 65 66 65 64 63 65 67 66 64 63 62 62 63 63 
63 64 64 62 61 61 62 61 58 56 56 57 57 56 55 56 58 60 60 59 59 58 57 57 59 59 
59 60 60 60 59 59 60 59 58 57 57 58 60 62 62 61 61 63 63 62 60 59 58 58 59 62 
63 63 62 64 67 67 64 63 62 62 62 64 64 63 64 65 65 63 64 65 65 65 65 64 64 63 
62 62 63 64 65 65 63 62 62 67 65 64 64 64 66 66 64 64 64 65 65 65 65 64 64 66 
68 68 65 64 63 63 63 62 63 64 64 62 59 60 62 61 58 55 54 54 54 55 56 57 58 59 
59 58 58 58 57 57 58 59 59 60 62 61 60 60 60 60 59 58 58 60 61 63 62 61 61 62 
61 60 60 60 59 57 57 60 63 64 64 66 68 66 64 63 63 63 63 65 65 65 66 67 67 65 
63 63 64 63 62 63 64 64 63 64 63 64 63 63 63 63 64 64 62 61 62 63 66 66 64 63 
63 63 64 64 65 64 64 66 68 68 67 65 63 63 63 62 61 63 63 61 59 60 62 62 59 57 
55 53 53 55 58 59 60 60 60 58 57 57 57 57 57 58 59 60 62 63 63 63 62 60 58 58 
59 60 61 61 61 61 62 62 61 60 61 61 61 59 58 60 63 65 66 68 68 65 63 63 64 64 
64 65 66 66 67 68 67 65 64 64 65 64 62 64 66 66 65 66 66 65 64 63 64 64 64 61 
60 61 63 64 65 65 64 62 62 61 62 64 65 65 65 65 65 67 69 67 65 64 65 65 63 62 
62 61 60 61 63 63 61 59 57 55 55 57 61 62 61 61 62 60 59 60 60 58 58 58 59 60 
61 62 64 65 64 62 60 60 61 62 61 61 62 63 63 62 61 61 61 62 62 61 60 61 62 64 
66 67 66 64 62 63 65 65 65 66 66 66 66 65 66 65 66 67 67 66 65 66 68 67 67 66 
65 64 63 63 65 64 62 59 60 62 65 66 66 65 65 64 62 62 63 65 65 66 65 64 64 67 
69 68 66 66 67 66 64 63 63 63 62 62 62 62 62 61 59 57 58 61 64 64 62 62 62 62 
62 63 63 62 60 59 59 59 58 59 62 64 64 63 61 62 63 64 64 63 64 64 63 61 60 61 
61 61 61 62 63 63 63 63 65 65 64 63 63 63 65 66 67 67 67 66 65 63 64 65 67 68 
68 66 65 66 67 67 66 65 62 62 62 64 66 65 63 62 62 65 66 66 65 66 66 66 65 64 
65 65 64 65 65 64 63 64 66 66 66 66 67 67 65 65 64 64 64 63 61 62 63 62 59 59 
61 63 65 64 62 61 61 61 62 64 65 63 60 58 58 58 57 58 60 61 62 62 61 61 63 65 
66 66 66 66 64 62 61 61 60 60 60 62 64 65 64 64 65 65 64 63 63 65 66 67 68 68 
67 66 64 64 65 66 67 66 66 65 64 65 66 66 66 66 61 60 62 64 66 66 66 64 64 64 
65 65 64 64 65 65 66 67 67 64 63 64 66 66 64 64 64 65 66 66 65 65 66 66 65 65 
65 65 63 64 65 63 60 60 62 63 63 63 62 61 59 59 61 62 63 62 59 57 58 60 60 60 
60 60 61 60 60 60 62 63 65 66 67 66 65 63 62 61 61 60 60 62 64 65 64 64 65 65 
64 63 64 66 67 68 68 67 66 64 63 64 66 68 66 64 64 64 63 63 65 67 67 66 62 61 
62 64 65 67 68 65 64 62 63 63 62 62 63 64 66 68 69 66 64 63 63 63 63 63 64 65 
66 66 64 64 66 67 66 65 64 65 64 66 67 65 62 62 63 61 60 61 62 62 60 60 61 62 
62 60 59 59 60 62 62 62 61 60 60 60 60 60 62 62 63 65 66 65 64 63 62 62 62 62 
62 63 64 65 63 63 65 66 64 63 64 66 67 66 66 66 65 63 62 64 67 67 65 62 62 63 
63 63 65 67 67 65 65 65 65 64 64 65 67 65 64 62 63 62 61 61 62 64 66 68 68 66 
64 63 64 64 65 65 65 66 66 65 64 64 66 65 64 63 64 65 66 67 67 66 64 63 62 60 
59 60 62 62 61 62 63 63 62 61 61 61 61 61 60 60 59 59 60 61 61 62 62 62 62 63 
64 63 62 62 62 61 62 64 65 66 66 65 63 63 65 66 64 63 64 64 64 64 65 66 65 64 
64 65 65 64 63 62 62 63 63 62 64 65 64 66 67 68 66 64 62 63 65 63 64 62 63 62 
60 61 63 64 66 67 67 65 63 65 66 66 67 67 66 66 66 65 64 65 67 67 66 65 65 66 
65 65 65 65 64 62 61 61 62 63 63 64 62 63 64 63 63 62 62 62 61 60 59 59 59 59 
60 62 63 62 62 62 62 63 64 64 63 63 62 62 63 65 66 66 67 66 64 64 66 67 67 65 
64 64 63 63 65 65 65 65 65 65 64 62 62 62 63 63 63 64 64 63 63 65 66 68 66 62 
59 61 65 63 62 62 62 62 61 63 65 66 66 67 66 64 64 67 68 68 67 66 65 65 66 66 
66 65 64 63 64 64 65 66 66 65 65 65 62 61 62 61 63 64 64 63 63 63 63 64 63 63 
63 63 61 61 61 61 61 60 61 63 64 63 63 62 63 63 64 65 66 66 65 63 64 65 64 64 
64 65 65 65 67 68 68 67 66 66 65 65 65 66 65 65 65 64 62 60 62 63 64 64 65 64 
64 64 64 63 64 65 64 59 58 60 63 63 62 62 63 63 60 61 63 64 65 65 64 62 63 67 
69 68 66 65 65 66 66 67 66 64 61 61 62 64 65 65 64 65 64 65 65 62 61 63 66 65 
64 63 63 63 63 63 63 64 65 64 63 64 64 64 62 61 61 63 63 63 64 65 66 66 66 65 
66 67 66 65 65 64 63 62 64 66 66 65 66 67 67 68 68 66 66 67 66 66 64 65 65 64 
62 61 63 64 64 64 64 65 64 63 63 63 63 64 64 63 61 61 61 65 63 64 63 63 62 62 
62 63 63 63 62 62 64 66 68 67 65 65 65 66 66 67 66 64 62 61 63 66 66 65 66 68 
68 66 66 65 64 64 65 66 65 65 64 64 64 64 64 64 65 65 65 65 65 63 61 61 63 64 
65 64 64 65 66 66 66 66 65 65 65 65 64 63 61 61 63 64 64 64 65 66 67 67 65 65 
66 68 68 67 66 66 65 64 62 62 63 64 63 63 64 65 65 63 62 64 65 65 66 65 65 64 
63 65 65 64 65 64 63 62 62 63 63 63 63 63 65 66 66 66 64 63 63 63 63 63 63 63 
63 62 64 65 66 66 65 66 67 66 65 64 63 63 64 65 64 63 61 62 63 64 63 64 65 66 
66 65 66 64 62 61 63 65 64 62 62 63 63 64 64 64 63 62 61 63 64 64 63 63 63 62 
62 63 65 66 66 67 66 66 66 68 69 69 68 67 65 62 63 64 64 64 62 61 62 64 64 63 
61 62 63 63 63 63 63 63 64 
